<?xml version="1.0" encoding="UTF-8"?>
<svg id="Layer_1" xmlns="http://www.w3.org/2000/svg" version="1.1" viewBox="0 0 92 92">
  <!-- Generator: Adobe Illustrator 29.0.1, SVG Export Plug-In . SVG Version: 2.1.0 Build 192)  -->
  <defs>
    <style>
      .st0 {
        fill: #f8f4ef;
      }
    </style>
  </defs>
  <path class="st0" d="M53.9,69.4l1.8,7.6-2,.5-1.5-6-3.4.8-.4-1.6,5.4-1.3ZM39.7,70.2h2.1c0,.1.4,1.6.4,1.6l3.3.2.6-1.4h2.1c0,.1-3.2,7.7-3.2,7.7l-3.2-.2-2.1-8ZM44.9,73.5l-2.3-.2.9,3.4,1.4-3.2ZM38.2,72.7l-1.9,4.4-1.9-.8,1.8-4.2c.5-1.2.2-1.8-.8-2.2-1-.4-1.6-.3-2.1,1l-1.8,4.2-1.9-.8,1.9-4.4c.8-1.9,2.4-2.4,4.6-1.5,2.2.9,2.9,2.4,2.1,4.3ZM26.4,63.6l-4.2,4.4-1.4-1.4,5.4-5.6,2.4,2.3-2,5.2c-.1.3-.3.7-.5,1l4.3-4.4,1.4,1.4-5.4,5.6-2.4-2.3,2-5.3c.1-.3.3-.6.4-.9ZM24,56.5c1.3,2.7,0,4.6-1.9,5.5-1.9.9-4.2.7-5.5-2-1.2-2.5-.6-4,1.3-5.1l.9,1.9c-.9.5-1.3,1.2-.7,2.4.6,1.3,1.6,1.5,3,.8,1.4-.7,1.9-1.5,1.3-2.8-.6-1.3-1.3-1.5-2.4-1.1l-.9-1.9c2.2-.8,3.6-.3,4.8,2.3ZM21.9,52l-7.8.6-.2-2.1,3-.3-.3-3.2-3,.3-.2-2.1,7.8-.6.2,2.1-3.1.3.3,3.2,3.1-.3.2,2.1ZM18.8,40.7l1.5.4,1-4.1,1.6.4-1.5,6.1-7.6-1.9,1.5-6.1,1.6.4-1,4,1.4.3.9-3.7,1.5.4-.9,3.7ZM23.3,36.4l-6.6-4.2,2.1-3.3c1.4-2.1,3.6-2.1,5.3-1,1.7,1.1,2.7,3.1,1.3,5.2l-2.1,3.3ZM23.1,33.8l.8-1.2c.8-1.2.4-2.1-.8-2.9-1.3-.8-2.2-.7-3,.5l-.8,1.2,3.8,2.4ZM30.5,24.3c.4.5,1.1.8,2,.2.8-.5,1-1,.7-1.5-.3-.4-.7-.5-1.2-.3l-1.5.7c-1.3.6-2.4.3-3.1-.8-.8-1.2-.3-2.7,1.6-3.9,2-1.3,3.5-.8,4.3.4l-1.7,1.1c-.4-.5-1-.6-1.8-.1-.7.4-.9.9-.6,1.4.2.3.6.5,1.1.2l1.3-.6c1.5-.8,2.6-.5,3.4.7.8,1.3.5,2.7-1.6,4-2.2,1.3-3.6.7-4.4-.5l1.7-1ZM36.8,23.6l-.4-1.6,1.3-.4-1.2-4.4-1.3.4-.4-1.6,4.6-1.3.4,1.6-1.3.4,1.2,4.4,1.3-.4.4,1.6-4.6,1.3ZM44.5,22.1v-6.2s-2.5,0-2.5,0v-1.6s7.1,0,7.1,0v1.6s-2.5,0-2.5,0v6.2s-2,0-2,0ZM52.7,19.8l-.5,1.5,4,1.2-.5,1.6-6-1.8,2.3-7.5,6,1.8-.5,1.6-4-1.2-.4,1.4,3.7,1.1-.4,1.4-3.7-1.1ZM61.4,23l3.9,3.2-.8,1-3.9-3.2.8-1ZM65.5,32.2l1.4-.7,4.2,2.2c.6.3,1.1.4,1.5.1.5-.2.7-.7.3-1.5-.6-1.1-1.5-1-2.3-.6l-1-1.8c1.5-.7,3.4-.6,4.7,1.8,1.1,2.1.6,3.3-.6,3.9-.9.5-2,.3-4-.8l-1.5-.9,2,3.8-1.4.7-3.3-6.2ZM69.3,42.9c-.4-2.8,1.4-4.1,3.5-4.4,2-.3,4.2.4,4.6,3.3.4,2.8-1.5,4.1-3.5,4.4-2.1.3-4.2-.4-4.6-3.3ZM73.1,40.6c-1.5.2-2.3.7-2.1,2,.2,1.4,1.1,1.6,2.6,1.4,1.5-.2,2.3-.7,2.1-2-.2-1.4-1.1-1.6-2.6-1.4ZM70,47.7l1.6.3,1.8,4.4c.3.7.6,1,1.1,1,.5,0,1-.1,1.1-1,.2-1.2-.5-1.7-1.4-1.9l.4-2c1.6.3,3.1,1.7,2.5,4.4-.4,2.3-1.6,2.9-2.9,2.7-1-.2-1.8-1-2.6-3.2l-.7-1.7-.8,4.2-1.6-.3,1.3-6.9ZM71.8,65l-1.4-.8,2.2-3.8-1.5-1c.1.6,0,1.3-.5,2.2-.8,1.4-2.1,2-3.6,1.2-1.5-.9-1.8-2.4-.6-4.5,1.2-2,2.6-2.3,3.8-1.7l-1.1,1.9c-.4-.2-1,0-1.4.7-.5.9-.3,1.5.4,1.9.7.4,1.3.2,1.7-.5.4-.7.3-1.2.1-1.5l1-1.7,3.8,2.5-3,5.3ZM64.7,67.1l-4,3.1-.8-1.1,4-3.1.8,1.1Z"/>
</svg>