<?xml version="1.0" encoding="UTF-8"?>
<svg id="Layer_1" xmlns="http://www.w3.org/2000/svg" version="1.1" viewBox="0 0 92 92">
  <!-- Generator: Adobe Illustrator 29.0.1, SVG Export Plug-In . SVG Version: 2.1.0 Build 192)  -->
  <defs>
    <style>
      .st0 {
        fill: #f8f4ef;
      }
    </style>
  </defs>
  <path class="st0" d="M54.1,69.3l1.9,7.5-2,.5-1.5-6-3.4.9-.4-1.6,5.4-1.4ZM39.9,70.2h2.1c0,.1.4,1.6.4,1.6l3.3.2.6-1.4h2.1c0,.1-3.1,7.7-3.1,7.7l-3.2-.2-2.2-7.9ZM45.1,73.6h-2.3c0-.1,1,3.2,1,3.2l1.3-3.2ZM38.5,72.8l-1.9,4.5-1.9-.8,1.7-4.2c.5-1.3.2-1.8-.8-2.2-1-.4-1.6-.3-2.1,1l-1.7,4.2-1.9-.8,1.9-4.5c.8-1.9,2.3-2.4,4.6-1.5s2.9,2.4,2.1,4.3ZM26.5,63.8l-4.2,4.5-1.4-1.3,5.3-5.7,2.5,2.3-1.9,5.2c-.1.3-.3.7-.5,1l4.2-4.5,1.4,1.3-5.3,5.7-2.5-2.3,2-5.3c.1-.3.2-.6.4-.9ZM24.1,56.7c1.3,2.7,0,4.6-1.9,5.5-1.9.9-4.2.8-5.5-2-1.2-2.5-.7-4,1.3-5.1l.9,1.9c-.9.5-1.3,1.2-.7,2.4.6,1.3,1.6,1.5,3.1.8,1.4-.7,1.9-1.5,1.3-2.8-.6-1.3-1.4-1.5-2.4-1l-.9-1.9c2.2-.9,3.6-.3,4.8,2.2ZM22,52.3l-7.8.7-.2-2.1,3-.3-.3-3.2-3,.3-.2-2.1,7.8-.7.2,2.1-3.1.3.3,3.2,3.1-.3.2,2.1ZM18.7,41l1.5.4,1-4.1,1.6.4-1.4,6.1-7.6-1.8,1.4-6.1,1.6.4-1,4.1,1.4.3.9-3.7,1.5.3-.9,3.7ZM23.2,36.6l-6.6-4.1,2.1-3.3c1.3-2.1,3.5-2.1,5.2-1.1s2.7,3.1,1.4,5.2l-2.1,3.3ZM23,34l.7-1.2c.8-1.2.4-2.1-.9-2.9-1.3-.8-2.2-.7-3,.5l-.7,1.2,3.8,2.4ZM30.3,24.4c.4.5,1.1.8,2,.2.8-.5,1-1,.7-1.5-.3-.4-.7-.5-1.2-.3l-1.5.7c-1.3.6-2.4.4-3.1-.8-.8-1.2-.4-2.7,1.5-3.9,2-1.3,3.5-.8,4.3.3l-1.7,1.1c-.4-.5-1-.6-1.8-.1-.7.4-.9.9-.6,1.4.2.3.6.5,1.1.2l1.3-.7c1.5-.8,2.6-.5,3.4.7.8,1.3.5,2.7-1.6,4-2.2,1.4-3.6.7-4.4-.4l1.7-1.1ZM36.5,23.7l-.5-1.6,1.3-.4-1.3-4.3-1.3.4-.5-1.6,4.6-1.4.5,1.6-1.3.4,1.3,4.3,1.3-.4.5,1.6-4.6,1.4ZM44.3,22.1v-6.2c0,0-2.6,0-2.6,0v-1.6s7.1,0,7.1,0v1.6s-2.5,0-2.5,0v6.2c0,0-2,0-2,0ZM52.4,19.8l-.4,1.5,4,1.2-.5,1.6-6-1.8,2.2-7.5,6,1.8-.5,1.6-4-1.2-.4,1.4,3.7,1.1-.4,1.4-3.7-1.1ZM61.2,22.9l3.9,3.2-.8,1-3.9-3.2.8-1ZM65.3,32l1.4-.8,4.2,2.2c.6.3,1.1.3,1.5.1.5-.2.7-.7.3-1.5-.6-1.1-1.5-1-2.3-.6l-1-1.8c1.5-.8,3.4-.6,4.7,1.8,1.1,2.1.6,3.3-.5,3.9-.9.5-2,.4-4-.8l-1.6-.9,2,3.8-1.4.8-3.3-6.2ZM69.3,42.7c-.4-2.8,1.4-4.1,3.4-4.5,2-.3,4.2.4,4.6,3.2.4,2.8-1.4,4.1-3.5,4.5-2,.3-4.2-.4-4.6-3.2ZM73.1,40.4c-1.5.2-2.3.7-2.1,2.1.2,1.4,1.1,1.6,2.6,1.3,1.5-.2,2.3-.7,2.1-2.1-.2-1.4-1.1-1.6-2.6-1.3ZM70,47.4l1.6.3,1.9,4.3c.3.7.6,1,1.1,1,.5,0,1-.2,1.1-1,.2-1.2-.5-1.7-1.4-1.9l.4-2c1.6.3,3.1,1.7,2.6,4.3-.4,2.3-1.6,2.9-2.8,2.7-1-.2-1.8-1-2.6-3.1l-.7-1.6-.8,4.2-1.6-.3,1.3-6.9ZM68.3,55.5l1.4.8.3,4.7c0,.7.3,1.1.7,1.3.4.3,1,.2,1.4-.5.6-1.1,0-1.8-.7-2.3l1-1.8c1.4.9,2.4,2.6,1,5-1.2,2.1-2.5,2.2-3.6,1.6-.9-.5-1.4-1.5-1.4-3.8v-1.8c0,0-2.2,3.7-2.2,3.7l-1.4-.8,3.5-6.1ZM64.5,67.3l-4,3-.8-1.1,4-3,.8,1.1Z"/>
</svg>