<?xml version="1.0" encoding="UTF-8"?>
<svg id="Layer_1" xmlns="http://www.w3.org/2000/svg" version="1.1" viewBox="0 0 92 92">
  <!-- Generator: Adobe Illustrator 29.0.1, SVG Export Plug-In . SVG Version: 2.1.0 Build 192)  -->
  <defs>
    <style>
      .st0 {
        fill: #f8f4ef;
      }
    </style>
  </defs>
  <path class="st0" d="M88,46l-2.7-3.9c.6-1.4,1.3-2.9,1.6-3.4h.2v-1.1l-.5-.3-2.9-2.8.9-3.9v-.7s-3.9-2.5-3.9-2.5v-5h-.7l-3.7-1.5-.7-3.9v-.9h-.7s-4-.7-4-.7c-.9-2.2-1.3-3.3-1.6-3.7v-.9l-.9.3h-3.9l-2.2-3.5-.4-.4h-.5l-4,.9-2.8-2.9c0,0-.4-.4-.7-.2h-.2l-3.9,1.6-3.3-2.3-.6-.4-3.9,2.7c-1.4-.6-2.9-1.3-3.4-1.6v-.2h-1.1l-.3.5-2.8,2.9-3.9-.9h-.7s-2.5,3.9-2.5,3.9h-5v.7l-1.5,3.7-3.9.7h-.9v.7s-.7,4-.7,4c-2.3.9-3.3,1.3-3.7,1.6h-.9l.3.9v3.9l-3.5,2.2-.4.4v.5l.9,4-2.9,2.8c0,0-.4.4-.2.7v.2l1.6,3.9-2.3,3.3-.4.6,2.7,3.9c-.6,1.4-1.3,2.9-1.6,3.4h-.2v1.1l.5.3,2.9,2.8-.9,3.9v.7s3.9,2.5,3.9,2.5v5h.7l3.7,1.5.7,3.9v.9h.7s4,.7,4,.7c.9,2.3,1.3,3.3,1.6,3.7v.9l.9-.3h3.9l2.2,3.5.4.4h.5l4-.9,2.8,2.9c0,0,.4.4.7.2h.2l3.9-1.6,3.3,2.3.6.4,3.9-2.7c1.4.6,2.9,1.3,3.4,1.6v.2h1.1l.3-.5,2.8-2.9,3.9.9h.7s2.5-3.9,2.5-3.9h5v-.7l1.5-3.7,3.9-.7h.9v-.7s.7-4,.7-4c2.2-.9,3.3-1.3,3.7-1.6h.9l-.3-.9v-3.9l3.5-2.2.4-.4v-.5l-.9-4,2.9-2.8c0,0,.4-.4.2-.7v-.2l-1.6-3.9,2.3-3.3.4-.6ZM84.1,49.7l1.8,4.2h0c0,0-3.2,3.2-3.2,3.2l.9,4.4-3.9,2.5v4.4h-.2v.2c-.6.3-2.2.9-3.7,1.5h-.3c0,.1-.8,4.6-.8,4.6l-4.6.9-1.7,4.2h-4.6l-2.4,3.8h0c0,0-4.4-1-4.4-1l-3.3,3.4h0c-.5-.3-1.6-.7-3.9-1.8h-.3c0-.1-3.7,2.5-3.7,2.5h0s-3.7-2.7-3.7-2.7l-4.2,1.8h0l-3.1-3.2-4.4.9-2.5-3.9h-4.4v-.2h-.2c-.3-.6-.9-2.2-1.5-3.7v-.3c-.1,0-4.6-.8-4.6-.8l-.9-4.6-4.2-1.7v-4.6l-3.8-2.4h0s1-4.4,1-4.4l-3.4-3.3h0c.3-.5.8-1.6,1.8-3.9v-.3c.1,0-2.5-3.7-2.5-3.7h0s2.7-3.8,2.7-3.8l-1.8-4.2h0c0,0,3.2-3.2,3.2-3.2l-.9-4.4,3.9-2.5v-4.4h.2v-.2c.6-.3,2.2-.9,3.7-1.5h.3c0-.1.8-4.6.8-4.6l4.6-.9,1.7-4.2h4.6l2.4-3.8h0c0,0,4.4,1,4.4,1l3.3-3.4h0c.5.3,1.6.7,3.9,1.8h.3c0,.1,3.7-2.5,3.7-2.5h0s3.7,2.7,3.7,2.7l4.2-1.8h0l3.1,3.2,4.4-.9,2.5,3.9h4.4v.2h.2c.3.6.9,2.2,1.5,3.7v.3c.1,0,4.6.8,4.6.8l.9,4.6,4.2,1.7v4.6l3.8,2.4h0s-1,4.4-1,4.4l3.4,3.3h0c-.3.5-.8,1.6-1.8,3.9v.3c-.1,0,2.5,3.7,2.5,3.7h0s-2.7,3.8-2.7,3.8Z"/>
  <path class="st0" d="M59.4,56.7l-9.1-9.1c-.1-.1-.2-.2-.3-.3-.2-.2-.3-.4-.5-.5-.1-.2-.3-.2-.4-.2,0,0-.1,0-.2,0,0,0-.1,0-.1.1-.1.1-.1.2-.1.3,0,.2.1.3.2.4l9.3,9.3c.2.1.3.3.5.5,0,.1.2.2.3.3.3.4.4.9.3,1.4-.2.5-.5.9-1,1-.6.1-1.2,0-1.6-.5l-9.1-9.1s0,0,0-.1c0-.1-.2-.2-.3-.3-.1-.1-.2-.1-.3-.1s-.3,0-.3.1c0,0-.2.1-.2.2,0,.1,0,.3.2.4l9.6,9.6c.5.5,1.2.7,1.8.7s.4,0,.5,0c.8-.2,1.5-.7,1.8-1.5,0-.1.1-.2.1-.3h0v-.7h0c-.2-.7-.5-1.2-1-1.7Z"/>
  <path class="st0" d="M45.9,48.5c1-1.2,2.1-2.4,3.2-3.5,1.1-1.2,2.2-2.4,3.2-3.6,0,0,0,0,0-.1.2.2.4.3.5.3.1.2.3.2.4.2h.4c0,0,.1-.1.2-.2,0,0,.1,0,.2-.1l.3.3c-.3.3-.4.6-.4.9s.2.6.5.9c.4.4.7.7,1.1,1,.5.5,1.2.5,1.8,0,.4-.5.8-.9,1.3-1.4.4-.5.8-.9,1.2-1.4.3-.3.3-.6.3-.9s-.1-.7-.4-.8h0c-.3-.3-.7-.7-1.1-1-.3-.3-.6-.3-.9-.3h0c0,.1-.3.1-.4.1h0c0,.1-.3.2-.3.2l-.3-.3c.2-.3.3-.6.3-.8s-.1-.3-.3-.5l-.2-.2c-.6-.6-1.3-1.2-1.9-1.7-.5-.5-1.1-1-1.6-1.5-1.7-1.4-3.4-1.9-5.4-1.7h-.3c-.8.1-1.6.4-2.3.9-.2.2-.3.3-.3.4v.5c0,.1.1.3.2.4.1.1.2.2.4.2h.5s.1,0,.1,0c.8.2,1.8.4,2.6,1,.4.2.7.5.7.8h0s0,0,0,0c.2.3.1.5,0,.9h0v1c-1.1,1.2-2.2,2.4-3.2,3.6-1.1,1.2-2.1,2.4-3.2,3.6h-.3c-.4-.1-.7,0-.9.3h0l-.3.3c-.2.2-.4.4-.4.6-.1.2,0,.5,0,.7l-.2.2c-.2.1-.3.2-.5.3-.6.4-1.2.8-1.6,1.3-.9.8-1.7,1.6-2.5,2.5-.7.7-1.3,1.4-1.9,2.1-.6.7-1.2,1.4-1.9,2.1-.6.7-.8,1.3-.8,2.2.1.6.3,1.1.6,1.5.3.4.7.7,1.3.9.3,0,.6,0,.8,0s.5,0,.8,0c.6-.2,1-.5,1.4-.9,1.2-1.3,2.4-2.6,3.6-3.9,1.7-1.7,3.1-3.5,4-5.4h.7c.2,0,.4-.2.6-.4,0-.1.2-.2.2-.2.1,0,.2-.2.2-.2.2-.2.4-.6.2-.9v-.4ZM43.2,50.1c-.2.3-.4.6-.5.9-.6,1-1.2,2.1-2,3-.9.9-1.7,1.8-2.5,2.8-.8.9-1.6,1.8-2.5,2.7-.4.5-1.1.7-1.7.6-.6-.1-1-.5-1.3-1.1,0-.3,0-.7,0-1,.1-.3.2-.6.5-.9,1.6-1.7,3.2-3.4,4.7-5.2,1.2-1.2,2.5-2.2,3.8-3.2l1.6,1.4ZM43.7,46.6l6.6-7.3,1.5,1.3-6.6,7.3-1.5-1.4ZM50.6,38c.2-.7.2-1.2,0-1.7-.2-.5-.5-.9-1-1.2-.8-.5-1.7-.9-2.9-1.1h-.2c.8-.5,1.7-.5,2.5-.5,1.4.1,2.6.6,3.6,1.6l3.3,3,.2.2-2.4,2.6c-.5-.4-.9-.8-1.4-1.2-.5-.4-1-.9-1.5-1.3h0v-.3ZM55,40.8l1.1-1.2.3.3-1.1,1.2-.3-.3ZM55.3,42.8v-.2c0,0,2.5-2.7,2.5-2.7h.1c0-.1,0-.1,0-.1,0,0,.2,0,.2,0,.1.1.3.3.5.4.2.1.3.3.5.4,0,0,0,.1,0,.2v.2c0,0-2.5,2.7-2.5,2.7,0,0-.1,0-.2,0h-.2c-.1-.2-.3-.4-.5-.5-.2-.1-.3-.3-.5-.4,0,0,0-.1,0-.2ZM45,49.3l-.4.4-2.5-2.3.4-.4,2.5,2.3Z"/>
  <path class="st0" d="M37.6,42.5c.8-.1,1.5.1,2,.7l1.9,1.9c0,0,0,.1.1.1h.5c0-.2.1-.2.2-.3,0-.1,0-.3-.2-.4l-.2-.2c-.6-.7-1.6-1.8-1.7-1.9h0s-.1,0-.1,0c-.8-.7-1.6-.9-2.6-.7-.2,0-.5,0-.7,0-1.7,0-3.1-1-3.8-2.6-.3-.4-.3-.9-.3-1.4h.1c.4.4.7.7,1.1,1,.4.3.7.6,1.1.9.4.4.9.4,1.3.4s.9-.2,1.2-.6l1.2-1.5c.6-.7.5-1.6,0-2.4h0s-.1,0-.1,0l-.6-.5-1.8-1.4c.6,0,1.1,0,1.7,0,.6.2,1.2.5,1.7.9.9.8,1.4,1.9,1.4,3.3v.2c0,1,.3,1.8,1,2.3l2.1,2.1s0,0,0,.1c0,0,.1.2.2.2.1.1.2.1.3.1s.3,0,.3-.1h0c.1-.1.2-.3.2-.4s0-.3-.2-.4l-2.4-2.4c-.5-.5-.8-1-.8-1.9,0-1.6-.6-3.1-1.8-4.1-1.2-.9-2.7-1.3-4.2-1h0c-.1,0-.2,0-.3,0h0s0,0,0,0c0,0,0,0,0,0,0,0-.1,0-.1,0h0c-.2.1-.3.2-.3.5v.5c0,.2.1.3.2.4,0,0,0,0,0,0,.4.4.8.7,1.2,1,.4.3.9.7,1.3,1,.3.2.4.3.4.6h0c0,.2,0,.4-.2.6-.1.2-.3.4-.5.6-.2.2-.4.4-.5.6-.2.3-.3.4-.6.4s-.4-.1-.7-.3c-.2-.1-.3-.3-.5-.4-.7-.5-1.4-1.1-2-1.6-.1-.1-.2-.2-.4-.2h-.5c-.2,0-.4.2-.4.3-.1.2-.1.3-.1.5,0,1.6.5,3,1.7,4.1,1.1,1,2.6,1.5,4.2,1.3Z"/>
  <path class="st0" d="M48.1,48c-.1,0-.2,0-.2,0-.2,0-.4.1-.4.1h0c-.1.1-.1.2-.1.3,0,.2.1.4.2.5l7.6,7.6c0,0,.2.2.2.2h0s.3,0,.3,0c.1,0,.3,0,.3-.1h0c.1-.1.1-.2.1-.3v-.3h0c0-.1-.2-.2-.2-.2-.5-.5-1.1-1.1-1.6-1.6l-.8-.8c-1.1-1.2-2.3-2.4-3.5-3.5-.6-.6-1.1-1.1-1.7-1.7h0c0-.1-.2-.1-.2-.1Z"/>
  <path class="st0" d="M40.9,41c-.2,0-.3.1-.3.3s.1.4.2.5l1.3,1.3c.1.1.2.2.3.3.2.2.3.4.5.5h0s.5,0,.5,0c.1,0,.2-.1.2-.1h0v-.2h0c0,0,0-.2,0-.2h0s0,0,0,0c0,0,0-.2,0-.2h0s-2-2-2-2h-.2v-.3h-.4Z"/>
</svg>