<?xml version="1.0" encoding="UTF-8"?>
<svg id="Layer_1" xmlns="http://www.w3.org/2000/svg" version="1.1" viewBox="0 0 92 92">
  <!-- Generator: Adobe Illustrator 29.0.1, SVG Export Plug-In . SVG Version: 2.1.0 Build 192)  -->
  <defs>
    <style>
      .st0 {
        fill: #f8f4ef;
      }
    </style>
  </defs>
  <path class="st0" d="M87.8,45.7l-2.5-3.6c.7-1.6,1.5-3.3,1.7-3.6,0,0,.1-.2.1-.3v-.3c0-.2,0-.3-.2-.4h-.2c0-.1-2.9-2.9-2.9-2.9l.9-3.9s0,0,0-.1v-.3c0-.2,0-.3-.2-.4l-3.7-2.4v-4.5c0-.3-.2-.5-.5-.5h-.2l-3.7-1.5-.7-3.9v-.4c0-.3-.2-.5-.5-.5h-.2s-4-.7-4-.7c-.9-2.2-1.3-3.3-1.6-3.7v-.2c0-.2,0-.3-.2-.4-.1,0-.3-.1-.5,0h-.2c0,0-3.9,0-3.9,0l-2.2-3.5s0,0,0,0l-.2-.2c0,0-.2-.1-.4-.1h-.3s0,0-.1,0l-3.9.8-2.8-2.9c0,0-.4-.4-.7-.2h-.2c0,0-.1,0-.2,0l-3.7,1.6-3.3-2.3s0,0,0,0l-.3-.2c-.2-.1-.4-.1-.6,0l-3.6,2.5c-1.6-.7-3.3-1.5-3.6-1.7,0,0-.2-.1-.3-.1h-.3c-.2,0-.3,0-.4.2v.2c-.1,0-2.9,2.9-2.9,2.9l-3.9-.9s0,0-.1,0h-.3c-.2,0-.3,0-.4.2l-2.4,3.7h-4.5c-.3,0-.5.2-.5.5v.2l-1.5,3.7-3.9.7h-.4c-.3,0-.5.2-.5.5v.2s-.7,4-.7,4c-2.3.9-3.3,1.3-3.7,1.6h-.2c-.2,0-.3,0-.4.2,0,.1-.1.3,0,.5v.2c0,0,0,3.9,0,3.9l-3.5,2.2s0,0,0,0l-.2.2c0,0-.1.2-.1.4v.3s0,0,0,.1l.8,3.9-2.9,2.8c0,0-.4.4-.2.7v.2c0,0,0,.1,0,.2l1.6,3.7-2.3,3.3-.2.3c-.1.2-.1.4,0,.6l2.5,3.6c-.7,1.6-1.5,3.3-1.7,3.6,0,0-.1.2-.1.3v.3c0,.2,0,.3.2.4h.2c0,.1,2.9,2.9,2.9,2.9l-.9,3.9s0,0,0,.1v.3c0,.2,0,.3.2.4l3.7,2.4v4.5c0,.3.2.5.5.5h.2l3.7,1.5.7,3.9v.4c0,.3.2.5.5.5h.2s4,.7,4,.7c.9,2.3,1.3,3.3,1.6,3.7v.2c0,.2,0,.3.2.4.1,0,.3.1.4,0h.2c0,0,3.9,0,3.9,0l2.2,3.5s0,0,0,0l.2.2c0,0,.2.1.4.1h.3s0,0,.1,0l3.9-.8,2.8,2.9c0,0,.4.4.7.2h.2c0,0,.1,0,.2,0l3.7-1.6,3.3,2.3.3.2c0,0,.2,0,.3,0s.2,0,.3,0l3.6-2.5c1.6.7,3.3,1.5,3.6,1.7,0,0,.2.1.3.1h.3c.2,0,.3,0,.4-.2v-.2c.1,0,2.9-2.9,2.9-2.9l3.9.9s0,0,.1,0h.3c.2,0,.3,0,.4-.2l2.4-3.7h4.5c.3,0,.5-.2.5-.5v-.2l1.5-3.7,3.9-.7h.4c.3,0,.5-.2.5-.5v-.2s.7-4,.7-4c2.2-.9,3.3-1.3,3.7-1.6h.2c.2,0,.3,0,.4-.2s.1-.3,0-.5v-.2c0,0,0-3.9,0-3.9l3.5-2.2s0,0,0,0l.2-.2c0,0,.1-.2.1-.4v-.3s0,0,0-.1l-.8-3.9,2.9-2.8c0,0,.4-.4.2-.7v-.2c0,0,0-.1,0-.2l-1.6-3.7,2.3-3.3.2-.3c.1-.2.1-.4,0-.6ZM84.3,49.5c-.1.1-.1.3,0,.5l1.7,3.9h0c0,0-3,3-3,3-.1.1-.2.3-.1.5l.9,4.1-3.7,2.3c-.1,0-.2.3-.2.4v4.2s0,0,0,0c-.3.2-2.2.9-3.9,1.6-.2,0-.3.2-.3.4l-.8,4.2-4.3.8c-.2,0-.3.1-.4.3l-1.6,4h-4.3c-.2,0-.3,0-.4.2l-2.3,3.6h0c0,0-4.1-.9-4.1-.9-.2,0-.4,0-.5.1l-3.1,3.2h0c-.5-.3-1.6-.7-3.9-1.8-.2,0-.4,0-.5,0l-3.5,2.5h0s-3.5-2.5-3.5-2.5c0,0-.2,0-.3,0s-.1,0-.2,0l-3.9,1.7h0l-2.9-3c-.1-.1-.3-.2-.5-.1l-4.1.9-2.3-3.7c0-.1-.3-.2-.4-.2h-4.2s0,0,0,0c-.2-.3-.9-2.2-1.6-3.9,0-.2-.2-.3-.4-.3l-4.2-.8-.8-4.3c0-.2-.1-.3-.3-.4l-4-1.6v-4.3c0-.2,0-.3-.2-.4l-3.6-2.3h0s1-4.2,1-4.2c0-.2,0-.4-.1-.5l-3.2-3.1h0c.3-.5.8-1.6,1.8-3.9,0-.2,0-.4,0-.5l-2.5-3.5h0s2.5-3.5,2.5-3.5c.1-.1.1-.3,0-.5l-1.7-3.9h0c0,0,3-3,3-3,.1-.1.2-.3.1-.5l-.9-4.1,3.7-2.3c.1,0,.2-.3.2-.4v-4.2s0,0,0,0c.3-.2,2.2-.9,3.9-1.6.2,0,.3-.2.3-.4l.8-4.2,4.3-.8c.2,0,.3-.1.4-.3l1.6-4h4.3c.2,0,.3,0,.4-.2l2.3-3.6h0c0,0,4.1.9,4.1.9.2,0,.4,0,.5-.1l3.1-3.2h0c.5.3,1.6.7,3.9,1.8.2,0,.4,0,.5,0l3.5-2.5h0s3.5,2.5,3.5,2.5c.1.1.3.1.5,0l3.9-1.7h0l2.9,3c.1.1.3.2.5.1l4.1-.9,2.3,3.7c0,.1.3.2.4.2h4.2s0,0,0,0c.2.3.9,2.2,1.6,3.9,0,.2.2.3.4.3l4.2.8.8,4.3c0,.2.1.3.3.4l4,1.6v4.3c0,.2,0,.3.2.4l3.6,2.3h0s-1,4.2-1,4.2c0,.2,0,.4.1.5l3.2,3.1h0c-.3.5-.8,1.6-1.8,3.9,0,.2,0,.4,0,.5l2.5,3.5h0s-2.5,3.5-2.5,3.5Z"/>
  <path class="st0" d="M46,34.2c-6.9,0-12.5,5.6-12.5,12.5s5.6,12.5,12.5,12.5,12.5-5.6,12.5-12.5-5.6-12.5-12.5-12.5ZM56,42.3c-1.5-.5-3-.8-4.5-1.1-.3-1.5-.6-3-1.1-4.5,2.5,1.1,4.5,3.1,5.6,5.6ZM57,46.7c0,1-.1,1.9-.4,2.8-.1,0-.2,0-.3,0-1.5.5-3,.9-4.5,1.2.3-2.6.3-5.3,0-7.9,1.5.3,3.1.6,4.6,1.2,0,0,.2,0,.2,0s0,0,0,0c.2.9.4,1.8.4,2.8ZM35.4,49.5c-.2-.9-.4-1.8-.4-2.8s.1-1.9.4-2.8c.1,0,.2,0,.3,0,1.5-.5,3-.9,4.5-1.2-.3,2.6-.3,5.3,0,7.9-1.5-.3-3.1-.6-4.5-1.2-.1,0-.2,0-.3,0ZM41.8,42.5c2.8-.4,5.6-.4,8.3,0,.4,2.8.4,5.6,0,8.3-2.8.4-5.6.4-8.3,0-.4-2.8-.4-5.6,0-8.3ZM48.8,36.1c0,.1,0,.2,0,.3.5,1.5.9,3,1.2,4.5-2.6-.3-5.3-.3-7.9,0,.3-1.5.6-3.1,1.2-4.5,0-.1,0-.2,0-.3.9-.2,1.8-.4,2.8-.4s1.9.1,2.8.4ZM41.1,36.9c0,0,.1,0,.2,0h.2c-.4,1.4-.7,2.8-1,4.2-1.5.3-3,.6-4.5,1.1,1-2.3,2.9-4.2,5.1-5.4ZM36.2,51.6c0,0,0-.1,0-.2v-.2c1.4.4,2.8.7,4.2,1,.2,1.4.5,2.9,1,4.2h-.2c0,0-.1,0-.2,0-2.1-1.1-3.8-2.8-4.9-4.9ZM43.2,57.3c0-.1,0-.2,0-.3-.5-1.5-.9-3-1.2-4.5,1.3.2,2.6.3,3.9.3s2.6,0,3.9-.3c-.3,1.5-.6,3.1-1.2,4.5,0,.1,0,.2,0,.3-.9.2-1.8.4-2.8.4s-1.9-.1-2.8-.4ZM50.4,56.7c.5-1.5.8-3,1.1-4.5,1.4-.2,2.8-.5,4.2-1v.2c0,0,0,.1,0,.2-1.1,2.3-3,4.1-5.4,5.1Z"/>
</svg>