<svg width="173" height="897" viewBox="0 0 173 897" fill="none" xmlns="http://www.w3.org/2000/svg">
<path d="M145.678 0.146692C65.9248 -4.69494 28.9689 111.637 16.8161 149.94C7.3975 179.479 -14.4803 252.323 14.4517 348.57C52.7062 476.1 132.62 486.041 182.732 622.706C222.45 731.042 191.926 778.336 248.052 837.383C285.393 876.688 346.551 905.943 384.552 893.024C451.355 870.266 423.693 724.879 419.328 702.271C399.576 598.592 334.817 595.651 370.817 518.917C391.73 478.585 472.539 473.74 531.976 506.574C598.265 543.2 593.649 602.114 666.867 654.947C727.592 698.753 817.575 720.835 850.279 689.148C895.778 645.073 837.46 490.013 736.769 395.799C632.536 298.284 565.815 343.371 418.945 244.215C256.382 134.442 228.408 5.18662 145.678 0.146692Z" fill="#FF6600" style="mix-blend-mode:plus-lighter"/>
</svg>
