<svg width="393" height="1973" viewBox="0 0 393 1973" fill="none" xmlns="http://www.w3.org/2000/svg">
<path d="M1997.8 1471.44C2143.23 1199.29 1822.28 815.396 1716.57 689.051C1635.14 591.451 1432.11 355.545 1069.88 248.854C590.051 107.2 427.655 368.839 -101.362 249.353C-520.704 154.611 -626.005 -56.3948 -910.581 14.1755C-1099.98 61.0791 -1295.16 214.255 -1314.59 377.029C-1348.59 663.285 -827.489 881.308 -746.354 914.984C-374.701 1070.37 -484.362 894.076 -291.542 1188.49C-193.426 1350.3 -84.3433 1600.41 -288.447 1739.7C-516.105 1895.03 -701.556 1750.6 -993.551 1895.26C-1235.68 2015.26 -1454.2 2286.19 -1403.56 2471C-1333.13 2728.08 -730.545 2858.47 -258.384 2706.4C230.342 2548.95 191.081 2214.44 754.457 1909.43C1378.1 1571.87 1846.88 1753.72 1997.8 1471.44Z" fill="#FF6600"/>
</svg>
