<?xml version="1.0" encoding="UTF-8"?>
<svg id="Layer_1" data-name="Layer 1" xmlns="http://www.w3.org/2000/svg" width="675.57mm" height="2500mm" viewBox="0 0 1915 7086.61">
  <path d="M2341.27,119.07c-24.65-94.34-173.6-93.05-222.63-92.61-37.84.29-130.62,2.56-231.27,72.64-133.39,92.76-114.59,189.22-254.08,299.2-110.58,87.18-177.01,69.72-224.19,157.22-31.42,58.22-42.14,140.26-12.74,179.43,51.75,68.84,209.87-18.41,234.44-32.06,112.75-62.25,91.58-138.48,194.24-125.84,54.71,8.95,91,100.83,75.47,182.23-17.32,90.78-87.4,107.78-120.89,212.75-27.76,87.05-19.22,199.79,29.94,225.7,68.38,36.04,226.09-90.44,297.15-242.97,73.54-157.9-4.07-218.17,55.19-426.14,65.62-230.2,204.92-311.69,179.37-409.55Z" fill="#fff140"/>
  <path d="M357.61,499.28c-31.23-92.36-179.72-80.59-228.6-76.7-37.72,2.95-130.12,11.75-225.58,88.75-126.52,101.93-100.98,196.82-232.37,316.36-104.16,94.74-171.66,82.01-212.56,172.62-27.24,60.29-32.15,142.88-.06,179.88,56.47,65.03,208.05-33.15,231.59-48.49,108.09-70.04,81.6-144.58,184.9-139.21,55.21,5.07,97.87,94.17,88.12,176.46-10.89,91.77-79.59,113.67-105.61,220.73-21.56,88.8-5.1,200.66,45.76,223.03,70.75,31.14,219.16-106.13,279.3-263.29,62.24-162.69-19.43-217.34,25.04-428.97,49.25-234.25,182.45-325.35,150.07-421.17h0Z" fill="#fff140"/>
</svg>