<?xml version="1.0" encoding="UTF-8"?>
<svg id="Layer_1" data-name="Layer 1" xmlns="http://www.w3.org/2000/svg" width="675.57mm" height="174.27mm" viewBox="0 0 1915 494">
  <path d="M3235.14,1510.24c188.93-295.5-178.25-685.73-299.18-814.16-93.15-99.22-325.77-338.72-756.67-433.37-570.78-125.72-779.61,159.5-1410.76,59.74C268.23,243.34,152.07,25.26-194.27,114.36c-230.5,59.24-473.33,231.28-504.97,404.6-55.43,304.8,561.21,509.29,657.23,540.85,439.79,145.73,316.62-35.38,533.98,266.59,110,166.35,228.74,425.65-24.14,583.45-282.06,175.96-498.13,32.42-857.15,200.34-297.71,139.3-574.61,437.2-522.96,630.31,71.83,268.63,791.05,376.22,1367.44,191.34,596.62-191.42,566.25-543.6,1260.24-895.02,768.23-388.92,1323.67-220.08,1519.72-526.58Z" fill="#f60"/>
</svg>