<?xml version="1.0" encoding="UTF-8"?>
<svg id="Layer_1" data-name="Layer 1" xmlns="http://www.w3.org/2000/svg" width="675.57mm" height="174.27mm" viewBox="0 0 1915 494">
  <path d="M142.11,337.42c-31.23-92.36-179.72-80.59-228.6-76.7-37.72,2.95-130.11,11.75-225.58,88.75-126.52,101.93-100.98,196.82-232.37,316.36-104.16,94.75-171.66,82.02-212.56,172.63-27.24,60.29-32.15,142.88-.06,179.88,56.47,65.03,208.05-33.15,231.59-48.49,108.08-70.04,81.6-144.58,184.9-139.21,55.21,5.07,97.87,94.17,88.12,176.45-10.89,91.78-79.59,113.68-105.61,220.74-21.56,88.79-5.1,200.66,45.76,223.03,70.75,31.14,219.16-106.14,279.3-263.3,62.24-162.68-19.43-217.33,25.04-428.96,49.24-234.25,182.45-325.35,150.07-421.17Z" fill="#fff140"/>
</svg>