<?xml version="1.0" encoding="UTF-8"?>
<svg id="Layer_1" data-name="Layer 1" xmlns="http://www.w3.org/2000/svg" width="675.57mm" height="2500mm" viewBox="0 0 1915 7086.61">
  <path d="M2341.27,119.07c-24.65-94.34-173.6-93.05-222.63-92.61-37.84.29-130.62,2.56-231.27,72.64-133.39,92.76-114.59,189.22-254.08,299.2-110.58,87.18-177.01,69.72-224.19,157.22-31.42,58.22-42.14,140.26-12.74,179.43,51.75,68.84,209.87-18.41,234.44-32.06,112.75-62.25,91.58-138.48,194.24-125.84,54.71,8.95,91,100.83,75.47,182.23-17.32,90.78-87.4,107.78-120.89,212.75-27.76,87.05-19.22,199.79,29.94,225.7,68.38,36.04,226.09-90.44,297.15-242.97,73.54-157.9-4.07-218.17,55.19-426.14,65.62-230.2,204.92-311.69,179.37-409.55Z" fill="#fffff8"/>
</svg>