<?xml version="1.0" encoding="UTF-8"?>
<svg id="Layer_1" data-name="Layer 1" xmlns="http://www.w3.org/2000/svg" width="675.57mm" height="174.27mm" viewBox="0 0 1915 494">
  <path d="M2746.26-123.33c-16.98-96.01-165.55-106.72-214.46-110.23-37.73-2.76-130.4-7.96-236.36,53.79C2155.01-98.04,2165.99-.39,2018.1,98.01c-117.23,77.99-182.05,55.25-236.12,138.67-36,55.51-53.29,136.41-27.13,177.82,46.03,72.78,210.67-1.46,236.25-13.08,117.39-52.98,102.43-130.66,203.74-109.8,53.82,13.32,82.59,107.83,60.56,187.71-24.57,89.09-95.79,100.4-137.62,202.33-34.68,84.53-35.24,197.6,11.67,227.38,65.26,41.43,232.64-71.95,315.74-218.27,86.01-151.46,13.51-217.79,89.32-420.31,83.93-224.17,229.34-294.19,211.75-393.79Z" fill="#fff140"/>
</svg>