<?xml version="1.0" encoding="UTF-8"?>
<svg id="Layer_1" data-name="Layer 1" xmlns="http://www.w3.org/2000/svg" width="675.57mm" height="2500mm" viewBox="0 0 1915 7086.61">
  <path d="M3284.69,1316.91c-1039.72-371.58-1160.02-720.94-1280.95-849.37-93.16-99.22-325.78-338.73-756.68-433.37C676.28-91.55,467.45,193.68-163.7,93.91-664,14.8-780.16-203.28-1126.5-114.18c-230.49,59.24-473.33,231.28-504.96,404.6-55.43,304.8,561.21,509.29,657.23,540.84,439.79,145.73,421.53,172.77,638.89,474.74,110,166.35,116.61,398.01-136.27,555.81-282.06,175.96-490.91-148.08-849.93,19.84-297.71,139.3-574.61,437.2-522.96,630.31,76.79,618.95,657.76,223.41,839.6,1361.51,278.27,1741.63-182.26,3861.3,985.58,3557.53s1358.16,790.2,2052.16,438.78c394.58-199.76-47.25-2646.21,1005.83-4421.59s642.51-1989.57,246.03-2131.27Z" fill="#f60"/>
  <path d="M1915,378.8c-123.77-114.36-337.58-272.06-667.94-344.63C728.66-80.01,508.82,144.77,0,112.26v6974.35h1915V378.8Z" fill="#f60"/>
</svg>