<?xml version="1.0" encoding="UTF-8"?>
<svg id="Layer_1" xmlns="http://www.w3.org/2000/svg" version="1.1" viewBox="0 0 1915 800">
  <!-- Generator: Adobe Illustrator 29.0.1, SVG Export Plug-In . SVG Version: 2.1.0 Build 192)  -->
  <defs>
    <style>
      .st0 {
        fill: #fffff8;
      }

      .st1 {
        fill: #f60;
      }

      .st2 {
        fill: #fff140;
      }
    </style>
  </defs>
  <path class="st1" d="M1864.6,758.7c9.8-82.3-32.9-171.4-88.1-176.5-103.3-5.4-76.8,69.2-184.9,139.2-23.5,15.3-175.1,113.5-231.6,48.5-32.1-37-27.2-119.6,0-179.9,40.9-90.6,108.4-77.9,212.6-172.6,78.5-71.4,101-134.1,133.4-194.7-118.1-73.8-269.8-144-460.4-185.9C727.7-77.1,507.8,147.1,0,115.1v684.9h1854.6c4.7-12.3,8.1-25.8,10-41.3Z"/>
  <path class="st2" d="M127.5,425.4c-24.3,1.9-71.5,6.3-127.5,29.8v344.8h243.1c58.3-147.2,138.9-221,113-297.9-31.2-92.4-179.7-80.6-228.6-76.7Z"/>
  <path class="st0" d="M1915,37.4c-34,13-71.8,32.9-110.1,63.8-50.9,41-77.2,80.9-99,121.7,87.5,54.7,156.5,111.4,209.1,160.2V37.4Z"/>
  <path class="st2" d="M1854.6,800h60.4v-417c-52.6-48.7-121.6-105.4-209.1-160.2-32.4,60.6-54.9,123.2-133.4,194.7-104.2,94.8-171.7,82-212.6,172.6-27.2,60.3-32.2,142.9,0,179.9,56.5,65,208.1-33.2,231.6-48.5,108.1-70,81.6-144.6,184.9-139.2,55.2,5.1,97.9,94.2,88.1,176.5-1.8,15.5-5.3,29-10,41.3Z"/>
</svg>