<svg width="89" height="478" viewBox="0 0 89 478" fill="none" xmlns="http://www.w3.org/2000/svg">
<path d="M78.7911 44.9122C40.5536 -25.2445 -77.6501 5.19718 -116.562 15.2335C-146.594 22.9335 -219.94 43.0657 -286.144 118.681C-373.909 218.804 -339.907 291.803 -429.119 406.825C-499.841 497.998 -556.125 497.239 -576.366 576.15C-589.851 628.66 -582.174 696.02 -551.053 721.365C-496.301 765.894 -387.779 665.267 -370.938 649.566C-293.562 577.785 -325.451 521.344 -241.311 511.115C-196.03 507.425 -149.023 573.334 -145.292 641.134C-141.139 716.754 -193.515 744.12 -199.417 834.217C-204.302 908.933 -175.244 996.912 -131.029 1007.8C-69.5227 1022.96 30.9202 891.222 57.3053 755.875C84.6069 615.774 10.9766 583.168 17.0331 406.063C23.7558 210.023 118.441 117.696 78.7911 44.9122Z" fill="#FF6600" style="mix-blend-mode:plus-lighter"/>
</svg>
