<?xml version="1.0" encoding="UTF-8"?>
<svg id="Layer_1" xmlns="http://www.w3.org/2000/svg" version="1.1" viewBox="0 0 1915 2476">
  <!-- Generator: Adobe Illustrator 29.0.1, SVG Export Plug-In . SVG Version: 2.1.0 Build 192)  -->
  <defs>
    <style>
      .st0 {
        fill: #f60;
      }
    </style>
  </defs>
  <path class="st0" d="M2301.4,2287.5c188.9-295.5-178.2-685.7-299.2-814.2-93.2-99.2-325.8-338.7-756.7-433.4-570.8-125.7-779.6,159.5-1410.8,59.7-500.3-79.1-616.5-297.2-962.8-208.1-230.5,59.2-473.3,231.3-505,404.6-55.4,304.8,561.2,509.3,657.2,540.8,439.8,145.7,316.6-35.4,534,266.6,110,166.4,228.7,425.7-24.1,583.5-282.1,176-498.1,32.4-857.1,200.3-297.7,139.3-574.6,437.2-523,630.3,71.8,268.6,791.1,376.2,1367.4,191.3,596.6-191.4,566.2-543.6,1260.2-895,768.2-388.9,1323.7-220.1,1519.7-526.6Z"/>
  <path class="st0" d="M2261.1,1093.1c-31.2-92.4-179.7-80.6-228.6-76.7-37.7,3-130.1,11.8-225.6,88.7-126.5,101.9-101,196.8-232.4,316.4-104.2,94.8-171.7,82-212.6,172.6-27.2,60.3-32.2,142.9,0,179.9,56.5,65,208.1-33.2,231.6-48.5,108.1-70,81.6-144.6,184.9-139.2,55.2,5.1,97.9,94.2,88.1,176.5-10.9,91.8-79.6,113.7-105.6,220.7-21.6,88.8-5.1,200.6,45.8,223,70.8,31.1,219.2-106.1,279.3-263.3,62.2-162.7-19.4-217.3,25-429,49.2-234.2,182.4-325.3,150.1-421.2Z"/>
  <path class="st0" d="M356.1,1505.1c-31.2-92.4-179.7-80.6-228.6-76.7-37.7,2.9-130.1,11.8-225.6,88.7-126.5,101.9-101,196.8-232.4,316.4-104.2,94.8-171.7,82-212.6,172.6-27.2,60.3-32.2,142.9,0,179.9,56.5,65,208-33.1,231.6-48.5,108.1-70,81.6-144.6,184.9-139.2,55.2,5.1,97.9,94.2,88.1,176.5-10.9,91.8-79.6,113.7-105.6,220.7-21.6,88.8-5.1,200.6,45.8,223,70.8,31.1,219.2-106.1,279.3-263.3,62.2-162.7-19.4-217.3,25-429,49.2-234.2,182.5-325.3,150.1-421.2Z" shape-rendering="crispEdges"/>
</svg>