<svg width="377" height="339" viewBox="0 0 377 339" fill="none" xmlns="http://www.w3.org/2000/svg">
<mask id="path-1-outside-1_6412_3449" maskUnits="userSpaceOnUse" x="-0.396875" y="-0.980469" width="377" height="345" fill="black">
<rect fill="white" x="-0.396875" y="-0.980469" width="377" height="345"/>
<path d="M46.8341 78.0195V4.86953H66.4141V62.7295H99.3041V78.0195H46.8341ZM127.317 47.8795V62.7295H166.807V78.0195H107.957V4.86953H166.477V20.1595H127.317V33.6895H163.177V47.8795H127.317ZM196.052 78.0195V20.1595H172.512V4.86953H238.952V20.1595H215.412V78.0195H196.052ZM245.623 20.4895V4.86953H262.673V28.7395C262.673 35.7795 260.363 40.9495 249.803 40.9495H245.623V31.2695H252.113V20.4895H245.623ZM288.598 54.2595C289.148 60.3095 293.108 65.8095 303.338 65.8095C312.688 65.8095 316.208 62.5095 316.208 57.4495C316.208 52.6095 313.348 50.1895 307.848 49.4195L291.898 47.6595C278.698 46.1195 271.108 38.6395 271.108 26.2095C271.108 12.4595 281.448 2.99953 302.568 2.99953C325.118 2.99953 334.138 13.7795 335.128 26.7595H315.988C315.218 20.9295 310.818 17.0795 302.568 17.0795C295.088 17.0795 290.688 20.0495 290.688 24.8895C290.688 28.6295 292.888 31.3795 298.498 32.0395L312.468 33.4695C328.528 35.0095 335.788 42.5995 335.788 55.7995C335.788 70.2095 326.768 79.8895 303.008 79.8895C278.918 79.8895 270.558 67.3495 269.788 54.2595H288.598ZM21.0529 165.02V91.8695H63.7329C79.3529 91.8695 85.8429 100.01 85.8429 109.91C85.8429 120.69 79.3529 125.42 70.5529 127.29C79.7929 128.94 86.9429 133.12 86.9429 145.11C86.9429 157.65 78.5829 165.02 62.9629 165.02H21.0529ZM40.4129 150.5H58.0129C64.6129 150.5 66.7029 147.09 66.7029 142.36C66.7029 137.63 64.3929 134.11 57.4629 134.11H40.4129V150.5ZM40.4129 121.46H57.4629C63.7329 121.46 65.6029 118.16 65.6029 113.87C65.6029 109.14 63.2929 106.39 57.5729 106.39H40.4129V121.46ZM95.4756 137.19V91.8695H114.946V134.66C114.946 147.42 119.566 150.94 129.576 150.94C139.586 150.94 144.206 147.42 144.206 134.66V91.8695H163.566V137.19C163.566 156.66 152.126 166.78 129.576 166.78C107.026 166.78 95.4756 156.77 95.4756 137.19ZM173.039 165.02V149.73H185.909V107.16H173.039V91.8695H218.139V107.16H205.269V149.73H218.139V165.02H173.039ZM229.236 165.02V91.8695H248.816V149.73H281.706V165.02H229.236ZM290.36 165.02V91.8695H327.32C351.08 91.8695 361.97 109.25 361.97 128.28C361.97 147.31 351.08 165.02 327.32 165.02H290.36ZM309.72 149.73H322.92C336.23 149.73 341.73 142.36 341.73 128.28C341.73 113.98 336.12 107.16 322.92 107.16H309.72V149.73ZM45.3947 228.26C45.9447 234.31 49.9047 239.81 60.1347 239.81C69.4847 239.81 73.0047 236.51 73.0047 231.45C73.0047 226.61 70.1447 224.19 64.6447 223.42L48.6947 221.66C35.4947 220.12 27.9047 212.64 27.9047 200.21C27.9047 186.46 38.2447 177 59.3647 177C81.9147 177 90.9347 187.78 91.9247 200.76H72.7847C72.0147 194.93 67.6147 191.08 59.3647 191.08C51.8847 191.08 47.4847 194.05 47.4847 198.89C47.4847 202.63 49.6847 205.38 55.2947 206.04L69.2647 207.47C85.3247 209.01 92.5847 216.6 92.5847 229.8C92.5847 244.21 83.5647 253.89 59.8047 253.89C35.7147 253.89 27.3547 241.35 26.5847 228.26H45.3947ZM137.814 253.78C108.994 253.78 98.5445 235.08 98.5445 215.5C98.5445 196.25 108.994 177 137.814 177C166.854 177 177.194 196.36 177.194 215.5C177.194 234.97 166.854 253.78 137.814 253.78ZM118.784 215.5C118.784 229.8 122.744 238.05 137.814 238.05C153.104 238.05 156.954 229.8 156.954 215.5C156.954 200.98 153.104 192.84 137.814 192.84C122.744 192.84 118.784 200.98 118.784 215.5ZM281.968 178.87V252.02H262.608V191.41L245.008 252.02H223.338L205.628 191.08V252.02H186.268V178.87H219.598L234.448 231.23L249.408 178.87H281.968ZM313.157 221.88V236.73H352.647V252.02H293.797V178.87H352.317V194.16H313.157V207.69H349.017V221.88H313.157ZM26.54 339.02V281.16H3V265.87H69.44V281.16H45.9V339.02H26.54ZM76.4826 339.02V265.87H95.8426V294.36H126.423V265.87H145.783V339.02H126.423V309.43H95.8426V339.02H76.4826ZM157.034 339.02V323.73H169.904V281.16H157.034V265.87H202.134V281.16H189.264V323.73H202.134V339.02H157.034ZM268.891 323.4V265.87H287.371V339.02H255.581L235.231 291.28C233.911 288.09 232.701 284.79 231.711 281.38V339.02H213.231V265.87H245.021L265.591 314.6C266.691 317.24 267.901 320.43 268.891 323.4ZM330.956 340.78C307.086 340.78 296.416 323.29 296.416 302.5C296.416 281.27 308.186 264 336.676 264C361.976 264 371.876 275.77 372.866 290.07H353.506C352.626 283.69 347.236 278.96 336.786 278.96C323.696 278.96 316.656 286 316.656 302.5C316.656 318.01 322.486 325.82 335.576 325.82C348.776 325.82 353.176 319.33 354.386 311.08H330.736V298.87H372.756V339.02H356.586V325.6C353.726 333.41 347.016 340.78 330.956 340.78Z"/>
</mask>
<path d="M46.8341 78.0195V4.86953H66.4141V62.7295H99.3041V78.0195H46.8341ZM127.317 47.8795V62.7295H166.807V78.0195H107.957V4.86953H166.477V20.1595H127.317V33.6895H163.177V47.8795H127.317ZM196.052 78.0195V20.1595H172.512V4.86953H238.952V20.1595H215.412V78.0195H196.052ZM245.623 20.4895V4.86953H262.673V28.7395C262.673 35.7795 260.363 40.9495 249.803 40.9495H245.623V31.2695H252.113V20.4895H245.623ZM288.598 54.2595C289.148 60.3095 293.108 65.8095 303.338 65.8095C312.688 65.8095 316.208 62.5095 316.208 57.4495C316.208 52.6095 313.348 50.1895 307.848 49.4195L291.898 47.6595C278.698 46.1195 271.108 38.6395 271.108 26.2095C271.108 12.4595 281.448 2.99953 302.568 2.99953C325.118 2.99953 334.138 13.7795 335.128 26.7595H315.988C315.218 20.9295 310.818 17.0795 302.568 17.0795C295.088 17.0795 290.688 20.0495 290.688 24.8895C290.688 28.6295 292.888 31.3795 298.498 32.0395L312.468 33.4695C328.528 35.0095 335.788 42.5995 335.788 55.7995C335.788 70.2095 326.768 79.8895 303.008 79.8895C278.918 79.8895 270.558 67.3495 269.788 54.2595H288.598ZM21.0529 165.02V91.8695H63.7329C79.3529 91.8695 85.8429 100.01 85.8429 109.91C85.8429 120.69 79.3529 125.42 70.5529 127.29C79.7929 128.94 86.9429 133.12 86.9429 145.11C86.9429 157.65 78.5829 165.02 62.9629 165.02H21.0529ZM40.4129 150.5H58.0129C64.6129 150.5 66.7029 147.09 66.7029 142.36C66.7029 137.63 64.3929 134.11 57.4629 134.11H40.4129V150.5ZM40.4129 121.46H57.4629C63.7329 121.46 65.6029 118.16 65.6029 113.87C65.6029 109.14 63.2929 106.39 57.5729 106.39H40.4129V121.46ZM95.4756 137.19V91.8695H114.946V134.66C114.946 147.42 119.566 150.94 129.576 150.94C139.586 150.94 144.206 147.42 144.206 134.66V91.8695H163.566V137.19C163.566 156.66 152.126 166.78 129.576 166.78C107.026 166.78 95.4756 156.77 95.4756 137.19ZM173.039 165.02V149.73H185.909V107.16H173.039V91.8695H218.139V107.16H205.269V149.73H218.139V165.02H173.039ZM229.236 165.02V91.8695H248.816V149.73H281.706V165.02H229.236ZM290.36 165.02V91.8695H327.32C351.08 91.8695 361.97 109.25 361.97 128.28C361.97 147.31 351.08 165.02 327.32 165.02H290.36ZM309.72 149.73H322.92C336.23 149.73 341.73 142.36 341.73 128.28C341.73 113.98 336.12 107.16 322.92 107.16H309.72V149.73ZM45.3947 228.26C45.9447 234.31 49.9047 239.81 60.1347 239.81C69.4847 239.81 73.0047 236.51 73.0047 231.45C73.0047 226.61 70.1447 224.19 64.6447 223.42L48.6947 221.66C35.4947 220.12 27.9047 212.64 27.9047 200.21C27.9047 186.46 38.2447 177 59.3647 177C81.9147 177 90.9347 187.78 91.9247 200.76H72.7847C72.0147 194.93 67.6147 191.08 59.3647 191.08C51.8847 191.08 47.4847 194.05 47.4847 198.89C47.4847 202.63 49.6847 205.38 55.2947 206.04L69.2647 207.47C85.3247 209.01 92.5847 216.6 92.5847 229.8C92.5847 244.21 83.5647 253.89 59.8047 253.89C35.7147 253.89 27.3547 241.35 26.5847 228.26H45.3947ZM137.814 253.78C108.994 253.78 98.5445 235.08 98.5445 215.5C98.5445 196.25 108.994 177 137.814 177C166.854 177 177.194 196.36 177.194 215.5C177.194 234.97 166.854 253.78 137.814 253.78ZM118.784 215.5C118.784 229.8 122.744 238.05 137.814 238.05C153.104 238.05 156.954 229.8 156.954 215.5C156.954 200.98 153.104 192.84 137.814 192.84C122.744 192.84 118.784 200.98 118.784 215.5ZM281.968 178.87V252.02H262.608V191.41L245.008 252.02H223.338L205.628 191.08V252.02H186.268V178.87H219.598L234.448 231.23L249.408 178.87H281.968ZM313.157 221.88V236.73H352.647V252.02H293.797V178.87H352.317V194.16H313.157V207.69H349.017V221.88H313.157ZM26.54 339.02V281.16H3V265.87H69.44V281.16H45.9V339.02H26.54ZM76.4826 339.02V265.87H95.8426V294.36H126.423V265.87H145.783V339.02H126.423V309.43H95.8426V339.02H76.4826ZM157.034 339.02V323.73H169.904V281.16H157.034V265.87H202.134V281.16H189.264V323.73H202.134V339.02H157.034ZM268.891 323.4V265.87H287.371V339.02H255.581L235.231 291.28C233.911 288.09 232.701 284.79 231.711 281.38V339.02H213.231V265.87H245.021L265.591 314.6C266.691 317.24 267.901 320.43 268.891 323.4ZM330.956 340.78C307.086 340.78 296.416 323.29 296.416 302.5C296.416 281.27 308.186 264 336.676 264C361.976 264 371.876 275.77 372.866 290.07H353.506C352.626 283.69 347.236 278.96 336.786 278.96C323.696 278.96 316.656 286 316.656 302.5C316.656 318.01 322.486 325.82 335.576 325.82C348.776 325.82 353.176 319.33 354.386 311.08H330.736V298.87H372.756V339.02H356.586V325.6C353.726 333.41 347.016 340.78 330.956 340.78Z" fill="#3A3A39"/>
<path d="M46.8341 78.0195H43.8341V81.0195H46.8341V78.0195ZM46.8341 4.86953V1.86953H43.8341V4.86953H46.8341ZM66.4141 4.86953H69.4141V1.86953H66.4141V4.86953ZM66.4141 62.7295H63.4141V65.7295H66.4141V62.7295ZM99.3041 62.7295H102.304V59.7295H99.3041V62.7295ZM99.3041 78.0195V81.0195H102.304V78.0195H99.3041ZM46.8341 78.0195H49.8341V4.86953H46.8341H43.8341V78.0195H46.8341ZM46.8341 4.86953V7.86953H66.4141V4.86953V1.86953H46.8341V4.86953ZM66.4141 4.86953H63.4141V62.7295H66.4141H69.4141V4.86953H66.4141ZM66.4141 62.7295V65.7295H99.3041V62.7295V59.7295H66.4141V62.7295ZM99.3041 62.7295H96.3041V78.0195H99.3041H102.304V62.7295H99.3041ZM99.3041 78.0195V75.0195H46.8341V78.0195V81.0195H99.3041V78.0195ZM127.317 47.8795V44.8795H124.317V47.8795H127.317ZM127.317 62.7295H124.317V65.7295H127.317V62.7295ZM166.807 62.7295H169.807V59.7295H166.807V62.7295ZM166.807 78.0195V81.0195H169.807V78.0195H166.807ZM107.957 78.0195H104.957V81.0195H107.957V78.0195ZM107.957 4.86953V1.86953H104.957V4.86953H107.957ZM166.477 4.86953H169.477V1.86953H166.477V4.86953ZM166.477 20.1595V23.1595H169.477V20.1595H166.477ZM127.317 20.1595V17.1595H124.317V20.1595H127.317ZM127.317 33.6895H124.317V36.6895H127.317V33.6895ZM163.177 33.6895H166.177V30.6895H163.177V33.6895ZM163.177 47.8795V50.8795H166.177V47.8795H163.177ZM127.317 47.8795H124.317V62.7295H127.317H130.317V47.8795H127.317ZM127.317 62.7295V65.7295H166.807V62.7295V59.7295H127.317V62.7295ZM166.807 62.7295H163.807V78.0195H166.807H169.807V62.7295H166.807ZM166.807 78.0195V75.0195H107.957V78.0195V81.0195H166.807V78.0195ZM107.957 78.0195H110.957V4.86953H107.957H104.957V78.0195H107.957ZM107.957 4.86953V7.86953H166.477V4.86953V1.86953H107.957V4.86953ZM166.477 4.86953H163.477V20.1595H166.477H169.477V4.86953H166.477ZM166.477 20.1595V17.1595H127.317V20.1595V23.1595H166.477V20.1595ZM127.317 20.1595H124.317V33.6895H127.317H130.317V20.1595H127.317ZM127.317 33.6895V36.6895H163.177V33.6895V30.6895H127.317V33.6895ZM163.177 33.6895H160.177V47.8795H163.177H166.177V33.6895H163.177ZM163.177 47.8795V44.8795H127.317V47.8795V50.8795H163.177V47.8795ZM196.052 78.0195H193.052V81.0195H196.052V78.0195ZM196.052 20.1595H199.052V17.1595H196.052V20.1595ZM172.512 20.1595H169.512V23.1595H172.512V20.1595ZM172.512 4.86953V1.86953H169.512V4.86953H172.512ZM238.952 4.86953H241.952V1.86953H238.952V4.86953ZM238.952 20.1595V23.1595H241.952V20.1595H238.952ZM215.412 20.1595V17.1595H212.412V20.1595H215.412ZM215.412 78.0195V81.0195H218.412V78.0195H215.412ZM196.052 78.0195H199.052V20.1595H196.052H193.052V78.0195H196.052ZM196.052 20.1595V17.1595H172.512V20.1595V23.1595H196.052V20.1595ZM172.512 20.1595H175.512V4.86953H172.512H169.512V20.1595H172.512ZM172.512 4.86953V7.86953H238.952V4.86953V1.86953H172.512V4.86953ZM238.952 4.86953H235.952V20.1595H238.952H241.952V4.86953H238.952ZM238.952 20.1595V17.1595H215.412V20.1595V23.1595H238.952V20.1595ZM215.412 20.1595H212.412V78.0195H215.412H218.412V20.1595H215.412ZM215.412 78.0195V75.0195H196.052V78.0195V81.0195H215.412V78.0195ZM245.623 20.4895H242.623V23.4895H245.623V20.4895ZM245.623 4.86953V1.86953H242.623V4.86953H245.623ZM262.673 4.86953H265.673V1.86953H262.673V4.86953ZM245.623 40.9495H242.623V43.9495H245.623V40.9495ZM245.623 31.2695V28.2695H242.623V31.2695H245.623ZM252.113 31.2695V34.2695H255.113V31.2695H252.113ZM252.113 20.4895H255.113V17.4895H252.113V20.4895ZM245.623 20.4895H248.623V4.86953H245.623H242.623V20.4895H245.623ZM245.623 4.86953V7.86953H262.673V4.86953V1.86953H245.623V4.86953ZM262.673 4.86953H259.673V28.7395H262.673H265.673V4.86953H262.673ZM262.673 28.7395H259.673C259.673 32.0485 259.104 34.177 257.939 35.511C256.845 36.7628 254.652 37.9495 249.803 37.9495V40.9495V43.9495C255.514 43.9495 259.756 42.5513 262.458 39.458C265.087 36.4471 265.673 32.4706 265.673 28.7395H262.673ZM249.803 40.9495V37.9495H245.623V40.9495V43.9495H249.803V40.9495ZM245.623 40.9495H248.623V31.2695H245.623H242.623V40.9495H245.623ZM245.623 31.2695V34.2695H252.113V31.2695V28.2695H245.623V31.2695ZM252.113 31.2695H255.113V20.4895H252.113H249.113V31.2695H252.113ZM252.113 20.4895V17.4895H245.623V20.4895V23.4895H252.113V20.4895ZM288.598 54.2595L291.585 53.9879L291.337 51.2595H288.598V54.2595ZM307.848 49.4195L308.264 46.4485L308.22 46.4424L308.177 46.4376L307.848 49.4195ZM291.898 47.6595L291.55 50.6393L291.559 50.6404L291.569 50.6414L291.898 47.6595ZM335.128 26.7595V29.7595H338.365L338.119 26.5314L335.128 26.7595ZM315.988 26.7595L313.014 27.1523L313.358 29.7595H315.988V26.7595ZM298.498 32.0395L298.147 35.019L298.17 35.0216L298.192 35.0239L298.498 32.0395ZM312.468 33.4695L312.162 36.4539L312.172 36.4549L312.181 36.4558L312.468 33.4695ZM269.788 54.2595V51.2595H266.606L266.793 54.4357L269.788 54.2595ZM288.598 54.2595L285.61 54.5311C285.936 58.1126 287.299 61.7687 290.317 64.5201C293.343 67.28 297.684 68.8095 303.338 68.8095V65.8095V62.8095C298.762 62.8095 296.007 61.5891 294.359 60.0864C292.702 58.5754 291.81 56.4565 291.585 53.9879L288.598 54.2595ZM303.338 65.8095V68.8095C308.273 68.8095 312.229 67.9555 315.018 65.9715C317.999 63.8513 319.208 60.764 319.208 57.4495H316.208H313.208C313.208 59.195 312.657 60.2878 311.54 61.0825C310.231 62.0135 307.753 62.8095 303.338 62.8095V65.8095ZM316.208 57.4495H319.208C319.208 54.3932 318.277 51.708 316.135 49.713C314.094 47.8121 311.307 46.8745 308.264 46.4485L307.848 49.4195L307.432 52.3906C309.889 52.7346 311.282 53.392 312.046 54.1036C312.709 54.7211 313.208 55.6658 313.208 57.4495H316.208ZM307.848 49.4195L308.177 46.4376L292.227 44.6776L291.898 47.6595L291.569 50.6414L307.519 52.4014L307.848 49.4195ZM291.898 47.6595L292.245 44.6797C286.116 43.9646 281.632 41.9118 278.694 38.9174C275.792 35.9584 274.108 31.7851 274.108 26.2095H271.108H268.108C268.108 33.0639 270.219 38.8456 274.411 43.1191C278.569 47.3572 284.48 49.8145 291.55 50.6393L291.898 47.6595ZM271.108 26.2095H274.108C274.108 20.1578 276.343 15.2683 280.765 11.812C285.283 8.281 292.407 5.99953 302.568 5.99953V2.99953V-0.000473261C291.609 -0.000473261 283.003 2.44805 277.07 7.08458C271.043 11.7958 268.108 18.5113 268.108 26.2095H271.108ZM302.568 2.99953V5.99953C313.391 5.99953 320.521 8.58594 325.016 12.3197C329.472 16.0217 331.691 21.1439 332.137 26.9877L335.128 26.7595L338.119 26.5314C337.575 19.3951 334.788 12.6373 328.85 7.70436C322.95 2.80312 314.295 -0.000473261 302.568 -0.000473261V2.99953ZM335.128 26.7595V23.7595H315.988V26.7595V29.7595H335.128V26.7595ZM315.988 26.7595L318.962 26.3667C318.486 22.7612 316.84 19.5787 313.897 17.3439C311.001 15.1453 307.137 14.0795 302.568 14.0795V17.0795V20.0795C306.249 20.0795 308.709 20.9387 310.269 22.1226C311.78 23.2703 312.72 24.9279 313.014 27.1523L315.988 26.7595ZM302.568 17.0795V14.0795C298.49 14.0795 294.867 14.8799 292.167 16.6682C289.336 18.5424 287.688 21.412 287.688 24.8895H290.688H293.688C293.688 23.5271 294.24 22.4916 295.479 21.6709C296.848 20.7642 299.165 20.0795 302.568 20.0795V17.0795ZM290.688 24.8895H287.688C287.688 27.3747 288.438 29.8328 290.379 31.7525C292.267 33.6195 294.944 34.6422 298.147 35.019L298.498 32.0395L298.848 29.0601C296.441 28.7769 295.213 28.0946 294.599 27.4865C294.037 26.9313 293.688 26.1444 293.688 24.8895H290.688ZM298.498 32.0395L298.192 35.0239L312.162 36.4539L312.468 33.4695L312.773 30.4851L298.803 29.0551L298.498 32.0395ZM312.468 33.4695L312.181 36.4558C319.837 37.1899 324.903 39.3248 328.052 42.4064C331.144 45.431 332.788 49.7616 332.788 55.7995H335.788H338.788C338.788 48.6375 336.802 42.573 332.248 38.1177C327.753 33.7193 321.159 31.2891 312.754 30.4832L312.468 33.4695ZM335.788 55.7995H332.788C332.788 62.3434 330.772 67.401 326.423 70.9147C321.954 74.525 314.556 76.8895 303.008 76.8895V79.8895V82.8895C315.219 82.8895 324.212 80.4141 330.193 75.5819C336.294 70.653 338.788 63.6656 338.788 55.7995H335.788ZM303.008 79.8895V76.8895C291.473 76.8895 284.17 73.894 279.682 69.7733C275.194 65.6538 273.134 60.0571 272.783 54.0834L269.788 54.2595L266.793 54.4357C267.212 61.552 269.717 68.7703 275.624 74.1933C281.53 79.6151 290.453 82.8895 303.008 82.8895V79.8895ZM269.788 54.2595V57.2595H288.598V54.2595V51.2595H269.788V54.2595ZM21.0529 165.02H18.0529V168.02H21.0529V165.02ZM21.0529 91.8695V88.8695H18.0529V91.8695H21.0529ZM70.5529 127.29L69.9293 124.355L70.0255 130.243L70.5529 127.29ZM40.4129 150.5H37.4129V153.5H40.4129V150.5ZM40.4129 134.11V131.11H37.4129V134.11H40.4129ZM40.4129 121.46H37.4129V124.46H40.4129V121.46ZM40.4129 106.39V103.39H37.4129V106.39H40.4129ZM21.0529 165.02H24.0529V91.8695H21.0529H18.0529V165.02H21.0529ZM21.0529 91.8695V94.8695H63.7329V91.8695V88.8695H21.0529V91.8695ZM63.7329 91.8695V94.8695C71.0427 94.8695 75.7579 96.7702 78.6198 99.3899C81.4564 101.987 82.8429 105.627 82.8429 109.91H85.8429H88.8429C88.8429 104.292 86.9844 98.9125 82.671 94.9642C78.3829 91.0388 72.0431 88.8695 63.7329 88.8695V91.8695ZM85.8429 109.91H82.8429C82.8429 114.646 81.4424 117.722 79.3607 119.835C77.2055 122.023 74.0169 123.486 69.9293 124.355L70.5529 127.29L71.1765 130.224C75.8888 129.223 80.3453 127.386 83.6351 124.046C86.9984 120.632 88.8429 115.953 88.8429 109.91H85.8429ZM70.5529 127.29L70.0255 130.243C74.4145 131.027 77.8408 132.342 80.1645 134.514C82.3781 136.583 83.9429 139.762 83.9429 145.11H86.9429H89.9429C89.9429 138.467 87.9327 133.561 84.2613 130.13C80.7 126.802 75.9313 125.203 71.0803 124.336L70.5529 127.29ZM86.9429 145.11H83.9429C83.9429 150.672 82.1186 154.739 78.8761 157.474C75.557 160.274 70.3469 162.02 62.9629 162.02V165.02V168.02C71.1989 168.02 77.9788 166.08 82.7447 162.06C87.5872 157.975 89.9429 152.087 89.9429 145.11H86.9429ZM62.9629 165.02V162.02H21.0529V165.02V168.02H62.9629V165.02ZM40.4129 150.5V153.5H58.0129V150.5V147.5H40.4129V150.5ZM58.0129 150.5V153.5C61.799 153.5 64.9121 152.515 67.0261 150.25C69.1042 148.024 69.7029 145.103 69.7029 142.36H66.7029H63.7029C63.7029 144.346 63.2566 145.495 62.6397 146.156C62.0587 146.779 60.8268 147.5 58.0129 147.5V150.5ZM66.7029 142.36H69.7029C69.7029 139.549 69.0167 136.595 66.8229 134.36C64.619 132.114 61.4022 131.11 57.4629 131.11V134.11V137.11C60.4536 137.11 61.8568 137.865 62.5404 138.562C63.2341 139.269 63.7029 140.44 63.7029 142.36H66.7029ZM57.4629 134.11V131.11H40.4129V134.11V137.11H57.4629V134.11ZM40.4129 134.11H37.4129V150.5H40.4129H43.4129V134.11H40.4129ZM40.4129 121.46V124.46H57.4629V121.46V118.46H40.4129V121.46ZM57.4629 121.46V124.46C61.0992 124.46 64.0791 123.494 66.0928 121.303C68.063 119.16 68.6029 116.384 68.6029 113.87H65.6029H62.6029C62.6029 115.645 62.2078 116.664 61.6755 117.243C61.1867 117.775 60.0966 118.46 57.4629 118.46V121.46ZM65.6029 113.87H68.6029C68.6029 111.059 67.9158 108.274 65.8428 106.223C63.7772 104.179 60.8649 103.39 57.5729 103.39V106.39V109.39C60.0009 109.39 61.1036 109.975 61.6229 110.488C62.135 110.995 62.6029 111.95 62.6029 113.87H65.6029ZM57.5729 106.39V103.39H40.4129V106.39V109.39H57.5729V106.39ZM40.4129 106.39H37.4129V121.46H40.4129H43.4129V106.39H40.4129ZM95.4756 91.8695V88.8695H92.4756V91.8695H95.4756ZM114.946 91.8695H117.946V88.8695H114.946V91.8695ZM144.206 91.8695V88.8695H141.206V91.8695H144.206ZM163.566 91.8695H166.566V88.8695H163.566V91.8695ZM95.4756 137.19H98.4756V91.8695H95.4756H92.4756V137.19H95.4756ZM95.4756 91.8695V94.8695H114.946V91.8695V88.8695H95.4756V91.8695ZM114.946 91.8695H111.946V134.66H114.946H117.946V91.8695H114.946ZM114.946 134.66H111.946C111.946 141.255 113.109 146.336 116.356 149.676C119.637 153.051 124.352 153.94 129.576 153.94V150.94V147.94C124.789 147.94 122.189 147.068 120.658 145.493C119.092 143.883 117.946 140.824 117.946 134.66H114.946ZM129.576 150.94V153.94C134.799 153.94 139.514 153.051 142.795 149.676C146.042 146.336 147.206 141.255 147.206 134.66H144.206H141.206C141.206 140.824 140.059 143.883 138.493 145.493C136.962 147.068 134.362 147.94 129.576 147.94V150.94ZM144.206 134.66H147.206V91.8695H144.206H141.206V134.66H144.206ZM144.206 91.8695V94.8695H163.566V91.8695V88.8695H144.206V91.8695ZM163.566 91.8695H160.566V137.19H163.566H166.566V91.8695H163.566ZM163.566 137.19H160.566C160.566 146.327 157.902 152.788 153.053 157.027C148.13 161.33 140.462 163.78 129.576 163.78V166.78V169.78C141.24 169.78 150.566 167.169 157.001 161.545C163.51 155.856 166.566 147.522 166.566 137.19H163.566ZM129.576 166.78V163.78C118.683 163.78 110.984 161.354 106.035 157.061C101.164 152.835 98.4756 146.378 98.4756 137.19H95.4756H92.4756C92.4756 147.581 95.562 155.919 102.104 161.593C108.567 167.2 117.919 169.78 129.576 169.78V166.78ZM173.039 165.02H170.039V168.02H173.039V165.02ZM173.039 149.73V146.73H170.039V149.73H173.039ZM185.909 149.73V152.73H188.909V149.73H185.909ZM185.909 107.16H188.909V104.16H185.909V107.16ZM173.039 107.16H170.039V110.16H173.039V107.16ZM173.039 91.8695V88.8695H170.039V91.8695H173.039ZM218.139 91.8695H221.139V88.8695H218.139V91.8695ZM218.139 107.16V110.16H221.139V107.16H218.139ZM205.269 107.16V104.16H202.269V107.16H205.269ZM205.269 149.73H202.269V152.73H205.269V149.73ZM218.139 149.73H221.139V146.73H218.139V149.73ZM218.139 165.02V168.02H221.139V165.02H218.139ZM173.039 165.02H176.039V149.73H173.039H170.039V165.02H173.039ZM173.039 149.73V152.73H185.909V149.73V146.73H173.039V149.73ZM185.909 149.73H188.909V107.16H185.909H182.909V149.73H185.909ZM185.909 107.16V104.16H173.039V107.16V110.16H185.909V107.16ZM173.039 107.16H176.039V91.8695H173.039H170.039V107.16H173.039ZM173.039 91.8695V94.8695H218.139V91.8695V88.8695H173.039V91.8695ZM218.139 91.8695H215.139V107.16H218.139H221.139V91.8695H218.139ZM218.139 107.16V104.16H205.269V107.16V110.16H218.139V107.16ZM205.269 107.16H202.269V149.73H205.269H208.269V107.16H205.269ZM205.269 149.73V152.73H218.139V149.73V146.73H205.269V149.73ZM218.139 149.73H215.139V165.02H218.139H221.139V149.73H218.139ZM218.139 165.02V162.02H173.039V165.02V168.02H218.139V165.02ZM229.236 165.02H226.236V168.02H229.236V165.02ZM229.236 91.8695V88.8695H226.236V91.8695H229.236ZM248.816 91.8695H251.816V88.8695H248.816V91.8695ZM248.816 149.73H245.816V152.73H248.816V149.73ZM281.706 149.73H284.706V146.73H281.706V149.73ZM281.706 165.02V168.02H284.706V165.02H281.706ZM229.236 165.02H232.236V91.8695H229.236H226.236V165.02H229.236ZM229.236 91.8695V94.8695H248.816V91.8695V88.8695H229.236V91.8695ZM248.816 91.8695H245.816V149.73H248.816H251.816V91.8695H248.816ZM248.816 149.73V152.73H281.706V149.73V146.73H248.816V149.73ZM281.706 149.73H278.706V165.02H281.706H284.706V149.73H281.706ZM281.706 165.02V162.02H229.236V165.02V168.02H281.706V165.02ZM290.36 165.02H287.36V168.02H290.36V165.02ZM290.36 91.8695V88.8695H287.36V91.8695H290.36ZM309.72 149.73H306.72V152.73H309.72V149.73ZM309.72 107.16V104.16H306.72V107.16H309.72ZM290.36 165.02H293.36V91.8695H290.36H287.36V165.02H290.36ZM290.36 91.8695V94.8695H327.32V91.8695V88.8695H290.36V91.8695ZM327.32 91.8695V94.8695C338.399 94.8695 346.193 98.8863 351.265 104.877C356.398 110.94 358.97 119.302 358.97 128.28H361.97H364.97C364.97 118.227 362.096 108.384 355.844 101C349.531 93.5427 340 88.8695 327.32 88.8695V91.8695ZM361.97 128.28H358.97C358.97 137.259 356.397 145.711 351.253 151.861C346.173 157.935 338.38 162.02 327.32 162.02V165.02V168.02C340.019 168.02 349.551 163.249 355.856 155.71C362.097 148.248 364.97 138.33 364.97 128.28H361.97ZM327.32 165.02V162.02H290.36V165.02V168.02H327.32V165.02ZM309.72 149.73V152.73H322.92V149.73V146.73H309.72V149.73ZM322.92 149.73V152.73C330.124 152.73 335.815 150.717 339.609 146.219C343.312 141.829 344.73 135.62 344.73 128.28H341.73H338.73C338.73 135.019 337.397 139.535 335.023 142.35C332.739 145.057 329.025 146.73 322.92 146.73V149.73ZM341.73 128.28H344.73C344.73 120.831 343.285 114.675 339.533 110.383C335.703 106.001 330.01 104.16 322.92 104.16V107.16V110.16C329.03 110.16 332.741 111.728 335.016 114.331C337.369 117.024 338.73 121.428 338.73 128.28H341.73ZM322.92 107.16V104.16H309.72V107.16V110.16H322.92V107.16ZM309.72 107.16H306.72V149.73H309.72H312.72V107.16H309.72ZM45.3947 228.26L48.3824 227.988L48.1343 225.26H45.3947V228.26ZM64.6447 223.42L65.0606 220.449L65.0173 220.442L64.9737 220.438L64.6447 223.42ZM48.6947 221.66L48.347 224.639L48.3563 224.64L48.3657 224.641L48.6947 221.66ZM91.9247 200.76V203.76H95.1622L94.916 200.531L91.9247 200.76ZM72.7847 200.76L69.8105 201.152L70.1549 203.76H72.7847V200.76ZM55.2947 206.04L54.9442 209.019L54.9667 209.022L54.9892 209.024L55.2947 206.04ZM69.2647 207.47L68.9592 210.454L68.9688 210.455L68.9783 210.456L69.2647 207.47ZM26.5847 228.26V225.26H23.403L23.5899 228.436L26.5847 228.26ZM45.3947 228.26L42.407 228.531C42.7326 232.113 44.0957 235.769 47.1134 238.52C50.1404 241.28 54.4804 242.81 60.1347 242.81V239.81V236.81C55.559 236.81 52.804 235.589 51.156 234.086C49.4987 232.575 48.6068 230.456 48.3824 227.988L45.3947 228.26ZM60.1347 239.81V242.81C65.0697 242.81 69.0262 241.956 71.815 239.972C74.7954 237.851 76.0047 234.764 76.0047 231.45H73.0047H70.0047C70.0047 233.195 69.454 234.288 68.3369 235.083C67.0282 236.014 64.5497 236.81 60.1347 236.81V239.81ZM73.0047 231.45H76.0047C76.0047 228.393 75.0738 225.708 72.9318 223.713C70.8909 221.812 68.1034 220.874 65.0606 220.449L64.6447 223.42L64.2287 226.391C66.686 226.735 68.0785 227.392 68.8425 228.104C69.5056 228.721 70.0047 229.666 70.0047 231.45H73.0047ZM64.6447 223.42L64.9737 220.438L49.0237 218.678L48.6947 221.66L48.3657 224.641L64.3156 226.401L64.6447 223.42ZM48.6947 221.66L49.0423 218.68C42.9126 217.965 38.4288 215.912 35.4913 212.917C32.5886 209.958 30.9047 205.785 30.9047 200.21H27.9047H24.9047C24.9047 207.064 27.0158 212.846 31.2081 217.119C35.3656 221.357 41.2768 223.814 48.347 224.639L48.6947 221.66ZM27.9047 200.21H30.9047C30.9047 194.158 33.1399 189.268 37.5621 185.812C42.0798 182.281 49.2034 180 59.3647 180V177V174C48.406 174 39.7995 176.448 33.8673 181.085C27.8395 185.796 24.9047 192.511 24.9047 200.21H27.9047ZM59.3647 177V180C70.1875 180 77.318 182.586 81.8127 186.32C86.2693 190.022 88.4877 195.144 88.9334 200.988L91.9247 200.76L94.916 200.531C94.3717 193.395 91.585 186.637 85.6466 181.704C79.7464 176.803 71.0919 174 59.3647 174V177ZM91.9247 200.76V197.76H72.7847V200.76V203.76H91.9247V200.76ZM72.7847 200.76L75.7589 200.367C75.2827 196.761 73.6372 193.579 70.6938 191.344C67.7981 189.145 63.9335 188.08 59.3647 188.08V191.08V194.08C63.0459 194.08 65.5063 194.939 67.0656 196.123C68.5772 197.27 69.5167 198.928 69.8105 201.152L72.7847 200.76ZM59.3647 191.08V188.08C55.2873 188.08 51.6641 188.88 48.9634 190.668C46.1329 192.542 44.4847 195.412 44.4847 198.89H47.4847H50.4847C50.4847 197.527 51.0365 196.492 52.276 195.671C53.6453 194.764 55.9621 194.08 59.3647 194.08V191.08ZM47.4847 198.89H44.4847C44.4847 201.375 45.2353 203.833 47.1764 205.753C49.0641 207.62 51.7413 208.642 54.9442 209.019L55.2947 206.04L55.6452 203.06C53.2381 202.777 52.0103 202.095 51.3955 201.487C50.8341 200.931 50.4847 200.144 50.4847 198.89H47.4847ZM55.2947 206.04L54.9892 209.024L68.9592 210.454L69.2647 207.47L69.5702 204.485L55.6002 203.055L55.2947 206.04ZM69.2647 207.47L68.9783 210.456C76.634 211.19 81.6996 213.325 84.8491 216.406C87.9405 219.431 89.5847 223.762 89.5847 229.8H92.5847H95.5847C95.5847 222.637 93.5988 216.573 89.0452 212.118C84.5498 207.719 77.9554 205.289 69.551 204.483L69.2647 207.47ZM92.5847 229.8H89.5847C89.5847 236.343 87.5685 241.401 83.2194 244.915C78.7506 248.525 71.3531 250.89 59.8047 250.89V253.89V256.89C72.0163 256.89 81.0088 254.414 86.99 249.582C93.0909 244.653 95.5847 237.666 95.5847 229.8H92.5847ZM59.8047 253.89V250.89C48.2698 250.89 40.9673 247.894 36.4784 243.773C31.9909 239.654 29.9309 234.057 29.5795 228.083L26.5847 228.26L23.5899 228.436C24.0085 235.552 26.5134 242.77 32.4209 248.193C38.3271 253.615 47.2496 256.89 59.8047 256.89V253.89ZM26.5847 228.26V231.26H45.3947V228.26V225.26H26.5847V228.26ZM137.814 253.78V250.78C124.096 250.78 115.172 246.358 109.632 240.01C104.029 233.588 101.544 224.799 101.544 215.5H98.5445H95.5445C95.5445 225.78 98.2851 236.131 105.112 243.954C112.002 251.851 122.713 256.78 137.814 256.78V253.78ZM98.5445 215.5H101.544C101.544 206.373 104.025 197.516 109.645 190.988C115.197 184.54 124.124 180 137.814 180V177V174C122.685 174 111.977 179.084 105.098 187.073C98.2887 194.983 95.5445 205.376 95.5445 215.5H98.5445ZM137.814 177V180C151.616 180 160.569 184.568 166.119 191.027C171.739 197.567 174.194 206.424 174.194 215.5H177.194H180.194C180.194 205.435 177.48 195.042 170.67 187.117C163.79 179.111 153.053 174 137.814 174V177ZM177.194 215.5H174.194C174.194 224.748 171.736 233.536 166.132 239.971C160.594 246.33 151.644 250.78 137.814 250.78V253.78V256.78C153.024 256.78 163.765 251.824 170.657 243.911C177.483 236.073 180.194 225.721 180.194 215.5H177.194ZM118.784 215.5H115.784C115.784 222.779 116.759 229.263 120.244 233.932C123.89 238.816 129.74 241.05 137.814 241.05V238.05V235.05C130.819 235.05 127.154 233.158 125.052 230.343C122.79 227.311 121.784 222.52 121.784 215.5H118.784ZM137.814 238.05V241.05C145.984 241.05 151.87 238.824 155.522 233.932C159.011 229.257 159.954 222.766 159.954 215.5H156.954H153.954C153.954 222.533 152.973 227.317 150.714 230.343C148.619 233.15 144.935 235.05 137.814 235.05V238.05ZM156.954 215.5H159.954C159.954 208.132 159.014 201.607 155.522 196.93C151.865 192.03 145.972 189.84 137.814 189.84V192.84V195.84C144.947 195.84 148.624 197.719 150.714 200.519C152.97 203.542 153.954 208.347 153.954 215.5H156.954ZM137.814 192.84V189.84C129.752 189.84 123.895 192.039 120.244 196.93C116.757 201.602 115.784 208.119 115.784 215.5H118.784H121.784C121.784 208.36 122.792 203.547 125.052 200.519C127.149 197.711 130.807 195.84 137.814 195.84V192.84ZM281.968 178.87H284.968V175.87H281.968V178.87ZM281.968 252.02V255.02H284.968V252.02H281.968ZM262.608 252.02H259.608V255.02H262.608V252.02ZM262.608 191.41H265.608L259.727 190.573L262.608 191.41ZM245.008 252.02V255.02H247.261L247.889 252.856L245.008 252.02ZM223.338 252.02L220.457 252.857L221.085 255.02H223.338V252.02ZM205.628 191.08L208.509 190.242L202.628 191.08H205.628ZM205.628 252.02V255.02H208.628V252.02H205.628ZM186.268 252.02H183.268V255.02H186.268V252.02ZM186.268 178.87V175.87H183.268V178.87H186.268ZM219.598 178.87L222.484 178.051L221.865 175.87H219.598V178.87ZM234.448 231.23L231.562 232.048L234.437 242.187L237.332 232.054L234.448 231.23ZM249.408 178.87V175.87H247.145L246.523 178.045L249.408 178.87ZM281.968 178.87H278.968V252.02H281.968H284.968V178.87H281.968ZM281.968 252.02V249.02H262.608V252.02V255.02H281.968V252.02ZM262.608 252.02H265.608V191.41H262.608H259.608V252.02H262.608ZM262.608 191.41L259.727 190.573L242.127 251.183L245.008 252.02L247.889 252.856L265.489 192.246L262.608 191.41ZM245.008 252.02V249.02H223.338V252.02V255.02H245.008V252.02ZM223.338 252.02L226.219 251.182L208.509 190.242L205.628 191.08L202.747 191.917L220.457 252.857L223.338 252.02ZM205.628 191.08H202.628V252.02H205.628H208.628V191.08H205.628ZM205.628 252.02V249.02H186.268V252.02V255.02H205.628V252.02ZM186.268 252.02H189.268V178.87H186.268H183.268V252.02H186.268ZM186.268 178.87V181.87H219.598V178.87V175.87H186.268V178.87ZM219.598 178.87L216.712 179.688L231.562 232.048L234.448 231.23L237.334 230.411L222.484 178.051L219.598 178.87ZM234.448 231.23L237.332 232.054L252.292 179.694L249.408 178.87L246.523 178.045L231.563 230.405L234.448 231.23ZM249.408 178.87V181.87H281.968V178.87V175.87H249.408V178.87ZM313.157 221.88V218.88H310.157V221.88H313.157ZM313.157 236.73H310.157V239.73H313.157V236.73ZM352.647 236.73H355.647V233.73H352.647V236.73ZM352.647 252.02V255.02H355.647V252.02H352.647ZM293.797 252.02H290.797V255.02H293.797V252.02ZM293.797 178.87V175.87H290.797V178.87H293.797ZM352.317 178.87H355.317V175.87H352.317V178.87ZM352.317 194.16V197.16H355.317V194.16H352.317ZM313.157 194.16V191.16H310.157V194.16H313.157ZM313.157 207.69H310.157V210.69H313.157V207.69ZM349.017 207.69H352.017V204.69H349.017V207.69ZM349.017 221.88V224.88H352.017V221.88H349.017ZM313.157 221.88H310.157V236.73H313.157H316.157V221.88H313.157ZM313.157 236.73V239.73H352.647V236.73V233.73H313.157V236.73ZM352.647 236.73H349.647V252.02H352.647H355.647V236.73H352.647ZM352.647 252.02V249.02H293.797V252.02V255.02H352.647V252.02ZM293.797 252.02H296.797V178.87H293.797H290.797V252.02H293.797ZM293.797 178.87V181.87H352.317V178.87V175.87H293.797V178.87ZM352.317 178.87H349.317V194.16H352.317H355.317V178.87H352.317ZM352.317 194.16V191.16H313.157V194.16V197.16H352.317V194.16ZM313.157 194.16H310.157V207.69H313.157H316.157V194.16H313.157ZM313.157 207.69V210.69H349.017V207.69V204.69H313.157V207.69ZM349.017 207.69H346.017V221.88H349.017H352.017V207.69H349.017ZM349.017 221.88V218.88H313.157V221.88V224.88H349.017V221.88ZM26.54 339.02H23.54V342.02H26.54V339.02ZM26.54 281.16H29.54V278.16H26.54V281.16ZM3 281.16H0V284.16H3V281.16ZM3 265.87V262.87H0V265.87H3ZM69.44 265.87H72.44V262.87H69.44V265.87ZM69.44 281.16V284.16H72.44V281.16H69.44ZM45.9 281.16V278.16H42.9V281.16H45.9ZM45.9 339.02V342.02H48.9V339.02H45.9ZM26.54 339.02H29.54V281.16H26.54H23.54V339.02H26.54ZM26.54 281.16V278.16H3V281.16V284.16H26.54V281.16ZM3 281.16H6V265.87H3H0V281.16H3ZM3 265.87V268.87H69.44V265.87V262.87H3V265.87ZM69.44 265.87H66.44V281.16H69.44H72.44V265.87H69.44ZM69.44 281.16V278.16H45.9V281.16V284.16H69.44V281.16ZM45.9 281.16H42.9V339.02H45.9H48.9V281.16H45.9ZM45.9 339.02V336.02H26.54V339.02V342.02H45.9V339.02ZM76.4826 339.02H73.4826V342.02H76.4826V339.02ZM76.4826 265.87V262.87H73.4826V265.87H76.4826ZM95.8426 265.87H98.8426V262.87H95.8426V265.87ZM95.8426 294.36H92.8426V297.36H95.8426V294.36ZM126.423 294.36V297.36H129.423V294.36H126.423ZM126.423 265.87V262.87H123.423V265.87H126.423ZM145.783 265.87H148.783V262.87H145.783V265.87ZM145.783 339.02V342.02H148.783V339.02H145.783ZM126.423 339.02H123.423V342.02H126.423V339.02ZM126.423 309.43H129.423V306.43H126.423V309.43ZM95.8426 309.43V306.43H92.8426V309.43H95.8426ZM95.8426 339.02V342.02H98.8426V339.02H95.8426ZM76.4826 339.02H79.4826V265.87H76.4826H73.4826V339.02H76.4826ZM76.4826 265.87V268.87H95.8426V265.87V262.87H76.4826V265.87ZM95.8426 265.87H92.8426V294.36H95.8426H98.8426V265.87H95.8426ZM95.8426 294.36V297.36H126.423V294.36V291.36H95.8426V294.36ZM126.423 294.36H129.423V265.87H126.423H123.423V294.36H126.423ZM126.423 265.87V268.87H145.783V265.87V262.87H126.423V265.87ZM145.783 265.87H142.783V339.02H145.783H148.783V265.87H145.783ZM145.783 339.02V336.02H126.423V339.02V342.02H145.783V339.02ZM126.423 339.02H129.423V309.43H126.423H123.423V339.02H126.423ZM126.423 309.43V306.43H95.8426V309.43V312.43H126.423V309.43ZM95.8426 309.43H92.8426V339.02H95.8426H98.8426V309.43H95.8426ZM95.8426 339.02V336.02H76.4826V339.02V342.02H95.8426V339.02ZM157.034 339.02H154.034V342.02H157.034V339.02ZM157.034 323.73V320.73H154.034V323.73H157.034ZM169.904 323.73V326.73H172.904V323.73H169.904ZM169.904 281.16H172.904V278.16H169.904V281.16ZM157.034 281.16H154.034V284.16H157.034V281.16ZM157.034 265.87V262.87H154.034V265.87H157.034ZM202.134 265.87H205.134V262.87H202.134V265.87ZM202.134 281.16V284.16H205.134V281.16H202.134ZM189.264 281.16V278.16H186.264V281.16H189.264ZM189.264 323.73H186.264V326.73H189.264V323.73ZM202.134 323.73H205.134V320.73H202.134V323.73ZM202.134 339.02V342.02H205.134V339.02H202.134ZM157.034 339.02H160.034V323.73H157.034H154.034V339.02H157.034ZM157.034 323.73V326.73H169.904V323.73V320.73H157.034V323.73ZM169.904 323.73H172.904V281.16H169.904H166.904V323.73H169.904ZM169.904 281.16V278.16H157.034V281.16V284.16H169.904V281.16ZM157.034 281.16H160.034V265.87H157.034H154.034V281.16H157.034ZM157.034 265.87V268.87H202.134V265.87V262.87H157.034V265.87ZM202.134 265.87H199.134V281.16H202.134H205.134V265.87H202.134ZM202.134 281.16V278.16H189.264V281.16V284.16H202.134V281.16ZM189.264 281.16H186.264V323.73H189.264H192.264V281.16H189.264ZM189.264 323.73V326.73H202.134V323.73V320.73H189.264V323.73ZM202.134 323.73H199.134V339.02H202.134H205.134V323.73H202.134ZM202.134 339.02V336.02H157.034V339.02V342.02H202.134V339.02ZM268.891 323.4L266.045 324.348L271.891 323.4H268.891ZM268.891 265.87V262.87H265.891V265.87H268.891ZM287.371 265.87H290.371V262.87H287.371V265.87ZM287.371 339.02V342.02H290.371V339.02H287.371ZM255.581 339.02L252.821 340.196L253.598 342.02H255.581V339.02ZM235.231 291.28L232.459 292.427L232.465 292.441L232.471 292.456L235.231 291.28ZM231.711 281.38L234.592 280.543L228.711 281.38H231.711ZM231.711 339.02V342.02H234.711V339.02H231.711ZM213.231 339.02H210.231V342.02H213.231V339.02ZM213.231 265.87V262.87H210.231V265.87H213.231ZM245.021 265.87L247.784 264.703L247.011 262.87H245.021V265.87ZM265.591 314.6L268.36 313.446L268.354 313.433L265.591 314.6ZM268.891 323.4H271.891V265.87H268.891H265.891V323.4H268.891ZM268.891 265.87V268.87H287.371V265.87V262.87H268.891V265.87ZM287.371 265.87H284.371V339.02H287.371H290.371V265.87H287.371ZM287.371 339.02V336.02H255.581V339.02V342.02H287.371V339.02ZM255.581 339.02L258.34 337.843L237.99 290.103L235.231 291.28L232.471 292.456L252.821 340.196L255.581 339.02ZM235.231 291.28L238.003 290.132C236.714 287.018 235.544 283.824 234.592 280.543L231.711 281.38L228.83 282.216C229.857 285.755 231.107 289.161 232.459 292.427L235.231 291.28ZM231.711 281.38H228.711V339.02H231.711H234.711V281.38H231.711ZM231.711 339.02V336.02H213.231V339.02V342.02H231.711V339.02ZM213.231 339.02H216.231V265.87H213.231H210.231V339.02H213.231ZM213.231 265.87V268.87H245.021V265.87V262.87H213.231V265.87ZM245.021 265.87L242.257 267.036L262.827 315.766L265.591 314.6L268.354 313.433L247.784 264.703L245.021 265.87ZM265.591 314.6L262.821 315.753C263.896 318.332 265.08 321.453 266.045 324.348L268.891 323.4L271.737 322.451C270.722 319.406 269.486 316.147 268.36 313.446L265.591 314.6ZM372.866 290.07V293.07H376.08L375.858 289.862L372.866 290.07ZM353.506 290.07L350.534 290.479L350.891 293.07H353.506V290.07ZM354.386 311.08L357.354 311.515L357.858 308.08H354.386V311.08ZM330.736 311.08H327.736V314.08H330.736V311.08ZM330.736 298.87V295.87H327.736V298.87H330.736ZM372.756 298.87H375.756V295.87H372.756V298.87ZM372.756 339.02V342.02H375.756V339.02H372.756ZM356.586 339.02H353.586V342.02H356.586V339.02ZM356.586 325.6H359.586L353.768 324.568L356.586 325.6ZM330.956 340.78V337.78C319.829 337.78 312.089 333.744 307.065 327.547C301.967 321.258 299.416 312.425 299.416 302.5H296.416H293.416C293.416 313.364 296.199 323.671 302.404 331.325C308.683 339.07 318.212 343.78 330.956 343.78V340.78ZM296.416 302.5H299.416C299.416 292.411 302.21 283.601 308.055 277.335C313.864 271.109 323.054 267 336.676 267V264V261C321.807 261 310.867 265.525 303.668 273.242C296.507 280.918 293.416 291.358 293.416 302.5H296.416ZM336.676 264V267C348.893 267 356.931 269.843 361.983 273.991C366.987 278.098 369.423 283.782 369.873 290.277L372.866 290.07L375.858 289.862C375.318 282.057 372.31 274.706 365.79 269.353C359.32 264.041 349.758 261 336.676 261V264ZM372.866 290.07V287.07H353.506V290.07V293.07H372.866V290.07ZM353.506 290.07L356.477 289.66C355.93 285.694 353.947 282.166 350.481 279.683C347.068 277.238 342.439 275.96 336.786 275.96V278.96V281.96C341.582 281.96 344.873 283.046 346.987 284.561C349.049 286.038 350.201 288.065 350.534 290.479L353.506 290.07ZM336.786 278.96V275.96C329.716 275.96 323.724 277.874 319.569 282.549C315.48 287.152 313.656 293.898 313.656 302.5H316.656H319.656C319.656 294.602 321.351 289.577 324.054 286.535C326.692 283.566 330.765 281.96 336.786 281.96V278.96ZM316.656 302.5H313.656C313.656 310.537 315.149 317.177 318.859 321.843C322.682 326.651 328.409 328.82 335.576 328.82V325.82V322.82C329.652 322.82 325.919 321.083 323.555 318.109C321.077 314.992 319.656 309.972 319.656 302.5H316.656ZM335.576 325.82V328.82C342.655 328.82 347.876 327.073 351.502 323.757C355.106 320.46 356.695 316.01 357.354 311.515L354.386 311.08L351.417 310.644C350.867 314.399 349.65 317.319 347.452 319.33C345.275 321.321 341.697 322.82 335.576 322.82V325.82ZM354.386 311.08V308.08H330.736V311.08V314.08H354.386V311.08ZM330.736 311.08H333.736V298.87H330.736H327.736V311.08H330.736ZM330.736 298.87V301.87H372.756V298.87V295.87H330.736V298.87ZM372.756 298.87H369.756V339.02H372.756H375.756V298.87H372.756ZM372.756 339.02V336.02H356.586V339.02V342.02H372.756V339.02ZM356.586 339.02H359.586V325.6H356.586H353.586V339.02H356.586ZM356.586 325.6L353.768 324.568C352.497 328.039 350.429 331.269 347.005 333.657C343.576 336.048 338.522 337.78 330.956 337.78V340.78V343.78C339.449 343.78 345.78 341.826 350.436 338.579C355.097 335.33 357.814 330.97 359.403 326.631L356.586 325.6Z" fill="#3A3A39" mask="url(#path-1-outside-1_6412_3449)"/>
</svg>
