<?xml version="1.0" encoding="UTF-8"?>
<svg id="Layer_1" xmlns="http://www.w3.org/2000/svg" version="1.1" viewBox="0 0 1915 1570">
  <!-- Generator: Adobe Illustrator 29.0.1, SVG Export Plug-In . SVG Version: 2.1.0 Build 192)  -->
  <defs>
    <style>
      .st0 {
        fill: #fffff8;
      }
    </style>
  </defs>
  <path class="st0" d="M1915,51.1c-33.5,13-70.5,32.7-108.1,62.9-126.5,101.9-101,196.8-232.4,316.4-104.2,94.8-171.7,82-212.6,172.6-27.2,60.3-32.2,142.9,0,179.9,56.5,65,208.1-33.2,231.6-48.5,108.1-70,81.6-144.6,184.9-139.2,55.2,5.1,97.9,94.2,88.1,176.5-10.9,91.8-79.6,113.7-105.6,220.7-21.6,88.8-5.1,200.6,45.8,223,27.6,12.1,67-1.3,108.3-31.5V51.1Z"/>
</svg>