<?xml version="1.0" encoding="UTF-8"?>
<svg id="Layer_1" data-name="Layer 1" xmlns="http://www.w3.org/2000/svg" width="675.57mm" height="174.27mm" viewBox="0 0 1915 494">
  <path d="M2746.26-123.33c-16.98-96.01-165.55-106.72-214.46-110.23-37.73-2.76-130.4-7.96-236.36,53.79C2155.01-98.04,2165.99-.39,2018.1,98.01c-117.23,77.99-182.05,55.25-236.12,138.67-36,55.51-53.29,136.41-27.13,177.82,46.03,72.78,210.67-1.46,236.25-13.08,117.39-52.98,102.43-130.66,203.74-109.8,53.82,13.32,82.59,107.83,60.56,187.71-24.57,89.09-95.79,100.4-137.62,202.33-34.68,84.53-35.24,197.6,11.67,227.38,65.26,41.43,232.64-71.95,315.74-218.27,86.01-151.46,13.51-217.79,89.32-420.31,83.93-224.17,229.34-294.19,211.75-393.79Z" fill="#f60"/>
  <path d="M142.11,337.42c-31.23-92.36-179.72-80.59-228.6-76.7-37.72,2.95-130.11,11.75-225.58,88.75-126.52,101.93-100.98,196.82-232.37,316.36-104.16,94.75-171.66,82.02-212.56,172.63-27.24,60.29-32.15,142.88-.06,179.88,56.47,65.03,208.05-33.15,231.59-48.49,108.08-70.04,81.6-144.58,184.9-139.21,55.21,5.07,97.87,94.17,88.12,176.45-10.89,91.78-79.59,113.68-105.61,220.74-21.56,88.79-5.1,200.66,45.76,223.03,70.75,31.14,219.16-106.14,279.3-263.3,62.24-162.68-19.43-217.33,25.04-428.96,49.24-234.25,182.45-325.35,150.07-421.17Z" fill="#f60"/>
</svg>