<svg width="455" height="601" viewBox="0 0 455 601" fill="none" xmlns="http://www.w3.org/2000/svg">
<path d="M449.549 79.6186C418.315 -12.7456 269.831 -0.971645 220.947 2.92249C183.229 5.87258 90.8327 14.6727 -4.6287 91.6685C-131.154 193.598 -105.609 288.489 -237.002 408.025C-341.161 502.774 -408.66 490.043 -449.562 580.652C-476.799 640.943 -481.714 723.528 -449.624 760.53C-393.158 825.555 -241.574 727.379 -218.033 712.04C-109.947 642 -136.429 567.456 -33.1368 572.827C22.071 577.899 64.738 666.998 54.9864 749.285C44.1003 841.06 -24.6069 862.958 -50.6195 970.024C-72.1801 1058.82 -55.7229 1170.68 -4.85944 1193.05C65.8946 1224.19 214.299 1086.92 274.436 929.755C336.673 767.072 255.009 712.416 299.477 500.79C348.722 266.543 481.929 175.438 449.549 79.6186Z" stroke="url(#paint0_linear_6713_779)" stroke-width="0.5" stroke-miterlimit="10"/>
<defs>
<linearGradient id="paint0_linear_6713_779" x1="476.131" y1="-79.3394" x2="-410.94" y2="9.4555" gradientUnits="userSpaceOnUse">
<stop stop-color="#222222" stop-opacity="0.5"/>
<stop offset="1" stop-color="#584911" stop-opacity="0"/>
</linearGradient>
</defs>
</svg>
