<svg width="743" height="643" viewBox="0 0 743 643" fill="none" xmlns="http://www.w3.org/2000/svg">
<path d="M939.103 642.023C1036.59 640.178 1070.26 495.084 1081.33 447.311C1089.92 410.466 1109.47 319.734 1064.94 205.46C1006.04 54.0381 907.866 49.6959 833.653 -111.69C774.833 -239.622 807.377 -300.113 733.376 -366.496C684.142 -410.688 606.909 -440.343 561.936 -420.943C482.881 -386.781 530.63 -212.608 538.132 -185.531C572.214 -61.3265 651.275 -64.0297 614.924 32.8036C593.397 83.8937 495.568 97.6237 420.081 63.4484C335.893 25.3228 335.794 -46.7896 241.605 -103.957C163.489 -151.355 51.8879 -169.491 15.1784 -127.774C-35.8935 -69.7459 50.0841 113.219 181.705 218.06C317.956 326.573 394.745 265.256 583.021 371.63C791.414 489.397 837.979 643.916 939.103 642.023Z" stroke="url(#paint0_linear_6713_784)" stroke-width="0.5" stroke-miterlimit="10"/>
<defs>
<linearGradient id="paint0_linear_6713_784" x1="1082.58" y1="715.424" x2="1266.16" y2="-156.975" gradientUnits="userSpaceOnUse">
<stop stop-color="#222222" stop-opacity="0.5"/>
<stop offset="1" stop-color="#584911" stop-opacity="0"/>
</linearGradient>
</defs>
</svg>
