<svg width="8" height="5" viewBox="0 0 8 5" fill="none" xmlns="http://www.w3.org/2000/svg">
<path d="M3.9515 2.80685L6.04769 0.710669C6.14215 0.596625 6.24707 0.491707 6.36111 0.397245C6.42694 0.328503 6.50602 0.273795 6.59355 0.236423C6.68109 0.199051 6.7753 0.179777 6.87048 0.179777C6.96566 0.179777 7.05984 0.199051 7.14737 0.236423C7.23491 0.273795 7.31399 0.328503 7.37982 0.397245C7.51381 0.532912 7.58895 0.715903 7.58895 0.906584C7.58895 1.09727 7.51381 1.28026 7.37982 1.41592C7.18391 1.63142 6.96843 1.82735 6.77252 2.02325C6.02809 2.76769 5.30323 3.5121 4.5588 4.23694C4.49145 4.3421 4.39875 4.42862 4.2892 4.48855C4.17965 4.54848 4.05679 4.5799 3.93192 4.5799C3.80705 4.5799 3.68417 4.54848 3.57462 4.48855C3.46507 4.42862 3.37236 4.3421 3.30501 4.23694L0.542764 1.4943C0.406273 1.35204 0.330078 1.16251 0.330078 0.965353C0.330078 0.7682 0.406273 0.57867 0.542764 0.436404C0.610777 0.354254 0.696096 0.288122 0.792606 0.24273C0.889115 0.197339 0.994445 0.173828 1.1011 0.173828C1.20775 0.173828 1.31308 0.197339 1.40959 0.24273C1.5061 0.288122 1.59142 0.354254 1.65943 0.436404L3.79477 2.57178L3.9515 2.80685Z" fill="#3A3A39"/>
</svg>
