<svg width="23" height="28" viewBox="0 0 23 28" fill="none" xmlns="http://www.w3.org/2000/svg">
<path d="M0.0396279 13.9681C0.0396279 12.6556 -0.058324 11.343 0.0396279 10.0501C0.168548 8.20914 0.779482 6.43452 1.81106 4.90435C2.84264 3.37417 4.25856 2.14229 5.91674 1.33234C7.42097 0.524997 9.09339 0.0811777 10.8 0.0364652C12.5066 -0.0082473 14.2 0.347376 15.7444 1.07484C17.2888 1.80231 18.6414 2.88141 19.6938 4.22567C20.7462 5.56992 21.4691 7.14195 21.8046 8.81585C21.9526 9.5579 22.0313 10.3121 22.0397 11.0688C22.0397 13.0278 22.0397 14.9868 22.0397 16.9459C22.0392 19.6901 21.0122 22.3349 19.1604 24.3602C17.3086 26.3855 14.7661 27.6447 12.0329 27.8903C9.29968 28.1359 6.57347 27.35 4.39034 25.6873C2.20721 24.0245 0.725129 21.6051 0.235544 18.9049C0.0591918 17.6068 0.000189201 16.2955 0.0592375 14.9868C0.0592375 14.6342 0.0592375 14.2816 0.0592375 13.9289L0.0396279 13.9681ZM20.492 13.9681C20.492 13.6743 20.492 13.3804 20.492 13.067C20.543 11.7583 20.484 10.4477 20.3157 9.14888C19.8608 6.80875 18.5463 4.72372 16.631 3.30432C14.7156 1.88491 12.3383 1.23401 9.96709 1.47974C7.59586 1.72546 5.40254 2.85001 3.81897 4.632C2.23541 6.41398 1.37637 8.72424 1.41098 11.1079C1.41098 13.067 1.41098 14.9281 1.41098 16.8479C1.40716 17.4124 1.45303 17.9762 1.5481 18.5327C1.7771 19.9291 2.31576 21.2566 3.12457 22.4177C3.93338 23.5789 4.99183 24.5443 6.22231 25.2431C7.45278 25.9419 8.82407 26.3565 10.2356 26.4564C11.6472 26.5562 13.0632 26.3389 14.3798 25.8203C16.0807 25.2114 17.5633 24.1125 18.6406 22.6622C19.7179 21.2118 20.3416 19.475 20.4332 17.6707C20.5899 16.4365 20.492 15.2023 20.492 13.9681Z" fill="#3A3A39"/>
</svg>
