<svg width="111" height="106" viewBox="0 0 111 106" fill="none" xmlns="http://www.w3.org/2000/svg">
<g clip-path="url(#clip0_3397_9920)">
<path d="M26.578 30.1248L30.0169 26.5149L31.2456 27.582L26.3626 32.7152L19.7441 26.975L24.5314 21.9648L25.7602 23.0319L22.441 26.5149L26.578 30.1248ZM23.7455 27.8755L26.7855 24.702L27.9823 25.7374L24.9423 28.9109L23.7455 27.8755Z" fill="#3A3A39"/>
<path d="M33.6486 25.8088L28.8613 18.6049L30.6925 17.4941L34.5861 23.3374L38.5755 20.9295L39.4811 22.2861L33.6486 25.8088Z" fill="#3A3A39"/>
<path d="M49.6617 19.3445L44.4355 11.4107L46.7614 11.1052L51.3412 18.1346L49.9728 18.3131L52.4622 10.3793L54.6045 10.0977L51.788 19.0787L49.6617 19.3445Z" fill="#3A3A39"/>
<path d="M58 18.9346L58.7979 10.4375L60.9641 10.624L60.1662 19.1211L58 18.9346Z" fill="#3A3A39"/>
<path d="M66.3445 18.7046L71.2116 20.2041L70.6969 21.7115L63.7793 19.5773L66.532 11.457L73.286 13.5397L72.7754 15.0471L68.0759 13.5992L66.3445 18.7046ZM67.3259 15.3168L71.6264 16.6418L71.1318 18.1016L66.8312 16.7767L67.3259 15.3168Z" fill="#3A3A39"/>
<path d="M74.7402 24.1127C74.2325 23.8088 73.7938 23.4036 73.4516 22.9226C73.1368 22.4971 72.9363 21.9987 72.8691 21.4747L74.6325 20.9907C74.6638 21.3433 74.7627 21.6866 74.9237 22.0023C75.0727 22.2818 75.2963 22.5152 75.57 22.6767C76.312 23.1368 76.9543 22.9662 77.4889 22.1728L79.7868 18.7573L76.9942 17.0555L77.8918 15.7227L82.4877 18.5391L79.3519 23.1963C78.7535 24.0849 78.0634 24.6006 77.2894 24.7434C76.5155 24.8862 75.6737 24.6839 74.7402 24.1127Z" fill="#3A3A39"/>
<path d="M83.2924 31.0457C82.8297 30.5479 82.4608 29.9715 82.2033 29.3439C81.9694 28.7781 81.8553 28.1704 81.8682 27.5588C81.876 26.9734 82.0121 26.3967 82.2671 25.8689C82.5414 25.3201 82.932 24.837 83.4121 24.4527C83.8923 24.0504 84.4523 23.7531 85.0557 23.58C85.6452 23.4129 86.2626 23.3657 86.8709 23.4412C87.5038 23.5179 88.1167 23.7117 88.6781 24.0124C89.2799 24.3338 89.8201 24.7581 90.2738 25.2659C90.7335 25.76 91.0998 26.3325 91.355 26.9559C91.5816 27.5209 91.6941 28.1248 91.6861 28.733C91.6727 29.319 91.5369 29.8959 91.2872 30.4269C91.0184 30.9836 90.6287 31.4741 90.1462 31.8629C89.6636 32.2662 89.1008 32.5636 88.4946 32.7356C87.9049 32.9022 87.2877 32.9494 86.6794 32.8745C86.0511 32.7959 85.4427 32.6037 84.8841 32.3072C84.2839 31.9818 83.7452 31.555 83.2924 31.0457ZM84.6169 29.935C84.8746 30.2248 85.1844 30.4643 85.5305 30.6411C85.8594 30.8107 86.2185 30.9145 86.5876 30.9466C86.9561 30.9816 87.3278 30.9425 87.6807 30.8315C88.0565 30.711 88.4049 30.5183 88.706 30.2643C89.0082 30.0201 89.2578 29.7178 89.4401 29.3757C89.6025 29.0613 89.6976 28.7169 89.7193 28.3641C89.7383 28.0098 89.6812 27.6555 89.5518 27.3248C89.4107 26.9672 89.2036 26.6389 88.9414 26.3568C88.6827 26.067 88.3731 25.8264 88.0278 25.6468C87.6991 25.4807 87.3418 25.3784 86.9746 25.3453C86.6049 25.3107 86.2319 25.3498 85.8775 25.4603C85.5026 25.5801 85.1554 25.7729 84.8562 26.0276C84.5568 26.2704 84.3087 26.5697 84.1262 26.9083C83.9576 27.2224 83.8595 27.5691 83.8388 27.9246C83.8181 28.28 83.8754 28.6357 84.0065 28.9671C84.1462 29.3236 84.3503 29.6516 84.6089 29.935H84.6169Z" fill="#3A3A39"/>
<path d="M28.426 86.7676C27.8578 86.3487 27.3689 85.8329 26.9818 85.2443C26.628 84.7171 26.3875 84.1228 26.2757 83.4988C26.1655 82.8919 26.1921 82.2684 26.3535 81.6729C26.5149 81.0775 26.8072 80.5251 27.2092 80.0555C27.6134 79.5587 28.1193 79.153 28.6932 78.8655C29.2586 78.5873 29.8747 78.4254 30.5044 78.3894C31.1631 78.3524 31.8229 78.4357 32.4513 78.6354C33.1275 78.8495 33.7608 79.1797 34.3223 79.6113C34.8894 80.0241 35.3761 80.5363 35.7585 81.1226C36.1056 81.6496 36.343 82.2404 36.4567 82.8601C36.5607 83.4542 36.5403 84.0633 36.3968 84.6492C36.2375 85.2609 35.9416 85.829 35.5311 86.3114C35.1271 86.8116 34.6178 87.2178 34.0391 87.5014C33.4726 87.7812 32.8552 87.9444 32.2239 87.9814C31.5706 88.0162 30.9164 87.9329 30.293 87.7355C29.6187 87.5234 28.9869 87.1959 28.426 86.7676ZM29.543 85.395C29.862 85.642 30.2247 85.8277 30.6122 85.9424C30.9788 86.0534 31.3636 86.0925 31.7452 86.0575C32.1238 86.0246 32.4916 85.9153 32.8263 85.7362C33.1822 85.547 33.4958 85.2879 33.7478 84.9745C34.0076 84.6727 34.2006 84.32 34.3144 83.9392C34.416 83.588 34.4416 83.2193 34.3893 82.8575C34.337 82.4958 34.2081 82.1492 34.0112 81.8406C33.5682 81.1652 32.9023 80.6644 32.1281 80.4245C31.7611 80.3154 31.3767 80.2764 30.9951 80.3094C30.6158 80.345 30.2472 80.4542 29.91 80.6307C29.5555 80.8236 29.2424 81.0837 28.9885 81.3964C28.7348 81.6981 28.5449 82.0475 28.43 82.4238C28.327 82.7751 28.2985 83.1439 28.3462 83.5068C28.4049 83.8709 28.5409 84.2184 28.7451 84.5263C28.9586 84.8632 29.2332 85.1578 29.555 85.395H29.543Z" fill="#3A3A39"/>
<path d="M40.1985 92.9272L38.0801 92.225L41.1 83.8945L48.0177 86.1834L47.4552 87.7266L42.6679 86.1398L40.1985 92.9272ZM41.7024 88.3018L46.0908 89.7537L45.5283 91.2968L41.14 89.8449L41.7024 88.3018Z" fill="#3A3A39"/>
<path d="M50.0977 95.2335L50.9793 86.4746L53.2134 86.6809L52.3277 95.4597L50.0977 95.2335Z" fill="#3A3A39"/>
<path d="M62.9476 95.0635C62.2465 95.1751 61.5315 95.167 60.8332 95.0397C60.1941 94.9277 59.5831 94.6933 59.034 94.3494C58.5114 94.0219 58.0619 93.5912 57.7135 93.084C57.364 92.5595 57.1303 91.9673 57.0278 91.3464C56.9254 90.7255 56.9565 90.0901 57.119 89.482C57.292 88.8992 57.5855 88.3588 57.9808 87.8953C58.3958 87.4061 58.9025 87.0019 59.4728 86.7052C60.0976 86.3848 60.7717 86.1703 61.4675 86.0705C62.2355 85.9446 63.0204 85.9634 63.7814 86.126C64.4684 86.2747 65.1106 86.5818 65.6564 87.0225L64.4317 88.4268C64.0733 88.1435 63.6589 87.9385 63.2156 87.825C62.7722 87.7116 62.3098 87.6922 61.8585 87.7683C61.4396 87.8314 61.0348 87.9656 60.6616 88.165C60.3227 88.342 60.0239 88.5864 59.784 88.883C59.5536 89.1706 59.3865 89.5031 59.2933 89.8589C59.1976 90.2392 59.184 90.6353 59.2534 91.0212C59.3074 91.4112 59.4433 91.7856 59.6523 92.12C59.8596 92.437 60.1314 92.7073 60.4502 92.9134C60.7735 93.1236 61.1355 93.2679 61.5154 93.3379C61.9337 93.4116 62.3617 93.4116 62.78 93.3379C63.2294 93.2769 63.6613 93.1243 64.0486 92.8896C64.4353 92.6483 64.7658 92.3278 65.0181 91.9495L66.6139 92.9293C66.2316 93.5079 65.7177 93.989 65.1138 94.3335C64.4443 94.7101 63.7094 94.9577 62.9476 95.0635Z" fill="#3A3A39"/>
<path d="M71.7898 92.5074L68.0996 84.4427L70.1542 83.5898L73.8444 91.6545L71.7898 92.5074Z" fill="#3A3A39"/>
<path d="M83.0965 86.2556C82.538 86.7 81.9063 87.0449 81.2295 87.2751C80.6055 87.4897 79.9463 87.5853 79.2866 87.5567C78.6576 87.5288 78.0405 87.3764 77.4714 87.1085C76.892 86.8311 76.378 86.435 75.9634 85.9462C75.5465 85.4725 75.24 84.913 75.0658 84.3078C74.9031 83.7243 74.8691 83.1126 74.9661 82.5148C75.071 81.8903 75.3003 81.2928 75.6403 80.7575C76.0097 80.1656 76.4842 79.6454 77.0406 79.2223C77.5957 78.7791 78.225 78.4366 78.8996 78.2107C79.519 78.0003 80.1727 77.9074 80.8265 77.937C81.4558 77.9656 82.0736 78.1151 82.6457 78.3773C83.2303 78.6501 83.7477 79.0468 84.1617 79.5396C84.5805 80.0165 84.8871 80.5803 85.0593 81.1899C85.2217 81.7721 85.2557 82.3824 85.159 82.9789C85.055 83.5988 84.8286 84.192 84.4928 84.7244C84.1237 85.3141 83.6507 85.8328 83.0965 86.2556ZM81.9356 84.9227C82.2553 84.6821 82.5261 84.3832 82.7335 84.042C82.9251 83.7287 83.0474 83.3785 83.0925 83.0146C83.1397 82.6526 83.1084 82.2847 83.0008 81.9356C82.8194 81.3733 82.4758 80.8764 82.0126 80.5068C81.5494 80.1372 80.987 79.9112 80.3957 79.857C80.0141 79.829 79.6307 79.8748 79.2667 79.9919C78.88 80.1171 78.5191 80.3106 78.2015 80.5631C77.8831 80.8051 77.6126 81.1037 77.4036 81.4437C77.2155 81.7586 77.0934 82.1081 77.0446 82.4712C76.9968 82.8335 77.0295 83.2018 77.1403 83.5502C77.2602 83.9281 77.4587 84.2768 77.7228 84.5736C77.9802 84.8813 78.2978 85.1337 78.6563 85.3154C78.9948 85.4908 79.3651 85.5973 79.7454 85.6288C80.127 85.6568 80.5104 85.611 80.8744 85.4939C81.2597 85.3683 81.6192 85.1748 81.9356 84.9227Z" fill="#3A3A39"/>
<path d="M39.7324 49.796C41.5955 48.0823 43.2271 46.7336 44.6673 45.2142C46.7538 43.0166 49.1115 41.2989 52.1355 40.454C53.1455 40.1583 54.1268 39.7733 55.0677 39.3036C56.0012 38.8553 56.472 39.4821 56.7991 40.0136C56.9627 40.2794 56.7074 40.9776 56.4002 41.2632C52.5105 45.0318 48.569 48.7487 44.6713 52.5094C44.025 53.1322 43.5822 53.1877 42.912 52.5332C42.0144 51.6446 40.9851 50.8631 39.7324 49.796Z" fill="#3A3A39"/>
<path d="M48.7852 49.4433L51.0153 47.2773C52.8384 49.0744 54.5738 50.8476 56.3571 52.5414C61.2189 57.2118 66.0952 61.8729 70.9862 66.5248C72.0833 67.576 71.8998 68.6471 70.4198 69.1747C70.0488 69.3095 69.3187 68.9525 68.9596 68.6193C65.4849 65.3625 62.054 62.066 58.5872 58.7814L48.7852 49.4433Z" fill="#3A3A39"/>
<path d="M43.9969 44.5912C43.7016 43.659 44.7588 42.6078 46.2549 42.8577L43.9969 44.5912Z" fill="#3A3A39"/>
<path d="M14.5918 52.804C14.5911 59.7887 16.5383 66.6367 20.2169 72.587C20.3213 72.7503 20.4658 72.8844 20.6368 72.9767C20.8079 73.069 20.9997 73.1165 21.1943 73.1146C21.3883 73.1221 21.5807 73.0777 21.7516 72.986C21.9224 72.8944 22.0654 72.7588 22.1657 72.5935C22.2659 72.4282 22.3197 72.2392 22.3215 72.0462C22.3232 71.8531 22.2729 71.6632 22.1757 71.4961C19.613 67.3511 17.9294 62.729 17.2283 57.9136C16.5271 53.0982 16.8233 48.1912 18.0985 43.4937C18.1391 43.3307 18.1413 43.1605 18.1049 42.9965C18.0685 42.8325 17.9945 42.6791 17.8888 42.5482C17.783 42.4173 17.6483 42.3124 17.495 42.2418C17.3418 42.1712 17.1742 42.1367 17.0054 42.141C16.7612 42.1367 16.5222 42.2119 16.3248 42.3551C16.1275 42.4984 15.9827 42.7018 15.9123 42.9344C15.0345 46.1516 14.5905 49.4705 14.5918 52.804Z" fill="#3A3A39"/>
<path d="M94.4156 42.1468C94.2468 42.1425 94.0792 42.1771 93.926 42.2477C93.7728 42.3183 93.6381 42.4232 93.5323 42.5541C93.4265 42.685 93.3525 42.8384 93.3162 43.0024C93.2798 43.1664 93.2819 43.3366 93.3225 43.4996C94.6005 48.1952 94.8984 53.1013 94.1979 57.9157C93.4974 62.7302 91.8134 67.3511 89.2494 71.494C89.1522 71.6611 89.1018 71.8511 89.1036 72.0441C89.1053 72.2371 89.1591 72.4261 89.2593 72.5915C89.3596 72.7568 89.5026 72.8923 89.6734 72.984C89.8443 73.0756 90.0368 73.12 90.2307 73.1125C90.4253 73.1144 90.6172 73.0669 90.7882 72.9746C90.9592 72.8823 91.1038 72.7482 91.2082 72.5849C93.9174 68.1968 95.697 63.3047 96.4378 58.2086C97.1787 53.1125 96.8653 47.9196 95.5167 42.9482C95.445 42.7156 95.2992 42.5125 95.1014 42.3694C94.9035 42.2263 94.6642 42.151 94.4196 42.1548L94.4156 42.1468Z" fill="#3A3A39"/>
<path d="M29.6864 52.1047C29.7015 52.4873 29.6013 52.8657 29.3985 53.1912C29.1957 53.5166 28.8997 53.7744 28.5485 53.9314C28.1973 54.0883 27.8069 54.1373 27.4275 54.0719C27.0481 54.0066 26.697 53.8299 26.4193 53.5646C26.1416 53.2994 25.9501 52.9576 25.8692 52.5833C25.7884 52.2089 25.8219 51.8191 25.9656 51.4638C26.1092 51.1086 26.3564 50.8042 26.6754 50.5897C26.9943 50.3752 27.3705 50.2604 27.7556 50.2601C28.2575 50.2505 28.7427 50.4394 29.1047 50.7852C29.4667 51.1311 29.6759 51.6057 29.6864 52.1047Z" fill="#3A3A39"/>
<path d="M85.5985 52.1047C85.6145 52.4884 85.5146 52.868 85.3117 53.1948C85.1088 53.5215 84.8122 53.7804 84.4602 53.9382C84.1081 54.0959 83.7166 54.1453 83.336 54.08C82.9555 54.0146 82.6033 53.8375 82.3249 53.5715C82.0464 53.3054 81.8543 52.9626 81.7734 52.5871C81.6925 52.2117 81.7265 51.8207 81.8709 51.4645C82.0153 51.1084 82.2636 50.8034 82.5838 50.5887C82.904 50.3741 83.2815 50.2596 83.6677 50.2601C84.1696 50.2505 84.6548 50.4394 85.0168 50.7852C85.3789 51.1311 85.5881 51.6057 85.5985 52.1047Z" fill="#3A3A39"/>
<path d="M54.7883 105.306H54.7324C54.2986 105.301 53.8714 105.2 53.482 105.01C53.0927 104.82 52.7511 104.545 52.4824 104.207C52.3515 104.044 52.1884 103.909 52.0032 103.811C51.8179 103.714 51.6145 103.655 51.4054 103.639C51.1963 103.622 50.9861 103.649 50.7878 103.716C50.5895 103.784 50.4072 103.892 50.2523 104.032C49.9326 104.323 49.5523 104.54 49.1385 104.667C48.7247 104.795 48.2877 104.83 47.8587 104.77C47.4301 104.715 47.0197 104.563 46.6584 104.328C46.297 104.092 45.994 103.778 45.7722 103.409C45.664 103.232 45.5198 103.079 45.3487 102.96C45.1777 102.841 44.9836 102.759 44.7788 102.719C44.5725 102.678 44.3599 102.68 44.1541 102.723C43.9484 102.767 43.7537 102.852 43.582 102.973C43.2263 103.225 42.8188 103.395 42.389 103.471C41.9593 103.547 41.5179 103.527 41.0966 103.413C40.68 103.311 40.2927 103.115 39.9647 102.84C39.6368 102.564 39.377 102.218 39.2056 101.827C39.1218 101.639 38.9987 101.471 38.8447 101.334C38.6906 101.197 38.509 101.095 38.312 101.033C38.1115 100.967 37.8995 100.942 37.689 100.96C37.4784 100.977 37.2737 101.038 37.0873 101.136C36.703 101.344 36.2773 101.464 35.8407 101.489C35.4041 101.514 34.9674 101.442 34.562 101.279C34.1628 101.124 33.8047 100.88 33.5156 100.566C33.2264 100.252 33.0139 99.8754 32.8944 99.4662C32.8351 99.2671 32.733 99.0831 32.5953 98.9269C32.4575 98.7708 32.2874 98.6462 32.0965 98.5618C31.9053 98.4721 31.6976 98.4223 31.4863 98.4155C31.2749 98.4086 31.0645 98.4449 30.8678 98.5221C30.4618 98.6825 30.0251 98.7515 29.5892 98.7241C29.1532 98.6966 28.7288 98.5735 28.3464 98.3634C27.9718 98.1647 27.6489 97.8821 27.403 97.5378C27.1572 97.1936 26.9954 96.7972 26.9302 96.38C26.8988 96.1773 26.8237 95.9838 26.7101 95.8126C26.5965 95.6414 26.447 95.4967 26.272 95.3883C26.0955 95.2783 25.8985 95.2051 25.6927 95.1731C25.487 95.1411 25.277 95.1508 25.0751 95.2018C24.6531 95.3126 24.2115 95.3288 23.7824 95.2492C23.3533 95.1696 22.9473 94.9962 22.5937 94.7417C22.2467 94.498 21.9624 94.1762 21.7642 93.8026C21.5659 93.4289 21.4592 93.014 21.4527 92.5916C21.4476 92.3875 21.3983 92.1868 21.3081 92.0033C21.2179 91.8199 21.089 91.6579 20.9301 91.5285C20.7682 91.3945 20.5797 91.2959 20.377 91.2392C20.1742 91.1825 19.9617 91.1689 19.7533 91.1992C19.3231 91.2574 18.8852 91.2199 18.4713 91.0896C18.0574 90.9593 17.6778 90.7393 17.3596 90.4455C17.0464 90.161 16.8055 89.8066 16.6571 89.4113C16.5087 89.0161 16.4569 88.5915 16.5059 88.1725C16.5289 87.9707 16.5073 87.7664 16.4425 87.5738C16.3777 87.3813 16.2713 87.2051 16.1309 87.0578C15.9881 86.9083 15.8161 86.7897 15.6253 86.7091C15.4345 86.6286 15.2291 86.588 15.0218 86.5897H14.9699C14.5413 86.5926 14.1174 86.5013 13.7285 86.3223C13.3395 86.1434 12.9951 85.8811 12.72 85.5543C12.4466 85.2341 12.2543 84.8534 12.1592 84.4442C12.0641 84.0349 12.069 83.6089 12.1734 83.2019C12.2254 83.0049 12.2319 82.7988 12.1925 82.5989C12.1531 82.399 12.0688 82.2105 11.946 82.0476C11.8216 81.8808 11.6637 81.7415 11.4825 81.6384C11.3012 81.5353 11.1004 81.4707 10.8928 81.4486C10.4618 81.4062 10.0461 81.2671 9.67711 81.0417C9.30808 80.8163 8.99531 80.5105 8.76245 80.1474C8.53682 79.7974 8.39785 79.3992 8.35693 78.9855C8.31602 78.5718 8.37435 78.1543 8.52708 77.7673C8.60675 77.5765 8.64165 77.3702 8.62921 77.164C8.61676 76.9578 8.55728 76.7571 8.45525 76.5772C8.354 76.3957 8.2153 76.2375 8.04823 76.1131C7.88115 75.9887 7.68951 75.9008 7.48585 75.8552C7.06507 75.7625 6.67122 75.5752 6.33447 75.3077C5.99771 75.0402 5.72699 74.6997 5.54301 74.3121C5.36199 73.9326 5.27543 73.5153 5.2907 73.0955C5.30598 72.6757 5.42263 72.2658 5.63077 71.9002C5.73093 71.7241 5.79008 71.5279 5.80389 71.3261C5.8177 71.1243 5.78579 70.9219 5.71054 70.7339C5.63348 70.5422 5.51651 70.3689 5.36731 70.2253C5.21811 70.0818 5.04008 69.9712 4.84487 69.9009C4.43978 69.7586 4.07315 69.5253 3.77354 69.2191C3.47393 68.9129 3.24939 68.5422 3.11742 68.1356C2.98905 67.7359 2.95829 67.3115 3.02767 66.8976C3.09704 66.4837 3.26456 66.0922 3.51636 65.7555C3.63983 65.5936 3.7248 65.4059 3.76487 65.2067C3.80495 65.0074 3.79912 64.8018 3.74778 64.6051C3.69725 64.4064 3.60452 64.2207 3.47584 64.0606C3.34717 63.9005 3.18548 63.7697 3.00171 63.6768C2.61912 63.4877 2.28617 63.2124 2.02925 62.8729C1.77232 62.5335 1.59852 62.1391 1.52166 61.7211C1.44701 61.3067 1.47246 60.8805 1.59592 60.4777C1.71938 60.0749 1.93733 59.7071 2.23178 59.4045C2.37453 59.2578 2.48289 59.0817 2.54915 58.8885C2.61541 58.6954 2.63792 58.4901 2.61504 58.2873C2.59217 58.0844 2.52448 57.8892 2.41684 57.7154C2.3092 57.5417 2.16429 57.3937 1.99243 57.2822C1.64043 57.0466 1.34881 56.7322 1.14098 56.3644C0.933144 55.9965 0.814872 55.5853 0.795606 55.1638C0.776796 54.7421 0.858815 54.322 1.03496 53.9379C1.21111 53.5538 1.47633 53.2167 1.80888 52.9543C1.96885 52.8265 2.09866 52.6654 2.18907 52.4823C2.27949 52.2991 2.32835 52.0985 2.33215 51.8945C2.33596 51.6905 2.29461 51.4882 2.21109 51.3019C2.12756 51.1155 2.00391 50.9497 1.84882 50.8161C1.52736 50.5412 1.27617 50.1943 1.11595 49.8039C0.955728 49.4135 0.89104 48.9909 0.927239 48.5709C0.964139 48.149 1.10036 47.7418 1.32491 47.3821C1.54947 47.0223 1.85604 46.7202 2.2198 46.5001C2.38938 46.3834 2.53143 46.2314 2.63613 46.0547C2.74083 45.878 2.80569 45.6808 2.8262 45.4767C2.8586 45.2756 2.84493 45.0699 2.78622 44.8748C2.72751 44.6797 2.62526 44.5004 2.48711 44.3501C2.20456 44.0368 2.0011 43.6611 1.89357 43.2541C1.78604 42.8471 1.77751 42.4205 1.86873 42.0096C1.96206 41.5946 2.15123 41.2068 2.42127 40.877C2.69131 40.5472 3.03481 40.2844 3.42461 40.1094C3.61563 40.0253 3.78595 39.9008 3.92373 39.7446C4.06151 39.5884 4.16344 39.4043 4.2225 39.205C4.28065 39.011 4.29402 38.8064 4.26155 38.6065C4.22909 38.4066 4.15164 38.2166 4.035 38.0506C3.79879 37.7061 3.64781 37.3108 3.59443 36.8972C3.54104 36.4835 3.58676 36.0632 3.72781 35.6705C3.87459 35.2689 4.1126 34.9064 4.42328 34.6113C4.73396 34.3161 5.10893 34.0962 5.51905 33.9687C5.71669 33.9073 5.89891 33.8048 6.05367 33.668C6.20843 33.5312 6.33218 33.3633 6.41667 33.1753C6.50122 32.9871 6.54191 32.7822 6.53569 32.5762C6.52947 32.3701 6.47652 32.1681 6.38078 31.9852C6.18698 31.6125 6.08581 31.1989 6.08581 30.7793C6.08581 30.3597 6.18698 29.9461 6.38078 29.5733C6.57921 29.1936 6.8619 28.8638 7.20749 28.6089C7.55308 28.3539 7.95251 28.1804 8.37548 28.1016C8.58104 28.0638 8.77618 27.983 8.94809 27.8647C9.11999 27.7465 9.26476 27.5933 9.37284 27.4153C9.47895 27.2421 9.54473 27.0475 9.56544 26.8457C9.58615 26.6439 9.56123 26.4401 9.49249 26.2491C9.35267 25.8551 9.30942 25.4336 9.36631 25.0196C9.42321 24.6057 9.57864 24.2112 9.81965 23.869C10.0664 23.5147 10.3904 23.2204 10.7676 23.0081C11.1448 22.7959 11.5654 22.6711 11.9979 22.6432C12.2065 22.6289 12.4099 22.5718 12.5952 22.4755C12.7806 22.3793 12.9439 22.2459 13.075 22.0838C13.2026 21.9254 13.2932 21.7406 13.3401 21.543C13.387 21.3454 13.3891 21.1399 13.3463 20.9414C13.259 20.5295 13.2713 20.1029 13.3823 19.6966C13.4933 19.2904 13.6997 18.9162 13.9846 18.6049C14.2765 18.2851 14.6362 18.0338 15.0378 17.8691C15.4393 17.7045 15.8727 17.6306 16.3064 17.6528C16.5167 17.6642 16.7271 17.6319 16.9242 17.5582C17.1213 17.4844 17.3008 17.3708 17.4514 17.2244C17.5954 17.0811 17.7058 16.9079 17.7748 16.7173C17.8437 16.5267 17.8695 16.3233 17.8503 16.1216C17.8175 15.7011 17.8858 15.2789 18.0495 14.8899C18.2132 14.5009 18.4676 14.1561 18.7918 13.8842C19.121 13.5998 19.5101 13.3923 19.9306 13.277C20.351 13.1617 20.7921 13.1414 21.2214 13.2178C21.4301 13.255 21.6444 13.2485 21.8505 13.1986C22.0566 13.1487 22.2499 13.0567 22.4182 12.9282C22.5821 12.805 22.7173 12.6479 22.8144 12.4678C22.9114 12.2877 22.9682 12.0889 22.9807 11.8849C23.0037 11.4622 23.1266 11.0508 23.3394 10.6842C23.5522 10.3175 23.8489 10.0058 24.2054 9.77453C24.5684 9.53324 24.9806 9.375 25.4125 9.31121C25.8443 9.24742 26.285 9.27966 26.7028 9.40561C26.9055 9.46585 27.1186 9.48389 27.3286 9.45864C27.5386 9.43338 27.7412 9.36538 27.9236 9.25884C28.103 9.15822 28.2581 9.01978 28.378 8.85326C28.4979 8.68674 28.5797 8.49617 28.6177 8.29488C28.6973 7.87734 28.8736 7.48393 29.1325 7.14585C29.3915 6.80778 29.7261 6.53432 30.1098 6.34712C30.5001 6.15089 30.9292 6.04275 31.3664 6.0304C31.8036 6.01806 32.2381 6.10183 32.6391 6.27572C32.833 6.35912 33.0421 6.40216 33.2534 6.40216C33.4648 6.40216 33.6739 6.35912 33.8678 6.27572C34.0554 6.19364 34.2234 6.07312 34.3608 5.92205C34.4983 5.77098 34.6022 5.59275 34.6657 5.39903C34.8005 4.99342 35.0275 4.62422 35.3292 4.32011C35.6309 4.016 35.9991 3.7852 36.4051 3.64566C36.8161 3.49797 37.2549 3.44238 37.69 3.48283C38.1252 3.52329 38.546 3.65882 38.9224 3.87972C39.1045 3.98506 39.3062 4.05272 39.5153 4.07862C39.7244 4.10452 39.9366 4.08814 40.1392 4.03046C40.3413 3.97136 40.5285 3.87001 40.6881 3.73319C40.8477 3.59636 40.9761 3.42722 41.0647 3.23708C41.2514 2.85117 41.5241 2.51268 41.8622 2.24734C42.2002 1.98201 42.5947 1.7968 43.0155 1.70584C43.4453 1.60345 43.8927 1.59807 44.3248 1.69005C44.757 1.78203 45.1629 1.96906 45.5129 2.23741C45.6807 2.36675 45.8739 2.4597 46.08 2.51026C46.2862 2.56082 46.5007 2.56786 46.7097 2.53096C46.9161 2.4994 47.1135 2.42477 47.2888 2.31196C47.4641 2.19915 47.6135 2.05073 47.727 1.87644C47.9631 1.5159 48.278 1.21302 48.6483 0.990468C49.0185 0.767913 49.4346 0.631405 49.8653 0.591139C50.3007 0.540313 50.742 0.587756 51.1564 0.729922C51.5709 0.872089 51.9477 1.10532 52.259 1.41229C52.4086 1.5594 52.5872 1.67413 52.7835 1.74923C52.9799 1.82433 53.1898 1.85818 53.4 1.84866C53.6102 1.84196 53.8166 1.79113 54.0057 1.69952C54.1947 1.60791 54.3622 1.47758 54.497 1.31709C54.7802 0.990087 55.1323 0.729184 55.5284 0.552932C55.9245 0.37668 56.3548 0.28942 56.7887 0.297374C57.2225 0.305328 57.6493 0.408285 58.0386 0.598935C58.4279 0.789586 58.7702 1.06325 59.041 1.4004C59.1718 1.56336 59.3349 1.69788 59.5202 1.79562C59.7054 1.89335 59.9089 1.9522 60.118 1.96856C60.327 1.98493 60.5372 1.95843 60.7356 1.89072C60.9339 1.82301 61.1162 1.71555 61.2711 1.57495C61.5907 1.28421 61.971 1.0673 62.3848 0.939744C62.7986 0.81219 63.2357 0.777124 63.6647 0.837085C64.0932 0.890853 64.5039 1.04098 64.8654 1.27605C65.2269 1.51112 65.5298 1.82496 65.7512 2.19378C65.858 2.37276 66.0018 2.52718 66.173 2.64684C66.3442 2.7665 66.539 2.84869 66.7445 2.88799C66.9509 2.92878 67.1634 2.92731 67.3692 2.88366C67.575 2.84001 67.7697 2.75508 67.9413 2.6341C68.2971 2.38264 68.7044 2.21241 69.1341 2.1356C69.5637 2.0588 70.0051 2.07732 70.4267 2.18981C70.8421 2.29481 71.2282 2.49217 71.5557 2.76703C71.8833 3.04188 72.1438 3.38706 72.3177 3.77657C72.402 3.964 72.5252 4.13156 72.6792 4.2683C72.8332 4.40503 73.0146 4.50784 73.2114 4.56996C73.4118 4.63742 73.6242 4.66272 73.8351 4.64429C74.0459 4.62585 74.2505 4.56407 74.4361 4.46284C74.82 4.25641 75.245 4.13659 75.6807 4.11191C76.1165 4.08723 76.5524 4.15829 76.9574 4.32004C77.3566 4.47477 77.7146 4.71875 78.0038 5.03311C78.293 5.34747 78.5055 5.72379 78.625 6.13292C78.6833 6.33256 78.785 6.51702 78.9228 6.67331C79.0607 6.82959 79.2314 6.95386 79.4229 7.03736C79.6135 7.12862 79.8211 7.17962 80.0326 7.18713C80.2441 7.19464 80.4549 7.15852 80.6516 7.08101C81.0575 6.92058 81.4942 6.8516 81.9302 6.87904C82.3661 6.90647 82.7906 7.02963 83.1729 7.23967C83.5475 7.43839 83.8705 7.72106 84.1163 8.06531C84.3621 8.40955 84.524 8.80593 84.5891 9.22313C84.6201 9.42544 84.695 9.61862 84.8087 9.7892C84.9224 9.95979 85.0721 10.1037 85.2474 10.2109C85.4232 10.3223 85.6201 10.3967 85.8259 10.4295C86.0318 10.4622 86.2422 10.4527 86.4442 10.4013C86.8662 10.2897 87.308 10.2731 87.7372 10.3527C88.1665 10.4323 88.5724 10.6061 88.9256 10.8615C89.2727 11.1051 89.5569 11.4269 89.7552 11.8005C89.9535 12.1742 90.0602 12.5891 90.0666 13.0115C90.0607 13.227 90.1052 13.441 90.1966 13.6365C90.2879 13.832 90.4237 14.0037 90.5932 14.1381C90.7583 14.2735 90.9502 14.3727 91.1564 14.4295C91.3626 14.4862 91.5785 14.4991 91.79 14.4674C92.2203 14.4087 92.6582 14.4458 93.0722 14.5762C93.4862 14.7066 93.8659 14.9268 94.1837 15.2211C94.4966 15.505 94.7372 15.8588 94.8857 16.2533C95.0341 16.6478 95.0861 17.0717 95.0374 17.4902C95.0121 17.6926 95.0326 17.8982 95.0975 18.0917C95.1624 18.2853 95.27 18.462 95.4124 18.6088C95.5568 18.7605 95.7315 18.8804 95.9252 18.961C96.1189 19.0416 96.3275 19.0811 96.5374 19.0769H96.5733C97.0021 19.0732 97.4263 19.1641 97.8154 19.3431C98.2045 19.5222 98.5488 19.7849 98.8234 20.1123C99.0968 20.4325 99.289 20.8132 99.3841 21.2224C99.4792 21.6317 99.4743 22.0576 99.3699 22.4647C99.3189 22.6611 99.3128 22.8665 99.3522 23.0656C99.3915 23.2646 99.4753 23.4524 99.5973 23.6151C99.721 23.7829 99.8786 23.9232 100.06 24.027C100.241 24.1309 100.442 24.1959 100.651 24.218C101.081 24.2602 101.496 24.3989 101.865 24.6235C102.234 24.8482 102.547 25.153 102.781 25.5152C103.01 25.8683 103.151 26.2709 103.191 26.6892C103.231 27.1075 103.17 27.5293 103.012 27.9192C102.937 28.1075 102.904 28.3103 102.917 28.5128C102.93 28.7152 102.989 28.9122 103.088 29.0894C103.189 29.2708 103.328 29.4287 103.495 29.5525C103.662 29.6763 103.854 29.7632 104.057 29.8074C104.478 29.9014 104.872 30.0896 105.209 30.3577C105.545 30.6258 105.816 30.9667 106 31.3545C106.18 31.7336 106.266 32.1501 106.251 32.5691C106.236 32.988 106.12 33.3972 105.913 33.7624C105.809 33.9417 105.748 34.1421 105.735 34.3483C105.721 34.5545 105.754 34.7611 105.833 34.9525C105.908 35.145 106.025 35.319 106.174 35.4628C106.324 35.6065 106.502 35.7166 106.698 35.7855C107.103 35.9274 107.469 36.1601 107.769 36.4656C108.069 36.771 108.293 37.141 108.426 37.5468C108.554 37.9466 108.584 38.3709 108.515 38.7847C108.445 39.1985 108.278 39.59 108.027 39.927C107.903 40.0889 107.818 40.2765 107.778 40.4758C107.738 40.675 107.744 40.8807 107.796 41.0774C107.846 41.2761 107.939 41.4617 108.067 41.6218C108.196 41.7819 108.358 41.9128 108.542 42.0056C108.924 42.1948 109.257 42.47 109.514 42.8095C109.771 43.149 109.945 43.5434 110.022 43.9613C110.096 44.3752 110.071 44.8008 109.947 45.2029C109.824 45.605 109.606 45.9722 109.312 46.274C109.165 46.418 109.053 46.593 108.984 46.786C108.915 46.979 108.89 47.185 108.913 47.3887C108.937 47.5918 109.006 47.7873 109.113 47.9618C109.221 48.1363 109.364 48.2858 109.535 48.4003C109.89 48.6328 110.184 48.9454 110.394 49.3127C110.604 49.6801 110.724 50.0916 110.743 50.5137C110.763 50.9358 110.682 51.3565 110.506 51.7414C110.331 52.1263 110.066 52.4644 109.734 52.7282C109.574 52.8556 109.444 53.0165 109.354 53.1996C109.264 53.3827 109.215 53.5834 109.212 53.7873C109.206 53.991 109.247 54.1933 109.331 54.3793C109.414 54.5653 109.538 54.7304 109.695 54.8624C110.016 55.1394 110.266 55.4879 110.426 55.8796C110.586 56.2713 110.651 56.695 110.614 57.1162C110.578 57.5374 110.442 57.9441 110.218 58.3032C109.994 58.6622 109.687 58.9635 109.323 59.1823C109.148 59.2889 108.998 59.4326 108.884 59.6033C108.77 59.774 108.695 59.9675 108.665 60.1701C108.634 60.3708 108.648 60.5759 108.706 60.7706C108.764 60.9653 108.865 61.145 109 61.2967C109.283 61.609 109.487 61.9838 109.596 62.3902C109.704 62.7965 109.713 63.2226 109.623 63.6332C109.53 64.049 109.341 64.4375 109.071 64.768C108.801 65.0985 108.457 65.3619 108.067 65.5373C107.876 65.6213 107.706 65.7452 107.569 65.9007C107.431 66.0561 107.329 66.2394 107.269 66.4378C107.211 66.6325 107.197 66.8377 107.23 67.0382C107.262 67.2387 107.34 67.4294 107.456 67.5961C107.693 67.9406 107.844 68.3358 107.897 68.7495C107.951 69.1632 107.905 69.5836 107.764 69.9763C107.617 70.3779 107.379 70.7403 107.068 71.0355C106.758 71.3307 106.383 71.5506 105.972 71.6781C105.775 71.7395 105.593 71.842 105.438 71.9788C105.283 72.1155 105.159 72.2835 105.075 72.4715C104.989 72.6592 104.947 72.864 104.953 73.0701C104.958 73.2763 105.011 73.4785 105.107 73.6615C105.301 74.0348 105.403 74.449 105.403 74.8694C105.403 75.2898 105.301 75.7041 105.107 76.0774C104.908 76.4567 104.625 76.7862 104.279 77.0412C103.934 77.2961 103.535 77.4697 103.112 77.5491C102.907 77.5875 102.713 77.6685 102.542 77.7867C102.37 77.905 102.226 78.0579 102.119 78.2354C102.013 78.4086 101.947 78.6032 101.926 78.805C101.905 79.0068 101.93 79.2107 101.999 79.4016C102.139 79.7956 102.182 80.2171 102.125 80.6311C102.068 81.0451 101.913 81.4395 101.672 81.7818C101.425 82.1362 101.101 82.4303 100.724 82.6419C100.347 82.8536 99.926 82.9772 99.4936 83.0036C99.2843 83.0167 99.0801 83.0737 98.8945 83.1707C98.7088 83.2678 98.5459 83.4028 98.4164 83.5669C98.2888 83.7254 98.1983 83.9101 98.1514 84.1077C98.1045 84.3053 98.1023 84.5108 98.1452 84.7094C98.2321 85.1213 98.2196 85.5478 98.1087 85.954C97.9977 86.3601 97.7914 86.7343 97.5068 87.0459C97.2158 87.3668 96.8562 87.6188 96.4545 87.7835C96.0527 87.9483 95.619 88.0215 95.185 87.9979C94.9747 87.9866 94.7644 88.0188 94.5673 88.0925C94.3702 88.1663 94.1907 88.28 94.0401 88.4264C93.8928 88.5673 93.7788 88.7389 93.7064 88.9289C93.6339 89.1189 93.6048 89.3226 93.6212 89.5252C93.6533 89.9461 93.5848 90.3687 93.4212 90.7583C93.2575 91.1478 93.0034 91.4933 92.6797 91.7665C92.3499 92.0499 91.9607 92.2568 91.5405 92.3721C91.1202 92.4874 90.6795 92.5081 90.2501 92.4329C90.0413 92.3976 89.8275 92.4051 89.6217 92.4549C89.4159 92.5047 89.2225 92.5958 89.0533 92.7225C88.8894 92.8457 88.7542 93.0028 88.6571 93.1829C88.5601 93.363 88.5033 93.5618 88.4908 93.7658C88.4669 94.1883 88.3436 94.5993 88.1309 94.9659C87.9181 95.3324 87.622 95.6442 87.2661 95.8762C86.9024 96.1176 86.4895 96.2758 86.057 96.3396C85.6245 96.4034 85.1832 96.3711 84.7647 96.2451C84.5655 96.1887 84.3569 96.1726 84.1513 96.1978C83.9458 96.2231 83.7473 96.289 83.5679 96.3919C83.389 96.4931 83.2343 96.6317 83.1144 96.7982C82.9946 96.9646 82.9125 97.1549 82.8737 97.3559C82.7942 97.7734 82.6179 98.1668 82.3589 98.5049C82.0999 98.8429 81.7654 99.1164 81.3817 99.3036C80.9911 99.499 80.5621 99.6067 80.125 99.6191C79.6879 99.6314 79.2535 99.5481 78.8524 99.375C78.6584 99.2916 78.4493 99.2486 78.238 99.2486C78.0267 99.2486 77.8176 99.2916 77.6236 99.375C77.4361 99.4571 77.2681 99.5776 77.1306 99.7287C76.9931 99.8797 76.8892 100.058 76.8258 100.252C76.691 100.657 76.4639 101.027 76.1622 101.331C75.8606 101.635 75.4924 101.866 75.0864 102.005C74.6753 102.153 74.2366 102.208 73.8014 102.168C73.3663 102.127 72.9454 101.992 72.569 101.771C72.3899 101.667 72.1917 101.6 71.9861 101.575C71.7804 101.549 71.5717 101.564 71.3722 101.62C71.1719 101.677 70.9859 101.775 70.8264 101.909C70.6669 102.042 70.5375 102.207 70.4467 102.394C70.2598 102.78 69.9866 103.119 69.6477 103.385C69.3089 103.65 68.9136 103.835 68.4919 103.925C68.067 104.024 67.6254 104.028 67.1989 103.936C66.7725 103.844 66.372 103.658 66.0265 103.393C65.859 103.263 65.6658 103.17 65.4595 103.12C65.2533 103.069 65.0387 103.062 64.8296 103.1C64.6232 103.131 64.4258 103.206 64.2505 103.319C64.0752 103.432 63.9258 103.58 63.8123 103.754C63.5762 104.115 63.2613 104.418 62.8911 104.64C62.5208 104.863 62.1047 104.999 61.674 105.04C61.2386 105.09 60.7974 105.043 60.383 104.901C59.9686 104.758 59.5918 104.525 59.2803 104.219C59.1303 104.072 58.9516 103.958 58.7554 103.883C58.5591 103.808 58.3495 103.773 58.1394 103.782C57.9296 103.789 57.7236 103.84 57.5347 103.931C57.3457 104.021 57.178 104.151 57.0423 104.31C56.7629 104.63 56.4162 104.885 56.0267 105.057C55.6372 105.229 55.2144 105.314 54.7883 105.306ZM51.2855 102.314C51.364 102.311 51.4426 102.311 51.521 102.314C51.9233 102.344 52.3151 102.456 52.6716 102.643C53.028 102.831 53.3413 103.091 53.5914 103.405C53.731 103.581 53.9084 103.724 54.1107 103.823C54.313 103.922 54.535 103.974 54.7604 103.977C54.9866 103.981 55.2111 103.937 55.4179 103.846C55.6248 103.754 55.8089 103.619 55.9572 103.449C56.2189 103.143 56.5416 102.895 56.9049 102.719C57.2681 102.544 57.664 102.445 58.0675 102.43C58.4721 102.412 58.876 102.477 59.2541 102.621C59.6323 102.765 59.9766 102.985 60.2657 103.267C60.4272 103.424 60.622 103.544 60.8359 103.617C61.0498 103.691 61.2775 103.716 61.5024 103.691C61.7258 103.67 61.9415 103.599 62.1335 103.484C62.3255 103.368 62.4889 103.211 62.6115 103.025C62.8317 102.689 63.1201 102.404 63.4582 102.187C63.7963 101.969 64.1766 101.825 64.5743 101.763C64.9741 101.697 65.3831 101.714 65.7763 101.812C66.1694 101.909 66.5383 102.086 66.8602 102.33C67.0407 102.468 67.2495 102.563 67.4716 102.611C67.6937 102.658 67.9236 102.656 68.1448 102.604C68.3636 102.558 68.5689 102.463 68.7446 102.325C68.9204 102.187 69.0618 102.011 69.1581 101.811C69.333 101.452 69.5819 101.135 69.8885 100.878C70.195 100.622 70.5524 100.433 70.9374 100.323C71.3275 100.209 71.737 100.177 72.1404 100.226C72.5439 100.276 72.9328 100.408 73.2832 100.613C73.4788 100.728 73.6977 100.798 73.924 100.818C74.1503 100.839 74.3783 100.809 74.5917 100.732C74.8018 100.659 74.9923 100.539 75.1486 100.382C75.3049 100.224 75.4228 100.033 75.4933 99.8233C75.6186 99.4473 75.8233 99.1024 76.0938 98.8116C76.3642 98.5208 76.694 98.2909 77.0611 98.1373C77.4347 97.9774 77.8373 97.895 78.244 97.895C78.6508 97.895 79.0532 97.9774 79.4269 98.1373C79.6348 98.2277 79.8603 98.2713 80.0871 98.2651C80.314 98.2589 80.5367 98.2031 80.7394 98.1016C80.9425 98.0065 81.1203 97.8655 81.2589 97.6899C81.3974 97.5142 81.4928 97.3088 81.5373 97.0901C81.612 96.7025 81.7701 96.3356 82.0008 96.0144C82.2315 95.6933 82.5292 95.4256 82.8737 95.2296C83.2246 95.0257 83.6139 94.8958 84.0175 94.848C84.4211 94.8002 84.8303 94.8356 85.2195 94.9519C85.4366 95.0166 85.6655 95.0328 85.8897 94.9992C86.1139 94.9656 86.3278 94.8831 86.5161 94.7575C86.7014 94.6377 86.8558 94.4761 86.9667 94.2859C87.0776 94.0957 87.1419 93.8822 87.1544 93.6627C87.1765 93.2699 87.2847 92.8868 87.4715 92.54C87.6582 92.1933 87.919 91.8914 88.2355 91.6554C88.5581 91.411 88.9281 91.2355 89.3221 91.1399C89.7162 91.0444 90.1258 91.0308 90.5254 91.1C90.749 91.1384 90.9784 91.1269 91.1971 91.0666C91.4157 91.0062 91.6183 90.8984 91.79 90.751C91.9578 90.6093 92.0893 90.43 92.1739 90.228C92.2585 90.026 92.2938 89.8069 92.2767 89.5887C92.247 89.1991 92.3031 88.8078 92.4408 88.442C92.5786 88.0762 92.7949 87.7446 93.0746 87.4703C93.3644 87.1901 93.7092 86.9722 94.0874 86.8303C94.4655 86.6883 94.869 86.6253 95.2728 86.6452C95.4966 86.6546 95.7198 86.6151 95.9266 86.5294C96.1334 86.4437 96.3187 86.314 96.4696 86.1494C96.6178 85.9877 96.7252 85.7933 96.7827 85.5822C96.8403 85.3711 96.8465 85.1494 96.8008 84.9355C96.7205 84.5534 96.7257 84.1586 96.8161 83.7788C96.9064 83.399 97.0795 83.0436 97.3233 82.7378C97.5744 82.4238 97.8885 82.1652 98.2457 81.9788C98.6029 81.7923 98.9953 81.682 99.3978 81.6548C99.6225 81.6404 99.841 81.5758 100.037 81.4659C100.233 81.356 100.402 81.2037 100.531 81.0201C100.657 80.8416 100.738 80.6358 100.767 80.4199C100.797 80.204 100.775 79.9841 100.702 79.7785C100.571 79.41 100.524 79.0174 100.563 78.6286C100.602 78.2398 100.728 77.8644 100.93 77.5293C101.14 77.1884 101.419 76.8949 101.749 76.6675C102.079 76.44 102.454 76.2836 102.849 76.2083C103.069 76.168 103.278 76.0781 103.459 75.9454C103.639 75.8128 103.787 75.6408 103.89 75.4427C103.989 75.2492 104.041 75.0351 104.041 74.8179C104.041 74.6007 103.989 74.3865 103.89 74.1931C103.711 73.8454 103.612 73.4625 103.6 73.0721C103.589 72.6817 103.664 72.2936 103.822 71.9359C103.985 71.5727 104.222 71.2477 104.52 70.9825C104.818 70.7172 105.169 70.5176 105.55 70.3968C105.763 70.3308 105.958 70.2166 106.119 70.0631C106.28 69.9096 106.403 69.721 106.479 69.5122C106.556 69.3078 106.581 69.0881 106.553 68.8717C106.526 68.6554 106.445 68.4491 106.319 68.2705C106.098 67.9481 105.951 67.5811 105.889 67.1957C105.827 66.8103 105.851 66.4161 105.96 66.0411C106.073 65.661 106.266 65.3092 106.527 65.0096C106.788 64.7099 107.11 64.4692 107.472 64.3036C107.673 64.2106 107.849 64.0732 107.987 63.902C108.125 63.7307 108.222 63.5302 108.27 63.3158C108.317 63.1025 108.312 62.8812 108.256 62.6701C108.2 62.4591 108.094 62.2643 107.947 62.102C107.686 61.8096 107.492 61.4638 107.38 61.0889C107.267 60.7139 107.239 60.319 107.297 59.9321C107.358 59.5426 107.503 59.171 107.723 58.8429C107.943 58.5148 108.232 58.2381 108.57 58.0319C108.757 57.9167 108.916 57.7595 109.032 57.5729C109.148 57.3864 109.219 57.1755 109.24 56.9569C109.257 56.7388 109.223 56.5196 109.14 56.317C109.057 56.1144 108.927 55.9341 108.761 55.7906C108.461 55.5343 108.222 55.2154 108.061 54.8566C107.899 54.4979 107.82 54.1081 107.827 53.7151C107.835 53.3222 107.93 52.9357 108.105 52.5834C108.28 52.2311 108.531 51.9216 108.841 51.6769C109.013 51.5398 109.15 51.364 109.242 51.164C109.333 50.964 109.375 50.7454 109.365 50.5261C109.355 50.3068 109.292 50.0929 109.183 49.9021C109.074 49.7112 108.921 49.5486 108.737 49.4277C108.409 49.2074 108.132 48.9195 107.925 48.5834C107.719 48.2473 107.588 47.871 107.54 47.48C107.498 47.091 107.543 46.6976 107.67 46.3275C107.798 45.9574 108.005 45.6196 108.278 45.3378C108.43 45.1823 108.542 44.9935 108.606 44.7868C108.671 44.5801 108.686 44.3612 108.649 44.1478C108.609 43.9307 108.518 43.726 108.385 43.5498C108.251 43.3735 108.078 43.2306 107.879 43.1322C107.524 42.9536 107.212 42.7015 106.963 42.3929C106.714 42.0844 106.534 41.7265 106.435 41.3432C106.343 40.9639 106.335 40.5691 106.413 40.1866C106.491 39.8041 106.652 39.4433 106.886 39.1296C107.017 38.9547 107.105 38.7511 107.141 38.5358C107.177 38.3205 107.161 38.0998 107.093 37.892C107.025 37.6815 106.909 37.4894 106.754 37.3306C106.599 37.1717 106.409 37.0503 106.2 36.9756C105.825 36.8434 105.482 36.6337 105.195 36.3602C104.907 36.0866 104.681 35.7556 104.532 35.3888C104.388 35.0255 104.327 34.6349 104.354 34.2453C104.38 33.8557 104.493 33.4767 104.684 33.1356C104.792 32.9455 104.852 32.7324 104.86 32.5142C104.867 32.296 104.822 32.0792 104.728 31.8821C104.631 31.6831 104.49 31.5084 104.316 31.3711C104.142 31.2337 103.939 31.1372 103.722 31.0887C103.33 31.0008 102.962 30.8318 102.64 30.5925C102.318 30.3533 102.051 30.0493 101.855 29.7003C101.666 29.359 101.555 28.9805 101.531 28.5916C101.506 28.2028 101.568 27.8134 101.712 27.4511C101.794 27.2486 101.827 27.0293 101.806 26.8117C101.785 26.5941 101.712 26.3848 101.592 26.2015C101.471 26.0136 101.308 25.8555 101.117 25.7387C100.926 25.6219 100.71 25.5496 100.487 25.5271C100.086 25.4857 99.6989 25.3616 99.3492 25.1628C98.9996 24.9641 98.6955 24.695 98.4563 24.3727C98.2228 24.0584 98.0623 23.6965 97.9864 23.313C97.9105 22.9295 97.9212 22.5341 98.0175 22.1553C98.071 21.9438 98.0732 21.7228 98.0239 21.5104C97.9747 21.298 97.8754 21.1002 97.7343 20.9334C97.59 20.7579 97.407 20.618 97.1994 20.5244C96.9918 20.4308 96.7652 20.3862 96.5374 20.3939C96.1328 20.4053 95.7303 20.3309 95.3568 20.1756C94.9833 20.0203 94.6473 19.7878 94.3712 19.4935C94.1 19.2093 93.8945 18.8696 93.7691 18.4982C93.6436 18.1269 93.6014 17.7327 93.6451 17.3434C93.6729 17.1246 93.6476 16.9024 93.5712 16.6953C93.4949 16.4883 93.3697 16.3024 93.2063 16.1533C93.041 15.999 92.843 15.8833 92.627 15.8146C92.411 15.746 92.1823 15.7262 91.9576 15.7566C91.5557 15.8107 91.1469 15.7822 90.7565 15.673C90.3661 15.5639 90.0023 15.3763 89.6876 15.1219C89.3813 14.8743 89.1329 14.5633 88.96 14.2104C88.7871 13.8576 88.6936 13.4714 88.6863 13.079C88.6824 12.8592 88.6266 12.6434 88.5234 12.4491C88.4201 12.2547 88.2723 12.0873 88.0919 11.9603C87.9083 11.8281 87.6974 11.7381 87.4745 11.6969C87.2517 11.6558 87.0224 11.6644 86.8033 11.7223C86.41 11.8227 86.0003 11.8425 85.5991 11.7805C85.1978 11.7184 84.8135 11.5758 84.4695 11.3613C84.1332 11.1522 83.8462 10.8736 83.628 10.5443C83.4097 10.2151 83.2654 9.84292 83.2048 9.45321C83.1723 9.23511 83.089 9.02758 82.9615 8.84714C82.8341 8.6667 82.6661 8.51835 82.4708 8.41389C82.2717 8.30476 82.0508 8.24072 81.8239 8.22632C81.597 8.21192 81.3697 8.24751 81.1582 8.33057C80.7802 8.4791 80.3754 8.54869 79.9691 8.53504C79.5628 8.5214 79.1637 8.42479 78.7966 8.25123C78.4346 8.08565 78.1129 7.84435 77.8533 7.5438C77.5937 7.24326 77.4025 6.89056 77.2925 6.50978C77.2299 6.29778 77.1194 6.10283 76.9693 5.93987C76.8193 5.77692 76.6337 5.65027 76.4268 5.56962C76.216 5.48536 75.989 5.44842 75.7621 5.46144C75.5352 5.47447 75.314 5.53715 75.1143 5.645C74.7564 5.83603 74.3631 5.9525 73.9584 5.98728C73.5537 6.02207 73.1461 5.97442 72.7606 5.84729C72.3792 5.72693 72.0284 5.52653 71.7317 5.25961C71.4351 4.99269 71.1995 4.66551 71.0411 4.30021C70.9512 4.09649 70.8158 3.91588 70.645 3.77219C70.4742 3.6285 70.2727 3.52552 70.0557 3.47112C69.8373 3.41185 69.6083 3.40175 69.3854 3.44155C69.1625 3.48135 68.9513 3.57006 68.7672 3.7012C68.435 3.93437 68.0584 4.09757 67.6605 4.1808C67.2626 4.26402 66.8518 4.26549 66.4533 4.18515C66.0598 4.10807 65.6869 3.95004 65.3585 3.72118C65.0301 3.49232 64.7535 3.1977 64.5463 2.85625C64.4306 2.66495 64.2729 2.50209 64.085 2.37983C63.8971 2.25757 63.6839 2.17907 63.4612 2.15015C63.2359 2.11911 63.0064 2.13863 62.7897 2.20727C62.5729 2.27591 62.3743 2.39194 62.2086 2.54684C61.9101 2.81727 61.559 3.02401 61.1771 3.15432C60.7951 3.28464 60.3904 3.33578 59.9878 3.30456C59.5852 3.27334 59.1933 3.16041 58.8363 2.97278C58.4792 2.78515 58.1647 2.52679 57.912 2.21361C57.7726 2.03737 57.5952 1.89454 57.3929 1.79566C57.1906 1.69679 56.9685 1.64439 56.7431 1.64238C56.5167 1.63609 56.2917 1.68019 56.0846 1.77148C55.8776 1.86276 55.6936 1.99892 55.5463 2.16998C55.2826 2.47455 54.9589 2.72211 54.5952 2.89739C54.2315 3.07266 53.8355 3.17192 53.4317 3.18902C53.0279 3.20612 52.6249 3.14069 52.2475 2.9968C51.8701 2.85292 51.5265 2.63361 51.2377 2.35245C51.0765 2.19412 50.8819 2.07352 50.6679 1.99941C50.454 1.9253 50.2262 1.89955 50.001 1.92404C49.7772 1.94523 49.5611 2.01656 49.3691 2.13267C49.177 2.24878 49.0138 2.40666 48.8919 2.59444C48.6704 2.92842 48.3816 3.213 48.0438 3.43015C47.7059 3.6473 47.3263 3.7923 46.9291 3.85592C46.5287 3.92232 46.1188 3.90624 45.7249 3.80866C45.331 3.71108 44.9615 3.53409 44.6392 3.28865C44.46 3.15055 44.252 3.05394 44.0304 3.0059C43.8089 2.95787 43.5794 2.9596 43.3586 3.01097C43.1402 3.05806 42.9355 3.15398 42.7599 3.29144C42.5844 3.4289 42.4426 3.6043 42.3453 3.80435C42.1708 4.16246 41.922 4.47979 41.6153 4.73549C41.3087 4.9912 40.9511 5.17948 40.566 5.28796C40.1761 5.40216 39.7668 5.43573 39.3634 5.3866C38.9599 5.33748 38.5709 5.2067 38.2202 5.00234C38.0248 4.8871 37.8061 4.81634 37.5798 4.79508C37.3536 4.77382 37.1254 4.80259 36.9117 4.87936C36.7013 4.95289 36.5107 5.07337 36.3544 5.23153C36.1981 5.38968 36.0804 5.58133 36.0101 5.79177C35.8844 6.16809 35.6791 6.51327 35.4079 6.80408C35.1368 7.09488 34.8061 7.32458 34.4383 7.4777C34.0654 7.63773 33.6636 7.72026 33.2574 7.72026C32.8513 7.72026 32.4494 7.63773 32.0765 7.4777C31.8686 7.38737 31.6431 7.34372 31.4163 7.34989C31.1894 7.35606 30.9667 7.41188 30.764 7.51339C30.5641 7.61016 30.3897 7.752 30.2547 7.92761C30.1196 8.10323 30.0276 8.30776 29.9861 8.52495C29.9114 8.91253 29.7532 9.27946 29.5226 9.60059C29.2919 9.92172 28.9941 10.1894 28.6496 10.3854C28.2984 10.5885 27.9091 10.7179 27.5057 10.7656C27.1022 10.8134 26.6932 10.7785 26.3039 10.6631C26.0867 10.5984 25.8578 10.5822 25.6337 10.6158C25.4095 10.6494 25.1956 10.732 25.0073 10.8575C24.8217 10.9771 24.6672 11.1386 24.5563 11.3289C24.4453 11.5192 24.3812 11.7328 24.369 11.9524C24.3461 12.3449 24.2375 12.7278 24.0508 13.0744C23.8641 13.421 23.6038 13.7231 23.2879 13.9596C22.9641 14.2033 22.5934 14.3783 22.1988 14.4739C21.8043 14.5694 21.3942 14.5834 20.994 14.515C20.7713 14.4773 20.5429 14.4886 20.3251 14.5483C20.1073 14.6079 19.9053 14.7144 19.7333 14.8601C19.5653 15.0024 19.4335 15.1823 19.3489 15.385C19.2643 15.5878 19.2293 15.8076 19.2466 16.0264C19.2763 16.4159 19.2203 16.8072 19.0825 17.173C18.9447 17.5388 18.7285 17.8704 18.4487 18.1447C18.1586 18.4256 17.8132 18.6439 17.4343 18.7859C17.0554 18.9279 16.651 18.9905 16.2466 18.9698C16.0222 18.9555 15.7975 18.9928 15.59 19.0788C15.3824 19.1648 15.1976 19.2972 15.0498 19.4657C14.9049 19.6245 14.7995 19.8149 14.742 20.0216C14.6845 20.2283 14.6765 20.4455 14.7187 20.6558C14.7989 21.0384 14.7937 21.4339 14.7034 21.8143C14.6131 22.1947 14.4399 22.5508 14.196 22.8574C13.9436 23.1708 13.6285 23.4289 13.2708 23.6153C12.9131 23.8017 12.5204 23.9123 12.1176 23.9404C11.8933 23.9543 11.6752 24.0186 11.4796 24.1286C11.284 24.2385 11.1161 24.3912 10.9885 24.5751C10.8619 24.7532 10.7803 24.959 10.7504 25.1751C10.7206 25.3912 10.7434 25.6112 10.817 25.8167C10.9468 26.1847 10.9937 26.5765 10.9544 26.9645C10.9151 27.3525 10.7906 27.7271 10.5896 28.062C10.3799 28.4029 10.101 28.6966 9.77051 28.9241C9.44006 29.1516 9.06545 29.3078 8.6707 29.3829C8.45044 29.4246 8.24247 29.515 8.0622 29.6476C7.88194 29.7801 7.73403 29.9513 7.62947 30.1486C7.5303 30.3428 7.4786 30.5575 7.4786 30.7753C7.4786 30.9931 7.5303 31.2079 7.62947 31.4021C7.80835 31.7498 7.9072 32.1327 7.91893 32.5231C7.93066 32.9135 7.85495 33.3016 7.69726 33.6593C7.53443 34.0222 7.29643 34.3469 6.99877 34.6122C6.7011 34.8774 6.35049 35.0772 5.96986 35.1984C5.75653 35.265 5.5614 35.3793 5.39955 35.5327C5.23769 35.6861 5.11346 35.8744 5.03635 36.083C4.96163 36.2879 4.93747 36.5076 4.96593 36.7237C4.9944 36.9398 5.07462 37.1459 5.19988 37.3247C5.42115 37.6471 5.56807 38.0141 5.63014 38.3995C5.6922 38.7849 5.6679 39.1791 5.55894 39.5541C5.4462 39.9342 5.25297 40.286 4.99218 40.5856C4.73139 40.8853 4.4091 41.126 4.04698 41.2916C3.84618 41.3836 3.66957 41.5207 3.53112 41.6921C3.39266 41.8635 3.29613 42.0645 3.2491 42.2794C3.20163 42.4926 3.20618 42.7141 3.2624 42.9253C3.31861 43.1365 3.42484 43.3312 3.57222 43.4932C3.83357 43.7848 4.02729 44.13 4.13966 44.5043C4.25203 44.8786 4.28031 45.2728 4.2225 45.6592C4.16146 46.0492 4.01609 46.4214 3.79638 46.7501C3.57667 47.0788 3.28787 47.3563 2.9499 47.5633C2.76204 47.6786 2.60367 47.8357 2.48736 48.0223C2.37104 48.2088 2.29994 48.4197 2.27965 48.6383C2.26101 48.8565 2.29466 49.076 2.37788 49.2787C2.4611 49.4815 2.5915 49.6617 2.75836 49.8046C3.05803 50.0608 3.29712 50.3798 3.45851 50.7386C3.61989 51.0973 3.69959 51.4871 3.69197 51.8801C3.68435 52.273 3.58956 52.6595 3.41439 53.0118C3.23921 53.3641 2.98797 53.6736 2.6786 53.9183C2.50552 54.0547 2.36775 54.2302 2.27683 54.4304C2.18591 54.6305 2.14447 54.8493 2.15596 55.0686C2.16681 55.2877 2.22913 55.5012 2.3379 55.692C2.44667 55.8829 2.59888 56.0457 2.78232 56.1675C3.11222 56.3834 3.39031 56.6689 3.59686 57.0037C3.80341 57.3385 3.93338 57.7143 3.97754 58.1046C4.0217 58.4949 3.97896 58.89 3.85238 59.2621C3.72581 59.6341 3.5185 59.9739 3.24511 60.2574C3.09378 60.4129 2.98133 60.6017 2.91688 60.8084C2.85243 61.0151 2.83777 61.234 2.87407 61.4474C2.91449 61.6645 3.00508 61.8692 3.1387 62.0454C3.27232 62.2216 3.44535 62.3646 3.64405 62.463C3.99905 62.6417 4.31154 62.8937 4.56061 63.2023C4.80968 63.5108 4.98957 63.8687 5.08821 64.252C5.18059 64.6313 5.18807 65.0261 5.11018 65.4086C5.03228 65.7911 4.87091 66.1519 4.63741 66.4656C4.50608 66.6404 4.4187 66.8441 4.38262 67.0594C4.34653 67.2747 4.36277 67.4955 4.42995 67.7032C4.49859 67.9137 4.61481 68.1058 4.76972 68.2646C4.92464 68.4235 5.11411 68.5449 5.32358 68.6196C5.69859 68.7518 6.04112 68.9615 6.32857 69.235C6.61603 69.5086 6.84185 69.8396 6.99112 70.2064C7.13488 70.5697 7.19587 70.9603 7.16965 71.3499C7.14344 71.7395 7.03072 72.1185 6.83957 72.4596C6.73201 72.649 6.67151 72.8612 6.66318 73.0786C6.65486 73.2959 6.6989 73.5121 6.79165 73.7091C6.88827 73.9089 7.0294 74.0842 7.20428 74.2216C7.37916 74.3591 7.58321 74.4551 7.80098 74.5025C8.19232 74.5918 8.56057 74.7614 8.8821 75.0005C9.20363 75.2396 9.47135 75.5429 9.66805 75.8909C9.85727 76.2329 9.9679 76.6124 9.99204 77.002C10.0162 77.3916 9.95323 77.7816 9.80767 78.1441C9.72683 78.3472 9.69587 78.5665 9.71738 78.7838C9.73889 79.0011 9.81227 79.2102 9.93136 79.3937C10.0527 79.5815 10.215 79.7397 10.4064 79.8565C10.5977 79.9733 10.813 80.0456 11.0364 80.0681C11.4372 80.1088 11.8249 80.2326 12.1747 80.4314C12.5244 80.6302 12.8284 80.8997 13.067 81.2224C13.3008 81.5367 13.4615 81.8986 13.5374 82.2821C13.6133 82.6656 13.6025 83.0611 13.5059 83.44C13.4517 83.6513 13.4492 83.8725 13.4985 84.085C13.5478 84.2975 13.6474 84.4953 13.7891 84.6618C13.9321 84.8316 14.111 84.9679 14.313 85.0611C14.5151 85.1544 14.7353 85.2022 14.958 85.2013H15.0099C15.4084 85.1997 15.8032 85.2787 16.1701 85.4335C16.537 85.5883 16.8684 85.8156 17.1442 86.1017C17.4153 86.3851 17.6208 86.7241 17.7462 87.0949C17.8716 87.4656 17.914 87.8591 17.8703 88.2478C17.8428 88.4666 17.8683 88.6888 17.9447 88.8958C18.021 89.1028 18.146 89.2886 18.3091 89.4379C18.4741 89.5927 18.672 89.7087 18.8881 89.7774C19.1042 89.846 19.333 89.8656 19.5578 89.8346C19.9599 89.7816 20.3688 89.8109 20.7591 89.9207C21.1495 90.0306 21.5131 90.2186 21.8278 90.4733C22.1341 90.7208 22.3824 91.0319 22.5554 91.3848C22.7283 91.7376 22.8217 92.1238 22.8291 92.5162C22.8329 92.736 22.8887 92.9518 22.992 93.1461C23.0953 93.3405 23.2431 93.5079 23.4235 93.6349C23.6075 93.7664 23.8183 93.8559 24.0411 93.897C24.2638 93.9382 24.4929 93.9299 24.7121 93.8729C25.1053 93.7715 25.5152 93.7513 25.9166 93.8133C26.3179 93.8754 26.7022 94.0185 27.0459 94.2339C27.3827 94.4423 27.6701 94.7208 27.8884 95.0502C28.1067 95.3796 28.2507 95.752 28.3106 96.142C28.3431 96.3601 28.4264 96.5676 28.5539 96.748C28.6813 96.9285 28.8493 97.0769 29.0446 97.1813C29.244 97.2898 29.4651 97.3531 29.6919 97.3669C29.9188 97.3806 30.146 97.3443 30.3571 97.2606C30.7357 97.1142 31.1402 97.0457 31.5462 97.0594C31.9521 97.073 32.3511 97.1685 32.7189 97.34C33.0799 97.5069 33.4009 97.7486 33.6603 98.049C33.9197 98.3493 34.1115 98.7013 34.2228 99.0815C34.2841 99.2946 34.3941 99.4907 34.5443 99.6545C34.6945 99.8183 34.8808 99.9453 35.0886 100.026C35.2994 100.11 35.5264 100.147 35.7533 100.134C35.9802 100.121 36.2014 100.058 36.4011 99.9502C36.7587 99.7585 37.1519 99.6414 37.5566 99.6059C37.9613 99.5704 38.369 99.6174 38.7548 99.7439C39.1358 99.8661 39.4862 100.068 39.7827 100.335C40.0792 100.603 40.315 100.93 40.4743 101.295C40.5644 101.499 40.7 101.679 40.8707 101.823C41.0415 101.966 41.2428 102.069 41.4596 102.124C41.6781 102.183 41.9072 102.193 42.1301 102.154C42.353 102.114 42.5641 102.025 42.7482 101.894C43.0792 101.66 43.4552 101.496 43.8525 101.413C44.2499 101.33 44.6603 101.329 45.0581 101.41C45.4526 101.486 45.8267 101.643 46.1559 101.872C46.4852 102.101 46.7622 102.396 46.969 102.739C47.0848 102.93 47.2425 103.093 47.4304 103.215C47.6183 103.338 47.8315 103.416 48.0541 103.445C48.2795 103.476 48.509 103.457 48.7258 103.388C48.9426 103.32 49.1412 103.203 49.3068 103.048C49.8512 102.567 50.557 102.305 51.2855 102.314Z" fill="#3A3A39"/>
</g>
<defs>
<clipPath id="clip0_3397_9920">
<rect width="110" height="105" fill="white" transform="translate(0.759766 0.300781)"/>
</clipPath>
</defs>
</svg>
