<svg width="95" height="129" viewBox="0 0 95 129" fill="none" xmlns="http://www.w3.org/2000/svg">
<path d="M51.9476 81.2245C50.5084 81.2454 49.0842 80.9287 47.7888 80.2997C46.6354 79.743 45.5465 79.0607 44.542 78.2651C43.4659 77.3721 42.4743 76.3814 41.5797 75.3057L26.078 54.8383L23.0157 57.4278L21.5556 73.4561C21.5072 74.1161 21.5373 74.7796 21.6453 75.4325C21.7591 76.1823 21.9884 76.9097 22.3252 77.5887C22.6318 78.2383 23.0573 78.8245 23.5796 79.3168C24.0793 79.7671 24.7317 80.009 25.4034 79.9932L25.2927 81.2245H0.240234L0.350902 79.9932C0.978137 79.9932 8.48388 79.9932 9.71727 79.3168C10.346 78.8947 10.8604 78.3227 11.2142 77.6521C11.6299 76.9895 11.966 76.2799 12.2157 75.5382C12.4465 74.8529 12.6004 74.1439 12.6742 73.4244L18.3826 10.6587C18.488 9.51191 18.4933 8.12733 17.4865 7.20781C16.4798 6.28828 5.05781 9.90298 3.719 9.81842L3.83495 8.5871L28.2075 0.300781L23.5322 51.7204L47.0456 32.981C47.2725 32.8016 47.461 32.578 47.5995 32.3237C47.7381 32.0694 47.824 31.7897 47.8521 31.5013C47.9048 30.9253 47.6149 30.6346 46.9876 30.6346L47.0983 29.4033H64.9034L64.7874 30.6346C64.2603 30.6346 58.0143 30.8302 57.4082 31.0046C56.7821 31.2051 56.1889 31.4971 55.6477 31.8712C54.948 32.2237 54.2796 32.6357 53.65 33.1026L33.0515 49.3793L50.8565 72.4837C51.7963 73.8483 52.8546 75.1268 54.019 76.3045C54.9337 77.2185 55.9151 78.0628 56.9549 78.8306C57.7376 79.5068 58.7135 79.9174 59.7432 80.0038L59.6272 81.2351L51.9476 81.2245Z" fill="#3A3A39"/>
<path d="M30.7324 126.666L30.9222 124.552H31.3438C31.9089 124.533 32.4479 124.309 32.8618 123.923C33.4253 123.44 33.9264 122.888 34.3535 122.28C34.7913 121.653 35.1324 120.963 35.3655 120.235C35.5901 119.564 35.7404 118.871 35.8136 118.168L41.4902 55.7724C41.5535 55.0485 41.5957 54.3297 41.6168 53.6586C41.6447 53.087 41.5513 52.516 41.3427 51.9834C41.1361 51.5064 40.7907 51.103 40.3518 50.826C39.6783 50.4457 38.9213 50.2387 38.1485 50.2236L37.69 50.1866L37.8797 48.115H51.9899L51.5577 52.8342C53.3958 51.2026 55.4925 49.8898 57.7615 48.95C60.6718 47.7837 63.7832 47.2054 66.917 47.2483C71.8031 47.2483 76.0304 48.0304 79.4828 49.5736C82.7253 50.9624 85.6267 53.0436 87.9847 55.672C90.1685 58.1727 91.7532 61.1407 92.6178 64.3494C93.5076 67.6167 93.8005 71.0184 93.4822 74.3902C93.1571 77.8012 92.2776 81.1358 90.8784 84.262C89.434 87.5268 87.4045 90.4984 84.8907 93.0292C82.2299 95.6843 79.091 97.8092 75.6403 99.2915C71.6763 100.944 67.4141 101.755 63.122 101.675C60.1463 101.642 57.2172 100.93 54.5568 99.5927C52.0731 98.4002 49.7669 96.867 47.7046 95.0373L45.5963 118.29C45.5418 118.977 45.5648 119.669 45.6648 120.351C45.7617 121.055 45.9773 121.738 46.3026 122.369C46.6067 122.959 46.9839 123.508 47.4253 124.002C47.6024 124.198 47.8202 124.353 48.0634 124.455C48.3066 124.557 48.5691 124.605 48.8326 124.594H49.3333L49.1383 126.708L30.7324 126.666ZM66.2634 52.311C64.3815 52.3204 62.5144 52.6455 60.7395 53.2728C57.1221 54.5058 54.0636 56.9949 52.1164 60.2908C51.1352 61.9462 50.5439 63.8042 50.3875 65.7234L48.9011 81.8733C48.6863 83.8816 48.9931 85.9114 49.7919 87.7657C50.5641 89.5299 51.6848 91.1191 53.0862 92.4373C54.5049 93.7584 56.1637 94.7936 57.9723 95.4865C59.7744 96.1862 61.6903 96.5446 63.6227 96.5435C66.4578 96.5165 69.2517 95.8595 71.8031 94.6199C74.1186 93.4669 76.1867 91.8709 77.891 89.9218C79.548 88.0043 80.8622 85.8142 81.7756 83.4481C82.7027 81.0534 83.2883 78.5396 83.515 75.9809C83.7835 73.096 83.6057 70.1868 82.9879 67.3564C82.4061 64.6622 81.3341 62.0986 79.8254 59.7941C78.3672 57.6006 76.4498 55.7522 74.2066 54.3773C71.8018 52.962 69.0512 52.2464 66.2634 52.311Z" fill="#3A3A39"/>
<path d="M66.9115 47.6817C71.7607 47.6817 75.8878 48.4409 79.2928 49.9593C82.475 51.3184 85.3213 53.3604 87.6313 55.9416C89.777 58.3905 91.3316 61.3017 92.1748 64.4498C93.0501 67.6602 93.3393 71.0027 93.0287 74.3162C92.7084 77.6814 91.8414 80.9713 90.4618 84.0558C89.0377 87.2722 87.0368 90.1991 84.5584 92.6909C81.9402 95.3061 78.8491 97.3974 75.4503 98.8528C71.5474 100.483 67.349 101.282 63.1217 101.199C60.217 101.169 57.3576 100.473 54.7621 99.1646C52.0401 97.8566 49.5394 96.1286 47.3513 94.0438L45.1533 118.216C45.093 118.935 45.1177 119.659 45.2271 120.372C45.3242 121.125 45.5526 121.855 45.9018 122.528C46.2239 123.153 46.6241 123.733 47.093 124.256C47.3135 124.5 47.5843 124.692 47.8865 124.82C48.1887 124.947 48.5151 125.008 48.8429 124.996L48.7323 126.227H31.2329L31.3436 124.996C32.0187 124.977 32.6643 124.714 33.1621 124.256C33.7609 123.75 34.2923 123.17 34.7433 122.528C35.2019 121.867 35.5574 121.14 35.7975 120.372C36.0295 119.672 36.1851 118.949 36.2614 118.216L41.9381 55.82C42.0066 55.0801 42.0488 54.3614 42.0699 53.6586C42.0976 53.0274 41.9934 52.3974 41.7641 51.809C41.523 51.2524 41.1209 50.7811 40.6098 50.4561C39.869 50.0297 39.0339 49.7954 38.18 49.7744L38.2906 48.5431H51.4678L51.0093 53.9862C53.0011 52.0018 55.3636 50.4306 57.9615 49.3622C60.8086 48.2166 63.8546 47.6507 66.922 47.6975M63.6594 97.0032C66.5678 96.9793 69.4343 96.3059 72.0506 95.0321C74.4201 93.8539 76.5352 92.2199 78.2755 90.223C79.9693 88.2705 81.3106 86.0369 82.2392 83.6225C83.1799 81.19 83.776 78.6374 84.0102 76.039C84.2896 73.1122 84.1118 70.1596 83.4831 67.2877C82.9039 64.5405 81.819 61.9257 80.2838 59.5774C78.7909 57.3297 76.8265 55.436 74.5279 54.0285C72.0444 52.552 69.1971 51.8049 66.3106 51.8724C64.3765 51.8796 62.4573 52.2137 60.6339 52.8606C56.9152 54.128 53.7708 56.6864 51.7682 60.0741C50.7553 61.783 50.1426 63.7002 49.9762 65.6811L48.5056 81.8363C48.282 83.9171 48.6017 86.0204 49.4333 87.9401C50.2272 89.7589 51.3842 91.3955 52.833 92.7491C54.2918 94.1144 56.0014 95.1823 57.8667 95.8934C59.7138 96.6213 61.68 96.9977 63.6646 97.0032M66.9378 46.7991C63.7441 46.7557 60.5733 47.3466 57.6084 48.5378C55.6432 49.3524 53.8015 50.4393 52.1372 51.7667L52.4271 48.5959L52.5115 47.6447H37.4894L37.4156 48.4426L37.2997 49.6792L37.2206 50.5565L38.1378 50.6305C38.8317 50.6404 39.5124 50.822 40.1196 51.1589C40.4849 51.3873 40.7733 51.7206 40.9472 52.1155C41.1297 52.5955 41.2104 53.1085 41.1843 53.6216C41.1843 54.3033 41.1264 55.0114 41.0578 55.7354L35.3864 118.131C35.3128 118.804 35.1679 119.466 34.9542 120.108C34.7373 120.794 34.4154 121.443 34.0001 122.031C33.5996 122.62 33.1228 123.153 32.5823 123.617C32.255 123.934 31.8244 124.121 31.37 124.145H30.5319L30.4581 124.943L30.3474 126.18L30.2578 127.136H49.5966L49.6652 126.333L49.7812 125.096L49.8655 124.145H48.8693C48.672 124.156 48.475 124.122 48.2926 124.046C48.1102 123.97 47.947 123.854 47.8151 123.707C47.3985 123.238 47.0442 122.718 46.7609 122.158C46.4586 121.571 46.2589 120.937 46.1706 120.282C46.0734 119.632 46.0504 118.972 46.102 118.316L48.1367 95.941C50.0499 97.5365 52.1511 98.8906 54.3932 99.9732C57.1184 101.337 60.1181 102.06 63.1639 102.087C67.5218 102.169 71.8491 101.343 75.872 99.6614C79.3749 98.1623 82.5621 96.0104 85.2647 93.3198C87.8153 90.7521 89.875 87.7377 91.342 84.4258C92.7572 81.2551 93.6473 77.8744 93.9775 74.4167C94.2922 71.0037 93.9941 67.5618 93.0972 64.2543C92.2091 60.9799 90.5865 57.9523 88.3534 55.4025C85.9518 52.7266 82.9987 50.6061 79.6987 49.1878C76.183 47.6024 71.8872 46.8255 66.9326 46.8255L66.9378 46.7991ZM63.6541 96.126C61.7808 96.1162 59.9257 95.7578 58.1829 95.069C56.4259 94.3989 54.815 93.3939 53.4391 92.1096C52.079 90.835 50.9922 89.2957 50.245 87.586C49.4754 85.7981 49.1794 83.8412 49.3859 81.905L50.8564 65.7498C51.0089 63.8962 51.5804 62.1016 52.5273 60.5022C54.4214 57.2967 57.3955 54.8753 60.9133 53.6744C62.6377 53.0664 64.451 52.7503 66.279 52.7391C68.9918 52.6784 71.6678 53.3775 74.0061 54.7578C76.1935 56.0986 78.0625 57.9022 79.4826 60.0424C80.9534 62.298 81.9969 64.8061 82.5607 67.4409C83.1706 70.2295 83.3484 73.0957 83.0878 75.9386C82.8611 78.457 82.2845 80.9312 81.3748 83.2896C80.4768 85.607 79.1877 87.7522 77.564 89.6311C75.8999 91.5361 73.8801 93.0962 71.6184 94.2235C69.1281 95.4283 66.4032 96.0671 63.6383 96.0943L63.6541 96.126Z" fill="#F8F8F8"/>
<path d="M74.4165 121.731C74.4976 120.817 74.7588 119.928 75.185 119.116C75.6111 118.305 76.1937 117.585 76.8991 117.001C78.3511 115.713 80.2316 115.017 82.17 115.051C83.0905 115.019 84.0078 115.175 84.866 115.511C85.7242 115.846 86.5053 116.353 87.1615 117.001C87.7886 117.605 88.2681 118.346 88.5625 119.167C88.8569 119.987 88.9583 120.865 88.8587 121.731C88.7791 122.64 88.5126 123.523 88.0763 124.324C87.64 125.126 87.0433 125.828 86.3234 126.387C84.8217 127.627 82.9293 128.292 80.984 128.263C80.0794 128.301 79.1766 128.154 78.3303 127.832C77.484 127.509 76.7119 127.017 76.061 126.387C75.448 125.79 74.9806 125.059 74.6953 124.252C74.4101 123.444 74.3147 122.581 74.4165 121.731Z" fill="#3A3A39"/>
</svg>
