<svg width="104" height="93" viewBox="0 0 104 93" fill="none" xmlns="http://www.w3.org/2000/svg">
<g clip-path="url(#clip0_3397_9942)">
<path d="M0.240234 26.7867L2.79307 26.263C3.05369 26.2014 3.28836 26.0583 3.46349 25.854C3.64332 25.6516 3.74072 25.388 3.73619 25.1162V3.4914C3.74444 3.21091 3.64699 2.93769 3.46349 2.72687C3.28836 2.52257 3.05369 2.3794 2.79307 2.31784L0.240234 1.81327V0.899648H10.2433C11.9073 0.862335 13.5696 1.0292 15.1937 1.39659C16.278 1.63852 17.3065 2.08747 18.2238 2.71924C18.8976 3.19905 19.4229 3.86177 19.7388 4.63057C20.0177 5.33581 20.1604 6.08837 20.1592 6.84771C20.1822 8.4256 19.6 9.95139 18.5343 11.1062C17.986 11.6957 17.3464 12.1914 16.6405 12.574C15.8672 12.9981 15.0438 13.3217 14.19 13.5374C15.2204 13.5657 16.2413 13.746 17.22 14.0725C18.1117 14.3606 18.9482 14.8002 19.6933 15.3722C20.3829 15.9104 20.951 16.5907 21.3599 17.3677C21.7771 18.1781 21.988 19.0806 21.9735 19.9938C21.991 20.9155 21.8369 21.8323 21.519 22.6964C21.2431 23.4421 20.8277 24.1274 20.2956 24.7148C19.7568 25.2935 19.1256 25.7768 18.4283 26.1445C17.693 26.5341 16.9184 26.843 16.1179 27.0658C15.2735 27.3046 14.4106 27.4709 13.5385 27.5627C12.644 27.6587 11.7451 27.7072 10.8455 27.708H0.240234V26.7867ZM9.17897 13.2468C10.3174 13.2691 11.4544 13.1523 12.5651 12.899C13.3644 12.7199 14.1194 12.3792 14.7846 11.8974C15.3257 11.4882 15.745 10.9368 15.9967 10.3034C16.2569 9.62469 16.3855 8.90184 16.3754 8.17416C16.3967 7.26452 16.2569 6.35835 15.9626 5.4983C15.7125 4.79487 15.2873 4.16824 14.7278 3.67871C14.1276 3.17958 13.4231 2.82411 12.6673 2.63895C11.7248 2.40287 10.756 2.29108 9.78499 2.30638H7.34198V13.2468H9.17897ZM11.5917 26.2439C13.7304 26.2439 15.3363 25.8158 16.4095 24.9595C17.4827 24.1032 18.018 22.7016 18.0154 20.7546C18.0401 19.7738 17.8913 18.7965 17.5761 17.8684C17.3056 17.1152 16.832 16.4532 16.2088 15.9571C15.5086 15.4339 14.703 15.0724 13.8491 14.8982C12.7286 14.6597 11.5852 14.5482 10.4402 14.5657H7.34198V26.2362L11.5917 26.2439Z" fill="#3A3A39"/>
<path d="M37.6188 28.306C35.753 28.3413 33.9001 27.9873 32.1761 27.2663C30.6458 26.6109 29.2785 25.6213 28.1726 24.3687C27.0569 23.0765 26.2152 21.5674 25.6993 19.9344C25.1222 18.1084 24.8383 16.201 24.8584 14.2845C24.8449 12.4274 25.1393 10.581 25.7296 8.82192C26.2752 7.1882 27.1321 5.67794 28.2521 4.37617C29.3672 3.10378 30.7403 2.08822 32.2783 1.39832C33.9737 0.648069 35.8096 0.276444 37.6605 0.308871C39.6057 0.260013 41.538 0.63961 43.323 1.42126C44.8555 2.11714 46.2144 3.15027 47.3 4.44497C48.3693 5.75214 49.1678 7.26263 49.6483 8.88692C50.1664 10.6379 50.4217 12.4572 50.4058 14.2845C50.4057 15.42 50.2979 16.5528 50.0838 17.6676C49.8741 18.7846 49.5412 19.8745 49.0915 20.9168C48.6438 21.9531 48.07 22.929 47.3833 23.822C46.6901 24.7278 45.8607 25.5185 44.9251 26.1653C43.9271 26.8491 42.8329 27.3774 41.6791 27.7326C40.3622 28.1297 38.9932 28.323 37.6188 28.306ZM37.9976 26.9069C39.286 26.9372 40.5587 26.6177 41.6829 25.9819C42.7527 25.3587 43.6612 24.4889 44.3343 23.4436C45.0745 22.2765 45.6113 20.99 45.9213 19.6401C46.2842 18.096 46.4622 16.5136 46.4515 14.9267C46.4679 13.1277 46.2837 11.3325 45.9023 9.575C45.5886 8.09118 45.0167 6.67526 44.213 5.39301C43.4932 4.26335 42.51 3.32887 41.3496 2.67127C40.0926 1.99913 38.6849 1.66598 37.2628 1.70413C35.9208 1.66498 34.5951 2.00812 33.4373 2.69421C32.3735 3.35303 31.4782 4.2553 30.8239 5.32803C30.1204 6.49838 29.6184 7.78053 29.3392 9.1201C29.02 10.5929 28.8612 12.0965 28.8657 13.6041C28.8529 15.3823 29.0346 17.1566 29.4073 18.8946C29.7176 20.383 30.2815 21.8058 31.0739 23.0996C31.7856 24.2473 32.7614 25.2046 33.9184 25.8901C35.1704 26.5947 36.5873 26.946 38.0203 26.9069H37.9976Z" fill="#3A3A39"/>
<path d="M23.1699 58.5199L25.7228 57.9962C25.9845 57.9346 26.2203 57.7915 26.397 57.5871C26.5741 57.3834 26.67 57.1204 26.6659 56.8494V35.2246C26.6715 34.9452 26.5759 34.6733 26.397 34.46C26.22 34.2569 25.9841 34.1151 25.7228 34.0548L23.1699 33.5464V32.6328H33.7752V33.5464L31.2413 34.0548C30.9763 34.118 30.7378 34.2638 30.5595 34.4715C30.3726 34.6808 30.2723 34.9544 30.2793 35.236V44.743H43.7404V35.2246C43.7454 35.0895 43.7239 34.9548 43.6771 34.8282C43.6303 34.7016 43.5591 34.5855 43.4677 34.4868C43.2844 34.2883 43.0535 34.1409 42.7973 34.0587L40.2444 33.5502V32.6366H50.8497V33.5502L48.3007 34.0587C48.0354 34.1086 47.7964 34.2523 47.6265 34.4639C47.4461 34.6766 47.3492 34.9485 47.3538 35.2284V56.8532C47.342 57.1342 47.4399 57.4088 47.6265 57.6177C47.8081 57.8105 48.043 57.9437 48.3007 58L50.8497 58.5237V59.4373H40.2444V58.5237L42.7973 58C43.0579 57.9384 43.2926 57.7953 43.4677 57.591C43.6475 57.3885 43.7449 57.125 43.7404 56.8532V46.2491H30.283V56.8494C30.2718 57.1296 30.3682 57.4035 30.552 57.6139C30.739 57.8096 30.9808 57.943 31.2451 57.9962L33.779 58.5199V59.4335H23.1737L23.1699 58.5199Z" fill="#3A3A39"/>
<path d="M52.7598 58.5199L55.3126 57.9962C55.5729 57.9336 55.8072 57.7906 55.983 57.5871C56.1628 57.3847 56.2603 57.1212 56.2557 56.8494V35.2246C56.2632 34.9442 56.1659 34.6712 55.983 34.46C55.8069 34.2578 55.5725 34.1161 55.3126 34.0548L52.7598 33.5464V32.6328H72.925V38.9134H71.7887L70.3645 34.7735C70.3045 34.5942 70.2092 34.4291 70.0843 34.288C70.0118 34.219 69.9259 34.166 69.8319 34.1325C69.738 34.0989 69.6382 34.0855 69.5389 34.0931H59.8691V44.7277H66.2171C66.4261 44.7465 66.6344 44.6851 66.8004 44.5557C66.9253 44.4293 67.021 44.2765 67.0807 44.1084L68.217 40.9165H69.2017V50.0374H68.217L67.0807 46.8875C67.0257 46.7026 66.9299 46.5327 66.8004 46.3906C66.72 46.3227 66.627 46.2715 66.5269 46.24C66.4268 46.2085 66.3215 46.1973 66.2171 46.2071H59.8691V57.9732H71.2811C71.3793 57.9808 71.478 57.9682 71.5711 57.9359C71.6642 57.9037 71.7499 57.8527 71.8228 57.7859C71.953 57.6459 72.049 57.477 72.103 57.2928L73.4477 52.6062H74.5839V59.4488H52.7598V58.5199Z" fill="#3A3A39"/>
<path d="M0.349609 91.1918L2.90245 90.5534C3.16484 90.4895 3.39989 90.3421 3.57285 90.133C3.75026 89.9321 3.84745 89.6719 3.84556 89.4028V67.9118C3.85496 67.6311 3.75736 67.3575 3.57285 67.1473C3.39806 66.9426 3.16327 66.7993 2.90245 66.7383L0.349609 66.2337V65.3162H8.58385L15.0228 82.6061L16.4318 86.5664L24.3857 65.3086H32.5291V66.226L29.9762 66.7306C29.7152 66.793 29.4812 66.9392 29.3096 67.1473C29.1264 67.3583 29.029 67.6314 29.0369 67.9118V89.5366C29.0251 89.8177 29.123 90.0922 29.3096 90.3012C29.4898 90.4938 29.7235 90.6271 29.98 90.6834L32.5328 91.2071V92.1246H21.9011V91.2071L24.4539 90.6834C24.7162 90.6234 24.9525 90.48 25.1281 90.2744C25.3059 90.071 25.4018 89.8078 25.397 89.5366V67.1779L24.3327 70.1328L17.7839 87.6559L15.697 92.1093H14.8713L6.67869 70.171L5.5727 67.1473V89.4105C5.55988 89.691 5.65642 89.9654 5.84163 90.175C6.01981 90.376 6.25536 90.5162 6.51582 90.5764L9.06866 91.2148V92.1322H0.35718L0.349609 91.1918Z" fill="#3A3A39"/>
<path d="M34.416 91.192L36.9689 90.6683C37.2301 90.6082 37.4652 90.4648 37.6393 90.2593C37.8198 90.0573 37.9173 89.7935 37.912 89.5215V67.912C37.9214 67.6313 37.8238 67.3577 37.6393 67.1475C37.4652 66.9419 37.2301 66.7985 36.9689 66.7384L34.416 66.2338V65.3164H45.0213V66.2338L42.4912 66.7384C42.2268 66.7985 41.988 66.9417 41.8094 67.1475C41.6198 67.3553 41.5179 67.6295 41.5253 67.912V89.5368C41.5136 89.8178 41.6115 90.0923 41.798 90.3013C41.9851 90.4971 42.2269 90.6304 42.4912 90.6836L45.0213 91.2073V92.1247H34.416V91.192Z" fill="#3A3A39"/>
<path d="M44.8379 91.1908L46.565 90.7053C46.8362 90.6256 47.0817 90.4753 47.2771 90.2695C47.4778 90.0646 47.6384 89.8234 47.7506 89.5585L55.7045 69.3749L58.1362 64.9023H58.9164L68.7642 89.5585C68.8748 89.8243 69.0356 90.0658 69.2376 90.2695C69.4317 90.4769 69.6777 90.6275 69.9497 90.7053L71.6768 91.1908V92.1082H61.9124V91.1908L65.4083 90.5524L62.0753 82.1425H52.3525L49.2391 90.4645L52.6479 91.1831V92.1006H44.8379V91.1908ZM61.4465 80.6708L58.1551 72.4674L57.1476 69.8412L52.9812 80.6708H61.4465Z" fill="#3A3A39"/>
<path d="M71.5334 91.1918L74.0862 90.5534C74.349 90.4906 74.5844 90.3429 74.7566 90.133C74.934 89.9321 75.0312 89.6719 75.0293 89.4028V67.973C75.0411 67.6919 74.9432 67.4174 74.7566 67.2084C74.5764 67.0158 74.3427 66.8825 74.0862 66.8262L71.3516 66.226V65.3086H78.1011L91.3766 83.7835L93.2704 86.4594V68.015C93.2771 67.8758 93.2564 67.7365 93.2096 67.6053C93.1628 67.4741 93.0908 67.3535 92.9977 67.2505C92.8183 67.0569 92.5842 66.9234 92.3273 66.8682L89.7745 66.2298V65.3124H98.5125V66.2298L95.9634 66.8682C95.6991 66.9314 95.46 67.074 95.2778 67.2773C95.0943 67.4795 94.9941 67.7447 94.9975 68.0189V87.6597L94.3953 92.3042H93.2591L78.8662 72.3155L76.7565 69.3377V89.4066C76.7498 89.5459 76.7705 89.6852 76.8173 89.8164C76.8641 89.9476 76.9361 90.0681 77.0292 90.1712C77.206 90.3719 77.4403 90.5121 77.6996 90.5726L80.2524 91.211V92.1284H71.5409L71.5334 91.1918Z" fill="#3A3A39"/>
<path d="M62.5753 21.0889C62.5518 21.1655 62.5187 21.2387 62.4768 21.3068C62.4375 21.3665 62.3918 21.4216 62.3405 21.4712C62.2933 21.5144 62.244 21.5553 62.1928 21.5935C62.1192 21.644 62.037 21.6803 61.9504 21.7005C61.869 21.7158 61.7855 21.7158 61.7042 21.7005C61.54 21.6694 61.393 21.5782 61.2913 21.4444C61.237 21.3752 61.1977 21.2951 61.1762 21.2094C61.1547 21.1238 61.1513 21.0345 61.1663 20.9475C61.1819 20.8639 61.2087 20.7829 61.2459 20.7067C61.2832 20.6279 61.3289 20.5536 61.3822 20.4849C61.4316 20.416 61.4874 20.352 61.5489 20.2938C61.6042 20.2406 61.6638 20.192 61.7269 20.1485L61.7837 20.1103L61.8595 20.0683L61.939 20.0186L61.9958 19.9803L61.7307 19.6248C61.69 19.5721 61.6443 19.5234 61.5943 19.4796C61.5568 19.4492 61.5127 19.4282 61.4656 19.4184C61.4233 19.4072 61.379 19.4072 61.3368 19.4184C61.2851 19.4378 61.2366 19.4649 61.1928 19.4987C61.1271 19.5447 61.0694 19.6015 61.0224 19.6669C60.9768 19.7317 60.9375 19.8009 60.905 19.8733C60.8725 19.941 60.8459 20.0113 60.8255 20.0836C60.8027 20.1485 60.7838 20.2097 60.7686 20.2594L60.727 20.29L60.4277 20.0224C60.4526 19.9686 60.4805 19.9163 60.5111 19.8657C60.5437 19.8061 60.5817 19.7498 60.6247 19.6975C60.6697 19.6389 60.7191 19.584 60.7724 19.5331C60.8301 19.476 60.8922 19.4236 60.958 19.3764C61.0455 19.3161 61.1396 19.2661 61.2383 19.2273C61.3389 19.1895 61.4453 19.1701 61.5527 19.1699C61.6624 19.1693 61.7709 19.1928 61.8708 19.2387C61.9858 19.2962 62.0838 19.3832 62.1549 19.491L62.9124 20.5308C62.9269 20.5481 62.9434 20.5635 62.9616 20.5767C62.9829 20.5805 63.0048 20.5805 63.026 20.5767C63.0498 20.5817 63.0743 20.5817 63.098 20.5767C63.1263 20.5665 63.1531 20.5523 63.1775 20.5346C63.1896 20.5282 63.2 20.519 63.2078 20.5079L63.2495 20.462C63.2678 20.4474 63.2843 20.4307 63.2987 20.4123L63.3366 20.3664L63.4086 20.462C63.4086 20.4888 63.3859 20.5232 63.3707 20.5652C63.3551 20.6082 63.3348 20.6492 63.3101 20.6875C63.2872 20.7306 63.2606 20.7715 63.2306 20.8099C63.2038 20.8475 63.1704 20.8799 63.1321 20.9054C63.088 20.9409 63.0379 20.968 62.9844 20.9857C62.9396 20.9969 62.8928 20.9969 62.848 20.9857C62.8 20.9772 62.7546 20.9576 62.7155 20.9284C62.6636 20.888 62.6177 20.8404 62.5791 20.7869C62.5943 20.8871 62.593 20.9891 62.5753 21.0889ZM62.0716 20.0874C61.9581 20.1657 61.8516 20.254 61.7534 20.3511C61.674 20.4253 61.6086 20.5134 61.5602 20.6111C61.5189 20.6897 61.5005 20.7785 61.5072 20.8672C61.5142 20.9571 61.5486 21.0425 61.6057 21.1119C61.6478 21.1733 61.7019 21.2253 61.7648 21.2647C61.8161 21.294 61.8728 21.3122 61.9314 21.3183C61.9839 21.3296 62.0381 21.3296 62.0905 21.3183C62.1401 21.3049 62.1865 21.2815 62.2268 21.2495C62.2683 21.2222 62.3065 21.1902 62.3405 21.1539C62.3763 21.1143 62.4092 21.0721 62.4389 21.0277C62.4672 20.9827 62.4889 20.9338 62.5034 20.8825C62.5222 20.8312 62.53 20.7765 62.5261 20.7219L62.0716 20.0874Z" fill="#3A3A39"/>
<path d="M65.8072 20.4874L66.0307 20.3192C66.0563 20.2987 66.0748 20.2706 66.0837 20.2389C66.0902 20.2245 66.0935 20.2089 66.0935 20.1931C66.0935 20.1772 66.0902 20.1616 66.0837 20.1472L64.883 17.6433C64.8658 17.6077 64.838 17.5783 64.8035 17.5593C64.7577 17.5462 64.7092 17.5462 64.6633 17.5593H64.4209L64.3906 17.5019L65.0383 17.0241L65.2088 17.3796C65.2259 17.2798 65.2578 17.1831 65.3034 17.0929C65.3408 17.0192 65.3879 16.951 65.4436 16.8903C65.4902 16.8395 65.5438 16.7958 65.6027 16.7603L65.7504 16.68C65.8788 16.6215 66.0186 16.5928 66.1594 16.5959C66.2913 16.5981 66.4209 16.6308 66.5382 16.6915C66.6632 16.7532 66.7751 16.8389 66.8677 16.9438C66.9705 17.0587 67.0572 17.1873 67.1253 17.3261C67.2032 17.4833 67.2544 17.6525 67.2768 17.8268C67.3012 17.9846 67.2947 18.1456 67.2578 18.3008C67.2207 18.4497 67.1508 18.5882 67.0533 18.7061C66.9504 18.8314 66.821 18.932 66.6746 19.0004C66.6149 19.0271 66.5527 19.0476 66.4889 19.0616C66.4335 19.0671 66.3777 19.0671 66.3223 19.0616C66.272 19.0676 66.2211 19.0676 66.1708 19.0616C66.1255 19.0551 66.081 19.0436 66.0382 19.0271L66.0799 19.1151L66.4852 19.9599C66.4984 19.9917 66.5226 20.0175 66.5534 20.0325C66.5839 20.0439 66.6175 20.0439 66.648 20.0325L66.9889 19.9484L67.0382 20.0478L65.8791 20.5677L65.8072 20.4874ZM65.9587 18.9316C66.0027 18.938 66.0473 18.938 66.0913 18.9316H66.2503L66.4018 18.8972C66.4406 18.8857 66.4785 18.8716 66.5155 18.8551C66.6229 18.8101 66.7169 18.7377 66.7882 18.6449C66.8498 18.5599 66.8912 18.4618 66.9094 18.3582C66.9301 18.2483 66.9301 18.1355 66.9094 18.0256C66.8863 17.9048 66.8468 17.7877 66.792 17.6778C66.7317 17.5504 66.6581 17.4299 66.5723 17.3184C66.4984 17.2211 66.4087 17.1371 66.3071 17.0699C66.2152 17.0098 66.1097 16.9742 66.0004 16.9667C65.883 16.9573 65.7653 16.9797 65.6595 17.0317C65.6193 17.049 65.5811 17.0708 65.5458 17.0967C65.5032 17.1254 65.4639 17.1588 65.4284 17.1961C65.3906 17.2344 65.3587 17.2782 65.3337 17.3261C65.3031 17.3774 65.2838 17.4347 65.2769 17.4943L65.9587 18.9316Z" fill="#3A3A39"/>
<path d="M70.0873 18.7789L70.3449 18.6604C70.3736 18.6462 70.3974 18.6235 70.4131 18.5954C70.4197 18.5804 70.4231 18.5641 70.4231 18.5476C70.4231 18.5312 70.4197 18.5149 70.4131 18.4999L69.7616 15.824C69.7522 15.7864 69.7309 15.7528 69.701 15.7284C69.6616 15.7017 69.6158 15.6859 69.5684 15.6826L69.3223 15.6558V15.5946L70.0571 15.2544L70.148 15.6367C70.1845 15.5416 70.237 15.4537 70.3032 15.3768C70.3955 15.2548 70.5204 15.162 70.6631 15.1092C70.7162 15.0889 70.7706 15.0723 70.8259 15.0595C70.963 15.0271 71.1056 15.0271 71.2426 15.0595C71.3692 15.0881 71.4881 15.1442 71.591 15.2238C71.6988 15.311 71.7899 15.4172 71.86 15.5373C71.9386 15.6715 71.9961 15.8172 72.0304 15.9693C72.0754 16.1399 72.0908 16.3171 72.0758 16.493C72.0674 16.6522 72.0275 16.8082 71.9584 16.9517C71.8892 17.0973 71.7869 17.2244 71.6599 17.3227C71.5329 17.421 71.3847 17.4877 71.2274 17.5174C71.1638 17.5315 71.0992 17.5404 71.0342 17.5442C70.9769 17.5439 70.9198 17.5375 70.8638 17.5251C70.8144 17.5169 70.766 17.5028 70.7199 17.483L70.5987 17.4219L70.6214 17.5136L70.8411 18.4234C70.844 18.4403 70.8502 18.4564 70.8593 18.4708C70.8684 18.4852 70.8802 18.4977 70.8941 18.5075C70.9208 18.526 70.9527 18.5354 70.985 18.5343H71.3373L71.3638 18.6413L70.1214 18.9242L70.0873 18.7789ZM70.5608 17.2881C70.6023 17.3052 70.6455 17.318 70.6896 17.3263C70.7413 17.3302 70.7932 17.3302 70.8449 17.3263H71.0002H71.1214C71.2362 17.3031 71.3432 17.2505 71.432 17.1734C71.5106 17.1035 71.5716 17.0157 71.61 16.9173C71.6512 16.8126 71.6731 16.7012 71.6744 16.5885C71.6768 16.4598 71.6628 16.3313 71.6327 16.2063C71.5996 16.0742 71.5526 15.946 71.4926 15.824C71.4411 15.7141 71.3706 15.6144 71.2842 15.5296C71.2058 15.4522 71.1095 15.3957 71.004 15.3653C70.8896 15.3365 70.7699 15.3365 70.6555 15.3653L70.5305 15.4073C70.4837 15.4262 70.4391 15.4506 70.3979 15.48C70.3527 15.5126 70.3109 15.5498 70.273 15.5908C70.236 15.6367 70.2065 15.6884 70.1858 15.7437L70.5608 17.2881Z" fill="#3A3A39"/>
<path d="M75.9285 16.7276C75.8649 16.7787 75.7948 16.8212 75.7202 16.8537C75.6535 16.8835 75.5835 16.9053 75.5118 16.9187C75.4475 16.9238 75.3829 16.9238 75.3187 16.9187C75.2295 16.9247 75.1402 16.9103 75.0573 16.8767C74.9796 16.8486 74.9086 16.8043 74.849 16.7467C74.7899 16.6918 74.7422 16.6255 74.7089 16.5518C74.6739 16.4777 74.6558 16.3968 74.6558 16.3147C74.6493 16.2235 74.6636 16.132 74.6975 16.0472C74.7302 15.9674 74.7778 15.8947 74.8376 15.8331C74.8965 15.7695 74.9657 15.7165 75.0422 15.6763C75.118 15.6317 75.1979 15.5946 75.2808 15.5655C75.3621 15.5367 75.4458 15.515 75.5308 15.5005C75.6081 15.4847 75.6867 15.4757 75.7656 15.4738H76.08V15.0341C76.0805 14.9682 76.0716 14.9025 76.0535 14.8392C76.0406 14.7938 76.0157 14.7529 75.9815 14.7207C75.95 14.69 75.9106 14.6688 75.8679 14.6595C75.8139 14.6514 75.759 14.6514 75.705 14.6595C75.6219 14.6609 75.5397 14.6777 75.4626 14.7092C75.3879 14.7374 75.3157 14.7719 75.2467 14.8124C75.1785 14.8545 75.1179 14.9004 75.0611 14.9424L74.9134 15.0609H74.8604L74.7657 14.6786L74.9248 14.5946C74.986 14.5645 75.0493 14.5389 75.1141 14.5181C75.186 14.494 75.2594 14.4749 75.3338 14.4607C75.4147 14.4423 75.4971 14.4321 75.58 14.4302C75.6856 14.4272 75.7912 14.4375 75.8944 14.4607C76.0004 14.4818 76.1018 14.5219 76.1936 14.5792C76.2911 14.6434 76.371 14.7314 76.4259 14.8349C76.4809 14.9385 76.5091 15.0543 76.508 15.1718L76.5421 16.4485C76.5361 16.4698 76.5361 16.4923 76.5421 16.5135C76.5514 16.5335 76.5658 16.5506 76.5837 16.5632C76.6027 16.5773 76.6248 16.5865 76.6481 16.59C76.6794 16.5962 76.7115 16.5962 76.7428 16.59H76.7807H76.8413H76.9095L76.9701 16.5709H76.9928V16.6855L76.9019 16.7543L76.7807 16.8231L76.6443 16.8805C76.6004 16.896 76.5545 16.905 76.508 16.9073C76.4514 16.9155 76.394 16.9155 76.3375 16.9073C76.2922 16.8976 76.2496 16.878 76.2125 16.8499C76.1759 16.8176 76.1495 16.775 76.1368 16.7276C76.1157 16.6673 76.1042 16.6041 76.1027 16.5403C76.0544 16.6113 75.9957 16.6745 75.9285 16.7276ZM76.0876 15.6228C75.9478 15.6289 75.8087 15.6442 75.6709 15.6687C75.5623 15.691 75.4576 15.7297 75.3603 15.7834C75.2817 15.8256 75.2152 15.8874 75.1672 15.963C75.1214 16.0415 75.1003 16.1322 75.1066 16.223C75.1072 16.2971 75.124 16.3702 75.1558 16.4371C75.1793 16.4901 75.2158 16.5361 75.2619 16.5709C75.303 16.6047 75.3508 16.6295 75.402 16.6435C75.4522 16.6508 75.5033 16.6508 75.5535 16.6435C75.6034 16.6408 75.6528 16.6331 75.7012 16.6206C75.7545 16.6092 75.8065 16.5926 75.8565 16.5709C75.9061 16.548 75.9531 16.5198 75.9967 16.4867C76.0389 16.453 76.076 16.4131 76.1065 16.3682L76.0876 15.6228Z" fill="#3A3A39"/>
<path d="M79.1776 16.8567L79.4655 16.8338C79.498 16.8317 79.5288 16.8182 79.5526 16.7956C79.5763 16.7732 79.5922 16.7437 79.598 16.7115L79.8329 15.1251C79.8445 15.0877 79.8445 15.0477 79.8329 15.0104C79.806 14.9695 79.7678 14.9376 79.723 14.9186L79.5071 14.8078V14.7428L80.3101 14.6816L80.2306 15.213L80.3896 15.0371C80.4489 14.98 80.5136 14.9288 80.5828 14.8843C80.6516 14.8419 80.7254 14.8085 80.8025 14.7849C80.8873 14.7655 80.9753 14.7655 81.06 14.7849L81.1775 14.8078L81.2646 14.8384L81.3365 14.8689L81.4123 14.911L81.329 15.4729H81.2002L81.1509 15.2589C81.1485 15.2484 81.1438 15.2385 81.1373 15.2299C81.1308 15.2213 81.1225 15.2143 81.1131 15.2092C81.0922 15.1934 81.0692 15.1806 81.0449 15.171L80.9616 15.1404H80.8782C80.8206 15.1309 80.7617 15.1309 80.704 15.1404C80.6484 15.1485 80.5938 15.1626 80.5411 15.1824C80.4883 15.206 80.4376 15.2341 80.3896 15.2665C80.3364 15.3064 80.2858 15.3499 80.2381 15.3965L80.0298 16.8223C80.0178 16.853 80.0178 16.8872 80.0298 16.9179C80.0479 16.9451 80.0746 16.9653 80.1056 16.9752L80.4161 17.0823V17.1893L79.1738 17.0173L79.1776 16.8567Z" fill="#3A3A39"/>
<path d="M85.3666 17.8597L85.3097 18.0241C85.2411 18.0561 85.1702 18.0829 85.0976 18.1044C85.0148 18.1299 84.9299 18.1478 84.8439 18.1579C84.7507 18.1676 84.6568 18.1676 84.5636 18.1579C84.4669 18.1531 84.3714 18.1351 84.2795 18.1044C84.133 18.0605 83.9966 17.9877 83.878 17.8903C83.7678 17.8021 83.6806 17.6879 83.6243 17.5578C83.5618 17.4213 83.5307 17.2723 83.5334 17.122C83.5339 16.9419 83.5659 16.7633 83.628 16.5944C83.6801 16.4401 83.7569 16.2955 83.8553 16.1663C83.9488 16.0415 84.0644 15.9352 84.1962 15.8528C84.3288 15.7732 84.4754 15.72 84.628 15.6961C84.7912 15.6753 84.957 15.6923 85.1128 15.7458C85.2421 15.7833 85.3613 15.8499 85.4613 15.9408C85.5505 16.0223 85.6227 16.1211 85.6734 16.2313C85.72 16.3359 85.7445 16.4491 85.7453 16.5638C85.7484 16.6793 85.7317 16.7944 85.6961 16.9041L85.6772 16.9499C85.6772 16.9499 85.6772 16.9767 85.6772 16.9958L85.6544 17.0379L85.6355 17.0723L84.1205 16.5868C84.0115 16.8531 83.9877 17.1471 84.0523 17.4278C84.0896 17.5405 84.1547 17.6417 84.2415 17.722C84.3283 17.8022 84.434 17.8589 84.5485 17.8865C84.6318 17.9149 84.7183 17.9329 84.806 17.94C84.8804 17.9459 84.9551 17.9459 85.0295 17.94C85.0935 17.9325 85.1568 17.9197 85.2188 17.9018L85.3628 17.8521L85.3666 17.8597ZM85.2605 16.797C85.2933 16.7027 85.3174 16.6054 85.3325 16.5065C85.3476 16.4193 85.3476 16.33 85.3325 16.2428C85.3207 16.1641 85.288 16.0901 85.2378 16.0287C85.187 15.9633 85.1166 15.9163 85.037 15.8949C84.9551 15.8688 84.8685 15.861 84.7833 15.8719C84.7001 15.8877 84.6205 15.9188 84.5485 15.9637C84.4692 16.0172 84.3989 16.083 84.3401 16.1586C84.2717 16.2482 84.2121 16.3442 84.1621 16.4453L85.2605 16.797Z" fill="#3A3A39"/>
<path d="M87.3621 19.1551L87.631 19.2239C87.6634 19.2325 87.6977 19.23 87.7285 19.2169C87.7593 19.2038 87.785 19.1807 87.8015 19.1513L89.1764 16.6168C89.1946 16.583 89.2025 16.5444 89.1991 16.506C89.1855 16.4609 89.1608 16.4201 89.1271 16.3875L88.9605 16.2116L88.9908 16.1543L89.7975 16.3531L88.1726 19.3424C88.162 19.3734 88.162 19.407 88.1726 19.438C88.1815 19.4688 88.1985 19.4965 88.2219 19.5183L88.4075 19.6788L88.3545 19.7782L87.3242 19.2545L87.3621 19.1551Z" fill="#3A3A39"/>
<path d="M94.0016 23.8071C93.92 23.7958 93.84 23.7753 93.763 23.7459C93.6958 23.718 93.6323 23.682 93.5736 23.6389C93.5234 23.6008 93.4754 23.5599 93.4297 23.5165C93.3655 23.4555 93.3151 23.3811 93.282 23.2986C93.2535 23.2243 93.2394 23.1452 93.2403 23.0655C93.2443 22.9848 93.2636 22.9057 93.2971 22.8323C93.331 22.7568 93.38 22.6891 93.441 22.6335C93.5072 22.5657 93.5874 22.5135 93.6759 22.4806C93.7578 22.4534 93.8434 22.4392 93.9296 22.4385C94.0169 22.4378 94.1038 22.4507 94.1872 22.4768C94.2723 22.5 94.3548 22.532 94.4334 22.5724C94.5097 22.6115 94.5831 22.6563 94.6531 22.7061C94.7162 22.751 94.7757 22.8009 94.8311 22.8552L94.8765 22.9049L94.9333 22.9699L94.9939 23.0387L95.0394 23.0846L95.3651 22.7788C95.4145 22.7337 95.4578 22.6823 95.4939 22.6259C95.519 22.5871 95.5334 22.5422 95.5356 22.4959C95.5368 22.4531 95.5263 22.4108 95.5053 22.3736C95.4317 22.2579 95.3264 22.1663 95.2023 22.1098C95.06 22.0426 94.9077 22 94.7515 21.9836L94.5622 21.9569L94.5243 21.9187L94.7515 21.5938L94.9258 21.6472C94.989 21.6721 95.0509 21.7002 95.1114 21.7314C95.1782 21.7666 95.2427 21.8062 95.3045 21.8499C95.3698 21.8964 95.4319 21.9475 95.4901 22.0028C95.5645 22.0772 95.6294 22.1606 95.6833 22.2512C95.7374 22.3404 95.7747 22.4389 95.7931 22.5418C95.8087 22.6482 95.7996 22.7568 95.7666 22.8591C95.7226 22.9785 95.6497 23.0849 95.5545 23.1687L94.6038 24.0555C94.5886 24.0728 94.5759 24.0921 94.5659 24.1129C94.5598 24.1328 94.5598 24.1541 94.5659 24.174C94.5707 24.1966 94.5783 24.2184 94.5887 24.239C94.6037 24.2661 94.6229 24.2906 94.6455 24.3117L94.6758 24.3346L94.7288 24.369L94.7856 24.4072L94.8387 24.4378L94.7515 24.5219L94.6417 24.499C94.5963 24.4911 94.5518 24.4783 94.5091 24.4607C94.4619 24.4463 94.4162 24.4271 94.3728 24.4034C94.3309 24.383 94.2925 24.3559 94.2591 24.3231C94.2174 24.2855 94.1816 24.2417 94.1531 24.1932C94.1296 24.1538 94.1166 24.1091 94.1152 24.0632C94.1157 24.016 94.1288 23.9698 94.1531 23.9294C94.1873 23.8727 94.2294 23.8212 94.2781 23.7765C94.1883 23.8021 94.0948 23.8124 94.0016 23.8071ZM94.9485 23.1725C94.8497 23.0775 94.7447 22.9894 94.6341 22.9087C94.5433 22.8458 94.4438 22.7968 94.3387 22.7635C94.249 22.7427 94.1557 22.7427 94.066 22.7635C93.9766 22.7844 93.895 22.8308 93.8311 22.8973C93.7754 22.946 93.7303 23.0059 93.6986 23.0731C93.676 23.1262 93.6657 23.1837 93.6683 23.2413C93.6705 23.2936 93.6848 23.3447 93.71 23.3904C93.7311 23.4352 93.7607 23.4755 93.7971 23.5089C93.833 23.5446 93.8723 23.5766 93.9145 23.6045C93.9592 23.6325 94.006 23.6567 94.0546 23.6771C94.1052 23.6999 94.1588 23.7153 94.2137 23.723C94.2701 23.7325 94.3277 23.7325 94.3841 23.723L94.9485 23.1725Z" fill="#3A3A39"/>
<path d="M96.1123 26.199L96.3168 26.3863C96.3402 26.41 96.371 26.4248 96.4039 26.4283C96.4375 26.4297 96.4706 26.4203 96.4986 26.4015L97.8849 25.5185C97.9177 25.4979 97.9429 25.467 97.9568 25.4306C97.9718 25.386 97.9718 25.3376 97.9568 25.293L97.9 25.0598L97.9568 25.0254L98.5439 25.5759L98.203 25.7937C98.2987 25.7972 98.3939 25.81 98.4871 25.832C98.5643 25.8518 98.6383 25.8827 98.7068 25.9237C98.7672 25.957 98.8221 25.9996 98.8697 26.0499C98.9154 26.0987 98.9572 26.1511 98.9946 26.2066C99.0526 26.2904 99.0962 26.3834 99.1234 26.4818C99.1462 26.5747 99.1462 26.6718 99.1234 26.7647C99.0998 26.8663 99.0546 26.9616 98.9908 27.0438C98.908 27.147 98.8081 27.235 98.6954 27.3037L97.597 28.0032C97.5655 28.021 97.5414 28.0494 97.5288 28.0835C97.5213 28.1136 97.5213 28.1452 97.5288 28.1753L97.6122 28.4046L97.5137 28.4658L96.8736 27.5254L96.9683 27.4643L97.1728 27.6554C97.1976 27.6756 97.2281 27.6876 97.2599 27.6898C97.2965 27.6921 97.3327 27.6813 97.3622 27.6592L98.328 27.0438C98.4145 26.9903 98.4968 26.9303 98.5742 26.8641C98.6374 26.8133 98.6891 26.7494 98.7257 26.6768C98.7599 26.6111 98.7719 26.5359 98.7598 26.4627C98.745 26.3706 98.7072 26.2837 98.65 26.2104C98.6215 26.1674 98.5885 26.1277 98.5515 26.0919C98.5139 26.0502 98.4705 26.0141 98.4227 25.9849C98.3751 25.9528 98.3244 25.9259 98.2712 25.9046C98.2159 25.8856 98.1588 25.8728 98.1008 25.8664L96.7259 26.7456C96.6968 26.7624 96.6752 26.7897 96.6653 26.822C96.6557 26.8519 96.6557 26.884 96.6653 26.9138L96.7448 27.1431L96.6501 27.2043L96.0176 26.2448L96.1123 26.199Z" fill="#3A3A39"/>
<path d="M99.5505 31.8807C99.4453 31.8569 99.3443 31.817 99.2512 31.7622C99.1791 31.7203 99.1129 31.6689 99.0543 31.6093C99.008 31.5606 98.9674 31.5067 98.9331 31.4487C98.9066 31.3952 98.8838 31.3493 98.8687 31.3111C98.8123 31.1897 98.7875 31.0557 98.7968 30.9219C98.8061 30.7881 98.8491 30.6589 98.9217 30.5466C98.9928 30.4271 99.0868 30.3231 99.1982 30.2408C99.3252 30.1441 99.4656 30.0668 99.6148 30.0114C99.7838 29.9458 99.961 29.9047 100.141 29.8891C100.307 29.876 100.474 29.8928 100.634 29.9388C100.783 29.9794 100.922 30.054 101.039 30.1567C101.162 30.2593 101.258 30.3905 101.319 30.5389C101.345 30.5979 101.364 30.6594 101.376 30.7224C101.382 30.7758 101.382 30.8296 101.376 30.883C101.368 30.9758 101.344 31.0664 101.304 31.1506L101.406 31.1123L102.24 30.7912C102.277 30.7795 102.309 30.7552 102.331 30.7224C102.355 30.6824 102.364 30.635 102.357 30.5886V30.321L102.418 30.2981L102.91 30.9824L99.808 32.1789C99.7708 32.1906 99.7387 32.2149 99.7171 32.2477C99.6923 32.2889 99.6841 32.3382 99.6944 32.3853V32.6185L99.63 32.6452L99.1755 32.0451L99.1565 31.9992L99.5505 31.8807ZM101.198 31.2155C101.211 31.1746 101.218 31.1322 101.221 31.0894C101.221 31.0397 101.221 30.99 101.221 30.9365C101.221 30.883 101.202 30.8371 101.19 30.7912C101.182 30.7535 101.171 30.7164 101.156 30.6804C101.115 30.5724 101.045 30.4774 100.956 30.4051C100.87 30.3397 100.772 30.2928 100.668 30.2675C100.554 30.2498 100.437 30.2498 100.323 30.2675C100.194 30.2824 100.066 30.3132 99.9444 30.3593C99.8114 30.4115 99.6844 30.4782 99.5656 30.5581C99.4618 30.6222 99.3707 30.7051 99.2967 30.8027C99.2333 30.888 99.1917 30.9878 99.1755 31.0932C99.1612 31.2065 99.1782 31.3216 99.2247 31.4258C99.242 31.4655 99.2623 31.5038 99.2853 31.5405C99.3123 31.5846 99.3441 31.6256 99.38 31.6628C99.4182 31.7013 99.4601 31.7358 99.505 31.766C99.5549 31.793 99.6085 31.8123 99.6641 31.8234L101.198 31.2155Z" fill="#3A3A39"/>
<path d="M100.786 38.0579L100.855 38.3254C100.863 38.3565 100.881 38.3836 100.908 38.4019C100.938 38.4192 100.971 38.4284 101.006 38.4286L102.665 38.4019C102.704 38.4033 102.743 38.3912 102.775 38.3675C102.807 38.3357 102.83 38.2962 102.843 38.2528L102.923 38.0234H102.991L103.184 38.788H102.79C102.865 38.8376 102.935 38.8953 102.998 38.96C103.052 39.0112 103.098 39.0705 103.135 39.1358C103.168 39.1942 103.192 39.2574 103.207 39.3232C103.222 39.391 103.23 39.4601 103.233 39.5296C103.233 39.6053 103.226 39.6809 103.21 39.7551C103.193 39.8253 103.165 39.8923 103.127 39.9539C103.09 40.0161 103.041 40.0706 102.983 40.1144C102.919 40.1628 102.848 40.1991 102.771 40.2215C102.868 40.2815 102.957 40.3534 103.036 40.4355C103.093 40.4958 103.142 40.5641 103.18 40.6381C103.211 40.6978 103.232 40.7625 103.241 40.8293C103.246 40.889 103.246 40.9492 103.241 41.0089C103.245 41.1063 103.231 41.2036 103.199 41.2956C103.166 41.3849 103.115 41.4658 103.048 41.5326C102.971 41.604 102.881 41.6586 102.782 41.6932C102.66 41.7334 102.532 41.7553 102.404 41.7582H101.07C101.037 41.7569 101.005 41.7678 100.979 41.7887C100.957 41.8108 100.942 41.8386 100.934 41.869L100.877 42.106H100.76L100.741 40.9822H100.851L100.919 41.2459C100.927 41.277 100.946 41.3042 100.972 41.3224C101.001 41.341 101.036 41.3504 101.07 41.3492L102.237 41.33C102.34 41.329 102.442 41.3213 102.544 41.3071C102.625 41.2962 102.703 41.2703 102.775 41.2307C102.839 41.197 102.891 41.1434 102.923 41.0777C102.961 40.9969 102.978 40.9073 102.972 40.8178C102.971 40.7688 102.964 40.7201 102.953 40.6725C102.942 40.62 102.925 40.5688 102.904 40.5196C102.872 40.471 102.834 40.4272 102.79 40.3897C102.754 40.3434 102.71 40.3034 102.661 40.2712L101.017 40.2941C100.984 40.2936 100.951 40.3059 100.926 40.3285C100.903 40.3494 100.887 40.3776 100.881 40.4088L100.82 40.642H100.707V39.4952H100.817L100.885 39.7589C100.888 39.7743 100.893 39.789 100.902 39.8021C100.91 39.8152 100.921 39.8265 100.934 39.8354C100.962 39.8544 100.995 39.8638 101.029 39.8621L102.199 39.843C102.302 39.8438 102.404 39.8361 102.506 39.8201C102.589 39.8109 102.668 39.7849 102.741 39.7436C102.804 39.709 102.856 39.6556 102.888 39.5907C102.926 39.5082 102.941 39.4174 102.934 39.327C102.939 39.2774 102.939 39.2274 102.934 39.1779C102.921 39.1271 102.904 39.0773 102.885 39.0288C102.862 38.9788 102.834 38.9313 102.801 38.8874C102.764 38.8443 102.722 38.8058 102.676 38.7727L101.029 38.7994C101.012 38.797 100.995 38.7985 100.98 38.8038C100.964 38.8091 100.95 38.8181 100.938 38.83C100.912 38.8493 100.894 38.8781 100.889 38.9103L100.828 39.1473H100.718L100.699 38.0234L100.786 38.0579Z" fill="#3A3A39"/>
<path d="M100.032 45.3771C100.068 45.2212 100.135 45.0742 100.229 44.9452C100.318 44.826 100.432 44.7281 100.562 44.6585C100.702 44.588 100.854 44.5439 101.009 44.5285C101.188 44.5148 101.369 44.529 101.543 44.5706C101.711 44.6051 101.871 44.6685 102.017 44.7579C102.153 44.8357 102.272 44.9396 102.369 45.0637C102.459 45.1853 102.522 45.3247 102.555 45.4727C102.592 45.6336 102.592 45.8011 102.555 45.962C102.517 46.1317 102.44 46.29 102.331 46.4245C102.235 46.5427 102.113 46.6369 101.975 46.6998C101.834 46.7643 101.683 46.8019 101.528 46.8106C101.364 46.8194 101.2 46.8053 101.04 46.7686C100.874 46.7329 100.716 46.671 100.57 46.5851C100.434 46.505 100.315 46.4 100.218 46.2755C100.127 46.1546 100.063 46.0149 100.032 45.8664C99.9945 45.7055 99.9945 45.538 100.032 45.3771ZM100.187 45.4459C100.155 45.5576 100.164 45.6773 100.214 45.7823C100.262 45.8837 100.335 45.9707 100.426 46.0346C100.521 46.11 100.627 46.1706 100.74 46.2143C100.853 46.2576 100.968 46.2934 101.085 46.3213C101.222 46.3525 101.361 46.3704 101.502 46.3748C101.629 46.38 101.756 46.3684 101.88 46.3404C101.996 46.3132 102.105 46.261 102.199 46.1875C102.288 46.1116 102.351 46.0082 102.377 45.8932C102.394 45.8164 102.394 45.7368 102.377 45.66C102.361 45.5909 102.331 45.5258 102.29 45.4689C102.248 45.4063 102.195 45.3519 102.134 45.3083C102.072 45.2584 102.004 45.2149 101.933 45.1784L101.706 45.0866C101.627 45.0598 101.551 45.0407 101.475 45.0216C101.39 45.0011 101.304 44.9871 101.218 44.9796C101.128 44.974 101.038 44.974 100.949 44.9796C100.861 44.9836 100.774 44.9939 100.687 45.0102C100.607 45.0253 100.529 45.0523 100.456 45.0904C100.386 45.1271 100.324 45.1779 100.274 45.2395C100.23 45.3008 100.201 45.3714 100.187 45.4459Z" fill="#3A3A39"/>
<path d="M99.1797 48.6944L99.1267 48.9658C99.1153 48.9953 99.1153 49.028 99.1267 49.0575C99.1428 49.0867 99.1682 49.1096 99.1987 49.1225L100.714 49.7648C100.752 49.7776 100.793 49.7776 100.831 49.7648C100.877 49.75 100.919 49.7237 100.952 49.6883L101.123 49.5124L101.183 49.5392L101.028 50.3037L100.524 50.0858L100.653 50.2846C100.695 50.3534 100.729 50.4265 100.755 50.5025C100.779 50.5793 100.792 50.6591 100.793 50.7395C100.797 50.8227 100.78 50.9055 100.744 50.9804C100.727 51.0173 100.709 51.053 100.687 51.0874C100.687 51.1141 100.653 51.1371 100.638 51.16C100.622 51.1809 100.605 51.2001 100.585 51.2174L100.528 51.2747L99.9865 51.0453L100.04 50.9345H100.263C100.283 50.9407 100.304 50.9407 100.324 50.9345L100.38 50.881C100.399 50.8583 100.415 50.834 100.43 50.8083C100.446 50.7853 100.459 50.7611 100.471 50.7357C100.495 50.6846 100.511 50.6306 100.521 50.5752C100.528 50.5219 100.528 50.4678 100.521 50.4146C100.514 50.3569 100.5 50.3004 100.479 50.2464C100.454 50.1868 100.425 50.1293 100.392 50.0744L99.0283 49.4933C98.9954 49.4803 98.9589 49.4803 98.926 49.4933C98.8952 49.5014 98.8683 49.5204 98.8502 49.5469L98.6608 49.8106L98.5586 49.7648L99.0623 48.6523L99.1797 48.6944Z" fill="#3A3A39"/>
<path d="M96.5327 54.1879L96.3813 54.0885C96.3673 54.0154 96.3597 53.9412 96.3585 53.8668C96.3492 53.7843 96.3492 53.7009 96.3585 53.6183C96.371 53.5297 96.3926 53.4425 96.4229 53.3584C96.4557 53.2675 96.5003 53.1814 96.5555 53.1023C96.6408 52.9772 96.7487 52.8696 96.8736 52.785C96.9942 52.7081 97.1299 52.6585 97.2713 52.6397C97.4246 52.6183 97.5805 52.6287 97.7296 52.6703C97.9074 52.7191 98.0763 52.7966 98.2296 52.8997C98.373 52.9873 98.501 53.0985 98.6084 53.2284C98.7039 53.3414 98.7783 53.4709 98.828 53.6107C98.874 53.7523 98.8883 53.9024 98.8697 54.0503C98.8465 54.2097 98.7868 54.3615 98.6955 54.4937C98.6188 54.6054 98.5194 54.6993 98.4038 54.769C98.2973 54.8298 98.1804 54.87 98.0592 54.8875C97.9414 54.9027 97.8218 54.8949 97.7069 54.8645C97.5916 54.837 97.4815 54.7905 97.3812 54.7269L97.3433 54.7001L97.3016 54.6696L97.2675 54.6428L97.2335 54.6122L98.1235 53.324C97.8847 53.1488 97.6004 53.0478 97.3054 53.0335C97.1883 53.04 97.0745 53.0755 96.9741 53.1368C96.8737 53.1981 96.7898 53.2834 96.7297 53.3852C96.6818 53.4553 96.6424 53.5311 96.6123 53.6107C96.5862 53.6797 96.5684 53.7515 96.5593 53.8248C96.552 53.8857 96.552 53.9473 96.5593 54.0082C96.5549 54.0578 96.5549 54.1077 96.5593 54.1573L96.5327 54.1879ZM97.616 54.3714C97.7011 54.4279 97.7911 54.4766 97.8849 54.5167C97.9695 54.5525 98.0588 54.5757 98.1501 54.5855C98.2306 54.5946 98.3121 54.5854 98.3887 54.5587C98.4649 54.5268 98.5297 54.4721 98.5743 54.402C98.6249 54.3354 98.6564 54.2561 98.6652 54.1726C98.6737 54.0898 98.6633 54.0061 98.6349 53.928C98.6042 53.8389 98.558 53.756 98.4985 53.6833C98.4287 53.5938 98.3486 53.5129 98.2599 53.4425L97.616 54.3714Z" fill="#3A3A39"/>
</g>
<defs>
<clipPath id="clip0_3397_9942">
<rect width="103" height="92" fill="white" transform="translate(0.240234 0.300781)"/>
</clipPath>
</defs>
</svg>
