<svg width="143" height="100" viewBox="0 0 143 100" fill="none" xmlns="http://www.w3.org/2000/svg">
<g clip-path="url(#clip0_3397_9965)">
<path d="M54.1487 4.94755V27.1206C54.1473 28.1338 53.7423 29.1051 53.0225 29.8211C52.3027 30.5371 51.3271 30.9392 50.3099 30.9392H48.9217C47.9053 30.9379 46.9309 30.5352 46.2122 29.8193C45.4935 29.1035 45.0892 28.133 45.0879 27.1206V4.94755C45.0879 3.93478 45.4918 2.96349 46.2108 2.24736C46.9297 1.53123 47.9049 1.12891 48.9217 1.12891H50.3099C50.8137 1.12825 51.3128 1.22654 51.7785 1.41815C52.2442 1.60976 52.6674 1.89094 53.024 2.24559C53.3805 2.60025 53.6633 3.02144 53.8563 3.48507C54.0493 3.94869 54.1487 4.44566 54.1487 4.94755Z" fill="#3A3A39"/>
<path d="M66.3725 8.16768C70.6924 2.92641 76.2602 0.304113 83.0758 0.300785C89.8914 0.297457 95.237 2.64355 99.1125 7.33906C102.41 11.3324 104.451 16.2342 105.236 22.0445C105.31 22.5851 105.267 23.1352 105.109 23.6577C104.952 24.1802 104.684 24.6631 104.324 25.074C103.964 25.4849 103.519 25.8142 103.02 26.0399C102.522 26.2655 101.981 26.3823 101.433 26.3823H100.811C99.9077 26.3865 99.0319 26.0705 98.3406 25.4907C97.6494 24.911 97.1876 24.1053 97.0377 23.2176C96.3695 18.9547 95.0165 15.5936 92.9785 13.1344C90.2522 9.80662 86.958 8.15104 83.0958 8.16768C79.0064 8.16768 75.3698 10.0995 72.1859 13.963C68.0965 18.9314 66.0518 26.5221 66.0518 36.7351C66.0518 46.948 68.0965 54.5404 72.1859 59.5121C75.1426 63.1028 78.7793 64.8965 83.0958 64.8931C87.6362 64.8931 91.1576 63.3757 93.66 60.3407C96.3128 57.1194 97.8596 52.7484 98.3006 47.2276C98.3848 46.2823 98.8226 45.403 99.5271 44.7641C100.232 44.1252 101.152 43.7734 102.104 43.7783H102.535C103.074 43.7795 103.607 43.8935 104.099 44.1127C104.591 44.332 105.031 44.6518 105.391 45.0513C105.751 45.4508 106.023 45.9211 106.189 46.4319C106.355 46.9427 106.411 47.4824 106.354 48.0163C105.626 55.394 103.439 61.2958 99.794 65.7217C95.9319 70.4173 90.3658 72.7633 83.0958 72.76C76.2802 72.76 70.7125 70.1377 66.3926 64.8931C60.7129 58.0013 57.8731 48.6153 57.8731 36.7351C57.8597 24.5953 60.6929 15.0728 66.3725 8.16768Z" fill="#3A3A39"/>
<path d="M82.9398 23.2979H84.3129C85.331 23.2979 86.3074 23.7008 87.0273 24.4178C87.7472 25.1349 88.1517 26.1075 88.1517 27.1216C88.1531 28.1339 88.5574 29.1044 89.2761 29.8203C89.9948 30.5361 90.9691 30.9389 91.9855 30.9402H116.627C117.644 30.9402 118.62 30.538 119.34 29.8221C120.059 29.1061 120.464 28.1348 120.466 27.1216V12.3811C120.466 11.3684 120.87 10.3971 121.589 9.68095C122.308 8.96482 123.283 8.5625 124.299 8.5625H125.693C126.709 8.5625 127.685 8.96482 128.404 9.68095C129.122 10.3971 129.526 11.3684 129.526 12.3811V68.0983C129.526 69.111 129.122 70.0823 128.404 70.7984C127.685 71.5146 126.709 71.9169 125.693 71.9169H124.299C123.283 71.9169 122.308 71.5146 121.589 70.7984C120.87 70.0823 120.466 69.111 120.466 68.0983V42.6407C120.466 41.6266 120.061 40.654 119.341 39.937C118.621 39.2199 117.645 38.8171 116.627 38.8171H91.9855C90.9683 38.8184 89.9931 39.2218 89.2743 39.9387C88.5555 40.6557 88.1517 41.6275 88.1517 42.6407V49.9036C88.1517 50.4055 88.0524 50.9024 87.8594 51.3661C87.6665 51.8297 87.3836 52.2509 87.027 52.6055C86.6705 52.9602 86.2473 53.2414 85.7816 53.433C85.3158 53.6246 84.8168 53.7229 84.3129 53.7222H82.9247C82.4209 53.7229 81.9218 53.6246 81.4561 53.433C80.9904 53.2414 80.5672 52.9602 80.2106 52.6055C79.8541 52.2509 79.5713 51.8297 79.3783 51.3661C79.1853 50.9024 79.0859 50.4055 79.0859 49.9036V27.1216C79.0859 26.6182 79.1857 26.1197 79.3796 25.6549C79.5734 25.19 79.8576 24.7678 80.2157 24.4125C80.5737 24.0573 80.9987 23.776 81.4661 23.5847C81.9336 23.3934 82.4344 23.296 82.9398 23.2979Z" fill="#3A3A39"/>
<path d="M142.24 4.38807V35.1917C142.24 36.2045 141.837 37.1758 141.118 37.8919C140.399 38.6081 139.423 39.0104 138.407 39.0104H137.018C136.515 39.011 136.016 38.9127 135.55 38.7211C135.084 38.5295 134.661 38.2484 134.304 37.8937C133.948 37.539 133.665 37.1178 133.472 36.6542C133.279 36.1906 133.18 35.6936 133.18 35.1917V4.38807C133.18 3.88595 133.279 3.38874 133.472 2.92484C133.665 2.46093 133.948 2.03942 134.304 1.68437C134.66 1.32931 135.084 1.04766 135.549 0.855502C136.015 0.663347 136.514 0.564453 137.018 0.564453H138.407C139.424 0.565776 140.399 0.969201 141.118 1.68613C141.837 2.40305 142.24 3.37485 142.24 4.38807Z" fill="#3A3A39"/>
<path d="M36.428 1.10938H35.5761C34.1523 1.1098 32.7838 1.65895 31.7574 2.64182L21.3035 12.6252C21.0528 12.8629 20.72 12.9955 20.3738 12.9955C20.0277 12.9955 19.6949 12.8629 19.4442 12.6252L8.99024 2.64182C7.96378 1.65895 6.59534 1.1098 5.1715 1.10938H4.31958C3.23721 1.1107 2.19962 1.5399 1.43474 2.30269C0.66986 3.06549 0.240234 4.0995 0.240234 5.17759V49.2941C0.240234 50.4013 0.681485 51.4632 1.46704 52.2466C2.2526 53.03 3.31821 53.4708 4.42982 53.4721C5.0695 53.4721 5.70295 53.3466 6.29395 53.1028C6.88494 52.8589 7.42189 52.5016 7.87422 52.051C8.32655 51.6005 8.68537 51.0656 8.93017 50.4769C9.17496 49.8883 9.30095 49.2574 9.30095 48.6202V18.4605C9.30096 18.1962 9.3796 17.9378 9.52687 17.718C9.67414 17.4981 9.88347 17.3267 10.1285 17.2252C10.3735 17.1238 10.6431 17.0969 10.9034 17.1479C11.1638 17.199 11.4031 17.3257 11.5912 17.512L15.6856 21.5853C15.7007 21.6081 15.7175 21.6298 15.7357 21.6501L18.6173 24.5204C19.0865 24.9839 19.7205 25.244 20.3814 25.2441C21.0394 25.2401 21.6695 24.9783 22.1354 24.5154L25.012 21.6501L25.0671 21.5853L29.1564 17.512C29.3442 17.326 29.5831 17.1993 29.843 17.1481C30.1028 17.0969 30.3721 17.1234 30.6169 17.2243C30.8617 17.3251 31.0711 17.4958 31.2187 17.7149C31.3664 17.9339 31.4457 18.1916 31.4467 18.4555V68.9214C31.4467 69.4235 31.546 69.9207 31.7389 70.3846C31.9318 70.8485 32.2145 71.27 32.571 71.6251C32.9275 71.9801 33.3507 72.2618 33.8164 72.4539C34.2822 72.6461 34.7814 72.745 35.2855 72.745H36.6736C37.6908 72.7437 38.666 72.3402 39.3848 71.6233C40.1036 70.9064 40.5074 69.9346 40.5074 68.9214V5.20255C40.5113 4.66645 40.4088 4.13486 40.2055 3.63842C40.0023 3.14199 39.7025 2.69052 39.3233 2.31003C38.9441 1.92955 38.493 1.62757 37.9961 1.42151C37.4992 1.21544 36.9663 1.10936 36.428 1.10938Z" fill="#3A3A39"/>
<path d="M0.240234 48.2363V50.5724C0.240234 51.0746 0.339551 51.5718 0.532468 52.0357C0.725385 52.4996 1.00811 52.9211 1.36457 53.2761C1.72104 53.6312 2.14423 53.9129 2.60998 54.105C3.07572 54.2972 3.57492 54.3961 4.07904 54.3961H5.46722C6.48447 54.3947 7.45956 53.9913 8.17839 53.2744C8.89721 52.5575 9.30095 51.5857 9.30095 50.5724V48.2363H0.240234Z" fill="#3A3A39"/>
<path d="M54.1487 42.844V45.9488C54.1487 46.9629 53.7442 47.9355 53.0243 48.6526C52.3044 49.3696 51.328 49.7725 50.3099 49.7725H48.9217C47.9044 49.7712 46.9293 49.3677 46.2105 48.6508C45.4916 47.9339 45.0879 46.9621 45.0879 45.9488V42.844C45.0892 41.8317 45.4935 40.8612 46.2122 40.1453C46.9309 39.4295 47.9053 39.0267 48.9217 39.0254H50.3099C51.3271 39.0254 52.3027 39.4275 53.0225 40.1435C53.7423 40.8595 54.1473 41.8308 54.1487 42.844Z" fill="#3A3A39"/>
<path d="M35.0007 88.7519C35.0047 88.9038 34.9721 89.0545 34.9055 89.1912C34.8408 89.3196 34.7463 89.4309 34.6298 89.5156C34.5007 89.6096 34.3542 89.6775 34.1989 89.7153C34.0156 89.7628 33.8269 89.7863 33.6376 89.7852H32.7305V86.3359H33.7328C34.5045 86.3359 34.8955 86.6155 34.8955 87.1745C34.9039 87.3509 34.8566 87.5255 34.7601 87.6737C34.6533 87.8201 34.4995 87.9258 34.3241 87.9732C34.4171 87.988 34.507 88.0183 34.5898 88.0631C34.6734 88.103 34.7483 88.159 34.8102 88.2278C34.8762 88.2947 34.9274 88.3746 34.9606 88.4624C34.9922 88.5555 35.0058 88.6537 35.0007 88.7519ZM34.3893 87.2544C34.3908 87.1862 34.3789 87.1184 34.3542 87.0547C34.3363 86.9908 34.2975 86.9346 34.2439 86.895C34.1813 86.8428 34.1077 86.8053 34.0285 86.7852C33.9172 86.7566 33.8026 86.7431 33.6877 86.7452H33.1865V87.8234H33.6576C33.7554 87.8244 33.8528 87.8144 33.9483 87.7935C34.0305 87.7734 34.1074 87.7359 34.1738 87.6837C34.2378 87.6402 34.2882 87.5797 34.3191 87.509C34.3636 87.4259 34.3877 87.3335 34.3893 87.2394V87.2544ZM34.4995 88.7819C34.5022 88.7002 34.4832 88.6193 34.4444 88.5472C34.4065 88.4752 34.3514 88.4135 34.2841 88.3675C34.2065 88.3153 34.1198 88.2781 34.0285 88.2577C33.9156 88.2285 33.7992 88.2151 33.6827 88.2178H33.1815V89.4058H33.6827C33.8964 89.4222 34.1096 89.3678 34.2891 89.2511C34.3618 89.1942 34.4191 89.1201 34.4559 89.0355C34.4926 88.951 34.5076 88.8587 34.4995 88.7669V88.7819Z" fill="#3A3A39"/>
<path d="M41.5945 89.7852H39.625V86.3359H41.5945V86.7303H40.0911V87.7985H41.5294V88.1978H40.0911V89.3858H41.5945V89.7852Z" fill="#3A3A39"/>
<path d="M48.831 89.7852H48.3298L48.0893 89.0314H46.651L46.4054 89.7852H45.9043L47.057 86.3359H47.7034L48.831 89.7852ZM47.939 88.6121L47.3526 86.7702L46.7713 88.6121H47.939Z" fill="#3A3A39"/>
<path d="M55.2921 89.6575C55.0157 89.7716 54.7192 89.8293 54.4201 89.8272C54.2118 89.84 54.0032 89.8078 53.8086 89.7328C53.614 89.6579 53.4379 89.5419 53.2925 89.3929C53.0066 89.0247 52.8673 88.5643 52.9016 88.1001C52.8977 87.8462 52.935 87.5934 53.0119 87.3513C53.0744 87.1421 53.1802 86.9482 53.3226 86.7822C53.4593 86.6253 53.6309 86.5022 53.8237 86.4228C54.0259 86.3348 54.2445 86.2906 54.4652 86.2931C54.615 86.2919 54.7646 86.307 54.9112 86.338C55.0483 86.3611 55.1816 86.4031 55.3071 86.4628V86.922C55.1854 86.8547 55.0558 86.8028 54.9212 86.7673C54.7772 86.7303 54.629 86.7119 54.4802 86.7124C54.3284 86.7098 54.1778 86.7405 54.0392 86.8022C53.9078 86.8626 53.7927 86.9533 53.7035 87.0668C53.6068 87.1935 53.5353 87.3376 53.493 87.4911C53.4401 87.6761 53.4148 87.8678 53.4178 88.0601C53.3944 88.4136 53.4896 88.7648 53.6884 89.0584C53.7858 89.1739 53.9092 89.2648 54.0486 89.3237C54.1879 89.3827 54.3392 89.4081 54.4902 89.3979C54.6338 89.3994 54.7769 89.3826 54.9162 89.348C55.0509 89.3124 55.1818 89.2639 55.3071 89.2032L55.2921 89.6575Z" fill="#3A3A39"/>
<path d="M62.1313 89.7852H61.6602V88.2028H60.2019V89.7852H59.7559V86.3359H60.2269V87.7935H61.6853V86.3359H62.1564L62.1313 89.7852Z" fill="#3A3A39"/>
<path d="M75.6971 88.7519C75.6996 88.9042 75.6652 89.0549 75.5968 89.1912C75.5322 89.3196 75.4377 89.4309 75.3212 89.5156C75.1926 89.6106 75.0459 89.6785 74.8902 89.7153C74.7069 89.7628 74.5183 89.7863 74.3289 89.7852H73.4219V86.3359H74.4242C75.1959 86.3359 75.5818 86.6155 75.5818 87.1745C75.5903 87.3509 75.543 87.5255 75.4465 87.6737C75.3397 87.8201 75.1858 87.9258 75.0105 87.9732C75.1035 87.988 75.1933 88.0183 75.2761 88.0631C75.3605 88.1018 75.4357 88.1579 75.4966 88.2278C75.5626 88.2947 75.6138 88.3746 75.6469 88.4624C75.6819 88.5548 75.699 88.6531 75.6971 88.7519ZM75.0806 87.2544C75.0812 87.1867 75.0711 87.1193 75.0506 87.0547C75.0289 86.9913 74.9888 86.9357 74.9353 86.895C74.8739 86.8437 74.8021 86.8063 74.7248 86.7852C74.6119 86.7566 74.4956 86.7431 74.3791 86.7452H73.8779V87.8234H74.349C74.4484 87.8244 74.5475 87.8143 74.6446 87.7935C74.726 87.7712 74.8026 87.734 74.8702 87.6837C74.9315 87.6373 74.9812 87.5776 75.0155 87.509C75.0556 87.4246 75.0778 87.3328 75.0806 87.2394V87.2544ZM75.196 88.7819C75.1971 88.7003 75.1781 88.6198 75.1408 88.5472C75.0995 88.4761 75.043 88.4147 74.9754 88.3675C74.8979 88.3153 74.8112 88.2781 74.7198 88.2577C74.607 88.2283 74.4906 88.2148 74.3741 88.2178H73.8729V89.4058H74.3741C74.5878 89.4226 74.8011 89.3682 74.9804 89.2511C75.0541 89.1947 75.1124 89.1209 75.15 89.0363C75.1877 88.9517 75.2035 88.8591 75.196 88.7669V88.7819Z" fill="#3A3A39"/>
<path d="M81.0401 86.7303H80.2433V86.3359H82.308V86.7303H81.5112V89.3858H82.308V89.7852H80.2383V89.3858H81.0351L81.0401 86.7303Z" fill="#3A3A39"/>
<path d="M89.2087 88.8535C89.2131 89.0028 89.1785 89.1507 89.1084 89.2828C89.0426 89.4065 88.946 89.5114 88.8278 89.5873C88.6972 89.6754 88.5509 89.7381 88.3968 89.772C88.1234 89.8283 87.8432 89.8451 87.5649 89.8219H87.2993L87.0638 89.787L86.8633 89.742V89.2878C87.0081 89.3396 87.1574 89.378 87.3093 89.4026C87.4948 89.4324 87.6827 89.4458 87.8706 89.4425C88.0018 89.4454 88.1329 89.4337 88.2615 89.4076C88.3547 89.3908 88.4434 89.3551 88.5221 89.3028C88.5874 89.2616 88.6395 89.2027 88.6724 89.1331C88.7037 89.0606 88.7191 88.9823 88.7176 88.9034C88.7213 88.8165 88.6927 88.7312 88.6374 88.6638C88.5806 88.5931 88.5109 88.5339 88.4319 88.4891C88.3397 88.432 88.2424 88.3835 88.1412 88.3444L87.8105 88.2096L87.4797 88.0648C87.3759 88.0128 87.2784 87.9491 87.189 87.8751C87.1043 87.8027 87.0345 87.7145 86.9836 87.6156C86.9272 87.5079 86.8996 87.3875 86.9034 87.2662C86.9037 87.1457 86.9293 87.0267 86.9785 86.9167C87.0307 86.7989 87.1097 86.6946 87.2091 86.6122C87.328 86.5162 87.464 86.4434 87.61 86.3976C87.7996 86.3382 87.9976 86.3095 88.1963 86.3127H88.3868H88.5923L88.7977 86.3477L88.9881 86.3876V86.8119C88.8536 86.772 88.7162 86.7419 88.5772 86.7221C88.4478 86.7025 88.3172 86.6925 88.1863 86.6921C87.9784 86.6763 87.7707 86.7233 87.59 86.8269C87.5299 86.8654 87.4808 86.9188 87.4474 86.9817C87.4141 87.0447 87.3976 87.1151 87.3995 87.1863C87.3966 87.2723 87.4231 87.3568 87.4747 87.4259C87.5311 87.4983 87.6008 87.5593 87.6802 87.6056C87.7723 87.6627 87.8697 87.7112 87.9709 87.7503L88.3016 87.8851C88.4168 87.9301 88.5271 87.98 88.6374 88.0349C88.7424 88.0869 88.8401 88.1523 88.928 88.2295C89.0113 88.3033 89.0809 88.3912 89.1335 88.4891C89.1872 88.6029 89.213 88.7278 89.2087 88.8535Z" fill="#3A3A39"/>
<path d="M96.1053 86.7353H95.1031V89.7852H94.6019V86.7353H93.5996V86.3359H96.1053V86.7353Z" fill="#3A3A39"/>
<path d="M102.92 89.787H102.384L101.883 88.6838C101.849 88.6104 101.809 88.5402 101.762 88.4742C101.727 88.4223 101.683 88.3767 101.632 88.3394C101.586 88.3079 101.535 88.2843 101.482 88.2695C101.418 88.2641 101.355 88.2641 101.291 88.2695H101.071V89.8069H100.6V86.3577H101.527C101.696 86.3547 101.865 86.3766 102.028 86.4226C102.16 86.459 102.282 86.5219 102.389 86.6073C102.478 86.6839 102.547 86.7818 102.589 86.8918C102.662 87.1123 102.662 87.3502 102.589 87.5707C102.556 87.6647 102.507 87.7525 102.444 87.8302C102.379 87.911 102.301 87.9802 102.213 88.0349C102.114 88.0934 102.006 88.1356 101.893 88.1597C101.991 88.1948 102.078 88.2571 102.143 88.3394C102.223 88.4434 102.292 88.5555 102.349 88.6738L102.92 89.787ZM102.163 87.2912C102.169 87.2132 102.155 87.1352 102.125 87.0632C102.094 86.9912 102.048 86.9274 101.988 86.8768C101.843 86.7715 101.665 86.7218 101.487 86.7371H101.041V87.8802H101.421C101.523 87.8805 101.624 87.8671 101.722 87.8402C101.806 87.8173 101.884 87.7783 101.953 87.7254C102.014 87.6755 102.064 87.6124 102.098 87.5407C102.137 87.4613 102.16 87.3746 102.163 87.2862V87.2912Z" fill="#3A3A39"/>
<path d="M109.756 88.064C109.76 88.3359 109.723 88.6067 109.646 88.8677C109.583 89.0701 109.481 89.2584 109.345 89.4218C109.23 89.566 109.08 89.6793 108.909 89.7512C108.751 89.8181 108.58 89.8537 108.408 89.8561C108.208 89.861 108.009 89.82 107.827 89.7363C107.662 89.6586 107.521 89.5399 107.416 89.3918C107.299 89.2248 107.215 89.0366 107.17 88.8377C107.116 88.5969 107.089 88.3508 107.09 88.104C107.086 87.8337 107.124 87.5645 107.2 87.3053C107.263 87.1021 107.363 86.9124 107.496 86.7462C107.614 86.6059 107.763 86.4949 107.932 86.4218C108.106 86.3446 108.295 86.3047 108.486 86.3047C108.677 86.3047 108.865 86.3446 109.04 86.4218C109.205 86.5007 109.347 86.6191 109.456 86.7662C109.57 86.9322 109.652 87.1186 109.696 87.3153C109.747 87.5614 109.768 87.8129 109.756 88.064ZM109.255 88.099C109.257 87.9114 109.241 87.7241 109.205 87.5399C109.179 87.3887 109.13 87.2423 109.06 87.1056C108.995 86.9908 108.902 86.8945 108.789 86.8261C108.671 86.757 108.535 86.7224 108.398 86.7263C108.263 86.7221 108.131 86.7586 108.017 86.8311C107.908 86.9062 107.817 87.0052 107.752 87.1206C107.678 87.2568 107.626 87.4032 107.596 87.5549C107.564 87.7277 107.547 87.9032 107.546 88.079C107.544 88.2649 107.561 88.4506 107.596 88.6331C107.62 88.7856 107.671 88.9326 107.747 89.0674C107.807 89.1817 107.897 89.2781 108.007 89.3469C108.125 89.4171 108.261 89.4517 108.398 89.4467C108.534 89.4501 108.668 89.4137 108.784 89.3419C108.893 89.2667 108.984 89.1677 109.05 89.0524C109.123 88.918 109.176 88.7733 109.205 88.6231C109.243 88.4391 109.263 88.2519 109.265 88.064L109.255 88.099Z" fill="#3A3A39"/>
<path d="M56.9007 98.502H55.8984V98.2324H56.9007V98.502Z" fill="#3A3A39"/>
<path d="M61.3742 97.4779C61.2955 97.4375 61.2133 97.4041 61.1286 97.3781C61.0368 97.3557 60.9426 97.344 60.848 97.3431C60.7424 97.3403 60.6376 97.3626 60.5423 97.408C60.4543 97.4454 60.3769 97.5037 60.3168 97.5777C60.2525 97.6574 60.2048 97.749 60.1765 97.8473C60.1412 97.9587 60.1243 98.075 60.1263 98.1917C60.1255 98.311 60.1389 98.43 60.1664 98.5461C60.1885 98.6423 60.2313 98.7325 60.2917 98.8107C60.348 98.8845 60.4222 98.9428 60.5072 98.9804C60.6074 99.0205 60.715 99.0392 60.823 99.0353H60.8931H60.9633H61.0335C61.0533 99.0389 61.0737 99.0389 61.0936 99.0353V98.3514H60.6526V98.047H61.3842V99.1501L61.2439 99.205C61.193 99.223 61.1412 99.238 61.0886 99.25L60.9332 99.2749H60.7829C60.6458 99.2792 60.5094 99.2554 60.3819 99.205C60.2655 99.1614 60.1608 99.0913 60.0762 99.0004C59.9904 98.9012 59.9256 98.7857 59.8858 98.6609C59.8392 98.509 59.8172 98.3506 59.8207 98.1917C59.8184 98.0305 59.8438 97.8701 59.8958 97.7175C59.9399 97.5854 60.0097 97.4633 60.1013 97.3581C60.1926 97.2623 60.3038 97.1874 60.427 97.1385C60.5609 97.0852 60.7039 97.0581 60.848 97.0586C60.9407 97.0584 61.0331 97.0685 61.1236 97.0886C61.2108 97.1022 61.2953 97.1292 61.3742 97.1684V97.4779Z" fill="#3A3A39"/>
<path d="M65.6907 99.2667H65.36L65.0342 98.5778C65.0125 98.5328 64.9873 98.4894 64.9591 98.448C64.9376 98.4152 64.9104 98.3865 64.8789 98.3632C64.8506 98.3429 64.818 98.3292 64.7837 98.3233C64.7454 98.3181 64.7067 98.3181 64.6684 98.3233H64.5281V99.2817H64.2324V97.1253H64.8137C64.9224 97.1228 65.0307 97.138 65.1344 97.1702C65.217 97.1921 65.2939 97.2312 65.36 97.285C65.416 97.3337 65.459 97.3954 65.4853 97.4647C65.5144 97.5376 65.528 97.6158 65.5254 97.6943C65.526 97.7588 65.5158 97.8229 65.4953 97.884C65.4774 97.9437 65.4486 97.9996 65.4101 98.0487C65.3689 98.098 65.3198 98.1402 65.2648 98.1735C65.2039 98.2132 65.1358 98.2403 65.0643 98.2534C65.1238 98.2777 65.177 98.3152 65.2197 98.3632C65.268 98.4299 65.3115 98.5 65.35 98.5728L65.6907 99.2667ZM65.2197 97.7043C65.2232 97.6554 65.2151 97.6064 65.1959 97.5613C65.1768 97.5162 65.1471 97.4762 65.1094 97.4447C65.0194 97.3842 64.9121 97.3544 64.8037 97.3599H64.5281V98.0737H64.7636C64.8279 98.0737 64.8919 98.0653 64.954 98.0487C65.0053 98.0357 65.0531 98.0118 65.0944 97.9788C65.1327 97.9477 65.1635 97.9085 65.1846 97.864C65.2091 97.8144 65.2212 97.7596 65.2197 97.7043Z" fill="#3A3A39"/>
<path d="M69.7797 99.2658H68.5469V97.1094H69.7797V97.359H68.8425V98.0478H69.7396V98.2924H68.8425V99.0362H69.7797V99.2658Z" fill="#3A3A39"/>
<path d="M73.9899 99.2658H72.7871V97.1094H74.0149V97.359H73.0828V98.0478H73.9798V98.2924H73.0828V99.0362H74.0149L73.9899 99.2658Z" fill="#3A3A39"/>
<path d="M78.2996 99.1857C78.1264 99.2574 77.9409 99.2947 77.7533 99.2955C77.6234 99.3029 77.4934 99.2821 77.3723 99.2348C77.2512 99.1874 77.1419 99.1144 77.0517 99.021C76.8714 98.7914 76.7838 98.503 76.8061 98.2123C76.8036 98.0535 76.8255 97.8953 76.8713 97.7431C76.9115 97.6129 76.978 97.4923 77.0668 97.3887C77.1518 97.2934 77.2559 97.2169 77.3724 97.1641C77.4986 97.1084 77.6354 97.0811 77.7733 97.0842C77.8674 97.0846 77.9613 97.093 78.054 97.1092C78.1381 97.1282 78.2203 97.155 78.2996 97.189V97.4786C78.2236 97.436 78.1428 97.4025 78.059 97.3787C77.9688 97.3563 77.8763 97.3446 77.7834 97.3438C77.688 97.3417 77.5936 97.3622 77.5078 97.4037C77.4239 97.4386 77.3511 97.4955 77.2973 97.5684C77.2355 97.6471 77.1896 97.737 77.1619 97.833C77.1299 97.9483 77.1147 98.0677 77.1169 98.1874C77.1015 98.4101 77.1614 98.6316 77.2872 98.8163C77.3476 98.8892 77.4246 98.9467 77.5117 98.9841C77.5989 99.0214 77.6937 99.0375 77.7884 99.031C77.8778 99.0315 77.967 99.0214 78.054 99.001C78.138 98.9771 78.22 98.9471 78.2996 98.9112V99.1857Z" fill="#3A3A39"/>
<path d="M82.468 99.2658H81.2402V97.1094H82.468V97.359H81.5309V98.0478H82.433V98.2924H81.5309V99.0362H82.468V99.2658Z" fill="#3A3A39"/>
<path d="M86.5726 98.502H85.5703V98.2324H86.5726V98.502Z" fill="#3A3A39"/>
</g>
<defs>
<clipPath id="clip0_3397_9965">
<rect width="142" height="99" fill="white" transform="translate(0.240234 0.300781)"/>
</clipPath>
</defs>
</svg>
