<svg width="113" height="113" viewBox="0 0 113 113" fill="none" xmlns="http://www.w3.org/2000/svg">
<g clip-path="url(#clip0_3397_9851)">
<path d="M56.7728 0.305243C45.6977 0.200428 34.8402 3.3817 25.5729 9.44686C16.3056 15.512 9.04464 24.1887 4.70802 34.38C0.371408 44.5713 -0.846179 55.8196 1.20923 66.7029C3.26464 77.5861 8.50075 87.6155 16.2556 95.5232C24.0104 103.431 33.9357 108.862 44.7767 111.129C55.6177 113.397 66.8876 112.399 77.1617 108.262C87.4357 104.125 96.2525 97.0353 102.497 87.8881C108.742 78.741 112.135 67.9476 112.246 56.8726C112.374 42.0203 106.605 27.724 96.2052 17.1195C85.8057 6.51494 71.6247 0.46808 56.7728 0.305243ZM55.7352 109.773C45.1611 109.67 34.8551 106.434 26.1202 100.474C17.3853 94.5135 10.6139 86.0972 6.66209 76.2889C2.71028 66.4805 1.75559 55.7206 3.91872 45.3697C6.08185 35.0188 11.2657 25.5417 18.8147 18.1368C26.3637 10.7319 35.9389 5.73167 46.3296 3.76843C56.7203 1.8052 67.4598 2.9671 77.1902 7.10722C86.9206 11.2473 95.2048 18.1797 100.995 27.0278C106.786 35.876 109.823 46.2424 109.722 56.8165C109.572 70.9939 103.804 84.5327 93.6819 94.4611C83.5602 104.39 69.9128 109.896 55.7352 109.773Z" fill="#3A3A39"/>
<path d="M97.3337 56.6981C97.4096 48.639 95.0941 40.7385 90.6799 33.9954C86.2658 27.2523 79.9512 21.9696 72.5347 18.8153C65.1183 15.6609 56.933 14.7766 49.014 16.2741C41.0949 17.7716 33.7978 21.5838 28.0453 27.2284C22.2927 32.8731 18.3432 40.0968 16.6961 47.9861C15.0489 55.8754 15.7782 64.0759 18.7916 71.5508C21.8051 79.0256 26.9673 85.439 33.6256 89.98C40.284 94.521 48.1393 96.9856 56.1983 97.0622C67.0021 97.152 77.4004 92.9527 85.1121 85.3856C92.8237 77.8186 97.219 67.5016 97.3337 56.6981ZM56.2264 94.5592C48.6673 94.4909 41.2982 92.1825 35.0511 87.9259C28.804 83.6693 23.9596 77.6557 21.1304 70.6457C18.3012 63.6357 17.6145 55.9441 19.1569 48.5437C20.6994 41.1433 24.4018 34.3666 29.7959 29.0705C35.19 23.7745 42.0336 20.197 49.461 18.7906C56.8884 17.3842 64.5661 18.212 71.523 21.1693C78.48 24.1266 84.4037 29.0806 88.5449 35.4047C92.6862 41.7288 94.859 49.139 94.7886 56.6981C94.6739 66.8273 90.547 76.4976 83.3129 83.5885C76.0787 90.6794 66.3278 94.612 56.1983 94.5241L56.2264 94.5592Z" fill="#3A3A39"/>
<path d="M49.67 42.9724L67.3315 43.1406L67.4016 35.9751L41.004 35.7227L40.6113 76.837L49.3404 76.9212L49.4947 60.69L64.4077 60.8302L64.4779 53.6436L49.5648 53.4964L49.67 42.9724Z" fill="#3A3A39"/>
<path d="M72.8792 69.3669C72.4467 68.9276 71.9321 68.5774 71.3647 68.3362C70.7701 68.0792 70.13 67.9437 69.4822 67.9377C68.8344 67.9317 68.192 68.0553 67.5926 68.3012C67.0204 68.5331 66.4971 68.8709 66.0502 69.2968C65.6019 69.726 65.2484 70.2443 65.0125 70.8183C64.5219 72.0205 64.5219 73.3671 65.0125 74.5693C65.24 75.143 65.5837 75.6634 66.0221 76.0978C66.4617 76.5315 66.9806 76.8767 67.5506 77.1144C68.1488 77.3616 68.7894 77.4901 69.4366 77.493C70.0772 77.5032 70.7134 77.3865 71.3087 77.1495C71.8844 76.9245 72.409 76.5859 72.8511 76.1539C73.2864 75.7275 73.6341 75.2202 73.8748 74.6605C74.143 74.0679 74.2816 73.4249 74.2814 72.7744C74.2904 71.5032 73.7994 70.2794 72.9143 69.3669H72.8792Z" fill="#3A3A39"/>
<path d="M13.7721 45.5154L12.9027 45.3121L12.475 47.1911L10.9115 46.8265L11.227 45.4593L10.3576 45.263L10.0421 46.6302L8.48554 46.2726L8.91323 44.4006L8.05084 44.1973L7.38477 47.0859L13.106 48.4041L13.7721 45.5154Z" fill="#3A3A39"/>
<path d="M9.77415 43.1109C10.0541 43.1879 10.3496 43.1879 10.6295 43.1109C10.969 43.0058 11.2905 42.8498 11.5831 42.6481L12.5787 42.0031C12.696 41.9221 12.8292 41.8671 12.9695 41.8417C13.1097 41.8163 13.2537 41.8212 13.392 41.8559C13.5254 41.8883 13.644 41.9649 13.7285 42.0732C13.7905 42.1592 13.8322 42.2582 13.8504 42.3626C13.8686 42.4671 13.8629 42.5742 13.8337 42.6762C13.8133 42.7535 13.7765 42.8255 13.7256 42.8872C13.6748 42.949 13.6112 42.9989 13.5392 43.0338C13.2889 43.157 13.0021 43.1845 12.7329 43.1109L12.4875 44.0714C12.7686 44.1477 13.0628 44.162 13.3499 44.1135C13.608 44.0654 13.8494 43.9519 14.0511 43.784C14.3182 43.5488 14.5128 43.2423 14.612 42.9005C14.6723 42.7165 14.71 42.5258 14.7241 42.3326C14.7545 42.0497 14.6931 41.7645 14.5489 41.5193C14.3579 41.1815 14.0439 40.9303 13.6724 40.8181C13.4806 40.7775 13.2824 40.7775 13.0905 40.8181C12.9837 40.8337 12.8783 40.8571 12.775 40.8883C12.4911 40.9671 12.2213 41.0901 11.9757 41.2528C11.8059 41.3582 11.642 41.473 11.4849 41.5964C11.3311 41.7216 11.1642 41.8297 10.9871 41.9189C10.8527 41.9999 10.7035 42.0534 10.5482 42.0763C10.393 42.0992 10.2347 42.0909 10.0826 42.0521C9.9354 42.0129 9.80496 41.9268 9.71105 41.8068C9.65811 41.7393 9.62377 41.6591 9.61147 41.5742C9.59917 41.4893 9.60933 41.4027 9.64093 41.323C9.65828 41.25 9.69103 41.1816 9.73698 41.1224C9.78293 41.0631 9.84103 41.0144 9.90736 40.9794C10.0959 40.892 10.3089 40.8722 10.5103 40.9233L10.6786 39.9277C10.4484 39.8704 10.2077 39.8704 9.97748 39.9277C9.75277 39.9819 9.54686 40.0957 9.38152 40.2573C9.15055 40.4926 8.98186 40.7817 8.89071 41.0986C8.77081 41.4168 8.74884 41.7635 8.82761 42.0942C8.87878 42.3334 8.99382 42.5542 9.16049 42.7333C9.32715 42.9123 9.53923 43.0428 9.77415 43.1109Z" fill="#3A3A39"/>
<path d="M11.2765 37.4583L15.8409 39.4565L16.2545 38.4959L11.6972 36.5047L12.1389 35.4951L11.3186 35.1445L10.0215 38.1173L10.8348 38.4749L11.2765 37.4583Z" fill="#3A3A39"/>
<path d="M16.8499 35.3558L16.3652 36.2812L17.1478 36.6911L17.6325 35.7656L16.8499 35.3558Z" fill="#3A3A39"/>
<path d="M15.6378 30.7486L15.764 30.8327L16.3459 29.9914L16.1636 29.8652C16.0651 29.802 15.9814 29.7183 15.9182 29.6198C15.8379 29.5112 15.7946 29.3797 15.7946 29.2447C15.7946 29.1096 15.8379 28.9781 15.9182 28.8696C15.97 28.7934 16.0363 28.7282 16.1133 28.6777C16.1903 28.6272 16.2765 28.5923 16.3669 28.5751C16.4487 28.5604 16.5327 28.5628 16.6135 28.5821C16.6944 28.6014 16.7704 28.6372 16.8367 28.6873C17.0386 28.833 17.2021 29.0255 17.3135 29.2482C17.5049 29.6204 17.6531 30.0132 17.7552 30.4191C17.9024 30.9309 18.0006 31.3025 18.0637 31.5338L18.1899 31.9475C18.2249 32.0808 18.267 32.1999 18.3021 32.3121C18.333 32.4404 18.3777 32.565 18.4353 32.6837L19.1364 33.1394L21.0084 30.4121L20.3073 29.9213L19.1504 31.604C19.1504 31.604 19.1504 31.604 19.1084 31.5269C19.0663 31.4497 19.0172 31.2744 18.9541 31.0851L18.87 30.7977C18.7508 30.4471 18.6737 30.1877 18.6246 30.0124C18.5192 29.5823 18.3761 29.1623 18.1969 28.7574C18.0272 28.3893 17.7606 28.0742 17.4257 27.8459C17.2645 27.7357 17.0812 27.6622 16.8885 27.6307C16.6959 27.5992 16.4987 27.6105 16.3109 27.6636C15.8968 27.7632 15.5345 28.0131 15.2942 28.3647C15.0312 28.712 14.9041 29.1433 14.9366 29.5777C14.9579 29.813 15.032 30.0405 15.1534 30.2433C15.2748 30.446 15.4404 30.6187 15.6378 30.7486Z" fill="#3A3A39"/>
<path d="M20.6416 28.6394C20.7876 28.764 20.9602 28.8534 21.1462 28.9008C21.3322 28.9482 21.5265 28.9523 21.7144 28.9128C22.1329 28.8392 22.5111 28.6178 22.7801 28.2888C23.0637 27.9701 23.2209 27.5586 23.2218 27.1319C23.2295 26.9405 23.1931 26.7499 23.1153 26.5748C23.0374 26.3997 22.9204 26.2449 22.7731 26.1223L20.3331 24.054C20.1861 23.9312 20.0134 23.8429 19.8278 23.7956C19.6421 23.7483 19.4483 23.7431 19.2604 23.7805C18.8396 23.8479 18.4594 24.0706 18.1947 24.4046C17.9122 24.7239 17.7552 25.135 17.753 25.5614C17.7452 25.7529 17.7817 25.9435 17.8595 26.1186C17.9373 26.2937 18.0544 26.4485 18.2017 26.5711L20.6416 28.6394ZM18.8397 24.9935C18.94 24.8747 19.0791 24.7953 19.2323 24.7691C19.2998 24.7542 19.3699 24.7553 19.4369 24.7723C19.5038 24.7894 19.5659 24.8219 19.618 24.8673L22.0649 26.9356C22.1191 26.9806 22.1619 27.0377 22.1899 27.1022C22.2179 27.1668 22.2303 27.237 22.2262 27.3072C22.2273 27.4615 22.1725 27.6109 22.0719 27.7279C21.9733 27.8486 21.8334 27.9286 21.6793 27.9523C21.6118 27.9651 21.5422 27.963 21.4756 27.9461C21.409 27.9291 21.3469 27.8977 21.2937 27.8541L18.8467 25.7507C18.794 25.7061 18.7521 25.6502 18.7241 25.587C18.6962 25.5238 18.683 25.4552 18.6855 25.3861C18.6879 25.241 18.7427 25.1015 18.8397 24.9935Z" fill="#3A3A39"/>
<path d="M20.9082 22.601L21.3429 23.0357L21.9739 22.4117L25.1641 25.6018L25.9003 24.9007L21.7496 20.75L21.2377 21.2618C21.3025 21.491 21.3025 21.7337 21.2377 21.9629C21.1701 22.1949 21.0582 22.4116 20.9082 22.601Z" fill="#3A3A39"/>
<path d="M25.8518 23.052C25.9744 23.1993 26.1292 23.3164 26.3043 23.3942C26.4794 23.472 26.67 23.5085 26.8615 23.5007C27.2879 23.4985 27.699 23.3415 28.0184 23.059C28.3483 22.7938 28.5701 22.4174 28.6423 22.0003C28.6838 21.8131 28.6814 21.6188 28.6352 21.4326C28.5889 21.2465 28.5002 21.0736 28.3759 20.9276L26.3146 18.4806C26.191 18.3346 26.036 18.2183 25.8612 18.1406C25.6863 18.0629 25.4962 18.0258 25.305 18.0319C24.8788 18.0283 24.4664 18.1832 24.1481 18.4666C23.8146 18.7328 23.5901 19.1119 23.5171 19.5323C23.4776 19.7201 23.4817 19.9145 23.5291 20.1005C23.5765 20.2864 23.6659 20.4591 23.7905 20.605L25.8518 23.052ZM24.688 19.1537C24.8049 19.0531 24.9544 18.9983 25.1086 18.9995C25.1777 18.997 25.2463 19.0102 25.3095 19.0381C25.3727 19.0661 25.4287 19.108 25.4732 19.1607L27.5416 21.6147C27.5856 21.6676 27.6172 21.7297 27.6342 21.7964C27.6512 21.8631 27.6531 21.9328 27.6397 22.0003C27.6123 22.1548 27.5302 22.2942 27.4083 22.3929C27.2942 22.4936 27.1469 22.5486 26.9947 22.5472C26.9256 22.5502 26.8568 22.5373 26.7935 22.5093C26.7303 22.4813 26.6743 22.4391 26.6301 22.3859L24.5267 19.932C24.4813 19.8799 24.4488 19.8178 24.4317 19.7508C24.4147 19.6839 24.4136 19.6138 24.4285 19.5464C24.4611 19.3869 24.5541 19.2463 24.688 19.1537Z" fill="#3A3A39"/>
<path d="M32.4459 15.7431L29.834 17.3848L30.3078 18.1387L32.9198 16.497L32.4459 15.7431Z" fill="#3A3A39"/>
<path d="M37.7943 16.7493L36.7707 14.4777L38.0467 13.8957L37.6821 13.0894L36.3991 13.6714L35.74 12.213L37.4858 11.4137L37.1212 10.6074L34.4219 11.8274L36.8478 17.177L37.7943 16.7493Z" fill="#3A3A39"/>
<path d="M41.3887 15.2552L40.6875 13.1518L41.2554 12.9625L41.3466 12.9274L42.6437 14.8064L43.7094 14.4419L42.1459 12.2683C42.2704 12.1019 42.3521 11.9075 42.3839 11.7021C42.4157 11.4967 42.3966 11.2867 42.3282 11.0905L42.0547 10.2841C42.0055 10.1092 41.9211 9.9462 41.8065 9.80512C41.692 9.66405 41.5498 9.5479 41.3887 9.46382C40.9596 9.2881 40.4786 9.2881 40.0495 9.46382L38.5 10.0037L40.4071 15.5496L41.3887 15.2552ZM39.769 10.5997L40.365 10.3963C40.7366 10.2701 40.982 10.3613 41.0661 10.6838L41.3466 11.4971C41.3681 11.5633 41.3748 11.6333 41.3663 11.7024C41.3578 11.7714 41.3343 11.8377 41.2975 11.8968C41.2177 12.0274 41.0931 12.1246 40.9469 12.1702L40.351 12.3735L39.769 10.5997Z" fill="#3A3A39"/>
<path d="M44.2719 12.9123C44.3167 13.0986 44.403 13.2723 44.5244 13.4204C44.6458 13.5686 44.7992 13.6873 44.9731 13.7677C45.3519 13.9616 45.7896 14.0066 46.2 13.8939C46.618 13.8071 46.9896 13.5701 47.2447 13.2279C47.3643 13.078 47.4479 12.9028 47.4893 12.7157C47.5306 12.5285 47.5285 12.3343 47.4831 12.1481L46.782 9.03508C46.7368 8.84904 46.6503 8.67556 46.5289 8.52748C46.4075 8.37941 46.2544 8.26055 46.0808 8.1797C45.7003 7.98371 45.2605 7.93622 44.8469 8.04648C44.432 8.1361 44.0634 8.37267 43.8092 8.71257C43.6896 8.86239 43.606 9.0376 43.5647 9.22477C43.5233 9.41193 43.5254 9.60609 43.5708 9.79232L44.2719 12.9123ZM44.6085 9.15428C44.701 9.02958 44.8355 8.94244 44.9871 8.90888C45.1354 8.87114 45.2924 8.88858 45.4288 8.95797C45.4928 8.98503 45.5492 9.02727 45.5931 9.08102C45.6371 9.13477 45.6673 9.19842 45.6812 9.26647L46.4244 12.3865C46.4418 12.454 46.4433 12.5246 46.4287 12.5928C46.4141 12.6609 46.3838 12.7247 46.3403 12.7791C46.247 12.9017 46.1125 12.9864 45.9617 13.0175C45.8145 13.0609 45.6563 13.0458 45.52 12.9755C45.4565 12.9465 45.4003 12.9038 45.3555 12.8504C45.3106 12.7971 45.2782 12.7344 45.2605 12.667L44.5173 9.5399C44.503 9.47288 44.5038 9.40353 44.5195 9.33684C44.5353 9.27015 44.5657 9.2078 44.6085 9.15428Z" fill="#3A3A39"/>
<path d="M48.7017 11.9314C48.7297 12.1199 48.7988 12.2999 48.9042 12.4587C49.0097 12.6174 49.1488 12.751 49.3117 12.8499C49.6745 13.0787 50.1079 13.1684 50.5317 13.1023C50.9522 13.0541 51.3409 12.8548 51.6254 12.5414C51.7604 12.406 51.8622 12.2413 51.923 12.0601C51.9838 11.8789 52.002 11.6861 51.976 11.4967L51.7026 9.46342L50.0619 9.68077L50.1811 10.5642L50.749 10.4871L50.9033 11.6299C50.914 11.6985 50.9081 11.7687 50.8862 11.8346C50.8642 11.9004 50.8268 11.9601 50.7771 12.0085C50.6725 12.1219 50.5307 12.194 50.3774 12.2118C50.224 12.2363 50.0669 12.2039 49.9357 12.1207C49.8769 12.0841 49.8269 12.0349 49.7893 11.9768C49.7518 11.9186 49.7275 11.8528 49.7184 11.7842L49.2977 8.60102C49.2882 8.53302 49.294 8.46377 49.3146 8.39828C49.3352 8.3328 49.3702 8.27272 49.4169 8.2224C49.5256 8.11429 49.6667 8.04481 49.8186 8.02455C49.9706 8.00428 50.125 8.03439 50.2582 8.11024C50.3177 8.14682 50.3685 8.19583 50.4073 8.25392C50.446 8.31201 50.4717 8.37781 50.4826 8.44677L50.5737 9.1479L51.6394 9.00769L51.5553 8.3416C51.5278 8.15295 51.4589 7.97273 51.3534 7.81391C51.2479 7.6551 51.1086 7.52164 50.9453 7.42312C50.5821 7.20362 50.1549 7.11457 49.7342 7.17066C49.3136 7.22675 48.9246 7.42462 48.6316 7.73162C48.4967 7.867 48.3948 8.03171 48.334 8.21292C48.2732 8.39413 48.2551 8.58693 48.281 8.7763L48.7017 11.9314Z" fill="#3A3A39"/>
<path d="M57.7896 12.4519C58.0131 12.3448 58.2042 12.1802 58.3435 11.9751C58.5176 11.6905 58.6075 11.3623 58.6029 11.0286C58.606 10.8922 58.5943 10.7558 58.5678 10.622C58.5317 10.4141 58.4529 10.216 58.3364 10.04C58.196 9.82995 57.9921 9.67025 57.7545 9.58428C57.8912 9.53765 58.0158 9.461 58.1191 9.35993C58.2456 9.23911 58.3453 9.09302 58.4118 8.93116C58.4782 8.7693 58.5099 8.5953 58.5047 8.42042C58.5101 8.20874 58.4793 7.99769 58.4135 7.7964C58.3073 7.49771 58.0953 7.24829 57.8176 7.09527C57.4774 6.90316 57.0935 6.80174 56.7028 6.80078H55.1463L55.0762 12.6693H57.0043C57.2802 12.6646 57.5505 12.5898 57.7896 12.4519ZM56.2611 7.6702H56.6677C56.7614 7.664 56.8553 7.67787 56.9432 7.71092C57.0311 7.74396 57.1109 7.7954 57.1773 7.86179C57.2437 7.92817 57.2951 8.00797 57.3281 8.09585C57.3612 8.18372 57.3751 8.27765 57.3689 8.37133C57.3692 8.49789 57.3479 8.62358 57.3058 8.74293C57.2524 8.87031 57.1596 8.9772 57.0409 9.04788C56.9223 9.11856 56.7841 9.14929 56.6467 9.13556H56.212L56.2611 7.6702ZM56.212 11.7648V10.012H56.6677C56.7728 10.0059 56.8781 10.0215 56.977 10.0577C57.0758 10.0938 57.1663 10.1499 57.2427 10.2223C57.4005 10.4205 57.4781 10.6707 57.46 10.9234C57.4584 11.0488 57.4321 11.1727 57.3829 11.288C57.3252 11.4256 57.2275 11.5426 57.1025 11.6239C56.9775 11.7051 56.8309 11.7469 56.6817 11.7438L56.212 11.7648Z" fill="#3A3A39"/>
<path d="M60.9923 11.5396L62.072 11.6658L62.1561 13.0681L63.2429 13.1943L62.7731 7.23469L61.3709 7.06641L59.5059 12.7035L60.5856 12.8297L60.9923 11.5396ZM61.9037 8.44764L62.0159 10.7894L61.2517 10.6983L61.9037 8.44764Z" fill="#3A3A39"/>
<path d="M67.2969 13.1229L65.4249 12.6952L68.2083 9.13349L68.4117 8.26408L65.4459 7.58398L65.2496 8.45339L67.1216 8.87407L64.3311 12.4358L64.1348 13.2982L67.1006 13.9783L67.2969 13.1229Z" fill="#3A3A39"/>
<path d="M69.0479 14.5198L69.6999 13.3138L70.7376 13.6504L70.5553 15.0035L71.6 15.3401L72.3011 9.4015L70.9409 8.9668L68.0312 14.1902L69.0479 14.5198ZM71.1934 10.4602L70.8498 12.7809L70.1487 12.5426L71.1934 10.4602Z" fill="#3A3A39"/>
<path d="M74.4397 14.1049L74.9936 14.3503L75.0777 14.3854L74.7552 16.664L75.7858 17.1198L76.1224 14.4625C76.3257 14.4241 76.5166 14.337 76.679 14.2088C76.8414 14.0807 76.9703 13.9151 77.0549 13.7263L77.3985 12.9481C77.4822 12.7872 77.5323 12.611 77.5455 12.4302C77.5588 12.2493 77.535 12.0677 77.4756 11.8964C77.2726 11.4784 76.912 11.1581 76.473 11.0059L74.9725 10.3398L72.5957 15.7035L73.5492 16.1242L74.4397 14.1049ZM75.5545 11.5879L76.1294 11.8403C76.494 12.0015 76.6062 12.2399 76.4659 12.5414L76.1224 13.3267C76.0939 13.3904 76.0513 13.4468 75.9979 13.4917C75.9444 13.5367 75.8816 13.5689 75.8139 13.5861C75.6675 13.6302 75.5098 13.6177 75.3722 13.551L74.7972 13.2986L75.5545 11.5879Z" fill="#3A3A39"/>
<path d="M80.172 15.7025L79.6992 16.457L82.3134 18.095L82.7862 17.3405L80.172 15.7025Z" fill="#3A3A39"/>
<path d="M84.7144 23.0999C84.8609 23.2281 85.0235 23.3366 85.1982 23.4225C85.4476 23.5541 85.7324 23.6032 86.0115 23.5627C86.3944 23.5128 86.7421 23.3137 86.9791 23.0088C87.0925 22.8484 87.1735 22.6674 87.2175 22.476C87.2448 22.3749 87.2635 22.2717 87.2735 22.1675C87.3059 21.8729 87.2941 21.5751 87.2385 21.284C87.2041 21.0879 87.1597 20.8936 87.1053 20.7021C87.0525 20.5114 87.015 20.3168 86.9931 20.1201C86.947 19.8064 87.025 19.487 87.2104 19.2297C87.305 19.1089 87.4349 19.0207 87.582 18.9773C87.664 18.9548 87.7503 18.954 87.8327 18.9749C87.915 18.9958 87.9905 19.0377 88.0518 19.0965C88.1143 19.1396 88.1668 19.1958 88.2055 19.2612C88.2442 19.3266 88.2683 19.3995 88.2761 19.4751C88.2843 19.6832 88.2226 19.8881 88.1009 20.057L88.9633 20.5829C89.1009 20.3844 89.1898 20.1562 89.2227 19.9168C89.26 19.6798 89.2309 19.4371 89.1385 19.2157C89.006 18.9137 88.8042 18.6471 88.5496 18.4374C88.2954 18.2098 87.9817 18.0591 87.6451 18.0027C87.4069 17.9733 87.1651 18.0056 86.9429 18.0965C86.7207 18.1873 86.5255 18.3337 86.3761 18.5216C86.1874 18.7422 86.0657 19.0123 86.0255 19.2998C85.9949 19.6539 86.0162 20.0106 86.0886 20.3585C86.1868 20.8774 86.2639 21.263 86.313 21.5224C86.3455 21.6609 86.3473 21.8049 86.3182 21.9442C86.2892 22.0835 86.2299 22.2148 86.1447 22.3287C86.0664 22.443 85.9493 22.5252 85.8152 22.5601C85.7112 22.5854 85.6028 22.5865 85.4982 22.5634C85.3937 22.5404 85.2959 22.4936 85.2122 22.4269C85.1486 22.379 85.0961 22.3178 85.0586 22.2476C85.021 22.1773 84.9993 22.0997 84.9949 22.0202C84.9771 21.7437 85.0593 21.4701 85.2262 21.249L84.434 20.653C84.2577 20.8857 84.1333 21.1534 84.0694 21.4383C84.0139 21.6964 84.026 21.9644 84.1044 22.2165C84.2164 22.5646 84.4286 22.8719 84.7144 23.0999Z" fill="#3A3A39"/>
<path d="M87.3627 25.4488L88.5055 24.6916L89.2627 25.4768L88.4635 26.5846L89.2207 27.3769L92.6352 22.469L91.6396 21.4453L86.6055 24.6775L87.3627 25.4488ZM91.1698 22.8826L89.7676 24.7687L89.2277 24.2078L91.1698 22.8826Z" fill="#3A3A39"/>
<path d="M90.5524 29.0042L92.2983 27.644L92.6699 28.1208C92.6846 28.1471 92.7035 28.1708 92.726 28.1909L91.3728 30.0489L92.0739 30.9394L93.6234 28.7518C93.8205 28.8149 94.0299 28.8293 94.2338 28.7939C94.4377 28.7585 94.63 28.6743 94.7943 28.5485L95.4954 28.0226C95.6442 27.9198 95.7706 27.7879 95.867 27.6348C95.9634 27.4818 96.0278 27.3108 96.0563 27.1322C96.0672 26.9016 96.0319 26.6712 95.9524 26.4544C95.8729 26.2377 95.7509 26.0391 95.5936 25.8702L94.5279 24.5801L89.9004 28.1839L90.5524 29.0042ZM94.4718 25.9543L94.8574 26.4521C95.0958 26.7606 95.0888 27.02 94.8153 27.2304L94.1142 27.7562C94.0606 27.8013 93.9968 27.8325 93.9284 27.8472C93.8599 27.8619 93.7889 27.8595 93.7216 27.8403C93.5715 27.8121 93.4382 27.7266 93.35 27.602L92.9573 27.1042L94.4718 25.9543Z" fill="#3A3A39"/>
<path d="M93.2449 32.6861L96.393 30.779L93.7638 33.5485L94.1985 34.2637L97.8233 33.1278L94.6682 35.0419L95.2011 35.9253L100.228 32.8894L99.485 31.6625L95.3904 33.0507L98.4964 30.0358L97.7252 28.7598L92.7051 31.7957L93.2449 32.6861Z" fill="#3A3A39"/>
<path d="M100.958 34.3869L95.6797 36.9512L96.1331 37.8845L101.412 35.3203L100.958 34.3869Z" fill="#3A3A39"/>
<path d="M97.7316 41.7141L98.559 41.3846L97.8438 39.6037L99.3302 39.0077L99.8491 40.3119L100.676 39.9823L100.158 38.6782L101.644 38.0823L102.359 39.8701L103.179 39.5336L102.086 36.7852L96.6309 38.9657L97.7316 41.7141Z" fill="#3A3A39"/>
<path d="M98.3363 43.5819L101.947 42.5232L98.743 44.9561L99.0585 46.0289L104.689 44.3812L104.401 43.3786L100.615 44.4864L104.008 42.0535L103.679 40.9316L98.0488 42.5793L98.3363 43.5819Z" fill="#3A3A39"/>
<path d="M104.38 47.2207L99.4863 48.1251L99.6756 49.1488L104.57 48.2443L104.773 49.3241L105.649 49.1628L105.053 45.9727L104.184 46.1339L104.38 47.2207Z" fill="#3A3A39"/>
<path d="M104.526 50.7666L101.336 51.0401C101.146 51.0575 100.963 51.1169 100.799 51.2139C100.635 51.311 100.495 51.4431 100.389 51.601C100.142 51.9494 100.03 52.3753 100.073 52.7999C100.1 53.2261 100.282 53.6277 100.585 53.9287C100.715 54.07 100.875 54.1796 101.054 54.2489C101.233 54.3182 101.425 54.3454 101.616 54.3284L104.806 54.0479C104.997 54.0351 105.182 53.9777 105.346 53.8803C105.511 53.7828 105.65 53.6481 105.753 53.487C105.992 53.1356 106.104 52.7122 106.068 52.2883C106.032 51.8643 105.852 51.4656 105.556 51.1593C105.425 51.0201 105.265 50.9124 105.086 50.8444C104.908 50.7764 104.716 50.7498 104.526 50.7666ZM105.08 52.7649C105.04 52.8213 104.989 52.8686 104.93 52.9036C104.87 52.9387 104.804 52.9607 104.736 52.9682L101.532 53.2487C101.463 53.2535 101.394 53.2427 101.329 53.2172C101.265 53.1917 101.207 53.1522 101.16 53.1014C101.059 52.9878 100.997 52.8443 100.984 52.6925C100.972 52.5407 101.009 52.3889 101.09 52.26C101.127 52.2008 101.177 52.1513 101.237 52.1158C101.297 52.0804 101.364 52.0601 101.434 52.0567L104.631 51.7763C104.7 51.7693 104.77 51.779 104.835 51.8046C104.899 51.8303 104.957 51.871 105.002 51.9235C105.11 52.0331 105.174 52.1773 105.185 52.3302C105.202 52.4829 105.165 52.6369 105.08 52.7649Z" fill="#3A3A39"/>
<path d="M104.59 60.0152C104.34 59.9998 104.098 59.9201 103.889 59.7838C103.53 59.5628 103.196 59.3043 102.893 59.0126C102.507 58.648 102.227 58.3885 102.059 58.2203L101.743 57.9258L101.456 57.6734C101.36 57.5834 101.256 57.5013 101.147 57.428L100.334 57.3789L100.145 60.6883L101.007 60.7374L101.126 58.697C101.126 58.697 101.161 58.697 101.21 58.7461C101.259 58.7952 101.414 58.9074 101.561 59.0406L101.792 59.2439L102.402 59.7838C102.716 60.0971 103.056 60.3832 103.419 60.6392C103.757 60.8641 104.149 60.9947 104.555 61.0178C104.748 61.0286 104.941 60.9965 105.121 60.9238C105.3 60.8511 105.461 60.7395 105.592 60.5971C105.9 60.2972 106.081 59.8906 106.097 59.4613C106.144 59.0287 106.029 58.5941 105.775 58.2413C105.628 58.0518 105.44 57.8987 105.225 57.7941C105.01 57.6895 104.773 57.6362 104.534 57.6384H104.379L104.323 58.662H104.548C104.662 58.6647 104.775 58.6935 104.877 58.7461C105.004 58.7947 105.11 58.8834 105.181 58.9987C105.252 59.114 105.283 59.2495 105.27 59.3842C105.268 59.476 105.247 59.5664 105.209 59.6498C105.17 59.7331 105.114 59.8074 105.045 59.868C104.983 59.9216 104.911 59.9623 104.832 59.9876C104.754 60.0129 104.672 60.0222 104.59 60.0152Z" fill="#3A3A39"/>
<path d="M105.248 63.1848C105.147 62.9504 105.1 62.6966 105.108 62.4416L104.498 62.3574L104.344 63.1848L99.8707 62.5537L99.7305 63.5914L105.543 64.3977L105.641 63.6966C105.469 63.5622 105.334 63.386 105.248 63.1848Z" fill="#3A3A39"/>
<path d="M101.611 67.1764L100.812 70.1562L101.673 70.3867L102.471 67.4068L101.611 67.1764Z" fill="#3A3A39"/>
<path d="M101.594 75.2633L97.016 73.3281L96.6094 74.2887L101.195 76.2238L100.76 77.2404L101.58 77.584L102.849 74.5902L102.029 74.2466L101.594 75.2633Z" fill="#3A3A39"/>
<path d="M95.6942 76.2466L95.2207 77.1699L100.443 79.8478L100.916 78.9245L95.6942 76.2466Z" fill="#3A3A39"/>
<path d="M98.5523 80.5733L95.8179 78.8976C95.6561 78.7968 95.4732 78.7349 95.2834 78.7166C95.0936 78.6984 94.9022 78.7243 94.7242 78.7925C94.3189 78.9284 93.9773 79.2076 93.7636 79.5777C93.5325 79.9318 93.4402 80.3587 93.5042 80.7767C93.5244 80.9669 93.5879 81.1498 93.6901 81.3115C93.7922 81.4732 93.9301 81.6092 94.0931 81.7092L95.846 82.7819L96.7083 81.3797L95.9511 80.9099L95.6497 81.4077L94.6681 80.7977C94.6098 80.7622 94.5601 80.7143 94.5225 80.6573C94.4849 80.6003 94.4604 80.5357 94.4507 80.4682C94.4242 80.3119 94.4514 80.1513 94.5278 80.0124C94.6042 79.8773 94.7298 79.7768 94.8784 79.732C94.9396 79.7022 95.0067 79.6868 95.0747 79.6868C95.1427 79.6868 95.2099 79.7022 95.271 79.732L98.0054 81.4147C98.0668 81.4483 98.1188 81.4967 98.1568 81.5555C98.1947 81.6142 98.2174 81.6815 98.2228 81.7512C98.2511 81.9025 98.2183 82.0588 98.1317 82.1859C98.0539 82.3214 97.9292 82.4237 97.7811 82.4734C97.7156 82.4969 97.6457 82.5053 97.5765 82.498C97.5073 82.4907 97.4406 82.468 97.3815 82.4314L96.7995 82.0738L96.2316 82.9923L96.8065 83.3428C96.9686 83.4428 97.1511 83.5048 97.3405 83.5243C97.53 83.5437 97.7213 83.52 97.9003 83.455C98.3055 83.3191 98.6471 83.0398 98.8608 82.6697C99.0955 82.3145 99.1881 81.8841 99.1202 81.4638C99.0964 81.2829 99.0332 81.1094 98.9351 80.9555C98.837 80.8017 98.7063 80.6712 98.5523 80.5733Z" fill="#3A3A39"/>
<path d="M91.7242 82.7442L93.4771 84.0903L93.1125 84.5671C93.0961 84.5944 93.0773 84.6202 93.0564 84.6442L90.9179 83.8029L90.2168 84.6933L92.7198 85.6399C92.7089 85.8467 92.7486 86.0531 92.8353 86.2412C92.922 86.4294 93.0533 86.5935 93.2176 86.7196L93.9188 87.2384C94.0562 87.3579 94.2168 87.4476 94.3906 87.5019C94.5643 87.5562 94.7475 87.5739 94.9284 87.5539C95.3811 87.4529 95.7763 87.1786 96.0292 86.7897L97.0248 85.4856L92.3623 81.9238L91.7242 82.7442ZM93.7926 85.121L94.1782 84.6232L95.6646 85.759L95.286 86.2638C95.0476 86.5723 94.7882 86.6285 94.5147 86.4251L93.8136 85.9063C93.7596 85.8635 93.7159 85.8092 93.6855 85.7473C93.6552 85.6855 93.6391 85.6176 93.6383 85.5487C93.6308 85.3925 93.6835 85.2394 93.7856 85.121H93.7926Z" fill="#3A3A39"/>
<path d="M87.4883 87.6899L88.1333 88.2999L89.4514 86.8977L90.6223 87.9844L89.6618 89.0151L90.3138 89.618L91.2674 88.5944L92.4383 89.6882L91.1272 91.0904L91.7792 91.7004L93.7985 89.5339L89.5075 85.5234L87.4883 87.6899Z" fill="#3A3A39"/>
<path d="M86.8992 91.6546L84.5078 93.6035L85.0704 94.2938L87.4617 92.3448L86.8992 91.6546Z" fill="#3A3A39"/>
<path d="M78.8858 94.3647C78.6516 94.5091 78.4565 94.709 78.3178 94.9467C78.1869 95.1577 78.1143 95.3996 78.1075 95.6478C78.1044 95.981 78.1995 96.3078 78.3809 96.5874C78.4518 96.7049 78.534 96.8153 78.6263 96.9169C78.7638 97.0749 78.9336 97.2016 79.1241 97.2885C79.3549 97.3926 79.613 97.4197 79.8603 97.3656C79.7712 97.4796 79.7067 97.6109 79.671 97.7512C79.6267 97.9207 79.6188 98.0978 79.6478 98.2706C79.6768 98.4434 79.7421 98.6081 79.8393 98.7538C79.945 98.936 80.0828 99.0975 80.246 99.2306C80.4968 99.4407 80.8164 99.5506 81.1434 99.5391C81.5308 99.5224 81.9074 99.4065 82.2372 99.2026L83.5693 98.3962L80.5404 93.3691L78.8858 94.3647ZM81.3678 96.9239L82.146 98.207L81.7744 98.4313C81.6229 98.5353 81.4366 98.5756 81.2556 98.5435C81.1554 98.5209 81.0613 98.4765 80.9802 98.4135C80.899 98.3505 80.8326 98.2704 80.7858 98.1789C80.7196 98.0715 80.6744 97.9526 80.6526 97.8283C80.6229 97.6899 80.6406 97.5455 80.7029 97.4183C80.7652 97.2911 80.8685 97.1886 80.9962 97.1272L81.3678 96.9239ZM80.5615 96.4261C80.474 96.488 80.3746 96.5311 80.2696 96.5529C80.1647 96.5746 80.0564 96.5744 79.9515 96.5523C79.7089 96.4613 79.5106 96.2806 79.3976 96.0475C79.3301 95.9414 79.2869 95.8217 79.2714 95.6969C79.2406 95.5438 79.2617 95.3847 79.3316 95.245C79.4015 95.1053 79.516 94.9929 79.657 94.9257L80.0286 94.7013L80.9331 96.2017L80.5615 96.4261Z" fill="#3A3A39"/>
<path d="M76.2991 96.2077C75.8877 96.1157 75.4573 96.1638 75.0763 96.3441C74.6953 96.5245 74.3854 96.8268 74.1957 97.2033C74.1094 97.374 74.0645 97.5625 74.0645 97.7537C74.0645 97.9449 74.1094 98.1334 74.1957 98.3041L76.1308 102.413L77.1124 101.95L75.1772 97.8554C75.1479 97.7928 75.1326 97.7246 75.1326 97.6555C75.1326 97.5864 75.1479 97.5182 75.1772 97.4557C75.2427 97.3161 75.355 97.2039 75.4946 97.1386C75.6343 97.0733 75.7924 97.0589 75.9415 97.0981C76.0088 97.1113 76.072 97.1404 76.1257 97.1832C76.1794 97.2259 76.222 97.2808 76.25 97.3435L78.1851 101.438L79.1036 101.003L77.1685 96.9018C77.0866 96.7271 76.9657 96.5735 76.8149 96.4531C76.6641 96.3327 76.4876 96.2488 76.2991 96.2077Z" fill="#3A3A39"/>
<path d="M69.75 98.528L70.0445 99.3624L71.8604 98.7173L72.4003 100.225L71.0751 100.695L71.3766 101.536L72.7018 101.059L73.2416 102.567L71.4327 103.219L71.7342 104.053L74.5177 103.05L72.5335 97.5254L69.75 98.528Z" fill="#3A3A39"/>
<path d="M67.8586 99.0669L68.7841 102.713L66.4704 99.4174L65.3906 99.6979L66.835 105.384L67.8446 105.132L66.87 101.303L69.1838 104.788L70.3126 104.501L68.8682 98.8145L67.8586 99.0669Z" fill="#3A3A39"/>
<path d="M64.492 101.228C64.4657 101.039 64.3964 100.858 64.2894 100.7C64.1825 100.542 64.0407 100.411 63.875 100.316C63.515 100.087 63.0828 99.9999 62.662 100.071C62.2378 100.124 61.8469 100.328 61.5613 100.646C61.4281 100.785 61.3286 100.953 61.2702 101.136C61.2119 101.32 61.1963 101.514 61.2247 101.705L61.6875 104.874C61.7148 105.062 61.7845 105.242 61.8914 105.4C61.9982 105.558 62.1395 105.69 62.3045 105.785C62.6688 106.01 63.1023 106.094 63.5244 106.024C63.9469 105.972 64.3359 105.767 64.6182 105.449C64.7508 105.311 64.85 105.144 64.9084 104.962C64.9667 104.78 64.9826 104.586 64.9548 104.397L64.492 101.228ZM63.7909 104.944C63.6863 105.057 63.5445 105.129 63.3912 105.147C63.2387 105.168 63.0835 105.139 62.9495 105.063C62.8902 105.029 62.8397 104.981 62.802 104.924C62.7643 104.867 62.7403 104.802 62.7322 104.734L62.2694 101.557C62.2578 101.488 62.2625 101.417 62.2832 101.35C62.3039 101.283 62.34 101.222 62.3886 101.172C62.4895 101.057 62.6295 100.985 62.7812 100.968C62.9337 100.947 63.089 100.977 63.223 101.053C63.2832 101.086 63.3348 101.134 63.3737 101.191C63.4127 101.248 63.4378 101.314 63.4473 101.382L63.9101 104.558C63.9244 104.625 63.9243 104.694 63.9098 104.76C63.8953 104.827 63.8667 104.889 63.8259 104.944H63.7909Z" fill="#3A3A39"/>
<path d="M59.0304 103.422L58.0769 102.721C57.9608 102.641 57.8632 102.537 57.7906 102.416C57.7181 102.295 57.6722 102.16 57.6562 102.02C57.6417 101.883 57.6712 101.746 57.7403 101.627C57.7998 101.538 57.8787 101.465 57.9711 101.411C58.0634 101.358 58.1667 101.326 58.2732 101.319C58.3519 101.311 58.4314 101.32 58.5063 101.346C58.5812 101.371 58.6499 101.412 58.7079 101.466C58.9042 101.65 59.0285 101.899 59.0585 102.167L60.0471 102.062C60.0194 101.773 59.931 101.493 59.7876 101.241C59.6528 101.011 59.4593 100.819 59.2267 100.687C58.9128 100.521 58.5574 100.447 58.2031 100.477C58.0083 100.483 57.8151 100.514 57.6281 100.568C57.3544 100.643 57.1099 100.8 56.927 101.017C56.6821 101.313 56.5636 101.693 56.5975 102.076C56.6187 102.27 56.6783 102.458 56.7728 102.63C56.8218 102.714 56.8779 102.805 56.948 102.903C57.1254 103.138 57.3355 103.345 57.5721 103.52C57.7289 103.644 57.8927 103.759 58.0628 103.864C58.2317 103.966 58.3913 104.084 58.5396 104.214C58.6633 104.311 58.7662 104.431 58.8421 104.569C58.918 104.706 58.9654 104.857 58.9813 105.013C58.9983 105.168 58.9638 105.323 58.8832 105.455C58.8376 105.527 58.7744 105.586 58.6995 105.627C58.6246 105.667 58.5406 105.688 58.4555 105.687C58.3041 105.701 58.1532 105.656 58.0348 105.56C57.889 105.409 57.7956 105.215 57.7684 105.006L56.7798 105.203C56.8106 105.453 56.8995 105.694 57.0392 105.904C57.1709 106.092 57.3498 106.242 57.558 106.339C57.86 106.471 58.1895 106.529 58.5186 106.507C58.8598 106.506 59.1934 106.406 59.4791 106.219C59.6766 106.082 59.8339 105.895 59.9349 105.677C60.036 105.459 60.0771 105.218 60.054 104.978C60.0473 104.687 59.9546 104.404 59.7876 104.165C59.5763 103.879 59.3207 103.628 59.0304 103.422Z" fill="#3A3A39"/>
<path d="M52.1389 101.747L51.0591 101.628L50.961 100.225L49.8672 100.113L50.4001 106.066L51.8023 106.22L53.5902 100.513L52.5105 100.394L52.1389 101.747ZM51.2625 104.846L51.1222 102.504L51.8865 102.581L51.2625 104.846Z" fill="#3A3A39"/>
<path d="M47.7613 99.7441L46.6777 105.512L47.6976 105.703L48.7811 99.9357L47.7613 99.7441Z" fill="#3A3A39"/>
<path d="M45.0288 101.404L44.4539 101.249H44.3627L44.3207 98.9496L43.2339 98.6621L43.318 101.333C43.1227 101.405 42.9471 101.521 42.8057 101.674C42.6642 101.826 42.5611 102.01 42.5047 102.21L42.2874 103.03C42.2297 103.202 42.208 103.385 42.2237 103.565C42.2394 103.746 42.2921 103.922 42.3785 104.082C42.5104 104.268 42.6782 104.426 42.8721 104.547C43.0659 104.667 43.2819 104.747 43.5073 104.783L45.0919 105.211L46.6063 99.5455L45.6037 99.2721L45.0288 101.404ZM44.3277 104.061L43.7177 103.9C43.3391 103.794 43.1848 103.577 43.276 103.255L43.5003 102.427C43.517 102.359 43.5491 102.296 43.5941 102.243C43.639 102.189 43.6957 102.147 43.7597 102.119C43.9022 102.066 44.059 102.066 44.2015 102.119L44.8114 102.28L44.3277 104.061Z" fill="#3A3A39"/>
<path d="M39.1122 98.0804L40.9141 98.7535L40.3462 100.254L39.0351 99.7561L38.7196 100.59L40.0377 101.088L39.4698 102.582L37.6749 101.909L37.3594 102.743L40.1359 103.781L42.1972 98.2838L39.4277 97.2461L39.1122 98.0804Z" fill="#3A3A39"/>
<path d="M37.8849 98.3266C37.9967 98.058 38.0517 97.7691 38.0462 97.4782C38.0348 97.2146 37.955 96.9585 37.8148 96.735C37.6255 96.4284 37.3499 96.1845 37.0225 96.0339C36.8476 95.9453 36.6612 95.8816 36.4686 95.8446C36.1961 95.7764 35.909 95.796 35.6483 95.9007C35.2901 96.0452 35.003 96.3248 34.849 96.679C34.7739 96.8611 34.7381 97.057 34.7438 97.2539C34.7378 97.359 34.7378 97.4643 34.7438 97.5694C34.7832 97.8614 34.8684 98.1453 34.9962 98.4108C35.0749 98.5945 35.1662 98.7726 35.2697 98.9436C35.3665 99.1174 35.4508 99.2978 35.5221 99.4835C35.6388 99.7785 35.6388 100.107 35.5221 100.402C35.4585 100.542 35.3533 100.66 35.2206 100.739C35.1466 100.78 35.0634 100.801 34.9787 100.801C34.894 100.801 34.8108 100.78 34.7368 100.739C34.6672 100.711 34.6039 100.669 34.5509 100.616C34.4979 100.563 34.4562 100.5 34.4283 100.43C34.3594 100.23 34.3594 100.013 34.4283 99.813L33.4678 99.5186C33.3809 99.7414 33.3496 99.982 33.3766 100.22C33.4011 100.448 33.4858 100.666 33.622 100.851C33.8206 101.116 34.0836 101.326 34.3862 101.461C34.6883 101.618 35.0281 101.689 35.3678 101.664C35.6062 101.633 35.8327 101.541 36.0255 101.398C36.2182 101.254 36.3708 101.063 36.4686 100.844C36.5929 100.582 36.6461 100.291 36.6229 100.002C36.5632 99.6537 36.4522 99.3158 36.2933 98.9997L35.7885 97.92C35.7264 97.793 35.6911 97.6546 35.6851 97.5135C35.6791 97.3723 35.7024 97.2314 35.7535 97.0996C35.8098 96.9727 35.9025 96.8653 36.0199 96.7911C36.1149 96.7408 36.2208 96.7145 36.3284 96.7145C36.4359 96.7145 36.5418 96.7408 36.6369 96.7911C36.7098 96.8224 36.7756 96.8684 36.8299 96.9264C36.8842 96.9843 36.9259 97.0528 36.9524 97.1277C37.035 97.3928 37.0201 97.6789 36.9103 97.934L37.8849 98.3266Z" fill="#3A3A39"/>
<path d="M28.9939 94.2435L28.4941 94.9805L31.0475 96.7118L31.5472 95.9748L28.9939 94.2435Z" fill="#3A3A39"/>
<path d="M26.169 90.4508L25.3627 89.7497L26.0639 88.5858L25.2505 87.8496L22.1445 92.9539L23.2032 93.9214L28.027 90.4158L27.2277 89.7146L26.169 90.4508ZM23.6169 92.428L24.9 90.4578L25.4679 90.9767L23.6169 92.428Z" fill="#3A3A39"/>
<path d="M23.8532 86.2659L22.1915 87.7242L21.7919 87.2755L21.7358 87.2054L22.9698 85.2703L22.2266 84.4219L20.8243 86.6936C20.6231 86.6452 20.4132 86.6453 20.212 86.6941C20.0108 86.7429 19.8242 86.8388 19.6674 86.974L19.0294 87.5419C18.8854 87.6531 18.7657 87.7925 18.6777 87.9517C18.5897 88.1109 18.5352 88.2864 18.5176 88.4674C18.5316 88.931 18.7252 89.3709 19.0574 89.6944L20.1442 90.9214L24.5473 87.0441L23.8532 86.2659ZM20.1302 89.5542L19.7095 89.0844C19.4501 88.7829 19.4431 88.5235 19.7095 88.2992L20.3475 87.7312C20.3998 87.6856 20.4614 87.6519 20.528 87.6326C20.5946 87.6132 20.6646 87.6086 20.7332 87.619C20.8862 87.6409 21.026 87.7183 21.1258 87.8364L21.5395 88.3062L20.1302 89.5542Z" fill="#3A3A39"/>
<path d="M21.0997 83.5171C21.1329 83.0902 21.0082 82.666 20.7491 82.3251C20.5047 81.9776 20.1442 81.729 19.7325 81.624C19.5489 81.5707 19.3555 81.56 19.1672 81.5928C18.9788 81.6256 18.8005 81.7011 18.6457 81.8133L16.984 83.0123L17.9516 84.3584L18.6527 83.8396L18.3162 83.3698L19.2487 82.6687C19.3046 82.628 19.3689 82.6005 19.4369 82.5884C19.505 82.5762 19.5749 82.5797 19.6413 82.5986C19.792 82.6384 19.9236 82.7303 20.0129 82.858C20.1081 82.9792 20.1533 83.1322 20.1391 83.2857C20.1357 83.3545 20.1169 83.4217 20.0842 83.4824C20.0514 83.543 20.0055 83.5956 19.9498 83.6362L17.4047 85.5293C17.3476 85.5701 17.282 85.5976 17.2129 85.6098C17.1437 85.6219 17.0727 85.6183 17.0051 85.5994C16.8573 85.5531 16.7291 85.4592 16.6403 85.3324C16.5515 85.2056 16.5072 85.0529 16.5143 84.8983C16.5178 84.8294 16.5365 84.7622 16.5693 84.7016C16.602 84.6409 16.6479 84.5883 16.7036 84.5477L17.2575 84.1411L16.6265 83.2717L16.0866 83.6573C15.9314 83.7698 15.8035 83.9158 15.7125 84.0845C15.6214 84.2533 15.5696 84.4404 15.5607 84.6319C15.5404 85.0556 15.6646 85.4737 15.913 85.8177C16.1614 86.1616 16.5193 86.411 16.928 86.5249C17.1114 86.5798 17.3051 86.5913 17.4937 86.5584C17.6823 86.5256 17.8607 86.4493 18.0147 86.3356L20.6159 84.4636C20.7605 84.3505 20.8788 84.2072 20.9623 84.0437C21.0459 83.8802 21.0928 83.7005 21.0997 83.5171Z" fill="#3A3A39"/>
<path d="M17.6278 77.5352L16.8565 77.9839L17.8311 79.6386L16.4499 80.4519L15.7417 79.2389L14.9705 79.6876L15.6786 80.9006L14.2974 81.7069L13.3298 80.0452L12.5586 80.5009L14.059 83.0601L19.1212 80.0943L17.6278 77.5352Z" fill="#3A3A39"/>
<path d="M16.7529 75.7833L13.3384 77.3678L16.1499 74.4862L15.6802 73.4766L10.3516 75.9445L10.7933 76.8911L14.369 75.2294L11.3752 78.1391L11.866 79.2048L17.1876 76.7298L16.7529 75.7833Z" fill="#3A3A39"/>
<path d="M10.23 73.0926L14.9346 71.466L14.591 70.4844L9.89345 72.111L9.52886 71.0733L8.6875 71.3608L9.75322 74.4318L10.5946 74.1443L10.23 73.0926Z" fill="#3A3A39"/>
<path d="M13.6826 67.406L8.01172 68.916L8.27871 69.9187L13.9496 68.4088L13.6826 67.406Z" fill="#3A3A39"/>
<path d="M13.203 65.2522L9.50099 65.9253L12.9435 63.843L12.7402 62.7422L6.96289 63.8009L7.1522 64.8245L11.0365 64.1094L7.4046 66.1777L7.61494 67.3276L13.3853 66.2759L13.203 65.2522Z" fill="#3A3A39"/>
<path d="M12.4948 60.6108L11.1346 60.4565L11.0575 59.3768L12.3826 59.0332L12.3055 57.9395L6.53516 59.517L6.64032 60.9193L12.5719 61.6695L12.4948 60.6108ZM7.9304 60.141L10.2091 59.5941L10.2652 60.3583L7.9304 60.141Z" fill="#3A3A39"/>
<path d="M9.52845 49.9072L9.3125 52.9922L10.203 53.0545L10.4189 49.9695L9.52845 49.9072Z" fill="#3A3A39"/>
</g>
<defs>
<clipPath id="clip0_3397_9851">
<rect width="112.006" height="112.006" fill="white" transform="translate(0.240234 0.306641)"/>
</clipPath>
</defs>
</svg>
