<svg width="139" height="50" viewBox="0 0 139 50" fill="none" xmlns="http://www.w3.org/2000/svg">
<g clip-path="url(#clip0_3397_9992)">
<path d="M137.78 8.96825C136.751 7.68226 134.931 7.02919 132.34 7.02344C131.201 7.0774 130.086 7.35962 129.066 7.85203C128.047 8.34444 127.145 9.03619 126.42 9.8831L125.822 7.60458H120.442L110.717 43.5663H2.49036L0.753906 49.2914H109.154V49.3087H115.654C115.97 49.3084 116.277 49.2074 116.527 49.0216C116.776 48.8358 116.955 48.5756 117.035 48.2816L120.245 36.3538C121.067 37.447 122.382 38.0541 124.184 38.1548C129.435 38.1548 132.812 35.4879 134.217 30.2633L138.309 15.1565C139.056 12.4206 138.876 10.3377 137.78 8.96825ZM130.774 14.9149L126.683 30.0245C126.303 31.4371 125.332 32.093 123.628 32.093C123.054 32.093 122.307 32.0096 121.987 31.6126C121.763 31.3249 121.733 30.8819 121.898 30.2633L125.989 15.1565C126.369 13.744 127.331 13.0852 129.023 13.0852C129.603 13.0852 130.362 13.1715 130.684 13.5713C130.909 13.8475 130.938 14.2992 130.774 14.9149Z" fill="#3A3A39"/>
<path d="M13.9552 1.1869C14.0209 0.945238 14.254 0.300781 15.2552 0.300781C16.1518 0.300781 16.1518 0.821518 16.0771 1.10346C16.07 1.12989 16.0549 1.15369 16.0335 1.17166C16.0122 1.18963 15.9857 1.20097 15.9576 1.20418L15.4674 1.29619C15.3747 1.31058 15.3209 1.25882 15.3299 1.18402C15.3538 1.02291 15.3061 0.928004 15.0789 0.928004C14.78 0.928004 14.6993 1.10057 14.6216 1.37963L14.4752 1.90613C14.3975 2.19383 14.3706 2.35783 14.6814 2.35783C14.7683 2.36609 14.8555 2.34428 14.9272 2.29631C14.999 2.24833 15.0506 2.17729 15.0729 2.09599C15.0865 2.05868 15.1136 2.0274 15.1493 2.00784C15.185 1.98828 15.2269 1.98179 15.2672 1.98958L15.7155 2.07878C15.7276 2.08034 15.7392 2.08465 15.7493 2.09135C15.7594 2.09806 15.7677 2.10696 15.7735 2.11734C15.7794 2.12772 15.7825 2.13926 15.7828 2.15105C15.7831 2.16285 15.7805 2.17455 15.7752 2.18519C15.6826 2.47288 15.3987 2.98499 14.508 2.98499C13.5128 2.98499 13.6353 2.33765 13.7011 2.09887L13.9552 1.1869Z" fill="#3A3A39"/>
<path d="M18.5565 2.79513C18.5494 2.83091 18.5292 2.86305 18.4996 2.88574C18.47 2.90843 18.433 2.92016 18.3951 2.91882H17.9259C17.8452 2.91882 17.8094 2.88139 17.8303 2.80946L17.917 2.49304C17.9379 2.41824 17.917 2.38368 17.8243 2.38368H17.4627C17.4273 2.38012 17.3918 2.38933 17.3631 2.40953C17.3344 2.42973 17.3145 2.45952 17.3073 2.49304L17.2176 2.80946C17.2098 2.84268 17.1898 2.87211 17.1612 2.8922C17.1326 2.9123 17.0975 2.92175 17.0622 2.91882H16.593C16.5123 2.91882 16.4794 2.87569 16.5003 2.79513L16.9307 1.2473C17.0592 0.789872 17.2803 0.300781 18.2218 0.300781C19.1632 0.300781 19.1184 0.789872 18.9869 1.2473L18.5565 2.79513ZM18.2577 1.2473C18.3085 1.07469 18.3025 0.985529 18.0245 0.985529C17.7466 0.985529 17.6958 1.07469 17.648 1.2473L17.5374 1.64724C17.5165 1.71628 17.5523 1.75653 17.633 1.75653H17.9917C18.028 1.75871 18.0639 1.74835 18.093 1.72724C18.122 1.70613 18.1423 1.67571 18.1501 1.64148L18.2577 1.2473Z" fill="#3A3A39"/>
<path d="M21.8128 2.71958C21.8171 2.74558 21.8151 2.77212 21.807 2.79726C21.7989 2.8224 21.785 2.84547 21.7662 2.86462C21.7475 2.88377 21.7245 2.89855 21.6989 2.90782C21.6733 2.91708 21.6458 2.92058 21.6186 2.91807H21.1404C21.0985 2.91807 21.0657 2.90083 21.0597 2.86631L20.8266 2.13267C20.8241 2.12781 20.8203 2.12362 20.8155 2.12059C20.8108 2.11757 20.8054 2.1158 20.7997 2.11539H20.6323C20.5962 2.11527 20.561 2.12604 20.5315 2.14616C20.502 2.16628 20.4798 2.19471 20.4679 2.22756L20.3096 2.80295C20.2987 2.83582 20.2771 2.86451 20.2481 2.88471C20.219 2.90491 20.184 2.91559 20.1482 2.91519H19.679C19.6042 2.91519 19.5624 2.86624 19.5803 2.80295L20.2289 0.475555C20.2388 0.442666 20.2596 0.413807 20.2883 0.393517C20.3169 0.373227 20.3517 0.362604 20.3872 0.363315H21.3197C22.0639 0.363315 22.2881 0.651008 22.1237 1.2264C22.094 1.37348 22.0327 1.513 21.9437 1.63588C21.8546 1.75876 21.7398 1.86228 21.6066 1.93987C21.5976 1.94445 21.5901 1.95158 21.5853 1.96031C21.5805 1.96904 21.5786 1.97901 21.5798 1.98883L21.8128 2.71958ZM20.9432 0.993417C20.9072 0.992553 20.872 1.003 20.8428 1.02327C20.8137 1.04353 20.7922 1.07247 20.7818 1.10559L20.707 1.376C20.6891 1.44217 20.731 1.48824 20.8057 1.48824H21.0179C21.2211 1.48824 21.3167 1.46807 21.3885 1.24079C21.4602 1.01352 21.3586 0.993417 21.1583 0.993417H20.9432Z" fill="#3A3A39"/>
<path d="M24.9864 1.1869C25.0521 0.945238 25.2853 0.300781 26.2865 0.300781C27.1831 0.300781 27.1831 0.821518 27.1084 1.10346C27.1014 1.12989 27.0861 1.15369 27.0648 1.17166C27.0434 1.18963 27.017 1.20097 26.9888 1.20418L26.4987 1.29619C26.406 1.31058 26.3523 1.25882 26.3612 1.18402C26.3851 1.02291 26.3373 0.928004 26.1101 0.928004C25.8113 0.928004 25.7306 1.10057 25.6529 1.37963L25.5064 1.90613C25.4287 2.19383 25.4018 2.35783 25.7126 2.35783C25.7996 2.36609 25.8867 2.34428 25.9584 2.29631C26.0302 2.24833 26.0819 2.17729 26.1042 2.09599C26.1178 2.05868 26.1449 2.0274 26.1806 2.00784C26.2163 1.98828 26.2581 1.98179 26.2984 1.98958L26.7467 2.07878C26.7589 2.08034 26.7705 2.08465 26.7806 2.09135C26.7906 2.09806 26.799 2.10696 26.8048 2.11734C26.8106 2.12772 26.8138 2.13926 26.8141 2.15105C26.8144 2.16285 26.8118 2.17455 26.8065 2.18519C26.7139 2.47288 26.43 2.98499 25.5393 2.98499C24.5441 2.98499 24.6666 2.33765 24.7323 2.09887L24.9864 1.1869Z" fill="#3A3A39"/>
<path d="M29.8095 2.09887C29.7438 2.33765 29.5107 2.98499 28.5125 2.98499C27.5142 2.98499 27.6398 2.33765 27.7055 2.09887L27.9595 1.1869C28.0283 0.945238 28.2584 0.300781 29.2596 0.300781C30.2609 0.300781 30.1323 0.945238 30.0636 1.1869L29.8095 2.09887ZM29.2895 1.37963C29.3672 1.09194 29.3941 0.928004 29.0833 0.928004C28.7725 0.928004 28.7067 1.10057 28.629 1.37963L28.4796 1.90613C28.4019 2.19383 28.3749 2.35783 28.6858 2.35783C28.9966 2.35783 29.0653 2.1852 29.143 1.90613L29.2895 1.37963Z" fill="#3A3A39"/>
<path d="M32.876 2.09887C32.8102 2.33765 32.5772 2.98499 31.5789 2.98499C30.5807 2.98499 30.7062 2.33765 30.7719 2.09887L31.026 1.1869C31.0947 0.945238 31.3249 0.300781 32.3261 0.300781C33.3273 0.300781 33.1988 0.945238 33.13 1.1869L32.876 2.09887ZM32.3559 1.37963C32.4337 1.09194 32.4606 0.928004 32.1527 0.928004C31.8449 0.928004 31.7732 1.10057 31.6925 1.37963L31.549 1.90613C31.4683 2.19383 31.4444 2.35783 31.7522 2.35783C32.0601 2.35783 32.1318 2.1852 32.2095 1.90613L32.3559 1.37963Z" fill="#3A3A39"/>
<path d="M34.9584 0.365985C35.0421 0.365985 35.075 0.400545 35.054 0.475346L34.5789 2.18135C34.561 2.2504 34.5938 2.29071 34.6745 2.29071H35.61C35.6937 2.29071 35.7235 2.32808 35.7026 2.4L35.589 2.8085C35.5818 2.84203 35.5619 2.87181 35.5332 2.89202C35.5045 2.91222 35.469 2.92143 35.4336 2.91786H33.7779C33.7002 2.91786 33.6643 2.87755 33.6823 2.8085L34.3338 0.475346C34.341 0.44182 34.3609 0.412034 34.3896 0.391833C34.4183 0.371632 34.4538 0.36242 34.4892 0.365985H34.9584Z" fill="#3A3A39"/>
<path d="M37.7566 0.365985C37.8403 0.365985 37.8732 0.400545 37.8523 0.475346L37.2037 2.8085C37.1952 2.84196 37.1747 2.87139 37.1456 2.89145C37.1165 2.91151 37.081 2.9209 37.0453 2.91786H36.5611C36.4834 2.91786 36.4475 2.87755 36.4655 2.8085L37.1171 0.475346C37.1243 0.44182 37.1442 0.412034 37.1729 0.391833C37.2016 0.371632 37.237 0.36242 37.2724 0.365985H37.7566Z" fill="#3A3A39"/>
<path d="M39.6598 0.365985C39.7315 0.365985 39.7704 0.391889 39.7823 0.449428L40.0154 1.66349C40.0154 1.69513 40.0573 1.68938 40.0692 1.66349L40.395 0.486865C40.4029 0.453107 40.4234 0.4233 40.4526 0.403141C40.4818 0.382982 40.5177 0.373841 40.5534 0.377504H41.0226C41.1063 0.377504 41.1362 0.412064 41.1183 0.486865L40.4667 2.82002C40.4589 2.85324 40.4388 2.88266 40.4103 2.90276C40.3817 2.92286 40.3466 2.93231 40.3113 2.92938H39.6956C39.6239 2.92938 39.5851 2.90348 39.5731 2.84594L39.34 1.63188C39.34 1.59736 39.2952 1.60599 39.2862 1.63188L38.9574 2.8085C38.9496 2.84172 38.9296 2.87115 38.901 2.89124C38.8725 2.91134 38.8373 2.92079 38.802 2.91786H38.3328C38.2521 2.91786 38.2193 2.87755 38.2372 2.8085L38.8887 0.475346C38.8959 0.44182 38.9158 0.412034 38.9445 0.391833C38.9732 0.371632 39.0087 0.36242 39.0441 0.365985H39.6598Z" fill="#3A3A39"/>
<path d="M41.9418 1.1869C42.0076 0.945238 42.2407 0.300781 43.2389 0.300781C44.1206 0.300781 44.1355 0.804242 44.0668 1.08906C44.0598 1.1207 44.0423 1.14934 44.017 1.17061C43.9916 1.19187 43.9598 1.20466 43.9263 1.20706L43.4272 1.29907C43.3375 1.29907 43.3017 1.28186 43.3137 1.20418C43.3465 1.02869 43.3136 0.916485 43.0656 0.916485C42.7667 0.916485 42.686 1.08905 42.6083 1.36811L42.4618 1.89462C42.3841 2.18231 42.3572 2.34631 42.668 2.34631C42.9789 2.34631 43.0447 2.17371 43.0955 1.99534H42.8384C42.7577 1.99534 42.7218 1.95502 42.7428 1.88598L42.8235 1.59828C42.8307 1.56476 42.8506 1.53504 42.8793 1.51484C42.908 1.49464 42.9435 1.48543 42.9789 1.48899H43.8187C43.9024 1.48899 43.9323 1.52348 43.9114 1.59828L43.7768 2.09023C43.7081 2.32901 43.478 2.97635 42.4768 2.97635C41.4756 2.97635 41.6041 2.32901 41.6729 2.09023L41.9418 1.1869Z" fill="#3A3A39"/>
<path d="M48.4961 2.79513C48.4889 2.83091 48.4688 2.86305 48.4392 2.88574C48.4095 2.90843 48.3725 2.92016 48.3347 2.91882H47.8655C47.7878 2.91882 47.7519 2.88139 47.7698 2.80946L47.8595 2.49304C47.8804 2.41824 47.8595 2.38368 47.7638 2.38368H47.4052C47.3695 2.38002 47.3336 2.38916 47.3044 2.40932C47.2752 2.42948 47.2547 2.45928 47.2468 2.49304L47.1601 2.80946C47.1517 2.84292 47.131 2.87235 47.102 2.89241C47.0729 2.91247 47.0373 2.92186 47.0017 2.91882H46.5325C46.4548 2.91882 46.419 2.87569 46.4429 2.79513L46.8732 1.2473C47.0017 0.789872 47.2199 0.300781 48.1644 0.300781C49.1088 0.300781 49.061 0.789872 48.9265 1.2473L48.4961 2.79513ZM48.1972 1.2473C48.245 1.07469 48.239 0.985529 47.9641 0.985529C47.6891 0.985529 47.6323 1.07469 47.5845 1.2473L47.474 1.64724C47.456 1.71628 47.4889 1.75653 47.5696 1.75653H47.9312C47.9671 1.75801 48.0023 1.7473 48.0307 1.72626C48.0591 1.70521 48.0789 1.67519 48.0867 1.64148L48.1972 1.2473Z" fill="#3A3A39"/>
<path d="M50.5769 1.10422C50.5979 1.02942 50.577 0.994929 50.4814 0.994929H49.8836C49.8029 0.994929 49.77 0.954616 49.788 0.885569L49.9015 0.477067C49.9093 0.443846 49.9294 0.414494 49.958 0.394397C49.9865 0.3743 50.0217 0.36478 50.0569 0.367707H52.2029C52.2865 0.367707 52.3194 0.402266 52.2984 0.477067L52.1849 0.885569C52.1771 0.91879 52.1571 0.948142 52.1285 0.968239C52.0999 0.988336 52.0647 0.997855 52.0295 0.994929H51.4317C51.396 0.991266 51.3601 1.00034 51.3309 1.0205C51.3017 1.04066 51.2812 1.07046 51.2733 1.10422L50.7981 2.81022C50.7903 2.84344 50.7703 2.87287 50.7417 2.89296C50.7131 2.91306 50.678 2.92251 50.6428 2.91958H50.1735C50.0928 2.91958 50.0599 2.87927 50.0779 2.81022L50.5769 1.10422Z" fill="#3A3A39"/>
<path d="M55.6891 0.367707C55.7728 0.367707 55.8027 0.402266 55.7847 0.477067L55.1331 2.81022C55.1253 2.84344 55.1053 2.87287 55.0767 2.89296C55.0482 2.91306 55.0131 2.92251 54.9778 2.91958H54.5175C54.4368 2.91958 54.401 2.87927 54.4219 2.81022L55.0704 0.477067C55.0782 0.443846 55.0983 0.414494 55.1269 0.394397C55.1554 0.3743 55.1906 0.36478 55.2258 0.367707H55.6891Z" fill="#3A3A39"/>
<path d="M57.332 1.1025C57.3529 1.0277 57.3319 0.993208 57.2363 0.993208H56.6386C56.5579 0.993208 56.5221 0.952895 56.543 0.883848L56.6565 0.475346C56.6637 0.44182 56.6836 0.412034 56.7123 0.391833C56.741 0.371632 56.7766 0.36242 56.8119 0.365985H58.9757C59.0594 0.365985 59.0923 0.400545 59.0714 0.475346L58.9578 0.883848C58.95 0.917069 58.93 0.946421 58.9014 0.966518C58.8728 0.986615 58.8376 0.996134 58.8024 0.993208H58.2046C58.1694 0.990282 58.1343 0.999732 58.1057 1.01983C58.0771 1.03993 58.057 1.06928 58.0492 1.1025L57.5741 2.8085C57.5662 2.84172 57.5462 2.87115 57.5176 2.89124C57.489 2.91134 57.4539 2.92079 57.4186 2.91786H56.9494C56.8687 2.91786 56.8328 2.87755 56.8537 2.8085L57.332 1.1025Z" fill="#3A3A39"/>
<path d="M61.0685 1.27008C60.9818 1.27008 60.9489 1.2528 60.9579 1.178C60.9579 1.0284 60.8563 0.933435 60.659 0.933435C60.4618 0.933435 60.3601 1.01977 60.3601 1.1032C60.3392 1.39089 61.6662 1.39093 61.4331 2.21949C61.4032 2.32881 61.0805 2.97321 60.0882 2.97321C59.2065 2.97321 59.1587 2.46975 59.2155 2.18493C59.223 2.15274 59.241 2.1237 59.2668 2.10198C59.2925 2.08026 59.3248 2.06699 59.359 2.06412L59.8581 1.97492C59.9447 1.96054 59.9836 1.9922 59.9687 2.06988C59.9388 2.2425 60.0643 2.35758 60.2676 2.35758C60.4708 2.35758 60.6531 2.25114 60.6561 2.15332C60.6561 1.84261 59.3799 1.91166 59.616 1.07447C59.7009 0.834549 59.8676 0.629256 60.0889 0.491921C60.3103 0.354586 60.5733 0.293223 60.8354 0.317801C61.6991 0.317801 61.7619 0.806914 61.714 1.07159C61.707 1.10323 61.6896 1.1318 61.6643 1.15307C61.6389 1.17433 61.6071 1.18712 61.5736 1.18952L61.0685 1.27008Z" fill="#3A3A39"/>
<path d="M66.6882 0.367707C66.7719 0.367707 66.8047 0.402266 66.7838 0.477067L66.6702 0.885569C66.6624 0.91879 66.6424 0.948142 66.6138 0.968239C66.5852 0.988336 66.5501 0.997855 66.5148 0.994929H65.4568C65.4215 0.992003 65.3864 1.00145 65.3578 1.02155C65.3293 1.04165 65.3092 1.071 65.3014 1.10422L65.2685 1.21934C65.2506 1.28839 65.2865 1.32863 65.3642 1.32863H66.0575C66.1412 1.32863 66.1711 1.366 66.1502 1.43792L66.0367 1.84649C66.0288 1.87971 66.0087 1.90906 65.9802 1.92916C65.9516 1.94926 65.9165 1.95871 65.8812 1.95578H65.1908C65.1556 1.95286 65.1204 1.9623 65.0918 1.9824C65.0632 2.0025 65.0432 2.03192 65.0354 2.06514L64.8262 2.81022C64.8184 2.84344 64.7983 2.87287 64.7697 2.89296C64.7412 2.91306 64.7061 2.92251 64.6708 2.91958H64.1776C64.0969 2.91958 64.0611 2.87927 64.082 2.81022L64.7306 0.477067C64.7384 0.443846 64.7584 0.414494 64.787 0.394397C64.8155 0.3743 64.8507 0.36478 64.886 0.367707H66.6882Z" fill="#3A3A39"/>
<path d="M68.2809 0.367707C68.3646 0.367707 68.3945 0.402266 68.3765 0.477067L67.725 2.81022C67.7172 2.84344 67.6972 2.87287 67.6686 2.89296C67.64 2.91306 67.6049 2.92251 67.5696 2.91958H67.1093C67.0286 2.91958 66.9927 2.87927 67.0137 2.81022L67.6623 0.477067C67.6701 0.443846 67.6901 0.414494 67.7187 0.394397C67.7472 0.3743 67.7824 0.36478 67.8177 0.367707H68.2809Z" fill="#3A3A39"/>
<path d="M70.1931 0.366539C70.2211 0.36227 70.2498 0.368566 70.2732 0.384099C70.2965 0.399631 70.3128 0.42322 70.3186 0.449982L70.5487 1.66404C70.5487 1.69569 70.5935 1.68993 70.6025 1.66404L70.9313 0.487418C70.9385 0.453892 70.9584 0.424107 70.9871 0.403906C71.0158 0.383705 71.0513 0.374493 71.0867 0.378058H71.5559C71.6396 0.378058 71.6724 0.412618 71.6515 0.487418L71.003 2.82057C70.9945 2.85403 70.9739 2.88347 70.9448 2.90353C70.9158 2.92359 70.8802 2.93297 70.8446 2.92994H70.2289C70.1572 2.92994 70.1183 2.90403 70.1064 2.84649L69.8733 1.63243C69.8733 1.59791 69.8314 1.60654 69.8225 1.63243L69.4937 2.80906C69.4859 2.84228 69.4658 2.8717 69.4373 2.8918C69.4087 2.91189 69.3735 2.92134 69.3383 2.91842H68.8691C68.7884 2.91842 68.7525 2.8781 68.7734 2.80906L69.422 0.475899C69.4298 0.442678 69.4499 0.413326 69.4784 0.393229C69.507 0.373132 69.5421 0.363613 69.5774 0.366539H70.1931Z" fill="#3A3A39"/>
<path d="M74.6131 0.367707C74.6968 0.367707 74.7297 0.402266 74.7087 0.477067L74.5952 0.885569C74.5874 0.91879 74.5674 0.948142 74.5388 0.968239C74.5102 0.988336 74.475 0.997855 74.4398 0.994929H73.4266C73.3909 0.991266 73.355 1.00034 73.3258 1.0205C73.2966 1.04066 73.2761 1.07046 73.2682 1.10422L73.2353 1.21934C73.2174 1.28839 73.2533 1.32863 73.331 1.32863H73.9825C74.0662 1.32863 74.0961 1.366 74.0782 1.43792L73.9646 1.84649C73.9556 1.87965 73.9348 1.9087 73.9059 1.92867C73.877 1.94864 73.8417 1.95823 73.8062 1.95578H73.1576C73.1224 1.95286 73.0872 1.9623 73.0587 1.9824C73.0301 2.0025 73.01 2.03192 73.0022 2.06514L72.9694 2.18307C72.9484 2.25212 72.9693 2.29243 73.065 2.29243H74.0782C74.1618 2.29243 74.1947 2.3298 74.1738 2.40172L74.0602 2.81022C74.0524 2.84344 74.0324 2.87287 74.0038 2.89296C73.9752 2.91306 73.94 2.92251 73.9048 2.91958H72.1445C72.0638 2.91958 72.0279 2.87927 72.0488 2.81022L72.6973 0.477067C72.7052 0.443846 72.7253 0.414494 72.7538 0.394397C72.7824 0.3743 72.8175 0.36478 72.8528 0.367707H74.6131Z" fill="#3A3A39"/>
<path d="M76.8178 1.26968C76.7282 1.26968 76.6953 1.2524 76.7043 1.1776C76.7043 1.028 76.6057 0.933029 76.4054 0.933029C76.2052 0.933029 76.1066 1.01936 76.1066 1.10279C76.0857 1.39049 77.4126 1.39052 77.1795 2.21908C77.1496 2.32841 76.8268 2.9728 75.8346 2.9728C74.9529 2.9728 74.9051 2.46934 74.9649 2.18453C74.9713 2.15236 74.9885 2.12312 75.0139 2.10129C75.0393 2.07947 75.0714 2.06627 75.1053 2.06372L75.6044 1.97451C75.6941 1.96013 75.73 1.9918 75.718 2.06948C75.6852 2.24209 75.8107 2.35717 76.0169 2.35717C76.2231 2.35717 76.4025 2.25073 76.4054 2.15292C76.4054 1.84221 75.1323 1.91126 75.3654 1.07407C75.4513 0.834723 75.6181 0.630042 75.8392 0.49285C76.0603 0.355657 76.3228 0.293858 76.5847 0.317396C77.4485 0.317396 77.5142 0.806509 77.4813 1.07119C77.4733 1.10285 77.4551 1.13121 77.4294 1.15238C77.4036 1.17355 77.3716 1.18643 77.3379 1.18912L76.8178 1.26968Z" fill="#3A3A39"/>
<path d="M79.0555 1.10422C79.0764 1.02942 79.0555 0.994929 78.9599 0.994929H78.3621C78.2814 0.994929 78.2485 0.954616 78.2665 0.885569L78.38 0.477067C78.3878 0.443846 78.4079 0.414494 78.4365 0.394397C78.4651 0.3743 78.5002 0.36478 78.5354 0.367707H80.6814C80.768 0.367707 80.7979 0.402266 80.777 0.477067L80.6634 0.885569C80.6556 0.91879 80.6355 0.948142 80.6069 0.968239C80.5784 0.988336 80.5433 0.997855 80.508 0.994929H79.9103C79.8745 0.991266 79.8386 1.00034 79.8094 1.0205C79.7802 1.04066 79.7597 1.07046 79.7519 1.10422L79.2766 2.81022C79.2688 2.84344 79.2488 2.87287 79.2202 2.89296C79.1917 2.91306 79.1565 2.92251 79.1212 2.91958H78.652C78.5743 2.91958 78.5384 2.87927 78.5564 2.81022L79.0555 1.10422Z" fill="#3A3A39"/>
<path d="M16.4864 37.7934L22.691 14.8642C22.8344 14.3234 22.8165 13.9177 22.6371 13.6962C22.4578 13.4746 21.8959 13.2877 21.1428 13.2877C19.5438 13.2877 18.6711 13.8803 18.3155 15.2037L12.2036 37.7934H4.16406L12.389 7.40434H18.1153L18.6473 9.46132C19.3861 8.67535 20.2789 8.03749 21.2743 7.58429C22.2698 7.13109 23.3484 6.87147 24.4483 6.82031C27.1142 6.82031 29.0001 7.5079 30.0671 8.83417C31.2057 10.2726 31.397 12.4015 30.6379 15.1979L24.526 37.7934H16.4864Z" fill="#3A3A39"/>
<path d="M24.4596 7.02466C27.0538 7.02466 28.8739 7.68349 29.899 8.96948C30.9959 10.3389 31.1752 12.4218 30.431 15.1549L24.361 37.595H16.7578L22.8936 14.9218C23.0579 14.3062 23.028 13.8545 22.8039 13.5755C22.4811 13.1756 21.722 13.0892 21.1422 13.0892C19.4535 13.0892 18.4882 13.7481 18.1117 15.1607L12.0386 37.6008H4.43538L12.5526 7.61733H17.9323L18.53 9.89584C19.2562 9.0492 20.1578 8.35758 21.1772 7.8652C22.1966 7.37281 23.3115 7.09049 24.4507 7.03618M24.4507 6.62761C22.3067 6.72542 20.2795 7.59636 18.7721 9.06725L18.3716 7.51949L18.291 7.21164H12.2359L12.1552 7.51661L4.03786 37.4972L3.90039 38.0064H12.3794L12.4601 37.7014L18.533 15.2613C18.8648 14.0242 19.6478 13.4978 21.1541 13.4978C21.8206 13.4978 22.3167 13.6214 22.4811 13.8257C22.6455 14.03 22.6216 14.3464 22.496 14.8182L16.3602 37.4914L16.2228 38.0006H24.6987L24.7824 37.6957L30.8524 15.2555C31.6325 12.3786 31.4292 10.1921 30.2547 8.71627C29.1429 7.32671 27.2003 6.61904 24.4776 6.61328L24.4507 6.62761Z" fill="#F8F8F8"/>
<path d="M33.4492 38.3687C29.8449 38.3687 27.3583 37.5459 26.0552 35.9204C24.9165 34.5021 24.6864 32.5055 25.3708 29.9824L29.4623 14.8382C30.9118 9.51299 35.0063 6.81445 41.6322 6.81445C45.2516 6.81445 47.7471 7.64014 49.0532 9.26849C50.1859 10.6811 50.416 12.6719 49.7316 15.1834L45.6401 30.3248C44.1905 35.65 40.0901 38.3572 33.4492 38.3802V38.3687ZM40.2365 13.2645C38.6495 13.2645 37.7799 13.8572 37.4093 15.1863L33.3177 30.3248C33.1712 30.8685 33.1892 31.2771 33.3715 31.4986C33.5538 31.7201 34.1007 31.9013 34.8449 31.9013C36.4588 31.9013 37.3375 31.3087 37.6932 29.9853L41.7847 14.8382C41.9311 14.2973 41.9132 13.8946 41.7369 13.673C41.5605 13.4515 41.0136 13.2703 40.2784 13.2645H40.2365Z" fill="#3A3A39"/>
<path d="M41.6411 7.02493C45.1887 7.02493 47.6185 7.82185 48.8917 9.39841C49.9856 10.7592 50.2007 12.6896 49.5343 15.1379L45.4457 30.2792C44.0231 35.5037 39.9884 38.1592 33.4581 38.1735C29.9225 38.1735 27.4807 37.3738 26.2314 35.8029C25.1346 34.4364 24.9194 32.4973 25.5859 30.0491L29.6774 14.9048C31.1 9.68032 35.1228 7.03357 41.6322 7.03357M34.8449 32.1205C36.5484 32.1205 37.5197 31.4616 37.8993 30.0491L41.9908 14.9048C42.1552 14.292 42.1253 13.8404 41.9041 13.5613C41.5873 13.1672 40.8461 13.078 40.2813 13.0751H40.2365C38.5598 13.0751 37.5974 13.7339 37.2059 15.1494L33.1144 30.2878C32.947 30.9064 32.9769 31.361 33.2041 31.64C33.5209 32.037 34.271 32.1205 34.8449 32.1205ZM41.6322 6.625C34.8986 6.625 30.7354 9.3754 29.259 14.8013L25.1674 29.9455C24.4651 32.5347 24.7072 34.5888 25.8877 36.059C27.2327 37.7391 29.7731 38.5878 33.4492 38.5878C40.1976 38.5878 44.3698 35.8173 45.8463 30.3914L49.9378 15.2501C50.6371 12.6608 50.3951 10.624 49.2205 9.15672C47.8726 7.47659 45.3202 6.625 41.6322 6.625ZM34.8449 31.712C34.1873 31.712 33.7001 31.5911 33.5388 31.3897C33.3774 31.1883 33.3953 30.8661 33.5388 30.3914L37.6303 15.2501C37.974 14.013 38.7571 13.4836 40.2514 13.4836H40.2962C40.9388 13.4836 41.423 13.6102 41.5844 13.8116C41.7458 14.013 41.7219 14.3324 41.5844 14.8042L37.4929 29.9484C37.1611 31.1854 36.3721 31.712 34.8508 31.712H34.8449Z" fill="#F8F8F8"/>
<path d="M54.676 37.7934L60.8834 14.8642C61.0269 14.3234 61.009 13.9177 60.8296 13.6933C60.6503 13.4689 60.0885 13.2877 59.3353 13.2877C57.7334 13.2877 56.8637 13.8803 56.508 15.2037L50.3961 37.7934H42.3535L50.5814 7.40434H56.3048L56.8398 9.46132C57.5787 8.67535 58.4714 8.03749 59.4669 7.58429C60.4623 7.13109 61.5409 6.87147 62.6408 6.82031C65.3037 6.82031 67.1926 7.5079 68.2596 8.83417C69.3983 10.2726 69.5895 12.4015 68.8274 15.1979L62.7155 37.7934H54.676Z" fill="#3A3A39"/>
<path d="M62.653 7.02466C65.2442 7.02466 67.0643 7.68349 68.0924 8.96948C69.1893 10.3389 69.3686 12.4218 68.6244 15.1549L62.5543 37.595H54.9511L61.0869 14.9218C61.2513 14.3062 61.2214 13.8545 60.9972 13.5755C60.6745 13.1756 59.9153 13.0892 59.3355 13.0892C57.6439 13.0892 56.6816 13.7481 56.302 15.1607L50.232 37.6008H42.6287L50.746 7.61733H56.1406L56.7384 9.89584C57.4643 9.04893 58.3658 8.35712 59.3853 7.86471C60.4048 7.3723 61.5197 7.09014 62.659 7.03618M62.659 6.62761H62.644C60.4998 6.72458 58.4723 7.59565 56.9655 9.06725L56.562 7.51949L56.4843 7.21164H50.4292L50.3456 7.51661L42.2312 37.4972L42.0938 38.0064H50.5697L50.6533 37.7014L56.7234 15.2613C57.0551 14.0242 57.8412 13.4978 59.3475 13.4978C60.014 13.4978 60.5101 13.6214 60.6744 13.8257C60.8388 14.03 60.8149 14.3464 60.6894 14.8182L54.5536 37.4914L54.4161 38.0006H62.8921L62.9757 37.6957L69.0458 15.2555C69.8258 12.3786 69.6196 10.1921 68.448 8.71627C67.3392 7.32671 65.3936 6.61904 62.6739 6.61328L62.659 6.62761Z" fill="#F8F8F8"/>
<path d="M71.6638 38.3683C68.0445 38.3683 65.549 37.5455 64.2429 35.9171C63.1102 34.5017 62.88 32.5108 63.5645 29.9992L64.3265 27.1223H72.3632L71.5113 30.3417C71.3649 30.8825 71.3829 31.2852 71.5622 31.5096C71.7415 31.734 72.2944 31.9153 73.0416 31.9211H73.0834C74.6644 31.9211 75.5312 31.3457 75.8868 30.005L75.9496 29.7173C76.2993 28.4313 74.8199 26.6534 71.6817 24.5619C67.9399 22.0963 66.5232 19.0698 67.4706 15.5657L67.653 14.8464C69.1055 9.50109 73.2 6.79102 79.8259 6.79102C83.4422 6.79102 85.9408 7.62823 87.2439 9.25945C88.3796 10.6778 88.6067 12.6686 87.9253 15.1801L87.1602 18.0399H79.1235L79.9754 14.8378C80.1278 14.2912 80.1158 13.8855 79.9395 13.664C79.7631 13.4425 79.2042 13.2612 78.4451 13.2612C76.8402 13.2612 75.9616 13.8539 75.594 15.183L75.5281 15.4506C75.1456 16.8891 76.5653 18.6756 79.7512 20.7959C83.493 23.2615 84.9007 26.3311 83.9354 29.9187L83.8159 30.3445C82.3843 35.6755 78.2897 38.3683 71.6638 38.3683Z" fill="#3A3A39"/>
<path d="M79.8253 7.01053C83.3729 7.01053 85.8027 7.82185 87.0759 9.40129C88.1697 10.765 88.3849 12.6983 87.7184 15.1552L86.9952 17.8652H79.3949L80.1809 14.9164C80.3543 14.2978 80.3274 13.8433 80.1062 13.5671C79.7894 13.1672 79.0303 13.0838 78.4535 13.0838C76.7589 13.0838 75.7905 13.7426 75.396 15.158L75.3303 15.4457C74.9238 16.9619 76.3733 18.829 79.64 21.0039C83.2981 23.4148 84.6819 26.4126 83.7435 29.9081L83.6269 30.331C82.2043 35.5526 78.1815 38.2023 71.6721 38.2023C68.1245 38.2023 65.6947 37.4025 64.4215 35.8259C63.3277 34.4651 63.1125 32.5347 63.779 30.0864L64.4993 27.3591H72.0995L71.3165 30.3252C71.1491 30.938 71.179 31.3868 71.4002 31.6659C71.72 32.0658 72.4731 32.1549 73.0469 32.1578H73.0918C74.7654 32.1578 75.7218 31.499 76.0984 30.0893L76.1641 29.8016C76.5377 28.4293 75.0314 26.5824 71.8096 24.439C68.1484 22.0253 66.7617 19.0707 67.6822 15.6615L67.8675 14.9394C69.2901 9.69473 73.3159 7.03933 79.8223 7.03933M79.8223 6.63364C73.0858 6.63364 68.9226 9.39263 67.4461 14.8358L67.2608 15.5637C66.2895 19.1541 67.736 22.2554 71.5586 24.7699C74.5742 26.7837 76.0596 28.5099 75.7428 29.6952V29.7124L75.6799 30.0001C75.3482 31.2314 74.5711 31.7551 73.0858 31.7551H73.041C72.3864 31.7551 71.8933 31.6285 71.7319 31.4243C71.5705 31.22 71.5914 30.9035 71.7319 30.4345L72.5179 27.4656L72.6524 26.9564H64.1765L64.0957 27.2641L63.3725 29.9915C62.6732 32.5635 62.9153 34.6148 64.0898 36.082C65.4377 37.7621 67.9901 38.6137 71.6781 38.6137C78.4116 38.6137 82.5749 35.8633 84.0513 30.4403L84.1679 30.0174C85.1541 26.3349 83.7166 23.1933 79.894 20.6731C76.8336 18.6362 75.411 16.864 75.7547 15.5521L75.8235 15.2645C76.1672 14.0274 76.9591 13.5009 78.4684 13.5009C79.1319 13.5009 79.625 13.6217 79.7864 13.8231C79.9478 14.0245 79.9179 14.3438 79.7864 14.8185L79.0004 17.7703L78.8629 18.2795H87.3388L87.4225 17.9746L88.1428 15.2645C88.8452 12.6925 88.6031 10.6412 87.4285 9.17112C86.0806 7.48811 83.5283 6.63075 79.8402 6.625L79.8223 6.63364Z" fill="#F8F8F8"/>
<path d="M83.2891 37.7936L89.9598 13.144H85.2616L86.8904 7.18587H91.5827L93.352 0.652344H101.392L99.6253 7.18587H104.321L102.695 13.144H97.9994L91.3286 37.7936H83.2891Z" fill="#3A3A39"/>
<path d="M101.116 0.855739L99.3502 7.38637H104.048L102.533 12.9389H97.8289L91.1551 37.5885H83.5549L90.2257 12.9389H85.5275L87.0457 7.38637H91.7409L93.5073 0.855739H101.116ZM101.666 0.447166H93.1874L93.1067 0.752138L91.4212 6.98068H86.7259L86.6422 7.26837L85.1269 12.8209L84.9775 13.3387H89.6757L83.1395 37.4791L83.002 37.9883H91.4809L91.5616 37.6834L98.1367 13.3387H102.832L102.916 13.0366L104.431 7.48414L104.571 6.97492H99.8732L101.499 0.95351L101.639 0.441406L101.666 0.447166Z" fill="#F8F8F8"/>
<path d="M103.137 38.3687C99.5324 38.3687 97.0458 37.5459 95.7427 35.9204C94.604 34.5021 94.3739 32.5055 95.0583 29.9824L99.1528 14.8382C100.599 9.51299 104.694 6.81445 111.32 6.81445C114.936 6.81445 117.435 7.64014 118.741 9.26849C119.873 10.6811 120.104 12.6719 119.419 15.1834L115.328 30.3248C113.878 35.65 109.778 38.3572 103.137 38.3802V38.3687ZM109.924 13.2645C108.337 13.2645 107.467 13.8572 107.097 15.1863L103.005 30.3248C102.862 30.8685 102.877 31.2771 103.059 31.4986C103.241 31.7201 103.788 31.9013 104.532 31.9013C106.146 31.9013 107.025 31.3087 107.381 29.9853L111.472 14.8382C111.619 14.2973 111.601 13.8946 111.424 13.673C111.248 13.4515 110.701 13.2703 109.966 13.2645H109.924Z" fill="#3A3A39"/>
<path d="M111.321 7.02493C114.868 7.02493 117.298 7.82185 118.574 9.39841C119.665 10.7592 119.88 12.6896 119.217 15.1379L115.125 30.2792C113.703 35.5037 109.668 38.1592 103.138 38.1735C99.6021 38.1735 97.1604 37.3738 95.9111 35.8029C94.8143 34.4364 94.599 32.4973 95.2655 30.0491L99.3571 14.9048C100.78 9.68032 104.805 7.03357 111.312 7.03357M104.524 32.1205C106.228 32.1205 107.214 31.4616 107.579 30.0491L111.671 14.9048C111.835 14.292 111.805 13.8404 111.584 13.5613C111.267 13.1672 110.526 13.078 109.961 13.0751H109.916C108.239 13.0751 107.277 13.7339 106.886 15.1494L102.794 30.2878C102.627 30.9064 102.657 31.361 102.884 31.64C103.203 32.037 103.951 32.1205 104.524 32.1205ZM111.312 6.625C104.578 6.625 100.415 9.3754 98.9386 14.8013L94.8471 29.9455C94.1448 32.5347 94.3868 34.5888 95.5674 36.059C96.9123 37.7391 99.4527 38.5878 103.129 38.5878C109.877 38.5878 114.049 35.8173 115.526 30.3914L119.617 15.2501C120.317 12.6608 120.075 10.624 118.9 9.15672C117.552 7.47659 115 6.625 111.312 6.625ZM104.524 31.712C103.867 31.712 103.38 31.5911 103.218 31.3897C103.057 31.1883 103.075 30.8661 103.218 30.3914L107.31 15.2501C107.654 14.013 108.437 13.4836 109.931 13.4836H109.976C110.618 13.4836 111.103 13.6102 111.264 13.8116C111.425 14.013 111.401 14.3324 111.264 14.8042L107.173 29.9484C106.838 31.1854 106.049 31.712 104.527 31.712H104.524Z" fill="#F8F8F8"/>
</g>
<defs>
<clipPath id="clip0_3397_9992">
<rect width="138" height="49" fill="white" transform="translate(0.759766 0.300781)"/>
</clipPath>
</defs>
</svg>
