<svg width="316" height="195" viewBox="0 0 316 195" fill="none" xmlns="http://www.w3.org/2000/svg">
<g clip-path="url(#clip0_5210_2523)">
<path d="M15.7752 133.755C10.4605 133.927 6.6329 132.702 4.28536 130.168C1.93781 127.635 0.767578 124.351 0.767578 120.331C0.781932 116.589 1.52045 112.886 2.94279 109.426C5.31483 103.606 8.46441 98.1331 12.3055 93.1582C16.1729 88.0063 20.7374 83.4165 25.8677 79.5204C30.8703 75.7432 35.7881 73.662 40.6208 73.2765C45.6602 72.9391 48.1936 75.6035 48.1936 81.3726C48.0921 84.5021 47.3319 87.5747 45.9629 90.3907C44.3546 93.885 42.09 97.038 39.2921 99.6778C38.8394 100.346 38.2101 100.875 37.4745 101.206C36.806 101.515 36.0882 101.704 35.3541 101.764C34.936 101.804 34.5141 101.758 34.1151 101.626C33.955 101.587 33.8141 101.492 33.7181 101.358C33.6221 101.224 33.5771 101.06 33.5917 100.896C33.5917 100.208 34.7345 99.1406 37.0338 97.5917C39.878 95.662 42.1778 93.0329 43.7117 89.9571C45.4672 86.632 46.3485 83.5477 46.3485 80.7251C46.454 79.0589 45.9168 77.4157 44.8476 76.1334C43.8425 75.0457 42.2453 74.5639 40.0286 74.6809C36.2284 74.97 32.0359 76.9597 27.4509 80.6014C22.6147 84.4952 18.2546 88.9455 14.4605 93.8604C10.5876 98.7255 7.31882 104.042 4.72605 109.694C2.94409 113.286 1.989 117.231 1.93098 121.239C1.93098 124.778 2.92911 127.484 4.93244 129.322C6.93577 131.16 10.4398 132.172 15.3896 132.247C20.6144 132.005 25.729 130.661 30.3976 128.303C35.4296 125.877 40.1268 122.811 44.3726 119.181C48.1925 116.003 51.5703 112.329 54.4167 108.256C54.8297 107.732 55.1739 107.457 55.4493 107.429C55.6558 107.429 55.7936 107.547 55.8624 107.836C55.8386 108.093 55.7298 108.336 55.5528 108.524C52.6314 112.742 49.1894 116.575 45.3088 119.931C40.9951 123.74 36.2107 126.979 31.0723 129.569C26.3427 132.071 21.1197 133.501 15.7752 133.755Z" fill="#3A3A39"/>
<path d="M14.8042 134.34C9.85435 134.34 6.17113 133.067 3.83735 130.547C1.50358 128.027 0.167969 124.482 0.167969 120.331C0.186821 116.519 0.939583 112.747 2.38486 109.219C4.78109 103.355 7.95568 97.8392 11.8232 92.8212C15.7289 87.6252 20.3316 82.9921 25.502 79.0526C30.5758 75.2249 35.6496 73.0838 40.5718 72.6914C43.0502 72.533 44.9984 73.0633 46.3684 74.2887C47.9655 75.7138 48.7712 78.0889 48.7712 81.3589C48.6672 84.5655 47.8931 87.7147 46.4991 90.6043C44.8655 94.1451 42.5711 97.3417 39.7389 100.022C39.2318 100.759 38.5316 101.343 37.7149 101.709C36.9787 102.047 36.1888 102.255 35.3811 102.321C34.8738 102.366 34.363 102.306 33.8805 102.143C33.6151 102.058 33.384 101.889 33.2227 101.662C33.0613 101.435 32.9781 101.161 32.9853 100.883C32.9853 100.249 33.4191 99.306 36.6547 97.1168C39.4129 95.2325 41.6448 92.6759 43.1397 89.6886C44.847 86.453 45.7146 83.4308 45.7146 80.7391C45.8078 79.2107 45.3155 77.7045 44.3377 76.5261C43.4565 75.5692 42.0382 75.1492 40.0004 75.2662C36.3793 75.5416 32.2626 77.4965 27.7741 81.0557C22.9783 84.9265 18.6509 89.344 14.8798 94.2186C11.0471 99.0462 7.81106 104.319 5.24177 109.922C3.49163 113.442 2.55076 117.309 2.48806 121.239C2.48806 124.613 3.43798 127.188 5.30363 128.909C7.16927 130.63 10.6046 131.6 15.3548 131.662C20.4837 131.417 25.5033 130.094 30.0871 127.779C35.0707 125.369 39.7256 122.332 43.9384 118.74C47.7137 115.594 51.0544 111.959 53.8725 107.932C54.437 107.244 54.8843 106.893 55.3455 106.845C55.5978 106.825 55.8483 106.902 56.0454 107.06C56.2425 107.219 56.3714 107.447 56.4057 107.698V107.822C56.3822 108.199 56.2291 108.557 55.9721 108.834C53.028 113.082 49.5583 116.94 45.6457 120.317C41.2963 124.168 36.47 127.445 31.2851 130.065C26.482 132.598 21.1839 134.052 15.7608 134.327L14.8042 134.34ZM5.41388 130.451C7.69258 132.413 11.176 133.328 15.7403 133.204C20.9857 132.934 26.1094 131.524 30.755 129.074C35.7515 126.541 40.4116 123.394 44.6268 119.704C40.364 123.325 35.659 126.39 30.6242 128.826C25.8757 131.214 20.6779 132.577 15.3685 132.826C10.9557 132.736 7.61686 131.944 5.41388 130.451ZM41.4324 73.8205C41.1846 73.8205 40.9298 73.8205 40.6613 73.8205C35.9868 74.1922 31.1267 76.2507 26.2389 79.9407C21.1535 83.8091 16.6267 88.3613 12.7869 93.4683C8.98346 98.4063 5.85779 103.831 3.49314 109.598C2.22457 112.714 1.50947 116.026 1.37978 119.388C1.67732 115.924 2.61083 112.545 4.1335 109.419C6.74748 103.735 10.0366 98.3863 13.9298 93.4888C17.7558 88.5435 22.1455 84.0615 27.01 80.1333C31.6913 76.4158 36.0351 74.378 39.9248 74.082C42.3343 73.9581 44.1104 74.5089 45.2325 75.7274C46.3974 77.1127 46.9885 78.8911 46.8847 80.698C46.8847 83.6032 45.9762 86.7972 44.1794 90.1912C42.5917 93.3517 40.2218 96.0537 37.2951 98.0395C34.2316 100.105 34.142 100.793 34.142 100.869C34.142 100.945 34.1418 101.02 34.2795 101.062C34.5967 101.165 34.9323 101.201 35.2641 101.165C35.9264 101.11 36.5742 100.94 37.1781 100.663C37.8108 100.371 38.351 99.9112 38.7405 99.3337L38.8165 99.2443C41.5611 96.6559 43.7856 93.5667 45.3703 90.1431C46.6986 87.3933 47.4392 84.3971 47.5456 81.3451C47.5456 78.4055 46.8572 76.3127 45.5216 75.1079C44.3641 74.1889 42.9076 73.7303 41.4324 73.8205Z" fill="#3A3A39"/>
<path d="M51.6985 125.617C51.5191 125.637 51.3377 125.606 51.1751 125.527C51.1014 125.474 51.0434 125.402 51.007 125.318C50.9707 125.235 50.9575 125.143 50.9687 125.053V124.695C50.9687 122.168 51.6986 117.859 53.1443 111.738C54.59 105.618 56.2351 99.6357 58.0594 93.7703C59.8837 87.9049 61.5015 83.7812 62.8784 81.3786C62.9867 81.1927 63.1361 81.034 63.3151 80.9147C63.494 80.7954 63.6978 80.7186 63.911 80.6902C64.2355 80.6463 64.5651 80.7194 64.8405 80.8966C64.9745 80.9827 65.0838 81.1025 65.1575 81.2438C65.2311 81.3851 65.2665 81.5431 65.2603 81.7023C65.2201 82.0279 65.0724 82.3307 64.8405 82.5628C63.8767 83.6368 62.5848 86.4684 60.9647 91.0579C59.3446 95.6475 57.7383 100.71 56.1457 106.245C54.5623 111.78 53.3898 116.505 52.6279 120.419C53.6886 118.109 54.9172 115.879 56.304 113.749C57.6938 111.553 59.3088 109.509 61.123 107.649C62.851 105.901 64.6064 104.895 66.4032 104.716H67.0917C67.1599 104.703 67.2302 104.703 67.2984 104.716C67.3658 104.737 67.4375 104.737 67.5048 104.716C67.5048 104.781 67.5392 104.808 67.608 104.799C68.1491 104.97 68.6306 105.291 68.9963 105.725C69.3619 106.159 69.5966 106.688 69.6733 107.25C69.9572 108.624 70.0957 110.025 70.0864 111.428C70.0784 112.401 70.1473 113.372 70.2928 114.334C70.3532 115.021 70.6471 115.667 71.1258 116.165C71.2483 116.279 71.3973 116.362 71.5594 116.405C71.7215 116.449 71.8919 116.451 72.0552 116.413C73.9897 116.172 78.5746 112.337 85.8238 104.785L86.1337 104.647C86.282 104.637 86.429 104.681 86.5469 104.771C86.605 104.806 86.6541 104.854 86.6901 104.912C86.726 104.969 86.7475 105.034 86.7533 105.102L86.6501 105.391C83.743 108.628 80.5947 111.641 77.2322 114.403C74.8847 116.213 73.1018 117.156 71.8488 117.342C71.5792 117.39 71.3028 117.383 71.0357 117.323C70.7686 117.263 70.5159 117.15 70.2928 116.991C69.9642 116.72 69.6941 116.385 69.4988 116.006C69.3036 115.627 69.1873 115.213 69.157 114.788C69.0152 113.72 68.9463 112.644 68.9506 111.566C68.9608 110.446 68.873 109.326 68.6887 108.221C68.6636 107.821 68.5188 107.439 68.2732 107.123C68.0276 106.808 67.6926 106.574 67.3118 106.451H66.6923C64.7555 106.676 62.6672 108.188 60.4276 110.988C58.2627 113.666 56.3239 116.519 54.631 119.518C53.0155 122.409 52.1366 124.371 51.9943 125.404C51.9264 125.51 51.8207 125.586 51.6985 125.617Z" fill="#3A3A39"/>
<path d="M51.5735 126.189C51.3338 126.193 51.097 126.136 50.8851 126.024C50.7183 125.926 50.5827 125.783 50.4938 125.611C50.4049 125.439 50.3663 125.246 50.3825 125.053V124.695C50.3825 122.114 51.0711 117.811 52.5719 111.615C54.0176 105.509 55.6766 99.4507 57.4941 93.606C59.3115 87.7612 60.9361 83.5273 62.3611 81.1315C62.5234 80.8732 62.741 80.6538 62.9981 80.4895C63.2553 80.3252 63.5456 80.2203 63.8483 80.1816C64.3149 80.1277 64.786 80.2345 65.1838 80.4845C65.4009 80.6186 65.5789 80.8076 65.6998 81.0324C65.8206 81.2572 65.8801 81.5097 65.8722 81.7648C65.8388 82.2221 65.6464 82.6532 65.3283 82.9834C64.6881 83.6718 63.5179 85.7027 61.549 91.2997C59.9381 95.8571 58.3203 100.938 56.73 106.445C55.7042 110.018 54.8437 113.281 54.1622 116.193C54.6716 115.307 55.2177 114.408 55.8006 113.494C57.2144 111.268 58.8522 109.192 60.6885 107.299C62.5059 105.46 64.406 104.414 66.3267 104.187H67.1321C67.2625 104.176 67.3938 104.193 67.5176 104.235L68.2061 104.153V104.455C68.7654 104.697 69.2545 105.076 69.6276 105.558C70.0008 106.039 70.246 106.607 70.3403 107.209C70.6322 108.622 70.775 110.062 70.7668 111.505C70.7592 112.447 70.8259 113.389 70.9665 114.321C71.0084 114.879 71.2362 115.407 71.6136 115.821C71.6754 115.871 71.7482 115.907 71.8257 115.925C71.9032 115.943 71.9838 115.943 72.0613 115.925C73.0871 115.794 76.1917 114.135 85.4649 104.469L85.5476 104.387L86.1328 104.159C86.4359 104.124 86.7411 104.205 86.9863 104.387C87.119 104.473 87.2291 104.59 87.307 104.728C87.3849 104.866 87.4286 105.02 87.434 105.178L87.3994 105.371L87.2754 105.702L87.1792 105.846C84.2495 109.109 81.0758 112.145 77.6858 114.926C75.2349 116.813 73.3762 117.811 72.0062 117.983C71.659 118.04 71.304 118.028 70.9615 117.948C70.6189 117.867 70.2955 117.72 70.0098 117.515C69.6167 117.201 69.2919 116.81 69.0552 116.366C68.8184 115.922 68.6747 115.435 68.633 114.933C68.4847 113.843 68.4134 112.743 68.4195 111.643C68.43 110.554 68.3468 109.467 68.1714 108.393C68.0062 107.478 67.5864 107.209 67.2628 107.099H66.7674C65.0187 107.326 63.0635 108.772 60.95 111.409C58.8073 114.064 56.8871 116.892 55.2086 119.862C53.6252 122.685 52.7576 124.599 52.6337 125.556V125.749L52.4892 125.879C52.302 126.056 52.0576 126.158 51.8007 126.169H51.6219L51.5735 126.189ZM51.5735 124.241C51.5735 124.399 51.5735 124.551 51.5735 124.695V124.737C52.2407 122.854 53.0963 121.043 54.1276 119.332C55.839 116.308 57.7961 113.43 59.9792 110.727C62.3405 107.774 64.5228 106.218 66.6363 105.97H66.6847L67.5039 106.011C67.8953 106.117 68.2529 106.322 68.5432 106.605C68.8336 106.888 69.0471 107.24 69.1631 107.629C69.1631 107.574 69.1631 107.519 69.1631 107.471C69.1075 107.031 68.9342 106.615 68.6615 106.266C68.3889 105.917 68.027 105.648 67.6141 105.488H67.4901L67.2975 105.364L67.1801 105.33H66.4299C64.8671 105.516 63.208 106.445 61.6109 108.083C59.8293 109.913 58.2421 111.923 56.8745 114.08C55.5042 116.19 54.2872 118.397 53.2327 120.682L51.5735 124.241ZM64.0893 81.3104H63.979C63.852 81.3275 63.7307 81.3735 63.6244 81.4452C63.5181 81.5168 63.4297 81.6122 63.3662 81.7235C62.0444 84.0022 60.4405 88.1259 58.6299 93.9293C56.8193 99.7328 55.1877 105.777 53.7282 111.863C52.7919 115.814 52.1588 119.023 51.8283 121.46L52.0418 120.372C52.8059 116.441 53.9899 111.656 55.5733 106.149C57.1567 100.642 58.7814 95.4991 60.3923 90.9279C62.0446 86.2259 63.3524 83.3897 64.3851 82.2469C64.6467 81.9302 64.6537 81.7784 64.6537 81.7578C64.6618 81.6941 64.6519 81.6296 64.6251 81.5712C64.5983 81.5128 64.556 81.4628 64.5024 81.4274C64.379 81.349 64.2354 81.3083 64.0893 81.3104ZM69.755 114.61C69.755 114.679 69.755 114.747 69.755 114.816C69.7744 115.167 69.8658 115.51 70.0233 115.824C70.1808 116.137 70.4012 116.416 70.6707 116.641C70.1488 116.084 69.8267 115.37 69.755 114.61Z" fill="#3A3A39"/>
<path d="M82.5458 117.592C81.2997 117.757 80.6113 117.013 80.4805 115.347C80.4805 113.131 81.4625 110.567 83.4268 107.658C85.3911 104.748 87.5481 103.004 89.898 102.426C90.5256 102.345 91.1636 102.433 91.7458 102.681C92.3279 102.929 92.8331 103.328 93.2094 103.837C93.3897 103.257 93.6718 102.714 94.0423 102.233C94.2792 101.864 94.6489 101.6 95.075 101.496C95.4183 101.441 95.7701 101.517 96.0595 101.71C96.1962 101.779 96.3117 101.885 96.394 102.014C96.4763 102.144 96.5225 102.293 96.5278 102.446L96.4175 102.825C95.829 104.056 95.3119 105.32 94.8686 106.611C94.3471 107.989 94.0675 109.448 94.0423 110.921C94.0418 111.517 94.1114 112.11 94.2491 112.69C94.2665 112.817 94.3111 112.939 94.3802 113.047C94.4492 113.155 94.5408 113.247 94.6487 113.317C94.7567 113.386 94.8783 113.431 95.0054 113.449C95.1325 113.467 95.262 113.457 95.3849 113.42C96.0733 113.324 97.0783 112.635 98.3864 111.355C99.6944 110.074 101.182 108.56 102.841 106.804C104.975 104.431 107.148 102.182 109.36 100.057C111.572 97.9324 113.504 96.7369 115.156 96.4707C115.321 96.4185 115.495 96.405 115.665 96.4314C115.835 96.4577 115.997 96.5233 116.138 96.6226C116.279 96.722 116.394 96.8525 116.476 97.0042C116.558 97.1558 116.604 97.3244 116.609 97.4966C116.576 98.1082 116.436 98.7094 116.196 99.2728C115.053 102.371 113.906 105.466 112.754 108.56C114.013 105.92 115.484 103.388 117.153 100.987C118.778 98.6921 120.281 97.4232 121.662 97.18C122.97 97.0239 123.624 97.9946 123.624 100.092C123.591 102.189 123.278 104.273 122.695 106.288C122.884 105.944 123.09 105.611 123.314 105.29C124.057 103.97 124.868 102.69 125.745 101.455C126.75 100.03 127.81 99.2177 128.904 99.0318C129.443 98.9732 129.987 99.0838 130.461 99.3485C130.616 99.5122 130.733 99.7081 130.805 99.9223C130.876 100.136 130.899 100.363 130.873 100.587C130.806 101.936 130.451 103.255 129.834 104.457C129.385 105.279 129.104 106.182 129.008 107.114L129.111 107.19C129.098 107.326 129.135 107.463 129.214 107.575C129.283 107.658 129.455 107.672 129.731 107.623C130.649 107.472 132.255 106.522 134.55 104.773C136.856 103.025 139.017 101.228 141.014 99.376C142.334 98.2186 143.581 96.9792 144.745 95.6653C144.802 95.5733 144.877 95.4939 144.966 95.4323C145.055 95.3707 145.156 95.3282 145.262 95.3073C145.316 95.2899 145.374 95.2883 145.428 95.3029C145.483 95.3176 145.533 95.3479 145.571 95.39C145.643 95.4716 145.68 95.5775 145.675 95.6858L145.571 95.9752C144.852 96.7763 144.092 97.5391 143.293 98.2607C141.985 99.5136 140.415 100.911 138.584 102.453C136.753 103.995 134.917 105.407 133.076 106.687C131.744 107.726 130.211 108.478 128.574 108.897C128.111 108.967 127.638 108.922 127.197 108.766C126.922 108.633 126.784 108.296 126.784 107.754C126.817 107.075 126.976 106.407 127.252 105.785C127.562 105.014 127.892 104.236 128.237 103.458C128.782 102.487 129.133 101.418 129.269 100.312C129.269 100.074 129.235 99.929 129.166 99.8786C129.037 99.814 128.897 99.7764 128.753 99.7683C128.133 99.8739 127.323 100.581 126.323 101.889C125.335 103.178 124.436 104.533 123.631 105.944C123.096 106.821 122.635 107.743 122.254 108.697C122.122 109.008 121.908 109.276 121.635 109.475C121.355 109.67 121.035 109.799 120.698 109.854C120.409 109.925 120.107 109.925 119.817 109.854C119.71 109.828 119.616 109.766 119.551 109.678C119.485 109.59 119.453 109.482 119.459 109.372C119.663 108.319 119.939 107.282 120.285 106.267C120.698 105.115 121.079 103.956 121.428 102.791C121.746 101.785 121.92 100.74 121.945 99.6856C121.981 99.3527 121.909 99.017 121.738 98.7289C121.658 98.6482 121.557 98.5902 121.447 98.5612C121.337 98.5322 121.221 98.5329 121.112 98.5635C120.217 98.715 119.131 99.6743 117.855 101.441C116.57 103.228 115.393 105.09 114.33 107.018C113.266 108.968 112.525 110.393 112.107 111.293C112.03 111.495 111.883 111.663 111.694 111.768C111.471 111.897 111.226 111.981 110.971 112.015C110.727 112.067 110.473 112.045 110.241 111.954C110.144 111.917 110.06 111.849 110.005 111.761C109.949 111.673 109.923 111.569 109.931 111.465V111.375C110.344 110.163 110.833 108.766 111.384 107.176C112.548 104.298 113.516 101.345 114.282 98.3363C114.282 98.0334 114.11 97.9165 113.766 97.9716C113.142 98.068 112.141 98.7702 110.764 100.078C109.387 101.386 107.834 102.921 106.104 104.684C103.965 107.001 101.808 109.165 99.6325 111.175C97.457 113.193 95.7154 114.287 94.4074 114.48C94.0173 114.589 93.6005 114.55 93.2373 114.371C92.874 114.192 92.5894 113.885 92.4382 113.509C92.0984 112.739 91.9226 111.907 91.9219 111.066C91.92 110.221 92.0079 109.379 92.1838 108.553C92.3274 107.808 92.5158 107.072 92.7482 106.35C91.1632 108.886 89.4347 111.329 87.5712 113.668C85.6711 116.086 83.996 117.394 82.5458 117.592ZM82.4355 116.903C83.0643 116.821 83.9453 116.16 85.079 114.921C86.2149 113.682 87.3923 112.257 88.5971 110.646C89.8018 109.035 90.8619 107.506 91.7569 106.054C91.5706 105.675 91.2726 105.362 90.9034 105.158C90.5341 104.954 90.1113 104.868 89.6916 104.911C88.5901 105.069 87.413 105.895 86.1738 107.389C84.9381 108.878 83.8627 110.494 82.9656 112.208C82.0477 113.92 81.5887 115.228 81.5887 116.132C81.6025 116.711 81.8894 116.961 82.4493 116.883L82.4355 116.903Z" fill="#3A3A39"/>
<path d="M82.2163 118.183C81.7428 118.198 81.2784 118.05 80.9013 117.763C80.5722 117.463 80.3107 117.097 80.1338 116.689C79.957 116.281 79.8687 115.84 79.8753 115.395C79.8753 113.027 80.9012 110.335 82.9252 107.34C84.9492 104.345 87.2624 102.48 89.7477 101.874C90.3232 101.78 90.9125 101.814 91.4731 101.975C92.0337 102.136 92.5517 102.419 92.9901 102.803C93.1449 102.479 93.334 102.172 93.5545 101.888C93.8874 101.395 94.3982 101.049 94.9798 100.924C95.4601 100.86 95.9474 100.967 96.3566 101.227C96.5788 101.344 96.7647 101.519 96.8945 101.733C97.0243 101.948 97.0931 102.194 97.0931 102.445V102.59L96.9553 103.072C96.3722 104.282 95.862 105.525 95.4272 106.796C94.9275 108.117 94.6573 109.514 94.6285 110.927C94.6294 111.478 94.6943 112.028 94.8215 112.565C94.8903 112.84 94.952 112.916 95.2894 112.861C95.6267 112.806 96.3634 112.51 97.9537 110.961C99.2823 109.66 100.776 108.139 102.394 106.424C104.521 104.056 106.724 101.784 108.934 99.6641C111.254 97.4336 113.257 96.2218 115.054 95.912C115.541 95.8046 116.051 95.8939 116.472 96.1601C116.665 96.3105 116.826 96.4982 116.944 96.7124C117.063 96.9265 117.136 97.1624 117.161 97.4058V97.4956C117.133 98.1782 116.982 98.8499 116.713 99.4782L115.825 101.888C116.094 101.482 116.369 101.082 116.644 100.69C118.372 98.2251 119.976 96.8966 121.539 96.635C121.836 96.5833 122.142 96.5957 122.434 96.6717C122.726 96.7477 122.999 96.8853 123.233 97.0754C123.887 97.6261 124.203 98.6176 124.203 100.111C124.198 101.082 124.125 102.05 123.983 103.01C124.362 102.425 124.775 101.798 125.236 101.151C126.324 99.5953 127.515 98.6932 128.781 98.4798H128.878C129.557 98.4142 130.239 98.574 130.819 98.9343C131.045 99.146 131.22 99.4071 131.328 99.6973C131.437 99.9875 131.477 100.299 131.446 100.607C131.377 102.033 131.009 103.429 130.365 104.703C130.011 105.382 129.756 106.108 129.608 106.858L129.69 106.906V107.065C130.276 106.934 131.514 106.342 134.158 104.311C136.444 102.583 138.605 100.779 140.581 98.9481C141.88 97.8181 143.104 96.604 144.243 95.3133C144.345 95.1618 144.477 95.0319 144.629 94.9314C144.782 94.831 144.952 94.7619 145.132 94.7281C145.288 94.6943 145.451 94.7012 145.604 94.7482C145.757 94.7953 145.895 94.8805 146.006 94.9963C146.171 95.1869 146.26 95.4324 146.254 95.6848V95.8706L146.075 96.3046C145.343 97.1402 144.558 97.9286 143.727 98.6657C142.399 99.9324 140.808 101.351 138.991 102.886C137.173 104.421 135.294 105.874 133.483 107.147C131.673 108.421 130.041 109.213 128.733 109.46C128.153 109.546 127.561 109.482 127.012 109.275C126.753 109.121 126.546 108.895 126.415 108.625C126.284 108.354 126.235 108.051 126.276 107.753C126.306 107.003 126.476 106.265 126.778 105.578C127.095 104.8 127.425 104.015 127.77 103.237C128.264 102.355 128.597 101.393 128.754 100.394C128.002 100.859 127.363 101.484 126.881 102.225C125.913 103.496 125.03 104.83 124.238 106.218C123.704 107.058 123.243 107.942 122.861 108.861C122.692 109.294 122.4 109.667 122.021 109.935C121.788 110.107 121.527 110.237 121.25 110.321L120.686 111.388L120.961 110.397H120.837C120.445 110.473 120.041 110.451 119.66 110.335C119.438 110.273 119.243 110.139 119.105 109.955C118.967 109.771 118.893 109.546 118.896 109.316V109.226C119.105 108.146 119.388 107.081 119.742 106.039C120.165 104.873 120.543 103.726 120.878 102.597C121.182 101.643 121.349 100.651 121.374 99.6503C121.383 99.4578 121.363 99.2649 121.312 99.0788H121.243C120.741 99.1614 119.866 99.6845 118.373 101.722C117.099 103.484 115.935 105.324 114.889 107.23C113.829 109.157 113.085 110.583 112.686 111.464C112.56 111.774 112.332 112.032 112.039 112.194C111.749 112.364 111.428 112.476 111.096 112.524C110.737 112.59 110.368 112.554 110.029 112.421C109.823 112.345 109.646 112.206 109.523 112.025C109.399 111.843 109.335 111.628 109.34 111.409V111.14C109.753 109.928 110.237 108.529 110.793 106.941C111.884 104.212 112.803 101.419 113.547 98.5763C112.647 99.0604 111.832 99.6856 111.13 100.428C109.788 101.695 108.266 103.182 106.49 105.02C104.356 107.333 102.167 109.529 99.9985 111.532C97.7198 113.646 95.9023 114.775 94.4497 114.975C93.9294 115.104 93.3796 115.043 92.9007 114.802C92.4218 114.561 92.0456 114.155 91.8405 113.66C91.4702 112.82 91.2777 111.913 91.2758 110.996C91.2757 110.455 91.3104 109.914 91.3793 109.378C90.3329 110.906 89.1969 112.434 87.999 113.942C85.9337 116.524 84.1643 117.887 82.5396 118.072C82.434 118.116 82.3262 118.152 82.2163 118.183ZM89.9749 105.44H89.7752C88.8321 105.571 87.7718 106.335 86.6359 107.712C85.4227 109.165 84.3679 110.743 83.4896 112.421C82.6428 114.045 82.2092 115.278 82.2092 116.083C82.1994 116.161 82.1994 116.239 82.2092 116.317H82.3262C82.5465 116.317 83.1937 116.056 84.6049 114.52C85.7271 113.302 86.8974 111.877 88.0884 110.293C89.2794 108.71 90.1952 107.368 91.0213 106.046C90.9068 105.87 90.7524 105.723 90.5705 105.618C90.3887 105.512 90.1847 105.452 89.9749 105.44ZM90.3947 102.962C90.2564 102.963 90.1182 102.974 89.9816 102.996C87.8544 103.519 85.7961 105.192 83.9236 107.967C82.051 110.741 81.0735 113.247 81.0667 115.346C81.0701 115.371 81.0701 115.397 81.0667 115.422C81.348 114.192 81.8121 113.011 82.4435 111.918C83.3646 110.174 84.4625 108.529 85.7203 107.01C87.0971 105.378 88.3502 104.504 89.6169 104.318C90.1544 104.246 90.7008 104.345 91.1796 104.599C91.6585 104.853 92.0459 105.251 92.2879 105.736L92.3911 105.894L93.1552 104.655L92.77 104.201C92.4917 103.83 92.1338 103.526 91.7229 103.312C91.3119 103.098 90.858 102.978 90.3947 102.962ZM94.725 102.328L93.3481 106.5C93.1204 107.202 92.9363 107.917 92.7972 108.641C92.6324 109.431 92.5494 110.236 92.5494 111.044C92.5472 111.81 92.7068 112.567 93.0177 113.267C93.1829 113.646 93.465 114.018 94.3461 113.894H94.4564C94.2476 113.795 94.0651 113.648 93.9239 113.465C93.7828 113.282 93.6867 113.068 93.6439 112.841C93.4972 112.218 93.4234 111.58 93.4238 110.94C93.4532 109.404 93.7442 107.884 94.2843 106.445C94.7323 105.151 95.2519 103.882 95.8403 102.645L95.9022 102.411C95.9022 102.363 95.854 102.294 95.7163 102.204C95.5461 102.098 95.3439 102.054 95.1448 102.08C94.9824 102.117 94.8357 102.204 94.725 102.328ZM110.559 111.422C110.67 111.447 110.785 111.447 110.896 111.422C111.073 111.398 111.244 111.34 111.399 111.25C111.475 111.213 111.536 111.149 111.571 111.071C111.853 110.452 112.259 109.639 112.81 108.607L112.191 108.366L115.633 99.0721C115.843 98.5826 115.971 98.0613 116.011 97.5299C115.992 97.3563 115.911 97.1951 115.784 97.0754C115.62 97.0002 115.436 96.9834 115.261 97.0273C114.861 97.0931 114.47 97.2065 114.097 97.3648C114.28 97.3828 114.455 97.452 114.6 97.5645C114.709 97.6542 114.795 97.7681 114.851 97.8973C114.907 98.0265 114.932 98.1671 114.923 98.3077V98.4385C114.153 101.473 113.178 104.451 112.005 107.354C111.454 108.882 110.986 110.245 110.579 111.422H110.559ZM120.094 109.302C120.269 109.336 120.449 109.336 120.624 109.302C120.872 109.266 121.108 109.172 121.312 109.027H121.346L122.124 106.177C122.694 104.211 122.999 102.178 123.033 100.132C123.033 98.7555 122.73 98.17 122.476 97.9497C122.372 97.8701 122.252 97.8148 122.125 97.7874C121.998 97.76 121.866 97.7612 121.739 97.7914C121.5 97.8294 121.269 97.9013 121.05 98.0048C121.259 97.9587 121.476 97.9676 121.68 98.0304C121.884 98.0931 122.067 98.2075 122.214 98.3628C122.482 98.7511 122.604 99.222 122.558 99.6916C122.534 100.797 122.353 101.893 122.021 102.948C121.677 104.111 121.291 105.295 120.872 106.459C120.56 107.39 120.307 108.339 120.114 109.302H120.094ZM129.78 99.6641C129.876 99.8632 129.921 100.083 129.911 100.304C129.779 101.496 129.406 102.648 128.816 103.691C128.486 104.449 128.162 105.22 127.852 105.984C127.603 106.54 127.458 107.137 127.425 107.746C127.425 108.152 127.522 108.249 127.522 108.256C127.853 108.349 128.201 108.37 128.541 108.318C128.742 108.287 128.94 108.238 129.133 108.173C128.987 108.133 128.855 108.052 128.754 107.939C128.644 107.812 128.57 107.657 128.541 107.492L128.403 107.395V107.106C128.497 106.089 128.799 105.103 129.291 104.208C129.865 103.08 130.198 101.844 130.269 100.58C130.303 100.298 130.232 100.013 130.069 99.781C129.987 99.7298 129.896 99.6948 129.8 99.6778L129.78 99.6641Z" fill="#3A3A39"/>
<path d="M145.275 118.995C144.728 119.09 144.172 119.127 143.617 119.105C143.322 119.063 143.04 118.957 142.79 118.796C142.576 118.631 142.407 118.414 142.298 118.166C142.19 117.918 142.146 117.647 142.171 117.377V116.923C142.508 115.902 142.995 114.937 143.617 114.059C144.929 112.223 147.38 109.844 150.969 106.92C154.55 104 158.282 101.27 162.149 98.7417C162.514 97.6286 162.723 96.4701 162.769 95.2995C162.769 92.5917 161.527 91.4879 159.044 91.9881C156.901 92.3691 154.45 94.0006 151.692 96.8828C150.194 98.6877 148.828 100.597 147.603 102.597C146.4 104.579 145.106 106.982 143.72 109.805L143.513 109.839C143.43 109.922 143.32 109.973 143.203 109.983C143.031 110.023 142.85 110.006 142.687 109.935C142.549 109.871 142.481 109.72 142.481 109.481V109.213C142.481 106.812 143.187 102.696 144.601 96.8623C146.014 91.029 147.637 85.2921 149.468 79.6515C151.304 74.011 152.91 69.9605 154.287 67.5005C154.54 67.1683 154.909 66.9446 155.32 66.8742C155.64 66.8065 155.974 66.8603 156.256 67.0255C156.382 67.09 156.488 67.1888 156.561 67.3106C156.634 67.4323 156.672 67.572 156.669 67.7139C156.631 68.0447 156.486 68.3542 156.256 68.5953C155.214 69.8024 153.798 72.8429 152.008 77.717C150.219 82.5911 148.527 87.8414 146.935 93.4682C145.611 97.9296 144.574 102.471 143.83 107.065C144.596 105.614 145.563 103.944 146.728 102.053C147.948 100.107 149.298 98.2464 150.769 96.4834C153.945 93.2249 156.947 91.348 159.774 90.8523C161.058 90.5489 162.409 90.7457 163.553 91.4029C164.552 92.0363 165.054 93.1996 165.054 94.8793C165.044 95.5861 164.975 96.2907 164.848 96.986C169.469 93.9523 172.884 91.7953 175.091 90.5148C175.285 90.3648 175.495 90.2379 175.718 90.1363L176.234 89.9571C176.406 89.9162 176.587 89.9307 176.751 89.9985C176.809 90.02 176.86 90.0582 176.896 90.1084C176.933 90.1586 176.954 90.2187 176.957 90.2808C176.957 90.4598 176.716 90.7143 176.234 91.0378C175.972 91.2259 175.696 91.3942 175.408 91.5407C172.989 92.9818 169.332 95.2766 164.434 98.425C163.358 101.503 161.822 104.399 159.877 107.017C157.801 109.935 155.386 112.597 152.683 114.947C150.021 117.247 147.552 118.596 145.275 118.995ZM145.275 117.914C148.24 117.4 151.311 115.3 154.487 111.615C157.451 108.269 159.864 104.472 161.633 100.366C158.039 102.744 154.725 105.158 151.692 107.609C148.24 110.431 145.895 112.726 144.656 114.493C144.114 115.211 143.693 116.013 143.41 116.868V117.226C143.41 117.591 143.479 117.818 143.617 117.914L144.03 118.018C144.447 118.014 144.863 117.979 145.275 117.914Z" fill="#3A3A39"/>
<path d="M143.947 119.684H143.589C143.18 119.632 142.787 119.488 142.44 119.264C142.148 119.05 141.915 118.765 141.763 118.436C141.611 118.108 141.545 117.745 141.572 117.384V116.786C141.925 115.707 142.437 114.689 143.094 113.763C144.47 111.843 146.894 109.467 150.563 106.493C154.103 103.604 157.791 100.902 161.613 98.3977C161.929 97.3983 162.109 96.361 162.149 95.3136C162.149 94.0813 161.881 93.2482 161.344 92.8214C161.017 92.6259 160.652 92.5019 160.273 92.458C159.895 92.4141 159.511 92.4511 159.148 92.5666C157.131 92.9177 154.769 94.508 152.112 97.2824C150.641 99.0562 149.3 100.934 148.099 102.9C146.914 104.848 145.613 107.258 144.243 110.06L144.112 110.328L143.748 110.39C143.609 110.477 143.455 110.536 143.293 110.562C142.995 110.624 142.684 110.59 142.405 110.466C142.228 110.377 142.081 110.237 141.984 110.064C141.887 109.891 141.844 109.693 141.861 109.495V109.227C141.861 106.762 142.55 102.679 144.003 96.7452C145.414 90.928 147.052 85.1314 148.877 79.5345C150.701 73.9375 152.319 69.7656 153.737 67.2873L153.785 67.2117C154.123 66.7677 154.614 66.4657 155.162 66.3649C155.633 66.2667 156.124 66.3478 156.539 66.5921C156.749 66.7084 156.923 66.8791 157.044 67.0863C157.166 67.2934 157.229 67.5294 157.227 67.7693C157.191 68.2285 157.002 68.6623 156.69 69.0016C155.685 70.1651 154.294 73.1735 152.56 77.9512C150.825 82.7289 149.076 88.0712 147.5 93.6543C146.398 97.5509 145.558 100.945 144.994 103.802C145.373 103.161 145.779 102.494 146.205 101.805C147.438 99.836 148.802 97.9523 150.288 96.167C153.572 92.8006 156.711 90.8455 159.651 90.3292C161.088 90.0023 162.595 90.2311 163.871 90.9695C165.041 91.713 165.64 93.0346 165.64 94.9209C165.64 95.2032 165.64 95.513 165.592 95.8366C169.653 93.1862 172.737 91.2447 174.775 90.0606C174.988 89.9013 175.219 89.7673 175.464 89.6612L176.152 89.4344C176.45 89.3702 176.761 89.4015 177.04 89.5238C177.198 89.5909 177.333 89.7019 177.429 89.8434C177.525 89.985 177.579 90.1513 177.584 90.3225C177.584 90.7217 177.288 91.0865 176.606 91.5477C176.324 91.7482 176.027 91.9275 175.718 92.0845C173.371 93.4614 169.743 95.7539 164.965 98.8105C163.868 101.869 162.328 104.75 160.394 107.361C158.291 110.315 155.846 113.009 153.11 115.388C150.357 117.749 147.796 119.154 145.414 119.574C144.929 119.653 144.439 119.69 143.947 119.684ZM142.763 116.999V117.378C142.763 118.066 143.053 118.273 143.142 118.335C143.196 118.371 143.253 118.401 143.314 118.424H143.273C143.112 118.282 142.987 118.105 142.907 117.907C142.827 117.709 142.794 117.494 142.812 117.281V116.875C142.798 116.917 142.781 116.959 142.763 116.999ZM144.023 117.447H144.099C144.457 117.432 144.813 117.393 145.166 117.33C147.982 116.841 150.963 114.789 154.026 111.23C156.481 108.422 158.563 105.31 160.222 101.971C157.31 103.96 154.57 105.991 152.05 108.022C148.663 110.776 146.329 113.082 145.125 114.81C144.642 115.459 144.256 116.176 143.982 116.937V117.226C143.989 117.3 144.003 117.374 144.023 117.447ZM162.914 98.8243L162.184 100.58C160.389 104.738 157.947 108.586 154.949 111.98L154.749 112.207C156.434 110.495 157.983 108.653 159.382 106.7C161.291 104.128 162.8 101.283 163.857 98.2599L163.919 98.074L164.07 97.9775L164.249 96.9173C164.371 96.2539 164.438 95.5816 164.449 94.9072C164.449 93.4339 164.036 92.4289 163.216 91.9057C162.45 91.4497 161.556 91.254 160.669 91.348C161.194 91.4077 161.694 91.6073 162.115 91.9262C162.948 92.5733 163.368 93.7093 163.368 95.3065C163.32 96.5286 163.102 97.7382 162.721 98.9003V98.9621L162.914 98.8243ZM154.783 67.845C153.406 70.2613 151.837 74.3026 150.04 79.8444C148.243 85.3863 146.598 91.2103 145.18 97C144.295 100.417 143.628 103.887 143.183 107.388L143.231 107.017C143.981 102.398 145.025 97.8306 146.357 93.3444C147.94 87.7337 149.648 82.4193 151.445 77.5589C153.276 72.5678 154.701 69.5319 155.788 68.2651C156.057 67.9209 156.064 67.7624 156.064 67.7418C156.064 67.7211 156.064 67.6042 155.933 67.5354C155.778 67.4497 155.597 67.4225 155.424 67.4594C155.171 67.5065 154.943 67.6435 154.783 67.845Z" fill="#3A3A39"/>
<path d="M176.123 102.244C174.86 102.532 173.538 102.416 172.344 101.914C171.858 101.68 171.454 101.304 171.186 100.836C170.918 100.367 170.798 99.8286 170.843 99.2909C170.941 97.8602 171.348 96.4674 172.034 95.2084C172.895 93.4595 173.993 91.8378 175.298 90.3894C177.845 87.8468 179.983 86.4288 181.714 86.1351C183.09 85.8942 183.848 86.369 183.992 87.5463C183.992 88.6799 182.886 90.2334 180.674 92.2069C178.358 94.2425 175.608 95.7234 172.633 96.5372C172.386 97.2588 172.245 98.0124 172.213 98.7746C172.213 100.75 173.322 101.494 175.531 100.984C177.459 100.654 179.892 99.5891 182.829 97.79C185.675 96.0621 188.39 94.1272 190.952 92.0005C192.896 90.4899 194.637 88.7333 196.129 86.7751C196.172 86.6943 196.231 86.623 196.302 86.565C196.373 86.5071 196.455 86.4639 196.542 86.438C196.618 86.428 196.696 86.4365 196.768 86.4629C196.839 86.4892 196.904 86.5326 196.955 86.5892C197.013 86.6342 197.061 86.6904 197.097 86.7543C197.132 86.8182 197.154 86.8884 197.162 86.961L197.059 87.1607C195.22 89.2948 193.232 91.2964 191.111 93.1502C188.336 95.6738 185.341 97.9434 182.161 99.9313C180.291 101.032 178.25 101.814 176.123 102.244ZM173.122 95.4703C174.54 94.7963 175.907 94.0183 177.211 93.1431C178.594 92.2423 179.894 91.2194 181.094 90.0865C182.196 89.0263 182.746 88.2279 182.746 87.6841C182.746 87.2641 182.402 87.0851 181.714 87.1402C180.605 87.333 179.194 88.1935 177.466 89.7218C175.729 91.2684 174.292 93.1213 173.225 95.1879C173.156 95.2567 173.122 95.3047 173.122 95.3392V95.4703Z" fill="#3A3A39"/>
<path d="M174.624 102.955C173.746 102.973 172.875 102.791 172.077 102.425C171.493 102.146 171.006 101.699 170.68 101.141C170.353 100.582 170.202 99.9382 170.246 99.2928C170.341 97.778 170.766 96.3025 171.492 94.9696C172.38 93.1839 173.508 91.5276 174.844 90.047C177.529 87.3622 179.739 85.9166 181.612 85.5931C181.971 85.5005 182.345 85.4813 182.712 85.5369C183.079 85.5925 183.43 85.7216 183.746 85.9165C183.992 86.1043 184.194 86.343 184.339 86.6163C184.484 86.8896 184.568 87.1912 184.586 87.5C184.586 88.8769 183.443 90.5429 181.082 92.6495C178.771 94.6728 176.042 96.1609 173.089 97.0073C172.909 97.5856 172.808 98.1851 172.786 98.7902C172.753 99.069 172.782 99.3517 172.873 99.6175C172.964 99.8832 173.113 100.125 173.309 100.325C173.709 100.628 174.404 100.67 175.375 100.449C177.247 100.119 179.629 99.0726 182.486 97.3239C185.307 95.6114 187.999 93.6947 190.541 91.5893C192.443 90.1101 194.147 88.3907 195.608 86.4741C195.695 86.3257 195.813 86.197 195.953 86.0963C196.092 85.9956 196.251 85.925 196.42 85.8889C196.588 85.8605 196.76 85.8734 196.922 85.9262C197.084 85.979 197.23 86.0703 197.349 86.1921C197.466 86.2879 197.562 86.4071 197.629 86.5424C197.697 86.6776 197.735 86.8256 197.742 86.9767V87.1145L197.515 87.5276C195.654 89.6839 193.643 91.7061 191.498 93.5789C188.695 96.127 185.67 98.4192 182.459 100.429C180.538 101.557 178.445 102.361 176.263 102.811C175.722 102.906 175.174 102.954 174.624 102.955ZM171.726 97.5992C171.55 98.147 171.455 98.7175 171.444 99.2928C171.394 99.7222 171.48 100.157 171.69 100.534C171.9 100.912 172.223 101.215 172.614 101.399C173.69 101.847 174.88 101.946 176.015 101.682C178.063 101.263 180.028 100.509 181.832 99.4511C184.012 98.0871 186.104 96.588 188.097 94.9625C186.513 96.1191 184.847 97.2342 183.119 98.2944C180.09 100.146 177.612 101.213 175.609 101.564C174.307 101.867 173.275 101.75 172.573 101.22C172.228 100.922 171.96 100.546 171.79 100.124C171.62 99.7011 171.553 99.2438 171.595 98.7902C171.599 98.3898 171.643 97.9909 171.726 97.5992ZM172.524 95.534C172.449 95.6992 172.373 95.8577 172.304 96.016L172.435 95.9814H172.524V95.534ZM182.7 86.6738C182.809 86.7176 182.909 86.7806 182.995 86.8597C183.109 86.9588 183.2 87.0817 183.26 87.2197C183.321 87.3577 183.35 87.5076 183.347 87.6584C183.347 88.3468 182.761 89.2693 181.515 90.4672C180.29 91.624 178.963 92.6676 177.55 93.5857C176.862 94.0607 176.139 94.4874 175.485 94.866C177.24 94.0909 178.865 93.0507 180.304 91.7819C182.879 89.4825 183.422 88.2023 183.422 87.5414C183.415 87.4013 183.378 87.2642 183.316 87.1387C183.253 87.0132 183.165 86.9018 183.058 86.8116C182.948 86.7484 182.826 86.7107 182.7 86.7014V86.6738ZM181.949 87.6789H181.763C180.834 87.8441 179.505 88.6635 177.874 90.1092C176.577 91.2638 175.45 92.5966 174.528 94.0677C175.271 93.6546 176.056 93.1796 176.875 92.6357C178.23 91.7596 179.5 90.7595 180.669 89.648C181.942 88.4295 182.128 87.8716 182.149 87.6927C182.082 87.6875 182.014 87.6921 181.949 87.7064V87.6789Z" fill="#3A3A39"/>
<path d="M200.447 104.897C198.795 105.166 197.894 104.326 197.756 102.363C197.86 100.703 198.21 99.0677 198.795 97.5102C199.014 96.8426 199.29 96.1953 199.621 95.5757C200.385 94.2838 200.811 92.8207 200.86 91.3211C200.883 90.5669 200.626 89.8311 200.138 89.2558C199.634 88.6808 199.078 88.1531 198.479 87.6792C197.957 87.3127 197.472 86.8953 197.033 86.4331C196.617 85.9855 196.394 85.3918 196.413 84.781C196.434 84.341 196.503 83.9045 196.62 83.4798C196.76 82.9155 196.993 82.3785 197.308 81.8898C197.456 81.6455 197.656 81.4372 197.894 81.28C198.132 81.1228 198.402 81.0205 198.685 80.9808C199.118 80.9013 199.565 80.9368 199.979 81.084C200.358 81.2355 200.544 81.4558 200.544 81.7725L200.441 82.1513C199.477 83.6842 198.995 84.8132 198.995 85.5383C198.973 85.9124 199.044 86.2861 199.201 86.6261C199.415 86.9534 199.697 87.2303 200.028 87.4382C200.39 87.7851 200.735 88.1506 201.06 88.5331C201.863 89.5193 202.303 90.7514 202.306 92.0233C202.267 93.9392 201.796 95.8215 200.929 97.5307V97.6201C200.407 98.9405 200.094 100.334 200 101.751C200 103.072 200.551 103.61 201.659 103.369C203.311 103.098 205.744 101.526 208.956 98.6528C212.169 95.7797 215.205 92.7965 218.064 89.7032C220.928 86.6053 222.808 84.3105 223.703 82.8189C223.978 82.4196 224.226 82.2062 224.432 82.1718C224.492 82.1589 224.553 82.1586 224.612 82.1711C224.671 82.1837 224.727 82.2089 224.776 82.2448C224.825 82.2806 224.866 82.3261 224.895 82.3789C224.925 82.4316 224.943 82.4903 224.949 82.5506L224.742 83.1218C222.902 86.0443 220.751 88.759 218.326 91.2179C215.293 94.4572 212.04 97.4844 208.592 100.278C205.168 103.027 202.453 104.567 200.447 104.897Z" fill="#3A3A39"/>
<path d="M199.883 105.488C199.316 105.506 198.758 105.334 198.299 104.999C197.933 104.669 197.643 104.264 197.447 103.811C197.251 103.359 197.154 102.869 197.164 102.376C197.258 100.644 197.615 98.9351 198.224 97.3097C198.456 96.6119 198.746 95.9348 199.091 95.2858C199.809 94.0733 200.214 92.7008 200.269 91.2927C200.296 90.666 200.087 90.0518 199.683 89.5716C199.2 89.0268 198.67 88.5249 198.1 88.071C197.554 87.6875 197.049 87.249 196.592 86.7627C196.332 86.4871 196.13 86.1626 195.996 85.8081C195.863 85.4536 195.801 85.0761 195.814 84.6975C195.836 84.2159 195.91 83.7382 196.035 83.2725C196.191 82.6527 196.442 82.0608 196.778 81.5172C196.974 81.1993 197.238 80.9288 197.551 80.7252C197.864 80.5217 198.219 80.3902 198.589 80.34C199.131 80.2402 199.689 80.2876 200.206 80.4775C200.472 80.55 200.708 80.7065 200.878 80.9235C201.048 81.1406 201.143 81.4066 201.15 81.6822V81.8268L200.978 82.3569C199.855 84.1468 199.601 85.0281 199.601 85.4481C199.58 85.7282 199.628 86.0091 199.738 86.2673C199.923 86.519 200.157 86.7299 200.427 86.8868C200.829 87.26 201.211 87.6555 201.569 88.071C202.453 89.1648 202.939 90.5267 202.946 91.933C202.92 93.8928 202.462 95.8226 201.604 97.585L201.569 97.7366C201.074 98.9941 200.773 100.319 200.675 101.668C200.675 102.184 200.771 102.556 200.95 102.686C201.05 102.736 201.158 102.765 201.269 102.772C201.38 102.78 201.492 102.764 201.597 102.728C203.167 102.473 205.514 100.938 208.619 98.1494C211.724 95.3613 214.815 92.3115 217.693 89.1998C219.75 87.0996 221.614 84.8187 223.262 82.3844C223.381 82.1587 223.545 81.9597 223.744 81.7999C223.943 81.64 224.173 81.5226 224.419 81.455C224.55 81.4292 224.686 81.4302 224.817 81.4577C224.948 81.4851 225.073 81.5386 225.183 81.615C225.294 81.6913 225.388 81.7888 225.46 81.9021C225.532 82.0153 225.58 82.1418 225.603 82.2742L225.644 82.4325L225.341 83.245C223.481 86.2094 221.302 88.9611 218.842 91.451C215.791 94.7088 212.52 97.7543 209.053 100.566C205.48 103.457 202.712 105.034 200.592 105.385C200.359 105.437 200.122 105.472 199.883 105.488ZM200.902 89.2482C201.286 89.8671 201.48 90.5853 201.46 91.3135C201.407 92.9066 200.958 94.4613 200.152 95.8364C199.836 96.4254 199.571 97.0403 199.36 97.6744C198.798 99.1776 198.46 100.755 198.355 102.356C198.342 102.682 198.396 103.008 198.515 103.312C198.633 103.616 198.813 103.893 199.043 104.125C199.237 104.246 199.454 104.327 199.68 104.361C199.906 104.395 200.137 104.383 200.358 104.325C200.867 104.231 201.366 104.086 201.845 103.891H201.797C201.522 103.972 201.233 103.989 200.95 103.943C200.668 103.896 200.4 103.787 200.165 103.623C199.909 103.38 199.713 103.08 199.593 102.748C199.474 102.415 199.434 102.059 199.477 101.709C199.568 100.266 199.884 98.8472 200.413 97.5023V97.3786L200.468 97.2684C201.285 95.621 201.724 93.8127 201.755 91.9744C201.743 91.0103 201.446 90.0715 200.902 89.2758V89.2482ZM220.68 87.6441C220.047 88.367 219.304 89.1586 218.546 90.0123C217.169 91.5131 215.74 92.9908 214.257 94.4457C215.51 93.2433 216.729 92.0088 217.913 90.7421C218.936 89.6635 219.859 88.6401 220.68 87.6717V87.6441ZM199.181 81.4483C199.05 81.4386 198.919 81.4386 198.789 81.4483C198.587 81.4721 198.394 81.5416 198.223 81.6513C198.053 81.761 197.909 81.9082 197.804 82.0816C197.529 82.5247 197.325 83.0078 197.198 83.5135C197.091 83.893 197.026 84.2832 197.005 84.677C196.989 85.1464 197.157 85.6036 197.474 85.9506C197.891 86.3872 198.352 86.7792 198.85 87.1207C199.484 87.6228 200.071 88.1806 200.606 88.787C200.697 88.8921 200.782 89.0024 200.861 89.1175C200.785 89.0004 200.695 88.8834 200.606 88.7595C200.234 88.3395 199.918 87.9884 199.635 87.7406C199.256 87.4952 198.935 87.171 198.692 86.7903C198.485 86.3623 198.39 85.8884 198.417 85.4135C198.417 84.5873 198.905 83.4032 199.911 81.7992L199.959 81.6133C199.903 81.5632 199.837 81.5259 199.766 81.5034C199.574 81.4613 199.375 81.4566 199.181 81.4896V81.4483Z" fill="#3A3A39"/>
<path d="M226.015 97.7289C225.507 97.8347 224.98 97.8025 224.488 97.6354C223.997 97.4683 223.559 97.1726 223.22 96.7789C222.532 95.9803 222.188 94.5344 222.188 92.4278C222.213 90.8686 222.351 89.3135 222.601 87.7742C223.682 82.2132 225.258 76.7599 227.309 71.4791C229.321 65.8563 231.796 60.4106 234.71 55.1978C234.881 54.9173 235.107 54.6744 235.374 54.4839C235.642 54.2933 235.945 54.1589 236.266 54.0892C236.547 54.039 236.836 54.08 237.092 54.2062C237.189 54.2595 237.269 54.3385 237.324 54.4344C237.378 54.5304 237.405 54.6397 237.402 54.7501C237.373 55.1325 237.229 55.4972 236.989 55.7965C235.744 57.9063 234.619 60.0852 233.622 62.3228C231.938 65.8843 230.196 69.9968 228.397 74.6598C226.741 78.859 225.427 83.1845 224.466 87.595C224.163 89.1848 223.988 90.7963 223.943 92.414C224.087 95.3399 224.982 96.6755 226.635 96.4414C228.012 96.2487 229.671 95.3401 231.605 93.7223C233.678 91.9778 235.615 90.0792 237.402 88.0428C239.84 85.3337 242.122 82.4879 244.238 79.5198C244.347 79.4008 244.492 79.3213 244.651 79.2929C244.826 79.2633 245.006 79.287 245.167 79.3614C245.227 79.3854 245.278 79.4262 245.314 79.4788C245.351 79.5313 245.372 79.5935 245.374 79.6576L245.27 79.8502C243.243 82.7156 241.067 85.4731 238.751 88.1114C236.692 90.4743 234.423 92.6453 231.97 94.5966C229.657 96.4623 227.709 97.4948 226.015 97.7289Z" fill="#3A3A39"/>
<path d="M225.416 98.3498C224.911 98.3612 224.41 98.2589 223.95 98.0503C223.49 97.8418 223.083 97.5323 222.758 97.1451C221.974 96.2363 221.588 94.6873 221.588 92.4292C221.616 90.8448 221.757 89.2646 222.008 87.7C223.098 82.0999 224.683 76.6074 226.744 71.2876C228.772 65.6369 231.263 60.1636 234.193 54.9236C234.411 54.5689 234.701 54.2635 235.044 54.0265C235.386 53.7894 235.774 53.6261 236.183 53.5468C236.599 53.4726 237.028 53.5407 237.401 53.7397C237.585 53.8434 237.738 53.9945 237.843 54.1774C237.948 54.3603 238.003 54.568 238 54.7791C237.975 55.2805 237.795 55.7618 237.484 56.1559C236.26 58.2412 235.152 60.3926 234.166 62.5999C232.493 66.1315 230.723 70.2689 228.954 74.8951C227.315 79.0717 226.01 83.372 225.051 87.7551C224.749 89.3146 224.579 90.8964 224.541 92.4844C224.645 94.591 225.14 95.4102 225.54 95.7269C225.682 95.8344 225.847 95.91 226.021 95.948C226.196 95.9861 226.377 95.9858 226.551 95.9474C227.804 95.7684 229.374 94.901 231.212 93.3658C233.26 91.6357 235.177 89.7557 236.947 87.7413C239.37 85.0562 241.636 82.2333 243.735 79.2872L243.811 79.1978C244.01 78.979 244.281 78.8376 244.575 78.7985C244.876 78.7522 245.183 78.8005 245.456 78.9363C245.608 79.0063 245.737 79.1176 245.828 79.2577C245.919 79.3977 245.969 79.5607 245.972 79.7279V79.8654L245.8 80.1824C243.754 83.0924 241.555 85.8912 239.212 88.5673C237.122 90.9622 234.818 93.1606 232.327 95.1349C229.904 97.035 227.86 98.0813 226.084 98.336C225.862 98.3564 225.638 98.361 225.416 98.3498ZM236.499 54.6483H236.348C236.109 54.7082 235.884 54.8159 235.688 54.965C235.491 55.1141 235.327 55.3016 235.205 55.5159C232.32 60.6855 229.868 66.085 227.874 71.6594C225.834 76.9093 224.265 82.3304 223.185 87.8583C222.947 89.3664 222.813 90.8889 222.786 92.4155C222.786 94.3706 223.082 95.7131 223.681 96.4015C223.953 96.7188 224.306 96.9564 224.703 97.0886C225.099 97.2208 225.524 97.2428 225.932 97.1521C226.103 97.127 226.274 97.0926 226.442 97.0489C225.845 97.1047 225.25 96.9269 224.782 96.5531C223.915 95.8647 223.447 94.529 223.35 92.4568C223.387 90.7907 223.563 89.1305 223.874 87.4933C224.846 83.0462 226.172 78.6839 227.839 74.4477C229.629 69.7939 231.391 65.6289 233.085 62.056C234.09 59.7879 235.227 57.581 236.492 55.447C236.667 55.2402 236.778 54.9863 236.809 54.7172C236.718 54.656 236.608 54.6313 236.499 54.6483Z" fill="#3A3A39"/>
<path d="M241.339 91.9824C240.162 92.127 239.439 91.3835 239.164 89.7312C239.164 87.7554 240.128 85.284 242.062 82.3444C243.997 79.4048 246.096 77.615 248.375 76.9886C249.037 76.9341 249.703 77.0401 250.315 77.2978C250.928 77.5555 251.469 77.9572 251.893 78.4686C252.264 78.1245 252.58 77.7249 252.829 77.2844C252.937 77.0381 253.076 76.8067 253.242 76.5959C253.321 76.5079 253.416 76.4367 253.522 76.3858C253.629 76.335 253.744 76.3059 253.862 76.3001C254.178 76.2778 254.491 76.3707 254.743 76.5616C254.881 76.6377 254.996 76.7481 255.078 76.882C255.16 77.0159 255.206 77.1687 255.211 77.3257L255.108 77.6975C254.508 78.9178 253.989 80.1758 253.552 81.4633C253.041 82.8182 252.761 84.2494 252.726 85.6971C252.69 86.4063 252.87 87.1098 253.242 87.7143C253.428 87.9671 253.683 88.1605 253.976 88.2717C254.269 88.3828 254.588 88.4067 254.895 88.3406C256.21 88.2029 257.917 87.3838 260.023 85.9106C262.13 84.4373 264.154 82.8609 266.178 81.1743C268.202 79.4876 269.703 78.1587 270.735 77.1674L271.045 76.8716L271.458 76.6581C271.526 76.6543 271.595 76.6658 271.658 76.6921C271.721 76.7183 271.778 76.7583 271.823 76.8094C271.918 76.8995 271.975 77.0228 271.981 77.1536C271.973 77.2279 271.95 77.2999 271.914 77.365C271.877 77.4301 271.827 77.4871 271.768 77.5324L271.355 77.9318C270.253 78.9874 268.684 80.3642 266.646 82.0624C264.589 83.7981 262.428 85.4074 260.175 86.8814C257.88 88.3776 255.913 89.2151 254.275 89.3941C253.78 89.5034 253.265 89.4808 252.782 89.3285C252.299 89.1763 251.864 88.8997 251.521 88.5265C250.911 87.7418 250.599 86.766 250.64 85.7728C250.643 84.9122 250.746 84.0549 250.95 83.2187C251.156 82.3513 251.363 81.608 251.57 80.9884C250.018 83.4574 248.323 85.834 246.496 88.1066C244.577 90.5161 242.858 91.808 241.339 91.9824ZM241.133 91.294C242.166 91.1655 243.614 89.9196 245.477 87.556C247.34 85.1924 248.99 82.909 250.427 80.706C250.249 80.3171 249.955 79.9928 249.585 79.7782C249.215 79.5637 248.787 79.4692 248.361 79.508C247.26 79.6388 246.083 80.4375 244.844 81.9108C243.601 83.3749 242.525 84.9727 241.635 86.6746C240.74 88.3751 240.259 89.6487 240.259 90.4886C240.3 91.1495 240.575 91.418 241.133 91.2872V91.294Z" fill="#3A3A39"/>
<path d="M241.064 92.5675C240.183 92.5675 238.958 92.1269 238.572 89.8138V89.7173C238.572 87.652 239.577 85.0498 241.567 82.0276C243.557 79.0054 245.808 77.0846 248.217 76.4237H248.314C248.96 76.3576 249.614 76.4333 250.228 76.6449C250.843 76.8565 251.404 77.1991 251.873 77.6493C252.037 77.4572 252.182 77.2497 252.307 77.0297C252.427 76.7365 252.587 76.461 252.782 76.2106C253.043 75.9172 253.408 75.737 253.8 75.708C254.26 75.6689 254.717 75.7985 255.088 76.0727C255.305 76.1979 255.486 76.3774 255.612 76.5934C255.739 76.8095 255.807 77.0546 255.811 77.3051V77.4496L255.666 77.9246C255.083 79.1267 254.575 80.3635 254.145 81.6282C253.653 82.9231 253.383 84.2918 253.346 85.6765C253.314 86.2725 253.46 86.8644 253.766 87.3767C253.918 87.5901 254.172 87.8244 254.861 87.7555C256.052 87.6247 257.683 86.8397 259.68 85.4284C261.676 84.0171 263.81 82.3786 265.793 80.7264C267.775 79.0741 269.304 77.7112 270.323 76.7474L270.77 76.348L271.294 76.0795H271.418C271.576 76.0686 271.735 76.0934 271.882 76.1517C272.03 76.2101 272.163 76.3008 272.271 76.417C272.464 76.6114 272.575 76.8727 272.581 77.1467C272.574 77.2971 272.537 77.4446 272.47 77.5797C272.404 77.7148 272.31 77.8346 272.195 77.9316L271.789 78.3239C270.687 79.3703 269.139 80.7333 267.046 82.5026C264.967 84.2465 262.788 85.8672 260.52 87.3562C258.138 88.912 256.114 89.7655 254.324 89.9583C253.73 90.0783 253.116 90.0423 252.54 89.8541C251.965 89.6659 251.448 89.3318 251.04 88.8843C250.346 87.9886 249.991 86.8771 250.035 85.745C250.037 85.2152 250.076 84.6862 250.152 84.1618C249.174 85.5386 248.087 86.9912 246.965 88.4231C244.899 90.9978 243.088 92.3541 241.395 92.5537C241.285 92.5647 241.175 92.5693 241.064 92.5675ZM248.637 80.0655H248.472C247.529 80.1756 246.475 80.9191 245.34 82.2615C244.117 83.6887 243.053 85.2447 242.166 86.9017C241.312 88.5264 240.886 89.7173 240.886 90.4608C240.879 90.5456 240.879 90.6309 240.886 90.7156H240.955H241.016C241.505 90.6537 242.662 90.1166 244.968 87.2046C246.723 84.9878 248.314 82.8054 249.704 80.7126C249.588 80.5256 249.428 80.3694 249.239 80.2568C249.05 80.1442 248.837 80.0785 248.617 80.0655H248.637ZM239.777 89.7035V89.8C240.065 88.6194 240.514 87.4843 241.113 86.4267C242.031 84.6937 243.129 83.0624 244.39 81.5597C245.766 79.9556 247.026 79.1019 248.307 78.9505C248.847 78.896 249.391 79.0088 249.865 79.2735C250.339 79.5382 250.72 79.9421 250.957 80.4305L251.088 80.6369L251.956 79.2601L251.887 79.329L251.46 78.8883C251.103 78.4517 250.648 78.1053 250.133 77.8768C249.618 77.6484 249.056 77.5447 248.493 77.5736C246.427 78.1726 244.397 79.8865 242.565 82.6747C240.734 85.4628 239.777 87.831 239.757 89.6897L239.777 89.7035ZM253.332 77.6422L252.176 81.1257C251.976 81.7315 251.77 82.4681 251.563 83.308C251.374 84.1042 251.277 84.9198 251.274 85.7383C251.224 86.6121 251.491 87.4745 252.024 88.1683C252.266 88.43 252.568 88.6293 252.904 88.7492C253.239 88.8691 253.599 88.906 253.952 88.8568C253.468 88.7343 253.045 88.441 252.761 88.0308C252.325 87.3329 252.111 86.519 252.148 85.697C252.184 84.188 252.475 82.696 253.009 81.284C253.45 79.9916 253.97 78.7271 254.564 77.4977L254.627 77.2637C254.627 77.2086 254.571 77.133 254.42 77.0297C254.287 76.9236 254.122 76.8653 253.952 76.8644C253.87 76.8718 253.792 76.9004 253.725 76.9471C253.594 77.1282 253.485 77.3248 253.401 77.5323C253.369 77.5626 253.34 77.5946 253.312 77.6284L253.332 77.6422Z" fill="#3A3A39"/>
<path d="M272.704 88.5951C272.173 88.6929 271.624 88.6402 271.121 88.4432C270.617 88.2462 270.179 87.9125 269.854 87.4798C269.267 86.6311 268.959 85.6206 268.973 84.5886C269.008 82.7991 269.36 81.0298 270.013 79.3632C270.701 77.5044 271.286 76.0153 271.768 74.8955C271.86 74.6954 272.006 74.525 272.19 74.4033C272.374 74.2817 272.587 74.2137 272.808 74.207C273.145 74.1771 273.484 74.2438 273.785 74.3996C274.102 74.5511 274.253 74.751 274.253 74.9919V75.1708C273.48 76.7653 272.791 78.399 272.188 80.0654C271.455 81.8288 271.036 83.7066 270.949 85.6142C270.87 86.191 271.018 86.7762 271.362 87.2458C271.788 87.5372 272.301 87.6709 272.815 87.6243C274.329 87.5004 276.14 86.633 278.246 85.0427C280.318 83.489 282.292 81.8108 284.16 80.0173C285.991 78.2481 287.354 76.9333 288.249 76.0384C288.304 75.935 288.374 75.8399 288.456 75.756C288.567 75.6442 288.712 75.5737 288.869 75.5563C289.015 75.5483 289.159 75.587 289.282 75.6666C289.342 75.6922 289.394 75.7341 289.432 75.7876C289.469 75.8411 289.491 75.9041 289.495 75.9695C289.426 76.0934 289.358 76.2173 289.282 76.3412C288.593 77.0985 287.285 78.4065 285.351 80.2997C283.335 82.2616 281.192 84.0877 278.935 85.7658C276.576 87.5052 274.499 88.4483 272.704 88.5951ZM274.563 71.0678C274.288 71.0678 274.15 70.9161 274.15 70.5582C274.176 70.1582 274.282 69.7675 274.46 69.4085C274.656 68.9611 274.918 68.5456 275.238 68.1762C275.423 67.9059 275.699 67.7107 276.016 67.6256C276.129 67.6077 276.245 67.6184 276.354 67.6569C276.462 67.6953 276.559 67.7603 276.635 67.8458C276.78 68.0455 276.853 68.288 276.842 68.5342C276.784 69.141 276.507 69.706 276.064 70.1245C275.702 70.6182 275.165 70.9555 274.563 71.0678Z" fill="#3A3A39"/>
<path d="M272.271 89.1859C271.708 89.2233 271.146 89.1166 270.636 88.8757C270.126 88.6347 269.687 88.2674 269.359 87.8091C268.71 86.8659 268.369 85.7457 268.381 84.6012C268.415 82.7465 268.776 80.9122 269.448 79.1832C270.137 77.2831 270.736 75.8097 271.218 74.6876C271.35 74.385 271.563 74.1253 271.834 73.9369C272.105 73.7485 272.423 73.6389 272.753 73.6206C273.204 73.5797 273.658 73.6682 274.061 73.8754C274.286 73.9607 274.482 74.1107 274.623 74.3067C274.764 74.5027 274.844 74.7358 274.852 74.977V75.2866L274.791 75.4106C274.015 76.9783 273.326 78.587 272.725 80.2296C272.018 81.9322 271.611 83.7441 271.52 85.5854C271.52 86.5906 271.734 86.7904 271.741 86.7973C271.748 86.8041 272.064 87.0176 272.787 87.0245C274.123 86.9075 275.844 86.0811 277.854 84.5666C279.899 83.0192 281.85 81.3526 283.699 79.5755C285.489 77.8475 286.831 76.5464 287.726 75.6583C287.803 75.5287 287.898 75.4107 288.008 75.3074C288.221 75.098 288.502 74.9711 288.8 74.9494C289.067 74.9413 289.329 75.0106 289.557 75.1491C289.702 75.223 289.825 75.3352 289.911 75.4735C289.997 75.6118 290.044 75.7707 290.046 75.9337V76.0782L289.695 76.6843C289.007 77.4209 287.767 78.6876 285.736 80.6703C283.698 82.6435 281.534 84.4831 279.258 86.1777C276.794 88.0227 274.66 89 272.732 89.1584L272.271 89.1859ZM272.959 74.7289H272.856C272.738 74.7296 272.622 74.7662 272.525 74.8338C272.428 74.9014 272.354 74.997 272.312 75.1077C271.844 76.1955 271.272 77.6547 270.57 79.5341C269.946 81.1403 269.608 82.8436 269.572 84.5666C269.557 85.4871 269.829 86.3895 270.35 87.1482C270.604 87.5126 270.976 87.778 271.403 87.8988C271.239 87.8285 271.085 87.7332 270.949 87.6164C270.536 87.2516 270.343 86.5976 270.343 85.5512C270.433 83.5775 270.867 81.6347 271.624 79.8098C272.226 78.1679 272.916 76.5593 273.689 74.9908V74.9424C273.689 74.9424 273.647 74.908 273.537 74.8529C273.357 74.7678 273.158 74.7298 272.959 74.7427V74.7289ZM274.515 71.6242C274.283 71.6303 274.057 71.5492 273.882 71.397C273.77 71.2861 273.683 71.1527 273.627 71.0054C273.572 70.8581 273.548 70.7007 273.558 70.5435C273.582 70.0648 273.703 69.5961 273.916 69.1667C274.131 68.6647 274.423 68.2 274.783 67.7898C274.921 67.5918 275.097 67.4229 275.3 67.293C275.503 67.163 275.73 67.0745 275.968 67.0325C276.179 67.0045 276.393 67.0301 276.592 67.1071C276.79 67.1841 276.966 67.3098 277.104 67.4728C277.338 67.7725 277.458 68.1462 277.441 68.5263C277.387 69.2721 277.058 69.9714 276.518 70.4884C276.052 71.0964 275.369 71.5006 274.611 71.6172L274.515 71.6242ZM276.064 68.175C275.929 68.2819 275.804 68.4018 275.692 68.533C275.411 68.8601 275.179 69.2266 275.004 69.6208C274.883 69.8741 274.797 70.1429 274.749 70.4195C275.086 70.2609 275.381 70.025 275.61 69.7311C275.951 69.408 276.172 68.9782 276.236 68.5125C276.245 68.3906 276.219 68.2685 276.16 68.1613H276.057L276.064 68.175Z" fill="#3A3A39"/>
<path d="M286.363 86.3771C286.147 86.3853 285.933 86.335 285.743 86.2322C285.655 86.1976 285.579 86.1384 285.524 86.0614C285.469 85.9844 285.438 85.8931 285.434 85.7986V85.6197C286.498 82.0124 287.567 78.4094 288.641 74.8112C288.703 74.5777 288.851 74.3762 289.055 74.2469C289.275 74.1128 289.527 74.0391 289.784 74.0334C290.039 74.0116 290.294 74.0772 290.507 74.2193C290.602 74.2817 290.68 74.3663 290.734 74.466C290.788 74.5657 290.816 74.6774 290.817 74.7907V75.059C289.991 77.5327 289.163 80.0067 288.332 82.4804C289.817 80.1577 291.478 77.9528 293.302 75.8852C294.954 74.0402 296.442 73.097 297.75 73.0488H298.17C298.703 73.1013 299.195 73.359 299.542 73.7675C299.889 74.176 300.063 74.7034 300.028 75.2382C299.933 77.1061 299.441 78.9321 298.583 80.594C298.029 81.6439 297.676 82.7882 297.543 83.9676C297.532 84.0885 297.555 84.2098 297.61 84.3182C297.665 84.4265 297.749 84.5172 297.853 84.58L298.273 84.656C299.305 84.6216 300.992 83.8574 303.339 82.391C305.687 80.9247 307.876 79.4239 309.914 77.9025C311.206 77.0309 312.403 76.0272 313.487 74.9077C313.531 74.8337 313.591 74.7705 313.662 74.7228C313.734 74.6752 313.815 74.6443 313.9 74.6324C314.035 74.6316 314.165 74.6805 314.265 74.7699C314.314 74.8065 314.353 74.8546 314.38 74.9097C314.406 74.9649 314.419 75.0255 314.417 75.0866L314.313 75.3551C312.994 76.6657 311.556 77.8504 310.017 78.8938C307.847 80.4771 305.517 82.0052 303.03 83.4785C300.545 84.9517 298.582 85.7299 297.13 85.778L296.304 85.6335C296.033 85.5174 295.807 85.3177 295.659 85.0637C295.51 84.8098 295.446 84.5147 295.478 84.222C295.596 82.4696 296.089 80.7629 296.923 79.2171C297.612 77.9379 298.036 76.5331 298.17 75.0866C298.193 74.889 298.142 74.6899 298.026 74.5282C297.91 74.3665 297.738 74.2537 297.543 74.2122H297.44C296.476 74.2444 295.287 75.0567 293.874 76.6493C292.453 78.2473 291.155 79.9502 289.991 81.7436C288.816 83.5473 287.988 84.8831 287.506 85.7505C287.427 85.9402 287.28 86.0929 287.092 86.1774C286.864 86.2907 286.617 86.3585 286.363 86.3771Z" fill="#3A3A39"/>
<path d="M286.3 86.9493C286.004 86.9465 285.713 86.871 285.454 86.7291C285.273 86.6479 285.12 86.5177 285.01 86.3533C284.901 86.189 284.84 85.9971 284.834 85.7997V85.4625L288.042 74.6541C288.144 74.2895 288.376 73.9757 288.696 73.773C289.004 73.5789 289.358 73.4697 289.722 73.4564C290.111 73.4353 290.497 73.5388 290.823 73.7522C290.998 73.8637 291.141 74.0175 291.239 74.1993C291.338 74.381 291.389 74.585 291.388 74.7919V75.2322L290.204 78.7571C291.085 77.573 291.973 76.4922 292.847 75.5146C294.637 73.525 296.227 72.5336 297.728 72.4785H298.217H298.293C298.958 72.5563 299.57 72.884 300.003 73.3952C300.436 73.9064 300.659 74.5629 300.627 75.2322C300.528 77.1809 300.017 79.0864 299.126 80.8224C298.6 81.7963 298.266 82.8619 298.141 83.9616C298.137 83.9913 298.137 84.0214 298.141 84.0511H298.3C298.954 84.0029 300.289 83.5832 303.008 81.8758C305.342 80.4164 307.538 78.9155 309.542 77.4216C312.02 75.5628 312.784 74.8331 312.984 74.5509C313.069 74.4147 313.184 74.2987 313.318 74.211C313.453 74.1234 313.605 74.0662 313.764 74.0433C313.924 74.0204 314.086 74.0322 314.24 74.0782C314.394 74.1243 314.536 74.2033 314.657 74.3098C314.765 74.4011 314.853 74.515 314.914 74.6433C314.974 74.7716 315.006 74.9115 315.008 75.0534V75.246L314.801 75.6867C313.453 77.0297 311.982 78.2443 310.409 79.3147C308.247 80.8912 305.879 82.4471 303.374 83.9341C300.868 85.4211 298.74 86.2609 297.178 86.316H297.109L296.097 86.1234C295.712 85.975 295.387 85.7049 295.171 85.3543C294.955 85.0037 294.859 84.5918 294.899 84.1818C295.019 82.3461 295.53 80.5575 296.399 78.9362C297.047 77.7426 297.452 76.4321 297.59 75.081C297.59 74.8676 297.542 74.8056 297.481 74.7781C296.95 74.7781 295.966 75.198 294.355 77.0155C292.953 78.5922 291.671 80.272 290.521 82.0409C289.392 83.7689 288.572 85.0977 288.076 85.9789C287.938 86.2845 287.694 86.5293 287.388 86.6673C287.089 86.8109 286.763 86.8906 286.431 86.9012L286.3 86.9493ZM286.032 85.7241C286.121 85.7791 286.223 85.8079 286.328 85.8068C286.423 85.8008 286.517 85.7869 286.61 85.7654L290.217 74.9707V74.7919C290.222 74.7709 290.219 74.749 290.209 74.73C290.199 74.7111 290.183 74.6961 290.163 74.6883C290.059 74.6195 289.934 74.5904 289.811 74.606C289.66 74.6082 289.513 74.6508 289.384 74.7297C289.342 74.7549 289.305 74.7889 289.277 74.8292C289.248 74.8695 289.229 74.9155 289.219 74.964L286.032 85.7241ZM296.475 85.0699L297.164 85.194C297.351 85.1828 297.537 85.1622 297.722 85.1321L297.556 85.0699C297.358 84.9616 297.196 84.7992 297.087 84.6017C296.979 84.4041 296.929 84.1799 296.943 83.9549C297.068 82.6962 297.435 81.4735 298.024 80.3544C298.84 78.7612 299.309 77.0131 299.401 75.2255C299.44 74.8359 299.322 74.4467 299.075 74.1435C298.827 73.8402 298.469 73.6476 298.08 73.6076H297.742C297.627 73.6123 297.512 73.624 297.398 73.6423H297.577H297.666C297.983 73.7164 298.263 73.9001 298.457 74.1609C298.651 74.4217 298.747 74.7427 298.727 75.0672C298.597 76.5863 298.156 78.0623 297.432 79.4042C296.639 80.8783 296.169 82.5049 296.055 84.1751C296.069 84.836 296.324 85.0011 296.475 85.0699Z" fill="#3A3A39"/>
<path d="M75.5036 54.6004C75.4876 54.8191 75.4506 55.0358 75.3934 55.2475C75.3324 55.4655 75.2517 55.6774 75.1524 55.8808C75.0343 56.1675 74.8603 56.4279 74.6404 56.6465C74.4206 56.8652 74.1593 57.0379 73.872 57.1545C73.2441 57.3349 72.5708 57.2657 71.9926 56.9615C71.6745 56.8291 71.3829 56.6404 71.1321 56.4042C70.9128 56.1915 70.7393 55.9359 70.6225 55.6536C70.5173 55.3794 70.4706 55.0863 70.485 54.793C70.5033 54.4718 70.5876 54.1578 70.7327 53.8706C70.8282 53.6685 70.9413 53.4751 71.0702 53.2925C71.1872 53.1193 71.3257 52.9619 71.483 52.8242L72.1714 53.1409C71.9952 53.2725 71.8357 53.4251 71.6964 53.5953C71.562 53.7634 71.4466 53.9458 71.3522 54.1392C71.2657 54.3176 71.219 54.5125 71.2147 54.7107C71.2071 54.9071 71.2446 55.1023 71.3247 55.2818C71.4085 55.476 71.5302 55.6515 71.6827 55.7981C71.8641 55.9684 72.0737 56.106 72.3022 56.2045C72.7255 56.4271 73.2174 56.481 73.679 56.3558C73.8752 56.2829 74.0546 56.1711 74.2061 56.0267C74.3576 55.8823 74.4782 55.7085 74.5604 55.5161C74.6485 55.3243 74.7154 55.1234 74.7601 54.9171C74.8037 54.7113 74.8198 54.5005 74.8082 54.2905L75.5036 54.6004Z" fill="#3A3A39"/>
<path d="M78.8685 44.0528C78.9536 44.099 79.0366 44.1497 79.1166 44.2044L79.3025 44.3284L77.5468 47.0822C77.8915 47.3096 78.3124 47.3913 78.7172 47.3094C79.1218 47.189 79.4628 46.9144 79.6672 46.545C79.7429 46.428 79.8047 46.3111 79.8736 46.1941C79.9424 46.077 79.9906 45.9598 80.0457 45.8428C80.1008 45.7258 80.1422 45.6158 80.1835 45.5056L80.2938 45.1957L80.8652 45.5399C80.7933 45.7749 80.7056 46.0049 80.6034 46.2284C80.4831 46.4877 80.3454 46.7383 80.1906 46.9786C80.0086 47.2764 79.7756 47.54 79.5021 47.7568C79.269 47.9337 78.9977 48.0537 78.7102 48.1078C78.4186 48.1529 78.1207 48.1366 77.8359 48.0597C77.4999 47.9654 77.1783 47.8264 76.8792 47.6466C76.6059 47.4894 76.3595 47.2896 76.1494 47.0546C75.9501 46.8394 75.7955 46.5866 75.6949 46.311C75.5983 46.0471 75.563 45.7644 75.5917 45.4848C75.6266 45.182 75.7329 44.8918 75.9017 44.638C76.0571 44.3872 76.2604 44.1698 76.5003 43.998C76.7052 43.847 76.9399 43.7412 77.1888 43.6881C77.4518 43.63 77.7244 43.63 77.9875 43.6881C78.2994 43.7599 78.5971 43.883 78.8685 44.0528ZM78.3179 44.6932C78.1578 44.5849 77.9812 44.5035 77.7948 44.4522C77.6296 44.4038 77.4555 44.3922 77.2852 44.4179C77.1208 44.441 76.9635 44.4998 76.8241 44.59C76.6712 44.695 76.542 44.8311 76.4452 44.9893C76.3532 45.1253 76.2943 45.2807 76.2731 45.4434C76.2584 45.5989 76.275 45.7559 76.3215 45.905C76.3811 46.0651 76.4673 46.2138 76.5763 46.3453C76.7008 46.4967 76.8469 46.6292 77.0099 46.738L78.3179 44.6932Z" fill="#3A3A39"/>
<path d="M81.2715 37.2171L81.726 36.6662L82.3455 37.1001C82.3081 36.9187 82.285 36.7343 82.2766 36.5492C82.2698 36.4015 82.2812 36.2537 82.3109 36.1088C82.3302 35.9787 82.3722 35.8528 82.4349 35.7371C82.4987 35.6208 82.5722 35.5102 82.6551 35.4066C82.7753 35.243 82.929 35.1067 83.1058 35.007C83.2827 34.9073 83.4788 34.8463 83.681 34.8281C84.1455 34.8433 84.5906 35.0185 84.9409 35.3239L87.3779 37.1758L86.8683 37.7953L84.514 35.9572C84.2966 35.7658 84.0245 35.6476 83.7361 35.6198C83.6202 35.6221 83.5064 35.6514 83.4037 35.7051C83.3009 35.7589 83.2119 35.8358 83.1438 35.9297C83.0806 36.0038 83.0296 36.0873 82.9926 36.1774C82.9555 36.2815 82.9347 36.3907 82.9307 36.5011C82.9148 36.6453 82.9148 36.7906 82.9307 36.9348C82.9589 37.1341 82.998 37.3316 83.0477 37.5267L85.519 39.4061L85.0098 40.026L81.2715 37.2171Z" fill="#3A3A39"/>
<path d="M94.6901 29.5349C94.594 29.6999 94.4811 29.8545 94.353 29.9961C94.2266 30.1489 94.0911 30.294 93.9469 30.4301C93.6261 30.783 93.1883 31.0079 92.7146 31.0634C92.489 31.0578 92.267 31.0058 92.0621 30.9111C91.8573 30.8164 91.674 30.6807 91.5236 30.5124L89.7679 28.826L88.8247 29.7278L88.3359 29.2596L89.2792 28.3577L88.3568 27.4629L88.7904 26.7745L89.8644 27.8071L91.3791 26.3613L91.8678 26.8296L90.3532 28.2821L92.0604 29.9205C92.1523 30.0239 92.2646 30.1071 92.3902 30.1652C92.5158 30.2232 92.6519 30.255 92.7902 30.2579C93.0784 30.2334 93.3464 30.1006 93.5405 29.8862C93.6573 29.7731 93.7676 29.6536 93.8709 29.5282C93.9868 29.3818 94.0926 29.2277 94.1876 29.067L94.6901 29.5349Z" fill="#3A3A39"/>
<path d="M97.168 21.4451L97.7603 20.9977L98.3247 21.6448C98.3237 21.2864 98.3915 20.9312 98.5243 20.5984C98.6304 20.3279 98.806 20.0904 99.0336 19.9099C99.1935 19.7727 99.3831 19.674 99.5872 19.6215C99.7913 19.569 100.004 19.5641 100.211 19.6071C100.686 19.7513 101.096 20.0582 101.367 20.4743L100.713 20.9702C100.546 20.7133 100.307 20.5121 100.025 20.392C99.9182 20.3605 99.8056 20.3553 99.6965 20.3769C99.5874 20.3984 99.4853 20.446 99.3986 20.5157C99.3126 20.5882 99.2362 20.6718 99.1714 20.7638C99.1036 20.8701 99.0524 20.9862 99.0198 21.108C98.9761 21.2634 98.9462 21.4223 98.9304 21.5829C98.907 21.7909 98.8957 21.9999 98.8961 22.2092L100.789 24.5155L100.101 25.0113L97.168 21.4451Z" fill="#3A3A39"/>
<path d="M111.302 17.5486L110.958 17.0322C110.884 17.3385 110.753 17.6283 110.572 17.8861C110.402 18.1135 110.186 18.3034 109.939 18.4437C109.74 18.567 109.521 18.6554 109.292 18.7053C109.108 18.7467 108.918 18.7467 108.734 18.7053C108.567 18.6728 108.411 18.5995 108.28 18.4918C108.138 18.3831 108.017 18.2504 107.922 18.0995C107.802 17.9289 107.728 17.7305 107.706 17.5234C107.685 17.3162 107.716 17.1069 107.798 16.9153C108.043 16.4268 108.442 16.0326 108.934 15.7932L109.774 15.3045L109.553 14.9602C109.492 14.8537 109.408 14.7613 109.309 14.689C109.209 14.6166 109.095 14.5661 108.975 14.5404C108.679 14.5042 108.38 14.5776 108.135 14.7468C107.908 14.8769 107.698 15.0342 107.509 15.215C107.307 15.4046 107.121 15.6092 106.951 15.8275L106.559 15.2218L106.8 14.9535L107.095 14.6711C107.206 14.5748 107.316 14.4853 107.44 14.3958C107.563 14.3007 107.695 14.2154 107.832 14.141C108.048 14.0084 108.279 13.9021 108.521 13.8244C108.744 13.7619 108.978 13.7431 109.209 13.7693C109.412 13.7982 109.605 13.8735 109.774 13.9894C109.965 14.1205 110.125 14.2921 110.242 14.492L111.949 17.1771L111.302 17.5486ZM110.104 15.8208L109.209 16.3438C109.054 16.4302 108.91 16.5369 108.782 16.6608C108.687 16.7519 108.612 16.862 108.562 16.9842C108.524 17.0899 108.512 17.2033 108.527 17.3146C108.544 17.4303 108.587 17.541 108.651 17.6383C108.7 17.712 108.76 17.777 108.83 17.8309C108.896 17.8872 108.974 17.9273 109.058 17.9479C109.155 17.9694 109.256 17.9694 109.354 17.9479C109.475 17.9254 109.592 17.8812 109.698 17.8172C109.884 17.6938 110.042 17.5349 110.166 17.3492C110.332 17.0901 110.458 16.8067 110.538 16.5092L110.104 15.8208Z" fill="#3A3A39"/>
<path d="M117.106 8.13137L115.825 8.68904L115.543 8.09675L117.608 7.20898L120.108 12.4546L121.395 11.8902L121.677 12.4892L118.235 14.0106L117.952 13.4048L119.371 12.785L117.106 8.13137Z" fill="#3A3A39"/>
<path d="M141.82 6.73277L141.18 3.51113C141.159 3.39496 141.131 3.28005 141.097 3.16692C141.072 3.09726 141.04 3.03034 141.001 2.96724C140.975 2.92447 140.937 2.8907 140.891 2.87077C140.846 2.8602 140.798 2.8602 140.753 2.87077C140.69 2.8836 140.633 2.91467 140.588 2.96019C140.532 3.02067 140.488 3.09082 140.457 3.16692C140.402 3.28004 140.356 3.3973 140.319 3.51785C140.271 3.66242 140.216 3.84849 140.154 4.05502L140.733 6.9395L139.989 7.07026L139.362 3.93804C139.34 3.8056 139.31 3.67436 139.273 3.54542C139.249 3.46524 139.215 3.38872 139.17 3.31818C139.146 3.27186 139.107 3.23536 139.06 3.21499C139.012 3.20431 138.963 3.20431 138.915 3.21499C138.861 3.22618 138.811 3.25233 138.77 3.29062C138.714 3.34643 138.667 3.41184 138.633 3.48357C138.58 3.598 138.535 3.71504 138.495 3.8345C138.447 3.98596 138.392 4.17205 138.33 4.39923L138.908 7.27665L138.165 7.41447L137.27 2.93262L137.889 2.81564L138.096 3.6624C138.133 3.50093 138.181 3.34226 138.24 3.18742C138.286 3.07011 138.346 2.95908 138.419 2.85699C138.481 2.77398 138.558 2.70395 138.646 2.65059C138.737 2.59454 138.838 2.55698 138.943 2.54034C139.049 2.5142 139.16 2.51231 139.267 2.53496C139.375 2.5576 139.475 2.60416 139.562 2.6711C139.748 2.85651 139.867 3.09884 139.9 3.35953C139.948 3.19431 139.989 3.04308 140.037 2.90539C140.079 2.78356 140.137 2.66782 140.209 2.56118C140.273 2.46997 140.352 2.3905 140.443 2.32688C140.544 2.26163 140.656 2.2172 140.774 2.19612C141.359 2.08597 141.744 2.47143 141.916 3.33196L142.571 6.602L141.82 6.73277Z" fill="#3A3A39"/>
<path d="M152.223 5.57709L152.161 4.97135C151.949 5.2091 151.695 5.40511 151.411 5.54953C151.153 5.67705 150.872 5.75182 150.585 5.7697C150.354 5.79236 150.121 5.77619 149.896 5.72163C149.717 5.67554 149.548 5.59352 149.401 5.48062C149.269 5.37444 149.163 5.24052 149.091 5.08833C149.02 4.92688 148.979 4.7544 148.967 4.57873C148.943 4.37069 148.973 4.15999 149.052 3.96627C149.131 3.77255 149.258 3.60216 149.421 3.47046C149.871 3.1496 150.41 2.97627 150.963 2.97464L151.948 2.90606V2.50672C151.944 2.38555 151.913 2.26668 151.858 2.15847C151.804 2.05027 151.726 1.95523 151.631 1.88014C151.384 1.71571 151.084 1.64942 150.791 1.69425C150.525 1.70879 150.261 1.75515 150.006 1.83207C149.735 1.91301 149.471 2.01423 149.215 2.13494L149.159 1.44651L149.504 1.31575L149.896 1.19844L150.337 1.1023C150.491 1.07377 150.648 1.05532 150.805 1.04717C151.067 1.02638 151.331 1.03781 151.59 1.08146C151.804 1.11921 152.008 1.20135 152.189 1.32248C152.358 1.43411 152.497 1.58545 152.595 1.76316C152.699 1.96615 152.758 2.18909 152.767 2.41697L153.001 5.55625L152.223 5.57709ZM151.982 3.5118L150.936 3.58071C150.756 3.59046 150.578 3.6226 150.406 3.67685C150.277 3.71821 150.158 3.78382 150.055 3.8698C149.971 3.94504 149.907 4.03951 149.869 4.1451C149.828 4.25497 149.811 4.37244 149.82 4.48932C149.827 4.57702 149.848 4.66313 149.883 4.74412C149.916 4.82181 149.968 4.8903 150.034 4.94379C150.109 5.00742 150.199 5.0522 150.295 5.07455C150.418 5.09674 150.544 5.09674 150.667 5.07455C150.891 5.05595 151.108 4.98503 151.3 4.86782C151.575 4.71576 151.824 4.52062 152.037 4.28965L151.982 3.5118Z" fill="#3A3A39"/>
<path d="M160.379 0.894531L161.136 0.929154V1.76885C161.38 1.48756 161.675 1.25411 162.004 1.08042C162.265 0.952418 162.553 0.891091 162.844 0.90159C163.052 0.896941 163.259 0.939575 163.449 1.02664C163.639 1.1137 163.806 1.2429 163.938 1.40413C164.199 1.81279 164.301 2.30216 164.228 2.78099L163.395 2.73964C163.441 2.44025 163.39 2.13399 163.25 1.86532C163.187 1.77508 163.104 1.70102 163.007 1.64952C162.91 1.59802 162.802 1.57046 162.692 1.56918C162.578 1.56256 162.464 1.57659 162.355 1.61052C162.229 1.64962 162.108 1.70533 161.997 1.77591C161.857 1.86488 161.726 1.96622 161.605 2.07878C161.447 2.22168 161.298 2.37348 161.157 2.53325L161.013 5.4658L160.18 5.43151L160.379 0.894531Z" fill="#3A3A39"/>
<path d="M174.954 6.99444L173.839 6.81527L172.062 4.06156L171.649 6.47812L170.83 6.34736L171.932 0.0136719L172.744 0.13771L172.056 4.03399L174.52 2.31292L175.601 2.4783L173.033 4.2061L174.954 6.99444Z" fill="#3A3A39"/>
<path d="M185.887 7.043C185.887 7.15315 185.825 7.24274 185.804 7.31158C185.783 7.38043 185.749 7.4493 185.728 7.51126L182.52 6.6161C182.45 6.80086 182.421 6.99876 182.434 7.19595C182.447 7.39314 182.502 7.58511 182.596 7.759C182.832 8.1131 183.198 8.3603 183.615 8.44743L184.021 8.5439L184.42 8.61247L184.792 8.65382H185.129L184.943 9.2804C184.683 9.27817 184.423 9.25757 184.165 9.21855C183.875 9.17501 183.588 9.11291 183.305 9.03266C182.962 8.94237 182.636 8.79555 182.341 8.59869C182.106 8.43412 181.914 8.21449 181.784 7.95867C181.66 7.70327 181.597 7.42313 181.598 7.13948C181.603 6.80261 181.658 6.46845 181.763 6.14818C181.85 5.84744 181.988 5.56338 182.169 5.30815C182.334 5.06799 182.545 4.86232 182.789 4.70241C183.033 4.5438 183.307 4.43612 183.594 4.38576C183.907 4.33872 184.226 4.35975 184.53 4.44761C184.82 4.52541 185.094 4.65615 185.336 4.83317C185.541 4.9883 185.709 5.18538 185.831 5.41134C185.944 5.64623 186.007 5.90179 186.017 6.16196C186.022 6.46084 185.978 6.75832 185.887 7.043ZM185.102 6.70551C185.167 6.52919 185.202 6.34304 185.205 6.1549C185.207 5.98853 185.172 5.82364 185.102 5.67287C185.036 5.52414 184.934 5.39418 184.806 5.29437C184.661 5.17675 184.491 5.09227 184.31 5.04663C184.147 4.99814 183.976 4.98618 183.808 5.012C183.645 5.03159 183.49 5.08827 183.353 5.17739C183.209 5.27367 183.081 5.39201 182.975 5.52832C182.857 5.68054 182.764 5.85007 182.699 6.03086L185.102 6.70551Z" fill="#3A3A39"/>
<path d="M195.077 13.0723C194.884 13.0426 194.693 12.9989 194.506 12.9415C194.312 12.8853 194.121 12.8186 193.934 12.7419C193.483 12.5963 193.101 12.2901 192.86 11.8813C192.782 11.6768 192.748 11.4576 192.763 11.2389C192.777 11.0202 192.838 10.8073 192.943 10.6147L193.921 8.42539L192.695 7.92285L192.971 7.31039L194.196 7.81293L194.705 6.65625L195.552 6.78029L194.953 8.12252L196.915 8.92827L196.647 9.54073L194.678 8.73532L193.728 10.8695C193.665 10.9884 193.629 11.1193 193.62 11.2534C193.612 11.3875 193.632 11.5217 193.68 11.6474C193.821 11.8951 194.049 12.0818 194.32 12.1707C194.474 12.2359 194.633 12.2888 194.795 12.3291C194.979 12.3774 195.165 12.4164 195.353 12.446L195.077 13.0723Z" fill="#3A3A39"/>
<path d="M215.185 22.1397C214.98 22.409 214.731 22.6418 214.449 22.8282C214.198 23.0003 213.914 23.1196 213.615 23.1791C213.325 23.241 213.025 23.241 212.734 23.1791C212.419 23.1005 212.121 22.9601 211.86 22.766C211.607 22.5936 211.389 22.3739 211.22 22.1189C211.07 21.894 210.976 21.637 210.944 21.3686C210.92 21.0834 210.96 20.7963 211.061 20.5286C211.178 20.2067 211.348 19.9066 211.564 19.6405C211.768 19.3731 212.015 19.1406 212.294 18.9521C212.548 18.7855 212.83 18.6667 213.127 18.6011C213.417 18.5392 213.718 18.5392 214.008 18.6011C214.324 18.6783 214.622 18.8189 214.882 19.0142C215.137 19.1848 215.355 19.4049 215.522 19.6613C215.676 19.8842 215.771 20.1423 215.798 20.4116C215.824 20.694 215.786 20.9786 215.688 21.2446C215.569 21.5676 215.399 21.8699 215.185 22.1397ZM214.497 21.6853C214.659 21.4763 214.789 21.2443 214.882 20.9968C214.958 20.8138 214.993 20.6166 214.986 20.4187C214.981 20.2385 214.928 20.0626 214.834 19.9091C214.733 19.7455 214.6 19.6048 214.442 19.4959C214.268 19.364 214.065 19.2768 213.85 19.2415C213.656 19.2163 213.458 19.2326 213.271 19.2896C213.076 19.3554 212.894 19.4558 212.734 19.5857C212.562 19.7224 212.407 19.8794 212.273 20.0536C212.114 20.2497 211.984 20.4676 211.888 20.7007C211.811 20.8861 211.773 21.0854 211.777 21.2859C211.789 21.465 211.841 21.6394 211.929 21.7955C212.034 21.9575 212.17 22.0975 212.328 22.2083C212.501 22.3415 212.705 22.4292 212.92 22.4631C213.114 22.4883 213.311 22.472 213.498 22.415C213.692 22.3489 213.874 22.2512 214.036 22.126C214.2 21.995 214.35 21.8473 214.483 21.6853H214.497Z" fill="#3A3A39"/>
<path d="M225.959 26.7803C225.747 26.4789 225.505 26.1998 225.237 25.9473C225.134 25.831 225.007 25.7392 224.864 25.6787C224.722 25.6182 224.567 25.5908 224.413 25.598C224.258 25.6053 224.107 25.6472 223.971 25.7207C223.834 25.7943 223.716 25.8976 223.625 26.0229L223.054 26.6014L224.569 27.9783L224.094 28.46L222.579 27.0831L220.252 29.4375L219.646 28.8869L221.973 26.5325L220.858 25.5204L221.333 25.0454L222.442 26.0575L222.985 25.5066C223.857 24.6254 224.775 24.6254 225.739 25.5066C225.993 25.7504 226.224 26.0179 226.428 26.3053L225.959 26.7803Z" fill="#3A3A39"/>
<path d="M91.1098 161.594C90.9231 161.278 90.7064 160.98 90.4628 160.706C90.3697 160.582 90.2499 160.481 90.1125 160.41C89.9751 160.339 89.8234 160.299 89.6688 160.295C89.5141 160.29 89.3604 160.32 89.219 160.383C89.0776 160.446 88.9519 160.54 88.8516 160.658L88.2321 161.188L89.6089 162.681L89.0926 163.122L87.7158 161.628L85.1963 163.79L84.6387 163.191L87.1581 161.029L86.1392 159.934L86.6488 159.494L87.6677 160.589L88.2529 160.086C89.203 159.281 90.1117 159.343 91.0066 160.286C91.2457 160.552 91.4622 160.837 91.6537 161.139L91.1098 161.594Z" fill="#3A3A39"/>
<path d="M97.0995 167.019L96.0464 166.125L96.4938 165.643L98.1735 167.068L94.1945 171.391L95.2615 172.286L94.8073 172.782L91.9434 170.358L92.3978 169.87L93.575 170.861L97.0995 167.019Z" fill="#3A3A39"/>
<path d="M105.622 177.658C105.431 177.923 105.199 178.155 104.934 178.346C104.69 178.527 104.411 178.656 104.115 178.725C103.825 178.79 103.524 178.79 103.233 178.725C102.914 178.664 102.611 178.535 102.345 178.346C102.078 178.183 101.844 177.971 101.657 177.72C101.499 177.5 101.398 177.244 101.361 176.976C101.323 176.696 101.348 176.411 101.437 176.143C101.543 175.815 101.703 175.508 101.912 175.234C102.101 174.968 102.334 174.735 102.6 174.546C102.845 174.367 103.124 174.24 103.419 174.174C103.709 174.109 104.011 174.109 104.301 174.174C104.62 174.238 104.922 174.367 105.189 174.553C105.456 174.716 105.69 174.928 105.877 175.179C106.034 175.397 106.135 175.65 106.173 175.916C106.212 176.198 106.186 176.485 106.097 176.756C105.988 177.08 105.827 177.384 105.622 177.658ZM104.934 177.231C105.088 177.021 105.209 176.789 105.292 176.542C105.358 176.355 105.386 176.156 105.374 175.957C105.362 175.78 105.303 175.609 105.202 175.462C105.096 175.3 104.958 175.162 104.796 175.055C104.616 174.931 104.408 174.853 104.191 174.828C103.995 174.806 103.797 174.829 103.612 174.897C103.421 174.964 103.245 175.07 103.096 175.207C102.928 175.349 102.777 175.511 102.648 175.689C102.494 175.899 102.374 176.131 102.29 176.377C102.218 176.564 102.188 176.763 102.201 176.962C102.216 177.141 102.275 177.314 102.373 177.465C102.481 177.625 102.622 177.762 102.786 177.864C102.963 177.991 103.169 178.071 103.385 178.098C103.581 178.117 103.778 178.093 103.963 178.029C104.154 177.957 104.331 177.852 104.486 177.72C104.643 177.572 104.784 177.408 104.907 177.231H104.934Z" fill="#3A3A39"/>
<path d="M116.686 181.161L113.849 184.886L112.968 184.438L113.292 182.441L113.395 181.974L113.016 182.338L111.516 183.715L110.676 183.282L112.294 178.938L112.982 179.303L111.819 182.221L111.557 182.868L112.032 182.428L113.643 180.92L114.173 181.189L113.843 183.309L113.739 183.942L114.111 183.406L115.963 180.81L116.686 181.161Z" fill="#3A3A39"/>
<path d="M125.662 187.026C125.62 187.129 125.586 187.218 125.551 187.287C125.517 187.356 125.49 187.418 125.462 187.48L122.344 186.33C122.259 186.509 122.214 186.704 122.214 186.902C122.214 187.099 122.259 187.295 122.344 187.473C122.55 187.842 122.894 188.115 123.3 188.23C123.429 188.281 123.56 188.322 123.693 188.354L124.085 188.458L124.457 188.526L124.794 188.568L124.546 189.174C124.289 189.152 124.034 189.11 123.782 189.05C123.497 188.985 123.217 188.902 122.942 188.802C122.606 188.689 122.294 188.517 122.02 188.292C121.796 188.109 121.623 187.872 121.517 187.604C121.414 187.339 121.374 187.054 121.4 186.771C121.435 186.437 121.519 186.11 121.648 185.8C121.759 185.507 121.92 185.234 122.123 184.995C122.317 184.769 122.55 184.58 122.812 184.437C123.069 184.298 123.353 184.214 123.644 184.189C123.959 184.162 124.275 184.209 124.567 184.327C124.85 184.424 125.111 184.574 125.338 184.768C125.53 184.938 125.681 185.15 125.779 185.387C125.876 185.63 125.919 185.89 125.903 186.151C125.873 186.454 125.792 186.75 125.662 187.026ZM124.904 186.62C124.988 186.452 125.039 186.269 125.056 186.082C125.073 185.917 125.054 185.751 125.001 185.594C124.944 185.443 124.855 185.306 124.739 185.194C124.602 185.067 124.441 184.968 124.264 184.905C124.103 184.847 123.932 184.821 123.761 184.83C123.601 184.842 123.444 184.887 123.3 184.96C123.148 185.043 123.011 185.15 122.894 185.277C122.765 185.422 122.656 185.585 122.57 185.759L124.904 186.62Z" fill="#3A3A39"/>
<path d="M133.249 187.164L133.979 187.343L133.786 188.162C134.084 187.945 134.417 187.779 134.771 187.673C135.053 187.601 135.349 187.601 135.631 187.673C135.834 187.708 136.027 187.788 136.195 187.907C136.363 188.026 136.502 188.182 136.602 188.362C136.766 188.806 136.766 189.294 136.602 189.739L135.79 189.539C135.902 189.258 135.919 188.949 135.838 188.658C135.794 188.557 135.727 188.469 135.642 188.399C135.557 188.33 135.456 188.281 135.349 188.259C135.237 188.238 135.123 188.238 135.012 188.259C134.88 188.27 134.75 188.3 134.626 188.348C134.472 188.413 134.322 188.489 134.179 188.575C134.02 188.672 133.841 188.789 133.649 188.933L132.898 191.776L132.086 191.577L133.249 187.164Z" fill="#3A3A39"/>
<path d="M147.073 193.05C147.059 193.196 147.012 193.337 146.936 193.463C146.865 193.583 146.771 193.688 146.66 193.773C146.549 193.863 146.424 193.933 146.289 193.979C146.149 194.035 146.003 194.077 145.855 194.103C145.7 194.131 145.544 194.144 145.387 194.144C145.235 194.155 145.083 194.155 144.932 194.144C144.638 194.108 144.347 194.058 144.058 193.993C143.797 193.932 143.54 193.856 143.287 193.766L143.383 193.043C143.644 193.15 143.911 193.242 144.182 193.318C144.447 193.388 144.716 193.441 144.987 193.477C145.285 193.533 145.592 193.516 145.883 193.429C145.972 193.402 146.051 193.35 146.111 193.279C146.171 193.208 146.209 193.122 146.22 193.029C146.237 192.955 146.237 192.877 146.22 192.802C146.191 192.723 146.144 192.652 146.082 192.595C145.98 192.505 145.867 192.429 145.745 192.368C145.586 192.286 145.373 192.189 145.098 192.072C144.903 191.991 144.715 191.896 144.533 191.79C144.376 191.701 144.232 191.589 144.106 191.459C143.988 191.347 143.899 191.208 143.845 191.053C143.783 190.889 143.766 190.71 143.796 190.537C143.822 190.397 143.871 190.262 143.941 190.138C144.033 189.982 144.16 189.85 144.313 189.752C144.509 189.63 144.726 189.546 144.953 189.504C145.27 189.452 145.593 189.452 145.91 189.504C146.096 189.504 146.302 189.566 146.523 189.615C146.743 189.663 146.977 189.725 147.211 189.801L147.115 190.489C146.89 190.399 146.66 190.323 146.426 190.262C146.231 190.211 146.034 190.172 145.834 190.145C145.66 190.129 145.485 190.129 145.311 190.145C145.19 190.154 145.072 190.181 144.96 190.227C144.876 190.263 144.803 190.32 144.747 190.393C144.699 190.457 144.671 190.533 144.664 190.613C144.646 190.687 144.646 190.765 144.664 190.84C144.7 190.922 144.755 190.995 144.822 191.053C144.93 191.145 145.047 191.223 145.173 191.287C145.325 191.363 145.524 191.459 145.772 191.563C146.009 191.657 146.239 191.768 146.461 191.893C146.618 191.988 146.761 192.104 146.888 192.237C146.985 192.351 147.056 192.485 147.094 192.63C147.113 192.77 147.106 192.912 147.073 193.05Z" fill="#3A3A39"/>
<path d="M169.192 194.17L169.109 193.564C168.904 193.809 168.657 194.014 168.379 194.17C168.127 194.309 167.848 194.394 167.56 194.418C167.332 194.456 167.1 194.456 166.872 194.418C166.688 194.384 166.516 194.306 166.369 194.191C166.234 194.093 166.125 193.963 166.053 193.812C165.972 193.656 165.923 193.485 165.908 193.31C165.875 193.103 165.895 192.892 165.966 192.696C166.037 192.5 166.157 192.325 166.314 192.187C166.754 191.849 167.288 191.657 167.842 191.637L168.82 191.54L168.779 191.141C168.769 191.019 168.734 190.901 168.674 190.794C168.615 190.687 168.533 190.594 168.434 190.522C168.18 190.37 167.879 190.316 167.588 190.37C167.323 190.393 167.061 190.449 166.81 190.535C166.543 190.624 166.283 190.732 166.032 190.859L165.949 190.17C166.059 190.118 166.171 190.072 166.286 190.033C166.41 189.985 166.541 189.936 166.679 189.895L167.113 189.785C167.264 189.751 167.423 189.73 167.581 189.709C167.842 189.678 168.105 189.678 168.366 189.709C168.582 189.739 168.79 189.812 168.978 189.923C169.149 190.031 169.291 190.18 169.391 190.356C169.506 190.552 169.574 190.771 169.591 190.997L169.942 194.129L169.192 194.17ZM168.875 192.105L167.835 192.215C167.657 192.229 167.481 192.266 167.312 192.325C167.185 192.369 167.067 192.44 166.968 192.532C166.883 192.607 166.821 192.705 166.789 192.814C166.753 192.925 166.741 193.042 166.755 193.158C166.766 193.244 166.789 193.327 166.824 193.406C166.866 193.482 166.921 193.55 166.989 193.606C167.066 193.665 167.156 193.707 167.251 193.73C167.374 193.751 167.499 193.751 167.622 193.73C167.844 193.697 168.057 193.62 168.249 193.502C168.506 193.334 168.738 193.13 168.937 192.897L168.875 192.105Z" fill="#3A3A39"/>
<path d="M176.504 188.423L177.192 188.265L177.392 188.953C177.479 188.788 177.58 188.632 177.695 188.485C177.788 188.364 177.894 188.253 178.012 188.155C178.114 188.069 178.227 187.997 178.349 187.941C178.473 187.889 178.602 187.847 178.734 187.817C178.931 187.76 179.138 187.745 179.341 187.774C179.544 187.802 179.738 187.874 179.911 187.983C180.273 188.266 180.518 188.673 180.6 189.126L181.288 192.03L180.483 192.21L179.794 189.366C179.748 189.086 179.61 188.83 179.402 188.636C179.305 188.563 179.192 188.514 179.072 188.494C178.952 188.474 178.829 188.482 178.714 188.519C178.617 188.54 178.525 188.575 178.438 188.623C178.34 188.679 178.251 188.751 178.177 188.836C178.079 188.945 177.991 189.062 177.915 189.187C177.826 189.332 177.729 189.511 177.626 189.717L178.314 192.671L177.509 192.85L176.504 188.423Z" fill="#3A3A39"/>
<path d="M187.683 187.989C187.56 187.661 187.49 187.315 187.477 186.964C187.471 186.663 187.53 186.365 187.649 186.09C187.772 185.823 187.953 185.588 188.179 185.401C188.427 185.193 188.712 185.034 189.019 184.933C189.163 184.885 189.308 184.85 189.453 184.816C189.596 184.787 189.741 184.769 189.886 184.761L189.198 182.95L189.976 182.682L192.248 188.726L191.559 188.967L191.222 188.169C191.139 188.5 190.987 188.81 190.775 189.077C190.579 189.311 190.321 189.485 190.031 189.58C189.798 189.667 189.548 189.695 189.301 189.662C189.065 189.627 188.84 189.535 188.647 189.394C188.434 189.236 188.25 189.043 188.104 188.822C187.933 188.561 187.792 188.282 187.683 187.989ZM188.462 187.666C188.589 188.082 188.827 188.455 189.15 188.747C189.261 188.842 189.395 188.906 189.539 188.932C189.683 188.959 189.831 188.947 189.969 188.898C190.193 188.806 190.38 188.641 190.499 188.43C190.68 188.122 190.816 187.791 190.905 187.446L190.162 185.449C190.004 185.432 189.845 185.432 189.687 185.449C189.525 185.474 189.366 185.513 189.212 185.566C189.026 185.617 188.854 185.709 188.709 185.836C188.564 185.962 188.448 186.119 188.372 186.296C188.233 186.749 188.268 187.237 188.468 187.666H188.462Z" fill="#3A3A39"/>
<path d="M211.523 176.336C211.735 176.631 211.892 176.962 211.985 177.314C212.053 177.608 212.053 177.914 211.985 178.209C211.929 178.488 211.806 178.751 211.627 178.973C211.436 179.217 211.203 179.425 210.938 179.585C210.812 179.667 210.681 179.74 210.545 179.806C210.407 179.875 210.265 179.935 210.119 179.985L211.22 181.575L210.532 182.016L206.842 176.646L207.455 176.26L207.936 176.866C207.941 176.533 208.029 176.207 208.191 175.916C208.349 175.668 208.56 175.458 208.811 175.304C209.017 175.167 209.253 175.082 209.499 175.055C209.734 175.041 209.97 175.082 210.187 175.173C210.442 175.274 210.675 175.421 210.876 175.606C211.117 175.825 211.335 176.07 211.523 176.336ZM210.835 176.811C210.709 176.626 210.568 176.451 210.415 176.288C210.285 176.154 210.137 176.041 209.974 175.951C209.837 175.877 209.683 175.837 209.527 175.834C209.372 175.834 209.222 175.88 209.093 175.964C209.003 176.022 208.922 176.091 208.852 176.171C208.778 176.266 208.715 176.37 208.666 176.481C208.607 176.623 208.561 176.77 208.529 176.921C208.49 177.119 208.464 177.319 208.453 177.52L209.726 179.365C209.891 179.337 210.052 179.293 210.208 179.234C210.362 179.179 210.51 179.107 210.649 179.021C210.816 178.926 210.959 178.794 211.068 178.635C211.176 178.477 211.247 178.296 211.275 178.105C211.29 177.635 211.133 177.175 210.835 176.811Z" fill="#3A3A39"/>
<path d="M216.184 168.598L215.111 169.472L214.67 168.976L216.384 167.6L220.267 172.005L221.347 171.124L221.795 171.627L218.876 173.995L218.435 173.486L219.626 172.522L216.184 168.598Z" fill="#3A3A39"/>
<path d="M229.421 164.405L228.939 163.998C228.957 164.309 228.912 164.62 228.809 164.914C228.706 165.17 228.554 165.404 228.361 165.602C228.202 165.774 228.013 165.917 227.804 166.022C227.639 166.108 227.458 166.157 227.273 166.167C227.101 166.176 226.929 166.145 226.771 166.077C226.603 166.009 226.449 165.911 226.316 165.788C226.155 165.656 226.028 165.485 225.949 165.292C225.87 165.098 225.84 164.888 225.862 164.68C225.964 164.148 226.237 163.665 226.64 163.303L227.329 162.615L227.025 162.339C226.934 162.252 226.826 162.186 226.707 162.143C226.589 162.1 226.463 162.083 226.337 162.092C226.046 162.13 225.78 162.277 225.594 162.504C225.411 162.688 225.251 162.894 225.119 163.117C224.974 163.35 224.852 163.597 224.754 163.854L224.203 163.365C224.251 163.268 224.299 163.158 224.361 163.048C224.423 162.938 224.492 162.814 224.568 162.697C224.644 162.58 224.726 162.463 224.823 162.339C224.919 162.215 225.015 162.105 225.126 161.995C225.301 161.807 225.503 161.644 225.725 161.513C225.911 161.397 226.119 161.322 226.337 161.293C226.541 161.266 226.749 161.287 226.943 161.355C227.162 161.433 227.363 161.555 227.535 161.713L229.931 163.861L229.421 164.405ZM227.776 163.028L227.088 163.764C226.966 163.889 226.86 164.028 226.771 164.177C226.706 164.289 226.666 164.413 226.654 164.542C226.641 164.655 226.659 164.77 226.709 164.872C226.758 164.981 226.831 165.078 226.922 165.155C226.987 165.213 227.062 165.26 227.143 165.293C227.222 165.331 227.309 165.35 227.397 165.348C227.496 165.345 227.593 165.318 227.68 165.272C227.791 165.217 227.892 165.143 227.976 165.052C228.123 164.888 228.232 164.692 228.292 164.48C228.381 164.188 228.425 163.884 228.423 163.578L227.776 163.028Z" fill="#3A3A39"/>
<path d="M231.02 155.482L231.453 154.91L232.094 155.323C232.047 155.145 232.017 154.963 232.004 154.779C231.986 154.631 231.986 154.481 232.004 154.332C232.022 154.203 232.059 154.078 232.114 153.96C232.171 153.841 232.241 153.728 232.321 153.623C232.433 153.452 232.582 153.308 232.757 153.202C232.932 153.096 233.129 153.03 233.333 153.01C233.797 153.004 234.248 153.163 234.606 153.458L237.112 155.22L236.623 155.86L234.173 154.132C233.947 153.951 233.67 153.845 233.381 153.829C233.265 153.834 233.151 153.865 233.05 153.922C232.948 153.978 232.861 154.057 232.796 154.153C232.738 154.231 232.691 154.317 232.658 154.408C232.624 154.512 232.605 154.621 232.603 154.731C232.604 154.877 232.62 155.022 232.651 155.165C232.651 155.33 232.727 155.523 232.789 155.75L235.336 157.54L234.847 158.18L231.02 155.482Z" fill="#3A3A39"/>
<path d="M243.143 145.767C243.093 145.949 243.028 146.126 242.951 146.297C242.869 146.477 242.777 146.652 242.675 146.821C242.466 147.245 242.105 147.574 241.663 147.743C241.443 147.799 241.215 147.809 240.991 147.772C240.767 147.735 240.553 147.653 240.362 147.53L238.201 146.353L237.547 147.468L236.941 147.137L237.629 146.029L236.486 145.41L236.707 144.618L238.035 145.341L239.082 143.551L239.687 143.881L238.634 145.664L240.741 146.807C240.857 146.884 240.989 146.935 241.126 146.958C241.264 146.98 241.404 146.973 241.539 146.938C241.809 146.841 242.031 146.644 242.159 146.387C242.241 146.248 242.312 146.103 242.372 145.953C242.443 145.783 242.503 145.608 242.551 145.43L243.143 145.767Z" fill="#3A3A39"/>
<path d="M246.832 135.352C246.975 135.406 247.106 135.488 247.218 135.593C247.314 135.691 247.394 135.805 247.452 135.93C247.51 136.057 247.547 136.191 247.562 136.329C247.579 136.473 247.579 136.619 247.562 136.763C247.551 136.912 247.526 137.059 247.487 137.203C247.447 137.344 247.398 137.482 247.342 137.617C247.229 137.881 247.1 138.139 246.956 138.388C246.833 138.617 246.69 138.836 246.53 139.042L245.841 138.76C246.021 138.544 246.182 138.314 246.323 138.071C246.465 137.85 246.591 137.62 246.702 137.383C246.834 137.126 246.898 136.839 246.888 136.55C246.881 136.456 246.848 136.366 246.791 136.29C246.735 136.215 246.659 136.157 246.571 136.123C246.498 136.096 246.421 136.082 246.344 136.081C246.259 136.087 246.177 136.11 246.103 136.15C245.988 136.222 245.881 136.308 245.786 136.405C245.617 136.57 245.458 136.744 245.311 136.928C245.177 137.085 245.035 137.235 244.884 137.376C244.75 137.499 244.599 137.603 244.437 137.686C244.287 137.762 244.123 137.807 243.955 137.816C243.774 137.829 243.592 137.798 243.425 137.727C243.289 137.667 243.165 137.583 243.06 137.479C242.928 137.36 242.831 137.208 242.778 137.038C242.701 136.818 242.672 136.583 242.695 136.35C242.724 136.042 242.805 135.742 242.936 135.462C243.015 135.278 243.104 135.098 243.204 134.925C243.313 134.721 243.438 134.525 243.576 134.34L244.265 134.608C244.116 134.8 243.979 135 243.852 135.207C243.75 135.376 243.657 135.551 243.576 135.73C243.507 135.882 243.456 136.042 243.425 136.205C243.405 136.322 243.405 136.44 243.425 136.556C243.44 136.643 243.478 136.724 243.535 136.791C243.587 136.855 243.656 136.903 243.735 136.928C243.806 136.961 243.883 136.977 243.962 136.977C244.055 136.964 244.144 136.931 244.224 136.88C244.343 136.808 244.451 136.72 244.547 136.619C244.671 136.502 244.816 136.343 244.988 136.143C245.142 135.95 245.312 135.771 245.497 135.606C245.633 135.481 245.789 135.379 245.958 135.304C246.095 135.238 246.247 135.207 246.399 135.214C246.549 135.238 246.696 135.284 246.832 135.352Z" fill="#3A3A39"/>
<path d="M101.774 138.946C116.348 135.683 130.929 132.419 145.689 130.058C160.447 127.691 175.361 126.421 190.306 126.258C198.765 126.175 207.219 126.448 215.668 127.077C217.293 127.194 217.279 124.771 215.668 124.654C200.637 123.536 185.543 123.548 170.514 124.688C155.561 125.943 140.699 128.12 126.014 131.208C117.684 132.894 109.395 134.753 101.107 136.612C99.5234 136.963 100.191 139.297 101.795 138.946H101.774Z" fill="#3A3A39"/>
</g>
<defs>
<clipPath id="clip0_5210_2523">
<rect width="314.846" height="194.44" fill="white" transform="translate(0.167969)"/>
</clipPath>
</defs>
</svg>
