<svg width="155" height="203" viewBox="0 0 155 203" fill="none" xmlns="http://www.w3.org/2000/svg">
<g clip-path="url(#clip0_5210_2306)">
<path d="M93.1999 111.796C93.6537 111.839 94.107 111.709 94.4703 111.434C94.8377 111.162 95.0876 110.76 95.169 110.31L98.434 96.2589C98.4912 95.9731 98.6373 95.8333 98.7897 95.8333C98.9422 95.8333 99.0883 95.9731 99.1454 96.2589L102.442 110.303C102.524 110.752 102.771 111.153 103.135 111.428C103.498 111.703 103.951 111.832 104.405 111.79H112.815C113.271 111.841 113.728 111.716 114.094 111.439C114.459 111.162 114.704 110.756 114.778 110.303L122.134 73.6455C122.369 72.4259 121.791 71.7399 120.52 71.7399H113.387C112.313 71.7399 111.545 72.2544 111.424 73.2263L108.026 97.072C107.962 97.3579 107.81 97.504 107.664 97.504C107.517 97.504 107.371 97.3579 107.308 97.072L103.312 73.2263C103.239 72.7739 102.994 72.3672 102.628 72.0905C102.263 71.8138 101.805 71.6882 101.35 71.7399H96.2235C95.771 71.6901 95.3165 71.815 94.9531 72.0892C94.5852 72.3646 94.3391 72.7724 94.267 73.2263L90.2716 97.072C90.2144 97.3579 90.0683 97.504 89.9159 97.504C89.7634 97.504 89.6173 97.3579 89.5538 97.072L86.1554 73.2263C86.0411 72.2544 85.2661 71.7399 84.1926 71.7399H77.0846C75.8142 71.7399 75.2362 72.445 75.4776 73.6455L82.8269 110.303C82.9007 110.757 83.1466 111.165 83.5134 111.442C83.8802 111.718 84.3396 111.843 84.7961 111.79L93.1999 111.796Z" fill="#3A3A39"/>
<path d="M152.142 185.017C147.314 185.017 144.786 182.476 142.937 180.57C141.292 178.893 140.486 178.156 138.65 178.156C136.814 178.156 136.001 178.893 134.356 180.57C132.514 182.476 129.986 185.017 125.152 185.017C120.318 185.017 117.796 182.476 115.947 180.57C114.302 178.893 113.502 178.156 111.666 178.156C109.83 178.156 109.024 178.893 107.378 180.57C105.536 182.476 103.008 185.017 98.1742 185.017C93.3403 185.017 90.8185 182.476 88.9701 180.57C87.3249 178.893 86.5245 178.156 84.6888 178.156C82.853 178.156 82.0463 178.893 80.4075 180.57C78.559 182.476 76.0309 185.017 71.2033 185.017C66.3757 185.017 63.8476 182.476 61.9991 180.57C60.3539 178.893 59.5536 178.156 57.7178 178.156C55.882 178.156 55.0753 178.893 53.4301 180.57C51.588 182.476 49.0599 185.017 44.2323 185.017C39.4047 185.017 36.8703 182.476 35.0282 180.57C33.383 178.893 32.5762 178.156 30.7468 178.156C28.9174 178.156 28.1044 178.893 26.4592 180.57C24.6107 182.476 22.089 185.017 17.255 185.017C12.4211 185.017 9.8993 182.476 8.05084 180.57C6.412 178.893 5.60528 178.156 3.76953 178.156V171.671C8.59712 171.671 11.1252 174.244 12.9737 176.117C14.6125 177.788 15.4193 178.525 17.255 178.525C19.0908 178.525 19.8975 177.788 21.5427 176.117C23.3848 174.212 25.9129 171.671 30.7468 171.671C35.5808 171.671 38.1026 174.244 39.9447 176.117C41.5899 177.788 42.3966 178.525 44.2323 178.525C46.0681 178.525 46.8684 177.788 48.5136 176.117C50.3621 174.212 52.8839 171.671 57.7178 171.671C62.5517 171.671 65.0735 174.244 66.922 176.117C68.5608 177.788 69.3675 178.525 71.2033 178.525C73.039 178.525 73.8394 177.788 75.4846 176.117C77.3331 174.212 79.8548 171.671 84.6888 171.671C89.5227 171.671 92.0445 174.244 93.8866 176.117C95.5318 177.788 96.3385 178.525 98.1742 178.525C100.01 178.525 100.817 177.788 102.462 176.111C104.304 174.237 106.832 171.665 111.666 171.665C116.5 171.665 119.022 174.237 120.864 176.111C122.509 177.782 123.316 178.518 125.152 178.518C126.987 178.518 127.794 177.782 129.439 176.105C131.288 174.231 133.816 171.658 138.65 171.658C143.484 171.658 146.005 174.231 147.854 176.105C149.499 177.782 150.306 178.518 152.142 178.518V185.017Z" fill="#3A3A39"/>
<path d="M152.142 202.687C147.314 202.687 144.786 200.146 142.937 198.241C141.292 196.57 140.486 195.827 138.65 195.827C136.814 195.827 136.001 196.57 134.356 198.241C132.514 200.146 129.986 202.687 125.152 202.687C120.318 202.687 117.796 200.146 115.947 198.241C114.302 196.57 113.502 195.827 111.666 195.827C109.83 195.827 109.024 196.57 107.378 198.241C105.536 200.146 103.008 202.687 98.1742 202.687C93.3403 202.687 90.8185 200.146 88.9701 198.241C87.3249 196.57 86.5245 195.827 84.6888 195.827C82.853 195.827 82.0463 196.57 80.4075 198.241C78.559 200.146 76.0309 202.687 71.2033 202.687C66.3757 202.687 63.8476 200.146 61.9991 198.241C60.3539 196.57 59.5536 195.827 57.7178 195.827C55.882 195.827 55.0753 196.57 53.4301 198.241C51.588 200.146 49.0599 202.687 44.2323 202.687C39.4047 202.687 36.8703 200.146 35.0282 198.241C33.383 196.57 32.5762 195.827 30.7468 195.827C28.9174 195.827 28.1044 196.57 26.4592 198.241C24.6107 200.146 22.089 202.687 17.255 202.687C12.4211 202.687 9.8993 200.146 8.05084 198.241C6.412 196.57 5.60528 195.827 3.76953 195.827V189.348C8.59712 189.348 11.1252 191.888 12.9737 193.794C14.6125 195.465 15.4193 196.208 17.255 196.208C19.0908 196.208 19.8975 195.465 21.5427 193.794C23.3848 191.888 25.9129 189.348 30.7468 189.348C35.5808 189.348 38.1026 191.888 39.9447 193.794C41.5899 195.465 42.3966 196.208 44.2323 196.208C46.0681 196.208 46.8684 195.465 48.5136 193.794C50.3621 191.888 52.8839 189.348 57.7178 189.348C62.5517 189.348 65.0735 191.888 66.922 193.794C68.5608 195.465 69.3675 196.208 71.2033 196.208C73.039 196.208 73.8394 195.465 75.4846 193.794C77.3331 191.888 79.8548 189.348 84.6888 189.348C89.5227 189.348 92.0445 191.888 93.8866 193.794C95.5318 195.465 96.3385 196.208 98.1742 196.208C100.01 196.208 100.817 195.465 102.462 193.794C104.304 191.888 106.832 189.348 111.666 189.348C116.5 189.348 119.022 191.888 120.864 193.794C122.509 195.465 123.316 196.208 125.152 196.208C126.987 196.208 127.794 195.465 129.439 193.794C131.288 191.888 133.816 189.348 138.65 189.348C143.484 189.348 146.005 191.888 147.854 193.794C149.499 195.465 150.306 196.208 152.142 196.208V202.687Z" fill="#3A3A39"/>
<path d="M36.679 31.2574C36.9154 31.2892 37.1559 31.2697 37.3841 31.2002C37.6212 31.1308 37.8388 31.0068 38.0193 30.8381C38.1945 30.6731 38.3274 30.4683 38.4068 30.241C38.4899 30.0181 38.5203 29.7789 38.4957 29.5423V23.133C38.4957 21.9897 37.8986 21.418 36.7108 21.418H6.22076C5.06468 21.418 4.42947 21.9897 4.42947 23.133V29.5423C4.40914 29.7799 4.44392 30.019 4.5311 30.241C4.61605 30.4618 4.7483 30.6612 4.91858 30.8254C5.09913 30.9941 5.31668 31.1181 5.55379 31.1875C5.77883 31.2614 6.0173 31.2852 6.25252 31.2574H14.5039C15.6917 31.2574 16.2888 31.829 16.2888 32.9724V59.7655C16.2685 60.0031 16.3033 60.2423 16.3905 60.4642C16.4754 60.685 16.6077 60.8845 16.7779 61.0486C16.9493 61.2131 17.1556 61.3369 17.3814 61.4107C17.6064 61.4846 17.8449 61.5085 18.0801 61.4806H24.7562C24.9926 61.5125 25.2331 61.493 25.4612 61.4234C25.687 61.3496 25.8933 61.2258 26.0647 61.0613C26.2399 60.8963 26.3728 60.6915 26.4522 60.4642C26.5353 60.2413 26.5657 60.0022 26.5411 59.7655V32.9724C26.5411 31.829 27.1763 31.2574 28.3324 31.2574H36.679Z" fill="#3A3A39"/>
<path d="M70.0464 61.4821C71.2406 61.4821 71.8377 60.8469 71.8377 59.7671V23.1346C71.8377 21.9912 71.2406 21.4195 70.0464 21.4195H63.4085C63.1733 21.3916 62.9348 21.4155 62.7097 21.4894C62.4726 21.5588 62.2551 21.6828 62.0745 21.8514C61.9043 22.0156 61.772 22.2151 61.6871 22.4358C61.5999 22.6578 61.5651 22.8969 61.5854 23.1346V37.4331C61.616 37.6611 61.5965 37.8931 61.5283 38.1128C61.4574 38.3521 61.3287 38.5703 61.1535 38.748C60.9729 38.9166 60.7554 39.0406 60.5183 39.1101C60.2901 39.1796 60.0496 39.1991 59.8132 39.1672H54.0963C53.8611 39.1984 53.6219 39.1745 53.3976 39.0974C53.1721 39.0168 52.9676 38.8864 52.7993 38.716C52.6311 38.5455 52.5034 38.3394 52.4257 38.1128C52.3385 37.8908 52.3038 37.6517 52.3241 37.4141V23.1346C52.3541 22.9019 52.3324 22.6655 52.2606 22.4422C52.1748 22.22 52.0427 22.0186 51.8731 21.8514C51.705 21.6922 51.5044 21.5711 51.2851 21.4965C51.0658 21.422 50.833 21.3957 50.6027 21.4195H43.8568C42.6689 21.4195 42.0718 21.9912 42.0718 23.1346V59.7671C42.0525 60.0041 42.085 60.2425 42.1671 60.4658C42.2515 60.6873 42.3843 60.8872 42.5557 61.0509C42.7271 61.2146 42.9329 61.3381 43.158 61.4122C43.3824 61.4894 43.6216 61.5133 43.8568 61.4821H50.5392C50.7756 61.514 51.0161 61.4945 51.2442 61.4249C51.47 61.3511 51.6763 61.2274 51.8477 61.0629C52.0307 60.902 52.1724 60.6993 52.2606 60.4721C52.3433 60.2469 52.3737 60.0058 52.3495 59.7671V50.7026C52.3495 49.5592 52.9847 48.9876 54.1408 48.9876H59.8577C61.0455 48.9876 61.6426 49.5592 61.6426 50.7026V59.7671C61.6223 60.0047 61.657 60.2438 61.7442 60.4658C61.8287 60.6873 61.9614 60.8872 62.1328 61.0509C62.3043 61.2146 62.51 61.3381 62.7352 61.4122C62.9595 61.4894 63.1987 61.5133 63.4339 61.4821H70.0464Z" fill="#3A3A39"/>
<path d="M78.3034 61.0486C78.485 61.2158 78.7022 61.3396 78.9386 61.4107C79.1629 61.4878 79.4021 61.5117 79.6373 61.4806H104.677C105.871 61.4806 106.469 60.9089 106.469 59.7655V53.3563C106.469 52.2129 105.871 51.6412 104.677 51.6412H90.2072C89.972 51.6691 89.7335 51.6452 89.5085 51.5713C89.2827 51.4975 89.0764 51.3737 88.905 51.2093C88.7347 51.0451 88.6025 50.8456 88.5175 50.6249C88.4335 50.4021 88.3988 50.1637 88.4159 49.9261V48.065C88.4159 46.9216 89.0511 46.3499 90.2072 46.3499H99.4431C100.637 46.3499 101.234 45.7147 101.234 44.6348V38.2319C101.234 37.0886 100.637 36.5169 99.4431 36.5169H90.2072C89.972 36.5448 89.7335 36.5209 89.5085 36.447C89.2827 36.3732 89.0764 36.2494 88.905 36.0849C88.7347 35.9208 88.6025 35.7213 88.5175 35.5005C88.4335 35.2777 88.3988 35.0393 88.4159 34.8018V32.9724C88.4159 31.829 89.0511 31.2573 90.2072 31.2573H104.633C105.827 31.2573 106.424 30.6221 106.424 29.5423V23.133C106.424 21.9897 105.827 21.418 104.633 21.418H79.5738C78.4241 21.418 77.7889 21.9897 77.7889 23.133V59.7655C77.769 60.0005 77.8016 60.237 77.8841 60.4579C77.9792 60.683 78.1223 60.8846 78.3034 61.0486Z" fill="#3A3A39"/>
<path d="M37.3839 111.713C37.6113 111.639 37.8187 111.514 37.9904 111.348C38.1622 111.182 38.2937 110.979 38.3749 110.754C38.458 110.531 38.4884 110.292 38.4638 110.055V73.4543C38.4638 72.3109 37.8667 71.7392 36.6789 71.7392H30.0282C28.8785 71.7392 28.2433 72.3109 28.2433 73.4543V91.9389C28.2433 92.2628 28.0464 92.4407 27.913 92.4407C27.7796 92.4407 27.6335 92.3327 27.5255 92.1104L19.3885 73.0478C19.2285 72.6383 18.9421 72.2905 18.5707 72.0551C18.1994 71.8198 17.7627 71.7091 17.3241 71.7392H8.53912C7.38304 71.7392 6.74783 72.3109 6.74783 73.4543V110.042C6.7275 110.28 6.76228 110.519 6.84946 110.741C6.93441 110.962 7.06666 111.161 7.23694 111.325C7.41749 111.494 7.63504 111.618 7.87215 111.688C8.09719 111.761 8.33566 111.785 8.57088 111.757H15.2152C16.4094 111.757 17.0065 111.122 17.0065 110.042V91.5704C17.0065 91.2465 17.1907 91.0686 17.3304 91.0686C17.4702 91.0686 17.6163 91.1766 17.7179 91.3989L25.8295 110.455C25.9833 110.875 26.27 111.233 26.6461 111.475C27.0222 111.717 27.4671 111.83 27.913 111.795H36.6789C36.9171 111.819 37.1576 111.791 37.3839 111.713Z" fill="#3A3A39"/>
<path d="M71.2529 71.7383H46.2129C45.0569 71.7383 44.4217 72.31 44.4217 73.4533V110.054C44.4013 110.292 44.4361 110.531 44.5233 110.753C44.6077 110.974 44.7405 111.174 44.9119 111.338C45.0833 111.502 45.2891 111.625 45.5142 111.699C45.7386 111.776 45.9778 111.8 46.2129 111.769H71.2529C72.4407 111.769 73.0378 111.197 73.0378 110.054V103.651C73.0378 102.508 72.4407 101.936 71.2529 101.936H56.8209C56.5858 101.967 56.3466 101.943 56.1222 101.866C55.8851 101.797 55.6675 101.673 55.487 101.504C55.3168 101.342 55.1851 101.144 55.1016 100.924C55.018 100.704 54.9848 100.468 55.0042 100.234V98.398C55.0042 97.2546 55.6394 96.6829 56.7892 96.6829H66.0315C67.2257 96.6829 67.8227 96.0477 67.8227 94.9679V88.5523C67.8227 87.4089 67.2257 86.8372 66.0315 86.8372H56.8209C56.5858 86.8684 56.3466 86.8444 56.1222 86.7673C55.8851 86.6979 55.6675 86.5739 55.487 86.4052C55.3139 86.2409 55.1813 86.0387 55.0995 85.8145C55.0169 85.5936 54.9844 85.3571 55.0042 85.1221V83.2927C55.0042 82.1494 55.6394 81.5777 56.7892 81.5777H71.2529C71.4893 81.6095 71.7298 81.59 71.958 81.5205C72.183 81.4451 72.389 81.3215 72.5614 81.1584C72.7346 80.9917 72.8672 80.7874 72.9489 80.5613C73.032 80.3384 73.0624 80.0993 73.0378 79.8626V73.4533C73.0378 72.31 72.4407 71.7383 71.2529 71.7383Z" fill="#3A3A39"/>
<path d="M23.5802 161.749C23.9476 161.477 24.1975 161.075 24.2789 160.625L27.5566 146.555C27.6137 146.269 27.7662 146.129 27.9123 146.129C28.0584 146.129 28.2108 146.269 28.268 146.555L31.552 160.625C31.6336 161.073 31.8808 161.474 32.2444 161.749C32.6066 162.026 33.0607 162.156 33.5148 162.111H41.925C42.381 162.166 42.8405 162.042 43.2066 161.764C43.5728 161.487 43.817 161.078 43.8878 160.625L51.2244 123.967C51.4595 122.747 50.8814 122.061 49.611 122.061V122.017H42.5157C41.4422 122.017 40.6736 122.531 40.5529 123.503L37.1546 147.368C37.091 147.654 36.9386 147.8 36.7925 147.8C36.6464 147.8 36.5003 147.654 36.4368 147.368L32.4413 123.503C32.3715 123.05 32.1277 122.642 31.7616 122.366C31.3982 122.092 30.9438 121.967 30.4912 122.017H25.3524C24.8999 121.967 24.4454 122.092 24.082 122.366C23.7141 122.641 23.468 123.049 23.396 123.503L19.3878 147.368C19.3306 147.654 19.1845 147.8 19.0321 147.8C18.8796 147.8 18.7335 147.654 18.67 147.368L15.2716 123.522C15.1573 122.55 14.3823 122.036 13.3088 122.036H6.21355C4.94314 122.036 4.3651 122.741 4.60648 123.941L11.9368 160.644C12.0105 161.097 12.2564 161.505 12.6232 161.782C12.99 162.059 13.4495 162.183 13.9059 162.13H22.3097C22.7661 162.168 23.2199 162.032 23.5802 161.749Z" fill="#3A3A39"/>
<path d="M81.5626 162.072C82.7568 162.072 83.3539 161.398 83.3539 160.128V135.933C83.3539 128.723 82.1597 121.062 68.7441 121.062C55.3284 121.062 54.166 128.691 54.166 135.933V160.16C54.166 161.43 54.8012 162.103 55.9573 162.103H62.6079C63.7958 162.103 64.3929 161.532 64.3929 160.388V155.415C64.3929 154.271 65.0281 153.7 66.1842 153.7H71.3167C72.5108 153.7 73.1079 154.271 73.1079 155.415V160.388C73.1079 161.532 73.7431 162.103 74.8929 162.103L81.5626 162.072ZM73.127 142.075C73.127 143.212 72.5299 143.79 71.3357 143.847H66.235C65.9998 143.879 65.7606 143.855 65.5363 143.778C65.3111 143.703 65.1053 143.58 64.9339 143.416C64.7625 143.252 64.6297 143.053 64.5453 142.831C64.4581 142.609 64.4234 142.37 64.4437 142.132V135.933C64.4437 133.189 64.8566 131.81 68.7949 131.81C72.7332 131.81 73.1524 133.189 73.1524 135.933L73.127 142.075Z" fill="#3A3A39"/>
<path d="M86.5113 123.922L95.2264 160.625C95.3078 161.075 95.5577 161.477 95.9251 161.749C96.2882 162.025 96.7417 162.154 97.1956 162.111H108.28C108.735 162.155 109.189 162.027 109.554 161.751C109.919 161.476 110.167 161.074 110.249 160.625L118.958 123.967C119.256 122.747 118.678 122.061 117.408 122.061V122.017H110.313C109.858 121.972 109.403 122.101 109.038 122.376C108.674 122.651 108.426 123.053 108.343 123.503L103.078 145.462C103.02 145.723 102.874 145.85 102.722 145.85C102.569 145.85 102.423 145.723 102.36 145.462L97.113 123.503C97.0314 123.055 96.7842 122.653 96.4206 122.379C96.0584 122.101 95.6043 121.972 95.1502 122.017H88.0613C86.8099 122.017 86.2128 122.722 86.5113 123.922Z" fill="#3A3A39"/>
<path d="M124.756 122.061C123.607 122.061 122.972 122.632 122.972 123.776V160.376C122.953 160.611 122.987 160.846 123.071 161.066C123.154 161.285 123.285 161.484 123.454 161.647C123.626 161.811 123.832 161.935 124.058 162.009C124.283 162.083 124.521 162.107 124.756 162.079H149.796C150.991 162.079 151.588 161.507 151.588 160.364V153.973C151.588 152.83 150.991 152.258 149.796 152.258H135.371C135.133 152.286 134.893 152.262 134.666 152.188C134.442 152.111 134.236 151.987 134.062 151.826C133.891 151.661 133.758 151.459 133.675 151.236C133.589 151.015 133.552 150.779 133.567 150.543V148.714C133.567 147.571 134.202 146.999 135.358 146.999H144.6C144.837 147.031 145.077 147.011 145.305 146.942C145.533 146.868 145.74 146.742 145.909 146.573C146.078 146.411 146.209 146.212 146.292 145.992C146.374 145.772 146.406 145.537 146.385 145.303V138.875C146.385 137.731 145.788 137.159 144.6 137.159H135.371C135.136 137.187 134.897 137.163 134.672 137.09C134.435 137.02 134.217 136.896 134.037 136.728C133.867 136.563 133.734 136.364 133.649 136.143C133.562 135.921 133.527 135.682 133.548 135.444V133.615C133.548 132.472 134.183 131.9 135.339 131.9H149.765C150.959 131.9 151.556 131.265 151.556 130.185V123.776C151.556 122.632 150.959 122.061 149.765 122.061H124.756Z" fill="#3A3A39"/>
<path d="M99.4447 36.5176H91.9746C94.5105 39.3049 97.6901 41.429 101.236 42.7045V38.258C101.236 37.0977 100.639 36.5176 99.4447 36.5176Z" fill="#3A3A39"/>
<path d="M109.321 0C98.0274 0 88.6136 7.86388 86.6953 18.1797H93.6C95.404 11.4655 101.769 6.48548 109.321 6.48548C118.278 6.48548 125.557 13.4728 125.557 22.0608C125.557 30.6488 118.272 37.6298 109.321 37.6298C107.676 37.6318 106.038 37.3921 104.462 36.9183C104.573 37.3475 104.625 37.79 104.615 38.2332V43.6515C106.164 43.9614 107.741 44.1167 109.321 44.1152C122.026 44.1152 132.316 34.225 132.316 22.0608C132.316 9.89655 121.994 0 109.321 0Z" fill="#3A3A39"/>
<path d="M86.3516 21.418C86.3516 21.634 86.3516 21.8436 86.3516 22.0532C86.3497 25.4681 87.1735 28.8329 88.7527 31.8608C88.9289 31.644 89.155 31.4731 89.4116 31.3625C89.6682 31.2519 89.9477 31.2049 90.2263 31.2256H96.2545C94.2194 28.591 93.1138 25.3568 93.1102 22.0278C93.1102 21.8118 93.1102 21.5958 93.1102 21.3926L86.3516 21.418Z" fill="#3A3A39"/>
</g>
<defs>
<clipPath id="clip0_5210_2306">
<rect width="154" height="202.708" fill="white" transform="translate(0.986328)"/>
</clipPath>
</defs>
</svg>
