<svg width="147" height="64" viewBox="0 0 147 64" fill="none" xmlns="http://www.w3.org/2000/svg">
<g clip-path="url(#clip0_3397_9685)">
<path d="M141.704 15.1621C141.704 10.9901 138.41 7.47368 134.09 7.02966C132.593 6.8747 131.095 6.73166 129.616 6.58266C129.335 6.55584 129.053 6.54396 128.772 6.54396C127.14 6.5387 125.54 6.99662 124.161 7.86407C124.123 7.88816 124.081 7.90458 124.037 7.91238C123.994 7.92018 123.949 7.91918 123.905 7.90947C123.862 7.89976 123.821 7.88156 123.784 7.85585C123.748 7.83015 123.717 7.79744 123.694 7.75974L123.08 6.71078C122.934 6.4684 122.733 6.26444 122.491 6.11609C122.25 5.96775 121.976 5.87941 121.693 5.85854L118.654 5.61118C117.157 5.49198 115.636 5.37281 114.142 5.26255C113.926 5.24765 113.711 5.23868 113.495 5.23868C112.226 5.23589 110.972 5.51376 109.824 6.05221C107.529 4.88191 105.012 4.2057 102.437 4.06757C102.081 4.04671 101.725 4.03774 101.371 4.03774C100.011 4.0333 98.6543 4.18632 97.3292 4.49368C96.5783 3.31156 95.546 2.33196 94.3239 1.64167C93.1017 0.951379 91.7274 0.571702 90.3226 0.536247C88.8434 0.485588 87.3433 0.440899 85.8641 0.399179H85.6186C84.2973 0.39329 82.9923 0.690203 81.8048 1.26691C80.6173 1.84362 79.5792 2.6847 78.7708 3.7249C74.992 3.6653 71.2013 3.6325 67.4465 3.6325H67.0692C66.5153 3.2749 65.9583 2.94112 65.3924 2.64312C63.9335 1.86477 62.3852 1.26539 60.7812 0.85811C59.2691 0.483405 57.7165 0.294292 56.1581 0.294923H55.7389C52.6461 0.317112 49.6023 1.06546 46.8549 2.47921C45.0894 3.41298 43.5087 4.65795 42.1899 6.15356C40.7464 5.18137 39.0432 4.66234 37.3003 4.66356C37.1386 4.66356 36.9769 4.66356 36.8182 4.66356L33.2431 4.86618C31.7968 4.95506 30.3958 5.40278 29.1679 6.16848C28.494 5.72198 27.784 5.33219 27.045 5.00325C24.9329 4.09316 22.6511 3.63819 20.3498 3.66822C19.7509 3.66822 19.1072 3.69803 18.4724 3.75167C14.9421 4.04967 11.367 4.40135 7.84875 4.76491C3.51905 5.20893 0.234375 8.71334 0.234375 12.8972V37.3154C0.234375 41.4873 3.52804 45.0037 7.85175 45.4477C10.8789 45.7606 13.9421 46.0437 16.9812 46.3268C17.7162 47.3234 18.6612 48.148 19.7499 48.7431C20.8386 49.3381 22.0448 49.6891 23.2842 49.7717C24.9041 49.8909 26.5449 50.0071 28.1528 50.1144C28.3475 50.1293 28.5481 50.1353 28.7517 50.1353C29.9771 50.1438 31.1902 49.8915 32.3097 49.3956C33.4292 48.8996 34.4294 48.1714 35.2432 47.2595C35.9984 48.3373 36.9932 49.2271 38.1503 49.8597C39.3073 50.4923 40.5955 50.8507 41.9144 50.9071C43.5134 50.9815 45.1392 51.056 46.7501 51.1216H47.1125C49.4036 51.122 51.6026 50.2237 53.2327 48.6214C53.3645 48.6214 53.4962 48.6214 53.628 48.6214H53.6639C54.2118 48.6572 54.7598 48.675 55.2927 48.675C58.2281 48.7216 61.1365 48.1105 63.8025 46.887C64.1019 46.7529 64.3623 46.6099 64.6378 46.4579C65.2864 48.02 66.3891 49.3535 67.8045 50.2875C69.2199 51.2214 70.8834 51.7133 72.5816 51.6998H72.6564C74.1296 51.6998 75.6298 51.6729 77.1059 51.652C78.5088 51.6377 79.8868 51.2818 81.1197 50.6154C82.3525 49.9489 83.4026 48.9922 84.1783 47.8288C84.6533 47.9079 85.134 47.9477 85.6156 47.9479H85.8641C87.3313 47.9062 88.8314 47.8585 90.3196 47.8079C90.7666 47.7923 91.212 47.7445 91.6521 47.6649C91.9655 47.8854 92.2888 48.0969 92.6222 48.2996C95.258 49.8886 98.2869 50.7142 101.368 50.6836C101.719 50.6836 102.078 50.6836 102.434 50.6538C105.034 50.5146 107.575 49.8269 109.887 48.6363C111.048 49.1779 112.315 49.4577 113.597 49.4558C113.815 49.4558 114.037 49.4558 114.256 49.432C115.732 49.3217 117.223 49.2055 118.687 49.0893C120.777 48.9262 122.737 48.0121 124.2 46.5175C125.678 47.5593 127.445 48.1176 129.257 48.1148C129.556 48.1148 129.829 48.0999 130.113 48.0731C131.434 47.9449 132.775 47.8109 134.099 47.6738C138.425 47.2298 141.701 43.7223 141.701 39.5444L141.704 15.1621Z" fill="#3A3A39"/>
<path d="M113.18 43.091C112.681 43.099 112.199 42.9096 111.839 42.5644C111.48 42.2192 111.273 41.7463 111.264 41.2494V13.2375C111.272 12.7706 111.466 12.326 111.803 12.0006C112.139 11.6752 112.591 11.4953 113.06 11.5001H113.201C114.688 11.6094 116.177 11.7256 117.668 11.8487L118.165 11.8875L118.408 12.3047C121.148 16.9773 123.831 21.3609 126.379 25.3332L126.412 25.36C126.477 25.36 126.477 25.3183 126.477 25.3034V14.5755C126.487 14.0933 126.688 13.6345 127.036 13.2994C127.385 12.9644 127.852 12.7803 128.337 12.7875C128.401 12.7875 128.464 12.7875 128.526 12.7875C130.005 12.9305 131.484 13.0785 132.963 13.2315C133.431 13.2714 133.867 13.4828 134.187 13.8248C134.507 14.1668 134.687 14.6149 134.694 15.082V39.4823C134.687 39.9491 134.506 40.3968 134.186 40.7383C133.867 41.0798 133.431 41.2907 132.963 41.3298C131.648 41.4669 130.333 41.599 129.02 41.7261C128.954 41.7261 128.891 41.7261 128.825 41.7261C128.512 41.728 128.203 41.6551 127.924 41.5135C127.646 41.372 127.405 41.1659 127.223 40.9126C124.762 37.432 122.19 33.5908 119.579 29.4933C119.561 29.4635 119.555 29.4635 119.543 29.4635C119.52 29.4637 119.498 29.471 119.48 29.4844C119.478 29.4952 119.478 29.5062 119.48 29.5171V40.8679C119.47 41.3412 119.283 41.7937 118.955 42.1366C118.627 42.4795 118.182 42.6881 117.707 42.7215C116.246 42.8377 114.782 42.9539 113.318 43.0612L113.18 43.091Z" fill="#3A3A39"/>
<path d="M113.073 12.3935H113.142C114.454 12.4909 115.766 12.5902 117.08 12.6915C117.24 12.704 117.395 12.7546 117.531 12.8392C117.668 12.9237 117.782 13.0397 117.864 13.1773C120.439 17.5609 123.017 21.7805 125.592 25.7946C125.68 25.9356 125.802 26.0518 125.948 26.1317C126.094 26.2116 126.258 26.2525 126.425 26.2505C126.554 26.2545 126.684 26.2327 126.805 26.1864C126.926 26.1401 127.036 26.0702 127.13 25.9809C127.224 25.8915 127.299 25.7845 127.35 25.6661C127.402 25.5476 127.429 25.4201 127.431 25.291V14.563C127.431 14.4438 127.455 14.3258 127.501 14.216C127.548 14.1061 127.616 14.0066 127.701 13.9233C127.787 13.84 127.888 13.7747 128 13.731C128.111 13.6873 128.23 13.6662 128.35 13.669H128.443C129.922 13.81 131.4 13.9571 132.877 14.11C133.12 14.1286 133.346 14.2368 133.513 14.4133C133.679 14.5897 133.773 14.8217 133.776 15.0636V39.4638C133.772 39.7052 133.678 39.9364 133.512 40.1123C133.345 40.2881 133.119 40.3959 132.877 40.4144C131.566 40.5495 130.253 40.6806 128.94 40.8078H128.838C128.677 40.8085 128.519 40.7711 128.376 40.6985C128.232 40.6259 128.109 40.5203 128.015 40.3906C125.476 36.7997 122.924 32.9942 120.394 29.007C120.307 28.8644 120.183 28.7468 120.036 28.6659C119.889 28.5849 119.724 28.5432 119.556 28.5451C119.426 28.5407 119.297 28.5621 119.176 28.6081C119.055 28.6541 118.944 28.7236 118.851 28.8127C118.757 28.9019 118.682 29.0087 118.63 29.127C118.579 29.2453 118.551 29.3727 118.55 29.5017V40.8525C118.547 41.0943 118.453 41.3263 118.287 41.5028C118.12 41.6793 117.894 41.7875 117.652 41.806C116.19 41.9252 114.729 42.0385 113.268 42.1458H113.193C112.939 42.1498 112.693 42.0532 112.51 41.8773C112.327 41.7013 112.222 41.4603 112.217 41.2071V13.1951C112.219 13.0836 112.243 12.9735 112.288 12.8712C112.332 12.7689 112.397 12.6764 112.477 12.5989C112.558 12.5214 112.653 12.4605 112.758 12.4197C112.862 12.3788 112.973 12.3588 113.085 12.3608M113.085 10.5549C112.671 10.5496 112.261 10.6393 111.888 10.8171C111.431 11.0291 111.045 11.3657 110.773 11.7877C110.501 12.2097 110.355 12.6998 110.352 13.2011V41.1266C110.355 41.8742 110.653 42.5908 111.181 43.1219C111.71 43.6531 112.427 43.9564 113.178 43.9665H113.43C114.891 43.8593 116.367 43.7431 117.822 43.6269C118.529 43.5813 119.192 43.2727 119.68 42.7625C120.168 42.2523 120.446 41.5778 120.457 40.8733V32.5145C122.511 35.6762 124.535 38.6651 126.488 41.4246C126.758 41.801 127.114 42.1074 127.528 42.3179C127.942 42.5285 128.4 42.637 128.865 42.6345C128.961 42.6345 129.06 42.6345 129.164 42.6196C130.473 42.4914 131.802 42.3604 133.114 42.2263C133.808 42.1659 134.455 41.8515 134.929 41.344C135.404 40.8365 135.672 40.1719 135.683 39.4787V15.0785C135.672 14.3846 135.403 13.7192 134.928 13.2112C134.453 12.7031 133.806 12.3884 133.111 12.328C131.635 12.176 130.141 12.03 128.667 11.887C128.575 11.887 128.479 11.872 128.386 11.872C127.658 11.8609 126.956 12.1366 126.432 12.6391C125.908 13.1416 125.605 13.83 125.589 14.554V22.2454C123.544 18.9883 121.427 15.4957 119.277 11.8154L119.047 11.425C118.965 11.2875 118.852 11.1715 118.716 11.087C118.58 11.0024 118.425 10.9518 118.265 10.9393L117.798 10.9035C116.301 10.7814 114.804 10.6652 113.307 10.5549H113.094H113.085Z" fill="#F8F8F8"/>
<path d="M100.95 44.3187C99.1069 44.3438 97.2936 43.8577 95.7127 42.9151C93.916 41.7985 92.5014 40.1662 91.6555 38.2335C90.6862 36.0282 90.2198 33.6366 90.2901 31.2305V23.3693C90.2204 20.9653 90.6867 18.5757 91.6555 16.3723C92.502 14.4407 93.9164 12.8096 95.7127 11.6938C97.2939 10.7494 99.1087 10.2632 100.953 10.2901C101.178 10.2901 101.406 10.2961 101.635 10.308C103.732 10.4054 105.76 11.0812 107.492 12.2599C109.23 13.4577 110.613 15.0969 111.498 17.007C112.458 19.0903 112.925 21.3646 112.864 23.6554V30.9564C112.923 33.2452 112.456 35.5172 111.498 37.5988C110.614 39.5086 109.23 41.1469 107.492 42.3429C105.76 43.5225 103.732 44.1984 101.635 44.2948C101.405 44.3127 101.177 44.3187 100.95 44.3187ZM101.426 19.2868C100.932 19.2682 100.444 19.3969 100.024 19.6563C99.594 19.9393 99.26 20.3456 99.0663 20.8214C98.7692 21.5389 98.6274 22.3106 98.6501 23.0863V31.4779C98.6254 32.2576 98.7673 33.0335 99.0663 33.7546C99.2599 34.2313 99.5939 34.6385 100.024 34.9228C100.446 35.1809 100.934 35.3094 101.429 35.2923H101.551C102.108 35.2951 102.653 35.131 103.114 34.8214C103.552 34.515 103.892 34.0913 104.097 33.5997C104.396 32.8893 104.538 32.1228 104.513 31.3528V23.2084C104.532 22.4485 104.39 21.6931 104.097 20.9913C103.89 20.4999 103.549 20.0763 103.112 19.7695C102.65 19.4618 102.107 19.2979 101.551 19.2986L101.426 19.2868Z" fill="#3A3A39"/>
<path d="M103.659 19.0362C103.044 18.6255 102.321 18.4047 101.581 18.4015H101.425C100.747 18.3844 100.079 18.5646 99.5029 18.92C98.9231 19.3 98.4705 19.8437 98.2034 20.4815C97.8548 21.3112 97.6864 22.2048 97.7094 23.1039V31.4956C97.6848 32.3996 97.8531 33.2984 98.2034 34.1328C98.4705 34.7698 98.9231 35.3126 99.5029 35.6913C100.079 36.0495 100.749 36.2309 101.428 36.2128H101.581C102.322 36.2086 103.044 35.9867 103.659 35.5752C104.234 35.1748 104.685 34.6212 104.958 33.9779C105.309 33.152 105.478 32.2608 105.452 31.3645V23.2082C105.473 22.3248 105.305 21.4471 104.958 20.6335C104.684 19.9904 104.234 19.4369 103.659 19.0362Z" fill="#F8F8F8"/>
<path d="M112.355 16.632C111.4 14.5765 109.909 12.8136 108.037 11.5273C106.16 10.2472 103.962 9.51344 101.689 9.4085C101.444 9.3936 101.195 9.38769 100.953 9.38769C98.9313 9.36072 96.9425 9.89526 95.2096 10.9313C93.2583 12.1378 91.7197 13.9039 90.7961 15.9973C89.7726 18.3182 89.2796 20.8363 89.3528 23.3698V31.222C89.2796 33.7546 89.7725 36.2718 90.7961 38.5916C91.7205 40.6854 93.2602 42.4515 95.2126 43.6576C96.9435 44.693 98.9302 45.2275 100.95 45.2012C101.195 45.2012 101.444 45.2012 101.689 45.1803C103.962 45.0744 106.16 44.3408 108.037 43.0616C109.909 41.7745 111.4 40.0118 112.355 37.9568C113.368 35.7547 113.864 33.3515 113.804 30.93V23.6559C113.864 21.2353 113.369 18.833 112.355 16.632ZM111.927 30.9598C111.983 33.1157 111.545 35.2559 110.645 37.2178C109.829 38.9822 108.552 40.4961 106.947 41.6014C105.36 42.6823 103.502 43.3015 101.581 43.3894C101.369 43.3894 101.159 43.4072 100.95 43.4072C99.2828 43.433 97.6421 42.9943 96.2127 42.1408C94.5727 41.119 93.2832 39.6257 92.5148 37.8585C91.5995 35.771 91.1607 33.5075 91.2302 31.231V23.3608C91.1608 21.0834 91.5995 18.8189 92.5148 16.7304C93.2848 14.9641 94.574 13.4712 96.2127 12.4481C97.6439 11.5964 99.2853 11.1588 100.953 11.1846C101.152 11.1846 101.362 11.1905 101.581 11.2025C103.502 11.2911 105.36 11.9102 106.947 12.9905C108.551 14.0976 109.828 15.6123 110.645 17.377C111.546 19.3386 111.984 21.4791 111.927 23.635V30.9598Z" fill="#F8F8F8"/>
<path d="M85.196 41.5921C84.6919 41.6 84.2053 41.4088 83.8427 41.0602C83.4801 40.7117 83.2712 40.2342 83.2617 39.7325V8.50819C83.2712 8.00655 83.4801 7.52915 83.8427 7.18058C84.2053 6.832 84.6919 6.6407 85.196 6.64868H85.2529C86.726 6.6904 88.1982 6.73608 89.6694 6.78575C90.162 6.79268 90.6324 6.99054 90.9808 7.33722C91.3291 7.68389 91.5279 8.15212 91.5348 8.64235V39.5985C91.5286 40.0892 91.3302 40.5582 90.9818 40.9055C90.6334 41.2528 90.1625 41.451 89.6694 41.458C88.1962 41.5057 86.726 41.5533 85.2529 41.5921H85.196Z" fill="#3A3A39"/>
<path d="M85.1968 7.55235H85.2267C86.6969 7.59109 88.1671 7.63875 89.6373 7.68643C89.8905 7.69104 90.1319 7.79343 90.3107 7.97192C90.4895 8.15041 90.5916 8.39108 90.5954 8.64307V39.5992C90.5916 39.8512 90.4895 40.0919 90.3107 40.2703C90.1319 40.4488 89.8905 40.5511 89.6373 40.5558C88.1681 40.6074 86.6979 40.6531 85.2267 40.6928H85.1968C84.9378 40.696 84.6881 40.5973 84.5019 40.4182C84.3157 40.239 84.2082 39.9939 84.2027 39.7363V8.50891C84.2074 8.25098 84.3147 8.00544 84.5011 7.82612C84.6874 7.6468 84.9376 7.54836 85.1968 7.55235ZM85.1968 5.74646C84.4478 5.73449 83.7247 6.01858 83.1858 6.53642C82.647 7.05425 82.3364 7.76357 82.3223 8.50891V39.7333C82.3364 40.4784 82.6471 41.1874 83.186 41.7048C83.725 42.2221 84.4481 42.5055 85.1968 42.4927H85.2806C86.7478 42.451 88.236 42.4063 89.7032 42.3557C90.4356 42.3464 91.1355 42.0527 91.6534 41.5372C92.1714 41.0217 92.4665 40.3252 92.4758 39.5962V8.64307C92.465 7.91457 92.1694 7.21886 91.6518 6.70368C91.1341 6.18849 90.4351 5.89437 89.7032 5.8836C88.239 5.83294 86.7508 5.78818 85.2806 5.74646H85.1968Z" fill="#F8F8F8"/>
<path d="M72.1606 45.3438C71.6565 45.3518 71.1699 45.1605 70.8073 44.8119C70.4447 44.4634 70.2358 43.986 70.2263 43.4843V19.4388C70.2259 19.4079 70.2194 19.3773 70.2072 19.3489C70.1949 19.3205 70.1771 19.2947 70.1549 19.2731C70.1327 19.2515 70.1063 19.2345 70.0775 19.2231C70.0486 19.2116 70.0178 19.2059 69.9868 19.2063H64.9744C64.4703 19.2151 63.9833 19.0246 63.6202 18.6765C63.257 18.3285 63.0473 17.8515 63.0371 17.3498V11.7444C63.0473 11.2436 63.2561 10.767 63.6178 10.4187C63.9796 10.0704 64.4651 9.87853 64.9684 9.88492H67.0464C72.6067 9.88492 78.2509 9.95344 83.8142 10.0846C84.3093 10.0914 84.7825 10.2889 85.1342 10.6357C85.486 10.9824 85.6891 11.4514 85.7006 11.9441V17.46C85.6963 17.7082 85.643 17.953 85.5436 18.1806C85.4442 18.4082 85.3008 18.6141 85.1214 18.7865C84.9421 18.9589 84.7304 19.0944 84.4984 19.1854C84.2664 19.2763 84.0187 19.3209 83.7693 19.3166L78.748 19.26C78.7167 19.2592 78.6855 19.2646 78.6563 19.2759C78.6271 19.2872 78.6004 19.3041 78.5779 19.3257C78.5553 19.3474 78.5373 19.3732 78.5249 19.4018C78.5124 19.4304 78.5058 19.4612 78.5054 19.4924V43.4396C78.4952 43.9363 78.2898 44.4093 77.9332 44.7569C77.5766 45.1046 77.0973 45.2992 76.5981 45.2991C75.1249 45.3209 73.6518 45.3369 72.1786 45.3468L72.1606 45.3438Z" fill="#3A3A39"/>
<path d="M67.0281 10.7844C72.6174 10.7844 78.2066 10.8509 83.7959 10.984C84.051 10.9863 84.295 11.0876 84.4762 11.2663C84.6574 11.4449 84.7614 11.6868 84.7661 11.9406V17.4566C84.7641 17.584 84.7368 17.7099 84.6859 17.8268C84.635 17.9438 84.5615 18.0495 84.4694 18.1381C84.3773 18.2267 84.2685 18.2964 84.1494 18.3431C84.0302 18.3898 83.903 18.4125 83.7749 18.4102H83.76L78.7626 18.3536C78.4549 18.3488 78.158 18.4656 77.9368 18.6785C77.7156 18.8913 77.5884 19.1828 77.5828 19.489V43.4361C77.5781 43.6922 77.4726 43.9363 77.2889 44.1158C77.1052 44.2952 76.8581 44.3958 76.6007 44.3957C75.1315 44.4136 73.6614 44.4285 72.1902 44.4404C71.931 44.4444 71.6808 44.346 71.4945 44.1666C71.3081 43.9873 71.2008 43.7418 71.1961 43.4839V19.4383C71.1906 19.1327 71.0636 18.8416 70.8431 18.6289C70.6226 18.4161 70.3265 18.2989 70.0193 18.3029H64.974C64.8458 18.3053 64.7184 18.2825 64.5991 18.2358C64.4797 18.1892 64.3707 18.1196 64.2784 18.031C64.1861 17.9425 64.1122 17.8367 64.061 17.7197C64.0098 17.6028 63.9822 17.4769 63.9799 17.3493V11.744C63.9818 11.6161 64.0092 11.4899 64.0602 11.3726C64.1113 11.2553 64.185 11.1492 64.2774 11.0603C64.3698 10.9714 64.4789 10.9015 64.5984 10.8547C64.7179 10.8079 64.8456 10.785 64.974 10.7874H67.037M67.037 8.9815H64.974C64.2263 8.97191 63.5051 9.25694 62.9678 9.77444C62.4304 10.2919 62.1204 10.9999 62.1055 11.744V17.3493C62.1204 18.0942 62.4313 18.8027 62.97 19.3199C63.5088 19.8371 64.2315 20.1208 64.98 20.1088H69.3037V43.4719C69.3178 44.2173 69.6284 44.9266 70.1672 45.4444C70.7061 45.9622 71.4292 46.2463 72.1782 46.2344H72.1991C73.6723 46.2344 75.1604 46.2076 76.6246 46.1867C77.3662 46.1861 78.078 45.8967 78.608 45.3805C79.1379 44.8642 79.4437 44.1621 79.4602 43.4243V20.1684C80.8854 20.1803 82.3127 20.1962 83.742 20.2161H83.7839C84.5321 20.228 85.2544 19.9442 85.7927 19.427C86.331 18.9097 86.6412 18.2011 86.6554 17.4566V11.9406C86.6467 11.206 86.3478 10.5043 85.8233 9.98732C85.2988 9.47035 84.591 9.17967 83.8528 9.17815C78.2775 9.04703 72.6213 8.97852 67.043 8.97852L67.037 8.9815Z" fill="#F8F8F8"/>
<path d="M64.0094 25.2013C63.2752 23.8931 62.1787 22.8225 60.8505 22.117C59.5572 21.4905 58.1972 21.0107 56.7962 20.6866L56.5627 20.633L56.4519 20.6091L56.2363 20.5585L56.1615 20.5406C55.1961 20.3269 54.2458 20.0501 53.3169 19.7121C52.8414 19.5344 52.4218 19.2342 52.1013 18.842C52.0294 18.7496 51.8018 18.4725 51.8018 17.6321C51.8018 16.7053 52.0473 16.0735 52.5983 15.5938C53.278 14.9978 54.32 14.6998 55.6914 14.6998C56.4924 14.7074 57.2825 14.8852 58.0089 15.2213C58.9109 15.6473 59.7427 16.207 60.4762 16.8811L60.7606 17.1345C60.8715 17.2329 61.0027 17.3058 61.1451 17.348C61.2874 17.3903 61.4374 17.4008 61.5843 17.3789C61.7312 17.357 61.8714 17.3032 61.995 17.2213C62.1187 17.1394 62.2227 17.0314 62.2997 16.905L64.9945 12.3307C65.1062 12.1428 65.1476 11.9216 65.1114 11.7062C65.0753 11.4909 64.9639 11.2952 64.7969 11.1536L64.198 10.6232C63.3624 9.88713 62.4511 9.24088 61.4793 8.69512C60.5837 8.19661 59.6319 7.80545 58.6437 7.52989C57.6828 7.26743 56.6908 7.13418 55.6944 7.13361C53.8391 7.09306 52.0017 7.50214 50.3406 8.3256C48.7569 9.14962 47.4707 10.4443 46.6607 12.0297C45.8223 13.6359 45.3971 15.567 45.3971 17.7901C45.3971 20.3171 45.8762 22.3465 46.8194 23.8156C47.6055 25.1296 48.7797 26.1702 50.182 26.7956C51.564 27.3383 52.9933 27.7533 54.4518 28.0352L54.6344 28.08C54.7319 28.1098 54.8322 28.1298 54.9338 28.1396C55.8048 28.309 56.6594 28.5532 57.4879 28.8696C57.9346 29.0471 58.3225 29.3454 58.6078 29.7308C58.8403 30.1346 58.9447 30.599 58.9072 31.063C58.9072 31.9569 58.6587 32.529 58.0748 33.0058C57.3352 33.6018 56.2034 33.9148 54.7092 33.9148C53.6071 33.9263 52.5147 33.7081 51.5024 33.2741C50.495 32.8235 49.5895 32.1747 48.8405 31.3668L48.559 31.0688C48.4545 30.961 48.3273 30.8776 48.1865 30.8245C48.0457 30.7715 47.8949 30.7502 47.7448 30.7622C47.5947 30.7742 47.4492 30.819 47.3187 30.8937C47.1882 30.9684 47.0759 31.071 46.99 31.1941L44.0616 35.5597C43.9411 35.7375 43.8862 35.9515 43.9064 36.165C43.9266 36.3786 44.0207 36.5785 44.1725 36.7308L44.7473 37.3268C45.611 38.2226 46.5896 39.0011 47.6577 39.6423C48.6994 40.2613 49.8247 40.7289 50.9994 41.031C52.2118 41.3373 53.4584 41.4895 54.7092 41.484C56.6079 41.5306 58.491 41.1324 60.2067 40.3217C61.816 39.5234 63.1379 38.2494 63.9914 36.6742C64.8688 35.074 65.3149 33.1519 65.3149 30.9198C65.3149 28.5686 64.8808 26.6436 64.0184 25.1953L64.0094 25.2013Z" fill="#3A3A39"/>
<path d="M54.7 42.3928C53.3672 42.3981 52.0391 42.2349 50.7476 41.9071C49.4841 41.5849 48.274 41.0831 47.1545 40.4171C46.0162 39.7347 44.9732 38.9061 44.0524 37.9526L43.4745 37.3566C43.1811 37.0595 42.9997 36.6707 42.9609 36.2559C42.9222 35.8411 43.0285 35.4258 43.262 35.0799L46.1904 30.7142C46.3539 30.4721 46.5709 30.2704 46.8246 30.1243C47.0783 29.9781 47.3621 29.8915 47.6545 29.8709C47.9476 29.8442 48.2429 29.8839 48.5183 29.9871C48.7937 30.0903 49.042 30.2544 49.2445 30.4669L49.5259 30.7649C50.1878 31.4812 50.9884 32.0569 51.8794 32.4575C52.7702 32.8377 53.7309 33.0285 54.7 33.0177C55.9486 33.0177 56.9008 32.7794 57.4547 32.3235C57.7541 32.0702 57.9578 31.7721 57.9578 31.0688C57.9578 30.4549 57.841 30.2761 57.826 30.2583C57.6437 30.0067 57.392 29.8131 57.1014 29.701C56.3482 29.4094 55.572 29.1801 54.7809 29.0156C54.6439 28.9999 54.5086 28.972 54.3767 28.9322L54.218 28.8935C52.7092 28.6018 51.2307 28.1718 49.8014 27.6091C48.2252 26.9115 46.9035 25.7471 46.0167 24.2745C44.9806 22.6593 44.4537 20.472 44.4537 17.7751C44.4537 15.4179 44.9148 13.3439 45.8191 11.6095C46.7152 9.8579 48.1376 8.42776 49.8883 7.518C51.688 6.62299 53.6797 6.17802 55.6911 6.22168C56.7747 6.22201 57.8533 6.36733 58.898 6.65376C59.9604 6.94876 60.9837 7.36892 61.9461 7.90534C62.9751 8.48294 63.9405 9.16612 64.8266 9.94369L65.4255 10.4771C65.7531 10.7511 65.9717 11.1324 66.042 11.5526C66.1123 11.9727 66.0295 12.4039 65.8087 12.7687L63.1139 17.343C62.9666 17.5902 62.7652 17.801 62.5246 17.9599C62.2841 18.1188 62.0106 18.2217 61.7245 18.2608C61.4375 18.3057 61.1441 18.2865 60.8654 18.2046C60.5868 18.1226 60.33 17.98 60.1136 17.787L59.8292 17.5367C59.1679 16.9305 58.4177 16.4281 57.6044 16.0467C57.0037 15.7651 56.3491 15.6157 55.6851 15.6087C54.5533 15.6087 53.7269 15.8321 53.2239 16.2702C52.9723 16.4907 52.7358 16.8126 52.7358 17.641C52.7163 17.8598 52.7481 18.0801 52.8286 18.2847C53.0482 18.5545 53.3368 18.7604 53.664 18.8807C54.5524 19.2007 55.4605 19.4635 56.3828 19.6674H56.4427C56.5116 19.6823 56.5924 19.7002 56.6792 19.724H56.7451L57.0176 19.7866C58.4917 20.1298 59.9229 20.6356 61.2844 21.2945C62.7692 22.0781 63.9966 23.2697 64.8206 24.7275L64.8685 24.8108C65.7668 26.3843 66.2399 28.4346 66.2399 30.902C66.2399 33.2681 65.7578 35.3451 64.8056 37.0765C63.8644 38.8155 62.4052 40.2219 60.6287 41.1025C58.7814 41.9892 56.7505 42.4311 54.7 42.3928ZM47.8132 31.6648C47.8048 31.6649 47.7965 31.6674 47.7896 31.6722C47.7827 31.677 47.7773 31.6838 47.7743 31.6917L44.8459 36.0544C44.8381 36.0636 44.8338 36.0751 44.8338 36.0871C44.8338 36.0992 44.8381 36.1108 44.8459 36.12L45.4208 36.716C46.2282 37.5522 47.1423 38.2796 48.1396 38.8794C49.1029 39.4541 50.1447 39.8866 51.2327 40.1638C52.3646 40.4513 53.5288 40.5936 54.697 40.587C56.445 40.6336 58.1796 40.2701 59.7603 39.5261C61.2031 38.8089 62.3864 37.6635 63.1468 36.2481C63.9552 34.7789 64.3625 32.985 64.3625 30.9169C64.3625 28.7236 63.9703 26.9475 63.1918 25.6393L63.1588 25.5886C62.5173 24.4528 61.5638 23.5224 60.4101 22.9066C59.1813 22.3134 57.8897 21.8586 56.5594 21.5507L56.3618 21.5061L56.2331 21.4792H56.1821L56.0654 21.4495L55.9067 21.4137C54.9068 21.1909 53.9225 20.9032 52.9603 20.5525C52.3331 20.3161 51.7803 19.9181 51.3584 19.3992C51.1459 19.137 50.8584 18.6691 50.8584 17.6351C50.8584 16.4431 51.2087 15.5878 51.9633 14.9292C52.8226 14.1782 54.0742 13.7968 55.6881 13.7968C56.6257 13.8008 57.5516 14.004 58.4039 14.3928C59.3903 14.8568 60.2992 15.4689 61.0988 16.2076L61.3832 16.461C61.3883 16.4677 61.3953 16.4726 61.4033 16.4753C61.4113 16.478 61.42 16.4781 61.4281 16.4758C61.4362 16.4746 61.4439 16.4716 61.4507 16.4669C61.4574 16.4623 61.463 16.4562 61.4671 16.449L64.1619 11.8747C64.1692 11.8653 64.1731 11.8538 64.1731 11.842C64.1731 11.8301 64.1692 11.8186 64.1619 11.8092L63.563 11.2787C62.7776 10.5863 61.9204 9.97892 61.0059 9.46686C60.178 9.00362 59.2974 8.6405 58.383 8.38516C57.5048 8.14617 56.5985 8.02492 55.6881 8.02459C53.9901 7.98132 52.3069 8.34944 50.7836 9.09734C49.3656 9.83481 48.2142 10.9943 47.4899 12.4141C46.7174 13.9041 46.3251 15.6921 46.3251 17.7781C46.3251 20.1353 46.7563 22.0037 47.6066 23.3298C48.2914 24.4846 49.317 25.4013 50.544 25.9552C51.8686 26.4771 53.2388 26.8761 54.6371 27.1472L54.9096 27.2127C54.9455 27.2249 54.9827 27.2329 55.0204 27.2366L55.1402 27.2545C56.0601 27.4435 56.9618 27.7117 57.835 28.0561C58.4394 28.299 58.9641 28.7045 59.3501 29.2272C59.7003 29.7788 59.866 30.4266 59.8232 31.0778C59.8232 32.2251 59.4519 33.0625 58.6584 33.7091C57.7452 34.4541 56.4097 34.8326 54.685 34.8326C53.45 34.8426 52.2265 34.597 51.0919 34.1114C49.9693 33.6103 48.9601 32.8886 48.1246 31.9897L47.8432 31.6917C47.8404 31.6865 47.8366 31.682 47.8319 31.6784C47.8273 31.6748 47.8219 31.6722 47.8162 31.6708L47.8132 31.6648Z" fill="#F8F8F8"/>
<path d="M46.611 44.7734C45.0141 44.7098 43.4171 44.6393 41.8202 44.5618C41.4229 44.5476 41.0398 44.4109 40.7239 44.1707C40.4079 43.9305 40.1748 43.5986 40.0566 43.2208C39.5436 41.5262 39.0335 39.8375 38.5265 38.1548C36.2419 38.0803 33.9303 37.9999 31.6397 37.9135C31.1486 39.4452 30.6586 40.9669 30.1695 42.4788C30.041 42.8635 29.7926 43.1975 29.4604 43.4322C29.1282 43.6669 28.7295 43.7902 28.3221 43.784H28.1873C26.5804 43.6748 24.9725 43.5605 23.3636 43.4413C23.0711 43.422 22.7868 43.3369 22.5321 43.1923C22.2775 43.0478 22.059 42.8477 21.8934 42.607C21.731 42.3724 21.6273 42.1027 21.5908 41.8202C21.5544 41.5377 21.5862 41.2506 21.6838 40.9828C24.8158 32.3021 28.0256 22.9658 31.499 12.4405C31.6254 12.0783 31.8572 11.7617 32.1648 11.5309C32.4724 11.3001 32.842 11.1655 33.2267 11.1442C34.4064 11.0727 35.5852 11.0051 36.7629 10.9416H36.8737C37.2768 10.9363 37.6714 11.0575 38.0014 11.2881C38.3314 11.5186 38.5801 11.8468 38.7122 12.2259C41.7633 21.3119 44.9762 31.1727 48.5334 42.3775C48.6229 42.6561 48.6424 42.9522 48.5902 43.2401C48.538 43.5279 48.4157 43.7986 48.2339 44.0284C48.0517 44.265 47.8167 44.4563 47.5476 44.5871C47.2784 44.7179 46.9824 44.7847 46.6829 44.7823L46.611 44.7734ZM35.8048 29.2387L35.1041 26.9709C34.8685 27.7238 34.634 28.4748 34.4004 29.2238L35.8048 29.2387Z" fill="#3A3A39"/>
<path d="M36.8837 11.8385C37.0905 11.8359 37.2929 11.898 37.4622 12.0162C37.6314 12.1344 37.7591 12.3027 37.8269 12.4971C41.0997 22.2357 44.3723 32.3259 47.645 42.6367C47.6885 42.7821 47.6968 42.9357 47.6693 43.0849C47.6418 43.2341 47.5792 43.3748 47.4866 43.4954C47.3941 43.616 47.2743 43.7131 47.1368 43.7788C46.9994 43.8444 46.8483 43.8769 46.6959 43.8734H46.651C45.0541 43.8078 43.4571 43.7373 41.8602 43.6618C41.6574 43.6516 41.4626 43.5799 41.3021 43.4563C41.1415 43.3327 41.0228 43.1632 40.9619 42.9705C40.415 41.1427 39.867 39.3269 39.3181 37.523C39.2944 37.4492 39.2483 37.3846 39.186 37.3382C39.1238 37.2917 39.0485 37.2656 38.9707 37.2637C36.3996 37.1843 33.8285 37.0949 31.2575 36.9956H31.2426C31.1619 36.9946 31.083 37.0192 31.0173 37.0658C30.9517 37.1124 30.9026 37.1786 30.8772 37.2548C30.3482 38.9176 29.8163 40.5696 29.2813 42.2105C29.2148 42.4079 29.087 42.5792 28.9165 42.6997C28.7459 42.8202 28.5412 42.8837 28.3321 42.881H28.2632C26.6563 42.7738 25.0504 42.6605 23.4455 42.5413C23.2969 42.534 23.152 42.4925 23.0223 42.4199C22.8926 42.3474 22.7816 42.2459 22.698 42.1234C22.6144 42.0009 22.5605 41.8608 22.5406 41.7141C22.5207 41.5673 22.5352 41.4179 22.5831 41.2778C25.8558 32.1977 29.1286 22.635 32.4043 12.7146C32.4694 12.5262 32.5899 12.3616 32.75 12.2421C32.9102 12.1225 33.1026 12.0535 33.3026 12.0441L36.8328 11.8415H36.8897M36.5634 30.1505C36.6211 30.1518 36.6783 30.1396 36.7305 30.1148C36.7826 30.09 36.8282 30.0533 36.8635 30.0078C36.8987 29.9622 36.9227 29.9091 36.9335 29.8526C36.9443 29.7961 36.9416 29.7379 36.9257 29.6826C36.4426 28.1092 35.9585 26.5447 35.4734 24.9892C35.4499 24.9124 35.4017 24.8455 35.3362 24.7987C35.2708 24.7519 35.1917 24.7277 35.1111 24.7299C35.0295 24.7285 34.9497 24.7535 34.8837 24.8014C34.8178 24.8493 34.7693 24.9173 34.7458 24.9951C34.2608 26.5566 33.7757 28.1102 33.2906 29.6558C33.2747 29.7108 33.272 29.7688 33.2826 29.825C33.2933 29.8813 33.317 29.9343 33.3519 29.9798C33.3869 30.0253 33.432 30.062 33.4837 30.0869C33.5355 30.1119 33.5924 30.1245 33.6499 30.1237L36.5604 30.1505M36.8867 10.0356H36.722C35.5423 10.1011 34.3626 10.1697 33.1828 10.2412C32.6112 10.2716 32.0617 10.4711 31.6046 10.8141C31.1475 11.157 30.8036 11.6277 30.6167 12.1663C27.1464 22.6797 23.9366 32.007 20.8105 40.6848C20.6639 41.0818 20.6145 41.5079 20.6666 41.9278C20.7187 42.3476 20.8707 42.749 21.11 43.0986C21.3556 43.4564 21.6797 43.7539 22.0579 43.9687C22.4361 44.1835 22.8583 44.3098 23.2928 44.3382C24.8947 44.4574 26.5206 44.5737 28.1225 44.681H28.3232C28.9284 44.6892 29.5206 44.5057 30.0142 44.157C30.5077 43.8083 30.8771 43.3124 31.0689 42.741C31.4881 41.4477 31.9073 40.1464 32.3265 38.8372C34.15 38.9057 35.9855 38.9683 37.809 39.0279C38.2561 40.5001 38.7022 41.9791 39.1474 43.4651C39.3238 44.026 39.6704 44.5188 40.1395 44.8757C40.6086 45.2327 41.1773 45.4363 41.7674 45.4587C43.3573 45.5332 44.9712 45.6047 46.5582 45.6703H46.6839C47.1287 45.671 47.5679 45.5707 47.9679 45.3771C48.368 45.1834 48.7184 44.9015 48.9925 44.5528C49.2577 44.2089 49.4361 43.8067 49.5127 43.3799C49.5892 42.9532 49.5619 42.5143 49.4327 42.1003C45.8755 30.8985 42.6597 21.0287 39.6055 11.9338C39.4089 11.3702 39.039 10.8824 38.5484 10.5396C38.0577 10.1968 37.4712 10.0163 36.8717 10.0237L36.8867 10.0356Z" fill="#F8F8F8"/>
<path d="M20.0604 40.2109C19.6981 40.2109 19.3238 40.193 18.9436 40.1602C15.3505 39.8622 11.7155 39.5016 8.11936 39.1321C7.65164 39.0922 7.21547 38.8808 6.89563 38.5388C6.5758 38.1968 6.39513 37.7487 6.38867 37.2815V12.8635C6.39587 12.3969 6.5769 11.9495 6.89666 11.6081C7.21642 11.2668 7.65214 11.0557 8.11936 11.0159C11.5957 10.6583 15.1379 10.3186 18.6471 10.0116C19.0843 9.97289 19.5155 9.95503 19.9287 9.95503C21.2786 9.92825 22.619 10.1841 23.8631 10.706C25.3894 11.3686 26.6394 12.5347 27.4024 14.0078C28.1668 15.5466 28.5439 17.2474 28.5012 18.9635C28.5086 20.1903 28.2694 21.4062 27.7976 22.5395C27.4656 23.3337 27.0009 24.0662 26.4232 24.706C27.097 25.418 27.6402 26.242 28.0282 27.1406C28.5687 28.3933 28.8429 29.7437 28.8336 31.107V31.1606C28.8701 32.9033 28.4479 34.6251 27.6089 36.1551C26.7915 37.6118 25.5182 38.7629 23.9829 39.4331C22.7468 39.9669 21.4108 40.2331 20.0634 40.2139L20.0604 40.2109ZM15.4553 31.8669C15.8236 31.8641 16.1916 31.885 16.5572 31.9295C17.1267 32.0081 17.7008 32.0499 18.2759 32.0546C19.5963 32.0546 20.0724 31.7566 20.1683 31.6791C20.2641 31.6017 20.5395 31.3811 20.5395 30.6242V30.5706C20.5562 30.153 20.4837 29.7366 20.3269 29.3488C20.2496 29.1825 20.1161 29.0486 19.9496 28.9704C19.5117 28.7781 19.0355 28.6884 18.5573 28.7081L14.6049 28.6396L14.6229 31.8937L14.8145 31.8759L15.4553 31.8669ZM18.4944 18.0636H18.1351L14.6079 18.2454V20.8559C15.9074 20.8112 17.2218 20.7813 18.5393 20.7545C19.207 20.7396 19.7371 20.6115 19.9407 20.4089C20.1443 20.2062 20.1952 19.6698 20.1952 19.3718C20.1952 19.0052 20.1473 18.5314 19.9347 18.3586C19.8688 18.302 19.5065 18.0695 18.5034 18.0695L18.4944 18.0636Z" fill="#3A3A39"/>
<path d="M14.6128 21.7589H14.6367L18.5831 21.6755C19.2389 21.6755 20.1281 21.5474 20.6282 21.0795C20.7569 20.9543 21.1552 20.5729 21.1552 19.4017C21.1552 18.3051 20.8168 17.9117 20.5563 17.6972C20.1401 17.3575 19.4335 17.1816 18.4993 17.1816C18.3675 17.1816 18.2328 17.1816 18.092 17.1816L14.5618 17.3604C14.3277 17.3666 14.1054 17.4635 13.9421 17.6305C13.7788 17.7975 13.6874 18.0214 13.6875 18.2544V20.8798C13.6894 20.9982 13.715 21.1151 13.7627 21.2236C13.8104 21.3321 13.8793 21.4301 13.9654 21.5119C14.0514 21.5937 14.153 21.6577 14.2641 21.7001C14.3753 21.7425 14.4938 21.7624 14.6128 21.7589Z" fill="#F8F8F8"/>
<path d="M20.4175 28.1915C19.8438 27.9246 19.2152 27.7949 18.5821 27.813L14.6297 27.7445H14.6117C14.4917 27.7413 14.3724 27.7621 14.2606 27.8056C14.1488 27.8491 14.0469 27.9144 13.961 27.9977C13.875 28.081 13.8067 28.1807 13.7601 28.2908C13.7134 28.4008 13.6894 28.519 13.6895 28.6385V31.9164C13.6894 32.0361 13.7135 32.1546 13.7603 32.2649C13.8071 32.3751 13.8757 32.4749 13.962 32.5583C14.0483 32.6417 14.1505 32.707 14.2626 32.7503C14.3748 32.7936 14.4945 32.814 14.6147 32.8104H14.6356C14.9111 32.8104 15.1836 32.8403 15.456 32.8403C15.7824 32.8403 16.0399 32.8641 16.4412 32.873C17.1688 32.8879 17.7647 32.9833 18.2827 32.9833C19.7199 32.9833 20.4295 32.6853 20.7768 32.3873C21.1242 32.0893 21.4865 31.684 21.4865 30.638V30.5844C21.5038 30.0377 21.4017 29.4937 21.1871 28.9901C21.0279 28.6454 20.7568 28.3642 20.4175 28.1915Z" fill="#F8F8F8"/>
<path d="M28.9043 26.7836C28.5775 26.0303 28.1527 25.3229 27.6407 24.6797C28.059 24.1211 28.4069 23.5137 28.6767 22.8709C29.1927 21.6317 29.4553 20.3025 29.4493 18.9611C29.4934 17.1029 29.0823 15.2619 28.2516 13.5972C27.3888 11.9377 25.9752 10.6268 24.2512 9.88709C22.8841 9.30896 21.4097 9.02461 19.9245 9.05267C19.4844 9.05267 19.0262 9.07352 18.5561 9.11524C15.0558 9.41324 11.5107 9.75895 8.01636 10.1166C7.32193 10.1756 6.67436 10.4896 6.19956 10.9974C5.72476 11.5052 5.45662 12.1705 5.44727 12.8641V37.2821C5.45662 37.9757 5.72476 38.6411 6.19956 39.1488C6.67436 39.6566 7.32193 39.9706 8.01636 40.0297C11.6095 40.3992 15.2595 40.7449 18.8556 41.0607C19.2628 41.0935 19.667 41.1144 20.0533 41.1144C21.5377 41.1334 23.0093 40.8388 24.371 40.2502C26.089 39.5014 27.5131 38.2128 28.4252 36.5818C29.3414 34.9208 29.8039 33.0497 29.7666 31.1552V31.1016C29.7812 29.6185 29.4877 28.1484 28.9043 26.7836ZM27.9012 31.1523C27.9363 32.7421 27.5545 34.3135 26.7933 35.7117C26.0739 36.9978 24.9521 38.0149 23.5985 38.6082C22.4816 39.0865 21.275 39.3222 20.0593 39.2996C19.7239 39.2996 19.3796 39.2847 19.0293 39.2519C15.4242 38.94 11.821 38.5983 8.21995 38.2268C7.97811 38.2069 7.75235 38.0983 7.58638 37.9221C7.4204 37.7459 7.32604 37.5147 7.32167 37.2732V12.8551C7.32611 12.614 7.42056 12.3831 7.5866 12.2073C7.75263 12.0316 7.97836 11.9237 8.21995 11.9045C11.7192 11.543 15.2226 11.2092 18.7298 10.9032C19.143 10.8675 19.5413 10.8496 19.9275 10.8496C21.1413 10.8225 22.3471 11.0499 23.4667 11.5171C24.8025 12.0968 25.8962 13.1179 26.5628 14.4077C27.2594 15.8212 27.6025 17.3813 27.5629 18.9552C27.5684 20.0644 27.3515 21.1636 26.9251 22.1885C26.6282 22.8972 26.2121 23.5502 25.6945 24.1195C25.5485 24.2792 25.469 24.4883 25.4724 24.7042C25.4757 24.9201 25.5615 25.1265 25.7124 25.2817C26.3217 25.922 26.8124 26.6645 27.1616 27.475C27.6516 28.6183 27.9003 29.8497 27.8922 31.0927L27.9012 31.1523Z" fill="#F8F8F8"/>
<path d="M82.5464 58.2289C82.4608 58.25 82.3737 58.2649 82.2859 58.2735C82.1961 58.2781 82.1062 58.2781 82.0164 58.2735C81.8024 58.2889 81.59 58.2277 81.4175 58.1007C81.3474 58.031 81.2935 57.9468 81.2593 57.8542C81.2252 57.7616 81.2118 57.6627 81.2199 57.5643V56.4975H80.6211V56.1995H81.2199V55.6393L81.5882 55.5469V56.1995H82.5464V56.4975H81.5882V57.5375C81.5836 57.5977 81.5923 57.6583 81.6135 57.7149C81.6346 57.7715 81.6679 57.8228 81.711 57.8653C81.813 57.9448 81.941 57.984 82.0703 57.9755C82.1454 57.9746 82.2204 57.9697 82.2949 57.9607C82.3728 57.9607 82.4595 57.9338 82.5464 57.913V58.2289Z" fill="#3A3A39"/>
<path d="M85.5059 57.2189C85.5084 57.3677 85.4851 57.516 85.4371 57.657C85.3944 57.7828 85.326 57.8984 85.2364 57.9967C85.1462 58.0916 85.0371 58.1667 84.9161 58.2172C84.7797 58.2702 84.6342 58.2965 84.4878 58.2947C84.3481 58.2965 84.2092 58.2732 84.0777 58.2261C83.9641 58.1828 83.8617 58.1146 83.7782 58.0265C83.691 57.9325 83.6255 57.8206 83.5866 57.6987C83.5391 57.5534 83.5158 57.4014 83.5177 57.2487C83.5157 57.1006 83.54 56.9533 83.5895 56.8136C83.6322 56.6879 83.7006 56.5722 83.7902 56.4739C83.8795 56.3779 83.9888 56.3027 84.1105 56.2534C84.2469 56.2004 84.3924 56.174 84.5388 56.1759C84.6785 56.1741 84.8174 56.1974 84.949 56.2445C85.0622 56.2886 85.1644 56.3567 85.2484 56.4441C85.3358 56.538 85.4013 56.6499 85.4401 56.7719C85.4869 56.9162 85.5092 57.0673 85.5059 57.2189ZM85.1286 57.2189C85.1314 57.1071 85.1172 56.9957 85.0867 56.8881C85.0607 56.8022 85.018 56.7222 84.9609 56.6527C84.9084 56.5903 84.8417 56.5413 84.7663 56.5097C84.6842 56.4781 84.5969 56.462 84.5088 56.462C84.4103 56.4593 84.3126 56.4807 84.2244 56.5246C84.1481 56.5644 84.0824 56.6216 84.0327 56.6915C83.9804 56.7641 83.9429 56.846 83.9219 56.9328C83.8966 57.0301 83.8845 57.1303 83.886 57.2308C83.8839 57.3437 83.8991 57.4562 83.9309 57.5646C83.9552 57.6506 83.997 57.7307 84.0537 57.8C84.1052 57.8635 84.1722 57.9127 84.2483 57.9431C84.3311 57.9763 84.4196 57.9925 84.5088 57.9907C84.6061 57.9939 84.7027 57.9735 84.7902 57.9311C84.8673 57.8914 84.934 57.8342 84.9849 57.7642C85.0372 57.6916 85.0747 57.6097 85.0957 57.5228C85.1174 57.428 85.1285 57.3311 85.1286 57.2338V57.2189Z" fill="#3A3A39"/>
<path d="M88.3907 58.2574H87.8817L86.8905 57.1607V58.2574H86.5312V55.3906H86.8995V57.1577L87.8547 56.2221H88.3428L87.3457 57.1667L88.3907 58.2574Z" fill="#3A3A39"/>
<path d="M91.1917 56.2121L90.467 58.0418C90.4024 58.2077 90.3243 58.3682 90.2335 58.5216C90.1642 58.6453 90.0764 58.7579 89.973 58.8554C89.8864 58.9367 89.7847 59.0004 89.6736 59.0431C89.5516 59.0862 89.4228 59.1074 89.2933 59.1056H89.1945H89.0957V58.7838H89.1975H89.3143C89.3784 58.785 89.4423 58.775 89.5029 58.754C89.5641 58.7339 89.6209 58.7025 89.6706 58.6616C89.7278 58.613 89.7782 58.5568 89.8203 58.4947C89.8747 58.4178 89.9218 58.336 89.961 58.2504L89.1107 56.2031H89.5299L90.0688 57.5561L90.1766 57.8749L90.2994 57.5471L90.7994 56.2031L91.1917 56.2121Z" fill="#3A3A39"/>
<path d="M93.9739 57.2189C93.9749 57.3677 93.9516 57.5157 93.905 57.657C93.8612 57.7829 93.7919 57.8985 93.7014 57.9967C93.6123 58.0915 93.5041 58.1667 93.384 58.2172C93.2466 58.2705 93.1002 58.2968 92.9528 58.2947C92.8131 58.2962 92.6742 58.273 92.5426 58.2262C92.4292 58.1824 92.327 58.1143 92.2432 58.0265C92.1561 57.932 92.0897 57.8203 92.0485 57.6987C92.0021 57.5533 91.9798 57.4013 91.9827 57.2487C91.9812 57.1009 92.0045 56.9539 92.0515 56.8137C92.0953 56.6878 92.1647 56.5721 92.2552 56.4739C92.3445 56.378 92.4538 56.3027 92.5755 56.2534C92.7118 56.2001 92.8573 56.1738 93.0037 56.1759C93.1435 56.1744 93.2823 56.1977 93.4139 56.2445C93.5273 56.2882 93.6296 56.3564 93.7133 56.4441C93.8017 56.5378 93.8682 56.6497 93.9079 56.7719C93.9548 56.9162 93.9771 57.0673 93.9739 57.2189ZM93.5966 57.2189C93.5979 57.1073 93.5837 56.996 93.5546 56.8882C93.5287 56.8022 93.486 56.7222 93.4289 56.6527C93.3757 56.5911 93.3091 56.5422 93.2342 56.5097C93.1521 56.4782 93.0648 56.462 92.9768 56.462C92.8782 56.4593 92.7805 56.4808 92.6923 56.5246C92.6155 56.5635 92.5496 56.6209 92.5007 56.6915C92.4472 56.7634 92.4095 56.8456 92.3899 56.9328C92.3646 57.0301 92.3525 57.1303 92.3539 57.2308C92.3519 57.3437 92.3671 57.4563 92.3989 57.5646C92.4215 57.6513 92.4635 57.7318 92.5216 57.8001C92.5732 57.8635 92.6401 57.9128 92.7162 57.9431C92.7989 57.9765 92.8876 57.9927 92.9768 57.9907C93.0741 57.9939 93.1707 57.9735 93.2582 57.9312C93.3345 57.8902 93.4009 57.8332 93.4529 57.7643C93.5042 57.6915 93.5408 57.6095 93.5606 57.5229C93.5848 57.4284 93.597 57.3313 93.5966 57.2338V57.2189Z" fill="#3A3A39"/>
<path d="M99.4764 58.2574H99.1081V56.9492C99.1162 56.825 99.0836 56.7017 99.0153 56.5975C98.9837 56.5588 98.9434 56.5281 98.8976 56.5079C98.8518 56.4877 98.8018 56.4786 98.7518 56.4813C98.7043 56.481 98.657 56.487 98.6111 56.4992C98.5628 56.5148 98.5173 56.5379 98.4763 56.5677C98.422 56.6063 98.3709 56.6491 98.3236 56.6958C98.2697 56.7495 98.2068 56.8181 98.135 56.8985V58.2574H97.7637V55.3906H98.135V56.2221L98.12 56.5439C98.173 56.4845 98.2301 56.4288 98.2907 56.377C98.3427 56.3348 98.3989 56.2978 98.4584 56.2667C98.5121 56.2381 98.5694 56.217 98.629 56.2042C98.6881 56.1923 98.7483 56.1863 98.8087 56.1863C98.8994 56.1809 98.9903 56.1947 99.0754 56.2265C99.1605 56.2583 99.2379 56.3076 99.3027 56.3711C99.429 56.5307 99.4909 56.7315 99.4764 56.9342V58.2574Z" fill="#3A3A39"/>
<path d="M101.312 56.5059H100.683V56.2079H101.686V57.9572H102.318V58.2552H100.611V57.9572H101.312V56.5059ZM101.441 55.3556C101.48 55.3544 101.518 55.3616 101.554 55.3765C101.59 55.3892 101.621 55.4095 101.647 55.4361C101.674 55.4612 101.696 55.4917 101.71 55.5255C101.725 55.5593 101.732 55.5959 101.731 55.6328C101.732 55.6696 101.725 55.7062 101.71 55.74C101.696 55.7742 101.675 55.8048 101.647 55.8294C101.621 55.8569 101.59 55.8783 101.554 55.892C101.518 55.9055 101.48 55.9125 101.441 55.9129C101.402 55.912 101.363 55.9049 101.327 55.892C101.292 55.8771 101.261 55.8559 101.234 55.8294C101.208 55.8046 101.187 55.774 101.174 55.74C101.159 55.7064 101.15 55.6698 101.15 55.6328C101.15 55.5957 101.159 55.5591 101.174 55.5255C101.188 55.4919 101.208 55.4614 101.234 55.4361C101.261 55.4102 101.292 55.3899 101.327 55.3765C101.363 55.3622 101.402 55.3551 101.441 55.3556Z" fill="#3A3A39"/>
<path d="M104.94 56.499C104.982 56.5479 105.014 56.6047 105.033 56.6659C105.057 56.7319 105.068 56.8015 105.066 56.8715C105.068 56.974 105.048 57.0757 105.006 57.1695C104.968 57.2575 104.91 57.3352 104.835 57.396C104.757 57.4602 104.668 57.5097 104.572 57.542C104.463 57.5764 104.348 57.5934 104.234 57.5926C104.149 57.5932 104.065 57.5843 103.982 57.5659C103.918 57.5526 103.856 57.5295 103.799 57.4973C103.775 57.5319 103.752 57.5677 103.731 57.6046C103.713 57.6396 103.703 57.6785 103.704 57.7179C103.703 57.7443 103.711 57.7702 103.724 57.7929C103.738 57.8155 103.758 57.8339 103.782 57.846C103.842 57.8841 103.913 57.9037 103.985 57.9026L104.545 57.9235C104.646 57.9246 104.747 57.9376 104.844 57.9622C104.927 57.981 105.005 58.0143 105.075 58.0605C105.138 58.1018 105.19 58.1568 105.228 58.2215C105.264 58.2902 105.283 58.3671 105.282 58.445C105.282 58.5351 105.26 58.624 105.219 58.7042C105.173 58.7891 105.109 58.8624 105.03 58.9188C104.93 58.9855 104.82 59.0348 104.704 59.0648C104.551 59.1058 104.392 59.1249 104.234 59.1214C104.087 59.1234 103.94 59.1093 103.796 59.0797C103.692 59.0592 103.591 59.0231 103.497 58.9724C103.426 58.9318 103.367 58.8731 103.326 58.8025C103.292 58.7372 103.275 58.6646 103.275 58.591C103.274 58.4986 103.299 58.4077 103.347 58.3288C103.406 58.2436 103.482 58.1707 103.569 58.1141C103.534 58.0996 103.502 58.0795 103.473 58.0546C103.449 58.03 103.426 58.003 103.407 57.9741C103.391 57.9436 103.378 57.9117 103.368 57.8788C103.365 57.8471 103.365 57.8151 103.368 57.7834C103.367 57.6984 103.39 57.6148 103.434 57.542C103.477 57.4669 103.528 57.3969 103.587 57.3334C103.56 57.3047 103.536 57.2738 103.515 57.241C103.496 57.2106 103.479 57.1787 103.464 57.1456C103.449 57.1091 103.437 57.0712 103.428 57.0324C103.425 56.9868 103.425 56.941 103.428 56.8954C103.425 56.7928 103.445 56.6907 103.488 56.5974C103.526 56.5103 103.583 56.4329 103.656 56.3709C103.734 56.3067 103.823 56.2572 103.919 56.2249C104.03 56.1903 104.145 56.1732 104.261 56.1742C104.31 56.1711 104.36 56.1711 104.41 56.1742L104.539 56.201H105.309V56.499H104.94ZM103.662 58.5523C103.661 58.5995 103.677 58.6455 103.705 58.6836C103.733 58.7217 103.772 58.7498 103.817 58.7638C103.958 58.8125 104.106 58.8347 104.255 58.8294C104.355 58.831 104.456 58.82 104.554 58.7966C104.622 58.7826 104.687 58.7564 104.746 58.7191C104.79 58.6898 104.826 58.6498 104.85 58.6029C104.871 58.5623 104.883 58.5174 104.883 58.4718C104.885 58.4343 104.876 58.397 104.857 58.3647C104.838 58.3324 104.81 58.3064 104.776 58.29C104.675 58.242 104.564 58.2176 104.452 58.2185L103.898 58.2006C103.856 58.2259 103.817 58.2559 103.782 58.29C103.753 58.3151 103.729 58.3442 103.71 58.3764C103.695 58.4039 103.683 58.4329 103.674 58.4629C103.667 58.4922 103.663 58.5221 103.662 58.5523ZM103.773 56.8805C103.772 56.9419 103.784 57.0027 103.808 57.0593C103.829 57.111 103.861 57.1577 103.901 57.1964C103.944 57.2357 103.994 57.2661 104.048 57.2858C104.108 57.3068 104.17 57.3168 104.234 57.3155C104.3 57.3166 104.366 57.3045 104.428 57.2798C104.484 57.2606 104.535 57.2278 104.575 57.1844C104.613 57.1438 104.642 57.0963 104.662 57.0444C104.683 56.9923 104.694 56.9367 104.695 56.8805C104.695 56.8181 104.683 56.7562 104.659 56.6986C104.638 56.6462 104.605 56.5993 104.563 56.5616C104.522 56.5217 104.473 56.4912 104.419 56.4722C104.36 56.4512 104.297 56.4411 104.234 56.4424C104.166 56.4411 104.099 56.4532 104.036 56.4781C103.982 56.5003 103.933 56.5327 103.892 56.5735C103.854 56.614 103.823 56.6615 103.802 56.7136C103.783 56.7672 103.773 56.8236 103.773 56.8805Z" fill="#3A3A39"/>
<path d="M107.94 58.2574H107.572V56.9492C107.581 56.8249 107.549 56.7011 107.479 56.5975C107.449 56.5577 107.408 56.5261 107.362 56.5058C107.316 56.4855 107.266 56.477 107.216 56.4813C107.169 56.4809 107.123 56.487 107.078 56.4992C107.029 56.5142 106.984 56.5373 106.943 56.5677C106.888 56.6048 106.836 56.6477 106.79 56.6958C106.736 56.7495 106.671 56.8181 106.599 56.8985V58.2574H106.23V55.3906H106.599V56.2221V56.5439C106.65 56.4831 106.707 56.4272 106.769 56.377C106.821 56.3341 106.877 56.2971 106.937 56.2667C106.991 56.2381 107.048 56.217 107.108 56.2042C107.167 56.192 107.227 56.186 107.287 56.1863C107.378 56.1806 107.468 56.1942 107.553 56.2261C107.638 56.2579 107.714 56.3073 107.778 56.3711C107.906 56.53 107.968 56.7314 107.952 56.9342L107.94 58.2574Z" fill="#3A3A39"/>
<path d="M113.696 57.1971C113.699 57.3597 113.672 57.5215 113.615 57.6739C113.569 57.8022 113.494 57.9185 113.396 58.0136C113.301 58.1035 113.188 58.1716 113.064 58.2133C112.931 58.2596 112.791 58.2828 112.651 58.2818C112.584 58.2863 112.517 58.2863 112.45 58.2818C112.38 58.2753 112.311 58.2643 112.243 58.2491V59.1043H111.875V56.2227H112.204L112.228 56.5653C112.315 56.4399 112.431 56.3376 112.567 56.2673C112.689 56.2109 112.822 56.1824 112.956 56.1839C113.067 56.1805 113.178 56.2062 113.276 56.2584C113.37 56.3056 113.45 56.3766 113.507 56.4641C113.574 56.5615 113.622 56.6707 113.648 56.7858C113.681 56.9204 113.697 57.0586 113.696 57.1971ZM113.318 57.215C113.318 57.1152 113.31 57.0156 113.294 56.917C113.28 56.837 113.254 56.7597 113.216 56.6876C113.184 56.6273 113.136 56.5761 113.079 56.5386C113.02 56.5013 112.951 56.4826 112.881 56.4849C112.833 56.4847 112.786 56.4918 112.74 56.5057C112.687 56.5228 112.637 56.5468 112.591 56.5773C112.533 56.6161 112.479 56.6599 112.429 56.7084C112.363 56.773 112.301 56.8417 112.243 56.914V57.9063C112.314 57.9331 112.386 57.955 112.459 57.9719C112.532 57.9862 112.606 57.9932 112.681 57.9928C112.768 57.9964 112.855 57.9809 112.936 57.9474C113.016 57.914 113.089 57.8633 113.148 57.7991C113.274 57.6314 113.334 57.4239 113.318 57.215Z" fill="#3A3A39"/>
<path d="M116.495 57.1253V57.2535V57.3488H114.998C114.992 57.4372 115.005 57.5258 115.036 57.6086C115.068 57.6915 115.117 57.7665 115.18 57.8286C115.327 57.9507 115.516 58.0116 115.707 57.9985H115.893C115.953 57.9958 116.013 57.9898 116.073 57.9806L116.24 57.9538C116.29 57.9443 116.339 57.9324 116.387 57.918V58.216C116.275 58.2464 116.161 58.2683 116.046 58.2815C115.916 58.2997 115.785 58.3087 115.653 58.3084C115.494 58.3119 115.335 58.2877 115.183 58.2369C115.061 58.1949 114.95 58.1245 114.86 58.0313C114.774 57.9349 114.709 57.821 114.671 57.6975C114.63 57.5531 114.61 57.4036 114.611 57.2535C114.61 57.1146 114.632 56.9765 114.677 56.8452C114.717 56.7207 114.781 56.6053 114.866 56.5055C114.948 56.4087 115.05 56.3305 115.165 56.276C115.294 56.2174 115.434 56.1879 115.576 56.1896C115.71 56.1875 115.845 56.2107 115.971 56.2581C116.084 56.2987 116.186 56.3639 116.27 56.4489C116.351 56.5339 116.411 56.6357 116.447 56.7469C116.484 56.8695 116.5 56.9974 116.495 57.1253ZM116.112 57.0746C116.115 56.9903 116.106 56.906 116.085 56.8244C116.064 56.7532 116.028 56.6871 115.98 56.6306C115.93 56.5765 115.87 56.533 115.803 56.5025C115.725 56.4714 115.642 56.4562 115.558 56.4578C115.481 56.4568 115.406 56.472 115.336 56.5025C115.27 56.5324 115.211 56.5749 115.162 56.6276C115.113 56.6859 115.074 56.7526 115.049 56.8244C115.018 56.9049 114.999 56.989 114.992 57.0746H116.112Z" fill="#3A3A39"/>
<path d="M117.607 56.2111H117.945V56.5895C118.049 56.4623 118.176 56.3553 118.319 56.2737C118.432 56.2104 118.558 56.1765 118.688 56.1753C118.782 56.1688 118.876 56.184 118.963 56.2197C119.05 56.2553 119.128 56.3105 119.191 56.381C119.312 56.555 119.367 56.7662 119.346 56.977H118.975C118.988 56.8417 118.96 56.7057 118.894 56.5866C118.865 56.547 118.825 56.5155 118.781 56.4947C118.736 56.4739 118.686 56.4645 118.637 56.4674C118.586 56.4663 118.535 56.4744 118.487 56.4912C118.432 56.5115 118.38 56.5385 118.331 56.5717C118.271 56.615 118.215 56.6639 118.164 56.7177C118.095 56.7836 118.031 56.8543 117.972 56.9292V58.2435H117.598L117.607 56.2111Z" fill="#3A3A39"/>
<path d="M122.232 55.7072C122.067 55.6723 121.9 55.6533 121.732 55.6506C121.664 55.641 121.594 55.6474 121.529 55.6693C121.464 55.6911 121.405 55.7278 121.356 55.7763C121.307 55.8249 121.271 55.8841 121.249 55.9491C121.228 56.0142 121.222 56.0834 121.232 56.1512V56.5088H122.166V56.8068H121.232V58.261H120.857V56.8068H120.172V56.5088H120.857V56.1721C120.857 55.6267 121.157 55.3555 121.756 55.3555C121.92 55.3566 122.083 55.3726 122.244 55.4032L122.232 55.7072Z" fill="#3A3A39"/>
<path d="M125.018 57.2189C125.02 57.3678 124.997 57.516 124.949 57.657C124.905 57.7822 124.837 57.8976 124.748 57.9967C124.657 58.091 124.548 58.166 124.428 58.2172C124.291 58.2702 124.146 58.2965 124 58.2947C123.86 58.2965 123.721 58.2733 123.589 58.2262C123.476 58.1828 123.373 58.1146 123.29 58.0265C123.203 57.932 123.137 57.8203 123.095 57.6987C123.05 57.553 123.028 57.4012 123.029 57.2487C123.027 57.1006 123.052 56.9533 123.101 56.8137C123.144 56.6879 123.212 56.5722 123.302 56.4739C123.391 56.378 123.501 56.3027 123.622 56.2534C123.759 56.2001 123.904 56.1738 124.05 56.1759C124.19 56.1741 124.329 56.1974 124.461 56.2445C124.574 56.2892 124.676 56.3573 124.76 56.4441C124.847 56.538 124.913 56.6499 124.952 56.7719C124.999 56.9162 125.021 57.0673 125.018 57.2189ZM124.64 57.2189C124.642 57.1073 124.627 56.996 124.598 56.8882C124.572 56.8022 124.53 56.7222 124.473 56.6527C124.42 56.5903 124.353 56.5413 124.278 56.5097C124.196 56.4782 124.109 56.462 124.021 56.462C123.922 56.4593 123.824 56.4808 123.736 56.5246C123.66 56.5644 123.594 56.6216 123.544 56.6915C123.492 56.7641 123.455 56.846 123.434 56.9328C123.408 57.0301 123.396 57.1303 123.398 57.2308C123.396 57.3437 123.411 57.4563 123.443 57.5646C123.465 57.6513 123.507 57.7318 123.565 57.8001C123.617 57.8635 123.684 57.9128 123.76 57.9431C123.843 57.9763 123.931 57.9925 124.021 57.9907C124.118 57.9939 124.214 57.9735 124.302 57.9312C124.379 57.8914 124.446 57.8342 124.497 57.7643C124.549 57.6917 124.586 57.6097 124.607 57.5229C124.629 57.428 124.64 57.3311 124.64 57.2338V57.2189Z" fill="#3A3A39"/>
<path d="M126.073 56.2111H126.412V56.5895C126.516 56.4632 126.641 56.3562 126.783 56.2737C126.897 56.2104 127.024 56.1766 127.154 56.1753C127.248 56.1688 127.343 56.184 127.43 56.2197C127.517 56.2553 127.595 56.3105 127.657 56.381C127.779 56.555 127.834 56.7662 127.813 56.977H127.442C127.456 56.8413 127.426 56.7047 127.358 56.5866C127.328 56.547 127.289 56.5155 127.244 56.4947C127.199 56.4739 127.15 56.4645 127.1 56.4674C127.05 56.4668 126.999 56.4748 126.951 56.4912C126.897 56.5115 126.845 56.5386 126.798 56.5717C126.737 56.6157 126.68 56.6645 126.627 56.7177C126.56 56.7844 126.497 56.8551 126.439 56.9292V58.2435H126.064L126.073 56.2111Z" fill="#3A3A39"/>
<path d="M130.329 58.2595V56.7903C130.332 56.7377 130.332 56.6849 130.329 56.6324C130.326 56.5995 130.318 56.5674 130.305 56.5371C130.297 56.5164 130.284 56.4986 130.266 56.4863C130.247 56.4765 130.227 56.4714 130.206 56.4715C130.177 56.4721 130.149 56.4802 130.125 56.4953C130.096 56.5186 130.071 56.5456 130.05 56.5758C130.015 56.6216 129.984 56.6704 129.957 56.7218C129.925 56.7814 129.886 56.8559 129.841 56.9453V58.2595H129.502V56.8291C129.502 56.7546 129.502 56.692 129.502 56.6473C129.5 56.6105 129.492 56.5744 129.478 56.54C129.471 56.5179 129.456 56.4989 129.436 56.4863C129.418 56.4765 129.397 56.4714 129.376 56.4715C129.351 56.4706 129.326 56.4779 129.305 56.4923C129.275 56.513 129.249 56.5381 129.227 56.5668C129.193 56.6119 129.163 56.6598 129.137 56.7098C129.101 56.7724 129.062 56.8499 129.014 56.9453V58.2595H128.676V56.2122H128.957L128.975 56.6026C129.006 56.5344 129.042 56.4686 129.083 56.4059C129.112 56.3567 129.147 56.3116 129.188 56.2718C129.223 56.2409 129.264 56.2167 129.308 56.2003C129.352 56.1844 129.398 56.1763 129.445 56.1764C129.494 56.1733 129.543 56.1815 129.588 56.2001C129.633 56.2187 129.673 56.2473 129.706 56.2837C129.773 56.3815 129.805 56.4993 129.796 56.6175C129.83 56.55 129.863 56.4874 129.894 56.4297C129.924 56.3802 129.959 56.3342 129.999 56.2927C130.035 56.2557 130.078 56.2263 130.125 56.2062C130.174 56.185 130.227 56.1748 130.281 56.1764C130.547 56.1764 130.682 56.3731 130.682 56.7724V58.2624L130.329 58.2595Z" fill="#3A3A39"/>
<path d="M133 58.2593V57.9821C132.899 58.083 132.779 58.1639 132.647 58.2205C132.528 58.2706 132.399 58.296 132.27 58.295C132.168 58.2959 132.067 58.2808 131.97 58.2503C131.891 58.2245 131.819 58.1818 131.758 58.1251C131.703 58.0751 131.661 58.0128 131.635 57.9434C131.608 57.8689 131.595 57.7901 131.596 57.7109C131.593 57.6175 131.613 57.5248 131.655 57.4411C131.697 57.3574 131.759 57.2852 131.836 57.2311C132.046 57.1002 132.292 57.0387 132.539 57.0554H132.979V56.8765C132.983 56.8211 132.974 56.7655 132.954 56.7139C132.933 56.6623 132.901 56.616 132.86 56.5785C132.755 56.4969 132.624 56.4576 132.491 56.4683C132.371 56.4678 132.252 56.4807 132.135 56.507C132.012 56.5354 131.891 56.5723 131.773 56.6173V56.2984C131.824 56.2799 131.876 56.264 131.928 56.2507C131.988 56.2336 132.049 56.2197 132.111 56.209C132.177 56.1955 132.244 56.1855 132.312 56.1792C132.381 56.1746 132.451 56.1746 132.521 56.1792C132.638 56.1784 132.755 56.1924 132.869 56.2209C132.963 56.2439 133.051 56.2854 133.129 56.3431C133.2 56.3997 133.256 56.4722 133.294 56.5547C133.334 56.6487 133.354 56.7504 133.351 56.8527V58.2622L133 58.2593ZM132.958 57.3265H132.491C132.412 57.325 132.332 57.334 132.255 57.3534C132.195 57.3667 132.139 57.392 132.09 57.4279C132.048 57.4586 132.015 57.4997 131.994 57.547C131.975 57.5953 131.964 57.6469 131.964 57.699C131.964 57.7378 131.971 57.7763 131.985 57.8123C131.998 57.8482 132.018 57.8808 132.045 57.9076C132.077 57.9378 132.115 57.9612 132.156 57.9761C132.209 57.9927 132.265 58.0007 132.321 58C132.425 57.9974 132.527 57.972 132.62 57.9255C132.746 57.864 132.862 57.7847 132.964 57.6901L132.958 57.3265Z" fill="#3A3A39"/>
<path d="M134.455 56.2111H134.781L134.796 56.5419C134.852 56.478 134.913 56.4191 134.979 56.366C135.032 56.3222 135.089 56.2842 135.15 56.2528C135.203 56.2241 135.261 56.2041 135.32 56.1932C135.379 56.181 135.44 56.175 135.5 56.1753C135.591 56.1692 135.683 56.1825 135.769 56.2143C135.854 56.2462 135.932 56.2959 135.997 56.3601C136.12 56.5213 136.18 56.7215 136.165 56.9233V58.2584H135.796V56.9501C135.806 56.8249 135.774 56.7 135.704 56.5955C135.669 56.5564 135.626 56.5257 135.578 56.5061C135.53 56.4864 135.477 56.4782 135.425 56.4822C135.381 56.4821 135.336 56.4881 135.293 56.5001C135.245 56.5145 135.199 56.5377 135.159 56.5687C135.103 56.6057 135.052 56.6487 135.006 56.6968C134.942 56.7612 134.881 56.8289 134.823 56.8995V58.2584H134.455V56.2111Z" fill="#3A3A39"/>
<path d="M138.932 58.1804C138.835 58.2164 138.735 58.2433 138.633 58.2608C138.528 58.2763 138.423 58.2843 138.318 58.2846C138.178 58.2941 138.037 58.2759 137.904 58.2309C137.771 58.1858 137.648 58.115 137.543 58.0224C137.447 57.9197 137.373 57.7985 137.326 57.6662C137.279 57.5339 137.26 57.3935 137.27 57.2536C137.267 57.1039 137.294 56.9551 137.348 56.8155C137.396 56.6877 137.472 56.5717 137.57 56.4757C137.666 56.3805 137.781 56.3064 137.908 56.2582C138.047 56.2069 138.194 56.1816 138.342 56.1837C138.442 56.1834 138.542 56.1904 138.642 56.2046C138.736 56.2189 138.828 56.2439 138.917 56.2791V56.6159C138.827 56.5725 138.733 56.5385 138.636 56.5145C138.537 56.4938 138.437 56.4838 138.336 56.4847C138.244 56.4848 138.153 56.502 138.067 56.5354C137.984 56.5713 137.908 56.6229 137.845 56.6874C137.779 56.7553 137.728 56.8365 137.695 56.9257C137.658 57.0269 137.64 57.134 137.641 57.2416C137.634 57.3421 137.647 57.4431 137.679 57.5387C137.71 57.6343 137.761 57.7228 137.827 57.7989C137.897 57.8622 137.98 57.9108 138.069 57.942C138.159 57.9732 138.254 57.9864 138.348 57.9807C138.449 57.9823 138.55 57.9713 138.648 57.9479C138.742 57.926 138.833 57.894 138.92 57.8525L138.932 58.1804Z" fill="#3A3A39"/>
<path d="M141.895 57.1253V57.2535C141.895 57.2862 141.895 57.319 141.895 57.3488H140.398C140.392 57.4372 140.405 57.5258 140.437 57.6086C140.468 57.6915 140.517 57.7665 140.581 57.8286C140.728 57.9507 140.917 58.0116 141.108 57.9985C141.171 57.9985 141.23 57.9985 141.293 57.9985C141.353 57.9958 141.413 57.9898 141.473 57.9806L141.641 57.9538C141.69 57.9443 141.739 57.9324 141.787 57.918V58.216C141.675 58.2464 141.561 58.2683 141.446 58.2815C141.316 58.2997 141.185 58.3087 141.054 58.3084C140.894 58.3119 140.735 58.2877 140.584 58.2369C140.461 58.1949 140.35 58.1245 140.26 58.0313C140.174 57.9349 140.11 57.821 140.072 57.6975C140.03 57.5531 140.01 57.4036 140.012 57.2535C140.012 57.1148 140.034 56.9769 140.078 56.8452C140.118 56.7207 140.182 56.6053 140.266 56.5055C140.349 56.4087 140.451 56.3305 140.566 56.276C140.693 56.2171 140.832 56.1875 140.973 56.1896C141.108 56.1875 141.242 56.2107 141.368 56.2581C141.481 56.2987 141.583 56.3639 141.668 56.4489C141.748 56.5339 141.808 56.6357 141.844 56.7469C141.882 56.8694 141.899 56.9973 141.895 57.1253ZM141.512 57.0746C141.518 56.9903 141.509 56.9054 141.485 56.8244C141.464 56.7532 141.428 56.6871 141.38 56.6306C141.33 56.5765 141.27 56.533 141.204 56.5025C141.125 56.4714 141.042 56.4562 140.958 56.4578C140.882 56.4568 140.806 56.472 140.736 56.5025C140.671 56.5318 140.613 56.5744 140.566 56.6276C140.516 56.6865 140.477 56.753 140.449 56.8244C140.419 56.9049 140.4 56.989 140.392 57.0746H141.512Z" fill="#3A3A39"/>
<path d="M91.1887 60.714C91.0233 60.679 90.8548 60.6599 90.6857 60.6574C90.6176 60.6477 90.5482 60.6541 90.4831 60.6759C90.4179 60.6978 90.3589 60.7345 90.3105 60.7832C90.2622 60.8318 90.226 60.8911 90.2048 60.9562C90.1837 61.0213 90.1781 61.0905 90.1886 61.1581V61.5156H91.1229V61.8136H90.1886V63.2678H89.8263V61.8136H89.1406V61.5156H89.8263V61.1789C89.8263 60.6335 90.1257 60.3594 90.7246 60.3594C90.8885 60.3617 91.0518 60.3787 91.2126 60.4101L91.1887 60.714Z" fill="#3A3A39"/>
<path d="M92.8442 61.5127H92.2153V61.2147H93.2185V62.9639H93.8532V63.2619H92.1465V62.9639H92.8442V61.5127ZM92.9759 60.3594C93.015 60.3598 93.0536 60.368 93.0896 60.3832C93.1249 60.3955 93.1567 60.4159 93.1825 60.4428C93.2077 60.4688 93.228 60.4991 93.2424 60.5322C93.258 60.5659 93.2662 60.6025 93.2663 60.6395C93.2662 60.6766 93.258 60.7132 93.2424 60.7468C93.2284 60.7802 93.2081 60.8106 93.1825 60.8362C93.1558 60.8627 93.1243 60.8839 93.0896 60.8988C93.0531 60.9117 93.0147 60.9188 92.9759 60.9197C92.9361 60.919 92.8966 60.912 92.8591 60.8988C92.8245 60.8839 92.793 60.8627 92.7663 60.8362C92.7407 60.8106 92.7204 60.7802 92.7064 60.7468C92.6908 60.7132 92.6826 60.6766 92.6825 60.6395C92.6826 60.6025 92.6908 60.5659 92.7064 60.5322C92.7208 60.4991 92.7411 60.4688 92.7663 60.4428C92.7921 60.4159 92.8238 60.3955 92.8591 60.3832C92.896 60.3676 92.9358 60.3595 92.9759 60.3594Z" fill="#3A3A39"/>
<path d="M95.6675 60.675H95.0387V60.377H96.0418V62.9576H96.6736V63.2556H94.9668V62.9576H95.6675V60.675Z" fill="#3A3A39"/>
<path d="M99.4789 63.2367C99.3943 63.2578 99.3082 63.2728 99.2214 63.2814C99.1306 63.2859 99.0397 63.2859 98.9489 63.2814C98.735 63.2967 98.5226 63.2354 98.3501 63.1085C98.281 63.0381 98.2279 62.9539 98.1943 62.8613C98.1607 62.7688 98.1475 62.6702 98.1555 62.5721V61.5053H97.5566V61.2073H98.1555V60.647L98.5238 60.5547V61.2073H99.4789V61.5053H98.5238V62.5453C98.5186 62.6056 98.5268 62.6663 98.548 62.723C98.5693 62.7797 98.6029 62.831 98.6465 62.8731C98.7486 62.9526 98.8765 62.9918 99.0058 62.9834C99.0799 62.9823 99.1539 62.9774 99.2274 62.9684C99.3122 62.9567 99.3962 62.9398 99.4789 62.9178V63.2367Z" fill="#3A3A39"/>
<path d="M102.384 62.1314V62.2596C102.384 62.2923 102.384 62.3251 102.384 62.3549H100.886C100.881 62.4432 100.894 62.5317 100.926 62.6144C100.957 62.6971 101.006 62.7722 101.069 62.8347C101.216 62.9568 101.405 63.0177 101.596 63.0046C101.659 63.0046 101.719 63.0046 101.782 63.0046C101.842 63.0018 101.902 62.9959 101.961 62.9867L102.129 62.9598L102.276 62.9241V63.2221C102.164 63.2525 102.05 63.2744 101.934 63.2876C101.804 63.3058 101.673 63.3148 101.542 63.3145C101.382 63.318 101.223 63.2938 101.072 63.243C100.949 63.201 100.838 63.1305 100.749 63.0373C100.662 62.9415 100.599 62.8274 100.563 62.7036C100.519 62.5597 100.498 62.4099 100.5 62.2596C100.5 62.1208 100.522 61.983 100.566 61.8513C100.606 61.7268 100.67 61.6114 100.755 61.5116C100.837 61.4148 100.939 61.3366 101.054 61.2821C101.182 61.2232 101.321 61.1936 101.461 61.1957C101.596 61.192 101.731 61.2153 101.857 61.2642C101.969 61.3042 102.071 61.3683 102.156 61.452C102.235 61.5377 102.296 61.6393 102.333 61.75C102.371 61.8734 102.388 62.0024 102.384 62.1314ZM102 62.0807C102.007 61.9963 101.998 61.9115 101.973 61.8305C101.952 61.7593 101.917 61.6932 101.869 61.6367C101.819 61.5826 101.759 61.5391 101.692 61.5086C101.614 61.4775 101.53 61.4623 101.446 61.4639C101.37 61.4628 101.295 61.4781 101.225 61.5086C101.16 61.5379 101.101 61.5805 101.054 61.6337C101.005 61.6926 100.965 61.7591 100.937 61.8305C100.907 61.911 100.888 61.9951 100.88 62.0807H102Z" fill="#3A3A39"/>
<path d="M103.494 61.2169H103.833V61.5954C103.936 61.4683 104.062 61.3612 104.204 61.2795C104.317 61.2166 104.443 61.1828 104.572 61.1811C104.666 61.1747 104.761 61.1899 104.848 61.2255C104.935 61.2612 105.013 61.3164 105.075 61.3868C105.201 61.5645 105.257 61.7816 105.234 61.9977H104.86C104.874 61.8623 104.846 61.7259 104.779 61.6073C104.749 61.5678 104.71 61.5362 104.665 61.5154C104.62 61.4946 104.571 61.4852 104.521 61.4881C104.47 61.4872 104.42 61.4953 104.372 61.512C104.317 61.5322 104.264 61.5593 104.216 61.5924C104.156 61.6366 104.1 61.6854 104.048 61.7384C103.98 61.8051 103.916 61.8757 103.857 61.95V63.2642H103.482L103.494 61.2169Z" fill="#3A3A39"/>
<path d="M110.573 63.2648V61.7956C110.576 61.7431 110.576 61.6903 110.573 61.6377C110.571 61.6046 110.563 61.5722 110.549 61.5423C110.542 61.5217 110.528 61.504 110.51 61.4917C110.49 61.4865 110.47 61.4865 110.45 61.4917C110.421 61.4922 110.393 61.5005 110.369 61.5155C110.341 61.5388 110.315 61.5659 110.294 61.596C110.259 61.6418 110.228 61.6907 110.201 61.742C110.168 61.8016 110.129 61.8761 110.085 61.9655V63.2797H109.746V61.8493C109.75 61.7887 109.75 61.7281 109.746 61.6675C109.744 61.6308 109.736 61.5945 109.722 61.5602C109.716 61.5375 109.701 61.5183 109.68 61.5066C109.661 61.5014 109.64 61.5014 109.621 61.5066C109.595 61.5057 109.57 61.5131 109.549 61.5275C109.519 61.5482 109.493 61.5733 109.471 61.602C109.437 61.6471 109.407 61.6949 109.381 61.745C109.345 61.8076 109.306 61.8851 109.258 61.9804V63.2946H108.92V61.2473H109.201L109.219 61.6377C109.25 61.5695 109.286 61.5038 109.327 61.441C109.356 61.3919 109.391 61.3468 109.432 61.307C109.467 61.2761 109.508 61.2518 109.552 61.2354C109.596 61.2195 109.643 61.2114 109.689 61.2116C109.738 61.2085 109.787 61.2166 109.832 61.2351C109.877 61.2537 109.918 61.2823 109.95 61.3188C110.017 61.4166 110.049 61.5344 110.04 61.6526C110.073 61.5841 110.106 61.5185 110.139 61.4648C110.168 61.4153 110.203 61.3693 110.243 61.3278C110.279 61.2908 110.322 61.2614 110.369 61.2413C110.418 61.2201 110.471 61.2099 110.525 61.2116C110.791 61.2116 110.926 61.4083 110.926 61.8076V63.2976L110.573 63.2648Z" fill="#3A3A39"/>
<path d="M113.244 63.2651V62.988C113.143 63.0889 113.023 63.1698 112.891 63.2264C112.772 63.2765 112.643 63.3018 112.514 63.3009C112.412 63.3018 112.311 63.2866 112.214 63.2561C112.136 63.2296 112.063 63.187 112.002 63.131C111.947 63.0809 111.905 63.0187 111.879 62.9492C111.852 62.8747 111.839 62.796 111.84 62.7168C111.837 62.6234 111.857 62.5306 111.899 62.4469C111.941 62.3632 112.003 62.2911 112.08 62.237C112.29 62.1061 112.536 62.0445 112.783 62.0611H113.226V61.8824C113.23 61.8267 113.22 61.7711 113.199 61.7195C113.178 61.6679 113.145 61.6218 113.104 61.5844C112.999 61.5028 112.868 61.4634 112.735 61.4741C112.616 61.4735 112.496 61.4866 112.379 61.5129C112.256 61.5413 112.135 61.5781 112.017 61.6231V61.3043C112.069 61.2854 112.122 61.2694 112.175 61.2566C112.234 61.2392 112.294 61.2253 112.355 61.2149C112.421 61.2016 112.488 61.1916 112.556 61.185C112.626 61.1805 112.696 61.1805 112.765 61.185C112.882 61.1842 112.999 61.1983 113.113 61.2268C113.207 61.2498 113.295 61.2913 113.373 61.349C113.445 61.4047 113.502 61.4774 113.538 61.5605C113.578 61.6545 113.598 61.7562 113.595 61.8585V63.2681L113.244 63.2651ZM113.206 62.3324H112.735C112.656 62.3308 112.576 62.3398 112.499 62.3591C112.439 62.3724 112.383 62.3978 112.334 62.4336C112.293 62.4641 112.261 62.5054 112.241 62.5529C112.219 62.6005 112.208 62.6524 112.208 62.7049C112.208 62.7436 112.215 62.782 112.229 62.8181C112.242 62.854 112.262 62.8867 112.289 62.9135C112.321 62.9437 112.359 62.967 112.4 62.982C112.453 62.9985 112.509 63.0066 112.565 63.0058C112.669 63.0017 112.771 62.9764 112.864 62.9314C112.99 62.8692 113.107 62.79 113.212 62.6959L113.206 62.3324Z" fill="#3A3A39"/>
<path d="M114.699 61.2169H115.026L115.041 61.5477C115.096 61.4837 115.157 61.425 115.223 61.3719C115.276 61.3281 115.333 61.2901 115.394 61.2586C115.447 61.23 115.505 61.2099 115.565 61.199C115.624 61.1869 115.684 61.1809 115.744 61.1811C115.835 61.175 115.927 61.1883 116.013 61.2202C116.098 61.2521 116.176 61.3018 116.241 61.3659C116.364 61.5271 116.424 61.7273 116.409 61.9291V63.2641H116.041V61.947C116.051 61.8218 116.018 61.6969 115.948 61.5924C115.913 61.5533 115.87 61.5226 115.822 61.5029C115.774 61.4833 115.721 61.4751 115.669 61.4791C115.625 61.479 115.581 61.485 115.538 61.497C115.489 61.5114 115.443 61.5346 115.403 61.5656C115.347 61.6026 115.296 61.6456 115.25 61.6937C115.186 61.7582 115.125 61.8258 115.068 61.8964V63.2552H114.699V61.2169Z" fill="#3A3A39"/>
<path d="M119.232 63.266H118.9V62.9352C118.844 62.9992 118.783 63.0579 118.717 63.111C118.665 63.1548 118.607 63.1928 118.547 63.2243C118.493 63.2526 118.436 63.2727 118.376 63.2839C118.317 63.296 118.257 63.302 118.196 63.3018C118.105 63.3081 118.013 63.2949 117.928 63.263C117.842 63.2311 117.764 63.1813 117.699 63.117C117.576 62.957 117.517 62.7576 117.532 62.5568V61.2188H117.9V62.5269C117.9 62.8249 118.023 62.9978 118.271 62.9978C118.316 62.9977 118.36 62.9917 118.403 62.9799C118.451 62.9631 118.496 62.94 118.538 62.9114C118.592 62.8734 118.643 62.8305 118.69 62.7832C118.744 62.7266 118.807 62.6581 118.873 62.5776V61.2188H119.244L119.232 63.266Z" fill="#3A3A39"/>
<path d="M122.232 60.714C122.067 60.6791 121.9 60.6601 121.732 60.6574C121.664 60.6479 121.594 60.6543 121.529 60.6761C121.464 60.698 121.405 60.7347 121.356 60.7832C121.307 60.8318 121.271 60.891 121.249 60.956C121.228 61.0211 121.222 61.0903 121.232 61.1581V61.5156H122.166V61.8136H121.232V63.2678H120.857V61.8136H120.172V61.5156H120.857V61.1789C120.857 60.6335 121.157 60.3594 121.756 60.3594C121.92 60.3617 122.083 60.3787 122.244 60.4101L122.232 60.714Z" fill="#3A3A39"/>
<path d="M124.532 63.2651V62.988C124.43 63.0895 124.31 63.1705 124.178 63.2264C124.06 63.2764 123.933 63.3018 123.804 63.3009C123.702 63.3022 123.601 63.2871 123.505 63.2561C123.425 63.2299 123.351 63.1873 123.289 63.131C123.235 63.0801 123.193 63.0181 123.166 62.9492C123.141 62.8744 123.127 62.7959 123.127 62.7168C123.124 62.6234 123.145 62.5306 123.186 62.4469C123.228 62.3632 123.29 62.2911 123.367 62.237C123.577 62.1061 123.823 62.0445 124.07 62.0611H124.514V61.8824C124.517 61.8267 124.507 61.7711 124.486 61.7195C124.465 61.6679 124.432 61.6218 124.391 61.5844C124.286 61.5028 124.155 61.4634 124.023 61.4741C123.903 61.4735 123.783 61.4866 123.666 61.5129C123.544 61.5413 123.424 61.5781 123.307 61.6231V61.3043C123.358 61.2854 123.41 61.2694 123.463 61.2566C123.522 61.2392 123.582 61.2253 123.642 61.2149C123.708 61.2149 123.774 61.191 123.843 61.185C123.913 61.1805 123.983 61.1805 124.052 61.185C124.17 61.184 124.286 61.1981 124.4 61.2268C124.495 61.2498 124.584 61.2913 124.663 61.349C124.734 61.4061 124.79 61.4785 124.828 61.5605C124.867 61.6549 124.887 61.7564 124.885 61.8585V63.2681L124.532 63.2651ZM124.493 62.3324H124.023C123.943 62.3308 123.863 62.3398 123.786 62.3591C123.727 62.3731 123.671 62.3984 123.621 62.4336C123.581 62.4648 123.549 62.5059 123.528 62.5529C123.507 62.6007 123.497 62.6526 123.499 62.7049C123.498 62.7433 123.504 62.7815 123.517 62.8181C123.529 62.854 123.549 62.8867 123.576 62.9135C123.608 62.9437 123.646 62.967 123.687 62.982C123.741 62.9987 123.798 63.0068 123.855 63.0059C123.959 63.0017 124.061 62.9764 124.154 62.9314C124.28 62.8692 124.397 62.79 124.502 62.6959L124.493 62.3324Z" fill="#3A3A39"/>
<path d="M127.639 63.1881C127.541 63.2239 127.441 63.2509 127.339 63.2686C127.24 63.2834 127.14 63.2914 127.04 63.2924C126.899 63.3019 126.759 63.2837 126.626 63.2387C126.492 63.1937 126.37 63.1227 126.264 63.0302C126.168 62.9277 126.093 62.8066 126.046 62.6743C125.999 62.542 125.979 62.4015 125.989 62.2614C125.987 62.1115 126.014 61.9627 126.07 61.8233C126.118 61.6962 126.192 61.5804 126.288 61.4836C126.386 61.3889 126.502 61.3149 126.629 61.266C126.768 61.2147 126.916 61.1894 127.064 61.1915C127.164 61.191 127.264 61.198 127.363 61.2124C127.458 61.2262 127.55 61.2512 127.639 61.2869V61.6236C127.55 61.5803 127.456 61.5463 127.36 61.5223C127.262 61.5016 127.161 61.4916 127.061 61.4925C126.968 61.4923 126.877 61.5095 126.791 61.5431C126.708 61.5783 126.632 61.63 126.57 61.6951C126.503 61.7631 126.452 61.8444 126.42 61.9335C126.382 62.0345 126.362 62.1416 126.363 62.2494C126.355 62.3502 126.368 62.4514 126.401 62.5471C126.433 62.6429 126.484 62.7311 126.552 62.8067C126.622 62.8699 126.704 62.9186 126.794 62.9498C126.883 62.9811 126.978 62.9942 127.073 62.9885C127.173 62.9906 127.274 62.9796 127.372 62.9557C127.466 62.9347 127.558 62.9027 127.645 62.8604L127.639 63.1881Z" fill="#3A3A39"/>
<path d="M130.523 63.2367C130.438 63.2581 130.352 63.273 130.265 63.2814C130.175 63.2859 130.084 63.2859 129.993 63.2814C129.779 63.2989 129.566 63.2374 129.394 63.1085C129.324 63.0387 129.27 62.9546 129.236 62.862C129.202 62.7694 129.188 62.6705 129.197 62.5721V61.5053H128.598V61.2073H129.197V60.647L129.565 60.5547V61.2073H130.52V61.5053H129.565V62.5453C129.56 62.6055 129.569 62.666 129.59 62.7226C129.611 62.7792 129.644 62.8306 129.688 62.8731C129.79 62.9526 129.918 62.9918 130.047 62.9834C130.121 62.9823 130.195 62.9774 130.268 62.9684C130.353 62.9567 130.437 62.9398 130.52 62.9178L130.523 63.2367Z" fill="#3A3A39"/>
<path d="M133.344 63.266H133.011V62.9352C132.955 62.9984 132.894 63.0572 132.829 63.111C132.776 63.1548 132.719 63.1928 132.658 63.2243C132.604 63.252 132.547 63.2721 132.487 63.2839C132.428 63.296 132.368 63.302 132.308 63.3018C132.216 63.3081 132.125 63.2949 132.039 63.263C131.953 63.2311 131.875 63.1813 131.811 63.117C131.688 62.957 131.628 62.7576 131.643 62.5568V61.2188H132.011V62.5269C132.011 62.8249 132.134 62.9978 132.38 62.9978C132.425 62.9979 132.47 62.9919 132.514 62.9799C132.562 62.9631 132.607 62.94 132.649 62.9114C132.704 62.8734 132.755 62.8305 132.802 62.7832C132.856 62.7266 132.918 62.6581 132.984 62.5776V61.2188H133.356L133.344 63.266Z" fill="#3A3A39"/>
<path d="M134.541 61.2172H134.877V61.5957C134.98 61.4686 135.106 61.3615 135.248 61.2798C135.361 61.2166 135.489 61.1827 135.619 61.1814C135.713 61.1743 135.807 61.1892 135.894 61.2249C135.981 61.2606 136.058 61.3162 136.119 61.3871C136.245 61.5648 136.301 61.7819 136.278 61.998H135.904C135.92 61.8626 135.891 61.7257 135.823 61.6076C135.793 61.5681 135.754 61.5365 135.709 61.5157C135.664 61.4949 135.615 61.4855 135.565 61.4884C135.514 61.4875 135.464 61.4956 135.416 61.5123C135.361 61.5325 135.308 61.5596 135.26 61.5927C135.201 61.6376 135.145 61.6864 135.092 61.7387C135.024 61.8054 134.96 61.876 134.901 61.9503V63.2645H134.529L134.541 61.2172Z" fill="#3A3A39"/>
<path d="M139.075 62.1314C139.075 62.182 139.075 62.2237 139.075 62.2595C139.075 62.2953 139.075 62.3251 139.075 62.3549H137.578C137.572 62.4432 137.585 62.5318 137.616 62.6146C137.648 62.6974 137.697 62.7725 137.761 62.8346C137.907 62.9566 138.094 63.0175 138.285 63.0045C138.349 63.0045 138.411 63.0045 138.473 63.0045C138.535 63.0045 138.595 62.9985 138.653 62.9866L138.818 62.9598L138.967 62.924V63.222C138.855 63.2518 138.741 63.2737 138.626 63.2876C138.496 63.3057 138.365 63.3147 138.234 63.3144C138.073 63.3179 137.913 63.2937 137.761 63.2429C137.638 63.201 137.527 63.1304 137.437 63.0372C137.351 62.9414 137.287 62.8273 137.252 62.7035C137.209 62.5594 137.189 62.4097 137.192 62.2595C137.191 62.121 137.212 61.9831 137.255 61.8512C137.297 61.7278 137.361 61.6128 137.443 61.5115C137.526 61.4156 137.628 61.3375 137.743 61.2821C137.871 61.2232 138.011 61.1936 138.153 61.1956C138.287 61.1923 138.42 61.2156 138.545 61.2642C138.658 61.3033 138.76 61.3676 138.845 61.4519C138.924 61.5382 138.985 61.6396 139.024 61.7499C139.061 61.8737 139.078 62.0024 139.075 62.1314ZM138.692 62.0807C138.696 61.9962 138.686 61.9116 138.662 61.8304C138.642 61.7587 138.606 61.6925 138.557 61.6367C138.509 61.5813 138.448 61.5375 138.38 61.5085C138.302 61.4772 138.219 61.462 138.135 61.4638C138.059 61.463 137.983 61.4783 137.913 61.5085C137.848 61.5378 137.79 61.5804 137.743 61.6337C137.693 61.6926 137.654 61.759 137.626 61.8304C137.595 61.9107 137.577 61.995 137.572 62.0807H138.692Z" fill="#3A3A39"/>
<path d="M140.186 61.2172H140.521V61.5957C140.624 61.4686 140.75 61.3615 140.892 61.2798C141.006 61.2166 141.134 61.1827 141.264 61.1814C141.357 61.1743 141.452 61.1892 141.538 61.2249C141.625 61.2606 141.703 61.3162 141.764 61.3871C141.89 61.5648 141.946 61.7819 141.923 61.998H141.548C141.564 61.8626 141.536 61.7257 141.467 61.6076C141.438 61.5681 141.399 61.5365 141.354 61.5157C141.309 61.4949 141.259 61.4855 141.21 61.4884C141.159 61.4878 141.108 61.4959 141.06 61.5123C141.005 61.5325 140.953 61.5596 140.904 61.5927C140.845 61.6376 140.789 61.6864 140.737 61.7387C140.669 61.8054 140.605 61.876 140.545 61.9503V63.2645H140.174L140.186 61.2172Z" fill="#3A3A39"/>
<path d="M144.867 49.5647H144.543L144.244 48.918C144.224 48.8734 144.199 48.8314 144.169 48.7929C144.147 48.7635 144.121 48.7374 144.091 48.7154C144.063 48.697 144.031 48.6838 143.998 48.6766C143.96 48.6719 143.922 48.6719 143.884 48.6766H143.747V49.5706H143.447V47.5472H144.01C144.116 47.5446 144.222 47.5576 144.325 47.586C144.404 47.6077 144.478 47.6441 144.543 47.6932C144.598 47.7389 144.64 47.7973 144.666 47.8631C144.693 47.9324 144.706 48.0063 144.705 48.0806C144.705 48.1413 144.696 48.2016 144.678 48.2595C144.659 48.315 144.629 48.3665 144.591 48.4115C144.551 48.4582 144.503 48.4984 144.45 48.5306C144.39 48.5656 144.324 48.5907 144.256 48.6051C144.314 48.6257 144.366 48.6618 144.405 48.7095C144.455 48.7689 144.497 48.8339 144.531 48.9031L144.867 49.5647ZM144.405 48.0956C144.409 48.0499 144.402 48.0039 144.383 47.9618C144.365 47.9197 144.337 47.8828 144.301 47.8542C144.213 47.7946 144.107 47.7663 144.001 47.7737H143.729V48.4412H143.962C144.024 48.4423 144.085 48.4354 144.145 48.4204C144.195 48.4074 144.242 48.384 144.283 48.3518C144.321 48.3236 144.351 48.2869 144.372 48.2446C144.395 48.1981 144.406 48.1471 144.405 48.0956Z" fill="#3A3A39"/>
<path d="M144.157 50.5644C143.886 50.5699 143.617 50.5222 143.365 50.424C143.113 50.3258 142.883 50.179 142.689 49.9921C142.494 49.8052 142.338 49.5818 142.23 49.3348C142.123 49.0879 142.065 48.8221 142.061 48.5529C142.065 48.2838 142.123 48.0182 142.231 47.7714C142.339 47.5246 142.495 47.3014 142.689 47.1145C142.884 46.9277 143.114 46.781 143.366 46.6826C143.617 46.5843 143.886 46.5363 144.157 46.5414C144.427 46.5363 144.696 46.5843 144.947 46.6826C145.199 46.781 145.429 46.9277 145.624 47.1145C145.818 47.3014 145.974 47.5246 146.082 47.7714C146.19 48.0182 146.248 48.2838 146.253 48.5529C146.248 48.822 146.19 49.0875 146.082 49.3343C145.974 49.5811 145.818 49.8043 145.624 49.9912C145.429 50.178 145.199 50.3248 144.947 50.4232C144.696 50.5215 144.427 50.5695 144.157 50.5644ZM144.157 46.9645C143.725 46.9565 143.307 47.1193 142.996 47.417C142.684 47.7147 142.504 48.1232 142.495 48.5529C142.504 48.9829 142.684 49.3916 142.996 49.6898C143.307 49.988 143.724 50.1513 144.157 50.1442C144.589 50.1513 145.006 49.988 145.317 49.6898C145.629 49.3916 145.809 48.9829 145.818 48.5529C145.809 48.1232 145.629 47.7147 145.317 47.417C145.006 47.1193 144.588 46.9565 144.157 46.9645Z" fill="#3A3A39"/>
</g>
<defs>
<clipPath id="clip0_3397_9685">
<rect width="146" height="63" fill="white" transform="translate(0.240234 0.300781)"/>
</clipPath>
</defs>
</svg>
