<svg width="118" height="108" viewBox="0 0 118 108" fill="none" xmlns="http://www.w3.org/2000/svg">
<path d="M19.3192 19.3723C19.7395 19.3933 19.7988 19.4622 19.7751 19.8846L18.668 40.9988C18.6345 41.2936 18.6632 41.5923 18.7522 41.8751C18.8412 42.1578 18.9885 42.4182 19.1844 42.6391C19.3802 42.86 19.6202 43.0363 19.8883 43.1563C20.1565 43.2764 20.4468 43.3374 20.74 43.3355L25.7305 43.6051C27.0624 43.677 27.9711 42.8502 28.0392 41.508L29.1492 20.3939C29.1699 19.9924 29.2617 19.9115 29.6583 19.9325L35.8979 20.268C37.2298 20.3399 38.1356 19.5131 38.2066 18.171L38.473 13.1201C38.544 11.7301 37.7685 10.8583 36.401 10.7834L13.5799 9.55513C12.2479 9.48324 11.3422 10.3071 11.2712 11.6522L11.0077 16.7061C10.9742 17.0009 11.0029 17.2995 11.0919 17.5823C11.1809 17.8651 11.3282 18.1255 11.5241 18.3464C11.7199 18.5673 11.9598 18.7436 12.228 18.8636C12.4962 18.9836 12.7865 19.0447 13.0797 19.0428L19.3192 19.3723Z" fill="#3A3A39"/>
<path d="M46.9353 14.0956L42.0349 14.3642C40.8237 14.4306 39.895 15.4781 39.9606 16.704L41.5054 45.5739C41.571 46.7997 42.6061 47.7397 43.8172 47.6733L48.7176 47.4047C49.9288 47.3383 50.8575 46.2907 50.7919 45.0649L49.2471 16.195C49.1815 14.9691 48.1464 14.0292 46.9353 14.0956Z" fill="#3A3A39"/>
<path d="M72.8852 44.237C74.2557 44.3539 75.1436 43.5989 75.2532 42.2119L75.6764 37.17C75.7918 35.783 75.0459 34.8842 73.6755 34.7734L62.9132 33.8477C62.5372 33.8148 62.4396 33.6979 62.4721 33.3205L62.5935 31.8795C62.6261 31.478 62.7178 31.4002 63.1144 31.4331L70.0082 32.0323C71.3372 32.1461 72.2695 31.3522 72.3761 30.0071L72.7994 24.9652C72.9148 23.5782 72.1689 22.6795 70.7984 22.5686L63.9048 21.9695C63.5318 21.9365 63.4311 21.8197 63.4637 21.4422L63.5851 20.0013C63.6176 19.5998 63.7123 19.5219 64.106 19.5549L74.8713 20.4806C76.2003 20.5974 77.1297 19.8005 77.2393 18.4554L77.6625 13.4135C77.778 12.0265 77.0291 11.1308 75.6587 11.0169L56.9785 9.41119C55.6495 9.29735 54.7201 10.0912 54.6105 11.4363L52.1893 40.2467C52.1474 40.5401 52.1674 40.8393 52.2481 41.1243C52.3288 41.4094 52.4682 41.6739 52.6573 41.9004C52.8464 42.1268 53.0808 42.3102 53.3451 42.4382C53.6093 42.5663 53.8973 42.6362 54.1902 42.6433L72.8852 44.237Z" fill="#3A3A39"/>
<path d="M89.1336 47.4689L88.8376 40.336C88.8284 40.2646 88.8348 40.192 88.8564 40.1234C88.8779 40.0548 88.9142 39.9918 88.9624 39.9389C89.0107 39.886 89.0699 39.8446 89.1358 39.8174C89.2017 39.7902 89.2727 39.7781 89.3437 39.7817L90.8474 39.7158L95.7254 48.3317C95.8999 48.6668 96.1667 48.9433 96.4935 49.1279C96.8203 49.3124 97.1931 49.3969 97.5664 49.3712L102.652 49.1525C103.094 49.1463 103.527 49.0234 103.908 48.7959C104.289 48.5684 104.605 48.2442 104.824 47.8554C105.025 47.4634 105.12 47.0252 105.102 46.5843C105.083 46.1433 104.951 45.715 104.718 45.3419L99.7923 36.9538C102.042 34.9975 103.048 31.8879 102.859 27.4691C102.69 23.4488 101.633 20.6058 99.6325 18.7814C97.6315 16.957 94.5591 16.1092 90.359 16.2919L80.5912 16.7143C80.2951 16.7197 80.0031 16.786 79.733 16.909C79.4629 17.032 79.2204 17.2092 79.02 17.43C78.8196 17.6507 78.6656 17.9103 78.5673 18.1931C78.469 18.4759 78.4285 18.7759 78.4482 19.075L79.6677 47.8733C79.6735 48.1729 79.7392 48.4682 79.8609 48.7413C79.9825 49.0145 80.1577 49.2598 80.3757 49.4626C80.5937 49.6653 80.85 49.8212 81.1292 49.9208C81.4084 50.0205 81.7047 50.0618 82.0001 50.0423L86.9935 49.8236C87.2889 49.8177 87.58 49.7514 87.8493 49.6286C88.1186 49.5057 88.3605 49.3289 88.5605 49.1089C88.7605 48.8889 88.9144 48.6301 89.0129 48.3483C89.1113 48.0664 89.1524 47.7673 89.1336 47.4689ZM88.3847 29.7759L88.2456 26.4356C88.2354 26.3641 88.241 26.2913 88.262 26.2223C88.283 26.1533 88.3189 26.0898 88.367 26.0366C88.4151 25.9833 88.4743 25.9414 88.5403 25.9141C88.6063 25.8867 88.6775 25.8746 88.7488 25.8784L91.022 25.7795C92.9282 25.6986 93.3899 25.7585 93.4728 27.8765C93.5557 29.9946 93.1147 30.0994 91.2085 30.1803L88.9352 30.2792C88.8652 30.2888 88.794 30.2828 88.7265 30.2617C88.659 30.2406 88.5969 30.2049 88.5445 30.1569C88.492 30.109 88.4506 30.0501 88.423 29.9843C88.3954 29.9184 88.3823 29.8473 88.3847 29.7759Z" fill="#3A3A39"/>
<path d="M34.0602 51.9636L11.2686 53.6022C9.93666 53.6981 9.13747 54.6298 9.23219 55.9749L9.58739 61.0228C9.58987 61.3199 9.65474 61.6132 9.77768 61.883C9.90061 62.1529 10.0788 62.3933 10.3005 62.5882C10.5222 62.7831 10.7822 62.928 11.0634 63.0135C11.3446 63.0989 11.6406 63.1229 11.9317 63.0839L18.1653 62.6345C18.5856 62.6045 18.6507 62.6645 18.6803 63.0869L20.1603 84.1771C20.1631 84.4743 20.2284 84.7675 20.3517 85.0372C20.475 85.307 20.6535 85.5471 20.8755 85.7417C21.0974 85.9363 21.3577 86.081 21.6391 86.166C21.9204 86.2511 22.2165 86.2747 22.5075 86.2352L27.495 85.8787C28.8241 85.7828 29.6232 84.8512 29.5285 83.5031L28.0485 62.4128C28.0189 62.0144 28.0989 61.9215 28.4955 61.8916L34.7291 61.4452C36.0581 61.3493 36.8573 60.4176 36.7626 59.0695L36.4104 54.0217C36.3245 52.6346 35.4365 51.8647 34.0602 51.9636Z" fill="#3A3A39"/>
<path d="M39.1148 58.8153L37.3759 87.6739C37.302 88.8992 38.2236 89.9532 39.4344 90.0279L44.3329 90.3303C45.5436 90.405 46.5849 89.4722 46.6587 88.2469L48.3977 59.3883C48.4715 58.1629 47.5499 57.1089 46.3392 57.0342L41.4407 56.7318C40.23 56.6571 39.1887 57.5899 39.1148 58.8153Z" fill="#3A3A39"/>
<path d="M71.6342 72.6012C73.8749 70.6359 74.8665 67.5263 74.6652 63.1076C74.4787 59.0872 73.4131 56.2502 71.4092 54.4198C69.4054 52.5894 66.327 51.7686 62.1298 51.9663L52.362 52.4277C52.066 52.4346 51.7744 52.5023 51.505 52.6265C51.2355 52.7508 50.9937 52.929 50.7942 53.1505C50.5948 53.372 50.4417 53.6321 50.3444 53.9152C50.2471 54.1982 50.2074 54.4983 50.2279 54.7973L51.554 83.5896C51.5608 83.8891 51.6277 84.1841 51.7505 84.4567C51.8733 84.7293 52.0495 84.9738 52.2684 85.1755C52.4872 85.3771 52.7443 85.5317 53.0239 85.6299C53.3036 85.7281 53.6 85.7678 53.8953 85.7466L58.8917 85.5129C59.1877 85.5056 59.4792 85.4376 59.7485 85.3129C60.0179 85.1883 60.2595 85.0097 60.4587 84.788C60.6579 84.5662 60.8106 84.3058 60.9075 84.0226C61.0045 83.7394 61.0437 83.4393 61.0228 83.1403L60.6942 76.0104C60.6846 75.939 60.6906 75.8664 60.7118 75.7976C60.733 75.7288 60.7689 75.6657 60.8169 75.6125C60.8649 75.5593 60.9239 75.5175 60.9897 75.4899C61.0554 75.4624 61.1264 75.4499 61.1975 75.4532L62.7011 75.3813L67.6116 83.9791C67.7874 84.314 68.0555 84.59 68.3834 84.7735C68.7114 84.957 69.0849 85.0401 69.4586 85.0126L74.5408 84.773C74.9831 84.7651 75.4157 84.6404 75.7957 84.4113C76.1757 84.1822 76.4901 83.8567 76.7075 83.4668C76.9072 83.0749 77.0019 82.6369 76.9822 82.1964C76.9624 81.7559 76.829 81.3284 76.5951 80.9564L71.6342 72.6012ZM65.2851 63.551C65.3828 65.672 64.9358 65.7738 63.0296 65.8637L60.7564 65.9715C60.6859 65.9813 60.6141 65.9752 60.5462 65.9537C60.4783 65.9323 60.4158 65.896 60.3633 65.8474C60.3108 65.7988 60.2694 65.7391 60.2422 65.6725C60.215 65.606 60.2026 65.5342 60.2059 65.4623L60.052 62.125C60.0419 62.0536 60.0475 61.9809 60.0683 61.912C60.0891 61.8431 60.1247 61.7797 60.1724 61.7262C60.2201 61.6728 60.2789 61.6306 60.3445 61.6027C60.4102 61.5748 60.481 61.5618 60.5522 61.5648L62.8284 61.4599C64.7405 61.367 65.1874 61.427 65.2851 63.551Z" fill="#3A3A39"/>
<path d="M89.6987 66.2258L100.464 67.1485C101.793 67.2624 102.722 66.4655 102.832 65.1204L103.255 60.0785C103.371 58.6945 102.622 57.7957 101.254 57.6819L82.5712 56.0792C81.2422 55.9653 80.3127 56.7592 80.2032 58.1043L77.7909 86.9147C77.7489 87.2081 77.769 87.5072 77.8497 87.7923C77.9303 88.0773 78.0698 88.3418 78.2589 88.5683C78.448 88.7948 78.6824 88.9781 78.9466 89.1062C79.2109 89.2343 79.4989 89.3042 79.7918 89.3113L98.4838 90.908C99.8513 91.0248 100.739 90.2669 100.852 88.8799L101.275 83.838C101.39 82.4509 100.642 81.5552 99.2712 81.4414L88.5088 80.5187C88.1359 80.4857 88.0382 80.3659 88.0678 79.9884L88.1891 78.5474C88.2217 78.149 88.3164 78.0681 88.7101 78.1041L95.6038 78.7032C96.9328 78.8171 97.8652 78.0202 97.9717 76.6781L98.395 71.6362C98.5104 70.2492 97.7616 69.3504 96.3911 69.2396L89.4974 68.6404C89.1245 68.6075 89.0268 68.4877 89.0564 68.1102L89.1778 66.6692C89.2103 66.2708 89.308 66.1899 89.6987 66.2258Z" fill="#3A3A39"/>
<path d="M98.7422 100.014C98.4018 100.014 98.0555 99.9994 97.7122 99.9694L79.032 98.3667C77.5649 98.254 76.1345 97.8478 74.8236 97.1716C73.5127 96.4953 72.3475 95.5625 71.3953 94.4272C71.299 94.3092 71.1771 94.2153 71.0389 94.1529C70.9008 94.0905 70.7503 94.0614 70.5991 94.0678L69.8739 94.1037C68.2006 94.1829 66.5315 93.8755 64.993 93.205C64.8624 93.1484 64.7209 93.1222 64.579 93.1284C64.4371 93.1346 64.2983 93.1731 64.1731 93.2409C62.6732 94.0631 61.0082 94.5292 59.304 94.604L54.3106 94.8407C54.1744 94.8407 54.0412 94.8407 53.9051 94.8407C53.7651 94.8446 53.6278 94.8803 53.5034 94.9451C53.3789 95.01 53.2704 95.1022 53.1858 95.2151C52.7961 95.7089 52.3653 96.1679 51.8982 96.5872C50.7897 97.5669 49.5013 98.3159 48.1067 98.7913C46.712 99.2668 45.2385 99.4595 43.7702 99.3583L38.8686 99.0587C37.3353 98.9763 35.8356 98.5731 34.4641 97.8744C33.0926 97.1757 31.8792 96.1968 30.9004 94.9995C30.7873 94.8586 30.6376 94.7524 30.4683 94.6926C30.299 94.6329 30.1166 94.6219 29.9414 94.6609C29.3448 94.8013 28.738 94.8934 28.127 94.9365L23.1395 95.293C21.6721 95.4154 20.1953 95.2396 18.7959 94.776C17.3966 94.3125 16.103 93.5704 14.9911 92.5935C13.8792 91.6167 12.9714 90.4247 12.3213 89.0876C11.6711 87.7506 11.2915 86.2955 11.205 84.8078L10.3644 72.8517C10.3502 72.6343 10.2647 72.4279 10.1216 72.2651C9.97845 72.1023 9.78579 71.9925 9.57406 71.953C7.66562 71.5889 5.88654 70.7195 4.41785 69.4335C3.3089 68.4532 2.40305 67.2601 1.75272 65.9231C1.10238 64.5861 0.720491 63.1318 0.629135 61.6445L0.276901 56.5966C0.0431756 53.8502 0.825101 51.1138 2.47115 48.9175C4.11719 46.7213 6.51015 45.2218 9.18631 44.7094C9.31125 44.6841 9.42996 44.6339 9.53551 44.5617C9.64106 44.4895 9.73133 44.3967 9.80104 44.2887C9.87076 44.1808 9.91853 44.0599 9.94156 43.9331C9.96459 43.8062 9.96243 43.676 9.93518 43.5501C9.72606 42.5462 9.64743 41.5189 9.70134 40.4944L10.3318 28.5113C10.3425 28.2939 10.2819 28.079 10.1593 27.9001C10.0366 27.7213 9.85897 27.5886 9.65399 27.5227C7.80576 26.9213 6.14744 25.8361 4.84705 24.3771C3.8668 23.2661 3.11405 21.9694 2.63239 20.5619C2.15073 19.1545 1.94971 17.6643 2.04101 16.1777L2.30445 11.1268C2.36208 9.63721 2.71416 8.17448 3.33989 6.82497C3.96562 5.47547 4.85229 4.26659 5.9475 3.26983C7.04272 2.27307 8.32425 1.50865 9.71635 1.02172C11.1084 0.534797 12.5829 0.335252 14.0525 0.434893L36.8765 1.66315C39.5953 1.78217 42.1788 2.89683 44.1462 4.79972C44.2403 4.89352 44.3524 4.96691 44.4756 5.01533C44.5988 5.06375 44.7304 5.08621 44.8624 5.08134L46.4431 4.99445C46.6888 4.99445 46.9315 4.9735 47.1771 4.97649C47.3243 4.97778 47.4698 4.94465 47.6023 4.87969C47.7347 4.81474 47.8506 4.71973 47.9408 4.60202C48.4197 3.96852 48.9656 3.38989 49.5688 2.87646C50.6978 1.9194 52.0035 1.19903 53.4101 0.757253C54.8166 0.315476 56.2959 0.161112 57.7619 0.303097L76.4391 1.90883C80.0295 2.2084 83.0782 4.0538 84.9045 6.92375C84.9961 7.06628 85.123 7.18195 85.2726 7.25924C85.4222 7.33652 85.5892 7.3727 85.757 7.36412L89.969 7.18438C96.6407 6.8848 101.761 8.47255 105.633 12.0016C109.505 15.5306 111.553 20.5575 111.822 27.0493C111.973 30.6443 111.526 33.8737 110.511 36.6687C110.46 36.8076 110.44 36.9564 110.452 37.1041C110.465 37.2519 110.51 37.3948 110.585 37.5226L112.429 40.6621C113.464 42.3826 114.035 44.3472 114.087 46.3606C114.139 48.374 113.67 50.3661 112.725 52.1389C112.356 52.8268 111.92 53.4752 111.423 54.0742C111.307 54.2138 111.233 54.3832 111.209 54.5633C111.184 54.7434 111.21 54.9268 111.283 55.0927C112.063 56.8886 112.383 58.8546 112.213 60.8087L111.79 65.8506C111.684 67.4273 111.249 68.9634 110.514 70.3576C109.778 71.7518 108.76 72.9725 107.524 73.9392C107.419 74.0219 107.332 74.1259 107.269 74.2446C107.206 74.3632 107.168 74.4939 107.157 74.6282L107.116 75.1555C107.103 75.2898 107.119 75.4253 107.161 75.5533C107.203 75.6813 107.272 75.7989 107.362 75.8984C108.416 77.0607 109.217 78.4355 109.71 79.9327C110.203 81.4299 110.378 83.0157 110.224 84.5861L109.801 89.628C109.286 95.6585 104.638 100.014 98.7422 100.014ZM72.5675 90.0085C72.7437 89.9984 72.9193 90.0368 73.0756 90.1196C73.232 90.2024 73.3632 90.3265 73.4554 90.4788L73.7514 90.9821C74.3495 91.9681 75.1722 92.7949 76.1506 93.3932C77.129 93.9915 78.2347 94.344 79.3753 94.4212L98.0585 96.024C98.2923 96.045 98.5262 96.054 98.757 96.054C102.638 96.054 105.583 93.2829 105.914 89.3135L106.337 84.2716C106.548 81.7581 105.63 79.4544 103.819 77.9565L103.419 77.624C103.297 77.5229 103.201 77.3931 103.139 77.2458C103.078 77.0986 103.053 76.9384 103.067 76.7791L103.434 72.3724C103.448 72.2129 103.5 72.0592 103.585 71.9246C103.671 71.79 103.787 71.6784 103.925 71.5995L104.372 71.3418C106.406 70.1735 107.693 68.0465 107.903 65.545L108.327 60.5031C108.507 58.6915 108.017 56.8765 106.95 55.4103L106.358 54.6314C106.205 54.4244 106.139 54.1649 106.173 53.9089C106.208 53.6528 106.34 53.4206 106.542 53.2623L107.299 52.6632C108.115 52.0236 108.79 51.2185 109.28 50.2995C109.901 49.1275 110.208 47.8115 110.172 46.482C110.136 45.1525 109.757 43.8557 109.072 42.7202L106.21 37.8521C106.13 37.714 106.083 37.558 106.076 37.3978C106.068 37.2376 106.099 37.0778 106.166 36.9324L106.388 36.4561C107.554 33.9336 108.072 30.839 107.918 27.2591C107.69 21.8667 106.041 17.7325 103.019 14.9764C99.9439 12.1723 95.7261 10.9261 90.1318 11.1687L83.4009 11.4683C83.2027 11.4774 83.0066 11.4249 82.8388 11.3178C82.6711 11.2106 82.5398 11.0541 82.4626 10.8692L82.1991 10.2311C81.175 7.75655 78.8988 6.13584 76.1046 5.89618L57.4274 4.29045C56.4723 4.19386 55.5078 4.29058 54.5901 4.575C53.6723 4.85942 52.8196 5.32587 52.0817 5.94712C51.3957 6.53025 50.8278 7.24238 50.4094 8.04416L50.0808 8.67327C49.9859 8.85616 49.8363 9.00408 49.6536 9.09605C49.4708 9.18801 49.264 9.21933 49.0626 9.18553L48.37 9.07169C47.8026 8.97926 47.2271 8.94815 46.6532 8.97884L43.1842 9.17058C43.0276 9.17938 42.8711 9.14964 42.7283 9.08391C42.5855 9.01817 42.4606 8.91838 42.3643 8.79311L42.0505 8.38568C41.9351 8.23889 41.8403 8.12203 41.7545 8.02017C41.1046 7.30434 40.3207 6.72629 39.4482 6.31951C38.5758 5.91273 37.6323 5.68534 36.6723 5.65054L13.8512 4.42228C12.8933 4.34984 11.9309 4.47434 11.0219 4.78827C10.1128 5.10221 9.27597 5.59906 8.56166 6.24897C7.84735 6.89887 7.27037 7.68838 6.86548 8.56992C6.46058 9.45146 6.23613 10.4068 6.20565 11.3785L5.93927 16.4293C5.87245 17.378 5.99131 18.3307 6.28908 19.2327C6.58684 20.1348 7.05764 20.9685 7.67445 21.686C8.29127 22.4036 9.04196 22.9908 9.8835 23.414C10.725 23.8373 11.6408 24.0882 12.5784 24.1524L13.5256 24.2333C13.7774 24.2547 14.011 24.3747 14.1768 24.5677C14.3426 24.7607 14.4275 25.0115 14.4136 25.2669L13.5996 40.731C13.5016 42.3268 13.917 43.9118 14.7835 45.2486L15.7159 46.6627C15.81 46.8063 15.8653 46.9723 15.8762 47.1442C15.8871 47.3162 15.8532 47.488 15.7781 47.6426C15.7029 47.7971 15.589 47.9291 15.4477 48.0252C15.3065 48.1214 15.1428 48.1784 14.973 48.1905L10.8972 48.4901C9.93702 48.536 8.99606 48.7786 8.13127 49.2033C7.26648 49.628 6.49585 50.226 5.86603 50.9609C5.2362 51.6958 4.76029 52.5524 4.4671 53.4789C4.17392 54.4054 4.06956 55.3825 4.16034 56.351L4.51554 61.3989C4.56469 62.3485 4.79873 63.279 5.2042 64.1368C5.60967 64.9947 6.17857 65.763 6.87827 66.3977C7.57796 67.0323 8.39464 67.5209 9.28141 67.8352C10.1682 68.1495 11.1076 68.2834 12.0456 68.2292L12.9928 68.1903C13.2434 68.1793 13.4886 68.2666 13.6771 68.434C13.8657 68.6015 13.9832 68.8361 14.0051 69.089L15.0884 84.5352C15.1395 85.505 15.3831 86.4544 15.8046 87.3268C16.2261 88.1993 16.8169 88.9768 17.5417 89.6132C18.2666 90.2495 19.1106 90.7316 20.0235 91.0306C20.9365 91.3296 21.8995 91.4394 22.8553 91.3536L27.8428 90.9971C28.765 90.9328 29.6679 90.6982 30.5067 90.3051L31.3592 89.9066C31.5868 89.7997 31.8465 89.7862 32.0838 89.8688C32.3211 89.9515 32.5176 90.1239 32.632 90.35L33.0701 91.2068C33.6488 92.3371 34.5105 93.2939 35.5691 93.9815C36.6277 94.6691 37.846 95.0635 39.1024 95.1253L44.0011 95.4248C44.9586 95.4934 45.9201 95.3699 46.8303 95.0615C47.7405 94.753 48.5816 94.2656 49.3053 93.6274C49.8857 93.1055 50.3768 92.4901 50.7587 91.8059L51.0842 91.2068C51.1803 91.0343 51.3253 90.8949 51.5005 90.8068C51.6757 90.7186 51.8731 90.6858 52.067 90.7125L52.727 90.8054C53.1897 90.8708 53.6574 90.8929 54.1241 90.8713L59.1175 90.6346C60.6216 90.5709 62.0693 90.0372 63.2614 89.1068L63.8061 88.6813C63.9652 88.5571 64.1583 88.4856 64.359 88.4764C64.5598 88.4673 64.7584 88.5211 64.9279 88.6304L65.5199 89.0079C66.7618 89.8127 68.2204 90.2064 69.6934 90.1343L72.5675 90.0085Z" fill="#3A3A39"/>
<path d="M109.216 106.446C112.632 106.446 115.402 103.643 115.402 100.185C115.402 96.727 112.632 93.9238 109.216 93.9238C105.799 93.9238 103.029 96.727 103.029 100.185C103.029 103.643 105.799 106.446 109.216 106.446Z" fill="#F7F7F7" stroke="#3A3A39" stroke-width="2" stroke-miterlimit="10"/>
<path d="M110.821 102.025C110.843 102.06 110.855 102.1 110.855 102.142C110.855 102.183 110.844 102.223 110.823 102.258C110.801 102.294 110.771 102.322 110.735 102.341C110.698 102.359 110.658 102.367 110.617 102.364H109.919C109.889 102.365 109.859 102.357 109.834 102.341C109.809 102.325 109.789 102.301 109.777 102.274L109.137 101.025C109.132 101.016 109.124 101.009 109.116 101.003C109.107 100.998 109.097 100.995 109.087 100.995H108.844C108.819 100.994 108.794 100.998 108.771 101.008C108.747 101.017 108.726 101.031 108.708 101.049C108.691 101.067 108.677 101.088 108.667 101.112C108.658 101.136 108.654 101.161 108.655 101.186V102.169C108.656 102.195 108.652 102.221 108.643 102.245C108.633 102.269 108.619 102.291 108.601 102.31C108.583 102.328 108.561 102.342 108.537 102.352C108.513 102.361 108.488 102.365 108.462 102.364H107.776C107.75 102.365 107.725 102.36 107.701 102.351C107.678 102.341 107.656 102.327 107.639 102.308C107.621 102.29 107.607 102.268 107.598 102.244C107.589 102.22 107.585 102.195 107.586 102.169V98.1996C107.585 98.1742 107.59 98.1489 107.599 98.1253C107.608 98.1017 107.622 98.0802 107.64 98.0622C107.658 98.0442 107.679 98.0302 107.702 98.0208C107.725 98.0115 107.75 98.0071 107.776 98.0079H109.122C110.215 98.0079 110.659 98.4812 110.659 99.5058C110.659 100.084 110.517 100.488 110.191 100.725C110.18 100.735 110.172 100.748 110.169 100.763C110.165 100.777 110.167 100.792 110.173 100.806L110.821 102.025ZM108.841 99.0774C108.816 99.0766 108.791 99.081 108.768 99.0903C108.744 99.0996 108.723 99.1138 108.705 99.1317C108.688 99.1497 108.674 99.1712 108.664 99.1948C108.655 99.2185 108.651 99.2438 108.652 99.2692V99.7305C108.651 99.7559 108.655 99.7812 108.664 99.8048C108.674 99.8285 108.688 99.8499 108.705 99.8679C108.723 99.8859 108.744 99.9 108.768 99.9093C108.791 99.9187 108.816 99.923 108.841 99.9222H109.155C109.451 99.9222 109.599 99.8863 109.599 99.4998C109.599 99.1134 109.451 99.0774 109.155 99.0774H108.841Z" fill="#3A3A39"/>
</svg>
