<svg width="125" height="71" viewBox="0 0 125 71" fill="none" xmlns="http://www.w3.org/2000/svg">
<g clip-path="url(#clip0_3397_9744)">
<path d="M15.7437 55.3416C15.5816 55.3433 15.4251 55.2822 15.3072 55.1711C15.2454 55.1176 15.1964 55.0511 15.1635 54.9763C15.1307 54.9016 15.115 54.8204 15.1174 54.7389V39.1496C15.1153 39.0686 15.1311 38.9881 15.164 38.914C15.1968 38.8399 15.2457 38.7741 15.3072 38.7212C15.4251 38.61 15.5816 38.5489 15.7437 38.5506H18.4458C18.6697 38.5355 18.8906 38.609 19.0606 38.7553C19.1673 38.8469 19.2561 38.9574 19.3225 39.0813L23.7287 46.6637L28.1311 39.0813C28.2106 38.9656 28.2995 38.8566 28.3968 38.7553C28.4785 38.6802 28.5751 38.6231 28.6804 38.5878C28.7857 38.5525 28.8973 38.5398 29.0078 38.5506H31.6872C31.8578 38.5459 32.0235 38.607 32.1502 38.7212C32.2112 38.7743 32.2595 38.8402 32.2917 38.9144C32.3239 38.9885 32.3391 39.0689 32.3362 39.1496V54.7275C32.3394 54.8088 32.3243 54.8898 32.2922 54.9646C32.26 55.0394 32.2115 55.106 32.1502 55.1597C32.0235 55.2738 31.8578 55.3349 31.6872 55.3303H28.7232C28.5526 55.3349 28.3868 55.2738 28.2602 55.1597C28.1989 55.106 28.1503 55.0394 28.1182 54.9646C28.086 54.8898 28.071 54.8088 28.0742 54.7275V45.7348L25.243 50.7468C25.1721 50.8936 25.0697 51.023 24.9432 51.1259C24.7853 51.2448 24.5903 51.3039 24.3928 51.2927H23.0911C22.8938 51.3032 22.699 51.2442 22.5408 51.1259C22.4117 51.0184 22.3015 50.8903 22.2144 50.7468L19.387 45.7348V54.7275C19.3906 54.8078 19.3769 54.888 19.3468 54.9625C19.3166 55.0371 19.2708 55.1043 19.2124 55.1597C19.1524 55.2169 19.0816 55.2615 19.004 55.2908C18.9264 55.3201 18.8437 55.3335 18.7608 55.3303L15.7437 55.3416Z" fill="#3A393A"/>
<path d="M31.6865 55.6568H28.7224C28.4696 55.6613 28.2243 55.5707 28.0354 55.4028C27.9418 55.3197 27.8672 55.2175 27.8167 55.103C27.7663 54.9885 27.7412 54.8644 27.7433 54.7393V46.994L25.5344 50.9103C25.4442 51.093 25.3146 51.2536 25.1549 51.3804C24.94 51.5513 24.6704 51.6388 24.3959 51.6267H23.0942C22.8197 51.6388 22.5501 51.5513 22.3351 51.3804C22.182 51.2485 22.0536 51.0906 21.9556 50.914L19.743 46.994V54.7279C19.7456 54.8502 19.7227 54.9717 19.6756 55.0847C19.6286 55.1976 19.5584 55.2995 19.4697 55.3838C19.2857 55.558 19.04 55.6521 18.7866 55.6454H15.7846C15.5393 55.6465 15.3024 55.5559 15.1205 55.3914C15.0268 55.3084 14.9522 55.2061 14.9017 55.0916C14.8513 54.9771 14.8262 54.853 14.8282 54.7279V39.1387C14.8265 39.0138 14.8521 38.8901 14.9032 38.7761C14.9543 38.6622 15.0298 38.5608 15.1243 38.479C15.3044 38.3141 15.5403 38.2234 15.7846 38.225H18.4868C18.797 38.2077 19.1014 38.3141 19.3331 38.5207C19.4723 38.6395 19.5859 38.7853 19.6671 38.9491L23.7697 46.0007L27.8875 38.915C27.9762 38.7792 28.0779 38.6522 28.1911 38.5359C28.3048 38.4278 28.4398 38.3444 28.5874 38.2909C28.735 38.2374 28.8921 38.2149 29.0488 38.225H31.7282C31.981 38.2204 32.2262 38.3111 32.4151 38.479C32.5085 38.5615 32.583 38.6631 32.6334 38.7769C32.6838 38.8908 32.7091 39.0142 32.7073 39.1387V54.7279C32.7094 54.853 32.6843 54.9771 32.6339 55.0916C32.5834 55.2061 32.5088 55.3084 32.4151 55.3914C32.3173 55.4816 32.2025 55.5515 32.0774 55.5971C31.9523 55.6426 31.8195 55.6629 31.6865 55.6568ZM28.3846 44.5032V54.7393C28.3813 54.7771 28.3872 54.815 28.4017 54.85C28.4163 54.885 28.439 54.916 28.4681 54.9403C28.5003 54.9696 28.5381 54.992 28.5791 55.0063C28.6202 55.0207 28.6638 55.0266 28.7072 55.0237H31.6865C31.7735 55.0289 31.8591 55.0004 31.9255 54.944C31.9544 54.9187 31.977 54.8871 31.9915 54.8515C32.006 54.816 32.012 54.7776 32.009 54.7393V39.1501C32.0109 39.1125 32.0043 39.075 31.9899 39.0402C31.9755 39.0055 31.9535 38.9743 31.9255 38.9491C31.8593 38.8924 31.7735 38.8639 31.6865 38.8695H29.007C28.8731 38.8525 28.7377 38.8863 28.6275 38.9643C28.5439 39.05 28.4677 39.1425 28.3998 39.2411L23.7128 47.3049L19.0181 39.2335C18.9691 39.1349 18.8991 39.0482 18.8132 38.9794C18.7048 38.8968 18.5695 38.8576 18.4337 38.8695H15.7315C15.6926 38.8682 15.6538 38.8745 15.6173 38.8882C15.5808 38.9018 15.5474 38.9225 15.5189 38.9491C15.4903 38.9738 15.4679 39.0049 15.4534 39.0397C15.4389 39.0746 15.4328 39.1124 15.4355 39.1501V54.7279C15.4321 54.7657 15.438 54.8036 15.4526 54.8386C15.4671 54.8736 15.4898 54.9046 15.5189 54.9289C15.5467 54.9567 15.5799 54.9784 15.6165 54.9928C15.653 55.0071 15.6922 55.0138 15.7315 55.0123H18.7335C18.7731 55.0157 18.8131 55.011 18.8509 54.9987C18.8887 54.9863 18.9236 54.9664 18.9536 54.9403C18.9818 54.913 19.0035 54.8797 19.0173 54.843C19.0311 54.8063 19.0365 54.767 19.0333 54.7279V44.4918L22.4793 50.5994C22.5444 50.7121 22.6292 50.8123 22.7298 50.8951C22.8273 50.9629 22.9453 50.995 23.0638 50.9861H24.3655C24.4841 50.9963 24.6025 50.9641 24.6995 50.8951C24.7923 50.821 24.8664 50.7262 24.9158 50.6183L28.3846 44.5032Z" fill="#3A393A"/>
<path d="M42.3241 55.3408C42.2532 55.3422 42.1829 55.3287 42.1175 55.3013C42.0522 55.2739 41.9933 55.2331 41.9446 55.1816C41.8942 55.1391 41.8536 55.0864 41.8254 55.0269C41.7972 54.9673 41.7823 54.9024 41.7814 54.8366C41.7798 54.7637 41.7888 54.6909 41.808 54.6205L47.6981 39.2208C47.7599 39.014 47.8908 38.8346 48.069 38.7125C48.2472 38.5904 48.4618 38.5329 48.6772 38.5497H52.3814C52.6202 38.536 52.856 38.6087 53.0455 38.7545C53.1926 38.8763 53.3008 39.0384 53.3567 39.2208L59.2127 54.6205C59.2467 54.6874 59.2637 54.7616 59.262 54.8366C59.2612 54.9024 59.2462 54.9673 59.2181 55.0269C59.1899 55.0864 59.1492 55.1391 59.0989 55.1816C59.0495 55.2322 58.9905 55.2724 58.9253 55.2997C58.8601 55.3271 58.79 55.341 58.7193 55.3408H55.6414C55.5404 55.3495 55.4386 55.3379 55.3421 55.3066C55.2456 55.2754 55.1564 55.2251 55.0797 55.1588C54.9766 55.0709 54.8949 54.9607 54.8406 54.8366L53.8653 52.3875H47.182L46.2294 54.8366C46.1802 54.9596 46.1036 55.0698 46.0055 55.1588C45.9225 55.2272 45.8268 55.2784 45.7238 55.3096C45.6209 55.3409 45.5128 55.3515 45.4058 55.3408H42.3241ZM48.2029 48.9375H52.8595L50.5066 42.6025L48.2029 48.9375Z" fill="#3A393A"/>
<path d="M58.7044 55.6565H55.6265C55.3353 55.6734 55.049 55.5754 54.8295 55.3835C54.6902 55.2617 54.5821 55.1083 54.5145 54.9362L53.6226 52.707H47.3947L46.5256 54.9475C46.4569 55.1088 46.3562 55.2545 46.2296 55.3759C46.1156 55.4762 45.9827 55.5527 45.8386 55.6009C45.6946 55.6491 45.5424 55.668 45.3909 55.6565H42.313C42.202 55.6562 42.0922 55.634 41.9899 55.591C41.8877 55.5481 41.7949 55.4853 41.7171 55.4063C41.6355 55.3356 41.5699 55.2482 41.5247 55.1502C41.4796 55.0521 41.4559 54.9455 41.4553 54.8376C41.4533 54.7389 41.4661 54.6405 41.4932 54.5457L47.3834 39.1156C47.4561 38.8821 47.596 38.6751 47.7856 38.5204C48.0357 38.3209 48.3503 38.2197 48.6699 38.2361H52.374C52.6924 38.2203 53.0056 38.3214 53.2545 38.5204C53.4513 38.6812 53.5943 38.8981 53.6644 39.1422L59.5165 54.5116C59.5867 54.661 59.6061 54.8292 59.5719 54.9907C59.5377 55.1522 59.4516 55.2981 59.3268 55.4063C59.1605 55.5685 58.9368 55.6584 58.7044 55.6565ZM46.9393 52.0738H54.0743L55.1331 54.7276C55.1694 54.8106 55.2254 54.8835 55.2963 54.94C55.393 55.0062 55.5096 55.037 55.6265 55.0272H58.7044C58.7332 55.029 58.762 55.0245 58.7889 55.0141C58.8158 55.0036 58.8401 54.9873 58.86 54.9665C58.9283 54.902 58.9283 54.8604 58.9283 54.8414C58.9349 54.8166 58.9349 54.7904 58.9283 54.7655L53.0571 39.3355C53.0215 39.2015 52.9445 39.0821 52.837 38.9943C52.7073 38.9044 52.5505 38.8616 52.393 38.873H48.6889C48.5311 38.859 48.3735 38.902 48.2448 38.9943C48.142 39.0745 48.0665 39.1844 48.0285 39.309L42.1308 54.7276C42.1308 54.7276 42.1308 54.7807 42.1308 54.8376C42.1318 54.8619 42.1381 54.8856 42.1492 54.9073C42.1604 54.9289 42.1761 54.9478 42.1953 54.9627C42.2122 54.9812 42.2327 54.9962 42.2555 55.0066C42.2784 55.017 42.3031 55.0227 42.3281 55.0234H45.4212C45.6831 55.0234 45.7628 54.9627 45.8007 54.9437C45.8671 54.8871 45.9191 54.8157 45.9526 54.7352L46.9393 52.0738ZM53.3152 49.2532H47.7325L50.4916 41.6709L53.3152 49.2532ZM48.6547 48.6201H52.3816L50.484 43.5551L48.6547 48.6201Z" fill="#3A393A"/>
<path d="M69.3769 55.3423C69.2946 55.3455 69.2125 55.332 69.1355 55.3027C69.0586 55.2734 68.9883 55.2288 68.929 55.1717C68.8706 55.1164 68.8248 55.0491 68.7947 54.9746C68.7646 54.9 68.7509 54.8199 68.7545 54.7395V39.1503C68.7514 39.0706 68.7654 38.9911 68.7955 38.9173C68.8256 38.8434 68.8711 38.7768 68.929 38.7219C68.9883 38.6647 69.0586 38.6202 69.1355 38.5909C69.2125 38.5615 69.2946 38.5481 69.3769 38.5512H76.1855C78.3386 38.5512 80.0363 39.0277 81.2786 39.9805C82.5209 40.9334 83.1433 42.2805 83.1458 44.0219C83.1783 45.0495 82.8745 46.0597 82.2805 46.8994C81.697 47.6866 80.9098 48.3 80.0034 48.6737L83.457 54.5727C83.5046 54.6532 83.5308 54.7446 83.5329 54.8381C83.5321 54.9039 83.5171 54.9688 83.4889 55.0284C83.4608 55.0879 83.4201 55.1406 83.3697 55.1831C83.3204 55.2337 83.2614 55.2739 83.1962 55.3012C83.131 55.3286 83.0609 55.3425 82.9902 55.3423H79.6846C79.5586 55.3532 79.4317 55.3384 79.3116 55.2986C79.1915 55.2589 79.0808 55.195 78.9863 55.1111C78.8575 54.9889 78.7475 54.8483 78.6599 54.694L75.8059 49.4167H73.229V54.7243C73.2326 54.8047 73.2189 54.8848 73.1887 54.9594C73.1586 55.034 73.1128 55.1012 73.0544 55.1565C72.9945 55.2138 72.9236 55.2584 72.846 55.2877C72.7684 55.317 72.6857 55.3304 72.6028 55.3271L69.3769 55.3423ZM73.2328 46.035H76.1361C76.7732 46.0848 77.405 45.888 77.9008 45.4853C78.1008 45.2886 78.2567 45.0517 78.3582 44.7902C78.4596 44.5288 78.5042 44.2488 78.4891 43.9688C78.5026 43.6913 78.4598 43.4139 78.3632 43.1533C78.2667 42.8927 78.1185 42.6543 77.9274 42.4524C77.5479 42.0732 76.9521 41.8761 76.1361 41.8761H73.2328V46.035Z" fill="#3A393A"/>
<path d="M82.9937 55.6547H79.6881C79.5176 55.6667 79.3464 55.6437 79.1851 55.5869C79.0239 55.5302 78.876 55.441 78.7507 55.3248C78.5987 55.1818 78.4706 55.0154 78.3712 54.832L75.6121 49.7291H73.5627V54.7258C73.5648 54.8481 73.5417 54.9694 73.4946 55.0823C73.4476 55.1951 73.3778 55.2971 73.2895 55.3817C73.105 55.5552 72.8596 55.6492 72.6063 55.6433H69.3766C69.1233 55.6492 68.8779 55.5552 68.6934 55.3817C68.606 55.2966 68.537 55.1945 68.4906 55.0817C68.4443 54.9689 68.4216 54.8478 68.424 54.7258V39.1366C68.4219 39.0149 68.4451 38.8941 68.4922 38.7819C68.5392 38.6697 68.609 38.5684 68.6972 38.4845C68.8803 38.3113 69.1245 38.2172 69.3766 38.2229H76.1852C78.4054 38.2229 80.1853 38.7271 81.4984 39.7394C82.8116 40.7516 83.4871 42.1923 83.4871 44.0272C83.5182 45.1197 83.1947 46.1929 82.5649 47.0866C82.0229 47.822 81.3106 48.4153 80.4889 48.8154L83.7717 54.4263C83.8446 54.5536 83.8849 54.6968 83.8894 54.8434C83.8873 54.9511 83.863 55.0572 83.818 55.1551C83.7729 55.2529 83.7081 55.3404 83.6275 55.4121C83.5435 55.4927 83.4441 55.5557 83.3352 55.5974C83.2263 55.6391 83.1102 55.6585 82.9937 55.6547ZM72.9023 49.0998H76.0106L78.9556 54.5477C79.0281 54.6762 79.1203 54.7926 79.2289 54.8926C79.3593 54.9937 79.5241 55.04 79.6881 55.0216H82.9937C83.0225 55.0234 83.0514 55.0189 83.0783 55.0085C83.1051 54.998 83.1294 54.9817 83.1493 54.9609C83.1688 54.9462 83.1846 54.9273 83.1958 54.9056C83.207 54.884 83.2131 54.8601 83.2138 54.8358C83.2103 54.7919 83.1974 54.7492 83.1759 54.7107L79.5515 48.5235L79.8817 48.3832C80.7293 48.0296 81.465 47.4531 82.0108 46.7151C82.5639 45.9272 82.8462 44.9814 82.8154 44.0196C82.8154 42.3629 82.246 41.1194 81.0733 40.2284C79.9006 39.3375 78.2536 38.8712 76.1852 38.8712H69.3766C69.3375 38.8681 69.2983 38.8729 69.2611 38.8853C69.2239 38.8977 69.1897 38.9174 69.1603 38.9432C69.1324 38.97 69.1108 39.0025 69.0971 39.0386C69.0833 39.0746 69.0776 39.1133 69.0806 39.1518V54.7258C69.0768 54.7644 69.082 54.8033 69.0958 54.8394C69.1097 54.8756 69.1318 54.9081 69.1603 54.9344C69.1888 54.9617 69.2229 54.9826 69.2602 54.9956C69.2975 55.0087 69.3372 55.0137 69.3766 55.0102H72.6063C72.6463 55.014 72.6866 55.0092 72.7246 54.9961C72.7625 54.983 72.7973 54.962 72.8264 54.9344C72.8536 54.9073 72.8745 54.8746 72.8876 54.8385C72.9007 54.8025 72.9058 54.764 72.9023 54.7258V49.0998ZM76.1358 46.3474H72.9023V41.5705H76.1358C77.0429 41.5705 77.726 41.798 78.1663 42.2453C78.3851 42.4745 78.5557 42.7454 78.6678 43.0417C78.7799 43.338 78.8314 43.6538 78.819 43.9703C78.834 44.2918 78.7805 44.6128 78.6621 44.9121C78.5437 45.2114 78.363 45.4822 78.1321 45.7066C77.5731 46.1672 76.8588 46.3965 76.1358 46.3474ZM73.5627 45.718H76.1358C76.682 45.7593 77.2238 45.5942 77.6539 45.2555C77.8229 45.0888 77.954 44.8878 78.0385 44.6661C78.1229 44.4443 78.1587 44.2071 78.1435 43.9703C78.1558 43.7334 78.1201 43.4965 78.0386 43.2737C77.9571 43.0509 77.8314 42.8468 77.6691 42.6737C77.4549 42.4968 77.2079 42.3638 76.9422 42.2825C76.6765 42.2012 76.3973 42.1731 76.1206 42.1998H73.5475L73.5627 45.718Z" fill="#3A393A"/>
<path d="M92.6307 55.3418C92.56 55.342 92.4899 55.328 92.4247 55.3007C92.3595 55.2733 92.3005 55.2331 92.2512 55.1825C92.1813 55.1246 92.1305 55.0469 92.1054 54.9597C92.0803 54.8724 92.0822 54.7797 92.1108 54.6935C92.13 54.6425 92.1555 54.5941 92.1867 54.5494L97.6441 46.7776L92.589 39.3431C92.5409 39.2545 92.5149 39.1557 92.513 39.055C92.5134 38.9901 92.527 38.9261 92.5532 38.8667C92.5793 38.8074 92.6173 38.754 92.6649 38.71C92.7128 38.6575 92.7715 38.6161 92.8371 38.5886C92.9026 38.5611 92.9733 38.5481 93.0444 38.5507H96.6574C96.8646 38.5367 97.0694 38.6017 97.2305 38.7327C97.3419 38.8222 97.4358 38.9314 97.5075 39.055L100.51 43.4224L103.546 39.055C103.634 38.9369 103.734 38.8289 103.845 38.7327C104.008 38.6022 104.214 38.5372 104.422 38.5507H107.838C107.981 38.5515 108.117 38.6088 108.218 38.71C108.267 38.7529 108.308 38.8057 108.336 38.8652C108.364 38.9246 108.379 38.9893 108.381 39.055C108.384 39.1604 108.347 39.2631 108.278 39.3431L103.219 46.7662L108.722 54.5608C108.755 54.6032 108.777 54.6525 108.787 54.7048C108.791 54.7528 108.791 54.801 108.787 54.8489C108.786 54.9134 108.773 54.9772 108.748 55.0364C108.722 55.0957 108.685 55.1492 108.639 55.1939C108.59 55.2458 108.532 55.2868 108.466 55.3143C108.401 55.3417 108.33 55.355 108.259 55.3532H104.529C104.317 55.3659 104.108 55.3012 103.94 55.1712C103.83 55.0859 103.733 54.985 103.652 54.8717L100.324 50.2654L97.0711 54.8717C96.9926 54.9835 96.8994 55.0843 96.794 55.1712C96.633 55.3022 96.4281 55.3672 96.2209 55.3532L92.6307 55.3418Z" fill="#3A393A"/>
<path d="M108.274 55.6562H104.543C104.252 55.6702 103.966 55.5772 103.739 55.3946C103.601 55.2881 103.482 55.16 103.386 55.0155L100.349 50.8035L97.3664 55.0307C97.2745 55.1615 97.1661 55.28 97.0438 55.3832C96.8191 55.5679 96.5337 55.6625 96.2431 55.6486H92.6376C92.4054 55.6497 92.182 55.5599 92.0152 55.3984C91.9024 55.2992 91.8217 55.1688 91.7832 55.0236C91.7447 54.8785 91.7501 54.7253 91.7989 54.5833C91.8275 54.5048 91.8672 54.4308 91.9165 54.3634L97.2298 46.7811L92.2961 39.5172C92.2148 39.3777 92.1704 39.2199 92.167 39.0585C92.1703 38.8475 92.2561 38.646 92.4061 38.4974C92.4854 38.4145 92.5809 38.3489 92.6867 38.3045C92.7924 38.2602 92.9062 38.2381 93.021 38.2396H96.6567C96.9474 38.2258 97.2328 38.3203 97.4575 38.505C97.5953 38.6221 97.7121 38.7619 97.8029 38.9182L100.513 42.8535L103.264 38.8841C103.366 38.7452 103.483 38.618 103.613 38.505C103.838 38.3203 104.123 38.2258 104.414 38.2396H107.83C108.061 38.2387 108.283 38.3286 108.448 38.4898C108.528 38.5617 108.593 38.6493 108.637 38.7472C108.681 38.845 108.705 38.9511 108.706 39.0585C108.71 39.2355 108.649 39.4078 108.536 39.5437L103.602 46.747L108.983 54.3672C109.041 54.4474 109.08 54.5393 109.097 54.6364C109.103 54.702 109.103 54.7679 109.097 54.8335C109.094 55.0446 109.008 55.246 108.858 55.3946C108.783 55.4745 108.692 55.5387 108.592 55.5836C108.492 55.6285 108.384 55.6532 108.274 55.6562ZM100.334 49.6965L103.94 54.6819C104.003 54.7753 104.081 54.8573 104.171 54.9245C104.282 55.0015 104.416 55.0365 104.551 55.0231H108.281C108.306 55.0244 108.331 55.0203 108.354 55.0111C108.377 55.0019 108.397 54.9879 108.414 54.97C108.434 54.9536 108.449 54.9333 108.461 54.9105C108.472 54.8876 108.478 54.8627 108.479 54.8373C108.482 54.8058 108.482 54.774 108.479 54.7425L102.82 46.7659L108.023 39.1836C108.038 39.1686 108.05 39.1508 108.057 39.1313C108.065 39.1118 108.069 39.0909 108.069 39.0699C108.068 39.0455 108.062 39.0217 108.051 39C108.04 38.9784 108.024 38.9595 108.004 38.9448C107.984 38.9245 107.96 38.9086 107.933 38.8982C107.906 38.8878 107.877 38.883 107.849 38.8841H104.433C104.309 38.8715 104.185 38.9053 104.084 38.9789C103.989 39.056 103.905 39.1452 103.833 39.2443L100.528 44.006L97.2525 39.2443C97.1928 39.1421 97.1158 39.051 97.0248 38.9751C96.9228 38.9047 96.7992 38.8725 96.6757 38.8841H93.0437C93.019 38.8828 92.9944 38.8869 92.9715 38.8961C92.9485 38.9052 92.9279 38.9193 92.9109 38.9372C92.8923 38.9541 92.8774 38.9745 92.8669 38.9973C92.8565 39.0201 92.8508 39.0448 92.8501 39.0699C92.8506 39.1215 92.8636 39.1722 92.8881 39.2177L98.0458 46.8L92.4668 54.7615C92.4534 54.7818 92.442 54.8034 92.4327 54.8259V54.8752C92.4337 54.8995 92.4399 54.9233 92.4511 54.9449C92.4622 54.9665 92.478 54.9854 92.4972 55.0003C92.5171 55.0212 92.5414 55.0374 92.5683 55.0479C92.5952 55.0584 92.624 55.0629 92.6528 55.061H96.2582C96.3823 55.0736 96.5067 55.0398 96.6074 54.9662C96.6888 54.8998 96.7615 54.8234 96.8237 54.7388L100.334 49.6965Z" fill="#3A393A"/>
<path d="M15.2809 54.8943C15.1181 54.8973 14.9605 54.8376 14.8407 54.7276C14.7794 54.6739 14.7309 54.6073 14.6987 54.5325C14.6665 54.4577 14.6515 54.3767 14.6547 54.2954V38.7061C14.6523 38.6249 14.6677 38.5441 14.6998 38.4694C14.7319 38.3948 14.78 38.328 14.8407 38.2739C14.9614 38.1652 15.1184 38.1057 15.2809 38.1071H17.9831C18.2069 38.0924 18.4276 38.1659 18.5979 38.3118C18.7033 38.4031 18.792 38.5122 18.8598 38.6341L23.266 46.2164L27.6684 38.6341C27.7463 38.5194 27.8339 38.4116 27.9303 38.3118C28.0128 38.2368 28.1101 38.1798 28.216 38.1446C28.3219 38.1093 28.434 38.0966 28.5451 38.1071H31.2245C31.3942 38.1029 31.5595 38.1624 31.6875 38.2739C31.7482 38.328 31.7962 38.3948 31.8283 38.4694C31.8605 38.5441 31.8759 38.6249 31.8735 38.7061V54.2954C31.8767 54.3767 31.8616 54.4577 31.8295 54.5325C31.7973 54.6073 31.7488 54.6739 31.6875 54.7276C31.5605 54.8407 31.3945 54.9004 31.2245 54.8943H28.2452C28.0751 54.9008 27.9091 54.841 27.7822 54.7276C27.7205 54.6741 27.6714 54.6076 27.6386 54.5328C27.6058 54.4581 27.59 54.3769 27.5925 54.2954V45.3027L24.765 50.3146C24.6955 50.4623 24.5929 50.592 24.4653 50.6938C24.3084 50.815 24.1129 50.8756 23.9149 50.8644H22.6132C22.4151 50.8763 22.2194 50.8156 22.0629 50.6938C21.9326 50.5876 21.8221 50.4592 21.7365 50.3146L18.9091 45.3027V54.2954C18.9127 54.3757 18.899 54.4558 18.8688 54.5304C18.8387 54.605 18.7929 54.6722 18.7345 54.7276C18.6741 54.7839 18.6031 54.8277 18.5255 54.8563C18.448 54.885 18.3655 54.8979 18.2829 54.8943H15.2809Z" fill="#F8F8F8"/>
<path d="M31.2245 55.2083H28.2453C27.9928 55.215 27.7472 55.1256 27.5584 54.958C27.4643 54.8753 27.3894 54.7731 27.3389 54.6586C27.2885 54.544 27.2636 54.4197 27.2662 54.2946V46.5455L25.0535 50.4655C24.965 50.6493 24.8351 50.8102 24.674 50.9356C24.4591 51.1065 24.1895 51.1941 23.915 51.182H22.6133C22.3388 51.1941 22.0692 51.1065 21.8542 50.9356C21.6945 50.8038 21.5595 50.6446 21.4557 50.4655L19.2469 46.5455V54.2946C19.2491 54.4168 19.2259 54.5381 19.1789 54.651C19.1319 54.7639 19.062 54.8658 18.9737 54.9504C18.7889 55.1229 18.5434 55.2156 18.2905 55.2083H15.2885C15.0438 55.2097 14.8072 55.1205 14.6244 54.958C14.5307 54.875 14.4561 54.7727 14.4057 54.6582C14.3552 54.5437 14.3301 54.4197 14.3321 54.2946V38.7053C14.3304 38.5808 14.3556 38.4575 14.4061 38.3436C14.4565 38.2298 14.531 38.1281 14.6244 38.0457C14.8059 37.8805 15.043 37.7898 15.2885 37.7916H17.9907C18.3008 37.7752 18.6048 37.8814 18.837 38.0874C18.9739 38.2083 19.0871 38.3536 19.171 38.5158L23.2736 45.5635L27.3914 38.4817C27.4786 38.3457 27.579 38.2187 27.6912 38.1025C27.8054 37.994 27.941 37.9103 28.0893 37.8568C28.2376 37.8032 28.3954 37.781 28.5527 37.7916H31.2321C31.4848 37.7878 31.7298 37.8784 31.9191 38.0457C32.0124 38.1281 32.0869 38.2298 32.1373 38.3436C32.1878 38.4575 32.213 38.5808 32.2112 38.7053V54.2946C32.213 54.4196 32.1879 54.5436 32.1374 54.6581C32.087 54.7726 32.0125 54.8748 31.9191 54.958C31.7265 55.1244 31.479 55.2136 31.2245 55.2083ZM27.9227 44.0546V54.2908C27.9194 54.3285 27.9252 54.3665 27.9398 54.4015C27.9543 54.4365 27.9771 54.4674 28.0062 54.4917C28.0718 54.5498 28.1577 54.5797 28.2453 54.5751H31.2245C31.3109 54.5796 31.3955 54.5496 31.4598 54.4917C31.4889 54.4674 31.5117 54.4365 31.5262 54.4015C31.5408 54.3665 31.5467 54.3285 31.5433 54.2908V38.7015C31.546 38.6639 31.5399 38.6261 31.5254 38.5912C31.5109 38.5563 31.4884 38.5253 31.4598 38.5006C31.3955 38.4427 31.3109 38.4127 31.2245 38.4172H28.5451C28.4108 38.4027 28.2759 38.4378 28.1656 38.5158C28.0839 38.6021 28.009 38.6946 27.9417 38.7925L23.2546 46.8563L18.5714 38.8039C18.5204 38.7045 18.4493 38.6167 18.3626 38.5461C18.2543 38.4634 18.1189 38.4242 17.9831 38.4362H15.2809C15.2418 38.4353 15.2028 38.4423 15.1663 38.4566C15.1298 38.4709 15.0966 38.4923 15.0684 38.5196C15.0398 38.5442 15.0174 38.5753 15.0029 38.6102C14.9884 38.6451 14.9823 38.6828 14.985 38.7205V54.3098C14.9824 54.3471 14.9882 54.3845 15.002 54.4192C15.0157 54.454 15.0372 54.4853 15.0646 54.5107C15.1233 54.5653 15.2008 54.5952 15.2809 54.5941H18.2829C18.3229 54.5979 18.3633 54.5931 18.4013 54.58C18.4392 54.5669 18.4739 54.5459 18.503 54.5182C18.5298 54.4909 18.5504 54.4581 18.5635 54.4222C18.5766 54.3862 18.5819 54.3479 18.579 54.3098V44.0736L22.025 50.1812C22.0925 50.2944 22.1785 50.3957 22.2793 50.4807C22.3778 50.5461 22.4953 50.5768 22.6133 50.5679H23.915C24.0329 50.5768 24.1504 50.5461 24.249 50.4807C24.3402 50.4051 24.414 50.3106 24.4653 50.2039L27.9227 44.0546Z" fill="#3A393A"/>
<path d="M41.8578 54.8926C41.7903 54.8925 41.7235 54.8787 41.6615 54.8519C41.5995 54.8252 41.5437 54.7862 41.4973 54.7372C41.4468 54.694 41.4061 54.6405 41.3779 54.5804C41.3498 54.5202 41.3348 54.4548 41.3341 54.3884C41.3331 54.3169 41.3407 54.2457 41.3569 54.1761L47.2394 38.7764C47.2954 38.593 47.4051 38.4305 47.5544 38.31C47.7421 38.1635 47.977 38.0908 48.2147 38.1054H51.9188C52.1578 38.0909 52.3938 38.1636 52.583 38.31C52.7323 38.4305 52.842 38.593 52.898 38.7764L58.754 54.1761C58.7885 54.2414 58.8055 54.3145 58.8033 54.3884C58.8025 54.4548 58.7876 54.5202 58.7594 54.5804C58.7313 54.6405 58.6906 54.694 58.6401 54.7372C58.5902 54.7867 58.531 54.826 58.4659 54.8526C58.4007 54.8793 58.331 54.8929 58.2606 54.8926H55.1827C54.9781 54.9093 54.7752 54.8453 54.6172 54.7144C54.5136 54.6263 54.4328 54.5144 54.3819 54.3884L53.4066 51.9431H46.7233L45.7707 54.3884C45.7203 54.5118 45.6439 54.623 45.5467 54.7144C45.4634 54.782 45.3676 54.8326 45.2647 54.8632C45.1618 54.8938 45.0539 54.9037 44.9471 54.8926H41.8578ZM47.7403 48.4893H52.397L50.044 42.1581L47.7403 48.4893Z" fill="#F8F8F8"/>
<path d="M58.253 55.2073H55.175C54.8847 55.2225 54.5996 55.1262 54.3781 54.9381C54.2398 54.8145 54.1309 54.6617 54.0593 54.4907L53.1712 52.2578H46.9395L46.0666 54.4983C46.0019 54.662 45.9022 54.8095 45.7744 54.9305C45.6601 55.0302 45.527 55.1059 45.383 55.1535C45.2389 55.201 45.0868 55.2193 44.9356 55.2073H41.854C41.6306 55.2065 41.4166 55.118 41.2581 54.9608C41.1783 54.888 41.1143 54.7997 41.0699 54.7012C41.0255 54.6028 41.0017 54.4963 41 54.3884C40.9993 54.29 41.0107 54.192 41.0342 54.0965L46.9281 38.6702C46.9994 38.436 47.1396 38.2286 47.3304 38.075C47.5793 37.876 47.8925 37.7749 48.2109 37.7907H51.915C52.2345 37.775 52.5488 37.8761 52.7992 38.075C52.994 38.236 53.1367 38.451 53.2092 38.693L59.0575 54.0661C59.1066 54.1664 59.1313 54.2768 59.1296 54.3884C59.1279 54.4967 59.1037 54.6035 59.0587 54.702C59.0136 54.8005 58.9486 54.8886 58.8678 54.9608C58.7035 55.1209 58.4824 55.2094 58.253 55.2073ZM46.4879 51.6284H53.6228L54.6817 54.2822C54.718 54.3652 54.774 54.4381 54.8449 54.4945C54.9416 54.5608 55.0582 54.5916 55.175 54.5817H58.253C58.282 54.5826 58.3109 54.5773 58.3377 54.5662C58.3645 54.5551 58.3887 54.5384 58.4085 54.5173C58.4382 54.4942 58.4592 54.4619 58.4682 54.4254C58.4771 54.3889 58.4735 54.3505 58.4579 54.3164L52.5867 38.8901C52.5506 38.7554 52.4721 38.6358 52.3628 38.5489C52.2347 38.4552 52.077 38.4108 51.9188 38.4238H48.2147C48.0577 38.4114 47.9014 38.4558 47.7744 38.5489C47.6716 38.6291 47.5961 38.739 47.5581 38.8636L41.668 54.286C41.668 54.286 41.668 54.3391 41.668 54.3922C41.6687 54.4165 41.6749 54.4404 41.6861 54.4621C41.6972 54.4837 41.7131 54.5026 41.7325 54.5173C41.7482 54.5366 41.7678 54.5523 41.7901 54.5635C41.8123 54.5746 41.8367 54.5808 41.8616 54.5817H44.9432C45.2051 54.5817 45.2848 54.5211 45.3 54.5021C45.3658 54.4442 45.4188 54.3732 45.4556 54.2936L46.4879 51.6284ZM52.8638 48.804H47.2773L50.0402 41.2217L52.8638 48.804ZM48.2033 48.1747H51.9302L50.0326 43.1059L48.2033 48.1747Z" fill="#3A393A"/>
<path d="M68.9137 54.8931C68.8316 54.897 68.7496 54.8843 68.6726 54.8556C68.5957 54.8269 68.5253 54.783 68.4658 54.7263C68.4069 54.6712 68.3606 54.6041 68.3298 54.5296C68.299 54.455 68.2846 54.3747 68.2875 54.2941V38.7049C68.2853 38.6244 68.3001 38.5444 68.3308 38.4699C68.3616 38.3955 68.4075 38.3283 68.4658 38.2727C68.5258 38.2168 68.5962 38.1733 68.6731 38.1446C68.75 38.116 68.8317 38.1029 68.9137 38.1059H75.7222C77.8753 38.1059 79.5731 38.5811 80.8154 39.5314C82.0577 40.4817 82.6788 41.8288 82.6788 43.5727C82.7113 44.601 82.409 45.612 81.8173 46.454C81.2327 47.2402 80.4458 47.8533 79.5402 48.2283L82.9938 54.1273C83.0395 54.2073 83.0655 54.2969 83.0697 54.3889C83.0682 54.4552 83.0529 54.5204 83.0248 54.5805C82.9967 54.6405 82.9565 54.6941 82.9065 54.7377C82.8566 54.7873 82.7974 54.8265 82.7322 54.8532C82.6671 54.8799 82.5974 54.8934 82.527 54.8931H79.2214C79.0957 54.9039 78.9691 54.8893 78.8491 54.8503C78.7292 54.8112 78.6183 54.7484 78.5231 54.6657C78.394 54.5437 78.284 54.4032 78.1967 54.2486L75.3427 48.9713H72.7658V54.279C72.7684 54.3592 72.7543 54.4391 72.7242 54.5135C72.6941 54.5879 72.6488 54.6552 72.5912 54.7112C72.5308 54.7675 72.4597 54.8113 72.3822 54.84C72.3047 54.8686 72.2222 54.8815 72.1396 54.878L68.9137 54.8931ZM72.7696 45.5896H75.6729C76.3103 45.6368 76.9416 45.4388 77.4376 45.0361C77.6378 44.8395 77.7938 44.6027 77.8953 44.3412C77.9967 44.0797 78.0412 43.7996 78.0259 43.5196C78.0384 43.2419 77.9948 42.9645 77.8976 42.7039C77.8005 42.4434 77.6518 42.2051 77.4604 42.0032C77.0835 41.619 76.4876 41.427 75.6729 41.427H72.7696V45.5896Z" fill="#F8F8F8"/>
<path d="M82.5311 55.2079H79.2254C79.0552 55.2196 78.8845 55.1967 78.7234 55.1406C78.5623 55.0846 78.4142 54.9966 78.288 54.8819C78.1383 54.7368 78.0105 54.5707 77.9085 54.389L75.1494 49.2861H73.1001V54.2942C73.1029 54.4162 73.0805 54.5374 73.0341 54.6503C72.9877 54.7632 72.9184 54.8653 72.8306 54.9501C72.6457 55.1225 72.4003 55.2152 72.1475 55.2079H68.9178C68.6649 55.2152 68.4194 55.1225 68.2346 54.9501C68.1468 54.8653 68.0775 54.7632 68.0311 54.6503C67.9848 54.5374 67.9623 54.4162 67.9652 54.2942V38.705C67.9619 38.5835 67.9842 38.4627 68.0306 38.3504C68.077 38.238 68.1465 38.1367 68.2346 38.0529C68.4191 37.8794 68.6645 37.7854 68.9178 37.7913H75.7263C77.9427 37.7913 79.7264 38.2955 81.0395 39.3077C82.3527 40.32 83.0282 41.7606 83.0282 43.5918C83.0598 44.6844 82.7363 45.7577 82.106 46.6512C81.5642 47.3877 80.8519 47.9822 80.03 48.3838L83.3129 53.9909C83.3857 54.1182 83.4261 54.2614 83.4305 54.408C83.4288 54.5163 83.4046 54.623 83.3596 54.7215C83.3145 54.8201 83.2495 54.9082 83.1686 54.9804C83.083 55.059 82.9824 55.1196 82.8729 55.1587C82.7634 55.1978 82.6472 55.2145 82.5311 55.2079ZM72.4396 48.6606H75.5479L78.493 54.1047C78.565 54.2336 78.6558 54.3512 78.7624 54.4535C78.8946 54.554 79.0603 54.6002 79.2254 54.5823H82.5311C82.56 54.5828 82.5888 54.5773 82.6155 54.5662C82.6423 54.5551 82.6665 54.5386 82.6866 54.5179C82.7063 54.5034 82.7223 54.4845 82.7335 54.4629C82.7447 54.4412 82.7507 54.4172 82.7512 54.3928C82.7474 54.3501 82.7344 54.3087 82.7132 54.2715L79.0888 48.0843L79.419 47.944C80.266 47.5894 81.0015 47.0131 81.5481 46.2759C82.1017 45.4868 82.3841 44.5396 82.3527 43.5766C82.3527 41.9199 81.7834 40.6801 80.6107 39.7854C79.438 38.8907 77.7871 38.4282 75.7225 38.4282H68.914C68.8746 38.4252 68.8351 38.4303 68.7978 38.4434C68.7606 38.4564 68.7264 38.4771 68.6976 38.504C68.6695 38.5306 68.6478 38.5631 68.634 38.5992C68.6202 38.6353 68.6147 38.674 68.6179 38.7125V54.3018C68.6147 54.3403 68.6202 54.379 68.634 54.4151C68.6478 54.4512 68.6695 54.4838 68.6976 54.5103C68.7262 54.5377 68.7603 54.5585 68.7976 54.5716C68.8349 54.5847 68.8746 54.5897 68.914 54.5861H72.1437C72.1836 54.5897 72.2239 54.5848 72.2618 54.5717C72.2998 54.5587 72.3345 54.5378 72.3638 54.5103C72.3905 54.483 72.4111 54.4502 72.4242 54.4142C72.4373 54.3783 72.4426 54.3399 72.4396 54.3018V48.6606ZM75.6732 45.9082H72.4396V41.1275H75.6732C76.5802 41.1275 77.2634 41.355 77.7036 41.8024C77.9209 42.0333 78.0901 42.305 78.2014 42.6018C78.3128 42.8985 78.3642 43.2144 78.3526 43.5311C78.3668 43.8483 78.3144 44.1651 78.1987 44.4608C78.083 44.7566 77.9066 45.0249 77.6808 45.2485C77.1219 45.7187 76.4022 45.9538 75.6732 45.9044V45.9082ZM73.0963 45.2788H75.6732C76.2193 45.3201 76.7611 45.155 77.1912 44.8163C77.3596 44.6492 77.4904 44.4481 77.5748 44.2264C77.6592 44.0048 77.6953 43.7678 77.6808 43.5311C77.6931 43.2942 77.6574 43.0573 77.5759 42.8345C77.4944 42.6117 77.3687 42.4077 77.2064 42.2346C76.7735 41.8779 76.2166 41.7074 75.658 41.7607H73.0811L73.0963 45.2788Z" fill="#3A393A"/>
<path d="M92.1658 54.8927C92.0953 54.8936 92.0253 54.8803 91.9601 54.8536C91.8949 54.8269 91.8358 54.7874 91.7863 54.7373C91.7358 54.6941 91.6951 54.6406 91.6669 54.5805C91.6388 54.5203 91.6238 54.4549 91.623 54.3885C91.6232 54.3408 91.6309 54.2935 91.6458 54.2482C91.6643 54.1969 91.6898 54.1484 91.7217 54.1041L97.1792 46.3322L92.1012 38.8978C92.0547 38.8088 92.03 38.7101 92.0292 38.6097C92.0304 38.4784 92.0836 38.353 92.1771 38.2609C92.2263 38.2102 92.2854 38.1703 92.3507 38.1436C92.416 38.1168 92.4861 38.1038 92.5566 38.1054H96.1849C96.3933 38.0912 96.5993 38.1562 96.7617 38.2874C96.8721 38.378 96.9658 38.487 97.0388 38.6097L100.041 42.9733L103.077 38.6097C103.164 38.4907 103.264 38.3826 103.377 38.2874C103.539 38.1562 103.745 38.0912 103.954 38.1054H107.369C107.511 38.1069 107.647 38.1625 107.749 38.2609C107.798 38.305 107.837 38.3588 107.865 38.4188C107.892 38.4788 107.907 38.5437 107.908 38.6097C107.912 38.7145 107.877 38.8171 107.81 38.8978L102.728 46.3095L108.235 54.1041C108.266 54.1471 108.288 54.1962 108.299 54.2482C108.303 54.2949 108.303 54.3418 108.299 54.3885C108.299 54.4539 108.285 54.5185 108.259 54.5785C108.233 54.6385 108.195 54.6925 108.147 54.7373C108.099 54.7893 108.04 54.8301 107.975 54.8569C107.909 54.8838 107.839 54.896 107.768 54.8927H104.041C103.83 54.9065 103.621 54.8432 103.453 54.7145C103.342 54.6293 103.245 54.5284 103.164 54.415L99.8358 49.8088L96.5834 54.415C96.5027 54.525 96.4097 54.6255 96.3063 54.7145C96.1433 54.8444 95.9374 54.908 95.7295 54.8927H92.1658Z" fill="#F8F8F8"/>
<path d="M107.806 55.208H104.079C103.787 55.2213 103.501 55.1298 103.271 54.9502C103.135 54.8426 103.017 54.7147 102.921 54.5711L99.8853 50.3629L96.8985 54.5863C96.8087 54.7188 96.7 54.8376 96.5759 54.9389C96.3528 55.1265 96.0662 55.2215 95.7751 55.2042H92.1734C91.9415 55.2076 91.7177 55.1189 91.5511 54.9578C91.4713 54.885 91.4072 54.7966 91.3628 54.6982C91.3185 54.5997 91.2947 54.4933 91.293 54.3853C91.2939 54.3027 91.308 54.2208 91.3347 54.1427C91.3635 54.065 91.4018 53.9912 91.4486 53.9228L96.7846 46.3405L91.8508 39.0804C91.7696 38.9409 91.7252 38.783 91.7218 38.6217C91.7226 38.517 91.7441 38.4135 91.7852 38.3172C91.8262 38.2209 91.8859 38.1337 91.9609 38.0606C92.0395 37.9768 92.1348 37.9105 92.2407 37.8661C92.3467 37.8217 92.4609 37.8001 92.5757 37.8028H96.204C96.4951 37.7855 96.7817 37.8805 97.0047 38.0682C97.1436 38.1843 97.2605 38.3242 97.3501 38.4814L100.06 42.4166L102.815 38.4473C102.915 38.3067 103.032 38.1794 103.164 38.0682C103.387 37.8805 103.674 37.7855 103.965 37.8028H107.381C107.612 37.8015 107.835 37.8898 108.003 38.0492C108.083 38.122 108.147 38.2104 108.191 38.3088C108.236 38.4073 108.26 38.5137 108.261 38.6217C108.265 38.7987 108.204 38.971 108.09 39.107L103.157 46.3102L108.542 53.9304C108.6 54.0105 108.638 54.1025 108.656 54.1995C108.668 54.2633 108.674 54.328 108.675 54.3929C108.673 54.6053 108.587 54.8082 108.436 54.9578C108.354 55.0408 108.256 55.1059 108.147 55.149C108.039 55.1921 107.922 55.2122 107.806 55.208ZM99.8701 49.2521L103.472 54.2337C103.538 54.3263 103.617 54.4093 103.707 54.4801C103.818 54.5553 103.952 54.5901 104.087 54.5787H107.813C107.839 54.5805 107.864 54.5767 107.888 54.5675C107.911 54.5583 107.933 54.544 107.95 54.5256C107.969 54.5081 107.984 54.487 107.994 54.4636C108.005 54.4401 108.01 54.4148 108.011 54.3891C108.013 54.3588 108.013 54.3284 108.011 54.2981L102.348 46.3102L107.552 38.7278C107.581 38.6971 107.597 38.6564 107.597 38.6141C107.597 38.6141 107.597 38.5534 107.529 38.489C107.509 38.4677 107.485 38.4508 107.458 38.4397C107.431 38.4286 107.402 38.4234 107.373 38.4245H103.957C103.832 38.4147 103.708 38.4482 103.605 38.5193C103.512 38.5997 103.428 38.6899 103.354 38.7885L100.052 43.5502L96.7694 38.8036C96.7114 38.7013 96.6355 38.6102 96.5455 38.5345C96.4422 38.4634 96.3176 38.4299 96.1926 38.4397H92.5643C92.5393 38.4381 92.5142 38.4423 92.4911 38.4522C92.468 38.4621 92.4476 38.4773 92.4315 38.4965C92.4117 38.5126 92.3957 38.5329 92.3845 38.5558C92.3734 38.5787 92.3674 38.6038 92.367 38.6293C92.3693 38.6811 92.3837 38.7317 92.4088 38.7771L97.5626 46.3595L91.9875 54.3209C91.9724 54.3402 91.9609 54.362 91.9533 54.3853V54.4308C91.9542 54.4555 91.9608 54.4797 91.9727 54.5014C91.9845 54.5231 92.0013 54.5418 92.0217 54.5559C92.0414 54.5773 92.0655 54.5941 92.0924 54.6052C92.1192 54.6163 92.1482 54.6215 92.1772 54.6204H95.7789C95.9041 54.6321 96.0294 54.5985 96.1318 54.5256C96.2139 54.4584 96.2866 54.3806 96.3481 54.2943L99.8701 49.2521Z" fill="#3A393A"/>
<path d="M16.5776 32.2672C16.4152 32.2686 16.258 32.2091 16.1374 32.1004C16.0767 32.0463 16.0287 31.9795 15.9965 31.9049C15.9644 31.8302 15.949 31.7495 15.9514 31.6682V16.079C15.949 15.9978 15.9644 15.917 15.9965 15.8423C16.0287 15.7677 16.0767 15.7009 16.1374 15.6468C16.2572 15.5368 16.4149 15.477 16.5776 15.48H19.2798C19.5019 15.4652 19.721 15.5373 19.8908 15.6809C19.9989 15.7722 20.089 15.8827 20.1565 16.0069L24.5589 23.5893L28.9651 16.0069C29.0428 15.8909 29.1304 15.7818 29.227 15.6809C29.3103 15.6073 29.4079 15.5515 29.5136 15.517C29.6193 15.4824 29.731 15.4698 29.8418 15.48H32.4984C32.6687 15.4727 32.835 15.5326 32.9615 15.6468C33.0226 15.7007 33.0712 15.7673 33.104 15.842C33.1368 15.9166 33.1529 15.9975 33.1512 16.079V31.6682C33.1529 31.7497 33.1368 31.8306 33.104 31.9052C33.0712 31.9799 33.0226 32.0465 32.9615 32.1004C32.834 32.2129 32.6684 32.2725 32.4984 32.2672H29.523C29.3531 32.2722 29.1876 32.2125 29.06 32.1004C28.9988 32.0465 28.9502 31.9799 28.9174 31.9052C28.8846 31.8306 28.8685 31.7497 28.8702 31.6682V22.6756L26.0428 27.6875C25.9712 27.8339 25.869 27.9632 25.743 28.0666C25.5848 28.185 25.39 28.244 25.1927 28.2334H23.891C23.6935 28.2447 23.4985 28.1856 23.3406 28.0666C23.2102 27.9606 23.0996 27.8323 23.0142 27.6875L20.1869 22.6756V31.6682C20.1888 31.7484 20.1743 31.828 20.1443 31.9024C20.1143 31.9767 20.0694 32.0441 20.0123 32.1004C19.8894 32.2128 19.7272 32.2727 19.5606 32.2672H16.5776Z" fill="#3A393A"/>
<path d="M32.5173 32.5839H29.5419C29.2887 32.5912 29.0424 32.5002 28.855 32.3299C28.761 32.248 28.6861 32.1464 28.6356 32.0324C28.5851 31.9185 28.5603 31.7949 28.5627 31.6703V23.9211L26.3502 27.8373C26.2601 28.0202 26.1304 28.1808 25.9707 28.3075C25.7547 28.4766 25.4858 28.5639 25.2116 28.5539H23.9098C23.6354 28.5659 23.3658 28.4784 23.1508 28.3075C22.9971 28.1763 22.8685 28.0183 22.7713 27.8411L20.5587 23.9211V31.6703C20.562 31.7917 20.5397 31.9125 20.4933 32.0248C20.4469 32.1372 20.3774 32.2385 20.2893 32.3223C20.1048 32.4958 19.8594 32.5898 19.6061 32.5839H16.5776C16.3321 32.5857 16.0949 32.4951 15.9134 32.3299C15.82 32.2475 15.7456 32.1458 15.6951 32.032C15.6447 31.9181 15.6195 31.7947 15.6212 31.6703V16.081C15.6194 15.9559 15.6446 15.832 15.695 15.7175C15.7454 15.603 15.8199 15.5007 15.9134 15.4175C16.0963 15.255 16.3328 15.1659 16.5776 15.1673H19.2797C19.5879 15.1512 19.8902 15.256 20.1223 15.4592C20.2603 15.58 20.3749 15.7253 20.46 15.8876L24.5589 22.9392L28.6766 15.8535C28.7673 15.7191 28.8689 15.5923 28.9803 15.4744C29.0935 15.3644 29.2289 15.2798 29.3775 15.2262C29.526 15.1726 29.6843 15.1512 29.8417 15.1635H32.4983C32.7519 15.1573 32.9985 15.2466 33.1891 15.4138C33.2826 15.4969 33.3571 15.5992 33.4075 15.7137C33.4579 15.8282 33.4831 15.9522 33.4813 16.0772V31.6665C33.4831 31.7909 33.4578 31.9143 33.4074 32.0282C33.357 32.142 33.2825 32.2437 33.1891 32.3261C33.0051 32.4925 32.7656 32.5844 32.5173 32.5839ZM29.2193 21.4303V31.6665C29.2167 31.7041 29.2228 31.7419 29.2373 31.7768C29.2518 31.8117 29.2742 31.8427 29.3028 31.8674C29.3685 31.9254 29.4544 31.9554 29.5419 31.9508H32.5173C32.5607 31.9535 32.6042 31.9475 32.6453 31.9332C32.6864 31.9188 32.7242 31.8965 32.7564 31.8674C32.7851 31.8427 32.8075 31.8117 32.822 31.7768C32.8365 31.7419 32.8426 31.7041 32.8399 31.6665V16.0772C32.8432 16.0395 32.8374 16.0015 32.8229 15.9665C32.8083 15.9315 32.7855 15.9006 32.7564 15.8763C32.7242 15.8471 32.6864 15.8248 32.6453 15.8105C32.6042 15.7961 32.5607 15.7902 32.5173 15.7929H29.8607C29.7268 15.7766 29.5917 15.8104 29.4812 15.8876C29.3986 15.9742 29.3225 16.0667 29.2535 16.1644L24.5475 24.2357L19.8566 16.1606C19.8039 16.0634 19.733 15.9772 19.6479 15.9066C19.5399 15.8232 19.4042 15.784 19.2683 15.7967H16.5776C16.4974 15.7956 16.4199 15.8255 16.3613 15.8801C16.3329 15.9049 16.3106 15.936 16.2961 15.9708C16.2816 16.0056 16.2753 16.0434 16.2777 16.081V31.6703C16.2759 31.7078 16.2824 31.7453 16.2969 31.7801C16.3113 31.8148 16.3333 31.8459 16.3613 31.8711C16.4199 31.9258 16.4974 31.9557 16.5776 31.9546H19.5796C19.6189 31.9576 19.6585 31.9524 19.6957 31.9394C19.733 31.9263 19.7671 31.9057 19.7959 31.8787C19.824 31.8522 19.8457 31.8196 19.8595 31.7835C19.8733 31.7475 19.8788 31.7088 19.8756 31.6703V21.4341L23.3216 27.5417C23.3881 27.6546 23.4742 27.7547 23.5759 27.8373C23.6731 27.9058 23.7913 27.938 23.9098 27.9284H25.2116C25.3301 27.9374 25.4481 27.9052 25.5456 27.8373C25.6365 27.7629 25.7102 27.6698 25.7619 27.5644L29.2193 21.4303Z" fill="#3A393A"/>
<path d="M43.1443 32.2677C43.0738 32.2693 43.0036 32.2563 42.9383 32.2295C42.873 32.2028 42.814 32.1628 42.7648 32.1122C42.7145 32.0689 42.674 32.0154 42.6459 31.9553C42.6177 31.8952 42.6026 31.8298 42.6016 31.7635C42.6009 31.6908 42.6085 31.6182 42.6244 31.5473L48.5069 16.1514C48.5618 15.9665 48.6716 15.8025 48.8219 15.6813C49.0106 15.5371 49.2451 15.4658 49.4823 15.4804H53.1864C53.4246 15.4665 53.66 15.5378 53.8505 15.6813C53.9998 15.8027 54.1084 15.9667 54.1618 16.1514L60.0215 31.5473C60.0538 31.6148 60.0707 31.6887 60.0709 31.7635C60.0689 31.8296 60.0534 31.8947 60.0254 31.9547C59.9973 32.0147 59.9573 32.0683 59.9077 32.1122C59.806 32.2109 59.67 32.2666 59.5282 32.2677H56.4503C56.2452 32.2833 56.0421 32.218 55.8848 32.0857C55.7814 31.9989 55.7006 31.8883 55.6495 31.7635L54.6703 29.3181H47.9908L47.0382 31.7635C46.9862 31.8849 46.91 31.9946 46.8143 32.0857C46.7307 32.1543 46.6343 32.2057 46.5308 32.2369C46.4272 32.2682 46.3185 32.2786 46.2108 32.2677H43.1443ZM49.0269 25.8644H53.6836L51.3305 19.5332L49.0269 25.8644Z" fill="#3A393A"/>
<path d="M59.5439 32.5821H56.466C56.1747 32.5999 55.8882 32.5018 55.6691 32.3092C55.5288 32.1874 55.4196 32.034 55.3503 31.8618L54.4622 29.6326H48.2343L47.3614 31.8732C47.2966 32.0356 47.1968 32.1819 47.0692 32.3016C46.9547 32.4024 46.8212 32.4791 46.6765 32.5273C46.5317 32.5755 46.3787 32.5941 46.2267 32.5821H43.145C42.922 32.5798 42.7086 32.4915 42.5491 32.3357C42.4694 32.2629 42.4053 32.1746 42.3609 32.0761C42.3165 31.9777 42.2928 31.8712 42.2911 31.7633C42.2903 31.6649 42.3017 31.5669 42.3252 31.4713L48.2191 16.0413C48.2923 15.808 48.4322 15.6011 48.6214 15.4461C48.8717 15.25 49.1842 15.1504 49.5019 15.1656H53.206C53.5248 15.1505 53.8385 15.2501 54.0903 15.4461C54.286 15.6078 54.4288 15.8244 54.5002 16.0679L60.3485 31.441C60.3966 31.5415 60.42 31.652 60.4168 31.7633C60.4158 31.8713 60.3923 31.978 60.3479 32.0765C60.3035 32.1751 60.2391 32.2633 60.1588 32.3357C59.9935 32.4943 59.7731 32.5827 59.5439 32.5821ZM47.7789 29.0033H54.91L55.9689 31.6571C56.0038 31.7566 56.0718 31.841 56.1617 31.8963C56.2515 31.9515 56.3576 31.9741 56.4622 31.9604H59.5401C59.5691 31.9608 59.5979 31.9553 59.6246 31.9442C59.6514 31.9331 59.6756 31.9167 59.6958 31.896C59.715 31.8811 59.7307 31.8621 59.7418 31.8405C59.753 31.8189 59.7593 31.7951 59.7603 31.7708C59.7667 31.746 59.7667 31.7199 59.7603 31.695L53.8892 16.265C53.8532 16.1199 53.7655 15.9929 53.6425 15.9077C53.5196 15.8226 53.3698 15.7852 53.2212 15.8025H49.5171C49.3595 15.791 49.2028 15.8338 49.073 15.9238C48.9717 16.0062 48.8977 16.1171 48.8605 16.2422L42.9704 31.6647C42.9684 31.7001 42.9684 31.7355 42.9704 31.7708C42.9716 31.7955 42.9783 31.8196 42.9901 31.8413C43.002 31.8629 43.0186 31.8816 43.0387 31.896C43.0544 31.9153 43.074 31.931 43.0962 31.9421C43.1185 31.9532 43.1429 31.9594 43.1678 31.9604H46.2456C46.5075 31.9604 46.5872 31.8997 46.6252 31.8808C46.6887 31.8207 46.7413 31.7502 46.7807 31.6722L47.7789 29.0033ZM54.1548 26.1789H48.5721L51.335 18.5965L54.1548 26.1789ZM49.4981 25.5496H53.225L51.3274 20.4808L49.4981 25.5496Z" fill="#3A393A"/>
<path d="M70.2045 32.2683C70.0379 32.2738 69.8758 32.2139 69.7529 32.1015C69.6958 32.0451 69.6509 31.9778 69.6209 31.9035C69.5909 31.8291 69.5764 31.7495 69.5783 31.6693V16.0801C69.5764 16 69.5909 15.9203 69.6209 15.846C69.6509 15.7716 69.6958 15.7042 69.7529 15.6479C69.8133 15.5915 69.8844 15.5477 69.9619 15.5191C70.0394 15.4904 70.1219 15.4775 70.2045 15.481H77.013C79.1662 15.481 80.8639 15.9562 82.1062 16.9065C83.3485 17.8568 83.9696 19.204 83.9696 20.9479C84.0021 21.975 83.6998 22.9848 83.1081 23.8254C82.5258 24.6137 81.7382 25.2274 80.831 25.5997L84.2846 31.5025C84.3304 31.5824 84.3564 31.6721 84.3605 31.7641C84.3586 31.8303 84.3431 31.8953 84.315 31.9553C84.287 32.0153 84.2469 32.0689 84.1973 32.1129C84.0956 32.2116 83.9597 32.2673 83.8178 32.2683H80.5122C80.3859 32.2785 80.2589 32.2637 80.1384 32.2247C80.0179 32.1856 79.9063 32.1232 79.8101 32.0409C79.6822 31.9174 79.5734 31.7756 79.4875 31.62L76.6335 26.3427H74.0566V31.6504C74.0585 31.7305 74.0441 31.8102 74.0141 31.8845C73.984 31.9588 73.9391 32.0262 73.882 32.0826C73.7591 32.195 73.597 32.2548 73.4304 32.2493L70.2045 32.2683ZM74.0604 22.961H76.9637C77.6006 23.0092 78.2319 22.8126 78.7285 22.4113C78.9285 22.2146 79.0843 21.9777 79.1857 21.7162C79.2871 21.4548 79.3318 21.1748 79.3167 20.8948C79.3295 20.6171 79.286 20.3396 79.1888 20.079C79.0916 19.8184 78.9428 19.5801 78.7512 19.3784C78.3768 18.9967 77.7809 18.8046 76.9637 18.8021H74.0604V22.961Z" fill="#3A393A"/>
<path d="M83.8219 32.581H80.5162C80.346 32.5927 80.1753 32.5698 80.0142 32.5138C79.8531 32.4578 79.705 32.3697 79.5788 32.255C79.4281 32.1094 79.3001 31.942 79.1993 31.7584L76.4402 26.6592H74.3908V31.6674C74.3936 31.7888 74.3711 31.9095 74.3247 32.0217C74.2783 32.134 74.2091 32.2354 74.1213 32.3195C73.9369 32.4929 73.6915 32.5869 73.4382 32.581H70.2085C69.9553 32.5869 69.7098 32.4929 69.5254 32.3195C69.4368 32.2359 69.3667 32.1346 69.3196 32.0223C69.2726 31.91 69.2496 31.7891 69.2521 31.6674V16.0781C69.25 15.9559 69.2731 15.8345 69.3202 15.7217C69.3672 15.6088 69.4371 15.5069 69.5254 15.4222C69.7102 15.2498 69.9557 15.1572 70.2085 15.1645H77.0171C79.2335 15.1645 81.0172 15.6649 82.3303 16.6582C83.6435 17.6514 84.319 19.1111 84.319 20.946C84.3476 22.0451 84.0158 23.1235 83.374 24.0168C82.8322 24.7533 82.1199 25.3477 81.2981 25.7494L84.5809 31.3565C84.6554 31.4831 84.6959 31.6267 84.6985 31.7735C84.6975 31.8816 84.6741 31.9883 84.6296 32.0868C84.5852 32.1854 84.5208 32.2736 84.4405 32.346C84.2721 32.5007 84.0506 32.5848 83.8219 32.581ZM73.7304 26.0261H76.8387L79.7838 31.474C79.8568 31.6024 79.9475 31.7197 80.0532 31.8228C80.1862 31.9217 80.3512 31.9677 80.5162 31.9517H83.8219C83.8508 31.9522 83.8796 31.9466 83.9063 31.9355C83.9331 31.9245 83.9573 31.908 83.9774 31.8873C83.9967 31.8724 84.0124 31.8534 84.0236 31.8318C84.0347 31.8102 84.041 31.7865 84.042 31.7622C84.0388 31.7188 84.0245 31.677 84.0002 31.6408L80.3796 25.4499L80.706 25.3096C81.5562 24.9588 82.2939 24.3818 82.8389 23.6415C83.391 22.8531 83.6732 21.9076 83.6434 20.946C83.6434 19.2892 83.0742 18.0495 81.9015 17.1548C80.7288 16.2601 79.0779 15.7976 77.0133 15.7976H70.2047C70.1653 15.7933 70.1254 15.7979 70.0879 15.811C70.0505 15.8241 70.0165 15.8454 69.9884 15.8734C69.9603 15.9 69.9386 15.9325 69.9248 15.9686C69.911 16.0047 69.9055 16.0434 69.9087 16.0819V31.6711C69.9055 31.7096 69.911 31.7484 69.9248 31.7845C69.9386 31.8206 69.9603 31.8531 69.9884 31.8797C70.0169 31.907 70.051 31.9279 70.0883 31.941C70.1256 31.9541 70.1654 31.959 70.2047 31.9555H73.4344C73.4738 31.9585 73.5133 31.9534 73.5505 31.9403C73.5878 31.9273 73.6219 31.9066 73.6507 31.8797C73.6788 31.8531 73.7006 31.8206 73.7144 31.7845C73.7282 31.7484 73.7336 31.7096 73.7304 31.6711V26.0261ZM76.9639 23.2776H73.7304V18.4969H76.9639C77.871 18.4969 78.5541 18.7243 78.9906 19.1717C79.2089 19.4013 79.3791 19.6722 79.4912 19.9684C79.6033 20.2646 79.6551 20.5802 79.6434 20.8967C79.6583 21.2182 79.6049 21.5392 79.4864 21.8385C79.368 22.1378 79.1874 22.4086 78.9564 22.633C78.4003 23.0965 77.6864 23.3274 76.9639 23.2776ZM74.387 22.6444H76.9639C77.5094 22.6849 78.0505 22.5214 78.482 22.1857C78.6509 22.0181 78.7819 21.8164 78.8663 21.5941C78.9508 21.3718 78.9867 21.134 78.9716 20.8967C78.9841 20.6604 78.9484 20.424 78.8669 20.2018C78.7854 19.9796 78.6596 19.7762 78.4972 19.6039C78.2836 19.4259 78.0367 19.2921 77.7709 19.2101C77.5051 19.1281 77.2256 19.0995 76.9487 19.1262H74.3718L74.387 22.6444Z" fill="#3A393A"/>
<path d="M98.835 32.2692C98.6737 32.2704 98.5179 32.2108 98.3986 32.1024C98.3374 32.0484 98.2888 31.9819 98.256 31.9072C98.2233 31.8326 98.2071 31.7517 98.2088 31.6702V26.5142L92.406 16.2478C92.406 16.1985 92.3719 16.1568 92.3529 16.1151C92.3374 16.0726 92.3297 16.0276 92.3301 15.9824C92.3312 15.9166 92.3463 15.8518 92.3744 15.7923C92.4026 15.7328 92.4431 15.68 92.4933 15.6374C92.5428 15.5873 92.602 15.5477 92.6672 15.521C92.7324 15.4943 92.8023 15.481 92.8728 15.4819H96.0001C96.2111 15.4698 96.4195 15.533 96.5883 15.6601C96.7016 15.7435 96.7917 15.8545 96.8502 15.9824L100.456 22.1733L104.061 15.9824C104.136 15.8579 104.234 15.7485 104.349 15.6601C104.517 15.5335 104.724 15.4704 104.934 15.4819H108.065C108.136 15.4794 108.206 15.4919 108.271 15.5187C108.337 15.5455 108.396 15.586 108.444 15.6374C108.491 15.6823 108.528 15.7359 108.553 15.7952C108.578 15.8544 108.592 15.918 108.592 15.9824C108.597 16.0265 108.597 16.0709 108.592 16.1151C108.582 16.16 108.57 16.2043 108.554 16.2478L102.729 26.5142V31.6702C102.731 31.7507 102.716 31.8307 102.686 31.9052C102.655 31.9796 102.609 32.0468 102.551 32.1024C102.491 32.1583 102.42 32.2018 102.343 32.2305C102.266 32.2591 102.185 32.2723 102.103 32.2692H98.835Z" fill="#3A393A"/>
<path d="M102.091 32.5818H98.8351C98.5908 32.5835 98.3549 32.4928 98.1748 32.3278C98.0814 32.2454 98.0069 32.1438 97.9565 32.0299C97.906 31.916 97.8808 31.7927 97.8825 31.6682V26.5918L92.0911 16.3557C92.0911 16.3102 92.0607 16.2723 92.0455 16.2343C92.0156 16.1556 92.0002 16.0721 92 15.9879C92.0022 15.8806 92.0262 15.7749 92.0706 15.6771C92.115 15.5794 92.1788 15.4916 92.2581 15.4192C92.4248 15.2581 92.6486 15.1695 92.8805 15.1728H96.0077C96.2434 15.1634 96.4767 15.223 96.679 15.3442C96.8812 15.4654 97.0437 15.643 97.1463 15.8552L100.452 21.542L103.769 15.8552C103.862 15.6993 103.983 15.5618 104.126 15.4496C104.354 15.2705 104.64 15.1791 104.93 15.1918H108.061C108.176 15.1897 108.29 15.2112 108.397 15.2548C108.503 15.2985 108.6 15.3635 108.68 15.4458C108.828 15.5957 108.912 15.7966 108.915 16.0069C108.922 16.0712 108.922 16.1359 108.915 16.2002C108.915 16.2533 108.9 16.3102 108.87 16.3708L108.843 16.4239L103.052 26.6183V31.6947C103.054 31.8161 103.032 31.9368 102.986 32.0491C102.939 32.1613 102.87 32.2627 102.782 32.3468C102.592 32.5125 102.344 32.5969 102.091 32.5818ZM92.7059 16.1206L98.5391 26.4326V31.6682C98.5372 31.7058 98.5438 31.7433 98.5582 31.778C98.5727 31.8128 98.5947 31.8439 98.6226 31.8691C98.6797 31.9238 98.756 31.9538 98.8351 31.9525H102.091C102.131 31.9556 102.17 31.9504 102.208 31.9373C102.245 31.9242 102.279 31.9036 102.308 31.8767C102.336 31.8501 102.358 31.8176 102.371 31.7815C102.385 31.7454 102.391 31.7067 102.387 31.6682V26.4288L102.425 26.3606L108.243 16.1244C108.245 16.1017 108.245 16.0789 108.243 16.0562C108.245 16.0322 108.245 16.0081 108.243 15.9842C108.243 15.9587 108.237 15.9335 108.226 15.9106C108.215 15.8877 108.199 15.8675 108.179 15.8514C108.162 15.8335 108.141 15.8195 108.118 15.8103C108.095 15.8012 108.071 15.7971 108.046 15.7983H104.915C104.78 15.7857 104.646 15.822 104.535 15.9007C104.451 15.9624 104.379 16.0396 104.323 16.1282L100.452 22.8158L96.5353 16.0827C96.5353 16.0827 96.5125 16.0182 96.3683 15.8969C96.2581 15.8186 96.1234 15.7823 95.9887 15.7946H92.8615C92.8328 15.7937 92.8042 15.7986 92.7775 15.809C92.7507 15.8194 92.7264 15.8351 92.7059 15.8552C92.687 15.8705 92.6716 15.8894 92.6605 15.911C92.6493 15.9325 92.6429 15.9562 92.6414 15.9804C92.6756 16.0334 92.6907 16.0751 92.7059 16.1206Z" fill="#3A393A"/>
<path d="M16.105 31.8239C15.9429 31.8256 15.7864 31.7645 15.6685 31.6533C15.6071 31.6005 15.5582 31.5346 15.5253 31.4605C15.4925 31.3864 15.4766 31.3059 15.4788 31.2249V15.6357C15.4763 15.5541 15.492 15.473 15.5249 15.3982C15.5577 15.3235 15.6068 15.2569 15.6685 15.2035C15.7864 15.0923 15.9429 15.0312 16.105 15.0329H18.811C19.0337 15.0175 19.2535 15.0912 19.422 15.2376C19.5287 15.3292 19.6175 15.4397 19.6839 15.5636L24.0901 23.1459L28.4963 15.5636C28.573 15.4469 28.6606 15.3377 28.7581 15.2376C28.8407 15.1625 28.938 15.1056 29.0439 15.0703C29.1497 15.0351 29.2618 15.0223 29.3729 15.0329H32.0296C32.2002 15.0279 32.3661 15.089 32.4926 15.2035C32.5544 15.2569 32.6034 15.3235 32.6363 15.3982C32.6691 15.473 32.6848 15.5541 32.6824 15.6357V31.2211C32.6845 31.3021 32.6686 31.3826 32.6358 31.4567C32.603 31.5308 32.5541 31.5967 32.4926 31.6495C32.3661 31.764 32.2002 31.8252 32.0296 31.8201H29.0503C28.8798 31.8248 28.714 31.7637 28.5873 31.6495C28.5264 31.5965 28.478 31.5305 28.4458 31.4564C28.4136 31.3822 28.3985 31.3019 28.4014 31.2211V22.2247L25.5739 27.2366C25.5017 27.3826 25.3996 27.5118 25.2742 27.6157C25.1157 27.7335 24.9211 27.7925 24.7238 27.7826H23.4221C23.2236 27.7931 23.0276 27.7341 22.868 27.6157C22.7399 27.5084 22.6308 27.3802 22.5454 27.2366L19.718 22.2247V31.2211C19.7203 31.3011 19.7056 31.3806 19.6749 31.4545C19.6441 31.5283 19.598 31.5948 19.5396 31.6495C19.4804 31.7067 19.4101 31.7512 19.3332 31.7806C19.2562 31.8099 19.1741 31.8233 19.0918 31.8201L16.105 31.8239Z" fill="#F8F8F8"/>
<path d="M32.0476 32.1377H29.0683C28.8157 32.1416 28.5707 32.051 28.3814 31.8837C28.288 31.8013 28.2135 31.6996 28.1631 31.5858C28.1127 31.4719 28.0874 31.3485 28.0892 31.224V23.4749L25.8804 27.3912C25.7892 27.5734 25.6598 27.7337 25.5009 27.8613C25.2846 28.0298 25.0159 28.1171 24.7418 28.1077H23.4401C23.166 28.1168 22.8974 28.0295 22.681 27.8613C22.529 27.7284 22.4007 27.5708 22.3015 27.395L20.0889 23.4749V31.2202C20.0908 31.3415 20.0679 31.4619 20.0216 31.574C19.9752 31.6862 19.9065 31.7877 19.8195 31.8723C19.635 32.0458 19.3896 32.1398 19.1363 32.1339H16.1305C15.8862 32.1356 15.6503 32.0448 15.4702 31.8799C15.3762 31.798 15.3013 31.6964 15.2509 31.5825C15.2004 31.4685 15.1755 31.3448 15.178 31.2202V15.631C15.1749 15.5058 15.1995 15.3814 15.25 15.2667C15.3005 15.1521 15.3757 15.0499 15.4702 14.9675C15.6503 14.8026 15.8862 14.7119 16.1305 14.7135H18.8365C19.1452 14.6989 19.4474 14.805 19.6791 15.0092C19.818 15.1292 19.9327 15.2746 20.0168 15.4376L24.1156 22.4892L28.2334 15.4035C28.3218 15.2675 28.4236 15.1405 28.537 15.0244C28.6512 14.9158 28.7868 14.8321 28.9351 14.7786C29.0834 14.7251 29.2412 14.7029 29.3985 14.7135H32.0552C32.3081 14.7082 32.5536 14.799 32.7421 14.9675C32.8365 15.0499 32.9117 15.1521 32.9623 15.2667C33.0128 15.3814 33.0373 15.5058 33.0343 15.631V31.2202C33.0368 31.3448 33.0119 31.4685 32.9614 31.5825C32.9109 31.6964 32.8361 31.798 32.7421 31.8799C32.5522 32.0517 32.3036 32.144 32.0476 32.1377ZM28.7495 20.9841V31.2202C28.7468 31.2579 28.753 31.2957 28.7675 31.3306C28.782 31.3655 28.8044 31.3965 28.833 31.4212C28.8651 31.4493 28.9023 31.4708 28.9427 31.4845C28.9831 31.4982 29.0258 31.5037 29.0683 31.5008H32.0476C32.1346 31.5065 32.2204 31.4779 32.2867 31.4212C32.3146 31.396 32.3366 31.3649 32.351 31.3301C32.3654 31.2954 32.372 31.2578 32.3701 31.2202V15.631C32.3726 15.5928 32.3663 15.5545 32.3518 15.5191C32.3374 15.4836 32.3151 15.4519 32.2867 15.4263C32.2204 15.3695 32.1346 15.341 32.0476 15.3467H29.3909C29.257 15.33 29.1217 15.3638 29.0114 15.4414C28.9278 15.5271 28.8516 15.6197 28.7837 15.7182L24.0967 23.782L19.4058 15.7106C19.3525 15.6138 19.2818 15.5277 19.1971 15.4566C19.0892 15.3729 18.9535 15.3336 18.8176 15.3467H16.1116C16.0727 15.3453 16.0339 15.3516 15.9974 15.3653C15.9609 15.379 15.9275 15.3997 15.899 15.4263C15.8706 15.4519 15.8483 15.4836 15.8339 15.5191C15.8194 15.5545 15.8131 15.5928 15.8156 15.631V31.2202C15.8137 31.2578 15.8202 31.2954 15.8347 31.3301C15.8491 31.3649 15.8711 31.396 15.899 31.4212C15.9275 31.4478 15.9609 31.4685 15.9974 31.4821C16.0339 31.4958 16.0727 31.5021 16.1116 31.5008H19.1173C19.1564 31.5039 19.1957 31.4991 19.2328 31.4867C19.27 31.4743 19.3043 31.4547 19.3337 31.4288C19.3616 31.402 19.3832 31.3694 19.3969 31.3334C19.4107 31.2973 19.4163 31.2587 19.4134 31.2202V20.9841L22.8594 27.0917C22.9254 27.2038 23.0101 27.3039 23.1099 27.3874C23.2086 27.4558 23.3279 27.4879 23.4477 27.4784H24.7494C24.8679 27.4874 24.9859 27.4552 25.0834 27.3874C25.1744 27.3115 25.2481 27.2172 25.2997 27.1106L28.7495 20.9841Z" fill="#3A393A"/>
<path d="M42.6853 31.8241C42.6149 31.8248 42.545 31.8114 42.4798 31.7847C42.4146 31.7581 42.3555 31.7186 42.3058 31.6687C42.2562 31.6247 42.2161 31.5711 42.1881 31.5111C42.16 31.4512 42.1445 31.3861 42.1426 31.3199C42.143 31.2471 42.1519 31.1745 42.1692 31.1038L48.0517 15.7079C48.1051 15.5232 48.2137 15.3591 48.3629 15.2378C48.5521 15.0913 48.7881 15.0186 49.027 15.0331H52.7311C52.9701 15.0186 53.2061 15.0913 53.3953 15.2378C53.5433 15.3603 53.6516 15.5239 53.7065 15.7079L59.5625 31.1038C59.5978 31.1703 59.6161 31.2446 59.6156 31.3199C59.6137 31.3861 59.5982 31.4512 59.5701 31.5111C59.5421 31.5711 59.502 31.6247 59.4524 31.6687C59.3505 31.7671 59.2146 31.8227 59.0729 31.8241H55.995C55.8939 31.8328 55.7922 31.8212 55.6957 31.7899C55.5992 31.7587 55.51 31.7084 55.4333 31.6421C55.3302 31.5542 55.2485 31.444 55.1942 31.3199L54.2189 28.8708H47.5355L46.5867 31.3199C46.5346 31.4422 46.457 31.5521 46.359 31.6421C46.2762 31.7108 46.1805 31.7623 46.0776 31.7935C45.9746 31.8248 45.8664 31.8352 45.7594 31.8241H42.6853ZM48.5678 25.4208H53.2207L50.8677 19.0896L48.5678 25.4208Z" fill="#F8F8F8"/>
<path d="M59.0832 32.1388H56.0054C55.8617 32.1477 55.7176 32.1282 55.5815 32.0814C55.4454 32.0345 55.3199 31.9613 55.2122 31.8658C55.0719 31.744 54.9626 31.5907 54.8933 31.4185L54.0053 29.1893H47.7736L46.9045 31.4299C46.8373 31.5911 46.7379 31.7369 46.6123 31.8583C46.4978 31.959 46.3642 32.0358 46.2195 32.084C46.0748 32.1322 45.9218 32.1508 45.7698 32.1388H42.6919C42.4679 32.1374 42.2537 32.0475 42.096 31.8886C42.015 31.8175 41.9501 31.7301 41.9056 31.632C41.8611 31.534 41.8381 31.4276 41.838 31.3199C41.8369 31.2216 41.8484 31.1235 41.8721 31.028L47.7622 15.598C47.8368 15.3653 47.9763 15.1588 48.1645 15.0027C48.4157 14.8053 48.7295 14.7045 49.0488 14.7184H52.7529C53.0713 14.7026 53.3845 14.8038 53.6334 15.0027C53.8301 15.1642 53.9742 15.3807 54.047 15.6245L59.8954 30.9939C59.943 31.0959 59.9663 31.2074 59.9637 31.3199C59.9624 31.4274 59.9388 31.5334 59.8943 31.6313C59.8499 31.7292 59.7857 31.8168 59.7057 31.8886C59.5394 32.0508 59.3156 32.1407 59.0832 32.1388ZM47.3182 28.5561H54.4569L55.512 31.21C55.5499 31.292 55.6056 31.3645 55.6752 31.4223C55.7721 31.4879 55.8886 31.5187 56.0054 31.5095H59.0832C59.112 31.5113 59.1409 31.5069 59.1678 31.4964C59.1947 31.4859 59.2189 31.4697 59.2389 31.4488C59.259 31.4345 59.2756 31.4158 59.2874 31.3941C59.2992 31.3724 59.306 31.3484 59.3071 31.3237C59.3122 31.2987 59.3122 31.2729 59.3071 31.2479L53.436 15.8178C53.4001 15.6728 53.3124 15.5458 53.1894 15.4606C53.0665 15.3755 52.9167 15.338 52.7681 15.3553H49.0639C48.92 15.3379 48.7745 15.3722 48.6535 15.4521C48.5326 15.5319 48.444 15.6522 48.4036 15.7913L42.4907 31.2213C42.4907 31.2213 42.4907 31.2782 42.4907 31.3313C42.4919 31.356 42.4986 31.38 42.5104 31.4017C42.5223 31.4234 42.5389 31.4421 42.559 31.4564C42.575 31.475 42.5948 31.49 42.617 31.5005C42.6393 31.5109 42.6635 31.5166 42.6881 31.5171H45.766C46.0278 31.5171 46.1075 31.4564 46.1265 31.4374C46.1928 31.3808 46.2448 31.3094 46.2783 31.2289L47.3182 28.5561ZM53.6941 25.7355H48.1114L50.8743 18.1532L53.6941 25.7355ZM49.0374 25.1062H52.7605L50.8629 20.0374L49.0374 25.1062Z" fill="#3A393A"/>
<path d="M69.742 31.8247C69.6591 31.828 69.5764 31.8145 69.4988 31.7852C69.4213 31.7559 69.3503 31.7114 69.2904 31.6541C69.2325 31.5992 69.1869 31.5326 69.1568 31.4587C69.1267 31.3849 69.1127 31.3054 69.1158 31.2257V15.6365C69.1122 15.5561 69.1259 15.476 69.156 15.4014C69.1861 15.3268 69.232 15.2596 69.2904 15.2043C69.3503 15.147 69.4213 15.1024 69.4988 15.0731C69.5764 15.0438 69.6591 15.0304 69.742 15.0337H76.5429C78.6961 15.0337 80.3938 15.5101 81.6361 16.4629C82.8784 17.4158 83.4995 18.7629 83.4995 20.5043C83.532 21.5319 83.2282 22.5421 82.6342 23.3818C82.0525 24.1706 81.2647 24.7845 80.3571 25.1561L83.8145 31.0551C83.859 31.1368 83.8836 31.2276 83.8866 31.3205C83.8856 31.3868 83.8705 31.4522 83.8424 31.5123C83.8143 31.5724 83.7738 31.626 83.7235 31.6693C83.6224 31.7691 83.486 31.8249 83.3439 31.8247H80.0421C79.9158 31.8354 79.7887 31.8207 79.6681 31.7817C79.5475 31.7426 79.436 31.6799 79.34 31.5972C79.213 31.472 79.1033 31.3305 79.0136 31.1764L76.1634 25.9143H73.5827V31.2219C73.5857 31.3016 73.5717 31.3811 73.5416 31.4549C73.5115 31.5288 73.466 31.5954 73.4081 31.6503C73.3481 31.7076 73.2772 31.7522 73.1996 31.7815C73.1221 31.8108 73.0394 31.8242 72.9565 31.8209L69.742 31.8247ZM73.5941 22.5174H76.4974C77.1345 22.5672 77.7663 22.3704 78.2622 21.9677C78.463 21.7716 78.6194 21.5347 78.7208 21.2731C78.8223 21.0116 78.8665 20.7313 78.8504 20.4512C78.8639 20.1737 78.8211 19.8963 78.7245 19.6357C78.628 19.3751 78.4798 19.1367 78.2887 18.9348C77.9092 18.5556 77.3172 18.3585 76.4974 18.3585H73.5941V22.5174Z" fill="#F8F8F8"/>
<path d="M83.3726 32.1394H80.0708C79.9 32.1511 79.7286 32.1283 79.5669 32.0723C79.4052 32.0163 79.2564 31.9282 79.1295 31.8134C78.9793 31.6673 78.8515 31.4999 78.75 31.3167L75.991 26.2138H73.9416V31.2219C73.9432 31.3432 73.9202 31.4635 73.8739 31.5756C73.8276 31.6877 73.7589 31.7892 73.6721 31.874C73.486 32.0473 73.2395 32.1412 72.9852 32.1356H69.7593C69.5058 32.1423 69.2601 32.0482 69.0761 31.874C68.9879 31.7901 68.9181 31.6888 68.871 31.5766C68.824 31.4643 68.8008 31.3436 68.8029 31.2219V15.6327C68.8007 15.5104 68.8239 15.3891 68.8709 15.2762C68.9179 15.1634 68.9878 15.0614 69.0761 14.9768C69.2601 14.8026 69.5058 14.7085 69.7593 14.7152H76.5413C78.7576 14.7152 80.5414 15.2194 81.8545 16.2316C83.1676 17.2439 83.8432 18.6845 83.8432 20.5195C83.8748 21.6126 83.5498 22.6864 82.9172 23.5789C82.3746 24.3147 81.6625 24.909 80.8412 25.3115L84.124 30.9186C84.1968 31.0459 84.2373 31.1891 84.2417 31.3357C84.2395 31.443 84.2155 31.5487 84.1711 31.6464C84.1267 31.7442 84.0629 31.8319 83.9836 31.9043C83.8177 32.0582 83.5989 32.1424 83.3726 32.1394ZM73.285 25.5845H76.3894L79.3345 31.0323C79.4095 31.1592 79.5014 31.2753 79.6077 31.3774C79.7393 31.479 79.9055 31.5253 80.0708 31.5062H83.3726C83.4014 31.5081 83.4302 31.5036 83.4571 31.4931C83.484 31.4827 83.5083 31.4664 83.5282 31.4456C83.5483 31.4312 83.5649 31.4125 83.5767 31.3909C83.5886 31.3692 83.5953 31.3451 83.5965 31.3205C83.5919 31.2774 83.5776 31.2359 83.5547 31.1991L79.9304 25.0082L80.2606 24.8679C81.1092 24.5144 81.8462 23.938 82.3934 23.1998C82.9437 22.4107 83.2245 21.4654 83.1942 20.5043C83.1942 18.8476 82.6249 17.604 81.456 16.7131C80.2871 15.8222 78.6324 15.3559 76.5678 15.3559H69.7593C69.7196 15.3525 69.6797 15.3571 69.6419 15.3695C69.604 15.3819 69.5691 15.4017 69.5392 15.4279C69.5125 15.4561 69.492 15.4896 69.4789 15.5261C69.4658 15.5627 69.4605 15.6015 69.4632 15.6402V31.2219C69.4608 31.26 69.4663 31.2982 69.4794 31.3341C69.4924 31.37 69.5128 31.4028 69.5392 31.4304C69.5691 31.4566 69.604 31.4765 69.6419 31.4888C69.6797 31.5012 69.7196 31.5058 69.7593 31.5024H72.9852C73.0248 31.5058 73.0647 31.5012 73.1026 31.4888C73.1404 31.4765 73.1753 31.4566 73.2053 31.4304C73.2331 31.4037 73.2547 31.3711 73.2685 31.3351C73.2823 31.299 73.2879 31.2604 73.285 31.2219V25.5845ZM76.5147 22.8321H73.285V18.0552H76.5147C77.4256 18.0552 78.1087 18.2827 78.5451 18.7301C78.7636 18.9595 78.934 19.2303 79.0461 19.5266C79.1582 19.8229 79.2098 20.1385 79.1979 20.455C79.2129 20.7765 79.1594 21.0975 79.041 21.3968C78.9226 21.6961 78.7419 21.967 78.5109 22.1914C77.9471 22.6566 77.225 22.8861 76.4957 22.8321H76.5147ZM73.9416 22.2027H76.5147C77.0608 22.2436 77.6025 22.0786 78.0328 21.7402C78.2011 21.5731 78.3319 21.372 78.4163 21.1503C78.5007 20.9287 78.5369 20.6917 78.5223 20.455C78.5346 20.2181 78.499 19.9812 78.4175 19.7584C78.336 19.5356 78.2103 19.3316 78.0479 19.1585C77.6135 18.8019 77.0555 18.6316 76.4957 18.6846H73.9226L73.9416 22.2027Z" fill="#3A393A"/>
<path d="M98.3722 31.8237C98.21 31.8254 98.0536 31.7643 97.9357 31.6531C97.8742 31.6003 97.8253 31.5344 97.7925 31.4603C97.7597 31.3862 97.7438 31.3057 97.7459 31.2247V26.0649L91.9393 15.8022C91.9393 15.753 91.9051 15.7113 91.8899 15.6696C91.8745 15.627 91.8668 15.5821 91.8672 15.5369C91.868 15.4714 91.8827 15.4069 91.9101 15.3474C91.9376 15.288 91.9773 15.235 92.0266 15.1919C92.1273 15.0911 92.2636 15.0339 92.4061 15.0327H95.5334C95.709 15.0236 95.8835 15.0666 96.0348 15.1563C96.186 15.2461 96.3074 15.3785 96.3835 15.5369L99.9889 21.724L103.591 15.5369C103.668 15.4141 103.765 15.3052 103.879 15.2146C104.047 15.0852 104.256 15.0206 104.467 15.0327H107.598C107.669 15.0309 107.74 15.0441 107.805 15.0716C107.871 15.099 107.929 15.14 107.978 15.1919C108.024 15.2366 108.061 15.2901 108.087 15.3494C108.112 15.4086 108.125 15.4724 108.126 15.5369C108.13 15.581 108.13 15.6254 108.126 15.6696C108.116 15.7145 108.103 15.7588 108.088 15.8022L102.255 26.0649V31.2209C102.258 31.3006 102.244 31.3801 102.214 31.4539C102.183 31.5278 102.138 31.5944 102.08 31.6493C102.021 31.7063 101.95 31.7507 101.873 31.78C101.797 31.8093 101.714 31.8229 101.632 31.8199L98.3722 31.8237Z" fill="#F8F8F8"/>
<path d="M101.629 32.1398H98.3723C98.128 32.1415 97.8921 32.0507 97.712 31.8858C97.618 31.8038 97.5431 31.7023 97.4926 31.5884C97.4421 31.4744 97.4172 31.3507 97.4197 31.2261V26.146L91.6283 15.9098C91.6283 15.8681 91.5979 15.8265 91.5827 15.7923C91.5513 15.714 91.5358 15.6302 91.5372 15.5459C91.5394 15.4386 91.5634 15.3328 91.6078 15.2351C91.6522 15.1373 91.7159 15.0496 91.7952 14.9772C91.9613 14.8147 92.1852 14.7247 92.4177 14.727H95.5449C95.7805 14.7208 96.0129 14.7821 96.2147 14.9037C96.4165 15.0253 96.5791 15.2021 96.6834 15.4132L99.9891 21.1L103.306 15.4132C103.398 15.2566 103.519 15.1189 103.663 15.0075C103.89 14.825 104.176 14.7319 104.467 14.746H107.598C107.713 14.7444 107.827 14.7665 107.933 14.8109C108.038 14.8553 108.134 14.9209 108.213 15.0037C108.363 15.1524 108.449 15.3538 108.452 15.5648C108.459 15.6291 108.459 15.6939 108.452 15.7582C108.44 15.8162 108.424 15.8732 108.403 15.9288L108.38 15.9819L102.589 26.1763V31.2223C102.59 31.3436 102.567 31.464 102.521 31.576C102.475 31.6881 102.406 31.7896 102.319 31.8744C102.133 32.0504 101.885 32.1458 101.629 32.1398ZM92.2431 15.6786L98.0763 25.9905V31.2223C98.0736 31.26 98.0797 31.2978 98.0942 31.3327C98.1087 31.3675 98.1312 31.3986 98.1598 31.4233C98.1882 31.4499 98.2217 31.4706 98.2581 31.4842C98.2946 31.4979 98.3334 31.5042 98.3723 31.5029H101.629C101.668 31.506 101.707 31.5012 101.744 31.4888C101.781 31.4764 101.816 31.4567 101.845 31.4309C101.872 31.4035 101.893 31.3709 101.907 31.335C101.92 31.2991 101.927 31.2607 101.925 31.2223V25.983L101.963 25.9147L107.781 15.6786C107.782 15.6546 107.782 15.6306 107.781 15.6066C107.783 15.5839 107.783 15.561 107.781 15.5383C107.78 15.5132 107.775 15.4884 107.764 15.4656C107.754 15.4428 107.739 15.4224 107.72 15.4056C107.703 15.3877 107.682 15.3737 107.659 15.3645C107.636 15.3554 107.612 15.3513 107.587 15.3525H104.456C104.322 15.3395 104.187 15.3744 104.076 15.4511C103.991 15.5135 103.919 15.5921 103.864 15.6824L99.9663 22.3738L96.0497 15.6407C96.0497 15.6407 96.0269 15.5762 95.8827 15.4511C95.7712 15.3759 95.6372 15.3411 95.5031 15.3525H92.3759C92.3471 15.3507 92.3183 15.3551 92.2914 15.3656C92.2645 15.3761 92.2403 15.3924 92.2203 15.4132C92.2002 15.4275 92.1836 15.4462 92.1718 15.4679C92.1599 15.4896 92.1532 15.5136 92.152 15.5383L92.2431 15.6786Z" fill="#3A393A"/>
<path d="M121.132 55.3373C122.953 55.3373 124.43 53.9217 124.43 52.1755C124.43 50.4293 122.953 49.0137 121.132 49.0137C119.311 49.0137 117.834 50.4293 117.834 52.1755C117.834 53.9217 119.311 55.3373 121.132 55.3373Z" fill="#3A393A"/>
<path d="M121.127 55.6568C120.445 55.6285 119.786 55.4006 119.232 55.0012C118.678 54.6019 118.254 54.0488 118.012 53.4107C117.771 52.7726 117.722 52.0776 117.873 51.4121C118.023 50.7467 118.366 50.1402 118.859 49.6679C119.352 49.1956 119.973 48.8785 120.645 48.7559C121.317 48.6333 122.01 48.7106 122.638 48.9783C123.266 49.246 123.802 49.6923 124.178 50.2616C124.555 50.8308 124.755 51.4981 124.755 52.1803C124.733 53.1212 124.339 54.0151 123.659 54.6666C122.979 55.3181 122.069 55.6741 121.127 55.6568ZM121.127 49.3332C120.569 49.3569 120.03 49.5439 119.578 49.8708C119.125 50.1978 118.779 50.6503 118.582 51.1722C118.385 51.6941 118.345 52.2624 118.468 52.8064C118.592 53.3505 118.872 53.8464 119.275 54.2325C119.678 54.6186 120.186 54.878 120.735 54.9784C121.285 55.0788 121.852 55.0158 122.365 54.7972C122.879 54.5786 123.317 54.214 123.625 53.7488C123.933 53.2835 124.098 52.7382 124.099 52.1803C124.081 51.4097 123.758 50.6776 123.201 50.144C122.644 49.6104 121.898 49.3189 121.127 49.3332Z" fill="#3A393A"/>
<path d="M120.718 54.9428C122.539 54.9428 124.016 53.5272 124.016 51.781C124.016 50.0347 122.539 48.6191 120.718 48.6191C118.896 48.6191 117.42 50.0347 117.42 51.781C117.42 53.5272 118.896 54.9428 120.718 54.9428Z" fill="#F8F8F8"/>
<path d="M120.713 55.2584C120.03 55.2302 119.371 55.0022 118.818 54.6029C118.264 54.2035 117.84 53.6504 117.598 53.0123C117.357 52.3741 117.308 51.6791 117.459 51.0137C117.609 50.3483 117.952 49.7417 118.445 49.2695C118.938 48.7972 119.559 48.48 120.231 48.3574C120.903 48.2348 121.596 48.3122 122.224 48.5799C122.852 48.8476 123.388 49.2938 123.764 49.8631C124.141 50.4324 124.341 51.0996 124.341 51.7819C124.32 52.7231 123.926 53.6176 123.246 54.2693C122.566 54.921 121.655 55.2767 120.713 55.2584ZM120.713 48.9347C120.154 48.9578 119.614 49.1444 119.16 49.4716C118.707 49.7987 118.359 50.2518 118.161 50.7745C117.963 51.2973 117.923 51.8667 118.047 52.4118C118.17 52.957 118.451 53.4539 118.855 53.8408C119.259 54.2277 119.767 54.4875 120.318 54.5879C120.868 54.6882 121.436 54.6248 121.951 54.4054C122.465 54.186 122.904 53.8204 123.212 53.3539C123.521 52.8875 123.685 52.3408 123.684 51.7819C123.667 51.011 123.345 50.2782 122.788 49.7445C122.231 49.2107 121.485 48.9195 120.713 48.9347Z" fill="#3A393A"/>
<path d="M24.9274 1.61995C24.9234 1.46878 24.8597 1.32531 24.7502 1.22089C24.6407 1.11647 24.4943 1.05956 24.3429 1.06262H2.13729C2.06253 1.06111 1.98822 1.07434 1.91858 1.10154C1.84893 1.12873 1.78534 1.16937 1.73141 1.22112C1.67749 1.27288 1.6343 1.33475 1.60431 1.40318C1.57433 1.47161 1.55812 1.54527 1.55664 1.61995V22.8997C1.55812 22.9744 1.57433 23.0481 1.60431 23.1165C1.6343 23.1849 1.67749 23.2468 1.73141 23.2985C1.78534 23.3503 1.84893 23.3909 1.91858 23.4181C1.98822 23.4453 2.06253 23.4585 2.13729 23.457H5.64404C5.79539 23.4601 5.94185 23.4032 6.05135 23.2988C6.16086 23.1943 6.22453 23.0509 6.22851 22.8997V6.10109C6.22999 6.0259 6.24628 5.95177 6.27646 5.88288C6.30663 5.81399 6.35009 5.75168 6.40437 5.69957C6.45864 5.64747 6.52268 5.60658 6.59279 5.5792C6.66289 5.55182 6.73772 5.53849 6.81298 5.54H24.3429C24.4182 5.54151 24.493 5.52819 24.5631 5.5008C24.6332 5.47342 24.6972 5.43249 24.7515 5.38039C24.8058 5.32828 24.8493 5.26601 24.8794 5.19712C24.9096 5.12823 24.9259 5.0541 24.9274 4.97892V1.61995Z" fill="#F8F8F8"/>
<path d="M5.64081 23.7718H2.15682C2.03919 23.7743 1.92223 23.7536 1.8126 23.711C1.70297 23.6683 1.6028 23.6045 1.51786 23.5232C1.43292 23.4419 1.36487 23.3446 1.31756 23.237C1.27026 23.1294 1.24465 23.0136 1.24219 22.896V1.62005C1.24816 1.38307 1.34763 1.15803 1.51895 0.993994C1.69027 0.829958 1.91954 0.740198 2.15682 0.744274H24.3586C24.5959 0.740198 24.8252 0.829958 24.9965 0.993994C25.1678 1.15803 25.2673 1.38307 25.2733 1.62005V4.97902C25.2708 5.09652 25.2452 5.21239 25.1979 5.32C25.1506 5.42761 25.0825 5.52486 24.9976 5.60619C24.9127 5.68751 24.8125 5.75133 24.7029 5.79399C24.5932 5.83664 24.4763 5.85727 24.3586 5.85475H6.82871C6.79581 5.85425 6.76311 5.86022 6.73253 5.87234C6.70195 5.88445 6.67405 5.90249 6.65044 5.92537C6.62683 5.94826 6.60799 5.97554 6.59494 6.00571C6.58189 6.03588 6.57491 6.06833 6.57441 6.10119V22.8809C6.57401 23.0013 6.54927 23.1204 6.50168 23.2311C6.45409 23.3417 6.3846 23.4416 6.29742 23.5248C6.21024 23.608 6.10718 23.6728 5.99434 23.7152C5.88151 23.7577 5.76127 23.7769 5.64081 23.7718ZM2.13782 1.37741C2.10492 1.3764 2.07219 1.38187 2.04141 1.39352C2.01064 1.40517 1.98245 1.42277 1.95849 1.44531C1.93452 1.46784 1.91519 1.49487 1.90169 1.52486C1.88818 1.55484 1.88076 1.58719 1.87978 1.62005V22.8809C1.88026 22.9141 1.88734 22.9468 1.90062 22.9772C1.91391 23.0076 1.93313 23.0351 1.95714 23.0581C1.98116 23.081 2.00951 23.0989 2.04053 23.1108C2.07156 23.1227 2.10461 23.1283 2.13782 23.1273H5.64081C5.70761 23.1283 5.77209 23.103 5.82038 23.0569C5.86867 23.0108 5.89687 22.9476 5.89886 22.8809V6.08601C5.90385 5.84937 6.0025 5.62436 6.17321 5.46022C6.34393 5.29609 6.5728 5.20621 6.80971 5.21027H24.3396C24.3725 5.21077 24.4052 5.2048 24.4358 5.19269C24.4664 5.18057 24.4943 5.16253 24.5179 5.13965C24.5415 5.11677 24.5604 5.08948 24.5734 5.05931C24.5865 5.02914 24.5934 4.9967 24.5939 4.96384V1.60487C24.5919 1.53917 24.5641 1.47687 24.5166 1.43147C24.469 1.38607 24.4054 1.36121 24.3396 1.36223L2.13782 1.37741Z" fill="#3A393A"/>
<path d="M6.22482 23.2132C6.18245 23.2137 6.14041 23.2058 6.10108 23.1901C6.06175 23.1744 6.0259 23.1511 5.99559 23.1215C5.96528 23.092 5.9411 23.0567 5.92443 23.0178C5.90776 22.9789 5.89893 22.9371 5.89844 22.8948V6.0999C5.89893 6.05775 5.9078 6.01614 5.92452 5.97744C5.94124 5.93874 5.96546 5.90374 5.99582 5.87447C6.02618 5.8452 6.06204 5.82222 6.10135 5.80691C6.14066 5.79159 6.18264 5.78424 6.22482 5.78525C6.26718 5.78424 6.30936 5.79159 6.34888 5.80686C6.38841 5.82213 6.42454 5.84502 6.45521 5.87424C6.48587 5.90346 6.51044 5.93844 6.52757 5.97717C6.5447 6.01589 6.55401 6.05758 6.555 6.0999V22.8796C6.55602 22.9233 6.5482 22.9669 6.53202 23.0076C6.51583 23.0483 6.49163 23.0853 6.46081 23.1164C6.43 23.1475 6.39323 23.1721 6.35268 23.1888C6.31214 23.2054 6.26864 23.2137 6.22482 23.2132Z" fill="#3A393A"/>
<path d="M24.4605 1.17643C24.459 1.10125 24.4427 1.02712 24.4125 0.958229C24.3824 0.889339 24.3389 0.827024 24.2846 0.774919C24.2303 0.722814 24.1663 0.681932 24.0962 0.654548C24.0261 0.627164 23.9513 0.613841 23.876 0.61535H1.67039C1.59513 0.613841 1.52032 0.627164 1.45021 0.654548C1.38011 0.681932 1.31607 0.722814 1.2618 0.774919C1.20752 0.827024 1.16406 0.889339 1.13389 0.958229C1.10371 1.02712 1.08742 1.10125 1.08594 1.17643V22.4524C1.08742 22.5276 1.10371 22.6017 1.13389 22.6706C1.16406 22.7395 1.20752 22.8018 1.2618 22.8539C1.31607 22.906 1.38011 22.9469 1.45021 22.9743C1.52032 23.0017 1.59513 23.015 1.67039 23.0135H5.19233C5.26759 23.015 5.34242 23.0017 5.41252 22.9743C5.48263 22.9469 5.54667 22.906 5.60094 22.8539C5.65522 22.8018 5.69868 22.7395 5.72885 22.6706C5.75903 22.6017 5.77532 22.5276 5.7768 22.4524V5.65757C5.77828 5.58238 5.79457 5.50825 5.82475 5.43936C5.85493 5.37047 5.89839 5.3082 5.95266 5.2561C6.00694 5.20399 6.07097 5.16306 6.14108 5.13568C6.21118 5.1083 6.28597 5.09497 6.36123 5.09648H23.8912C23.9665 5.09799 24.0413 5.08467 24.1114 5.05728C24.1815 5.0299 24.2455 4.98902 24.2998 4.93691C24.354 4.88481 24.3975 4.82254 24.4277 4.75365C24.4579 4.68476 24.4742 4.61058 24.4757 4.5354L24.4605 1.17643Z" fill="#F8F8F8"/>
<path d="M5.19299 23.3285H1.68624C1.44933 23.3325 1.22046 23.2427 1.04974 23.0785C0.879029 22.9144 0.780376 22.6893 0.775391 22.4527V1.17669C0.780376 0.940053 0.879029 0.715005 1.04974 0.550865C1.22046 0.386726 1.44933 0.296849 1.68624 0.300913H23.8919C24.1288 0.296849 24.3576 0.386726 24.5284 0.550865C24.6991 0.715005 24.7977 0.940053 24.8027 1.17669V4.53566C24.7977 4.7723 24.6991 4.99735 24.5284 5.16149C24.3576 5.32562 24.1288 5.4155 23.8919 5.41144H6.33154C6.29865 5.41094 6.266 5.41691 6.23541 5.42902C6.20483 5.44114 6.17693 5.45913 6.15332 5.48201C6.12971 5.5049 6.11082 5.53223 6.09777 5.5624C6.08473 5.59257 6.07774 5.62497 6.07725 5.65783V22.4527C6.07141 22.6844 5.97617 22.9049 5.81137 23.0681C5.64658 23.2314 5.42501 23.3246 5.19299 23.3285ZM1.68624 0.930259C1.65335 0.929757 1.62067 0.935732 1.59009 0.947845C1.55951 0.959958 1.53161 0.977997 1.508 1.00088C1.48438 1.02376 1.46552 1.05105 1.45247 1.08122C1.43943 1.11139 1.43247 1.14383 1.43197 1.17669V22.4527C1.43247 22.4855 1.43943 22.518 1.45247 22.5482C1.46552 22.5783 1.48438 22.6056 1.508 22.6285C1.53161 22.6514 1.55951 22.6694 1.59009 22.6815C1.62067 22.6936 1.65335 22.6996 1.68624 22.6991H5.19299C5.22588 22.6996 5.25854 22.6936 5.28912 22.6815C5.3197 22.6694 5.3476 22.6514 5.37121 22.6285C5.39482 22.6056 5.41371 22.5783 5.42676 22.5482C5.43981 22.518 5.44679 22.4855 5.44728 22.4527V5.65783C5.44975 5.54032 5.47535 5.42445 5.52266 5.31684C5.56996 5.20923 5.63804 5.11203 5.72298 5.0307C5.80792 4.94937 5.90804 4.88556 6.01767 4.8429C6.1273 4.80025 6.24426 4.77958 6.36189 4.78209H23.8919C23.9248 4.78259 23.9574 4.77662 23.988 4.76451C24.0186 4.75239 24.0465 4.73435 24.0701 4.71147C24.0937 4.68859 24.1126 4.6613 24.1256 4.63113C24.1387 4.60096 24.1456 4.56852 24.1461 4.53566V1.17669C24.1456 1.14383 24.1387 1.11139 24.1256 1.08122C24.1126 1.05105 24.0937 1.02376 24.0701 1.00088C24.0465 0.977997 24.0186 0.959958 23.988 0.947845C23.9574 0.935732 23.9248 0.929757 23.8919 0.930259H1.68624Z" fill="#3A393A"/>
<path d="M5.76182 22.7675C5.71945 22.7685 5.67732 22.7612 5.6378 22.7459C5.59827 22.7306 5.56214 22.7077 5.53148 22.6785C5.50081 22.6493 5.4762 22.6143 5.45907 22.5756C5.44194 22.5369 5.43263 22.4951 5.43164 22.4528V5.65795C5.43164 5.57048 5.46641 5.48661 5.52833 5.42476C5.59025 5.3629 5.67425 5.32812 5.76182 5.32812C5.84939 5.32812 5.93339 5.3629 5.99531 5.42476C6.05723 5.48661 6.092 5.57048 6.092 5.65795V22.4528C6.09101 22.4951 6.0817 22.5369 6.06457 22.5756C6.04744 22.6143 6.02282 22.6493 5.99216 22.6785C5.9615 22.7077 5.92536 22.7306 5.88584 22.7459C5.84631 22.7612 5.80419 22.7685 5.76182 22.7675Z" fill="#3A393A"/>
<path d="M77.4708 69.9861H48.043C47.966 69.9881 47.8892 69.9748 47.8173 69.9471C47.7454 69.9194 47.6796 69.8777 47.6239 69.8245C47.5682 69.7713 47.5235 69.7076 47.4926 69.6371C47.4616 69.5666 47.4448 69.4906 47.4434 69.4136V65.721C47.4473 65.5658 47.5127 65.4185 47.625 65.3113C47.7374 65.204 47.8876 65.1455 48.043 65.1486H77.4708C77.6243 65.1485 77.7716 65.2084 77.8815 65.3153C77.9914 65.4222 78.0552 65.5678 78.0591 65.721V69.4174C78.0551 69.5703 77.9913 69.7155 77.8813 69.8218C77.7713 69.9281 77.6239 69.9871 77.4708 69.9861Z" fill="#F8F8F8"/>
<path d="M77.473 70.3047H48.0452C47.8043 70.3088 47.5715 70.2173 47.3979 70.0503C47.2244 69.8833 47.1241 69.6544 47.1191 69.4138V65.7212C47.1211 65.6019 47.1467 65.4841 47.1943 65.3747C47.242 65.2653 47.3108 65.1663 47.3969 65.0835C47.4829 65.0007 47.5845 64.9358 47.6957 64.8923C47.807 64.8488 47.9258 64.8278 48.0452 64.8303H77.473C77.5924 64.8278 77.7112 64.8488 77.8225 64.8923C77.9337 64.9358 78.0353 65.0007 78.1214 65.0835C78.2074 65.1663 78.2762 65.2653 78.3239 65.3747C78.3715 65.4841 78.3971 65.6019 78.399 65.7212V69.4138C78.3941 69.6544 78.2938 69.8833 78.1202 70.0503C77.9467 70.2173 77.7139 70.3088 77.473 70.3047ZM48.0452 65.4596C48.0103 65.4591 47.9756 65.4655 47.9432 65.4784C47.9108 65.4912 47.8812 65.5104 47.8562 65.5346C47.8312 65.5589 47.8112 65.5879 47.7974 65.6199C47.7836 65.6519 47.7762 65.6863 47.7757 65.7212V69.4138C47.7762 69.4485 47.7836 69.4827 47.7974 69.5145C47.8113 69.5463 47.8314 69.575 47.8564 69.599C47.8815 69.623 47.9111 69.6418 47.9435 69.6542C47.9759 69.6667 48.0105 69.6726 48.0452 69.6716H77.473C77.5077 69.6726 77.5423 69.6667 77.5747 69.6542C77.6071 69.6418 77.6367 69.623 77.6618 69.599C77.6869 69.575 77.7069 69.5463 77.7208 69.5145C77.7346 69.4827 77.742 69.4485 77.7425 69.4138V65.7212C77.742 65.6863 77.7346 65.6519 77.7208 65.6199C77.707 65.5879 77.687 65.5589 77.662 65.5346C77.637 65.5104 77.6074 65.4912 77.575 65.4784C77.5425 65.4655 77.5079 65.4591 77.473 65.4596H48.0452Z" fill="#3A393A"/>
<path d="M77.4708 69.5426H48.043C47.966 69.5446 47.8892 69.5314 47.8173 69.5036C47.7454 69.4759 47.6796 69.4342 47.6239 69.381C47.5682 69.3278 47.5235 69.2641 47.4926 69.1936C47.4616 69.123 47.4448 69.0471 47.4434 68.9701V65.2737C47.4473 65.1185 47.5127 64.9712 47.625 64.864C47.7374 64.7567 47.8876 64.6982 48.043 64.7013H77.4708C77.6262 64.6982 77.7765 64.7567 77.8889 64.864C78.0012 64.9712 78.0665 65.1185 78.0705 65.2737V68.9701C78.069 69.0471 78.0523 69.123 78.0213 69.1936C77.9903 69.2641 77.9457 69.3278 77.89 69.381C77.8342 69.4342 77.7685 69.4759 77.6966 69.5036C77.6246 69.5314 77.5479 69.5446 77.4708 69.5426Z" fill="#F8F8F8"/>
<path d="M77.473 69.8576H48.0452C47.9261 69.8601 47.8076 69.8391 47.6966 69.7959C47.5856 69.7527 47.4842 69.688 47.3982 69.6056C47.3122 69.5233 47.2433 69.4247 47.1954 69.3158C47.1475 69.2068 47.1216 69.0894 47.1191 68.9704V65.274C47.1216 65.155 47.1475 65.0377 47.1954 64.9287C47.2433 64.8197 47.3122 64.7212 47.3982 64.6389C47.4842 64.5565 47.5856 64.4918 47.6966 64.4486C47.8076 64.4054 47.9261 64.3844 48.0452 64.3869H77.473C77.5921 64.3844 77.7106 64.4054 77.8216 64.4486C77.9326 64.4918 78.034 64.5565 78.12 64.6389C78.206 64.7212 78.2749 64.8197 78.3228 64.9287C78.3707 65.0377 78.3966 65.155 78.399 65.274V68.9704C78.3966 69.0894 78.3707 69.2068 78.3228 69.3158C78.2749 69.4247 78.206 69.5233 78.12 69.6056C78.034 69.688 77.9326 69.7527 77.8216 69.7959C77.7106 69.8391 77.5921 69.8601 77.473 69.8576ZM48.0452 65.0163C47.9754 65.0152 47.9079 65.0417 47.8575 65.0899C47.8071 65.1382 47.7777 65.2043 47.7757 65.274V68.9704C47.7762 69.0051 47.7836 69.0394 47.7974 69.0712C47.8113 69.103 47.8314 69.1317 47.8564 69.1557C47.8815 69.1797 47.9111 69.1984 47.9435 69.2109C47.9759 69.2233 48.0105 69.2292 48.0452 69.2282H77.473C77.5077 69.2292 77.5423 69.2233 77.5747 69.2109C77.6071 69.1984 77.6367 69.1797 77.6618 69.1557C77.6869 69.1317 77.7069 69.103 77.7208 69.0712C77.7346 69.0394 77.742 69.0051 77.7425 68.9704V65.274C77.7405 65.2043 77.7111 65.1382 77.6607 65.0899C77.6102 65.0417 77.5428 65.0152 77.473 65.0163H48.0452Z" fill="#3A393A"/>
</g>
<defs>
<clipPath id="clip0_3397_9744">
<rect width="124" height="70" fill="white" transform="translate(0.759766 0.300781)"/>
</clipPath>
</defs>
</svg>
