<svg width="163" height="234" viewBox="0 0 163 234" fill="none" xmlns="http://www.w3.org/2000/svg">
<g clip-path="url(#clip0_3397_9650)">
<path d="M100.027 69.1786L90.6985 71.3984H94.804C95.4473 71.0566 97.7631 69.8641 100.027 69.1786ZM85.1816 114.093C85.3602 119.057 85.4044 129.926 85.4044 131.715C85.4044 141.733 89.4292 146.027 99.0458 146.027H100.789C110.316 146.027 114.252 141.689 114.252 131.625C114.252 130.014 114.296 119.057 114.521 114.093H105.039C105.308 119.238 105.442 127.378 105.442 130.239C105.442 137.036 104.056 139.183 99.9407 139.183C95.8256 139.183 94.3489 137.036 94.3489 130.327C94.3489 127.643 94.4833 119.145 94.7522 114.091H85.1816V114.093ZM118.083 106.693L118.404 102.007C115.322 102.168 110.926 102.232 107.877 102.264V97.2584H116.511L116.768 93.4083H107.877C107.877 91.6436 107.877 89.7809 107.91 88.5616C110.702 88.5616 114.938 88.6576 117.922 88.7863L118.243 84.2295H101.202C101.523 91.5476 101.523 99.025 101.202 106.695H118.083V106.693ZM98.4083 106.693L98.7616 102.007C95.7123 102.168 91.8295 102.199 88.8455 102.199C88.7495 96.3578 88.8128 90.2284 89.0375 84.2276H82.1707C82.4914 91.5457 82.4914 99.0231 82.1707 106.693H98.4102H98.4083ZM60.3989 114.093C57.3572 124.067 53.9584 134.488 50.0679 145.401H59.7287L61.8755 138.334H71.6266L73.6832 145.401H83.7011C80.0334 134.488 76.5443 124.067 73.7273 114.093H60.3989ZM62.8587 132.877L66.6147 120.399H66.9719L70.6396 132.877H62.8568H62.8587ZM33.8053 50.4197C33.4309 52.2304 33.0699 53.2002 33.2792 55.1281C33.7708 53.7263 33.957 51.9751 33.8053 50.4197ZM93.9015 33.2027C93.575 34.7216 93.4809 38.6716 93.4809 38.6716C93.4809 38.6716 95.6086 27.778 95.5855 25.2778C95.5855 25.2778 94.2298 31.6819 93.9034 33.2027H93.9015ZM96.8241 22.8237C96.2154 24.2255 95.7027 31.2383 94.8597 36.0063C96.2864 32.1254 96.9163 25.7675 96.8241 22.8237ZM142.388 145.399L142.879 138.868C138.632 139.091 133.219 139.137 129.059 139.137C128.925 130.997 129.015 122.454 129.328 114.091H119.758C120.205 124.288 120.205 134.711 119.758 145.399H142.39H142.388ZM127.679 106.691H136.087C135.991 104.348 135.895 101.395 135.863 98.9559C138.206 94.0785 140.677 89.297 143.404 84.2257H135.863C134.964 86.9851 133.007 91.8644 132.235 94.4625H131.978C131.175 91.8625 129.123 87.0811 128.159 84.2257H120.169C122.993 89.4891 125.753 94.5912 127.936 99.1479C127.871 101.556 127.775 104.571 127.679 106.691ZM79.3748 106.691L79.7281 102.005C76.6788 102.167 72.796 102.197 69.8119 102.197C69.7159 96.3559 69.7793 90.2264 70.004 84.2257H63.1372C63.4578 91.5437 63.4578 99.0212 63.1372 106.691H79.3767H79.3748ZM96.4343 155.206C93.6269 164.413 90.4892 174.034 86.8964 184.107H95.816L97.7977 177.584H106.798L108.697 184.107H117.945C114.56 174.032 111.339 164.413 108.737 155.206H96.4324H96.4343ZM98.7059 172.548L102.174 161.028H102.504L105.89 172.548H98.704H98.7059ZM157.256 72.6965C155.831 69.962 153.581 67.723 150.837 66.3116C150.311 65.0404 149.633 64.1763 149.166 63.583C149.013 63.3871 148.892 63.2316 148.798 63.0895C147.749 61.4976 146.286 60.3723 145.111 59.4717C144.659 59.1241 144.147 58.7324 143.897 58.4809C143.569 58.1544 143.238 57.7704 142.854 57.3287C142.063 56.4166 141.08 55.2817 139.678 54.1411C139.187 53.7398 138.707 53.3692 138.259 53.0216C137.889 52.7355 137.543 52.4705 137.247 52.2208C137.074 52.0768 136.894 51.9482 136.708 51.8272L136.594 51.3126C136.151 49.2829 135.732 47.3665 134.065 45.8034C133.835 45.5864 133.317 45.1351 132.748 44.6455L132.667 43.2994C132.725 42.2298 132.573 40.7685 131.803 39.0422C131.429 38.2049 130.532 36.3423 129.929 35.0999V31.7011C129.929 29.7136 128.883 27.8721 127.176 26.8543C125.468 25.8366 123.35 25.7905 121.601 26.7353L120.737 27.2019C120.101 27.5456 119.537 28.0084 119.076 28.5653L118.396 29.3852C118.095 29.7482 117.841 30.1495 117.64 30.5739C117.236 30.1495 116.774 29.7942 116.269 29.5158C115.86 29.151 115.395 28.8418 114.884 28.6037C113.993 28.1908 113.354 27.9105 112.868 27.7146L111.021 24.5673C110.78 24.1602 110.494 23.7954 110.176 23.4728C110.285 22.9505 110.412 22.384 110.539 21.8521C110.746 20.988 110.746 20.0855 110.539 19.2213L109.486 14.8393C109.515 14.4438 109.511 14.0443 109.454 13.643L109.313 12.6618C108.987 10.3748 107.299 8.51787 105.054 7.97444C102.502 7.35612 102.27 7.30811 102.172 7.28891C99.7486 6.79349 97.3656 7.82082 95.9542 9.97534C95.8736 10.0982 95.7968 10.2231 95.7219 10.3517C95.6336 10.4055 95.5471 10.4631 95.4607 10.5226L93.7671 11.7016C92.6821 12.4582 91.8967 13.57 91.5472 14.8451L91.0595 16.629C90.5449 17.2012 90.1685 17.858 89.9285 18.555C89.2141 19.7072 88.8013 20.9496 88.5689 22.0499H87.3822C87.2171 22.0499 87.0519 22.0576 86.8906 22.0729C86.7217 21.7311 86.5181 21.4047 86.28 21.1013L85.7078 20.3677C85.4082 17.9789 84.16 16.4331 82.8908 15.4557C82.8447 15.0947 82.7717 14.7356 82.6565 14.3862L81.2432 10.1078C81.201 9.98302 81.1549 9.86012 81.1049 9.73915C81.3911 8.10694 80.959 6.38063 79.8145 5.06142C79.0868 4.22227 78.1535 3.57323 77.1569 3.0778C76.7517 2.62654 76.2678 2.23481 75.7167 1.92565C72.6155 0.193585 71.1331 -0.0867719 69.7447 0.0226824C67.9954 0.162861 65.5586 1.10378 63.8688 4.78298C63.4156 5.10174 63.0027 5.48387 62.6571 5.93129C62.4631 6.18285 62.2577 6.47088 62.0599 6.79349C61.4454 7.3542 61.0114 8.01668 60.6984 8.67341C59.8842 9.42423 59.2813 10.4208 59.0201 11.5749C58.999 11.6671 58.951 11.8821 58.8838 12.1855C58.7455 12.1279 58.6073 12.0723 58.4652 12.0262C57.096 11.0296 55.3179 10.6743 53.6165 11.1525L52.5009 11.4655C52.0995 11.5787 51.7117 11.7362 51.343 11.934L50.139 12.5869C48.5087 13.4683 47.4161 15.0947 47.2144 16.9362L47.0877 18.0961C46.1026 18.5877 45.2961 19.2386 44.6893 20.0586C43.7541 21.3221 43.5122 22.6259 43.3182 23.6744C43.2395 24.1026 43.1569 24.5462 43.0283 25.0435C42.5636 26.8447 42.0355 31.6569 41.8224 33.7173L41.7033 33.7692C40.3937 34.2627 39.3395 35.2228 38.7058 36.4306C37.3136 35.651 35.6161 35.4705 34.0377 36.037L33.5826 36.2002C33.3752 36.2751 33.1697 36.3615 32.9719 36.4614L30.37 37.7575C28.926 38.4776 27.8583 39.7815 27.4397 41.3388C26.6831 44.1424 26.493 44.8471 26.42 45.1716C26.0859 45.3617 25.7441 45.5653 25.41 45.7803C24.6112 46.293 22.2166 47.835 21.0107 54.2813C20.3866 54.5463 19.7971 54.8382 19.3055 55.1608C17.224 56.5222 15.6244 58.9648 15.1866 59.6791C15.0042 59.9767 14.8601 60.2533 14.7449 60.4741C14.6912 60.5797 14.622 60.7122 14.5702 60.8005C11.5458 62.3655 9.99614 65.0366 9.46807 66.1158C4.45814 68.5084 0.986328 73.6259 0.986328 79.5402V187.906C0.986328 192.66 3.23302 196.898 6.71828 199.619C9.19732 204.38 14.1765 207.638 19.9046 207.638H148.126C156.319 207.638 162.986 200.971 162.986 192.777V84.4119C162.986 79.6574 160.74 75.4213 157.256 72.7003V72.6965ZM135.744 59.85C137.378 61.1788 138.278 62.548 139.542 63.8096C140.804 65.0712 142.835 66.1926 143.715 67.5272C144.346 68.4911 144.98 68.9923 145.335 70.0177C143.974 68.6601 142.102 67.3409 140.888 66.8205C139.673 66.3001 137.823 64.1072 135.688 63.1432C136.929 63.3295 139.004 64.5873 139.133 64.666C138.976 64.5008 136.445 61.9316 135.688 61.296C134.903 60.6392 133.259 57.8837 133.259 57.8837C133.937 58.4501 134.818 59.0915 135.746 59.8481L135.744 59.85ZM116.879 47.5546C116.973 50.5233 117.955 51.4816 117.955 51.4816C117.955 51.4816 118.89 47.1111 118.959 46.5964C119.03 46.0818 119.779 45.018 119.779 45.018L120.437 39.9351L121.179 38.5794C121.179 38.5794 121.716 41.2908 121.762 41.1736C121.808 41.0565 121.762 37.8785 121.762 37.8785L122.277 37.4349C122.277 37.4349 122.114 35.7355 122.02 35.6356C121.926 35.5358 122.369 34.326 122.369 34.326L123.049 33.5061L123.913 33.0395V37.7383C123.913 37.7383 125.749 41.4963 126.279 42.681C126.809 43.8658 126.636 44.5283 126.636 44.5283L126.886 48.7145C126.886 48.7145 129.376 50.8267 129.831 51.253C130.286 51.6793 130.457 52.7489 130.878 54.625C131.298 56.5011 131.79 59.85 132.456 63.1106C131.112 61.2287 129.15 52.9774 129.15 52.9774L129.593 58.7036C128.495 56.3897 128.074 51.7619 128.074 51.7619L126.532 50.6174L126.112 55.0359C126.112 55.0359 125.925 45.9896 125.877 44.8452C125.831 43.7007 123.377 38.276 123.377 38.276L123.283 34.9808C123.283 34.9808 122.442 38.4642 122.534 39.2284C122.628 39.9927 123.633 40.4516 123.446 41.5961C123.26 42.7406 122.746 51.2742 122.746 51.2742C122.746 51.2742 122.302 46.343 122.442 42.368C121.881 44.2845 121.507 51.6236 121.507 51.6236L120.758 52.6049L120.712 46.7846L119.823 47.6026L118.702 52.0903C118.702 52.0903 125.036 56.0172 125.271 56.5318C125.505 57.0464 125.505 57.7704 126.486 58.9628C127.467 60.1553 127.001 59.827 129.152 62.1428C129.152 62.1428 128.474 61.5821 127.258 60.693C126.043 59.8039 125.038 58.5884 124.733 57.7243C124.43 56.8602 123.612 56.4396 122.746 55.925C121.881 55.4104 117.978 52.6299 117.252 52.1613C116.528 51.6947 116.62 50.5944 116.877 47.5566L116.879 47.5546ZM136.445 70.252C131.045 69.5281 130.999 68.7561 128.637 68.0322C126.277 67.3083 124.956 65.8469 122.746 63.3929C122.746 63.3929 124.733 64.9463 125.877 65.6952C127.022 66.4441 131.3 68.4527 136.443 70.2539L136.445 70.252ZM119.101 61.1827C119.101 61.1827 114.771 58.26 113.578 56.8026C116.559 58.308 119.101 61.1827 119.101 61.1827ZM115.56 55.5371C115.56 55.5371 111.879 53.9587 111.633 53.7321C111.387 53.5036 111.019 52.2593 111.019 52.2593C112.403 52.6971 115.56 55.5371 115.56 55.5371ZM107.483 34.3952C107.483 34.0438 105.264 35.2842 105.264 35.2842C105.264 35.2842 106.548 33.8825 107.32 33.6943L105.784 28.7612L108.445 33.2987L108.816 47.2762C108.816 47.2762 109.644 34.0783 109.943 34.1302C110.245 34.182 112.138 35.0615 112.138 35.0615L112.251 36.1272C112.251 36.1272 112.486 44.705 112.532 44.6359C112.578 44.5667 113.183 35.8027 113.183 35.8027L113.763 36.9453V48.8796L111.771 45.9339C111.771 45.9339 112.332 48.2133 113.279 49.5805C114.225 50.9477 114.786 53.1925 114.786 53.1925C114.786 53.1925 114.446 52.818 113.442 51.6966C112.438 50.5752 109.375 50.6923 109.375 50.6923L110.802 50.0855C110.802 50.0855 109.306 49.688 108.207 50.1796C107.109 50.6712 105.098 49.642 105.098 49.642L107.95 49.5248C107.95 49.5248 107.483 34.7523 107.483 34.4009V34.3952ZM85.389 34.8618L87.0174 29.03H89.1565L90.952 34.4028L90.7926 42.7847C90.7926 42.7847 92.2193 40.2846 92.4056 39.4416C92.5919 38.6005 92.8972 36.0754 92.9894 35.048C93.0835 34.0188 93.6903 32.0333 93.8304 30.6065C93.9706 29.1798 94.4372 27.9412 94.3451 27.6378C94.251 27.3344 93.5501 26.188 93.5501 26.188C93.5501 26.188 93.5443 23.0254 95.1362 22.0595L94.8923 21.7311C95.1074 21.5295 95.3609 21.3835 95.6182 21.2568C95.6739 21.107 95.7315 20.9304 95.7891 20.7191C96.1175 19.5209 96.6225 17.6679 96.6225 17.6679L98.3161 16.4888L98.4794 19.3865C98.4794 19.3865 99.2974 16.6521 99.764 15.5287C100.231 14.4073 100.434 14.102 100.665 14.15C100.897 14.198 103.351 14.7932 103.351 14.7932L103.491 15.7745L101.266 15.0198C101.266 15.0198 101.686 15.9492 101.809 16.3871C101.932 16.8249 101.02 21.6639 100.933 22.2246C100.847 22.7853 99.4779 23.5573 99.1111 24.3292C98.7424 25.1012 97.3925 29.8519 97.3925 29.8519C97.3925 29.8519 99.2686 24.9072 100.092 24.2428C100.916 23.5765 102.057 23.7685 102.057 23.7685C102.057 23.7685 100.355 24.2236 99.9887 25.8731C99.62 27.5207 99.3742 30.7294 99.1822 32.377C98.9901 34.0246 98.2355 37.6193 97.5519 37.986L97.429 40.5457L100.532 36.6015C100.532 36.6015 100.023 38.1973 99.5681 39.0038C99.113 39.8103 96.8337 42.4583 96.8337 42.4583C96.8337 42.4583 94.7291 42.4583 93.6787 43.2994C96.4669 43.0881 99.2878 43.405 100.62 44.824L98.7271 44.6128L100.586 48.4168C100.586 48.4168 99.0439 48.2421 96.6935 48.7145C98.6215 49.0832 101.427 49.9588 101.427 49.9588L105.097 52.8872C105.097 52.8872 101.513 50.8363 99.4452 50.3448C97.3771 49.8532 94.9231 49.135 94.9231 49.135C94.9231 49.135 97.2715 50.9228 97.6748 51.134L99.6738 55.8847C99.6738 55.8847 98.4467 51.4143 98.4986 51.4143C98.5504 51.4143 99.691 51.8176 99.691 51.8176L101.233 56.8832C101.233 56.8832 103.495 55.7445 104.722 55.5333C102.617 57.0752 102.145 57.8817 99.3223 58.0046C96.4996 58.1275 95.43 58.0046 95.43 58.0046L93.9917 56.4627L94.4833 57.8126C94.4833 57.8126 92.4325 56.8314 92.2577 56.4972C92.083 56.165 91.9255 55.0244 91.8718 54.4637C91.8199 53.903 93.9937 49.135 93.9937 49.135C93.9937 49.135 92.1886 51.3433 91.9947 52.4666C91.6798 51.1686 93.4502 47.1187 93.4502 47.1187C93.4502 47.1187 89.9957 52.5185 89.5406 56.0076C89.2948 53.4306 90.7158 48.2939 92.5035 45.8744C90.7676 47.4701 86.858 53.9568 86.858 53.9568C86.858 53.9568 90.5391 45.0506 92.6264 43.2283C90.8905 44.2806 87.9641 49.1715 87.9641 49.1715C87.9641 49.1715 89.5233 45.717 89.9976 44.7357C89.9976 44.7357 90.0917 37.1507 90.0207 35.7489C89.9496 34.3472 88.665 30.6296 88.665 30.6296C88.665 30.6296 89.0164 33.9727 89.1085 34.8829C89.2026 35.795 88.5939 37.1507 88.5939 37.1507L88.0793 32.6631L87.7048 38.6696L88.9434 37.5943L87.4245 40.54L86.858 47.7159L86.1168 42.4564L85.4389 48.2306C85.4389 48.2306 85.3218 42.224 85.4389 39.9082C85.5561 37.5943 85.7903 35.5838 86.1168 35.2574C86.4432 34.9309 86.9348 33.1297 86.9348 33.1297L85.3871 34.8599L85.389 34.8618ZM104.68 21.8732C104.68 21.8732 103.977 24.8112 103.86 26.0958C103.743 27.3824 103.72 36.1464 103.439 39.4665C103.159 42.7867 102.178 48.0731 102.178 48.0731C102.178 48.0731 102.504 34.4163 102.738 31.5647C102.973 28.7131 103.439 16.6981 103.439 16.6981L104.68 21.8713V21.8732ZM83.2844 33.2526C83.2844 33.2526 84.6689 35.3054 84.8801 36.0063C85.0914 36.7071 84.9147 41.4406 84.2138 45.5077C84.1428 43.8946 84.0391 36.252 84.0391 36.252L83.2844 39.8276C82.9522 38.2856 83.2844 33.2526 83.2844 33.2526ZM82.8696 53.1157C83.9219 51.76 86.2819 50.2411 86.2819 50.2411L83.6166 53.6534L85.2296 52.7412C85.2296 52.7412 84.4577 53.8396 84.0372 53.9798C83.6166 54.12 79.8529 55.6869 78.263 56.7987C79.5956 54.8727 81.8154 54.4695 82.8677 53.1138L82.8696 53.1157ZM78.8333 21.0878C79.5495 21.5333 79.8068 21.9731 79.7608 23.01C79.7147 24.0469 79.8549 27.7319 79.8549 27.7319L80.2063 24.2966L81.4679 25.9115C81.4679 25.9115 81.7156 28.0545 82.2168 31.9756C82.7179 35.8949 81.8423 46.7136 81.8423 46.7136C81.8423 46.7136 81.0934 35.6568 81.0934 33.8805C81.0934 32.1043 80.5327 27.6858 80.5327 27.6858C80.5327 27.6858 79.8779 38.2741 79.8088 38.228C79.7396 38.1819 79.202 30.0938 79.1309 28.2465C79.0599 26.3992 79.1559 23.5246 78.9216 22.6836C78.6873 21.8425 76.9342 20.4388 76.9342 20.4388C76.9342 20.4388 78.1189 20.6423 78.8352 21.0878H78.8333ZM76.9322 17.4931L76.5175 20.5252C76.5175 20.5252 75.999 29.343 76.2333 32.6746C76.8861 28.6421 77.3777 26.6431 77.3777 26.6431C77.3777 26.6431 77.2721 31.6569 77.0974 32.8839C76.9226 34.111 76.4656 37.6884 76.4656 37.6884L77.3777 36.4268C77.2721 37.7249 76.5194 38.758 76.2563 40.0561C75.9932 41.3542 75.3442 45.2811 75.3442 45.2811C75.3442 45.2811 75.2271 38.0264 75.204 36.1042C75.181 34.1839 74.9582 26.9254 75.204 25.4871C75.4498 24.0489 75.7993 20.4388 75.5189 18.8949C75.2386 17.3529 74.9237 14.582 75.5189 13.2148L76.9322 17.4931ZM66.753 10.7146H67.2676C67.2676 10.7146 67.2407 11.8476 67.1044 13.017C67.091 13.1342 66.1692 12.2931 66.1807 11.8668C66.1923 11.4405 66.753 10.7146 66.753 10.7146ZM60.7023 19.5785L61.7738 18.747L61.9485 28.1351C61.9485 28.1351 62.4919 24.0335 62.7377 21.6831C62.9835 19.3346 64.1587 14.15 64.1587 14.15C64.1587 14.15 63.8668 17.7139 63.7728 19.1925C64.3335 16.9305 65.2456 12.3853 65.4683 12.3372C65.6911 12.2912 65.8428 12.6349 66.0348 13.2129C66.2268 13.7909 67.4193 13.9618 67.4193 13.9618L67.5364 19.8051L68.6233 8.47947C68.6233 8.47947 69.2896 7.01815 69.8254 6.97591C70.3611 6.93366 72.5905 8.18183 72.5905 8.18183C72.5905 8.18183 71.1177 8.19911 70.3823 8.53323C71.592 8.51595 74.3802 9.16499 75.1867 10.0944C73.8368 9.42807 72.3985 9.59129 72.3985 9.59129C72.3985 9.59129 72.5617 11.2984 72.3755 14.6396C72.1892 17.9828 71.3712 24.2006 71.3712 24.2006C71.3712 24.2006 71.3942 19.759 71.5344 16.9785C71.6746 14.198 70.8566 10.0368 70.8566 10.0368L70.1902 24.7171C70.9084 25.3316 71.5056 26.1189 71.2944 27.8721C71.1542 27.223 70.1902 25.9441 69.8215 25.804C69.4529 25.6638 68.0684 25.9614 68.0684 25.9614C68.0684 25.9614 69.3664 26.1362 69.7332 26.382C70.1019 26.6278 70.0481 27.2576 69.9617 27.9604C69.8734 28.6613 69.4183 31.3785 69.4183 31.3785C69.4183 31.3785 68.8749 30.186 68.366 29.4505C68.366 31.0117 70.6626 35.6913 70.6626 35.6913C70.6626 35.6913 68.9805 33.5522 68.5062 32.2733C68.0319 30.9944 66.7184 31.1864 66.6819 30.7832C66.6474 30.3799 66.874 22.0518 66.874 22.0518L65.524 30.5201L65.2955 24.3138C65.2955 24.3138 64.8404 31.3957 64.6119 31.7126C64.3834 32.0275 63.5423 32.2733 62.6129 32.3271C61.6835 32.3789 60.0763 33.4139 60.0763 33.4139L60.7004 19.5804L60.7023 19.5785ZM74.3264 23.1732C73.975 27.3114 73.3106 32.569 73.3106 32.569C73.3106 32.569 72.7499 21.2434 73.662 15.2829C73.662 15.2829 74.6798 19.0351 74.3284 23.1713L74.3264 23.1732ZM69.015 35.532C68.9267 36.0235 67.9992 37.0566 67.9992 37.0566C67.9992 37.0566 66.5437 34.5853 65.9484 33.5733C65.3531 32.5632 65.0094 32.3059 65.5279 32.0256C65.668 31.9488 66.4861 32.0313 66.8125 32.0256C67.139 32.0198 68.2969 32.7975 68.6483 33.3928C68.9997 33.9881 69.1034 35.0404 69.017 35.532H69.015ZM60.2433 34.6486L60.758 40.6321L61.0037 34.086C61.0134 33.8114 61.1843 33.5675 61.4377 33.46C62.7147 32.9166 63.7958 32.9108 64.176 33.0049C64.5965 33.1105 65.8236 34.5834 66.1923 35.5992C66.561 36.6169 68.437 40.1041 68.9094 40.9106L67.5076 39.5779C67.5076 39.5779 67.3847 41.2255 67.4731 42.032C67.5614 42.8385 68.7712 45.0641 68.7712 45.0641C68.7712 45.0641 67.1409 43.2763 65.8793 42.3642C64.6177 41.4521 63.7228 41.1372 63.7228 41.1372C63.7228 41.1372 68.0184 44.7837 68.8249 46.8691C67.2465 44.8528 64.8635 43.188 63.8995 42.8712C66.4419 45.0967 67.8783 47.4471 67.8783 47.4471C67.8783 47.4471 65.1265 45.0794 63.9859 44.344C65.3531 46.3084 68.9882 49.4077 70.1326 53.5132C68.005 49.9991 63.5404 46.8211 62.2327 45.6517C60.9231 44.4822 59.8727 43.9004 59.8727 43.2322C59.8727 42.5639 59.5924 35.8795 60.2472 34.641L60.2433 34.6486ZM52.4606 18.8776L53.6646 18.2247L54.7802 17.9117L53.5877 19.279L53.605 20.9265L54.0428 21.1013L52.0266 22.8199L52.4586 18.8776H52.4606ZM42.3044 47.9944C42.3159 47.328 42.0355 46.9978 42.0355 46.9978L43.3336 40.3767L44.6125 39.8948C44.6125 39.8948 43.614 44.3478 43.4027 45.2599C43.1915 46.1721 43.4546 47.3108 43.1569 50.2564C43.7714 48.2056 44.1996 44.392 44.5856 43.2533C44.9716 42.1146 45.0849 40.8069 45.5054 39.6682C45.9259 38.5295 47.3892 37.8708 47.9941 36.9683C48.5989 36.0658 49.3882 34.9002 51.2719 34.1455C48.9043 34.2876 46.9763 36.3941 46.9763 36.3941L47.0666 35.6875C47.0666 35.6875 47.7137 29.3872 48.1285 27.7818C48.5432 26.1746 48.5817 25.1184 48.8601 24.744C49.1366 24.3695 50.2388 24.1525 50.2388 24.1525L49.4669 31.1883C49.4669 31.1883 50.8456 24.9014 51.0453 24.504C51.2431 24.1065 51.6886 23.8722 52.4241 23.5112C53.1595 23.1483 55.1009 20.9861 55.1009 20.9861C55.1009 20.9861 53.3016 24.0124 52.6583 24.4348C52.0151 24.8554 51.2911 25.9192 51.2911 25.9192L53.4879 24.4348L52.9963 29.6944C52.0611 29.6598 50.9628 30.2321 50.9628 30.2321C50.9628 30.2321 55.2296 30.6872 55.8133 31.9564C54.955 31.5186 53.7798 31.2728 53.7798 31.2728L53.534 36.1119C53.534 36.1119 50.6824 36.638 49.3267 37.771C51.3718 37.1392 54.1177 37.1642 54.1177 37.1642C54.1177 37.1642 51.0434 37.9246 49.7818 38.2049C48.5202 38.4853 46.5673 39.6182 46.5673 39.6182C46.5673 39.6182 48.8121 38.998 49.0099 39.0114C49.2077 39.023 49.7588 39.7239 49.7588 39.7239C48.8947 39.4781 46.4271 40.3191 46.4271 40.3191C46.4271 40.3191 48.1688 40.1905 49.4784 40.4708C50.788 40.7512 53.1826 43.1361 53.1826 43.1361C53.1826 43.1361 47.4794 43.1822 45.3748 44.5149C48.3743 43.7833 53.4629 44.5379 54.9818 45.0756C56.5008 45.6133 58.6054 45.0526 58.6054 45.0526L54.4922 40.1674L57.7412 42.5985C57.7412 42.5985 58.1618 32.1273 57.4148 30.6776C56.6659 29.2278 55.4273 26.6335 55.4273 26.6335L56.9232 28.7842C56.3164 26.1669 56.3164 18.7106 56.3164 18.7106L57.5147 23.2443C57.5147 23.2443 58.2098 29.2527 58.4901 30.234C58.7705 31.2152 59.4483 32.2214 59.145 34.2319C58.8415 36.2424 58.3961 42.9748 58.7935 43.885C59.191 44.7972 65.2225 49.7764 66.5302 50.7096C67.8398 51.6448 68.5638 52.5569 70.2939 56.3436C70.2939 56.3436 67.909 53.2232 67.3655 52.5223C66.8221 51.8214 65.7871 51.2607 64.9691 50.6808C64.151 50.1028 62.3172 48.8585 61.334 47.8408C60.3528 46.823 59.5981 46.1394 58.8627 46.0184C58.1272 45.8955 56.0053 45.9128 55.8824 45.9666C55.7596 46.0184 56.6006 48.0001 56.7581 48.4034C56.9155 48.8066 57.6702 49.1216 59.3005 50.6827C58.6342 50.5944 56.4432 49.3328 56.4432 49.3328C56.4432 49.3328 59.5117 52.7681 59.8074 56.2361C58.2981 53.3231 54.7245 49.3328 54.1984 49.1581C53.6722 48.9833 50.9896 49.0006 49.1846 49.6496C50.0967 49.544 51.7962 50.001 53.0597 50.7538C52.6219 51.1743 52.4106 52.3149 52.2013 52.3668C51.9901 52.4186 50.5537 52.6471 49.2557 52.8584C47.9576 53.0696 45.8818 53.6303 44.4781 54.7786C45.9356 54.4963 48.3704 54.4195 48.9753 55.0513C47.8539 54.9457 45.8722 55.7176 45.8722 55.7176C45.8722 55.7176 49.5879 55.3854 50.9378 56.1382C50.1313 56.3839 46.7824 56.9274 46.7824 56.9274C46.7824 56.9274 49.8145 57.1559 52.3165 57.5419C51.0549 57.8222 48.5068 57.8222 48.5068 57.8222C48.5068 57.8222 51.5446 58.406 54.7015 58.9206C57.8565 59.4352 58.9318 58.8745 58.9318 58.8745C58.9318 58.8745 57.6702 59.6465 56.6409 59.7386C55.6117 59.8327 50.4942 59.5274 48.6469 58.7094C46.7997 57.8913 42.7326 57.5399 42.7326 57.5399C42.7326 57.5399 43.1992 53.4498 43.2242 53.3788C43.2472 53.3077 41.2847 58.5212 41.2847 58.5212C41.2847 58.5212 42.289 48.6684 42.3005 48.0021L42.3044 47.9944ZM36.2767 45.6805L36.9526 45.7688C36.4706 45.8994 35.8926 46.5235 35.8926 46.5235L35.7352 43.0344L36.2786 45.6824L36.2767 45.6805ZM31.3071 51.1743C31.4933 49.9473 31.5644 47.762 31.5759 47.691C31.5874 47.6218 32.5284 44.1366 32.5284 44.1366L35.1303 42.8404L35.5854 42.6772C35.5854 42.6772 35.1533 43.1803 34.3123 43.9273C33.4712 44.6762 33.3771 45.1428 33.3195 45.5979C33.2619 46.053 32.9931 47.5738 32.9931 47.5738C32.9931 47.5738 33.6479 45.6344 33.9628 45.6094C34.2777 45.5864 35.0151 45.8898 35.0036 46.3814C34.992 46.873 34.992 47.4567 34.992 47.4567L34.4428 48.1461C34.4428 48.1461 35.5297 47.3626 36.4649 46.8249C37.4 46.2873 38.2181 46.0415 38.533 46.2988C38.8479 46.5561 39.3971 47.2916 40.169 47.8177C40.941 48.3439 41.35 48.3669 41.3615 48.7298C41.373 49.0928 40.7547 55.3336 40.7547 55.3336C40.7547 55.3336 40.6491 49.3962 40.532 48.9871C40.4148 48.5781 39.1763 47.8657 39.1763 47.8657C39.1763 47.8657 39.4105 48.918 39.9252 49.6765C39.0361 48.9526 38.5464 47.6199 38.5349 47.1629C38.5234 46.7078 37.9742 46.7654 36.8988 47.3377C35.8235 47.9099 35.0765 48.3304 34.9364 49.208C34.7962 50.0836 34.7847 54.1987 34.7847 54.1987L35.6142 49.7226C35.6142 49.7226 35.9061 52.4628 35.837 53.4633C35.7659 54.4618 35.5393 56.4089 35.5393 56.4089C35.5393 56.4089 37.0121 54.9534 37.6247 53.9721C36.9238 55.6197 36.5724 57.0752 35.2762 58.285L35.2417 59.1088C35.2417 59.1088 37.1581 58.4655 39.1455 58.863C36.8547 58.6998 32.273 61.1078 32.273 61.1078L32.1789 58.502C32.1789 58.502 30.9057 61.7741 30.9288 61.728C30.9518 61.6819 31.1151 59.368 31.3493 58.1986C31.5836 57.0292 31.7929 55.4161 31.7929 55.4161C31.7929 55.4161 31.1381 57.6609 30.7637 58.6652C30.3892 59.6695 29.9687 61.1654 29.9687 61.1654C29.9687 61.1654 30.0973 58.7689 30.4718 57.6475C30.8462 56.5261 31.453 54.9706 31.7814 53.663C32.1078 52.3533 32.3075 50.6482 32.3075 50.6482L30.9288 55.4046C30.9288 55.4046 31.1266 52.4014 31.3148 51.1743H31.3071ZM26.1358 56.9888C26.1358 56.9888 26.8905 52.6356 28.0983 51.8598C29.3081 51.0841 30.7713 50.4158 30.7713 50.4158L30.4295 53.4421L30.1837 52.7643C29.4656 53.2367 28.4305 54.7978 28.4305 54.7978L29.1852 54.3946C29.1852 54.3946 28.3441 56.8141 28.0638 58.1467C27.7834 59.4794 27.5376 62.8629 27.5376 62.8629L29.2563 59.0934L29.1679 62.4769L27.6951 63.8326C27.6951 63.8326 34.0415 60.3742 38.8095 59.7463C43.5775 59.1203 52.835 60.8985 52.835 60.8985C52.835 60.8985 50.2638 61.4592 47.6926 61.1788C45.1214 60.8985 43.3912 60.7813 41.8953 60.7813C40.3995 60.7813 36.5897 61.1078 32.5687 63.8595C36.0981 62.8475 42.2813 62.8629 42.2813 62.8629C42.2813 62.8629 34.8826 64.4048 31.8332 65.5973C28.782 66.7898 28.2577 66.7898 22.401 68.0514C28.4325 66.2156 29.2851 64.3703 29.2851 64.3703C29.2851 64.3703 25.3005 65.9833 22.401 67.1278C23.6741 66.2387 26.036 64.8715 26.036 64.8715L26.4239 62.8878C26.4239 62.8878 25.8977 63.4217 25.433 64.4125C25.4599 63.8345 25.6078 63.2373 25.9765 62.5902C26.3452 61.9412 26.1685 61.8106 26.4853 60.092C26.8003 58.3733 27.5722 55.6735 27.5722 55.6735L26.1339 56.9888H26.1358ZM34.2182 67.2449C32.1136 67.7365 26.8905 69.384 21.1758 70.1867C21.1758 70.1867 39.3741 64.1245 44.6682 64.5796C41.8992 64.545 36.3228 66.7533 34.2201 67.2449H34.2182ZM40.0961 66.8589C40.0961 66.8589 36.3324 68.1916 34.7904 68.7292C33.2485 69.2669 29.2966 70.5996 26.7734 70.0619C28.3864 70.0389 31.7046 68.7772 34.487 68.0514C37.2695 67.3275 40.0961 66.8589 40.0961 66.8589ZM16.8438 67.122C18.7198 66.1753 19.2095 64.6506 19.632 63.967C20.0525 63.2834 21.1221 61.8106 22.0342 61.2153C22.9463 60.62 25.4695 59.9364 25.4695 59.9364C25.4695 59.9364 25.0835 61.3574 24.855 61.6186C24.6265 61.8816 23.4168 62.3022 22.401 62.8802C21.3928 63.4524 20.6113 65.0558 20.5114 65.1384C20.6228 65.052 22.3933 63.8134 23.4878 63.8614C21.0395 65.0539 19.6492 67.5099 18.1764 68.1762C16.7036 68.8425 15.4938 69.071 14.1266 70.035C14.1266 70.035 14.9677 68.0706 16.8438 67.1239V67.122ZM152.292 188.347C152.292 193.085 148.439 196.937 143.703 196.937H15.4804C10.7431 196.937 6.8911 193.083 6.8911 188.347V79.9877C6.8911 75.2504 10.745 71.3984 15.4804 71.3984H31.1842C35.0938 70.2194 44.2553 67.4043 47.0608 66.0927C50.6613 64.4106 59.3562 60.9503 63.5174 60.1092C67.6785 59.2682 73.9885 58.7535 73.9885 58.7535C73.9885 58.7535 61.9504 61.1731 58.759 63.3122C58.759 63.3122 61.599 62.5768 63.4214 62.6459C63.4214 62.6459 49.8874 68.5007 47.6427 70.2194C54.5152 67.4139 64.1568 63.5926 64.1568 63.5926L51.078 70.9913L64.1914 65.6626L55.4254 70.9913L61.6662 68.4316L58.2232 71.4003H59.4349C61.2169 70.5228 64.6945 68.7888 66.2249 67.8709C68.3295 66.6093 73.9386 61.8394 77.3393 59.7021C80.7401 57.563 82.4933 56.6163 84.1409 56.6874C85.7884 56.7584 93.5366 59.562 95.6758 59.6676C91.7834 60.0536 86.5604 57.5284 83.5801 57.949C80.5999 58.3695 69.0285 67.2411 69.0285 67.2411C69.0285 67.2411 78.6355 61.5264 82.6335 60.4741C78.1113 63.1394 70.4667 68.4335 70.4667 68.4335C70.4667 68.4335 81.441 62.3675 85.894 61.2806C78.4953 65.3822 73.8675 68.013 71.5882 69.9755C76.2505 67.6616 77.9692 67.2756 77.9692 67.2756C77.9692 67.2756 74.603 69.4705 72.579 71.4022H88.8627L97.6921 67.5348C97.6921 67.5348 88.2425 70.4978 86.3146 70.7954C88.471 69.288 93.7479 66.7629 93.7479 66.7629L84.0352 69.9352C84.0352 69.9352 90.084 66.7264 91.5569 65.9372C93.0297 65.148 94.8885 64.376 94.8885 64.376L84.0372 67.7249C84.0372 67.7249 88.9626 64.376 90.4719 64.0784C87.9122 64.2704 85.3007 64.8503 85.3007 64.8503C85.3007 64.8503 87.1057 63.3775 90.3317 62.8168C93.5578 62.2561 94.7502 62.2734 96.2922 61.3958C97.8342 60.5202 102.13 58.8015 104.398 57.9355C106.665 57.0714 108.839 56.743 110.452 56.8141C112.065 56.8851 113.772 58.0757 117.231 61.1615C120.691 64.2474 122.747 67.2622 122.747 67.2622C122.747 67.2622 118.774 63.4754 116.507 61.6531C114.239 59.8308 112.393 58.0526 110.149 57.9605C107.904 57.8664 102.132 59.7828 98.7655 61.5129C106.339 59.3853 108.584 59.4794 110.055 59.994C111.527 60.5087 112.274 61.6531 112.274 61.6531C112.274 61.6531 108.559 61.2787 105.45 61.8874C109.494 61.7933 112.44 62.8456 115.781 64.6218C111.362 63.5695 108.371 63.3372 104.701 63.9901C109.496 63.6425 112.415 64.6218 115.827 66.1177C110.31 64.8561 108.417 64.7159 104.91 65.1365C111.923 65.8373 113.653 66.4461 118.398 68.6198C113.419 67.3102 110.193 66.4461 105.425 66.7034C114.051 67.8728 117.3 69.7892 117.3 69.7892C117.3 69.7892 112.086 68.3164 105.963 68.3625C112.017 69.2976 113.98 70.2098 115.103 70.7225C111.41 69.9275 107.249 69.8584 107.249 69.8584L113.525 71.4003H129.772L126.955 68.5507L134.928 71.4003H141.983C140.567 70.878 133.662 68.3279 130.179 67.0433C130.179 67.0433 134.807 67.9899 137.226 68.7619C139.646 69.5338 143.398 71.2505 143.398 71.2505L142.689 71.4003H143.699C148.437 71.4003 152.289 75.2542 152.289 79.9896V188.355L152.292 188.347ZM24.4691 155.208C21.6617 164.415 18.524 174.036 14.9312 184.109H23.8507L25.8324 177.586H34.8327L36.7318 184.109H45.9797C42.5943 174.034 39.3741 164.415 36.7721 155.208H24.4671H24.4691ZM26.7407 172.549L30.2087 161.03H30.539L33.9244 172.549H26.7388H26.7407ZM129.879 168.379H129.549C128.516 165.034 125.874 158.883 124.635 155.208H114.354C117.987 161.979 121.538 168.544 124.345 174.406C124.263 177.504 124.138 181.385 124.015 184.109H134.832C134.709 181.095 134.584 177.296 134.544 174.159C137.558 167.883 140.736 161.731 144.247 155.208H134.544C133.388 158.758 130.868 165.034 129.877 168.379H129.879ZM80.043 155.208C79.0944 160.122 76.6173 169.66 75.7897 174.696H75.5842C74.5934 169.66 72.1988 160.122 71.3309 155.208H61.6278C60.8847 159.709 58.4479 169.452 57.457 174.491H57.2093C56.3414 169.454 53.7817 159.709 52.956 155.208H44.2861C46.4329 164.498 48.5797 174.118 50.4789 184.109H62.2039C63.3196 178.742 65.4242 169.988 66.3324 165.158H66.5398C67.4481 169.99 69.6775 178.742 70.6684 184.109H82.4357C84.377 174.118 86.4413 164.498 88.7533 155.208H80.0411H80.043ZM37.3616 114.093C37.5402 118.164 37.6746 122.323 37.6746 126.483H26.7177C26.7177 122.323 26.8521 118.164 27.0307 114.093H17.4141C17.8615 124.29 17.8615 134.713 17.4141 145.401H27.0307C26.8521 140.885 26.7177 136.456 26.7177 132.073H37.6746C37.6746 136.456 37.5402 140.883 37.3616 145.401H46.9782C46.5308 134.711 46.5308 124.29 46.9782 114.093H37.3616ZM43.7196 106.693L45.2596 101.621H52.257L53.7318 106.693H60.9212C58.2904 98.8618 55.7864 91.3844 53.7644 84.2276H44.2016C42.0182 91.3844 39.5795 98.8618 36.7875 106.693H43.7196ZM48.6623 88.7536H48.9196L51.5504 97.7077H45.9663L48.6623 88.7536ZM31.7161 106.693L38.2315 84.2276H31.4914L26.8694 101.59H26.6121L21.9267 84.2276H14.9293L21.508 106.693H31.7123H31.7161Z" fill="#3A3A39"/>
<path d="M32.0327 215.412V215.794H29.8513V221.624H29.4038V215.794H27.209V215.412H32.0346H32.0327Z" fill="#3A3A39" stroke="#3A3A39" stroke-width="0.192025" stroke-miterlimit="10"/>
<path d="M34.7423 218.815V221.624H34.2949V215.412H35.8791C36.5954 215.412 37.1311 215.55 37.4864 215.827C37.8397 216.103 38.0183 216.51 38.0183 217.044C38.0183 217.281 37.978 217.498 37.8954 217.693C37.8128 217.889 37.6957 218.062 37.5421 218.21C37.3884 218.358 37.2041 218.479 36.9871 218.575C36.7701 218.671 36.5263 218.732 36.2536 218.761C36.3246 218.805 36.3861 218.863 36.4418 218.936L38.579 221.622H38.1873C38.1393 221.622 38.1009 221.613 38.0663 221.595C38.0317 221.578 37.9991 221.549 37.9664 221.507L35.9771 218.988C35.9271 218.922 35.8734 218.878 35.8177 218.851C35.7601 218.824 35.6717 218.811 35.5527 218.811H34.7404L34.7423 218.815ZM34.7423 218.481H35.8215C36.0961 218.481 36.3438 218.448 36.5608 218.383C36.7797 218.317 36.9621 218.223 37.1138 218.099C37.2655 217.976 37.3788 217.828 37.4576 217.655C37.5363 217.482 37.5766 217.288 37.5766 217.071C37.5766 216.63 37.4326 216.301 37.1427 216.088C36.8527 215.875 36.4322 215.767 35.8791 215.767H34.7423V218.481Z" fill="#3A3A39" stroke="#3A3A39" stroke-width="0.192025" stroke-miterlimit="10"/>
<path d="M45.4327 221.624H45.0851C45.0448 221.624 45.0102 221.613 44.9852 221.591C44.9584 221.57 44.9372 221.542 44.9238 221.505L44.1903 219.7H41.139L40.4112 221.505C40.3997 221.538 40.3786 221.565 40.3498 221.588C40.321 221.611 40.2845 221.622 40.2441 221.622H39.9023L42.4448 215.41H42.8922L45.4346 221.622L45.4327 221.624ZM41.2753 219.368H44.0578L42.7885 216.228C42.7674 216.178 42.7482 216.123 42.727 216.059C42.7059 215.996 42.6848 215.931 42.6656 215.859C42.6445 215.931 42.6233 215.996 42.6041 216.059C42.583 216.123 42.5638 216.18 42.5427 216.232L41.2734 219.366L41.2753 219.368Z" fill="#3A3A39" stroke="#3A3A39" stroke-width="0.192025" stroke-miterlimit="10"/>
<path d="M50.4744 216.168C50.4494 216.218 50.411 216.242 50.3611 216.242C50.3227 216.242 50.2747 216.216 50.2132 216.162C50.1537 216.108 50.0711 216.049 49.9694 215.981C49.8657 215.916 49.737 215.855 49.5834 215.799C49.4298 215.743 49.2397 215.716 49.0131 215.716C48.7865 215.716 48.5887 215.749 48.4159 215.812C48.245 215.878 48.101 215.964 47.9838 216.075C47.8686 216.187 47.7803 216.315 47.7188 216.461C47.6593 216.607 47.6286 216.761 47.6286 216.922C47.6286 217.133 47.6728 217.306 47.763 217.445C47.8513 217.583 47.9704 217.7 48.1163 217.796C48.2642 217.892 48.4293 217.975 48.6156 218.04C48.8019 218.105 48.992 218.17 49.1898 218.236C49.3856 218.301 49.5776 218.372 49.7639 218.449C49.9502 218.526 50.1172 218.624 50.2632 218.741C50.4091 218.858 50.5282 219.002 50.6165 219.173C50.7068 219.344 50.7509 219.557 50.7509 219.812C50.7509 220.068 50.7068 220.317 50.6165 220.548C50.5262 220.778 50.3976 220.978 50.2286 221.147C50.0596 221.316 49.8503 221.45 49.6045 221.548C49.3587 221.646 49.0784 221.696 48.7615 221.696C48.3525 221.696 47.9992 221.623 47.7035 221.479C47.4078 221.335 47.1485 221.135 46.9258 220.884L47.0487 220.69C47.0832 220.646 47.1255 220.624 47.1716 220.624C47.1985 220.624 47.2311 220.642 47.2733 220.676C47.3137 220.711 47.3636 220.755 47.4231 220.807C47.4827 220.859 47.5518 220.914 47.6344 220.974C47.7169 221.033 47.811 221.089 47.9205 221.141C48.028 221.193 48.1547 221.235 48.2949 221.27C48.4351 221.304 48.5945 221.322 48.775 221.322C49.0208 221.322 49.2416 221.285 49.4336 221.21C49.6276 221.135 49.7908 221.033 49.9233 220.905C50.0577 220.776 50.1576 220.623 50.2286 220.446C50.2977 220.269 50.3342 220.079 50.3342 219.878C50.3342 219.659 50.2901 219.478 50.1998 219.336C50.1096 219.194 49.9924 219.075 49.8465 218.981C49.7005 218.887 49.5335 218.806 49.3472 218.741C49.161 218.675 48.9689 218.614 48.7731 218.553C48.5772 218.491 48.3852 218.422 48.1989 218.347C48.0126 218.27 47.8456 218.174 47.6996 218.055C47.5518 217.936 47.4346 217.788 47.3444 217.612C47.2561 217.435 47.21 217.212 47.21 216.947C47.21 216.74 47.2503 216.538 47.329 216.346C47.4078 216.152 47.523 215.983 47.6766 215.835C47.8302 215.688 48.0184 215.568 48.2412 215.48C48.4658 215.392 48.7212 215.346 49.0093 215.346C49.3319 215.346 49.6199 215.398 49.8772 215.499C50.1345 215.601 50.3669 215.759 50.5781 215.97L50.4725 216.171L50.4744 216.168Z" fill="#3A3A39" stroke="#3A3A39" stroke-width="0.192025" stroke-miterlimit="10"/>
<path d="M57.9043 221.624H57.453V218.648H53.5626V221.624H53.1113V215.412H53.5626V218.31H57.453V215.412H57.9043V221.624Z" fill="#3A3A39" stroke="#3A3A39" stroke-width="0.192025" stroke-miterlimit="10"/>
<path d="M68.3417 221.624H67.8886V218.648H64.0001V221.624H63.5469V215.412H64.0001V218.31H67.8886V215.412H68.3417V221.624Z" fill="#3A3A39" stroke="#3A3A39" stroke-width="0.192025" stroke-miterlimit="10"/>
<path d="M75.9151 221.624H75.5675C75.5272 221.624 75.4926 221.613 75.4677 221.591C75.4408 221.57 75.4197 221.542 75.4062 221.505L74.6727 219.7H71.6214L70.8936 221.505C70.8821 221.538 70.861 221.565 70.8322 221.588C70.8034 221.611 70.7669 221.622 70.7266 221.622H70.3848L72.9272 215.41H73.3746L75.917 221.622L75.9151 221.624ZM71.7577 219.368H74.5402L73.2709 216.228C73.2498 216.178 73.2306 216.123 73.2095 216.059C73.1883 215.996 73.1672 215.931 73.148 215.859C73.1269 215.931 73.1058 215.996 73.0866 216.059C73.0654 216.123 73.0462 216.18 73.0251 216.232L71.7558 219.366L71.7577 219.368Z" fill="#3A3A39" stroke="#3A3A39" stroke-width="0.192025" stroke-miterlimit="10"/>
<path d="M79.9949 221.303C80.2925 221.303 80.5594 221.252 80.7956 221.148C81.0318 221.044 81.2315 220.9 81.3947 220.716C81.5599 220.532 81.6847 220.315 81.7711 220.065C81.8575 219.815 81.8998 219.545 81.8998 219.255V215.414H82.3472V219.255C82.3472 219.596 82.2934 219.917 82.1859 220.215C82.0764 220.512 81.9209 220.772 81.7193 220.992C81.5157 221.213 81.268 221.386 80.9761 221.513C80.6843 221.638 80.3578 221.701 79.9949 221.701C79.632 221.701 79.3055 221.638 79.0136 221.513C78.7218 221.386 78.476 221.213 78.2724 220.992C78.0689 220.772 77.9133 220.512 77.8058 220.215C77.6983 219.917 77.6426 219.598 77.6426 219.255V215.414H78.0958V219.251C78.0958 219.541 78.138 219.81 78.2244 220.061C78.3108 220.311 78.4356 220.528 78.5969 220.714C78.7602 220.898 78.9579 221.042 79.1941 221.148C79.4303 221.254 79.6972 221.305 79.9949 221.305V221.303Z" fill="#3A3A39" stroke="#3A3A39" stroke-width="0.192025" stroke-miterlimit="10"/>
<path d="M85.6388 221.242H88.5845V221.624H85.1914V215.412H85.6388V221.242Z" fill="#3A3A39" stroke="#3A3A39" stroke-width="0.192025" stroke-miterlimit="10"/>
<path d="M91.3516 221.624H90.8984V215.412H91.3516V221.624Z" fill="#3A3A39" stroke="#3A3A39" stroke-width="0.192025" stroke-miterlimit="10"/>
<path d="M94.731 215.427C94.754 215.437 94.779 215.46 94.8059 215.495L98.8269 220.877C98.8173 220.789 98.8134 220.704 98.8134 220.622V215.41H99.209V221.622H98.9939C98.9267 221.622 98.8729 221.593 98.8326 221.534L94.7943 216.144C94.802 216.232 94.8078 216.315 94.8078 216.393V221.622H94.418V215.41H94.6369C94.6772 215.41 94.7098 215.416 94.7329 215.426L94.731 215.427Z" fill="#3A3A39" stroke="#3A3A39" stroke-width="0.192025" stroke-miterlimit="10"/>
<path d="M104.776 221.331C104.989 221.331 105.185 221.32 105.36 221.298C105.535 221.277 105.698 221.243 105.849 221.201C106.001 221.156 106.143 221.103 106.28 221.041C106.416 220.978 106.552 220.907 106.69 220.828V219.155H105.496C105.463 219.155 105.437 219.146 105.415 219.125C105.394 219.104 105.383 219.081 105.383 219.054V218.808H107.1V221.016C106.944 221.124 106.785 221.222 106.618 221.306C106.45 221.391 106.272 221.462 106.082 221.519C105.892 221.577 105.686 221.621 105.467 221.652C105.248 221.683 105.008 221.698 104.747 221.698C104.3 221.698 103.891 221.623 103.52 221.471C103.15 221.32 102.833 221.106 102.568 220.83C102.303 220.553 102.097 220.219 101.951 219.828C101.805 219.436 101.732 219 101.732 218.52C101.732 218.04 101.805 217.604 101.951 217.214C102.097 216.822 102.307 216.49 102.575 216.214C102.844 215.937 103.173 215.724 103.557 215.572C103.941 215.423 104.373 215.346 104.849 215.346C105.085 215.346 105.304 215.361 105.506 215.394C105.705 215.426 105.894 215.474 106.066 215.536C106.239 215.599 106.401 215.676 106.548 215.768C106.698 215.86 106.84 215.966 106.979 216.087L106.859 216.281C106.835 216.325 106.796 216.346 106.75 216.346C106.725 216.346 106.698 216.34 106.675 216.329C106.631 216.312 106.568 216.271 106.485 216.206C106.402 216.143 106.289 216.073 106.147 216.004C106.005 215.933 105.826 215.872 105.613 215.816C105.4 215.76 105.141 215.734 104.836 215.734C104.432 215.734 104.067 215.799 103.743 215.928C103.418 216.056 103.14 216.241 102.911 216.481C102.681 216.721 102.504 217.013 102.38 217.358C102.255 217.704 102.193 218.092 102.193 218.522C102.193 218.952 102.257 219.355 102.381 219.703C102.506 220.05 102.683 220.346 102.91 220.588C103.136 220.83 103.409 221.014 103.726 221.143C104.042 221.272 104.394 221.337 104.776 221.337V221.331Z" fill="#3A3A39" stroke="#3A3A39" stroke-width="0.192025" stroke-miterlimit="10"/>
<path d="M116.992 220.58C117.021 220.58 117.046 220.59 117.067 220.611L117.244 220.799C117.115 220.937 116.975 221.06 116.823 221.17C116.672 221.279 116.505 221.373 116.324 221.45C116.144 221.527 115.948 221.588 115.731 221.631C115.516 221.673 115.28 221.694 115.022 221.694C114.592 221.694 114.199 221.619 113.839 221.467C113.48 221.316 113.173 221.103 112.918 220.826C112.662 220.55 112.463 220.215 112.319 219.824C112.175 219.432 112.104 218.996 112.104 218.516C112.104 218.036 112.176 217.615 112.326 217.226C112.474 216.836 112.682 216.502 112.948 216.223C113.217 215.943 113.536 215.728 113.91 215.574C114.283 215.421 114.696 215.344 115.145 215.344C115.37 215.344 115.577 215.361 115.764 215.394C115.95 215.426 116.126 215.476 116.288 215.538C116.451 215.601 116.603 215.68 116.747 215.772C116.889 215.866 117.031 215.974 117.167 216.096L117.031 216.294C117.008 216.329 116.971 216.346 116.921 216.346C116.895 216.346 116.862 216.331 116.82 216.3C116.777 216.269 116.726 216.231 116.664 216.185C116.601 216.139 116.526 216.089 116.436 216.035C116.347 215.981 116.24 215.931 116.117 215.885C115.994 215.839 115.852 215.803 115.691 215.77C115.529 215.739 115.347 215.724 115.141 215.724C114.765 215.724 114.417 215.789 114.101 215.92C113.786 216.05 113.513 216.237 113.284 216.477C113.056 216.719 112.877 217.011 112.751 217.354C112.624 217.698 112.561 218.084 112.561 218.51C112.561 218.937 112.624 219.342 112.749 219.687C112.874 220.033 113.048 220.325 113.271 220.563C113.494 220.801 113.757 220.985 114.058 221.112C114.362 221.239 114.69 221.302 115.043 221.302C115.266 221.302 115.464 221.287 115.639 221.258C115.812 221.229 115.973 221.185 116.119 221.126C116.265 221.068 116.401 220.995 116.528 220.911C116.653 220.826 116.777 220.726 116.9 220.613C116.916 220.601 116.929 220.592 116.943 220.584C116.956 220.576 116.971 220.573 116.989 220.573L116.992 220.58Z" fill="#3A3A39" stroke="#3A3A39" stroke-width="0.192025" stroke-miterlimit="10"/>
<path d="M125.25 218.518C125.25 218.998 125.179 219.434 125.035 219.824C124.891 220.215 124.689 220.548 124.43 220.824C124.169 221.101 123.858 221.314 123.495 221.466C123.132 221.617 122.729 221.692 122.287 221.692C121.846 221.692 121.452 221.617 121.089 221.466C120.726 221.316 120.415 221.101 120.154 220.824C119.895 220.548 119.691 220.214 119.547 219.824C119.401 219.434 119.33 218.998 119.33 218.518C119.33 218.038 119.403 217.608 119.547 217.216C119.691 216.824 119.895 216.492 120.154 216.216C120.415 215.939 120.726 215.724 121.089 215.572C121.452 215.421 121.851 215.344 122.287 215.344C122.723 215.344 123.132 215.419 123.495 215.57C123.858 215.722 124.169 215.935 124.43 216.214C124.689 216.492 124.893 216.826 125.035 217.216C125.179 217.606 125.25 218.04 125.25 218.518ZM124.784 218.518C124.784 218.086 124.724 217.696 124.603 217.35C124.482 217.005 124.313 216.713 124.096 216.473C123.877 216.233 123.616 216.048 123.309 215.922C123.002 215.795 122.66 215.732 122.285 215.732C121.911 215.732 121.579 215.795 121.273 215.922C120.968 216.048 120.705 216.233 120.484 216.473C120.263 216.713 120.092 217.005 119.97 217.35C119.849 217.696 119.787 218.086 119.787 218.518C119.787 218.95 119.847 219.344 119.97 219.687C120.091 220.031 120.261 220.323 120.484 220.563C120.705 220.803 120.968 220.985 121.273 221.112C121.579 221.237 121.917 221.3 122.285 221.3C122.654 221.3 123.002 221.237 123.309 221.112C123.616 220.985 123.879 220.803 124.096 220.563C124.313 220.323 124.482 220.031 124.603 219.687C124.724 219.344 124.784 218.954 124.784 218.518Z" fill="#3A3A39" stroke="#3A3A39" stroke-width="0.192025" stroke-miterlimit="10"/>
<path d="M127.049 221.286C127.049 221.23 127.058 221.178 127.08 221.129C127.101 221.079 127.128 221.036 127.166 221C127.202 220.963 127.245 220.935 127.293 220.912C127.341 220.89 127.394 220.879 127.454 220.879C127.51 220.879 127.562 220.89 127.611 220.912C127.661 220.933 127.704 220.963 127.742 221C127.779 221.036 127.807 221.081 127.83 221.129C127.851 221.178 127.863 221.23 127.863 221.286C127.863 221.346 127.851 221.397 127.83 221.445C127.809 221.493 127.779 221.536 127.742 221.572C127.706 221.609 127.661 221.637 127.611 221.659C127.562 221.68 127.51 221.689 127.454 221.689C127.341 221.689 127.245 221.651 127.166 221.572C127.087 221.495 127.049 221.399 127.049 221.284V221.286Z" fill="#3A3A39" stroke="#3A3A39" stroke-width="0.192025" stroke-miterlimit="10"/>
<path d="M65.865 228.188V228.485H63.2496V230.494H65.4272V230.786H63.2496V232.858H65.865V233.155H62.8867V228.188H65.865Z" fill="#3A3A39" stroke="#3A3A39" stroke-width="0.192025" stroke-miterlimit="10"/>
<path d="M69.9495 228.789C69.9284 228.83 69.8977 228.849 69.8574 228.849C69.8266 228.849 69.7882 228.828 69.7402 228.784C69.6922 228.741 69.6269 228.693 69.5443 228.64C69.4618 228.588 69.36 228.538 69.2371 228.494C69.1142 228.45 68.9606 228.426 68.7801 228.426C68.5996 228.426 68.4402 228.451 68.3039 228.503C68.1656 228.555 68.0504 228.624 67.9582 228.715C67.866 228.803 67.795 228.907 67.747 229.024C67.699 229.141 67.674 229.264 67.674 229.392C67.674 229.561 67.7105 229.7 67.7816 229.811C67.8526 229.92 67.9467 230.015 68.0658 230.091C68.1829 230.168 68.3154 230.233 68.4652 230.285C68.6149 230.337 68.7666 230.391 68.9241 230.441C69.0816 230.493 69.2333 230.548 69.383 230.612C69.5328 230.673 69.6653 230.752 69.7825 230.846C69.8996 230.94 69.9937 231.055 70.0667 231.192C70.1377 231.328 70.1742 231.499 70.1742 231.702C70.1742 231.906 70.1377 232.108 70.0667 232.29C69.9956 232.474 69.8919 232.634 69.7556 232.77C69.6192 232.906 69.4541 233.012 69.2582 233.091C69.0624 233.17 68.8377 233.208 68.5842 233.208C68.2559 233.208 67.9755 233.15 67.7374 233.035C67.5012 232.92 67.2938 232.761 67.1152 232.559L67.2132 232.405C67.2401 232.371 67.2746 232.353 67.3111 232.353C67.3322 232.353 67.3591 232.367 67.3918 232.396C67.4244 232.424 67.4647 232.459 67.5108 232.499C67.5588 232.54 67.6145 232.586 67.6798 232.634C67.7451 232.682 67.8219 232.726 67.9083 232.766C67.9947 232.807 68.0946 232.841 68.2079 232.87C68.3212 232.899 68.4479 232.912 68.5919 232.912C68.7878 232.912 68.9644 232.881 69.12 232.822C69.2755 232.762 69.4061 232.682 69.5117 232.578C69.6192 232.474 69.6999 232.353 69.7556 232.211C69.8113 232.069 69.8401 231.918 69.8401 231.756C69.8401 231.581 69.8036 231.436 69.7325 231.322C69.6615 231.209 69.5674 231.113 69.4483 231.038C69.3312 230.961 69.1987 230.898 69.0489 230.846C68.8991 230.794 68.7474 230.744 68.59 230.694C68.4325 230.644 68.2808 230.591 68.131 230.529C67.9813 230.468 67.8488 230.391 67.7316 230.295C67.6145 230.201 67.5204 230.082 67.4474 229.94C67.3764 229.798 67.3399 229.621 67.3399 229.408C67.3399 229.241 67.3725 229.081 67.4359 228.928C67.4993 228.774 67.5915 228.638 67.7124 228.519C67.8353 228.4 67.9851 228.306 68.1637 228.234C68.3442 228.163 68.5477 228.127 68.7782 228.127C69.0355 228.127 69.2678 228.167 69.4733 228.25C69.6788 228.332 69.865 228.457 70.034 228.626L69.9495 228.788V228.789Z" fill="#3A3A39" stroke="#3A3A39" stroke-width="0.192025" stroke-miterlimit="10"/>
<path d="M74.9633 228.188V228.493H73.2177V233.155H72.8606V228.493H71.1055V228.188H74.9652H74.9633Z" fill="#3A3A39" stroke="#3A3A39" stroke-width="0.192025" stroke-miterlimit="10"/>
<path d="M75.3281 232.883C75.3281 232.839 75.3358 232.797 75.3531 232.756C75.3704 232.716 75.3915 232.681 75.4222 232.653C75.451 232.624 75.4856 232.601 75.524 232.582C75.5624 232.564 75.6066 232.555 75.6526 232.555C75.6968 232.555 75.7391 232.564 75.7794 232.582C75.8197 232.599 75.8543 232.622 75.8831 232.653C75.9119 232.681 75.9349 232.716 75.9522 232.756C75.9695 232.797 75.9791 232.839 75.9791 232.883C75.9791 232.927 75.9695 232.973 75.9522 233.012C75.9349 233.05 75.9119 233.085 75.8831 233.113C75.8543 233.142 75.8197 233.165 75.7794 233.183C75.7391 233.2 75.6968 233.208 75.6526 233.208C75.5605 233.208 75.4837 233.177 75.4222 233.115C75.3608 233.054 75.3281 232.977 75.3281 232.885V232.883Z" fill="#3A3A39" stroke="#3A3A39" stroke-width="0.192025" stroke-miterlimit="10"/>
<path d="M80.827 228.131C81.0171 228.131 81.1976 228.158 81.3685 228.213C81.5414 228.269 81.6931 228.352 81.8236 228.463C81.9542 228.574 82.0598 228.715 82.1366 228.882C82.2134 229.049 82.2519 229.245 82.2519 229.469C82.2519 229.657 82.2231 229.83 82.1654 229.992C82.1078 230.151 82.0291 230.306 81.9312 230.452C81.8332 230.6 81.7199 230.742 81.5894 230.883C81.4588 231.023 81.3225 231.165 81.1804 231.309L79.625 232.897C79.6998 232.878 79.7786 232.864 79.8592 232.855C79.9399 232.845 80.0224 232.841 80.1031 232.841H82.248C82.2864 232.841 82.3152 232.853 82.3383 232.874C82.3594 232.897 82.3709 232.924 82.3709 232.96V233.156H79.166V233.037C79.166 233.012 79.1718 232.985 79.1852 232.958C79.1987 232.931 79.214 232.908 79.2332 232.889L80.9288 231.173C81.069 231.03 81.1996 230.892 81.3186 230.758C81.4377 230.623 81.5414 230.489 81.6297 230.355C81.718 230.218 81.7872 230.08 81.8371 229.936C81.887 229.794 81.912 229.64 81.912 229.479C81.912 229.296 81.8812 229.137 81.8217 229.003C81.7603 228.868 81.6796 228.757 81.5778 228.67C81.4761 228.584 81.3589 228.519 81.2264 228.476C81.0939 228.434 80.9557 228.413 80.8097 228.413C80.6542 228.413 80.5083 228.436 80.3758 228.484C80.2433 228.532 80.1261 228.599 80.0244 228.684C79.9226 228.77 79.8381 228.872 79.7728 228.989C79.7056 229.108 79.6595 229.237 79.6346 229.377C79.6115 229.46 79.5654 229.5 79.4944 229.5C79.4886 229.5 79.4829 229.5 79.4771 229.5C79.4694 229.5 79.4637 229.5 79.4598 229.5L79.2908 229.471C79.3196 229.258 79.3772 229.068 79.4637 228.903C79.552 228.736 79.6634 228.596 79.7959 228.482C79.9303 228.367 80.0839 228.281 80.2586 228.221C80.4334 228.162 80.6235 228.131 80.827 228.131Z" fill="#3A3A39" stroke="#3A3A39" stroke-width="0.192025" stroke-miterlimit="10"/>
<path d="M87.109 230.669C87.109 231.105 87.0629 231.482 86.9689 231.8C86.8748 232.119 86.748 232.382 86.5867 232.59C86.4254 232.799 86.2353 232.953 86.0203 233.054C85.8033 233.156 85.5728 233.208 85.327 233.208C85.0813 233.208 84.8508 233.156 84.6358 233.054C84.4207 232.953 84.2325 232.797 84.0712 232.59C83.9099 232.382 83.7832 232.117 83.691 231.8C83.5988 231.482 83.5527 231.105 83.5527 230.669C83.5527 230.234 83.5988 229.857 83.691 229.538C83.7832 229.22 83.9099 228.957 84.0712 228.749C84.2325 228.542 84.4207 228.386 84.6358 228.284C84.8508 228.183 85.0813 228.133 85.327 228.133C85.5728 228.133 85.8033 228.183 86.0203 228.284C86.2372 228.386 86.4254 228.542 86.5867 228.749C86.748 228.957 86.8748 229.222 86.9689 229.538C87.0629 229.857 87.109 230.234 87.109 230.669ZM86.7576 230.669C86.7576 230.266 86.7192 229.922 86.6424 229.636C86.5656 229.35 86.4619 229.118 86.3313 228.935C86.2008 228.755 86.0491 228.621 85.8743 228.538C85.6996 228.453 85.5171 228.411 85.3251 228.411C85.1331 228.411 84.9507 228.453 84.7778 228.538C84.605 228.622 84.4533 228.755 84.3208 228.935C84.1903 229.118 84.0866 229.35 84.0078 229.636C83.931 229.922 83.8926 230.266 83.8926 230.669C83.8926 231.073 83.931 231.418 84.0078 231.703C84.0846 231.987 84.1903 232.219 84.3208 232.402C84.4514 232.584 84.605 232.715 84.7778 232.799C84.9507 232.882 85.1331 232.924 85.3251 232.924C85.5171 232.924 85.6996 232.882 85.8743 232.799C86.0491 232.716 86.2008 232.584 86.3313 232.402C86.4619 232.219 86.5656 231.987 86.6424 231.703C86.7192 231.418 86.7576 231.073 86.7576 230.669Z" fill="#3A3A39" stroke="#3A3A39" stroke-width="0.192025" stroke-miterlimit="10"/>
<path d="M89.9852 228.131C90.1753 228.131 90.3558 228.158 90.5267 228.213C90.6996 228.269 90.8513 228.352 90.9819 228.463C91.1124 228.574 91.218 228.715 91.2948 228.882C91.3717 229.049 91.4101 229.245 91.4101 229.469C91.4101 229.657 91.3813 229.83 91.3237 229.992C91.266 230.151 91.1873 230.306 91.0894 230.452C90.9915 230.6 90.8782 230.742 90.7476 230.883C90.617 231.023 90.4807 231.165 90.3386 231.309L88.7832 232.897C88.8581 232.878 88.9368 232.864 89.0174 232.855C89.0981 232.845 89.1807 232.841 89.2613 232.841H91.4062C91.4446 232.841 91.4734 232.853 91.4965 232.874C91.5176 232.897 91.5291 232.924 91.5291 232.96V233.156H88.3242V233.037C88.3242 233.012 88.33 232.985 88.3434 232.958C88.3569 232.931 88.3722 232.908 88.3914 232.889L90.087 231.173C90.2272 231.03 90.3578 230.892 90.4768 230.758C90.5959 230.623 90.6996 230.489 90.7879 230.355C90.8762 230.218 90.9454 230.08 90.9953 229.936C91.0452 229.794 91.0702 229.64 91.0702 229.479C91.0702 229.296 91.0395 229.137 90.9799 229.003C90.9185 228.868 90.8378 228.757 90.7361 228.67C90.6343 228.584 90.5171 228.519 90.3846 228.476C90.2522 228.434 90.1139 228.413 89.968 228.413C89.8124 228.413 89.6665 228.436 89.534 228.484C89.4015 228.532 89.2843 228.599 89.1826 228.684C89.0808 228.77 88.9963 228.872 88.931 228.989C88.8638 229.108 88.8177 229.237 88.7928 229.377C88.7697 229.46 88.7236 229.5 88.6526 229.5C88.6468 229.5 88.6411 229.5 88.6353 229.5C88.6276 229.5 88.6219 229.5 88.618 229.5L88.449 229.471C88.4778 229.258 88.5354 229.068 88.6219 228.903C88.7102 228.736 88.8216 228.596 88.9541 228.482C89.0885 228.367 89.2421 228.281 89.4168 228.221C89.5916 228.162 89.7817 228.131 89.9852 228.131Z" fill="#3A3A39" stroke="#3A3A39" stroke-width="0.192025" stroke-miterlimit="10"/>
<path d="M94.5634 228.131C94.7535 228.131 94.934 228.158 95.1049 228.213C95.2777 228.269 95.4294 228.352 95.56 228.463C95.6905 228.574 95.7962 228.715 95.873 228.882C95.9498 229.049 95.9882 229.245 95.9882 229.469C95.9882 229.657 95.9594 229.83 95.9018 229.992C95.8442 230.151 95.7654 230.306 95.6675 230.452C95.5696 230.6 95.4563 230.742 95.3257 230.883C95.1951 231.023 95.0588 231.165 94.9167 231.309L93.3613 232.897C93.4362 232.878 93.5149 232.864 93.5956 232.855C93.6762 232.845 93.7588 232.841 93.8394 232.841H95.9843C96.0227 232.841 96.0516 232.853 96.0746 232.874C96.0957 232.897 96.1072 232.924 96.1072 232.96V233.156H92.9023V233.037C92.9023 233.012 92.9081 232.985 92.9215 232.958C92.935 232.931 92.9503 232.908 92.9695 232.889L94.6651 231.173C94.8053 231.03 94.9359 230.892 95.0549 230.758C95.174 230.623 95.2777 230.489 95.366 230.355C95.4544 230.218 95.5235 230.08 95.5734 229.936C95.6233 229.794 95.6483 229.64 95.6483 229.479C95.6483 229.296 95.6176 229.137 95.558 229.003C95.4966 228.868 95.416 228.757 95.3142 228.67C95.2124 228.584 95.0953 228.519 94.9628 228.476C94.8303 228.434 94.692 228.413 94.5461 228.413C94.3905 228.413 94.2446 228.436 94.1121 228.484C93.9796 228.532 93.8625 228.599 93.7607 228.684C93.6589 228.77 93.5744 228.872 93.5091 228.989C93.4419 229.108 93.3958 229.237 93.3709 229.377C93.3478 229.46 93.3018 229.5 93.2307 229.5C93.2249 229.5 93.2192 229.5 93.2134 229.5C93.2057 229.5 93.2 229.5 93.1961 229.5L93.0272 229.471C93.056 229.258 93.1136 229.068 93.2 228.903C93.2883 228.736 93.3997 228.596 93.5322 228.482C93.6666 228.367 93.8202 228.281 93.995 228.221C94.1697 228.162 94.3598 228.131 94.5634 228.131Z" fill="#3A3A39" stroke="#3A3A39" stroke-width="0.192025" stroke-miterlimit="10"/>
</g>
<defs>
<clipPath id="clip0_3397_9650">
<rect width="162" height="233.307" fill="white" transform="translate(0.986328)"/>
</clipPath>
</defs>
</svg>
