<svg width="135" height="87" viewBox="0 0 135 87" fill="none" xmlns="http://www.w3.org/2000/svg">
<g clip-path="url(#clip0_3397_9793)">
<path d="M18.849 5.63579C18.6012 5.22791 18.4743 4.75722 18.483 4.27911C18.4918 3.801 18.6359 3.33537 18.8984 2.93697C19.1732 2.54575 19.5394 2.2288 19.9648 2.01421C20.3901 1.79962 20.8614 1.69402 21.3369 1.70669H114.185C114.661 1.69402 115.132 1.79962 115.557 2.01421C115.983 2.2288 116.349 2.54575 116.624 2.93697C116.886 3.33537 117.03 3.801 117.039 4.27911C117.048 4.75722 116.921 5.22791 116.673 5.63579L111.087 14.9661C111.06 15.0119 111.046 15.064 111.046 15.1171C111.047 15.1701 111.061 15.2221 111.088 15.2676C111.115 15.3131 111.154 15.3504 111.2 15.3755C111.247 15.4007 111.299 15.4128 111.351 15.4106H112.498C112.506 15.41 112.514 15.4074 112.521 15.403C112.528 15.3987 112.533 15.3928 112.537 15.3857L117.94 6.33987C118.305 5.74096 118.5 5.0529 118.504 4.3503C118.508 3.64769 118.322 2.95727 117.965 2.35382C117.559 1.70918 116.994 1.18144 116.325 0.821908C115.657 0.462378 114.907 0.283291 114.15 0.302128H21.3828C20.6253 0.283291 19.8758 0.462378 19.2073 0.821908C18.5388 1.18144 17.974 1.70918 17.568 2.35382C17.21 2.95701 17.0231 3.64757 17.0274 4.35034C17.0318 5.05311 17.2273 5.74123 17.5927 6.33987L22.9955 15.3857C22.9995 15.3928 23.0052 15.3987 23.0119 15.403C23.0187 15.4074 23.0264 15.41 23.0344 15.4106H24.1531C24.2058 15.4121 24.2579 15.3993 24.3041 15.3737C24.3503 15.348 24.3889 15.3105 24.4159 15.2648C24.4428 15.2192 24.4572 15.1671 24.4576 15.114C24.4579 15.0609 24.4441 15.0086 24.4177 14.9626L18.849 5.63579Z" fill="#3A3A39"/>
<path d="M70.1083 83.5879C69.8597 83.9891 69.5139 84.3199 69.1033 84.5493C68.6928 84.7787 68.231 84.8991 67.7616 84.8991C67.2921 84.8991 66.8304 84.7787 66.4199 84.5493C66.0093 84.3199 65.6635 83.9891 65.4148 83.5879L34.6348 32.0611C34.6029 32.011 34.559 31.9698 34.5072 31.9412C34.4554 31.9126 34.3974 31.8976 34.3384 31.8975H33.449C33.3901 31.8951 33.3317 31.9087 33.2798 31.9369C33.2279 31.9651 33.1845 32.0069 33.1542 32.0578C33.1239 32.1087 33.1077 32.1669 33.1074 32.2263C33.1071 32.2857 33.1227 32.3441 33.1526 32.3953L64.1514 84.2777C64.5349 84.8925 65.0669 85.3993 65.6977 85.7506C66.3285 86.1019 67.0373 86.2861 67.7581 86.2861C68.4788 86.2861 69.1877 86.1019 69.8185 85.7506C70.4493 85.3993 70.9813 84.8925 71.3647 84.2777L102.364 32.3633C102.393 32.3121 102.409 32.2537 102.409 32.1943C102.408 32.135 102.392 32.0767 102.362 32.0258C102.332 31.9749 102.288 31.9331 102.236 31.9049C102.184 31.8767 102.126 31.8631 102.067 31.8655H101.181C101.122 31.8656 101.064 31.8806 101.012 31.9092C100.961 31.9378 100.917 31.979 100.885 32.0291L70.1083 83.5879Z" fill="#3A3A39"/>
<path d="M0.821892 19.4023H5.72012V20.3588H3.9239L3.88858 26.6134H6.8953L7.51641 25.1413L8.57511 25.4472L7.73517 27.5806H0.832489V26.6241H2.64636V20.3695H0.818359L0.821892 19.4023Z" fill="#3A3A39"/>
<path d="M7.76488 27.6262H0.75985V26.5595H2.57372V20.4222H0.742188V19.3555H5.76396V20.4222H3.96766L3.93596 26.5595H6.83679L7.46497 25.0767L8.62947 25.4323L8.60483 25.4927L7.76488 27.6262ZM0.883313 27.5088H7.68725L8.48834 25.4856L7.55664 25.2154L6.94259 26.6697H3.8336V26.6128L3.86531 20.2977H5.66161V19.4586H0.886846V20.2977H2.71485V20.3582V26.6697H0.900976L0.883313 27.5088Z" fill="#3A3A39"/>
<path d="M9.49023 27.57V26.6134H11.0147L13.6544 20.3588H12.0488V19.4023H15.1331L18.0128 26.6134H19.5232V27.57H15.6589V26.6134H16.6611L16.153 25.3512H12.7157L12.1758 26.6134H13.1957V27.57H9.49023ZM13.1144 24.3946H15.7718L14.512 20.8033L13.1144 24.3946Z" fill="#3A3A39"/>
<path d="M19.5842 27.6262H15.6V26.5595H16.5704L16.1117 25.4145H12.7592L12.2686 26.5595H13.2567V27.6262H9.42773V26.5595H10.9735L13.5637 20.4222H11.9898V19.3555H15.1659V19.3946L18.0315 26.5665H19.5595L19.5842 27.6262ZM15.72 27.5088H19.4643V26.6732H17.9715V26.6377L15.1059 19.4621H12.1239V20.3013H13.7614L13.7261 20.3831L11.0723 26.6732H9.56541V27.5124H13.1473V26.6732H12.0886L12.6815 25.2936H16.2105L16.7646 26.6732H15.7341L15.72 27.5088ZM15.8576 24.4509H13.0344L14.5237 20.6249L15.8576 24.4509ZM13.2038 24.3336H15.6741L14.5025 20.9769L13.2038 24.3336Z" fill="#3A3A39"/>
<path d="M24.3397 27.7759C23.6813 27.7843 23.0238 27.7247 22.3775 27.5981C21.8199 27.4772 21.3541 27.3564 20.9659 27.2426L20.666 25.55L21.7247 25.4682L21.947 26.5101C22.2792 26.6057 22.6161 26.684 22.9563 26.7447C23.4068 26.8159 23.8625 26.848 24.3185 26.8408C24.6859 26.8454 25.052 26.7963 25.4055 26.695C25.713 26.615 25.9934 26.4528 26.2171 26.2256C26.3241 26.1066 26.4066 25.9674 26.4599 25.816C26.5132 25.6646 26.5362 25.5042 26.5277 25.3438C26.5344 24.9946 26.4153 24.6547 26.1924 24.3873C25.8474 24.0625 25.3941 23.8799 24.922 23.8753L23.7115 23.7223C22.9547 23.6625 22.2303 23.3875 21.6224 22.9294C21.2402 22.6159 20.991 22.1674 20.9254 21.6753C20.8599 21.1832 20.9829 20.6843 21.2695 20.2804C21.5549 19.916 21.9384 19.642 22.3741 19.491C22.9833 19.2799 23.6252 19.1811 24.2691 19.1994C24.682 19.1994 25.0491 19.1994 25.3737 19.2421C25.6891 19.2696 26.0025 19.3159 26.3124 19.3808C26.6435 19.4532 26.97 19.5458 27.29 19.6581L27.5582 21.3791L26.4995 21.4751L26.2912 20.3657C26.0226 20.2793 25.7459 20.2209 25.4654 20.1915C25.0694 20.147 24.6711 20.1268 24.2727 20.131C23.7176 20.104 23.1643 20.2126 22.6599 20.4475C22.4808 20.5269 22.3289 20.6575 22.2229 20.8231C22.1169 20.9887 22.0614 21.182 22.0635 21.3791C22.0555 21.554 22.0914 21.7281 22.1679 21.8854C22.2444 22.0426 22.359 22.1779 22.5011 22.2787C22.8645 22.5183 23.282 22.6614 23.715 22.6948L25.1655 22.8903C25.8953 22.9389 26.592 23.2147 27.1594 23.6797C27.368 23.8704 27.5337 24.104 27.6451 24.3647C27.7565 24.6254 27.8111 24.9071 27.8052 25.1909C27.8119 25.5859 27.7157 25.9757 27.5264 26.3216C27.341 26.6476 27.0824 26.9253 26.7712 27.1324C26.4306 27.3544 26.0563 27.519 25.6631 27.6195C25.2304 27.7284 24.7856 27.781 24.3397 27.7759Z" fill="#3A3A39"/>
<path d="M24.3403 27.836C23.6771 27.8448 23.0148 27.784 22.3641 27.6546C21.8065 27.5337 21.3372 27.4128 20.9525 27.2991H20.9172L20.5996 25.5212L21.7676 25.4287L21.9936 26.4954C22.3006 26.5808 22.6252 26.6555 22.964 26.7195C23.41 26.7891 23.8609 26.8212 24.3121 26.8155C24.6701 26.8173 25.0265 26.7682 25.3708 26.6697C25.6682 26.5926 25.9391 26.4353 26.1543 26.2145C26.2565 26.1015 26.3353 25.9691 26.3862 25.825C26.4371 25.6809 26.459 25.5281 26.4506 25.3754C26.457 25.0395 26.343 24.7125 26.1295 24.4544C25.7918 24.1456 25.354 23.9711 24.8979 23.9637L23.6875 23.8108C22.9208 23.7487 22.1869 23.4702 21.5701 23.0072C21.3343 22.8206 21.1444 22.5818 21.0152 22.3092C20.8861 22.0366 20.8211 21.7376 20.8254 21.4356C20.8177 21.0223 20.9414 20.6174 21.1783 20.28C21.4688 19.9035 21.8627 19.6216 22.3111 19.4692C22.927 19.2553 23.5763 19.1553 24.2274 19.1741C24.6403 19.1741 25.0144 19.1741 25.3355 19.2132C25.6535 19.2399 25.9694 19.2874 26.2813 19.3555C26.6159 19.4278 26.9459 19.5204 27.2694 19.6328H27.3012L27.587 21.4463L26.4189 21.5565L26.2072 20.4258C25.9531 20.3472 25.6918 20.2948 25.4273 20.2693C25.0337 20.2234 24.6377 20.2021 24.2415 20.2053C23.6961 20.1812 23.1529 20.2884 22.657 20.5182C22.4875 20.5923 22.3436 20.7153 22.2431 20.8715C22.1427 21.0277 22.0903 21.2103 22.0924 21.3965C22.0839 21.5623 22.1173 21.7275 22.1896 21.8768C22.2618 22.0261 22.3704 22.1544 22.5052 22.2499C22.8622 22.4823 23.2709 22.6215 23.6946 22.6552L25.1414 22.8472C25.8841 22.8997 26.5926 23.1815 27.1706 23.6544C27.3846 23.8508 27.5546 24.0911 27.669 24.3591C27.7834 24.6271 27.8397 24.9166 27.8341 25.2083C27.8419 25.6133 27.7433 26.0132 27.5482 26.3674C27.3577 26.7022 27.0917 26.9872 26.7718 27.1995C26.4266 27.4239 26.0476 27.5908 25.6496 27.6937C25.2206 27.7952 24.7809 27.843 24.3403 27.836ZM21.0407 27.1924C21.3936 27.3061 21.8559 27.4235 22.3888 27.5479C23.0311 27.6774 23.6853 27.7382 24.3403 27.7293C24.783 27.7303 25.224 27.6754 25.6531 27.5657C26.0391 27.4669 26.4063 27.3048 26.7401 27.0857C27.0435 26.884 27.2961 26.6137 27.4776 26.2963C27.6599 25.9583 27.7523 25.5786 27.7459 25.194C27.7511 24.9186 27.698 24.6452 27.5903 24.392C27.4826 24.1388 27.3228 23.9116 27.1212 23.7255C26.562 23.2697 25.8767 22.9991 25.1591 22.9503L23.7121 22.7583C23.2679 22.7213 22.8398 22.5735 22.4664 22.3281C22.3177 22.2212 22.1978 22.0789 22.1171 21.9138C22.0364 21.7488 21.9976 21.5661 22.0041 21.3822C22.0031 21.1744 22.0623 20.9709 22.1746 20.7965C22.2868 20.6222 22.4471 20.4847 22.6359 20.4008C23.1489 20.1609 23.7117 20.0486 24.2768 20.0737C24.6777 20.0705 25.0783 20.0919 25.4766 20.1377C25.7619 20.1656 26.0435 20.224 26.3166 20.3119H26.3518L26.553 21.4036L27.4847 21.3182L27.2271 19.6932C26.9205 19.588 26.6082 19.5002 26.2919 19.4301C25.9846 19.3647 25.6734 19.3196 25.3602 19.295C25.0426 19.2666 24.672 19.2523 24.2627 19.2523C23.627 19.2326 22.9931 19.3302 22.3923 19.5403C21.9663 19.6859 21.5913 19.9527 21.3125 20.3084C21.0818 20.6234 20.958 21.005 20.9596 21.3965C20.9571 21.6815 21.0193 21.9633 21.1416 22.2204C21.264 22.4774 21.4432 22.7028 21.6654 22.8792C22.2664 23.3277 22.9806 23.5964 23.7263 23.6544L24.9332 23.8073C25.4209 23.817 25.8881 24.0068 26.246 24.3406C26.4777 24.6195 26.6028 24.9726 26.5989 25.3363C26.6155 25.6744 26.4987 26.0054 26.2742 26.2572C26.0428 26.4928 25.7527 26.661 25.4343 26.7443C25.0751 26.8468 24.7031 26.8971 24.3297 26.8937C23.8701 26.9 23.4109 26.8666 22.957 26.7941C22.6141 26.7335 22.2748 26.654 21.9406 26.5559H21.9053L21.6865 25.5318L20.7584 25.6065L21.0407 27.1924Z" fill="#3A3A39"/>
<path d="M33.7235 19.4023H41.9178V21.6744H40.7109V20.3588H38.47L38.4382 26.6134H39.9486V27.57H35.6538V26.6134H37.1643V20.3588H34.9198V21.6744H33.7129L33.7235 19.4023Z" fill="#3A3A39"/>
<path d="M40.0022 27.6255H35.5874V26.5588H37.0979V20.4215H34.9805V21.7407H33.6465V19.3477H41.9609V21.7407H40.6304V20.4215H38.513L38.4812 26.5588H39.9916L40.0022 27.6255ZM35.7074 27.5081H39.8787V26.6725H38.3683V26.6156L38.4 20.3006H40.7645V21.6198H41.8514V19.4614H33.8017V21.6198H34.8604V20.3006H37.2249V20.361L37.2072 26.6725H35.6969L35.7074 27.5081Z" fill="#3A3A39"/>
<path d="M43.3906 27.5698V26.6132H44.8869V20.3586H43.3906V19.4022H47.6079C48.2996 19.378 48.9904 19.4717 49.6511 19.6795C50.0953 19.8195 50.4772 20.1113 50.731 20.5044C50.962 20.9208 51.0743 21.3933 51.0556 21.8698C51.0778 22.2189 51.0207 22.5685 50.8886 22.892C50.7565 23.2154 50.5529 23.5043 50.2934 23.7366C49.7852 24.1633 48.8818 24.3802 47.6079 24.3802H46.1539V26.6132H47.1561V27.5698H43.3906ZM46.1751 23.3953H47.6079C47.9919 23.4031 48.3756 23.3661 48.7513 23.285C49.0305 23.228 49.2806 23.0731 49.4571 22.8477C49.619 22.5527 49.7038 22.2212 49.7038 21.8841C49.7038 21.547 49.619 21.2154 49.4571 20.9204C49.2803 20.694 49.0307 20.5368 48.7513 20.476C48.3762 20.3904 47.9923 20.351 47.6079 20.3586H46.1751V23.3953ZM49.7676 27.5698L47.7172 24.3091L49.0688 24.1704L50.6922 26.6132H52.1391V27.5698H49.7676Z" fill="#3A3A39"/>
<path d="M52.1984 27.6269H49.7281L49.7106 27.5985L47.7201 24.4374H46.2133V26.5708H47.212V27.6376H43.3301V26.5708H44.8264V20.4158H43.3301V19.3491H47.6073C48.3062 19.3261 49.0039 19.421 49.6717 19.6299C50.129 19.7744 50.5222 20.0749 50.7834 20.4798C51.0253 20.9044 51.1473 21.3877 51.1363 21.8772C51.1574 22.2345 51.0978 22.5918 50.9621 22.9226C50.8264 23.2533 50.6181 23.5487 50.3528 23.7867C50.0236 24.0398 49.6407 24.2127 49.2341 24.2916L50.741 26.5602H52.2161L52.1984 27.6269ZM49.8023 27.5096H52.0785V26.674H50.6669L49.1 24.3129C48.6974 24.3908 48.2888 24.4337 47.8789 24.4409L49.8023 27.5096ZM43.4501 27.5096H47.0955V26.674H46.0933V24.3236H47.6496L47.6107 24.2667L49.0965 24.1138L49.1423 24.1814C49.5452 24.1112 49.9254 23.9441 50.2505 23.6942C50.5026 23.4669 50.7002 23.1851 50.8285 22.8697C50.9569 22.5544 51.0126 22.2138 50.9915 21.8737C51.0083 21.4072 50.8985 20.945 50.674 20.5367C50.4248 20.1535 50.0501 19.8704 49.6153 19.7366C48.9624 19.5318 48.28 19.4392 47.5967 19.4628H43.443V20.302H44.9358V26.674H43.443L43.4501 27.5096ZM47.6037 23.456H46.1109V20.2984H47.6037C47.993 20.2921 48.3815 20.3327 48.7612 20.4194C49.0545 20.4829 49.3167 20.6476 49.5023 20.8851C49.6733 21.19 49.7632 21.5342 49.7632 21.8843C49.7632 22.2345 49.6733 22.5787 49.5023 22.8835C49.3169 23.1199 49.0543 23.2825 48.7612 23.3422C48.3828 23.4303 47.9957 23.4744 47.6073 23.4738L47.6037 23.456ZM46.2309 23.3351H47.6037C47.9829 23.3422 48.3617 23.3064 48.733 23.2284C48.9987 23.175 49.2366 23.0274 49.4035 22.8124C49.5586 22.528 49.6399 22.2088 49.6399 21.8843C49.6399 21.5599 49.5586 21.2407 49.4035 20.9563C49.235 20.7416 48.9982 20.5921 48.733 20.5331C48.3627 20.4478 47.9835 20.4085 47.6037 20.4158H46.2309V23.3351Z" fill="#3A3A39"/>
<path d="M53.4907 19.4023H60.5487L61.3604 21.5358L60.3263 21.8416L59.6912 20.3588H56.2892V22.8692H59.2606V23.8293H56.2892V26.617H60.0264L60.6617 25.1307L61.6956 25.4365L60.8875 27.57H53.4766V26.6134H55.0047V20.3588H53.4801L53.4907 19.4023Z" fill="#3A3A39"/>
<path d="M60.9113 27.6262H53.4121V26.5595H54.9366L54.9542 20.4222H53.4262V19.3555H60.5936L61.4406 21.5885L60.2901 21.9263L59.6514 20.4293H56.3482V22.8224H59.3232V23.8891H56.3482V26.5595H59.9831L60.6219 25.0625L61.7723 25.418L60.9113 27.6262ZM53.532 27.5088H60.8266L61.5994 25.4714L60.6783 25.2011L60.0501 26.6697H56.2106L56.2283 23.7646H59.2102V22.9254H56.2353V20.2977H59.7431L60.3713 21.7698L61.2923 21.4996L60.516 19.4586H53.5638V20.2977H55.0919V20.3582L55.0743 26.6697H53.5462L53.532 27.5088Z" fill="#3A3A39"/>
<path d="M66.8802 27.7759C66.2207 27.7842 65.5621 27.7247 64.9146 27.5982C64.3605 27.4773 63.8947 27.3564 63.5241 27.2426L63.2207 25.55L64.2794 25.4682L64.5017 26.5101C64.8338 26.6061 65.1708 26.6844 65.511 26.7448C65.9604 26.8158 66.4149 26.8479 66.8696 26.8408C67.2382 26.8451 67.6055 26.796 67.9601 26.695C68.2677 26.615 68.5481 26.4528 68.7718 26.2256C68.9866 25.9844 69.0981 25.6675 69.0823 25.3438C69.0891 24.9946 68.97 24.6548 68.7471 24.3873C68.4021 24.0625 67.9487 23.8799 67.4766 23.8753L66.2662 23.7223C65.5083 23.6624 64.7828 23.3875 64.1735 22.9294C63.945 22.748 63.7609 22.5161 63.6355 22.2516C63.51 21.9871 63.4466 21.6971 63.4501 21.404C63.4444 21.0009 63.5682 20.6068 63.803 20.2804C64.0876 19.9151 64.4713 19.6409 64.9075 19.491C65.5155 19.2799 66.1563 19.1811 66.7991 19.1994C67.2155 19.1994 67.5825 19.1994 67.9036 19.2421C68.219 19.2691 68.5326 19.3154 68.8424 19.3808C69.1736 19.4528 69.5001 19.5454 69.8199 19.6581L70.0917 21.3791L69.033 21.4751L68.8247 20.3657C68.5561 20.2793 68.2794 20.2209 67.9989 20.1915C67.6029 20.147 67.2046 20.1268 66.8061 20.131C66.25 20.1044 65.6956 20.213 65.1898 20.4475C65.0111 20.5272 64.8594 20.6579 64.7534 20.8235C64.6475 20.989 64.5919 21.1821 64.5934 21.3791C64.5877 21.5537 64.6246 21.7271 64.7009 21.8839C64.7772 22.0408 64.8906 22.1763 65.031 22.2787C65.396 22.5177 65.8146 22.6608 66.2485 22.6948L67.6955 22.8903C68.4264 22.9382 69.1245 23.2141 69.6929 23.6797C69.9003 23.8711 70.0649 24.1049 70.1757 24.3655C70.2864 24.6261 70.3408 24.9075 70.3352 25.1909C70.3437 25.5861 70.2474 25.9764 70.0563 26.3216C69.872 26.6484 69.6132 26.9263 69.3012 27.1324C68.9619 27.3544 68.5887 27.519 68.1966 27.6195C67.7661 27.7276 67.3238 27.7802 66.8802 27.7759Z" fill="#3A3A39"/>
<path d="M66.8806 27.836C66.2162 27.8448 65.5528 27.784 64.9009 27.6546C64.3468 27.5337 63.8774 27.4128 63.5068 27.2991H63.4716L63.1504 25.5212L64.322 25.4287L64.548 26.4955C64.8514 26.5808 65.1796 26.6555 65.5149 26.7195C65.9609 26.7888 66.4117 26.8209 66.8629 26.8155C67.2208 26.8168 67.5772 26.7677 67.9216 26.6697C68.2187 26.5918 68.4893 26.4346 68.705 26.2145C68.9089 25.9848 69.0142 25.6831 68.998 25.3754C69.0053 25.0399 68.8926 24.7131 68.6804 24.4544C68.3412 24.1456 67.9024 23.9712 67.4453 23.9637L66.2383 23.8108C65.4717 23.7481 64.738 23.4697 64.1209 23.0072C63.8857 22.8201 63.6963 22.5811 63.5672 22.3087C63.4381 22.0362 63.3728 21.7375 63.3763 21.4356C63.3671 21.0221 63.4909 20.6167 63.7292 20.28C64.0196 19.9035 64.4136 19.6216 64.862 19.4692C65.4766 19.2552 66.1247 19.1553 66.7747 19.1741C67.1876 19.1741 67.5617 19.1741 67.8864 19.2132C68.2043 19.2404 68.5202 19.2879 68.8321 19.3555C69.1657 19.4274 69.4945 19.52 69.8167 19.6328H69.852L70.1378 21.4463L68.9662 21.5565L68.758 20.4258C68.5039 20.3476 68.2426 20.2951 67.9781 20.2693C67.5846 20.2234 67.1885 20.2021 66.7924 20.2053C66.2469 20.1804 65.7036 20.2877 65.2078 20.5182C65.0381 20.592 64.8939 20.7148 64.7934 20.8711C64.6929 21.0274 64.6406 21.2103 64.6432 21.3965C64.6347 21.5623 64.6682 21.7276 64.7404 21.8768C64.8126 22.0261 64.9213 22.1544 65.0561 22.2499C65.412 22.4817 65.8194 22.621 66.2418 22.6552L67.6923 22.8472C68.4348 22.9004 69.1431 23.1821 69.7214 23.6544C69.9348 23.8514 70.1042 24.0918 70.2186 24.3596C70.3329 24.6275 70.3896 24.9167 70.3849 25.2083C70.3914 25.6136 70.2917 26.0135 70.0955 26.3675C69.9073 26.7028 69.6423 26.988 69.3226 27.1995C68.9774 27.424 68.5984 27.5909 68.2004 27.6937C67.768 27.7959 67.3247 27.8437 66.8806 27.836ZM63.5775 27.1924C63.9304 27.3062 64.3926 27.4235 64.929 27.548C65.5714 27.6774 66.2255 27.7382 66.8806 27.7293C67.3221 27.7306 67.762 27.6757 68.1898 27.5657C68.5763 27.4683 68.9438 27.3061 69.2768 27.0857C69.5811 26.885 69.8339 26.6145 70.0144 26.2963C70.1994 25.9593 70.2931 25.5791 70.286 25.194C70.2906 24.9184 70.237 24.6449 70.1287 24.3917C70.0204 24.1385 69.86 23.9114 69.6579 23.7255C69.0997 23.2704 68.4157 22.9998 67.6993 22.9504L66.2524 22.7583C65.808 22.7219 65.3798 22.574 65.0067 22.3281C64.8573 22.2219 64.7367 22.0797 64.656 21.9145C64.5752 21.7493 64.5369 21.5663 64.5444 21.3822C64.5431 21.1748 64.6018 20.9716 64.7134 20.7973C64.8249 20.623 64.9844 20.4852 65.1725 20.4008C65.6866 20.1603 66.2508 20.0481 66.8171 20.0737C67.2179 20.0706 67.6186 20.092 68.0169 20.1377C68.3022 20.1656 68.5838 20.224 68.8569 20.312H68.8886L69.0933 21.4036L70.0214 21.3182L69.7673 19.6933C69.4605 19.5885 69.1484 19.5006 68.8321 19.4301C68.5248 19.365 68.2136 19.3198 67.9005 19.295C67.5794 19.2666 67.1947 19.2523 66.7994 19.2523C66.1638 19.2331 65.53 19.3307 64.929 19.5403C64.5099 19.6879 64.1422 19.9547 63.8703 20.3084C63.6396 20.6234 63.5159 21.005 63.5174 21.3965C63.5149 21.6815 63.5772 21.9633 63.6996 22.2204C63.8219 22.4774 64.001 22.7028 64.2232 22.8792C64.8229 23.3276 65.5361 23.5963 66.2807 23.6544L67.4911 23.8073C67.9788 23.817 68.4459 24.0068 68.8039 24.3406C69.0355 24.6195 69.1607 24.9726 69.1568 25.3363C69.1733 25.6744 69.0566 26.0054 68.8321 26.2572C68.5996 26.4912 68.3098 26.6593 67.9922 26.7443C67.6317 26.8468 67.2586 26.8971 66.8841 26.8937C66.4257 26.8998 65.9677 26.8665 65.5149 26.7941C65.1719 26.7343 64.8325 26.6548 64.4985 26.5559H64.4632L64.2444 25.5319L63.3162 25.6065L63.5775 27.1924Z" fill="#3A3A39"/>
<path d="M76.2773 27.57V26.6134H77.7877V20.3588H76.2773V19.4023H80.3322C81.4662 19.4023 82.3331 19.5848 82.933 19.9499C83.2131 20.1052 83.445 20.3356 83.6032 20.6154C83.7614 20.8953 83.8397 21.2139 83.8294 21.5358C83.8294 21.9205 83.7056 22.2948 83.4765 22.6025C83.2364 22.9404 82.9094 23.2059 82.5307 23.3706C82.9642 23.5 83.3546 23.7458 83.66 24.0817C83.9687 24.4274 84.1342 24.8792 84.1223 25.344C84.1275 25.6521 84.0613 25.9572 83.929 26.2349C83.7967 26.5127 83.6018 26.7555 83.36 26.9441C82.8483 27.3673 82.0613 27.5771 80.9885 27.5771L76.2773 27.57ZM79.044 26.5992H80.9356C81.418 26.6307 81.8976 26.5061 82.3048 26.2437C82.4661 26.1199 82.5942 25.9575 82.6774 25.7712C82.7606 25.5849 82.7963 25.3806 82.7813 25.1769C82.7908 24.9882 82.7547 24.7999 82.676 24.6283C82.5973 24.4567 82.4784 24.307 82.3296 24.192C81.9466 23.9343 81.4907 23.8095 81.0309 23.8364H79.0582L79.044 26.5992ZM79.044 23.0221H81.0344C81.4201 23.049 81.8006 22.9212 82.0931 22.6665C82.2152 22.538 82.3095 22.3854 82.3702 22.2183C82.431 22.0513 82.4568 21.8734 82.446 21.6958C82.446 20.8092 81.7884 20.3659 80.4733 20.3659H79.0264L79.044 23.0221Z" fill="#3A3A39"/>
<path d="M80.9986 27.6255H76.2168V26.5588H77.7272V20.4144H76.2168V19.3477H80.3317C81.4715 19.3477 82.3573 19.5361 82.9643 19.9059C83.2531 20.0664 83.4925 20.3039 83.6562 20.5924C83.82 20.881 83.9016 21.2093 83.8924 21.5415C83.8861 21.9252 83.7629 22.2976 83.5395 22.6083C83.3202 22.9111 83.0306 23.1553 82.6961 23.3194C83.0868 23.4638 83.4368 23.7018 83.7159 24.0128C84.0344 24.3691 84.205 24.835 84.1924 25.3143C84.1968 25.631 84.1283 25.9444 83.9924 26.23C83.8565 26.5157 83.6568 26.7657 83.409 26.9606C82.8902 27.4086 82.0785 27.6255 80.9986 27.6255ZM76.3368 27.5081H80.9986C82.0573 27.5081 82.8337 27.3019 83.3278 26.893C83.5631 26.7092 83.7528 26.4729 83.882 26.2026C84.0112 25.9323 84.0764 25.6355 84.0724 25.3356C84.0821 24.8854 83.9219 24.4482 83.6242 24.1124C83.3285 23.7785 82.9478 23.5325 82.5232 23.4012L82.3749 23.355L82.5161 23.291C82.8848 23.1294 83.2031 22.8701 83.4371 22.5407C83.6495 22.2459 83.7656 21.8917 83.7689 21.5273C83.778 21.2157 83.7017 20.9076 83.5486 20.6366C83.3955 20.3657 83.1713 20.1424 82.9007 19.9912C82.3114 19.6357 81.4468 19.4507 80.3317 19.4507H76.3368V20.2899H77.8472V26.6725H76.3368V27.5081ZM80.9245 26.6547H78.973V23.8101H81.0057C81.4769 23.7795 81.9451 23.9044 82.3397 24.1657C82.496 24.2859 82.621 24.4425 82.704 24.6221C82.787 24.8017 82.8254 24.999 82.816 25.1969C82.8287 25.409 82.7897 25.621 82.7024 25.8144C82.615 26.0078 82.482 26.1766 82.3149 26.3063C81.9037 26.5693 81.4216 26.6973 80.9351 26.6725L80.9245 26.6547ZM79.093 26.5374H80.9245C81.3942 26.5642 81.8602 26.4396 82.255 26.1818C82.4077 26.0636 82.5291 25.9093 82.6085 25.7326C82.6879 25.5558 82.7228 25.3621 82.7102 25.1685C82.7204 24.9884 82.6865 24.8086 82.6114 24.6449C82.5363 24.4811 82.4224 24.3386 82.2797 24.2297C81.9065 23.9845 81.4645 23.8672 81.0198 23.8955H79.1106L79.093 26.5374ZM81.0375 23.0777H78.9871V20.297H80.494C81.8456 20.297 82.5302 20.7664 82.5302 21.6873C82.5385 21.8738 82.5085 22.06 82.4424 22.2343C82.3762 22.4086 82.2752 22.5674 82.1455 22.7007C81.8435 22.9675 81.4489 23.103 81.048 23.0777H81.0375ZM79.1106 22.9603H81.0375C81.4108 22.9826 81.7775 22.8547 82.0573 22.6048C82.1769 22.4825 82.27 22.3366 82.3307 22.1762C82.3914 22.0159 82.4185 21.8445 82.4102 21.6731C82.4102 20.8162 81.7856 20.4002 80.4975 20.4002H79.1141L79.1106 22.9603Z" fill="#3A3A39"/>
<path d="M84.3223 27.57V26.6134H85.8504L88.49 20.3588H86.8843V19.4023H89.9687L92.8449 26.6134H94.3553V27.57H90.4734V26.6134H91.4756L90.9674 25.3512H87.5337L86.9937 26.6134H88.0101V27.57H84.3223ZM87.9466 24.3946H90.618L89.3617 20.8033L87.9466 24.3946Z" fill="#3A3A39"/>
<path d="M94.4205 27.6262H90.4327V26.5595H91.4068L90.9444 25.4145H87.5919L87.1049 26.5595H88.0895V27.6262H84.2676V26.5595H85.8132L88.4036 20.4222H86.8261V19.3555H90.0022V19.3946L92.8643 26.5665H94.3958L94.4205 27.6262ZM90.5563 27.5088H94.297V26.6732H92.8042V26.6377L89.9423 19.4621H86.9602V20.3013H88.5941L88.5624 20.3831L85.891 26.6732H84.3841V27.5124H87.9695V26.6732H86.9108L87.5001 25.2936H91.0291L91.5867 26.6732H90.5563V27.5088ZM90.6904 24.4509H87.8672L89.3599 20.6249L90.6904 24.4509ZM88.0365 24.3336H90.5068L89.3317 20.9769L88.0365 24.3336Z" fill="#3A3A39"/>
<path d="M95.4391 19.4023H98.9681L103.023 25.8774V20.3588H101.685V19.4023H105.836V20.3588H104.293V27.57H102.734L98.22 20.3588L98.2517 26.6134H99.5857V27.57H95.4355V26.6134H96.9636L96.946 20.3588H95.4532L95.4391 19.4023Z" fill="#3A3A39"/>
<path d="M104.341 27.6255H102.689V27.597L98.2852 20.5708L98.317 26.5517H99.6545V27.6184H95.3809V26.5517H96.9054V20.4144H95.4091V19.3477H99.0193L99.037 19.3761L102.979 25.6734V20.4144H101.645V19.3477H105.919V20.4144H104.373L104.341 27.6255ZM102.756 27.5081H104.221V20.297H105.763V19.4579H101.733V20.297H103.071V26.0894L98.9205 19.4579H95.5009V20.297H96.9972V20.3575V26.669H95.4691V27.5081H99.4992V26.6725H98.1652V26.6156L98.1335 20.1477L102.756 27.5081Z" fill="#3A3A39"/>
<path d="M111.386 19.4023C112.903 19.4023 114.086 19.7745 114.933 20.5188C115.359 20.9076 115.695 21.3873 115.916 21.9229C116.136 22.4585 116.235 23.0368 116.207 23.6159C116.234 24.1636 116.136 24.7103 115.921 25.214C115.705 25.7176 115.378 26.1648 114.964 26.521C114.139 27.2321 112.988 27.5877 111.513 27.5877H107.158V26.6312H108.669V20.3766H107.158V19.4201L111.386 19.4023ZM111.227 26.6134C112.427 26.6134 113.332 26.3586 113.941 25.849C114.253 25.572 114.497 25.2266 114.656 24.8395C114.814 24.4524 114.882 24.0338 114.855 23.6159C114.855 22.5468 114.56 21.7361 113.969 21.1838C113.379 20.6315 112.518 20.3565 111.386 20.3588H109.939V26.6134H111.227Z" fill="#3A3A39"/>
<path d="M111.514 27.6255H107.096V26.5588H108.617V20.4144H107.106V19.3477H111.398C112.922 19.3477 114.129 19.7281 114.987 20.4784C115.42 20.873 115.76 21.3599 115.984 21.9035C116.207 22.4471 116.308 23.0341 116.278 23.6217C116.305 24.1781 116.205 24.7334 115.986 25.2449C115.767 25.7564 115.435 26.2107 115.015 26.573C114.171 27.2699 112.996 27.6255 111.514 27.6255ZM107.219 27.5081H111.514C112.968 27.5081 114.115 27.1526 114.927 26.477C115.329 26.1261 115.648 25.6879 115.859 25.1953C116.07 24.7027 116.167 24.1683 116.144 23.6323C116.174 23.0614 116.077 22.4911 115.86 21.9627C115.643 21.4344 115.312 20.9613 114.891 20.5779C114.058 19.8668 112.88 19.4757 111.387 19.4757H107.205V20.3148H108.716V26.6725H107.205L107.219 27.5081ZM111.228 26.669H109.88V20.297H111.387C112.534 20.297 113.416 20.5815 114.016 21.1397C114.616 21.698 114.916 22.53 114.916 23.6288C114.943 24.0554 114.873 24.4826 114.711 24.8777C114.549 25.2727 114.299 25.6252 113.981 25.908C113.363 26.4094 112.435 26.6725 111.228 26.6725V26.669ZM110.004 26.5517H111.228C112.407 26.5517 113.303 26.2992 113.9 25.805C114.204 25.5324 114.443 25.1934 114.598 24.8138C114.752 24.4342 114.819 24.0241 114.792 23.6146C114.792 22.5479 114.503 21.762 113.928 21.2251C113.353 20.6882 112.499 20.4144 111.387 20.4144H110.004V26.5517Z" fill="#3A3A39"/>
<path d="M116.381 27.57V26.6134H117.909L120.549 20.3588H118.943V19.4023H122.027L124.903 26.6134H126.417V27.57H122.535V26.6134H123.534L123.026 25.3512H119.592L119.052 26.6134H120.069V27.57H116.381ZM120.005 24.3946H122.663L121.406 20.8033L120.005 24.3946Z" fill="#3A3A39"/>
<path d="M126.477 27.6262H122.489V26.5595H123.463L123.001 25.4145H119.648L119.161 26.5595H120.146V27.6262H116.32V26.5595H117.866L120.456 20.4222H118.879V19.3555H122.055V19.3946L124.917 26.5665H126.449L126.477 27.6262ZM122.595 27.5088H126.336V26.6732H124.85V26.6377L121.988 19.4621H119.006V20.3013H120.64L120.608 20.3831L117.951 26.6732H116.444V27.5124H120.029V26.6732H118.971L119.56 25.2936H123.089L123.647 26.6732H122.616L122.595 27.5088ZM122.729 24.4509H119.906L121.399 20.6249L122.729 24.4509ZM120.079 24.3336H122.549L121.374 20.9769L120.079 24.3336Z" fill="#3A3A39"/>
<path d="M131.234 27.7759C130.574 27.7842 129.916 27.7247 129.268 27.5982C128.711 27.4773 128.248 27.3564 127.878 27.2426L127.574 25.55L128.633 25.4682L128.855 26.5101C129.187 26.6061 129.524 26.6844 129.865 26.7448C130.314 26.8158 130.768 26.8479 131.223 26.8408C131.592 26.8451 131.959 26.796 132.314 26.695C132.621 26.615 132.902 26.4528 133.125 26.2256C133.34 25.9844 133.452 25.6675 133.436 25.3438C133.443 24.9946 133.324 24.6548 133.101 24.3873C132.756 24.0625 132.302 23.8799 131.83 23.8753L130.62 23.7223C129.862 23.6624 129.136 23.3875 128.527 22.9294C128.299 22.748 128.114 22.5161 127.989 22.2516C127.864 21.9871 127.8 21.6971 127.804 21.404C127.798 21.0009 127.922 20.6068 128.157 20.2804C128.441 19.9151 128.825 19.6409 129.261 19.491C129.869 19.2799 130.51 19.1811 131.153 19.1994C131.566 19.1994 131.936 19.1994 132.257 19.2421C132.573 19.2691 132.886 19.3154 133.196 19.3808C133.527 19.4528 133.854 19.5454 134.173 19.6581L134.445 21.3791L133.386 21.4751L133.178 20.3657C132.91 20.2793 132.633 20.2209 132.353 20.1915C131.956 20.1471 131.558 20.1269 131.16 20.131C130.603 20.104 130.049 20.2126 129.543 20.4475C129.365 20.5272 129.213 20.6579 129.107 20.8235C129.001 20.989 128.945 21.1821 128.947 21.3791C128.941 21.5537 128.978 21.7271 129.054 21.8839C129.131 22.0408 129.244 22.1763 129.385 22.2787C129.75 22.5177 130.168 22.6608 130.602 22.6948L132.049 22.8903C132.78 22.9382 133.478 23.2141 134.046 23.6797C134.254 23.8711 134.419 24.1049 134.529 24.3655C134.64 24.6261 134.694 24.9075 134.689 25.1909C134.697 25.5861 134.601 25.9764 134.41 26.3216C134.226 26.6484 133.967 26.9263 133.655 27.1324C133.315 27.3544 132.942 27.519 132.55 27.6195C132.12 27.7276 131.677 27.7802 131.234 27.7759Z" fill="#3A3A39"/>
<path d="M131.235 27.8359C130.57 27.8447 129.907 27.7839 129.255 27.6546C128.701 27.5337 128.231 27.4128 127.843 27.299H127.811L127.49 25.5211L128.662 25.4286L128.888 26.4954C129.191 26.5807 129.516 26.6554 129.855 26.7194C130.301 26.7887 130.752 26.8208 131.203 26.8154C131.561 26.8167 131.917 26.7676 132.261 26.6696C132.559 26.5917 132.829 26.4345 133.045 26.2145C133.249 25.9847 133.354 25.683 133.338 25.3753C133.346 25.0391 133.231 24.7117 133.017 24.4544C132.679 24.1449 132.241 23.9704 131.785 23.9637L130.578 23.8108C129.812 23.7481 129.078 23.4696 128.461 23.0071C128.226 22.82 128.036 22.581 127.907 22.3086C127.778 22.0361 127.713 21.7374 127.716 21.4355C127.712 21.02 127.842 20.6144 128.087 20.2799C128.376 19.9043 128.769 19.6225 129.216 19.4692C129.832 19.2555 130.481 19.1555 131.132 19.174C131.545 19.174 131.919 19.174 132.244 19.2132C132.562 19.2404 132.878 19.2879 133.19 19.3554C133.523 19.4273 133.852 19.5199 134.174 19.6327H134.209L134.495 21.4462L133.324 21.5564L133.115 20.4257C132.861 20.3475 132.6 20.295 132.336 20.2692C131.942 20.2235 131.546 20.2021 131.15 20.2052C130.604 20.1803 130.061 20.2876 129.565 20.5181C129.396 20.5919 129.251 20.7147 129.151 20.871C129.05 21.0273 128.998 21.2102 129.001 21.3964C128.992 21.5622 129.026 21.7275 129.098 21.8767C129.17 22.026 129.279 22.1544 129.414 22.2498C129.769 22.4822 130.177 22.6215 130.599 22.6551L132.046 22.8471C132.79 22.8996 133.5 23.1814 134.079 23.6543C134.292 23.8515 134.461 24.092 134.574 24.3599C134.688 24.6277 134.744 24.9169 134.739 25.2082C134.747 25.6132 134.648 26.0131 134.453 26.3674C134.265 26.7027 134 26.988 133.68 27.1994C133.334 27.4245 132.954 27.5914 132.554 27.6937C132.122 27.7963 131.679 27.8441 131.235 27.8359ZM127.931 27.1923C128.284 27.3061 128.747 27.4234 129.283 27.5479C129.925 27.6774 130.58 27.7382 131.235 27.7292C131.676 27.7305 132.116 27.6756 132.544 27.5657C132.93 27.4675 133.297 27.3053 133.631 27.0856C133.935 26.885 134.188 26.6144 134.368 26.2962C134.553 25.9592 134.647 25.579 134.64 25.194C134.645 24.9183 134.591 24.6448 134.483 24.3916C134.374 24.1385 134.214 23.9114 134.012 23.7254C133.454 23.2704 132.77 22.9997 132.053 22.9503L130.606 22.7583C130.162 22.7226 129.733 22.5746 129.361 22.328C129.211 22.2218 129.091 22.0796 129.01 21.9144C128.929 21.7492 128.891 21.5662 128.898 21.3822C128.897 21.1748 128.956 20.9715 129.067 20.7972C129.179 20.6229 129.338 20.4851 129.526 20.4008C130.041 20.1602 130.605 20.048 131.171 20.0736C131.572 20.0705 131.973 20.0919 132.371 20.1376C132.656 20.1655 132.938 20.2239 133.211 20.3119H133.243L133.447 21.4035L134.375 21.3181L134.121 19.6932C133.815 19.5884 133.502 19.5006 133.186 19.4301C132.879 19.3649 132.568 19.3198 132.254 19.2949C131.933 19.2665 131.549 19.2523 131.153 19.2523C130.518 19.2331 129.884 19.3306 129.283 19.5403C128.864 19.6878 128.496 19.9546 128.224 20.3083C127.994 20.6233 127.87 21.0049 127.871 21.3964C127.869 21.6815 127.931 21.9633 128.054 22.2203C128.176 22.4773 128.355 22.7027 128.577 22.8791C129.177 23.3275 129.89 23.5962 130.635 23.6543L131.845 23.8072C132.332 23.8161 132.798 24.0061 133.154 24.3406C133.387 24.6186 133.513 24.9723 133.507 25.3362C133.516 25.5039 133.491 25.6717 133.435 25.8298C133.378 25.9879 133.291 26.1331 133.179 26.2571C132.948 26.4919 132.66 26.6601 132.343 26.7443C131.982 26.8467 131.609 26.897 131.235 26.8936C130.776 26.8999 130.318 26.8666 129.865 26.7941C129.522 26.7342 129.183 26.6547 128.849 26.5558H128.814L128.595 25.5318L127.667 25.6064L127.931 27.1923Z" fill="#3A3A39"/>
<path d="M67.7628 69.6997C63.1222 69.6997 59.3496 66.0514 59.3496 61.5676C59.3496 57.0838 63.1222 53.4355 67.7628 53.4355C72.4034 53.4355 76.176 57.0838 76.176 61.5676C76.176 66.0514 72.4034 69.6997 67.7628 69.6997ZM67.7628 54.616C63.7997 54.616 60.5707 57.7345 60.5707 61.5676C60.5707 65.4007 63.7997 68.5156 67.7628 68.5156C71.7259 68.5156 74.9514 65.4007 74.9514 61.5676C74.9514 57.7345 71.7259 54.6054 67.7628 54.6054V54.616Z" fill="#3A3A39"/>
<path d="M64.6855 63.3589C64.6855 62.1286 65.6136 61.4423 66.4994 61.1686C65.6136 60.845 65.0878 60.2227 65.0878 59.4155C65.0878 58.2315 66.016 57.3105 67.8299 57.3105C69.4885 57.3105 70.4449 58.2315 70.4449 59.4013C70.4393 59.8059 70.2997 60.197 70.0485 60.5126C69.7973 60.8282 69.4486 61.0503 69.058 61.1436C69.5549 61.2532 70.0002 61.5297 70.3208 61.9276C70.6413 62.3256 70.8182 62.8215 70.8225 63.334C70.8225 64.8168 69.538 65.8017 67.7099 65.8017C65.9701 65.7875 64.6855 64.8168 64.6855 63.3589ZM70.0673 63.334C70.0673 62.1393 69.2274 61.4815 67.7699 61.4815C66.1571 61.4815 65.4584 62.3028 65.4584 63.334C65.4584 64.3652 66.2701 65.215 67.7558 65.215C69.125 65.215 70.0673 64.543 70.0673 63.334ZM65.8713 59.3871C65.8713 60.1729 66.4147 60.8948 67.8263 60.8948C69.1391 60.8948 69.6826 60.2974 69.6826 59.4369C69.6826 58.6546 69.1251 57.9079 67.7982 57.9079C66.383 57.8972 65.8713 58.5444 65.8713 59.3871Z" fill="#3A3A39"/>
<path d="M67.726 66.0971C65.7533 66.0971 64.377 64.9699 64.377 63.3592C64.3805 62.8937 64.5151 62.4388 64.765 62.0474C65.0149 61.6559 65.3697 61.3438 65.7886 61.1474C65.4889 60.9702 65.2405 60.7173 65.0678 60.4135C64.8951 60.1098 64.8042 59.7658 64.804 59.4158C64.804 57.9579 66.0003 57.0156 67.8495 57.0156C69.5682 57.0156 70.768 57.997 70.768 59.4016C70.769 59.7459 70.6827 60.0847 70.5171 60.3859C70.3516 60.6871 70.1124 60.9407 69.8223 61.1226C70.2239 61.333 70.5603 61.6506 70.7949 62.0406C71.0295 62.4307 71.1534 62.8782 71.1527 63.3342C71.1421 64.9628 69.7375 66.0971 67.726 66.0971ZM65.6898 61.9155C65.4678 62.0832 65.2881 62.3014 65.1655 62.5523C65.0428 62.8031 64.9807 63.0796 64.984 63.3592C64.984 64.4579 65.8345 65.2686 67.1014 65.4606C65.7428 65.2366 65.1287 64.2836 65.1287 63.3271C65.1272 62.8011 65.3284 62.295 65.6898 61.9155ZM69.5928 61.6844C69.8468 61.8742 70.0508 62.1239 70.1867 62.4115C70.3227 62.6991 70.3865 63.016 70.3727 63.3342C70.3797 63.8163 70.2192 64.2857 69.9189 64.6611C69.6185 65.0364 69.1973 65.2941 68.7282 65.3895C69.8364 65.1086 70.5316 64.3548 70.5316 63.3342C70.5322 63.0005 70.4458 62.6725 70.2811 62.3829C70.1163 62.0934 69.879 61.8525 69.5928 61.6844ZM67.7684 61.7768C66.4732 61.7768 65.7604 62.3315 65.7604 63.3342C65.7604 64.337 66.5438 64.9202 67.7542 64.9202C68.9647 64.9202 69.7622 64.3263 69.7622 63.3342C69.7622 62.0471 68.6789 61.7768 67.7684 61.7768ZM67.2884 61.1439L67.4261 61.1937H67.4049C67.6398 61.1761 67.8757 61.1761 68.1107 61.1937L68.0224 61.1723C67.7774 61.1845 67.5318 61.175 67.2884 61.1439ZM66.5367 57.8299C66.2049 57.9382 65.9161 58.1505 65.7123 58.4357C65.5085 58.721 65.4005 59.0643 65.4039 59.4158C65.4036 59.672 65.4719 59.9236 65.6018 60.1439C65.7316 60.3642 65.918 60.5451 66.1415 60.6674C65.9573 60.5102 65.81 60.3139 65.71 60.0926C65.6099 59.8713 65.5596 59.6305 65.5627 59.3873C65.5487 59.0588 65.6344 58.7337 65.8085 58.4554C65.9825 58.1772 66.2365 57.959 66.5367 57.8299ZM67.7966 58.1855C66.7062 58.1855 66.1768 58.5731 66.1768 59.3695C66.1768 60.166 66.7767 60.5821 67.8248 60.5821C68.8729 60.5821 69.3741 60.2016 69.3741 59.4193C69.3741 58.6371 68.7848 58.1926 67.7966 58.1926V58.1855ZM68.273 57.6237C69.5293 57.7979 69.9881 58.6655 69.9881 59.4016C70.0031 59.7951 69.878 60.181 69.6352 60.4896C69.7968 60.3558 69.9268 60.1875 70.0159 59.9969C70.105 59.8063 70.151 59.5981 70.1505 59.3873C70.1505 58.4451 69.4093 57.7695 68.273 57.6308V57.6237Z" fill="#3A3A39"/>
<path d="M36.3931 14.2859V14.9971H36.1602V13.0698H36.7072C36.8843 13.0587 37.0594 13.1117 37.2012 13.2192C37.2611 13.2719 37.3082 13.3378 37.3388 13.4118C37.3694 13.4858 37.3827 13.5659 37.3776 13.6458C37.3801 13.7303 37.3641 13.8143 37.3305 13.8918C37.297 13.9692 37.2468 14.0383 37.1836 14.0939C37.0351 14.2168 36.8462 14.279 36.6543 14.2681L36.3931 14.2859ZM36.3931 13.2938V14.0832H36.6366C36.7628 14.0884 36.887 14.0509 36.9895 13.9766C37.0321 13.9393 37.0657 13.8926 37.0877 13.8403C37.1097 13.7879 37.1196 13.7311 37.1165 13.6743C37.1165 13.4183 36.9613 13.2938 36.6507 13.2938H36.3931Z" fill="#3A3A39"/>
<path d="M40.9756 15.0463C40.8501 15.0523 40.7248 15.0312 40.608 14.9846C40.4912 14.938 40.3854 14.867 40.298 14.7761C40.2098 14.6811 40.1415 14.5691 40.0972 14.4469C40.053 14.3247 40.0336 14.1948 40.0404 14.0649C40.0276 13.7934 40.1214 13.5277 40.3015 13.3253C40.3932 13.2317 40.5035 13.1586 40.6251 13.1108C40.7467 13.063 40.8769 13.0416 41.0073 13.048C41.1306 13.0427 41.2537 13.064 41.3681 13.1107C41.4826 13.1573 41.5858 13.228 41.6708 13.3182C41.7582 13.4136 41.8257 13.5257 41.8693 13.6478C41.913 13.77 41.9319 13.8997 41.9249 14.0293C41.9395 14.3033 41.8456 14.5719 41.6637 14.7761C41.574 14.8669 41.4665 14.9378 41.348 14.9843C41.2295 15.0309 41.1027 15.052 40.9756 15.0463ZM40.9932 13.2684C40.8971 13.2652 40.8014 13.2832 40.713 13.3213C40.6246 13.3594 40.5456 13.4166 40.4815 13.4889C40.357 13.654 40.2896 13.8557 40.2896 14.0631C40.2896 14.2705 40.357 14.4722 40.4815 14.6374C40.5431 14.7087 40.6198 14.7652 40.7059 14.8027C40.792 14.8403 40.8854 14.8579 40.9791 14.8543C41.0752 14.8594 41.1713 14.8437 41.2608 14.8081C41.3503 14.7725 41.4312 14.7179 41.4979 14.6481C41.6304 14.4855 41.6972 14.2785 41.6849 14.0685C41.6995 13.8555 41.634 13.6448 41.5014 13.4782C41.4387 13.4052 41.3604 13.3475 41.2724 13.3093C41.1844 13.2711 41.0889 13.2535 40.9932 13.2578V13.2684Z" fill="#3A3A39"/>
<path d="M45.5425 15.0463C45.417 15.0523 45.2917 15.0312 45.1748 14.9846C45.058 14.938 44.9524 14.867 44.8649 14.7761C44.778 14.6803 44.7108 14.5682 44.6672 14.4461C44.6236 14.324 44.6044 14.1945 44.6108 14.0649C44.5967 13.7938 44.6893 13.5281 44.8685 13.3253C44.9601 13.2317 45.0704 13.1586 45.192 13.1108C45.3136 13.063 45.4439 13.0416 45.5743 13.048C45.6977 13.0422 45.8208 13.0634 45.9353 13.11C46.0498 13.1566 46.1529 13.2276 46.2377 13.3182C46.3251 13.4136 46.3926 13.5257 46.4363 13.6478C46.4799 13.77 46.4988 13.8997 46.4918 14.0293C46.504 14.3023 46.4118 14.5696 46.2342 14.7761C46.1438 14.867 46.0356 14.9379 45.9165 14.9845C45.7974 15.031 45.6701 15.0521 45.5425 15.0463ZM45.5601 13.2684C45.4641 13.2659 45.3687 13.2843 45.2804 13.3223C45.1921 13.3603 45.113 13.4172 45.0485 13.4889C44.9239 13.654 44.8565 13.8557 44.8565 14.0631C44.8565 14.2705 44.9239 14.4722 45.0485 14.6374C45.1101 14.7087 45.1867 14.7652 45.2728 14.8027C45.3589 14.8403 45.4523 14.8579 45.546 14.8543C45.6421 14.8594 45.7382 14.8437 45.8277 14.8081C45.9172 14.7725 45.9981 14.7179 46.0648 14.6481C46.1989 14.4864 46.2659 14.2787 46.2518 14.0685C46.2664 13.8555 46.2009 13.6448 46.0683 13.4782C46.0056 13.4052 45.9273 13.3475 45.8393 13.3093C45.7513 13.2711 45.6559 13.2535 45.5601 13.2578V13.2684Z" fill="#3A3A39"/>
<path d="M50.3427 15.0131H49.3086V13.0859H49.5416V14.8105H50.3427V15.0131Z" fill="#3A3A39"/>
<path d="M54.1251 15.0131H53.0664V13.0859H54.0792V13.2922H53.3028V13.9322H54.0086V14.1349H53.3028V14.8105H54.1251V15.0131Z" fill="#3A3A39"/>
<path d="M56.8359 14.9406V14.6739C56.8702 14.7036 56.9082 14.7287 56.9489 14.7485C56.9943 14.7706 57.0415 14.7884 57.09 14.8019L57.2347 14.8374H57.3724C57.4849 14.8458 57.5972 14.8184 57.6935 14.7592C57.7282 14.7345 57.7562 14.7014 57.7747 14.6628C57.7932 14.6242 57.8017 14.5815 57.7994 14.5387C57.8017 14.4911 57.7893 14.4439 57.764 14.4036C57.7378 14.3623 57.7044 14.3261 57.6653 14.2969C57.6187 14.2617 57.5691 14.2308 57.517 14.2045L57.3335 14.1121C57.267 14.0813 57.2022 14.0469 57.1394 14.0089C57.0826 13.9768 57.0293 13.9387 56.9806 13.8952C56.9392 13.8535 56.9047 13.8055 56.8782 13.7529C56.8502 13.6943 56.8369 13.6295 56.8395 13.5645C56.8366 13.4832 56.8574 13.4028 56.8994 13.3333C56.9389 13.2692 56.9919 13.2146 57.0547 13.1733C57.1225 13.129 57.1979 13.0976 57.2771 13.0809C57.3601 13.0595 57.4455 13.0488 57.5311 13.0489C57.6778 13.0396 57.8248 13.0626 57.9617 13.1164V13.3724C57.825 13.2879 57.6667 13.2459 57.5064 13.2516C57.456 13.2463 57.4051 13.2463 57.3547 13.2516C57.3063 13.2601 57.2598 13.2769 57.2171 13.3013C57.179 13.3232 57.1464 13.3536 57.1218 13.3902C57.0959 13.4304 57.0823 13.4774 57.083 13.5254C57.0823 13.5697 57.092 13.6135 57.1112 13.6534C57.1321 13.6922 57.161 13.7261 57.1959 13.7529C57.238 13.7854 57.2828 13.8139 57.33 13.8383L57.517 13.9272C57.5876 13.9627 57.6547 13.9983 57.7182 14.0374C57.7794 14.0718 57.8363 14.1137 57.8876 14.1619C57.9332 14.2063 57.9714 14.2579 58.0005 14.3147C58.0298 14.3731 58.0443 14.4378 58.0428 14.5032C58.0464 14.5875 58.0269 14.6711 57.9864 14.745C57.9488 14.8106 57.8954 14.8656 57.8311 14.905C57.7618 14.9482 57.6853 14.9783 57.6052 14.9939C57.5159 15.0127 57.4248 15.0222 57.3335 15.0223H57.2171L57.0759 15.001L56.9383 14.9654C56.9032 14.9617 56.8688 14.9534 56.8359 14.9406Z" fill="#3A3A39"/>
<path d="M65.3577 13.0875L64.7014 14.3036V15.0147H64.4649V14.3036L63.8262 13.084H64.0908L64.5355 13.9551C64.555 13.9929 64.5715 14.0321 64.5849 14.0725C64.5849 14.0441 64.6025 14.0049 64.6378 13.9551L65.1072 13.084L65.3577 13.0875Z" fill="#3A3A39"/>
<path d="M71.2559 15.0139V13.0867H71.8241C71.9701 13.0794 72.1144 13.122 72.2334 13.2076C72.2821 13.245 72.3213 13.2935 72.3477 13.3491C72.3741 13.4048 72.387 13.466 72.3852 13.5277C72.3885 13.6304 72.356 13.7309 72.2935 13.8121C72.2302 13.8953 72.1425 13.9563 72.0429 13.9863C72.1636 13.9954 72.2773 14.047 72.364 14.1321C72.4044 14.1753 72.4359 14.2261 72.4565 14.2817C72.4771 14.3373 72.4865 14.3964 72.484 14.4557C72.4865 14.5324 72.4712 14.6087 72.4393 14.6784C72.4075 14.7482 72.36 14.8095 72.3005 14.8575C72.1693 14.9621 72.0054 15.0162 71.8382 15.0104L71.2559 15.0139ZM71.4924 13.293V13.9117H71.7288C71.8371 13.9186 71.9445 13.8871 72.0323 13.8228C72.0693 13.7926 72.0986 13.7539 72.1176 13.71C72.1366 13.6661 72.1449 13.6182 72.1416 13.5703C72.1416 13.3854 72.0147 13.293 71.7606 13.293H71.4924ZM71.4924 14.1179V14.829H71.8064C71.9213 14.836 72.0351 14.802 72.1276 14.7331C72.1645 14.7018 72.1938 14.6625 72.2133 14.6182C72.2329 14.5738 72.2421 14.5255 72.2405 14.477C72.2405 14.2494 72.0817 14.1214 71.7606 14.1214L71.4924 14.1179Z" fill="#3A3A39"/>
<path d="M75.7363 13.0859V13.2779H75.5422V14.8212H75.7363V15.0131H75.1152V14.8212H75.3093V13.2779H75.1152V13.0859H75.7363Z" fill="#3A3A39"/>
<path d="M79.5203 15.0131H78.4863V13.0859H78.7192V14.8105H79.5203V15.0131Z" fill="#3A3A39"/>
<path d="M83.282 15.0131H82.248V13.0859H82.4809V14.8105H83.282V15.0131Z" fill="#3A3A39"/>
<path d="M87.5524 15.0131H87.2948L87.0831 14.4727H86.2361L86.0385 15.0131H85.7773L86.5431 13.0859H86.7831L87.5524 15.0131ZM87.0054 14.27L86.6914 13.4486C86.6785 13.4068 86.669 13.364 86.6631 13.3206C86.6551 13.3639 86.6444 13.4066 86.6313 13.4486L86.3208 14.27H87.0054Z" fill="#3A3A39"/>
<path d="M91.6949 15.015H91.4161L91.0844 14.4745C91.056 14.4302 91.0254 14.3875 90.9926 14.3465C90.9678 14.3136 90.938 14.2848 90.9044 14.2611C90.8762 14.2384 90.8438 14.2215 90.8091 14.2114C90.7693 14.2054 90.7289 14.2054 90.6891 14.2114H90.4985V15.0328H90.2656V13.1055H90.8585C90.9407 13.1047 91.0228 13.1155 91.102 13.1375C91.1713 13.1564 91.236 13.189 91.2925 13.2335C91.3479 13.2749 91.3917 13.33 91.4196 13.3936C91.4521 13.4636 91.4678 13.5403 91.4655 13.6176C91.4664 13.6807 91.4557 13.7434 91.4337 13.8025C91.4149 13.8589 91.3849 13.9109 91.3455 13.9553C91.3052 13.9986 91.2588 14.0358 91.2078 14.0656C91.1507 14.0987 91.0888 14.1227 91.0243 14.1367C91.056 14.1489 91.0857 14.1657 91.1126 14.1865C91.1366 14.2059 91.1591 14.2273 91.1797 14.2505C91.2048 14.2767 91.2272 14.3052 91.2467 14.3358L91.3208 14.446L91.6949 15.015ZM90.4985 13.294V14.0051H90.8162C90.8713 14.0061 90.9262 13.9977 90.9785 13.9803C91.0253 13.964 91.0684 13.9386 91.1055 13.9056C91.1429 13.8715 91.1728 13.8298 91.1929 13.7832C91.2129 13.7365 91.2229 13.6861 91.222 13.6353C91.2241 13.5899 91.216 13.5445 91.1983 13.5026C91.1806 13.4608 91.1536 13.4235 91.1196 13.3936C91.0323 13.3312 90.9265 13.3011 90.8197 13.3082L90.4985 13.294Z" fill="#3A3A39"/>
<path d="M95.4474 15.0131H94.3887V13.0859H95.4015V13.2922H94.6216V13.9322H95.3274V14.1349H94.6216V14.8105H95.4474V15.0131Z" fill="#3A3A39"/>
<path d="M98.1582 14.9404V14.6737C98.1919 14.7042 98.2299 14.7294 98.2711 14.7484C98.3152 14.7704 98.3613 14.7883 98.4087 14.8017L98.5569 14.8373H98.6911C98.8048 14.8462 98.9183 14.8188 99.0157 14.7591C99.0505 14.7344 99.0785 14.7012 99.097 14.6627C99.1155 14.6241 99.124 14.5814 99.1216 14.5386C99.1222 14.4912 99.1099 14.4445 99.0863 14.4035C99.0601 14.3622 99.0266 14.326 98.9875 14.2968C98.9409 14.2616 98.8913 14.2307 98.8393 14.2044L98.6558 14.1119C98.5892 14.0812 98.5244 14.0468 98.4616 14.0088C98.4048 13.9767 98.3516 13.9386 98.3029 13.8951C98.2615 13.8525 98.2259 13.8047 98.197 13.7528C98.1717 13.6933 98.1597 13.629 98.1617 13.5643C98.1589 13.483 98.1797 13.4027 98.2217 13.3332C98.2612 13.2691 98.3142 13.2145 98.377 13.1732C98.4445 13.1283 98.52 13.0969 98.5993 13.0808C98.6823 13.0592 98.7677 13.0485 98.8534 13.0488C99.0001 13.0398 99.1469 13.0628 99.2839 13.1163V13.3723C99.1471 13.2882 98.9889 13.2462 98.8287 13.2514C98.7782 13.2462 98.7274 13.2462 98.677 13.2514C98.6284 13.2593 98.5817 13.2762 98.5393 13.3012C98.5012 13.3231 98.4686 13.3535 98.444 13.3901C98.4165 13.4296 98.4029 13.4771 98.4052 13.5252C98.4046 13.5695 98.4142 13.6134 98.4334 13.6532C98.4543 13.6921 98.4832 13.726 98.5181 13.7528C98.5602 13.7852 98.6051 13.8138 98.6522 13.8381L98.8357 13.927C98.9058 13.9602 98.9742 13.9969 99.0405 14.0372C99.1017 14.0717 99.1586 14.1135 99.2098 14.1617C99.2555 14.2062 99.2935 14.2578 99.3227 14.3146C99.352 14.373 99.3665 14.4377 99.3651 14.5031C99.3687 14.5874 99.3492 14.671 99.3087 14.7448C99.271 14.8105 99.2176 14.8655 99.1533 14.9049C99.084 14.9481 99.0075 14.9782 98.9275 14.9938C98.8381 15.0126 98.7471 15.0221 98.6558 15.0222H98.5393L98.3982 15.0009L98.2605 14.9653C98.2254 14.9616 98.1911 14.9532 98.1582 14.9404Z" fill="#3A3A39"/>
<path d="M49.4062 33.8491V31.9219H49.9568C50.6626 31.9219 51.0155 32.2348 51.0155 32.8606C51.0205 32.9934 50.9969 33.1257 50.9463 33.2485C50.8958 33.3712 50.8194 33.4815 50.7226 33.5718C50.5052 33.7592 50.2249 33.8558 49.9391 33.842L49.4062 33.8491ZM49.6391 32.1245V33.6429H49.9356C50.1573 33.6565 50.3758 33.584 50.5461 33.4402C50.6212 33.3654 50.6796 33.2753 50.7173 33.176C50.755 33.0766 50.7713 32.9703 50.765 32.8642C50.765 32.3735 50.4932 32.1245 49.9497 32.1245H49.6391Z" fill="#3A3A39"/>
<path d="M54.881 33.8491H53.8223V31.9219H54.8351V32.1245H54.0551V32.7646H54.761V32.9708H54.0551V33.6429H54.881V33.8491Z" fill="#3A3A39"/>
<path d="M57.5918 33.7858V33.5191C57.6265 33.5472 57.6645 33.5711 57.7047 33.5902C57.7495 33.6119 57.7955 33.6309 57.8424 33.6471L57.9906 33.6791C58.0352 33.6838 58.0801 33.6838 58.1247 33.6791C58.2382 33.6861 58.3513 33.6589 58.4494 33.6009C58.4845 33.5756 58.5126 33.5418 58.5311 33.5026C58.5496 33.4635 58.5579 33.4202 58.5552 33.3769C58.5548 33.3296 58.5427 33.2831 58.52 33.2417C58.4937 33.2015 58.4602 33.1665 58.4211 33.1387C58.3746 33.1034 58.325 33.0725 58.273 33.0462L58.0894 32.9537C58.0189 32.9182 57.9553 32.8862 57.8953 32.8506C57.8384 32.8173 57.7852 32.778 57.7365 32.7333C57.6936 32.693 57.6588 32.6447 57.6342 32.591C57.6057 32.5325 57.5923 32.4677 57.5953 32.4026C57.5925 32.3224 57.6135 32.2432 57.6554 32.175C57.6949 32.1109 57.7479 32.0563 57.8106 32.015C57.8787 31.9704 57.9539 31.9379 58.0329 31.919C58.1164 31.9004 58.2015 31.8909 58.287 31.8906C58.4337 31.8816 58.5806 31.9046 58.7176 31.9581V32.2106C58.5804 32.1277 58.4222 32.0869 58.2624 32.0932C58.2118 32.0897 58.1611 32.0897 58.1106 32.0932C58.0618 32.1022 58.0151 32.1203 57.973 32.1466C57.9348 32.1684 57.9022 32.1989 57.8777 32.2355C57.8497 32.2747 57.836 32.3224 57.8389 32.3706C57.8383 32.4149 57.8479 32.4587 57.8671 32.4986C57.8872 32.537 57.9163 32.5699 57.9518 32.5946C57.9921 32.6295 58.0373 32.6582 58.0859 32.6799L58.2694 32.7724L58.474 32.879C58.5337 32.9159 58.5904 32.9576 58.6434 33.0035C58.6882 33.0487 58.7263 33.1002 58.7564 33.1564C58.7853 33.2162 58.7998 33.282 58.7988 33.3484C58.8018 33.4327 58.7823 33.5162 58.7423 33.5902C58.7027 33.6543 58.6498 33.709 58.587 33.7502C58.517 33.7919 58.4407 33.8219 58.3612 33.8391C58.2718 33.8579 58.1807 33.8674 58.0894 33.8676H57.973L57.8318 33.8462L57.6942 33.8107C57.6591 33.807 57.6247 33.7986 57.5918 33.7858Z" fill="#3A3A39"/>
<path d="M61.6172 33.8491V31.9219H62.1676C62.8734 31.9219 63.2263 32.2348 63.2263 32.8606C63.2313 32.9934 63.2078 33.1257 63.1573 33.2485C63.1067 33.3712 63.0304 33.4815 62.9335 33.5718C62.7161 33.7592 62.4359 33.8558 62.1501 33.842L61.6172 33.8491ZM61.8501 32.1245V33.6429H62.1465C62.3683 33.6565 62.5868 33.584 62.7571 33.4402C62.8321 33.3654 62.8905 33.2753 62.9282 33.176C62.966 33.0766 62.9822 32.9703 62.9758 32.8642C62.9758 32.3735 62.7041 32.1245 62.1607 32.1245H61.8501Z" fill="#3A3A39"/>
<path d="M67.0919 33.8491H66.0332V31.9219H67.046V32.1245H66.2696V32.7646H66.9754V32.9708H66.2696V33.6429H67.0954L67.0919 33.8491Z" fill="#3A3A39"/>
<path d="M74.1674 33.8492H72.9746V33.6501L73.5533 33.0883C73.6721 32.9811 73.7798 32.8619 73.8745 32.7327C73.9344 32.6421 73.9663 32.5357 73.9663 32.4269C73.9692 32.3799 73.9622 32.3327 73.9458 32.2886C73.9294 32.2445 73.9039 32.2043 73.871 32.1709C73.7915 32.1058 73.6909 32.0729 73.5887 32.0784C73.3968 32.085 73.2143 32.1636 73.077 32.2989V32.0678C73.2339 31.9504 73.4251 31.8891 73.6204 31.8935C73.7728 31.8849 73.9227 31.9344 74.0404 32.0322C74.089 32.0774 74.1275 32.1325 74.1537 32.1938C74.1798 32.255 74.1929 32.3211 74.1921 32.3877C74.1897 32.5138 74.1531 32.6368 74.0862 32.7433C73.9797 32.9061 73.8528 33.0543 73.7087 33.1843L73.2463 33.6216H74.1744L74.1674 33.8492Z" fill="#3A3A39"/>
<path d="M77.5356 33.8825C77.444 33.8858 77.3532 33.8648 77.2721 33.8218C77.191 33.7788 77.1225 33.7151 77.0734 33.6371C76.9491 33.422 76.8913 33.1744 76.9074 32.926C76.8894 32.6562 76.9495 32.3869 77.0803 32.1509C77.1332 32.0672 77.207 31.9991 77.2944 31.9535C77.3818 31.9079 77.4797 31.8865 77.578 31.8913C77.9979 31.8913 78.2062 32.2184 78.2062 32.8762C78.2223 33.1372 78.1609 33.3973 78.0297 33.623C77.9767 33.7056 77.9032 33.7729 77.8166 33.8184C77.73 33.8639 77.6332 33.886 77.5356 33.8825ZM77.5674 32.0762C77.2815 32.0762 77.1404 32.3571 77.1404 32.9154C77.1404 33.4736 77.278 33.6976 77.5603 33.6976C77.8426 33.6976 77.9732 33.4309 77.9732 32.9011C77.9732 32.3713 77.8356 32.0762 77.5603 32.0762H77.5674Z" fill="#3A3A39"/>
<path d="M82.1152 33.8488H80.9895V33.6532H81.4447V32.1563L80.9824 32.2914V32.0816L81.6882 31.8789V33.6568H82.1364L82.1152 33.8488Z" fill="#3A3A39"/>
<path d="M85.4453 33.8825C85.3539 33.885 85.2633 33.8638 85.1823 33.8208C85.1013 33.7778 85.0327 33.7146 84.983 33.6371C84.8603 33.4213 84.8027 33.1742 84.8172 32.926C84.8006 32.6563 84.8605 32.3874 84.9901 32.1508C85.0437 32.0671 85.1182 31.9991 85.2062 31.9536C85.2941 31.908 85.3924 31.8865 85.4912 31.8913C85.9076 31.8913 86.1158 32.2184 86.1158 32.8762C86.1337 33.1374 86.0722 33.3979 85.9394 33.6229C85.8866 33.7058 85.8132 33.7733 85.7266 33.8189C85.6399 33.8644 85.543 33.8863 85.4453 33.8825ZM85.477 32.0761C85.1947 32.0761 85.0536 32.3571 85.0536 32.9153C85.0536 33.4736 85.1912 33.6976 85.47 33.6976C85.7488 33.6976 85.8829 33.4309 85.8829 32.9011C85.8829 32.3713 85.7488 32.0761 85.477 32.0761Z" fill="#3A3A39"/>
</g>
<defs>
<clipPath id="clip0_3397_9793">
<rect width="134" height="86" fill="white" transform="translate(0.759766 0.300781)"/>
</clipPath>
</defs>
</svg>
