<svg width="259" height="142" viewBox="0 0 259 142" fill="none" xmlns="http://www.w3.org/2000/svg">
<path d="M251.271 30.7289L257.964 30.2474L258.168 28.0273H217.92L217.724 30.2474L224.254 30.7289L220.516 78.2985H220.434L187.956 28.0273H137.285L115.664 79.4494H115.582L102.261 28.0273H59.5319L59.3278 30.2474L65.931 30.7289L60.1359 94.2964L54.4223 94.3454C53.6253 94.3606 52.8311 94.2448 52.0716 94.0026C51.1434 93.5907 50.3285 92.9607 49.6963 92.1661C48.6177 90.9068 47.7696 89.4673 47.1906 87.9136C46.2438 85.6608 45.3187 83.0761 44.4154 80.1595C43.5176 77.2374 42.783 75.0744 42.3096 73.6297C41.6875 71.842 40.8341 70.1435 39.7711 68.5773C38.7471 67.1941 37.3913 66.0909 35.8287 65.3695C33.8985 64.4776 31.7924 64.0313 29.6663 64.0636V63.9656C35.3962 63.0569 40.0541 61.0653 43.64 57.9908C47.226 54.9164 49.2746 50.6231 49.7861 45.1109C50.1117 42.4239 49.79 39.698 48.8475 37.1608C48.0036 35.001 46.5342 33.1424 44.6276 31.8227C42.6108 30.4533 40.3583 29.4681 37.9836 28.9169C35.1703 28.274 32.2906 27.9672 29.405 28.0028H6.46102L6.25696 30.2229L12.8602 30.7045L7.06502 94.272L0.372025 94.7535L0.167969 96.9818H24.524L24.7281 94.7535L18.1167 94.272L20.8265 64.5941C21.4958 64.5941 22.459 64.5451 23.7242 64.5451C24.4575 64.5421 25.1785 64.7337 25.8136 65.1002C26.5583 65.5687 27.1819 66.2062 27.6338 66.9611C28.8738 68.7944 29.8262 70.8066 30.458 72.9277C30.9641 74.4622 31.3477 75.711 31.6007 76.6742C33.3747 83.204 34.6561 87.4837 35.4451 89.5134C36.0781 91.2961 37.0666 92.9318 38.3508 94.3209C39.3179 95.3717 40.5588 96.1321 41.9341 96.5166C43.6214 96.8715 45.3445 97.0276 47.0681 96.9818H93.1929L93.397 94.7535L86.9161 94.272L91.8625 32.9817H91.9441L108.824 97.945H110.456L136.689 35.2508H136.779L131.311 94.272L124.618 94.7535L124.413 96.9818H188.895L189.099 94.7535L182.569 94.272L186.218 47.5758H186.308L218.769 97.945H221.405L227.062 30.7045L233.714 30.2229L240.244 30.7045L234.448 94.272L227.755 94.7535L227.551 96.9818H251.916L252.112 94.7535L245.508 94.272L251.271 30.7289ZM22.8426 61.9087C22.0264 61.9087 21.3898 61.9087 21.0796 61.8597L23.8874 31.0718C25.2685 30.8363 26.6655 30.7053 28.0664 30.68C29.5856 30.651 31.0986 30.8829 32.5393 31.3656C33.848 31.8303 35.0226 32.6095 35.9593 33.6347C37.0633 34.9156 37.797 36.4734 38.0815 38.1403C38.5068 40.4721 38.5866 42.8538 38.3182 45.2088C37.8122 50.7591 36.3892 54.93 34.0494 57.7215C31.7096 60.513 27.9739 61.9087 22.8426 61.9087ZM84.4103 94.2964L77.7744 94.7781L71.2447 94.2964L77.0398 30.7289L83.6757 30.2556L90.2055 30.7289L84.4103 94.2964ZM155.52 94.2964L148.884 94.7781L142.354 94.2964L148.157 30.7289L154.793 30.2556L161.323 30.7289L155.52 94.2964ZM179.786 94.2964L173.142 94.7781L166.612 94.2964L172.407 30.7289L178.839 30.2637L185.14 30.7289L179.786 94.2964Z" fill="#3A3A39"/>
<path d="M67.7364 118.863C68.0115 118.861 68.2858 118.894 68.5526 118.961C68.7709 119.011 68.9766 119.106 69.1567 119.239C69.3133 119.355 69.437 119.51 69.5158 119.688C69.5936 119.877 69.6325 120.079 69.6301 120.284C69.6283 120.429 69.6007 120.573 69.5485 120.708C69.4933 120.847 69.4161 120.977 69.3199 121.092C69.2124 121.209 69.0887 121.311 68.9527 121.394C68.7928 121.48 68.6227 121.546 68.4465 121.59C68.8345 121.619 69.2032 121.77 69.4995 122.022C69.6211 122.137 69.7167 122.277 69.7801 122.431C69.8434 122.586 69.873 122.753 69.8668 122.92C69.8719 123.139 69.8273 123.357 69.7362 123.557C69.6465 123.744 69.5153 123.909 69.3526 124.038C69.1708 124.179 68.9626 124.281 68.7405 124.34C68.4748 124.414 68.2 124.45 67.9242 124.446H66.0469V118.863H67.7364ZM66.4877 119.19V121.475H67.7446C67.9769 121.48 68.2086 121.447 68.4303 121.377C68.6006 121.321 68.7584 121.232 68.8955 121.116C69.0131 121.017 69.1054 120.891 69.1648 120.749C69.2217 120.617 69.2523 120.476 69.2547 120.332C69.2592 120.177 69.2275 120.022 69.1624 119.88C69.0973 119.739 69.0003 119.614 68.8791 119.516C68.5402 119.298 68.1384 119.197 67.7364 119.231L66.4877 119.19ZM67.9405 124.087C68.3518 124.117 68.7609 124.004 69.0995 123.769C69.23 123.662 69.3334 123.525 69.4014 123.371C69.4695 123.216 69.5003 123.048 69.4913 122.879C69.4959 122.715 69.4594 122.552 69.3852 122.406C69.3151 122.263 69.2115 122.14 69.0832 122.047C68.939 121.94 68.7754 121.862 68.6017 121.818C68.3882 121.764 68.1688 121.736 67.9486 121.736H66.4877V124.087H67.9405Z" fill="#3A3A39"/>
<path d="M80.5248 121.656C80.5303 122.056 80.464 122.454 80.3289 122.831C80.1983 123.165 80.0043 123.469 79.7576 123.729C79.5109 123.98 79.2129 124.175 78.8841 124.3C78.5255 124.441 78.1429 124.51 77.7577 124.504C77.3725 124.511 76.9896 124.442 76.6314 124.3C76.3002 124.175 75.9997 123.98 75.7499 123.729C75.5055 123.469 75.3142 123.164 75.1866 122.831C75.0488 122.455 74.9796 122.057 74.9826 121.656C74.9788 121.257 75.048 120.862 75.1866 120.489C75.3104 120.154 75.5022 119.848 75.7499 119.591C75.9981 119.336 76.2989 119.138 76.6314 119.011C76.9896 118.869 77.3725 118.8 77.7577 118.807C78.1429 118.801 78.5255 118.871 78.8841 119.011C79.2129 119.137 79.5109 119.332 79.7576 119.583C80.0062 119.844 80.2004 120.152 80.3289 120.489C80.4647 120.862 80.5311 121.258 80.5248 121.656ZM80.0921 121.656C80.0957 121.298 80.0406 120.943 79.9289 120.603C79.8288 120.299 79.6646 120.021 79.4474 119.787C79.2415 119.566 78.9873 119.395 78.7046 119.289C78.4028 119.172 78.0814 119.114 77.7577 119.117C77.4314 119.114 77.1074 119.172 76.8028 119.289C76.5222 119.399 76.2688 119.569 76.06 119.787C75.8428 120.021 75.6786 120.299 75.5785 120.603C75.3608 121.288 75.3608 122.024 75.5785 122.709C75.6807 123.011 75.8446 123.289 76.06 123.525C76.2693 123.74 76.5227 123.907 76.8028 124.015C77.1074 124.132 77.4314 124.19 77.7577 124.186C78.0814 124.19 78.4028 124.132 78.7046 124.015C78.9869 123.911 79.2412 123.744 79.4474 123.525C79.6628 123.289 79.8268 123.011 79.9289 122.709C80.0406 122.369 80.0957 122.013 80.0921 121.656Z" fill="#3A3A39"/>
<path d="M88.0827 124.161C88.3405 124.165 88.5964 124.115 88.8336 124.014C89.0463 123.927 89.2381 123.796 89.3968 123.63C89.551 123.459 89.6703 123.259 89.7478 123.042C89.8313 122.809 89.8727 122.563 89.8702 122.316V118.863H90.2864V122.316C90.2858 122.595 90.2332 122.872 90.1314 123.132C90.0377 123.394 89.8904 123.633 89.6988 123.834C89.4999 124.033 89.2643 124.191 89.005 124.299C88.4113 124.527 87.7541 124.527 87.1603 124.299C86.901 124.191 86.6654 124.033 86.4666 123.834C86.275 123.633 86.1276 123.394 86.0339 123.132C85.9321 122.872 85.8795 122.595 85.8789 122.316V118.863H86.3033V122.316C86.3021 122.563 86.3435 122.809 86.4257 123.042C86.5009 123.258 86.6205 123.455 86.7767 123.622C86.9275 123.795 87.1179 123.93 87.3317 124.014C87.5689 124.115 87.8248 124.165 88.0827 124.161Z" fill="#3A3A39"/>
<path d="M99.8461 119.206H97.8056V124.446H97.3811V119.206H95.3242V118.863H99.8461V119.206Z" fill="#3A3A39"/>
<path d="M105.354 124.446H104.93V118.863H105.354V124.446Z" fill="#3A3A39"/>
<path d="M116.586 125.68H116.235C116.186 125.682 116.138 125.674 116.093 125.656C116.048 125.637 116.007 125.609 115.974 125.574L114.733 124.292C114.363 124.433 113.97 124.505 113.574 124.504C113.189 124.51 112.806 124.441 112.448 124.3C112.12 124.172 111.823 123.978 111.574 123.729C111.327 123.471 111.136 123.166 111.011 122.831C110.87 122.456 110.8 122.057 110.807 121.656C110.8 121.257 110.869 120.861 111.011 120.489C111.131 120.152 111.323 119.845 111.574 119.591C111.82 119.337 112.118 119.139 112.448 119.011C112.806 118.871 113.189 118.801 113.574 118.807C113.959 118.8 114.342 118.869 114.701 119.011C115.032 119.137 115.332 119.332 115.582 119.583C115.831 119.842 116.023 120.151 116.145 120.489C116.371 121.117 116.41 121.797 116.26 122.448C116.209 122.687 116.123 122.918 116.006 123.133C115.905 123.341 115.769 123.531 115.607 123.696C115.45 123.862 115.272 124.005 115.076 124.121L116.586 125.68ZM111.232 121.656C111.226 122.014 111.284 122.371 111.403 122.709C111.505 123.011 111.669 123.289 111.885 123.525C112.092 123.742 112.346 123.909 112.627 124.015C113.241 124.243 113.916 124.243 114.529 124.015C114.809 123.907 115.063 123.74 115.272 123.525C115.485 123.289 115.646 123.011 115.745 122.709C115.974 122.025 115.974 121.286 115.745 120.603C115.648 120.3 115.487 120.022 115.272 119.787C115.063 119.569 114.81 119.399 114.529 119.289C113.916 119.06 113.241 119.06 112.627 119.289C112.346 119.397 112.092 119.567 111.885 119.787C111.667 120.021 111.503 120.299 111.403 120.603C111.284 120.941 111.226 121.297 111.232 121.656Z" fill="#3A3A39"/>
<path d="M123.932 124.161C124.188 124.165 124.441 124.115 124.675 124.014C124.889 123.93 125.082 123.798 125.238 123.63C125.396 123.461 125.515 123.261 125.589 123.042C125.673 122.809 125.714 122.563 125.712 122.316V118.863H126.136V122.316C126.131 122.595 126.079 122.871 125.981 123.132C125.885 123.394 125.734 123.633 125.54 123.834C125.343 124.035 125.107 124.193 124.847 124.299C124.556 124.417 124.245 124.475 123.932 124.471C123.617 124.475 123.303 124.417 123.01 124.299C122.75 124.193 122.513 124.035 122.316 123.834C122.125 123.631 121.975 123.393 121.875 123.132C121.78 122.87 121.731 122.594 121.729 122.316V118.863H122.153V122.316C122.149 122.563 122.188 122.809 122.267 123.042C122.347 123.256 122.466 123.453 122.618 123.622C122.774 123.793 122.966 123.927 123.181 124.014C123.418 124.115 123.674 124.166 123.932 124.161Z" fill="#3A3A39"/>
<path d="M135.374 124.112V124.446H131.889V118.863H135.374V119.198H132.313V121.459H134.86V121.785H132.313V124.112H135.374Z" fill="#3A3A39"/>
<path d="M151.593 118.863V124.446H151.168V121.785H147.528V124.463H147.104V118.88H147.528V121.483H151.168V118.88L151.593 118.863Z" fill="#3A3A39"/>
<path d="M162.579 121.656C162.585 122.056 162.519 122.454 162.384 122.831C162.253 123.165 162.059 123.469 161.812 123.729C161.565 123.98 161.268 124.175 160.939 124.3C160.58 124.441 160.198 124.51 159.812 124.504C159.427 124.511 159.044 124.442 158.686 124.3C158.355 124.175 158.054 123.98 157.805 123.729C157.56 123.469 157.369 123.164 157.241 122.831C157.103 122.455 157.034 122.057 157.037 121.656C157.034 121.257 157.103 120.862 157.241 120.489C157.365 120.154 157.557 119.848 157.805 119.591C158.053 119.336 158.354 119.138 158.686 119.011C159.044 118.869 159.427 118.8 159.812 118.807C160.198 118.801 160.58 118.871 160.939 119.011C161.268 119.137 161.565 119.332 161.812 119.583C162.061 119.844 162.255 120.152 162.384 120.489C162.519 120.862 162.586 121.258 162.579 121.656ZM162.147 121.656C162.15 121.298 162.095 120.943 161.984 120.603C161.883 120.299 161.719 120.021 161.502 119.787C161.296 119.566 161.042 119.395 160.759 119.289C160.457 119.172 160.136 119.114 159.812 119.117C159.486 119.114 159.162 119.172 158.857 119.289C158.577 119.399 158.323 119.569 158.115 119.787C157.898 120.021 157.733 120.299 157.633 120.603C157.415 121.288 157.415 122.024 157.633 122.709C157.735 123.011 157.899 123.289 158.115 123.525C158.324 123.74 158.577 123.907 158.857 124.015C159.162 124.132 159.486 124.19 159.812 124.186C160.136 124.19 160.457 124.132 160.759 124.015C161.042 123.911 161.296 123.744 161.502 123.525C161.717 123.289 161.881 123.011 161.984 122.709C162.095 122.369 162.15 122.013 162.147 121.656Z" fill="#3A3A39"/>
<path d="M171.477 119.206H169.428V124.446H169.004V119.206H166.955V118.863H171.477V119.206Z" fill="#3A3A39"/>
<path d="M180.056 124.112V124.446H176.57V118.863H180.056V119.198H176.995V121.459H179.501V121.785H176.954V124.112H180.056Z" fill="#3A3A39"/>
<path d="M188.619 124.103V124.446H185.436V118.863H185.86V124.103H188.619Z" fill="#3A3A39"/>
<path d="M52.2516 141.587V141.873H49.2561V141.587H50.5866V137.057C50.5866 136.967 50.5866 136.877 50.5866 136.771L49.305 137.865C49.2871 137.873 49.2676 137.877 49.2479 137.877C49.2282 137.877 49.2087 137.873 49.1907 137.865C49.1557 137.861 49.1236 137.843 49.101 137.816L48.9785 137.653L50.66 136.232H50.9702V141.546L52.2516 141.587Z" fill="#3A3A39"/>
<path d="M60.1108 139.571L60.3394 139.253C60.4047 139.155 60.47 139.065 60.5271 138.967C60.3653 139.141 60.1676 139.278 59.9476 139.367C59.7168 139.46 59.47 139.507 59.2212 139.506C58.9984 139.507 58.7772 139.468 58.5682 139.392C58.3712 139.323 58.1906 139.215 58.0376 139.073C57.8907 138.929 57.7742 138.757 57.6949 138.567C57.6112 138.36 57.5696 138.138 57.5724 137.914C57.5709 137.684 57.6182 137.456 57.7112 137.245C57.7999 137.043 57.9306 136.862 58.0948 136.714C58.2671 136.562 58.4664 136.443 58.6825 136.363C58.9195 136.273 59.1716 136.229 59.4252 136.233C59.6683 136.228 59.9099 136.272 60.1354 136.363C60.3415 136.443 60.5301 136.562 60.6903 136.714C60.8466 136.873 60.9689 137.062 61.0495 137.269C61.1405 137.498 61.1849 137.742 61.1801 137.988C61.1805 138.125 61.164 138.262 61.1311 138.396C61.1009 138.534 61.0544 138.668 60.9924 138.796C60.9271 138.926 60.8537 139.057 60.772 139.196L60.47 139.645L58.9437 141.783C58.9214 141.816 58.8904 141.841 58.8543 141.857C58.8183 141.873 58.7786 141.878 58.7396 141.873H58.3886L60.1108 139.571ZM59.2946 139.212C59.5095 139.214 59.7228 139.175 59.9231 139.098C60.0954 139.026 60.253 138.924 60.3883 138.796C60.5097 138.677 60.6068 138.535 60.6741 138.379C60.7377 138.233 60.771 138.074 60.772 137.914C60.7715 137.724 60.7355 137.536 60.6659 137.359C60.6029 137.196 60.5055 137.049 60.3803 136.927C60.2549 136.804 60.1046 136.709 59.9395 136.649C59.764 136.575 59.5748 136.539 59.3844 136.543C59.1843 136.541 58.9854 136.574 58.7967 136.641C58.6302 136.708 58.4758 136.801 58.3397 136.918C58.2114 137.038 58.1085 137.182 58.0376 137.343C57.9681 137.517 57.9322 137.702 57.9316 137.89C57.9295 138.079 57.9627 138.267 58.0295 138.445C58.0899 138.602 58.1847 138.745 58.307 138.861C58.431 138.978 58.5785 139.067 58.7396 139.122C58.9286 139.187 59.1276 139.217 59.3273 139.212H59.2946Z" fill="#3A3A39"/>
<path d="M67.1873 138.511C67.3557 138.464 67.5277 138.431 67.7015 138.413C67.8564 138.401 68.0119 138.401 68.1667 138.413C68.4438 138.407 68.7198 138.449 68.9829 138.535C69.1956 138.612 69.3902 138.731 69.5544 138.886C69.7113 139.033 69.8315 139.215 69.9053 139.417C69.9888 139.63 70.0304 139.857 70.0277 140.086C70.034 140.367 69.9783 140.646 69.8645 140.902C69.7613 141.125 69.6141 141.325 69.4319 141.49C69.2441 141.657 69.0249 141.785 68.7871 141.865C68.5386 141.956 68.2759 142 68.0117 141.996C67.8596 142.009 67.7067 142.009 67.5546 141.996C67.416 141.971 67.2795 141.936 67.1464 141.89C67.0239 141.842 66.904 141.788 66.7874 141.727C66.6893 141.673 66.5963 141.61 66.5098 141.539L66.624 141.384C66.6371 141.366 66.6544 141.351 66.6743 141.341C66.6942 141.331 66.7161 141.326 66.7383 141.327C66.7934 141.335 66.8462 141.355 66.8935 141.384C66.9762 141.436 67.0636 141.479 67.1546 141.515C67.2746 141.572 67.4005 141.615 67.53 141.645C67.6949 141.69 67.8652 141.712 68.0361 141.71C68.2499 141.709 68.4622 141.673 68.6646 141.604C68.8508 141.536 69.0225 141.434 69.1707 141.302C69.3156 141.165 69.4297 140.998 69.5053 140.813C69.5905 140.606 69.6322 140.383 69.6278 140.16C69.6299 139.97 69.5967 139.782 69.5299 139.605C69.4709 139.441 69.3761 139.294 69.2524 139.172C69.1153 139.048 68.9541 138.953 68.7789 138.894C68.5627 138.825 68.3366 138.792 68.1096 138.796C67.9439 138.785 67.7775 138.785 67.6117 138.796C67.4322 138.796 67.2526 138.862 67.0485 138.911L66.8037 138.837L67.2526 136.389H69.8726V136.552C69.8736 136.577 69.8689 136.601 69.8591 136.624C69.8492 136.646 69.8343 136.666 69.8155 136.683C69.7662 136.719 69.7053 136.737 69.6441 136.732H67.5382L67.1873 138.511Z" fill="#3A3A39"/>
<path d="M79.2926 139.98V140.184C79.3008 140.205 79.3008 140.229 79.2926 140.25C79.2634 140.259 79.232 140.259 79.2029 140.25H78.2478V141.882H77.9051V140.25H75.1544C75.1254 140.26 75.0936 140.26 75.0646 140.25C75.0418 140.234 75.0246 140.211 75.0156 140.184V139.997L77.9377 136.291H78.2805V139.98H79.2926ZM77.8806 139.98V137.058C77.8765 137.009 77.8765 136.96 77.8806 136.911C77.8766 136.857 77.8766 136.802 77.8806 136.748L75.3666 140.013L77.8806 139.98Z" fill="#3A3A39"/>
<path d="M90.5332 139.041H92.4431V139.359H90.5332V139.041Z" fill="#3A3A39"/>
<path d="M108.326 141.875H107.967H107.853C107.815 141.857 107.784 141.829 107.763 141.793L105.894 139.532L105.828 139.451L105.747 139.402H105.649H104.743V141.924H104.318V136.349H105.804C106.332 136.308 106.859 136.44 107.306 136.725C107.473 136.851 107.606 137.018 107.693 137.208C107.78 137.399 107.818 137.609 107.804 137.818C107.807 138.014 107.77 138.207 107.694 138.387C107.618 138.567 107.505 138.729 107.363 138.863C107.207 138.999 107.031 139.109 106.84 139.189C106.618 139.277 106.385 139.332 106.147 139.353C106.218 139.394 106.279 139.449 106.326 139.516L108.326 141.875ZM105.747 139.059C105.981 139.061 106.214 139.031 106.441 138.969C106.625 138.915 106.799 138.829 106.955 138.716C107.094 138.611 107.206 138.474 107.281 138.316C107.355 138.152 107.391 137.974 107.387 137.794C107.4 137.624 107.37 137.453 107.301 137.298C107.231 137.143 107.123 137.007 106.987 136.904C106.631 136.692 106.218 136.592 105.804 136.618H104.743V139.067L105.747 139.059Z" fill="#3A3A39"/>
<path d="M113.836 141.874H113.387V136.299H113.803L113.836 141.874Z" fill="#3A3A39"/>
<path d="M125.41 136.299V141.874H125.042V137.123C125.042 137.058 125.042 136.984 125.042 136.903L122.757 140.804C122.741 140.836 122.716 140.862 122.686 140.881C122.656 140.9 122.621 140.91 122.586 140.911H122.52C122.486 140.909 122.453 140.898 122.425 140.879C122.396 140.861 122.373 140.835 122.357 140.804L120.006 136.895C120.006 136.976 120.006 137.05 120.006 137.123V141.874H119.631V136.299H120.014C120.014 136.299 120.014 136.299 120.08 136.364L122.43 140.241C122.471 140.318 122.506 140.397 122.537 140.478L122.586 140.355C122.586 140.355 122.586 140.274 122.651 140.241L124.928 136.364C124.946 136.336 124.971 136.313 125.002 136.299H125.377H125.41Z" fill="#3A3A39"/>
<path d="M131.661 141.874H131.236V136.299H131.661V141.874Z" fill="#3A3A39"/>
<path d="M141.954 136.299V141.874H141.759C141.729 141.883 141.698 141.883 141.669 141.874C141.642 141.862 141.619 141.842 141.603 141.817L137.824 136.976C137.828 137.05 137.828 137.123 137.824 137.197V141.89H137.457V136.315H137.669H137.759C137.785 136.329 137.807 136.348 137.824 136.372L141.595 141.204C141.595 141.123 141.595 141.049 141.595 140.976V136.299H141.954Z" fill="#3A3A39"/>
<path d="M148.229 141.874H147.805V136.299H148.229V141.874Z" fill="#3A3A39"/>
<path d="M160.09 139.041H162V139.359H160.09V139.041Z" fill="#3A3A39"/>
<path d="M174.268 141.874H173.852V136.299H174.268V141.874Z" fill="#3A3A39"/>
<path d="M183.883 136.642H181.835V141.874H181.418V136.642H179.361V136.299H183.883V136.642Z" fill="#3A3A39"/>
<path d="M192.823 141.874H192.496C192.464 141.882 192.43 141.882 192.398 141.874C192.377 141.85 192.361 141.822 192.349 141.792L191.664 140.16H188.807L188.121 141.792C188.113 141.825 188.092 141.854 188.064 141.874C188.032 141.883 187.998 141.883 187.966 141.874H187.664L190.047 136.299H190.456L192.823 141.874ZM191.533 139.849L190.349 137.033C190.301 136.926 190.263 136.813 190.235 136.699C190.235 136.764 190.194 136.821 190.178 136.878C190.162 136.931 190.143 136.983 190.121 137.033L188.937 139.849H191.533Z" fill="#3A3A39"/>
<path d="M201.074 141.531V141.874H197.898V136.299H198.323V141.531H201.074Z" fill="#3A3A39"/>
<path d="M207.186 139.581V141.874H206.77V139.581L204.615 136.316H204.982C205.014 136.306 205.048 136.306 205.08 136.316C205.106 136.335 205.125 136.36 205.138 136.389L206.77 138.952C206.807 139.007 206.84 139.064 206.868 139.123L206.95 139.295L207.023 139.123C207.051 139.064 207.084 139.007 207.121 138.952L208.753 136.389C208.767 136.361 208.787 136.336 208.811 136.316C208.843 136.306 208.877 136.306 208.909 136.316H209.276L207.186 139.581Z" fill="#3A3A39"/>
<path d="M39.0133 128.766H19.0566V129.035H39.0133V128.766Z" fill="#3A3A39"/>
<path d="M239.281 128.766H219.324V129.035H239.281V128.766Z" fill="#3A3A39"/>
<path d="M142.272 0.0636471C141.913 0.0636471 141.554 0.0636471 141.203 0.0636471C141.113 0.0382179 141.02 0.0323571 140.928 0.0465096C140.836 0.060662 140.748 0.0944951 140.671 0.145648C140.593 0.196801 140.528 0.264105 140.479 0.342929C140.43 0.421753 140.398 0.510263 140.386 0.602382C140.29 0.991466 140.092 1.34786 139.812 1.63482C139.533 1.92177 139.181 2.1289 138.795 2.23483C137.595 2.48786 137.497 3.18162 137.505 4.04682C137.509 4.12023 137.509 4.19381 137.505 4.26722C137.448 4.95284 137.505 5.0018 138.183 4.86304C138.656 4.77326 139.113 4.61004 139.57 4.47944L140.125 4.34065C139.957 5.04316 139.642 5.70196 139.2 6.2733C138.758 6.84464 138.2 7.3155 137.562 7.65456C136.796 8.12332 135.912 8.3631 135.014 8.34574C134.116 8.32839 133.241 8.05463 132.494 7.55662C131.943 7.20979 131.491 6.72735 131.181 6.15563C130.871 5.58391 130.713 4.94209 130.722 4.29173C131.008 4.39784 131.171 4.47122 131.335 4.52019L132.665 4.87121C133.13 4.99365 133.326 4.81407 133.334 4.34882C133.34 3.93021 133.378 3.51265 133.449 3.09997C133.514 2.72451 133.383 2.5531 133 2.47964C132.593 2.40857 132.212 2.23159 131.895 1.96651C131.579 1.70142 131.337 1.35761 131.196 0.969643C131.073 0.66764 131.09 0.210583 130.869 0.0799875C130.649 -0.0506083 130.143 0.0228877 129.767 0.0147255C129.555 0.0147255 129.343 0.0147255 129.147 0.0147255C129.07 -0.00304015 128.99 -0.00476763 128.911 0.00974363C128.833 0.0242549 128.759 0.0546298 128.693 0.0990181C128.628 0.143406 128.572 0.200878 128.529 0.267803C128.486 0.334727 128.458 0.409706 128.445 0.488099C128.31 0.919682 128.074 1.31313 127.758 1.63651C127.442 1.95989 127.053 2.2041 126.625 2.34911C125.645 2.71641 125.645 2.71637 125.556 3.73665V3.79374C125.441 5.06705 125.49 5.09971 126.845 4.72425C127.237 4.60998 127.661 4.47942 128.037 4.34882C127.792 6.51181 125.409 8.29933 123.14 8.31565C120.87 8.33198 118.569 6.33227 118.863 4.3815L120.691 4.87121C121.148 4.98549 121.36 4.79774 121.385 4.34882C121.4 3.95002 121.435 3.55229 121.491 3.15717C121.548 2.74905 121.401 2.545 120.977 2.44705C120.589 2.36928 120.228 2.19335 119.928 1.93612C119.628 1.67888 119.399 1.3489 119.263 0.977813C119.14 0.675811 119.157 0.226916 118.928 0.0881577C118.699 -0.0506003 118.21 0.0228877 117.834 0.0147255C117.663 0.0147255 117.491 0.0147255 117.328 0.0147255C116.822 -0.0505724 116.634 0.120743 116.585 0.634964C116.204 5.02625 115.804 9.42027 115.385 13.817C115.337 14.3475 115.492 14.4945 116.03 14.4863H141.08C141.586 14.4863 141.774 14.3557 141.815 13.8497C141.978 11.7357 142.19 9.61345 142.386 7.49943L142.998 0.724836C143.031 0.0636949 143.031 0.0636471 142.272 0.0636471Z" fill="#3A3A39"/>
</svg>
