<?xml version="1.0" encoding="UTF-8"?>
<svg id="Layer_1" xmlns="http://www.w3.org/2000/svg" version="1.1" viewBox="0 0 1915 800">
  <!-- Generator: Adobe Illustrator 29.0.1, SVG Export Plug-In . SVG Version: 2.1.0 Build 192)  -->
  <defs>
    <style>
      .st0 {
        fill: #fffff8;
      }
    </style>
  </defs>
  <path class="st0" d="M1804.9,101.2c-50.9,41-77.2,80.9-99,121.6,0,0,0,0,0,0-32.4,60.6-54.9,123.2-133.4,194.7-104.2,94.8-171.7,82-212.6,172.6-27.2,60.3-32.2,142.9,0,179.9,56.5,65,208.1-33.2,231.6-48.5,108.1-70,81.6-144.6,184.9-139.2,55.2,5.1,97.9,94.2,88.1,176.5-1.8,15.5-5.3,29-10,41.3h0c0,0,60.4,0,60.4,0v-416.9h0V37.4c-34,13-71.8,32.9-110.1,63.8Z"/>
</svg>