<?xml version="1.0" encoding="utf-8"?>
<!-- Generator: Adobe Illustrator 29.0.1, SVG Export Plug-In . SVG Version: 9.03 Build 54978)  -->
<svg version="1.1" id="Layer_1" xmlns="http://www.w3.org/2000/svg" xmlns:xlink="http://www.w3.org/1999/xlink" x="0px" y="0px"
	 viewBox="0 0 80 80" enable-background="new 0 0 80 80" xml:space="preserve">
<g>
	<g>
		<path fill="#3A3A39" d="M9.43,58.96c1.29-0.29,2.59-0.59,3.88-0.85c0.73-0.15,1.47-0.25,2.21-0.32c0.79-0.08,1.59-0.11,2.39-0.15
			c1.29-0.06,2.08,0.64,2.62,1.72c0.16,0.32,0.37,0.65,0.39,0.99c0.03,0.47-0.38,0.78-0.87,0.86c-1.57,0.25-3.15,0.43-4.69,0.79
			c-2.31,0.54-4.6,1.17-6.86,1.85c-1.84,0.55-3.62,1.28-5.45,1.86c-0.38,0.12-0.97,0.07-1.27-0.16c-0.97-0.75-1.67-1.68-1.64-3.05
			c0.01-0.75,0.48-1.07,0.91-1.48c1.51-1.45,3.06-2.85,4.52-4.34c1.79-1.84,3.53-3.74,5.25-5.65c1.06-1.18,2.11-2.37,3.04-3.65
			c1.16-1.6,2.25-3.26,3.24-4.97c0.56-0.96,0.89-2.07,1.24-3.14c0.18-0.54,0-0.64-0.56-0.58c-1.3,0.15-2.4,0.76-3.48,1.43
			c-1.68,1.04-3.2,2.3-4.55,3.73c-1.03,1.09-2.12,2.18-2.42,3.77C7.3,47.86,7.18,48.14,7,48.26c-0.24,0.17-0.63,0.36-0.85,0.28
			c-1.12-0.44-1.99-1.19-2.45-2.34c-0.3-0.74-0.1-1.44,0.27-2.1c0.84-1.5,1.91-2.83,3.15-4c1.37-1.29,2.82-2.49,4.48-3.4
			c1.39-0.77,2.83-1.46,4.41-1.67c3.05-0.41,5.3,0.69,6.02,3.94c0.37,1.66-0.04,3.28-0.77,4.81c-1.5,3.15-3.54,5.93-5.78,8.57
			c-1.39,1.64-2.87,3.2-4.34,4.78c-0.57,0.61-1.21,1.14-1.82,1.7L9.43,58.96L9.43,58.96z"/>
		<path fill="#3A3A39" d="M65.77,43.78c0.82-0.28,1.63-0.57,2.45-0.83c2.13-0.65,4.27-0.82,6.37,0.05c1.07,0.44,1.86,1.25,2.48,2.24
			c0.68,1.09,0.89,2.26,0.88,3.52c-0.03,3.06-1.58,5.43-3.47,7.63c-1.53,1.78-3.44,3.08-5.57,4.03c-1.79,0.81-3.66,1.33-5.66,0.79
			c-1.59-0.43-2.91-1.2-3.73-2.69c-0.74-1.34-0.47-2.75,0.54-3.86c0.15-0.17,0.32-0.32,0.49-0.47c0.41-0.36,0.89-0.25,1.08,0.26
			c0.1,0.26,0.15,0.54,0.23,0.8c0.32,1.07,1.39,1.76,2.52,1.66c3.04-0.27,5.28-1.93,7.21-4.14c0.87-0.99,1.53-2.12,1.99-3.34
			c0.27-0.71,0.42-1.49,0.5-2.26c0.07-0.65-0.28-1.02-0.94-1.02c-0.85,0-1.72,0.04-2.55,0.2c-2.55,0.51-4.82,1.72-7.05,3
			c-0.43,0.25-0.82,0.58-1.19,0.92c-0.49,0.46-1.06,0.59-1.59,0.2c-0.45-0.32-0.87-0.7-1.22-1.12c-0.58-0.69-0.52-1.71,0.04-2.47
			c0.35-0.49,0.7-0.99,0.97-1.53c1.04-2.12,2.02-4.27,3.07-6.39c0.34-0.68,0.38-1.3,0.08-2.01c-0.39-0.91-0.09-1.45,0.89-1.71
			c2.4-0.64,4.79-1.27,7.2-1.86c1.58-0.38,3.18-0.69,4.78-0.98c0.47-0.09,0.98-0.1,1.45-0.01c1.08,0.2,1.69,0.92,1.88,2.08
			c0.19,1.13-0.01,1.41-1.15,1.69c-1.97,0.49-3.95,0.98-5.91,1.52c-1.47,0.41-2.91,0.88-4.36,1.36c-0.27,0.09-0.56,0.36-0.69,0.63
			C67.09,41.03,66.45,42.39,65.77,43.78z"/>
		<path fill="#3A3A39" d="M67.93,68.3c-0.03,0.17-0.04,0.43-0.14,0.65c-0.34,0.74-0.57,0.75-1.4,0.58c-1.6-0.31-3.21-0.55-4.82-0.76
			c-0.97-0.13-1.96-0.17-2.95-0.23c-0.83-0.05-1.65-0.11-2.48-0.11c-2.33,0-4.67-0.01-7,0.04c-1.08,0.02-2.17,0.16-3.25,0.26
			c-1.55,0.14-3.1,0.26-4.64,0.45c-1.65,0.2-3.3,0.45-4.95,0.71c-1.94,0.3-3.89,0.57-5.8,0.98c-2.34,0.5-4.66,1.07-6.96,1.7
			c-2.15,0.59-4.29,1.25-6.39,1.98c-1.94,0.67-3.82,1.47-5.73,2.23c-0.43,0.17-0.87,0.35-1.27,0.58c-0.55,0.32-1.08,0.26-1.5-0.13
			c-0.74-0.69-1.38-1.46-1.45-2.56c-0.03-0.55,0.13-0.93,0.63-1.2c2.08-1.15,4.22-2.17,6.44-3.05c3.33-1.31,6.74-2.36,10.22-3.14
			c2.92-0.65,5.86-1.19,8.81-1.7c2.15-0.37,4.31-0.67,6.48-0.9c1.91-0.2,3.83-0.29,5.74-0.36c2.05-0.08,4.1-0.17,6.14-0.13
			c2.38,0.06,4.76,0.18,7.12,0.42c1.97,0.2,3.93,0.55,5.87,0.93c0.9,0.18,1.82,0.41,2.55,1.04C67.68,67.02,67.97,67.55,67.93,68.3
			L67.93,68.3z"/>
		<path fill="#3A3A39" d="M8.35,12.8c-1.37,0.79-2.73,1.59-4.1,2.38c-0.3,0.17-0.61,0.34-0.93,0.46c-0.33,0.12-0.66,0.09-0.9-0.22
			c-0.2-0.26-0.43-0.5-0.61-0.77c-0.23-0.35-0.28-0.75,0.01-1.07c0.67-0.75,1.33-1.51,2.07-2.17c0.61-0.54,1.33-0.94,2.02-1.38
			c1.98-1.27,4.08-2.35,6.28-3.16c1.66-0.61,3.43-1.01,5.18-1.28c1.69-0.26,3.35,0.03,4.73,1.21c1.54,1.31,2.13,3.01,1.96,4.97
			c-0.19,2.31-1.25,4.28-2.64,6.08c-0.7,0.91-1.38,1.85-2.19,2.64c-2.15,2.08-4.39,4.06-7.03,5.52c-0.86,0.48-1.75,0.93-2.65,1.33
			C9,27.59,8.72,27.97,8.59,28.53c-0.43,1.75-0.9,3.49-1.32,5.24c-0.19,0.79-0.32,1.59-0.48,2.39C6.63,37,5.94,37.29,5.21,36.82
			c-0.1-0.07-0.22-0.1-0.33-0.15c-1.72-0.73-2.1-1.61-1.73-3.2c0.43-1.86,0.92-3.71,1.4-5.56c0.07-0.28,0-0.41-0.21-0.6
			c-0.7-0.6-0.97-0.98-0.57-1.61c0.19-0.31,0.56-0.56,0.91-0.72c0.44-0.21,0.69-0.47,0.82-0.96c0.54-2.12,1.12-4.23,1.69-6.34
			c0.42-1.58,0.85-3.15,1.27-4.73C8.41,12.9,8.38,12.85,8.35,12.8L8.35,12.8z M10.12,22.22c0.05,0.03,0.09,0.05,0.14,0.08
			c0.66-0.44,1.35-0.85,1.99-1.32c2.26-1.66,4.38-3.47,6.09-5.73c1.13-1.49,2.03-3.07,2.36-4.94c0.09-0.49-0.08-0.84-0.54-1
			c-0.34-0.11-0.71-0.18-1.06-0.18c-2.1-0.04-3.98,0.81-5.87,1.56c-0.25,0.1-0.36,0.3-0.16,0.59c0.08,0.12,0.09,0.33,0.05,0.48
			c-0.32,1.13-0.66,2.25-0.99,3.38c-0.45,1.51-0.91,3.02-1.34,4.53C10.54,20.51,10.34,21.37,10.12,22.22L10.12,22.22z"/>
		<path fill="#3A3A39" d="M47.49,55.78c0.98-0.13,1.89-0.27,2.8-0.37c1.79-0.2,3.59-0.42,5.39-0.14c0.38,0.06,0.8,0.28,1.08,0.56
			c0.7,0.67,1.32,1.43,1.32,2.49c0,0.53-0.3,0.81-0.83,0.87c-2.61,0.27-5.23,0.46-7.81,0.87c-2.37,0.38-4.7,0.98-7.04,1.52
			c-0.47,0.11-0.91,0.32-1.35,0.51c-0.73,0.32-1.48,0.17-1.98-0.44c-0.35-0.43-0.75-0.84-1.02-1.32c-0.52-0.94-0.38-1.98,0.59-2.68
			c1.34-0.96,2.63-2.01,3.84-3.13c1.68-1.54,3.32-3.12,4.87-4.79c1.54-1.65,2.99-3.39,4.37-5.18c1.12-1.44,2.17-2.94,3.07-4.51
			c0.55-0.96,0.8-2.09,1.15-3.16c0.14-0.43-0.2-0.77-0.67-0.75c-1.2,0.04-2.19,0.64-3.16,1.24c-2.28,1.42-4.14,3.29-5.66,5.49
			c-0.54,0.77-0.86,1.69-1.27,2.55c-0.19,0.39-0.65,0.62-0.98,0.36c-0.67-0.52-1.35-1.05-1.89-1.69c-0.66-0.77-0.49-1.69-0.02-2.49
			c0.45-0.76,0.99-1.47,1.52-2.19c1.61-2.2,3.56-4.04,5.92-5.41c1.62-0.94,3.36-1.54,5.25-1.28c2.11,0.29,3.55,1.5,4.08,3.58
			c0.36,1.4,0.38,2.84-0.19,4.23c-0.42,1.02-0.8,2.07-1.31,3.05c-0.97,1.87-2.11,3.65-3.51,5.22c-2.08,2.33-4.3,4.55-6.45,6.81
			C47.58,55.61,47.56,55.65,47.49,55.78L47.49,55.78z"/>
		<path fill="#3A3A39" d="M40.04,42.96c-0.08,1.3-0.06,2.39-0.25,3.44c-0.24,1.32-0.62,2.63-0.99,3.92c-0.63,2.2-1.6,4.25-2.89,6.13
			c-1.44,2.09-3.05,4.02-5.3,5.31c-0.96,0.55-2,0.94-3.09,0.94c-1,0-1.97-0.27-2.85-0.84c-1.76-1.13-2.8-2.76-3.24-4.74
			c-0.3-1.35-0.33-2.75-0.08-4.13c0.21-1.18,0.32-2.38,0.64-3.52c0.38-1.31,0.89-2.59,1.45-3.84c0.47-1.06,1.07-2.07,1.66-3.07
			c0.97-1.63,2.15-3.11,3.44-4.5c0.9-0.98,1.87-1.87,3.08-2.45c1.37-0.67,2.81-0.52,3.82,0.78c0.09,0.11,0.23,0.23,0.36,0.25
			c2.28,0.3,3.3,1.86,3.83,3.87C39.85,41.38,39.93,42.29,40.04,42.96L40.04,42.96z M25.32,56.73c0.07,0.48,0.13,1.12,0.26,1.75
			c0.17,0.84,0.83,1.2,1.56,0.75c0.87-0.53,1.73-1.11,2.46-1.81c2.02-1.94,3.45-4.3,4.59-6.84c1.21-2.72,2.05-5.54,2.13-8.53
			c0.02-0.7-0.01-1.44-0.2-2.11c-0.2-0.73-0.74-1.15-1.56-0.73c-0.22,0.11-0.43,0.23-0.63,0.37c-1.96,1.35-3.31,3.25-4.59,5.19
			c-1.34,2.02-2.3,4.23-3.05,6.54C25.72,53.01,25.47,54.77,25.32,56.73L25.32,56.73z"/>
		<path fill="#3A3A39" d="M63.41,26.19c0.64-1.27,1.28-2.55,1.93-3.82c0.93-1.82,1.86-3.64,2.8-5.46c0.67-1.3,1.33-2.6,2.02-3.89
			c0.67-1.26,1.33-2.53,2.05-3.75c1.34-2.27,2.72-4.52,4.09-6.77c0.48-0.79,1-0.81,1.79-0.28c0.41,0.28,0.75,0.54,0.98,0.98
			c0.45,0.84,0.01,1.52-0.36,2.19c-0.64,1.16-1.35,2.28-1.99,3.44c-0.88,1.6-1.74,3.2-2.58,4.82c-1.21,2.35-2.39,4.7-3.56,7.06
			c-0.77,1.54-1.52,3.08-2.27,4.63c-0.86,1.78-1.69,3.56-2.55,5.34c-0.18,0.37-0.39,0.74-0.6,1.1c-0.43,0.74-1,0.93-1.9,0.66
			c-1.44-0.42-2.57-1.25-3.24-2.58c-0.27-0.54-0.39-1.19-0.46-1.8c-0.18-1.53-0.33-3.06-0.42-4.6c-0.07-1.28-0.03-2.57-0.02-3.85
			c0-1.44-0.03-2.88,0.03-4.31c0.09-1.87,0.25-3.74,0.4-5.6c0.05-0.66,0.68-1.29,1.47-1.35c1.25-0.1,2.07,0.07,2.58,1.19
			c0.11,0.24,0.17,0.54,0.15,0.8c-0.08,1.57-0.21,3.13-0.29,4.7c-0.06,1.1-0.09,2.2-0.12,3.29c-0.02,0.68-0.05,1.37-0.05,2.05
			c0,1.5,0.02,2.99,0.03,4.49c0,0.42,0,0.83,0,1.25C63.35,26.16,63.38,26.18,63.41,26.19L63.41,26.19z"/>
		<path fill="#3A3A39" d="M46.45,10.57c-0.37,0.11-0.66,0.23-0.97,0.29c-0.18,0.04-0.43,0.07-0.55-0.03
			c-0.75-0.59-1.69-1.03-1.84-2.14c-0.06-0.46-0.04-0.83,0.45-1.15c1.41-0.92,2.89-1.69,4.47-2.27c1.62-0.6,3.21-1.31,4.85-1.85
			c2.11-0.69,4.27-1.2,6.5-1.3c0.98-0.04,2.66,1.01,2.9,2.3c0.11,0.58-0.13,0.95-0.73,1.09c-1.27,0.31-2.57,0.55-3.82,0.95
			c-1.86,0.6-3.69,1.32-5.54,1.95c-0.86,0.29-0.88,1.08-1.11,1.72c-0.6,1.7-1.13,3.42-1.68,5.13c-0.06,0.18-0.08,0.36-0.15,0.66
			c0.31-0.09,0.53-0.17,0.75-0.23c1.51-0.39,3.02-0.8,4.53-1.16c0.94-0.23,1.56,0.35,2.1,1c0.45,0.54,0.59,1.2,0.27,1.85
			c-0.13,0.27-0.44,0.53-0.72,0.63c-1.67,0.61-3.37,1.16-5.05,1.77c-0.99,0.36-1.97,0.77-2.91,1.23c-0.27,0.13-0.52,0.48-0.59,0.78
			c-0.56,2.39-1.1,4.79-1.61,7.2c-0.22,1.06-0.31,2.16-0.53,3.22c-0.06,0.29-0.33,0.59-0.59,0.77c-0.24,0.17-0.53,0.13-0.79-0.16
			c-0.22-0.25-0.58-0.37-0.88-0.55c-1.03-0.63-1.46-1.54-1.27-2.74c0.38-2.36,0.68-4.74,1.18-7.08c0.14-0.67-0.01-0.96-0.43-1.35
			c-0.82-0.76-0.69-1.74,0.27-2.33c0.3-0.18,0.57-0.43,0.89-0.53c0.46-0.15,0.55-0.52,0.65-0.87c0.52-1.79,1.03-3.6,1.54-5.4
			C46.18,11.54,46.31,11.08,46.45,10.57L46.45,10.57z"/>
		<path fill="#3A3A39" d="M28.57,17.85c1.39-0.43,2.6-0.81,3.81-1.18c0.23-0.07,0.47-0.12,0.71-0.18c1.08-0.25,1.97,0.23,2.38,1.28
			c0.05,0.13,0.09,0.26,0.14,0.39c0.3,0.75,0.16,1.2-0.58,1.53c-1.13,0.51-2.3,0.94-3.42,1.45c-1.44,0.66-2.85,1.35-4.27,2.06
			c-0.17,0.09-0.35,0.3-0.4,0.48c-0.51,1.82-1.01,3.65-1.47,5.48c-0.35,1.39-0.65,2.8-0.96,4.2c-0.17,0.77-0.64,1-1.33,0.65
			c-0.25-0.13-0.48-0.28-0.73-0.4c-0.95-0.47-1.46-1.21-1.28-2.27c0.3-1.8,0.66-3.58,1.01-5.37c0.12-0.59,0.33-1.17,0.41-1.77
			c0.03-0.25-0.1-0.59-0.27-0.77c-0.45-0.48-0.78-1-0.89-1.67c-0.08-0.46,0.09-0.73,0.44-0.95c0.41-0.26,0.8-0.56,1.23-0.75
			c0.67-0.29,0.82-0.88,0.99-1.48c0.59-2.05,1.18-4.1,1.79-6.15c0.1-0.32,0.06-0.51-0.21-0.76c-0.56-0.52-1.02-1.14-1.07-1.96
			c-0.03-0.52,0.17-0.89,0.62-1.1c0.8-0.37,1.6-0.78,2.44-1.06c1.87-0.63,3.75-1.25,5.65-1.77c1.27-0.35,2.58-0.6,3.88-0.72
			c0.44-0.04,1.01,0.37,1.37,0.72c0.53,0.51,0.77,1.21,0.82,1.96c0.02,0.36-0.13,0.57-0.45,0.67c-0.86,0.26-1.74,0.48-2.59,0.75
			c-1.37,0.44-2.72,0.91-4.08,1.38c-0.11,0.04-0.22,0.13-0.33,0.15c-1.07,0.15-1.32,0.94-1.56,1.82c-0.25,0.93-0.62,1.83-0.93,2.74
			C29.17,16.08,28.9,16.89,28.57,17.85L28.57,17.85z"/>
	</g>
</g>
</svg>
