<svg width="101" height="101" viewBox="0 0 101 101" fill="none" xmlns="http://www.w3.org/2000/svg">
<path d="M50.98 0.487793L55.5868 3.71411L60.7345 1.44853L64.6234 5.5116L70.1142 4.29382L73.1356 9.03749L78.7585 8.91431L80.7965 14.1563L86.3353 15.1325L87.3115 20.6713L92.5535 22.7093L92.4303 28.3321L97.174 31.3536L95.9562 36.8444L100.019 40.7333L97.7537 45.881L100.98 50.4878L97.7537 55.0946L100.019 60.2423L95.9562 64.1312L97.174 69.622L92.4303 72.6434L92.5535 78.2663L87.3115 80.3043L86.3353 85.8431L80.7965 86.8193L78.7585 92.0613L73.1356 91.9381L70.1142 96.6818L64.6234 95.464L60.7345 99.5271L55.5868 97.2615L50.98 100.488L46.3732 97.2615L41.2255 99.5271L37.3366 95.464L31.8458 96.6818L28.8243 91.9381L23.2015 92.0613L21.1635 86.8193L15.6246 85.8431L14.6485 80.3043L9.4065 78.2663L9.52968 72.6434L4.786 69.622L6.00378 64.1312L1.94072 60.2423L4.2063 55.0946L0.97998 50.4878L4.2063 45.881L1.94072 40.7333L6.00378 36.8444L4.786 31.3536L9.52968 28.3321L9.4065 22.7093L14.6485 20.6713L15.6246 15.1325L21.1635 14.1563L23.2015 8.91431L28.8243 9.03749L31.8458 4.29382L37.3366 5.5116L41.2255 1.44853L46.3732 3.71411L50.98 0.487793Z" fill="#FF6600"/>
<path d="M51.2917 5.47754L55.1462 8.17676L59.4558 6.28125L59.8035 6.12793L60.0671 6.40332L63.321 9.80371L67.9167 8.78418L68.2878 8.70215L68.4929 9.02344L71.0212 12.9932L75.7273 12.8896L76.1082 12.8818L76.2458 13.2363L77.9509 17.623L82.5867 18.4404L82.9617 18.5068L83.0281 18.8818L83.8435 23.5166L88.2312 25.2227L88.5867 25.3604L88.5779 25.7412L88.4744 30.4463L92.4451 32.9756L92.7664 33.1797L92.6833 33.5518L91.6638 38.1465L95.0652 41.4014L95.3396 41.6641L95.1863 42.0127L93.2898 46.3203L95.99 50.1768L96.2087 50.4883L95.99 50.7998L93.2898 54.6553L95.1863 58.9639L95.3396 59.3115L95.0652 59.5752L91.6638 62.8291L92.6833 67.4248L92.7664 67.7959L92.4451 68.001L88.4744 70.5293L88.5779 75.2354L88.5867 75.6162L88.2312 75.7539L83.8435 77.459L83.0281 82.0947L82.9617 82.4697L82.5867 82.5361L77.9509 83.3516L76.2458 87.7393L76.1082 88.0947L75.7273 88.0859L71.0212 87.9824L68.4929 91.9531L68.2878 92.2744L67.9167 92.1914L63.321 91.1719L60.0671 94.5732L59.8035 94.8477L59.4558 94.6943L55.1472 92.7979L51.2917 95.498L50.9802 95.7168L50.6687 95.498L46.8123 92.7979L42.5046 94.6943L42.156 94.8477L41.8933 94.5732L38.6384 91.1719L34.0437 92.1914L33.6716 92.2744L33.4675 91.9531L30.9382 87.9824L26.2332 88.0859L25.8523 88.0947L25.7146 87.7393L24.0085 83.3516L19.3738 82.5361L18.9988 82.4697L18.9324 82.0947L18.115 77.459L13.7283 75.7539L13.3738 75.6162L13.3816 75.2354L13.4851 70.5293L9.51538 68.001L9.19409 67.7959L9.27612 67.4248L10.2957 62.8291L6.89526 59.5752L6.61987 59.3115L6.77319 58.9639L8.6687 54.6543L5.96948 50.7998L5.75171 50.4883L5.96948 50.1768L8.66968 46.3203L6.77319 42.0127L6.61987 41.6641L6.89526 41.4014L10.2947 38.1455L9.27612 33.5518L9.19409 33.1797L9.51538 32.9756L13.4851 30.4463L13.3816 25.7412L13.3738 25.3604L13.7283 25.2227L18.115 23.5166L18.9324 18.8818L18.9988 18.5068L19.3738 18.4404L24.0085 17.623L25.7146 13.2363L25.8523 12.8818L26.2332 12.8896L30.9382 12.9932L33.4675 9.02344L33.6716 8.70215L34.0437 8.78418L38.6375 9.80273L41.8933 6.40332L42.156 6.12793L42.5046 6.28125L46.8123 8.17773L50.6687 5.47754L50.9802 5.25977L51.2917 5.47754Z" fill="#FF6600" stroke="#F8F4EF" stroke-width="1.08696"/>
<path d="M55.9905 76.3329C59.1875 75.6348 60.83 77.4266 61.3271 79.7031C61.8106 81.9173 61.0711 84.3205 57.8741 85.0186C54.9134 85.6651 53.486 84.7386 52.793 82.4007L55.0446 81.909C55.3886 83.0068 56.0026 83.5505 57.4456 83.2354C58.9508 82.9067 59.4103 81.9071 59.0381 80.2029C58.6714 78.5235 57.8842 77.7831 56.3914 78.1091C54.9111 78.4323 54.512 79.1711 54.6884 80.3968L52.4119 80.8939C52.0568 78.3127 52.9552 76.9957 55.9905 76.3329ZM43.3067 77.9893C43.3979 77.3078 43.3695 76.9443 43.3454 76.4529L45.5918 76.7537C45.6472 77.108 45.6334 77.5943 45.5405 78.2884L45.4948 78.6292C45.3867 79.4369 45.8534 79.8848 46.5728 79.9811L48.0998 80.1856L48.5071 77.1441L50.7535 77.4449L49.6297 85.8374L44.9854 85.2155C43.0924 84.962 42.3012 83.8668 42.4821 82.5165C42.6426 81.3176 43.5206 80.6129 44.5968 80.5387C43.7514 80.2328 43.0785 79.693 43.2442 78.4562L43.3067 77.9893ZM47.8869 81.7757L46.0822 81.5341C45.3124 81.431 44.9495 81.7421 44.8532 82.4614C44.7653 83.1177 45.0495 83.4898 45.7941 83.5895L47.6114 83.8328L47.8869 81.7757ZM34.6098 72.2086L36.6211 73.2255L36.3916 74.8929L39.6301 76.5302L40.8482 75.3625L42.8481 76.3736L36.4484 82.6261L33.3689 81.0693L34.6098 72.2086ZM38.3547 77.783L36.1389 76.6627L35.6267 80.4415L38.3547 77.783ZM34.1325 71.7235L28.1174 77.6831L23.3946 72.9163L24.6519 71.6706L27.7975 74.8455L29.0457 73.6087L26.2227 70.7595L27.3896 69.6035L30.2125 72.4527L32.5552 70.1316L34.1325 71.7235ZM27.7835 64.1392L21.8623 67.2691L23.1357 69.6781L21.571 70.5052L17.977 63.706L19.5417 62.8789L20.8151 65.2879L26.7363 62.158L27.7835 64.1392ZM25.2888 59.0662L23.5588 59.4396L23.2445 57.9833L18.4278 59.0228L18.742 60.479L17.012 60.8524L15.9107 55.7494L17.6408 55.376L17.955 56.8322L22.7718 55.7928L22.4575 54.3365L24.1876 53.9632L25.2888 59.0662ZM22.9117 46.1331L16.2799 45.5291L16.4739 43.3988L24.9064 44.1668L24.5726 47.8314L18.8557 49.6761C18.4741 49.7948 18.081 49.8996 17.6775 49.978L24.322 50.5831L24.128 52.7134L15.6955 51.9455L16.0293 48.2808L21.8626 46.4211C22.1785 46.3221 22.559 46.2161 22.9117 46.1331ZM27.0897 39.7339C25.8563 42.2063 23.4933 42.4078 21.3399 41.3335C19.1408 40.2366 17.9602 38.125 19.4323 35.174C20.7396 32.5534 22.4703 32.1362 24.0027 32.7725L23.0023 34.7778C22.296 34.5393 21.5275 34.8532 20.9876 35.9356C20.3112 37.2915 20.6766 38.3845 22.3857 39.2371C23.9922 40.0385 25.1024 39.8382 25.7788 38.4823C26.4609 37.1151 26.016 36.3239 25.224 35.7723L24.002 38.222L22.7372 37.5911L24.9085 33.2386L29.0673 35.3133L28.2317 36.9882L26.8417 36.2947C27.5028 36.9945 27.9195 38.0704 27.0897 39.7339ZM31.8823 28.5515C32.3539 29.073 33.1029 29.3065 34.0495 28.595C34.9146 27.9447 35.0108 27.3946 34.6589 26.9264C34.3223 26.4785 33.8893 26.4535 33.3269 26.7648L31.7286 27.7113C30.4001 28.4868 29.1776 28.3226 28.3131 27.1724C27.3568 25.9001 27.6556 24.3057 29.6098 22.8368C31.6964 21.2684 33.2807 21.6386 34.2751 22.7708L32.5041 24.1019C32.0273 23.616 31.3524 23.5658 30.5891 24.1396C29.8969 24.6598 29.6964 25.2407 30.033 25.6885C30.2931 26.0346 30.6879 26.136 31.2529 25.8069L32.645 24.9676C34.2382 23.9932 35.4378 24.1905 36.3559 25.4119C37.3581 26.7453 37.1967 28.2683 34.9982 29.9208C32.7691 31.5963 31.1234 31.0174 30.1418 29.8597L31.8823 28.5515ZM38.5721 27.1706L37.931 25.5209L39.3196 24.9812L37.5347 20.3882L36.1461 20.9278L35.505 19.2782L40.371 17.3872L41.0121 19.0369L39.6235 19.5765L41.4084 24.1695L42.797 23.6299L43.438 25.2796L38.5721 27.1706ZM50.9813 22.8178L50.5636 16.1716L52.6985 16.0374L53.2296 24.4882L49.5571 24.719L46.8595 19.3516C46.6838 18.9926 46.5201 18.6202 46.3809 18.2334L46.7995 24.8923L44.6646 25.0265L44.1334 16.5758L47.806 16.345L50.5362 21.8252C50.6824 22.1222 50.8454 22.4819 50.9813 22.8178ZM58.4269 26.0856C55.3025 25.1127 54.76 22.7434 55.4527 20.5186C56.1265 18.3546 57.9569 16.6308 61.0813 17.6037C63.9747 18.5046 64.7579 20.0154 64.205 22.3904L62.0046 21.7052C62.248 20.5808 61.9829 19.8048 60.5727 19.3657C59.1016 18.9076 58.2083 19.5496 57.6896 21.2152C57.1786 22.8564 57.4972 23.8891 58.956 24.3433C60.4027 24.7938 61.1148 24.3487 61.5671 23.196L63.7918 23.8887C62.8251 26.3082 61.3932 27.0093 58.4269 26.0856ZM67.4097 26.2238L66.3885 27.6065L70.0655 30.3221L69.0141 31.7458L63.5344 27.6989L68.5648 20.8877L74.0137 24.912L72.9622 26.3357L69.316 23.6427L68.3855 24.9025L71.7245 27.3685L70.7487 28.6898L67.4097 26.2238ZM71.945 35.1795L73.4753 34.3422L78.0421 36.7202C78.7336 37.0821 79.2295 37.0865 79.6652 36.8481C80.1567 36.5792 80.3877 36.0464 79.9537 35.2533C79.312 34.0805 78.3456 34.1448 77.4114 34.6124L76.3295 32.6353C77.934 31.8009 80.058 31.916 81.4882 34.5298C82.729 36.7973 82.1443 38.0897 80.9491 38.7437C79.955 39.2876 78.7364 39.1561 76.6037 37.8846L74.9055 36.956L77.1363 41.0331L75.606 41.8705L71.945 35.1795ZM76.3413 46.7632C75.828 43.712 77.7767 42.2479 80.0118 41.8719C82.2092 41.5023 84.5924 42.2376 85.1058 45.2888C85.6191 48.34 83.595 49.8168 81.4102 50.1843C79.1877 50.5582 76.8546 49.8145 76.3413 46.7632ZM80.4005 44.1823C78.7681 44.4569 77.8876 44.9795 78.1369 46.4612C78.3862 47.9428 79.3892 48.1485 81.0215 47.8739C82.679 47.5951 83.5469 47.0746 83.2976 45.593C83.0484 44.1113 82.0579 43.9035 80.4005 44.1823ZM77.1408 51.4453L78.8734 51.6479L78.6544 53.5196L83.5993 54.0981L83.7975 52.4035L85.5301 52.6062L85.3274 54.3388C85.144 55.9069 84.3015 56.4237 83.2266 56.298L78.3955 55.7328L78.2062 57.3516L76.4736 57.1489L77.1408 51.4453ZM74.4827 61.225C75.6998 58.3803 78.1306 58.2016 80.2144 59.0931C82.263 59.9695 83.8709 61.8762 82.6539 64.7209C81.4368 67.5656 78.9357 67.7143 76.8988 66.8428C74.8268 65.9563 73.2657 64.0697 74.4827 61.225ZM79.2928 61.2471C77.771 60.596 76.7478 60.5598 76.1568 61.9412C75.5658 63.3226 76.2985 64.0377 77.8204 64.6888C79.3656 65.3499 80.3772 65.381 80.9682 63.9997C81.5591 62.6183 80.8381 61.9082 79.2928 61.2471ZM73.4187 71.2809L69.4219 75.023L68.4298 73.9634L72.4266 70.2213L73.4187 71.2809Z" fill="#F8F4EF"/>
<path d="M49.0119 67.8118H52.9785C54.4896 67.8118 55.4656 66.7414 55.1822 65.4349L54.5369 62.5859H47.4535L46.8082 65.4349C46.5248 66.6627 47.5952 67.8118 49.0119 67.8118Z" stroke="#F8F4EF" stroke-width="1.88889" stroke-linecap="round" stroke-linejoin="round"/>
<path d="M54.5368 62.5705L57.26 60.1463C58.7868 58.7926 58.8498 57.8481 57.6377 56.3212L52.8368 50.2297C51.8294 48.9547 50.1766 48.9547 49.1692 50.2297L44.3683 56.3212C43.1563 57.8481 43.1563 58.8399 44.7461 60.1463L47.4692 62.5705" stroke="#F8F4EF" stroke-width="1.88889" stroke-linecap="round" stroke-linejoin="round"/>
<path d="M50.9951 49.8989V53.8814" stroke="#F8F4EF" stroke-width="1.88889" stroke-linecap="round" stroke-linejoin="round"/>
<path d="M49.6415 40.5648L48.4137 39.337C47.6739 38.5971 47.6739 37.4009 48.4137 36.6611L49.6415 35.4333C50.3813 34.6935 51.5776 34.6935 52.3174 35.4333L53.5452 36.6611C54.285 37.4009 54.285 38.5971 53.5452 39.337L52.3174 40.5648C51.5776 41.3046 50.3813 41.3046 49.6415 40.5648Z" stroke="#F8F4EF" stroke-width="1.88889" stroke-linecap="round" stroke-linejoin="round"/>
<path d="M62.7063 47.8369H64.4378C65.4766 47.8369 66.3266 48.6869 66.3266 49.7258V51.4573C66.3266 52.4962 65.4766 53.3463 64.4378 53.3463H62.7063C61.6674 53.3463 60.8174 52.4962 60.8174 51.4573V49.7258C60.8174 48.6869 61.6674 47.8369 62.7063 47.8369Z" stroke="#F8F4EF" stroke-width="1.88889" stroke-linecap="round" stroke-linejoin="round"/>
<path d="M39.2527 47.8369H37.5212C36.4823 47.8369 35.6323 48.6869 35.6323 49.7258V51.4573C35.6323 52.4962 36.4823 53.3463 37.5212 53.3463H39.2527C40.2916 53.3463 41.1416 52.4962 41.1416 51.4573V49.7258C41.1416 48.6869 40.2916 47.8369 39.2527 47.8369Z" stroke="#F8F4EF" stroke-width="1.88889" stroke-linecap="round" stroke-linejoin="round"/>
<path d="M61.274 48.2928L52.9314 39.9502" stroke="#F8F4EF" stroke-width="1.88889" stroke-linecap="round" stroke-linejoin="round"/>
<path d="M40.6851 48.2928L49.0277 39.9502" stroke="#F8F4EF" stroke-width="1.88889" stroke-linecap="round" stroke-linejoin="round"/>
</svg>
